%TF.GenerationSoftware,KiCad,Pcbnew,5.1.6-c6e7f7d~87~ubuntu18.04.1*%
%TF.CreationDate,2020-10-24T16:34:10-07:00*%
%TF.ProjectId,feather-power-supply-sw-smd-adj,66656174-6865-4722-9d70-6f7765722d73,rev?*%
%TF.SameCoordinates,Original*%
%TF.FileFunction,Legend,Top*%
%TF.FilePolarity,Positive*%
%FSLAX46Y46*%
G04 Gerber Fmt 4.6, Leading zero omitted, Abs format (unit mm)*
G04 Created by KiCad (PCBNEW 5.1.6-c6e7f7d~87~ubuntu18.04.1) date 2020-10-24 16:34:10*
%MOMM*%
%LPD*%
G01*
G04 APERTURE LIST*
%ADD10C,0.127000*%
%ADD11C,0.190500*%
%ADD12C,0.300000*%
%ADD13C,0.125000*%
%ADD14C,0.120000*%
%ADD15C,0.150000*%
G04 APERTURE END LIST*
D10*
X135418285Y-72317428D02*
X135998857Y-72317428D01*
X135708571Y-72607714D02*
X135708571Y-72027142D01*
X136724571Y-71845714D02*
X136361714Y-71845714D01*
X136325428Y-72208571D01*
X136361714Y-72172285D01*
X136434285Y-72136000D01*
X136615714Y-72136000D01*
X136688285Y-72172285D01*
X136724571Y-72208571D01*
X136760857Y-72281142D01*
X136760857Y-72462571D01*
X136724571Y-72535142D01*
X136688285Y-72571428D01*
X136615714Y-72607714D01*
X136434285Y-72607714D01*
X136361714Y-72571428D01*
X136325428Y-72535142D01*
X136978571Y-71845714D02*
X137232571Y-72607714D01*
X137486571Y-71845714D01*
D11*
X144435285Y-93461114D02*
X144580428Y-93461114D01*
X144653000Y-93497400D01*
X144725571Y-93569971D01*
X144761857Y-93715114D01*
X144761857Y-93969114D01*
X144725571Y-94114257D01*
X144653000Y-94186828D01*
X144580428Y-94223114D01*
X144435285Y-94223114D01*
X144362714Y-94186828D01*
X144290142Y-94114257D01*
X144253857Y-93969114D01*
X144253857Y-93715114D01*
X144290142Y-93569971D01*
X144362714Y-93497400D01*
X144435285Y-93461114D01*
X145342428Y-93823971D02*
X145088428Y-93823971D01*
X145088428Y-94223114D02*
X145088428Y-93461114D01*
X145451285Y-93461114D01*
X145995571Y-93823971D02*
X145741571Y-93823971D01*
X145741571Y-94223114D02*
X145741571Y-93461114D01*
X146104428Y-93461114D01*
X139482285Y-93461114D02*
X139627428Y-93461114D01*
X139700000Y-93497400D01*
X139772571Y-93569971D01*
X139808857Y-93715114D01*
X139808857Y-93969114D01*
X139772571Y-94114257D01*
X139700000Y-94186828D01*
X139627428Y-94223114D01*
X139482285Y-94223114D01*
X139409714Y-94186828D01*
X139337142Y-94114257D01*
X139300857Y-93969114D01*
X139300857Y-93715114D01*
X139337142Y-93569971D01*
X139409714Y-93497400D01*
X139482285Y-93461114D01*
X140135428Y-94223114D02*
X140135428Y-93461114D01*
X140570857Y-94223114D01*
X140570857Y-93461114D01*
D12*
X147312771Y-102782571D02*
X147312771Y-103639714D01*
X147312771Y-103211142D02*
X145812771Y-103211142D01*
X146027057Y-103354000D01*
X146169914Y-103496857D01*
X146241342Y-103639714D01*
X145955628Y-102211142D02*
X145884200Y-102139714D01*
X145812771Y-101996857D01*
X145812771Y-101639714D01*
X145884200Y-101496857D01*
X145955628Y-101425428D01*
X146098485Y-101354000D01*
X146241342Y-101354000D01*
X146455628Y-101425428D01*
X147312771Y-102282571D01*
X147312771Y-101354000D01*
X145812771Y-100925428D02*
X147312771Y-100425428D01*
X145812771Y-99925428D01*
D10*
X144834428Y-67843400D02*
X144761857Y-67807114D01*
X144653000Y-67807114D01*
X144544142Y-67843400D01*
X144471571Y-67915971D01*
X144435285Y-67988542D01*
X144399000Y-68133685D01*
X144399000Y-68242542D01*
X144435285Y-68387685D01*
X144471571Y-68460257D01*
X144544142Y-68532828D01*
X144653000Y-68569114D01*
X144725571Y-68569114D01*
X144834428Y-68532828D01*
X144870714Y-68496542D01*
X144870714Y-68242542D01*
X144725571Y-68242542D01*
X145197285Y-68569114D02*
X145197285Y-67807114D01*
X145632714Y-68569114D01*
X145632714Y-67807114D01*
X145995571Y-68569114D02*
X145995571Y-67807114D01*
X146177000Y-67807114D01*
X146285857Y-67843400D01*
X146358428Y-67915971D01*
X146394714Y-67988542D01*
X146431000Y-68133685D01*
X146431000Y-68242542D01*
X146394714Y-68387685D01*
X146358428Y-68460257D01*
X146285857Y-68532828D01*
X146177000Y-68569114D01*
X145995571Y-68569114D01*
X141784008Y-68278828D02*
X142364580Y-68278828D01*
X142074294Y-68569114D02*
X142074294Y-67988542D01*
X143090294Y-67807114D02*
X142727437Y-67807114D01*
X142691151Y-68169971D01*
X142727437Y-68133685D01*
X142800008Y-68097400D01*
X142981437Y-68097400D01*
X143054008Y-68133685D01*
X143090294Y-68169971D01*
X143126580Y-68242542D01*
X143126580Y-68423971D01*
X143090294Y-68496542D01*
X143054008Y-68532828D01*
X142981437Y-68569114D01*
X142800008Y-68569114D01*
X142727437Y-68532828D01*
X142691151Y-68496542D01*
X143344294Y-67807114D02*
X143598294Y-68569114D01*
X143852294Y-67807114D01*
X139314161Y-68532828D02*
X139423018Y-68569114D01*
X139604446Y-68569114D01*
X139677018Y-68532828D01*
X139713304Y-68496542D01*
X139749589Y-68423971D01*
X139749589Y-68351400D01*
X139713304Y-68278828D01*
X139677018Y-68242542D01*
X139604446Y-68206257D01*
X139459304Y-68169971D01*
X139386732Y-68133685D01*
X139350446Y-68097400D01*
X139314161Y-68024828D01*
X139314161Y-67952257D01*
X139350446Y-67879685D01*
X139386732Y-67843400D01*
X139459304Y-67807114D01*
X139640732Y-67807114D01*
X139749589Y-67843400D01*
X140511589Y-68496542D02*
X140475304Y-68532828D01*
X140366446Y-68569114D01*
X140293875Y-68569114D01*
X140185018Y-68532828D01*
X140112446Y-68460257D01*
X140076161Y-68387685D01*
X140039875Y-68242542D01*
X140039875Y-68133685D01*
X140076161Y-67988542D01*
X140112446Y-67915971D01*
X140185018Y-67843400D01*
X140293875Y-67807114D01*
X140366446Y-67807114D01*
X140475304Y-67843400D01*
X140511589Y-67879685D01*
X141201018Y-68569114D02*
X140838161Y-68569114D01*
X140838161Y-67807114D01*
X136844314Y-68532828D02*
X136953171Y-68569114D01*
X137134600Y-68569114D01*
X137207171Y-68532828D01*
X137243457Y-68496542D01*
X137279742Y-68423971D01*
X137279742Y-68351400D01*
X137243457Y-68278828D01*
X137207171Y-68242542D01*
X137134600Y-68206257D01*
X136989457Y-68169971D01*
X136916885Y-68133685D01*
X136880600Y-68097400D01*
X136844314Y-68024828D01*
X136844314Y-67952257D01*
X136880600Y-67879685D01*
X136916885Y-67843400D01*
X136989457Y-67807114D01*
X137170885Y-67807114D01*
X137279742Y-67843400D01*
X137606314Y-68569114D02*
X137606314Y-67807114D01*
X137787742Y-67807114D01*
X137896600Y-67843400D01*
X137969171Y-67915971D01*
X138005457Y-67988542D01*
X138041742Y-68133685D01*
X138041742Y-68242542D01*
X138005457Y-68387685D01*
X137969171Y-68460257D01*
X137896600Y-68532828D01*
X137787742Y-68569114D01*
X137606314Y-68569114D01*
X138332028Y-68351400D02*
X138694885Y-68351400D01*
X138259457Y-68569114D02*
X138513457Y-67807114D01*
X138767457Y-68569114D01*
D13*
X136706428Y-66809257D02*
X136742714Y-66700400D01*
X136742714Y-66518971D01*
X136706428Y-66446400D01*
X136670142Y-66410114D01*
X136597571Y-66373828D01*
X136525000Y-66373828D01*
X136452428Y-66410114D01*
X136416142Y-66446400D01*
X136379857Y-66518971D01*
X136343571Y-66664114D01*
X136307285Y-66736685D01*
X136271000Y-66772971D01*
X136198428Y-66809257D01*
X136125857Y-66809257D01*
X136053285Y-66772971D01*
X136017000Y-66736685D01*
X135980714Y-66664114D01*
X135980714Y-66482685D01*
X136017000Y-66373828D01*
X135980714Y-66156114D02*
X135980714Y-65720685D01*
X136742714Y-65938400D02*
X135980714Y-65938400D01*
X136343571Y-65466685D02*
X136343571Y-65212685D01*
X136742714Y-65103828D02*
X136742714Y-65466685D01*
X135980714Y-65466685D01*
X135980714Y-65103828D01*
X136742714Y-64777257D02*
X135980714Y-64777257D01*
X136525000Y-64523257D01*
X135980714Y-64269257D01*
X136742714Y-64269257D01*
X136742714Y-63906400D02*
X135980714Y-63906400D01*
X136525000Y-63652400D01*
X135980714Y-63398400D01*
X136742714Y-63398400D01*
X136525000Y-63071828D02*
X136525000Y-62708971D01*
X136742714Y-63144400D02*
X135980714Y-62890400D01*
X136742714Y-62636400D01*
X136815285Y-61293828D02*
X136779000Y-61366400D01*
X136706428Y-61438971D01*
X136597571Y-61547828D01*
X136561285Y-61620400D01*
X136561285Y-61692971D01*
X136742714Y-61656685D02*
X136706428Y-61729257D01*
X136633857Y-61801828D01*
X136488714Y-61838114D01*
X136234714Y-61838114D01*
X136089571Y-61801828D01*
X136017000Y-61729257D01*
X135980714Y-61656685D01*
X135980714Y-61511542D01*
X136017000Y-61438971D01*
X136089571Y-61366400D01*
X136234714Y-61330114D01*
X136488714Y-61330114D01*
X136633857Y-61366400D01*
X136706428Y-61438971D01*
X136742714Y-61511542D01*
X136742714Y-61656685D01*
X135980714Y-61112400D02*
X135980714Y-60676971D01*
X136742714Y-60894685D02*
X135980714Y-60894685D01*
D12*
X132015800Y-103098457D02*
X131944371Y-103241314D01*
X131944371Y-103455600D01*
X132015800Y-103669885D01*
X132158657Y-103812742D01*
X132301514Y-103884171D01*
X132587228Y-103955600D01*
X132801514Y-103955600D01*
X133087228Y-103884171D01*
X133230085Y-103812742D01*
X133372942Y-103669885D01*
X133444371Y-103455600D01*
X133444371Y-103312742D01*
X133372942Y-103098457D01*
X133301514Y-103027028D01*
X132801514Y-103027028D01*
X132801514Y-103312742D01*
X133444371Y-102384171D02*
X131944371Y-102384171D01*
X133444371Y-101527028D01*
X131944371Y-101527028D01*
X133444371Y-100812742D02*
X131944371Y-100812742D01*
X131944371Y-100455600D01*
X132015800Y-100241314D01*
X132158657Y-100098457D01*
X132301514Y-100027028D01*
X132587228Y-99955600D01*
X132801514Y-99955600D01*
X133087228Y-100027028D01*
X133230085Y-100098457D01*
X133372942Y-100241314D01*
X133444371Y-100455600D01*
X133444371Y-100812742D01*
D14*
%TO.C,JP2*%
X142152600Y-76615800D02*
X140752600Y-76615800D01*
X140052600Y-75915800D02*
X140052600Y-75315800D01*
X140752600Y-74615800D02*
X142152600Y-74615800D01*
X142852600Y-75315800D02*
X142852600Y-75915800D01*
X142852600Y-75915800D02*
G75*
G02*
X142152600Y-76615800I-700000J0D01*
G01*
X142152600Y-74615800D02*
G75*
G02*
X142852600Y-75315800I0J-700000D01*
G01*
X140052600Y-75315800D02*
G75*
G02*
X140752600Y-74615800I700000J0D01*
G01*
X140752600Y-76615800D02*
G75*
G02*
X140052600Y-75915800I0J700000D01*
G01*
D15*
%TO.C,SW1*%
X138345600Y-98244600D02*
X146845600Y-98244600D01*
X138345600Y-94744600D02*
X146845600Y-94744600D01*
X138345600Y-94744600D02*
X138345600Y-98244600D01*
X146845600Y-94744600D02*
X146845600Y-98244600D01*
%TO.C,L1*%
X146102000Y-81258000D02*
X146102000Y-84858000D01*
X139902000Y-81258000D02*
X139902000Y-84858000D01*
D14*
%TO.C,R6*%
X133509867Y-71448200D02*
X133167333Y-71448200D01*
X133509867Y-72468200D02*
X133167333Y-72468200D01*
%TO.C,R4*%
X136734733Y-92940600D02*
X137077267Y-92940600D01*
X136734733Y-91920600D02*
X137077267Y-91920600D01*
%TO.C,C6*%
X142221852Y-89333000D02*
X141699348Y-89333000D01*
X142221852Y-90753000D02*
X141699348Y-90753000D01*
%TO.C,C5*%
X142196452Y-87351800D02*
X141673948Y-87351800D01*
X142196452Y-88771800D02*
X141673948Y-88771800D01*
%TO.C,C3*%
X133509936Y-87778000D02*
X134714064Y-87778000D01*
X133509936Y-85958000D02*
X134714064Y-85958000D01*
%TO.C,J2*%
X128235400Y-105419200D02*
X130895400Y-105419200D01*
X128235400Y-67259200D02*
X128235400Y-105419200D01*
X130895400Y-67259200D02*
X130895400Y-105419200D01*
X128235400Y-67259200D02*
X130895400Y-67259200D01*
X128235400Y-65989200D02*
X128235400Y-64659200D01*
X128235400Y-64659200D02*
X129565400Y-64659200D01*
%TO.C,R7*%
X133178733Y-70944200D02*
X133521267Y-70944200D01*
X133178733Y-69924200D02*
X133521267Y-69924200D01*
%TO.C,C4*%
X136353733Y-78357000D02*
X136696267Y-78357000D01*
X136353733Y-79377000D02*
X136696267Y-79377000D01*
%TO.C,U1*%
X134867400Y-83110200D02*
X136367400Y-83110200D01*
X134867400Y-83110200D02*
X133367400Y-83110200D01*
X134867400Y-79890200D02*
X136367400Y-79890200D01*
X134867400Y-79890200D02*
X131942400Y-79890200D01*
%TO.C,R1*%
X133153333Y-88313800D02*
X133495867Y-88313800D01*
X133153333Y-89333800D02*
X133495867Y-89333800D01*
%TO.C,D2*%
X131773800Y-89751800D02*
X131773800Y-91451800D01*
X131773800Y-91451800D02*
X134323800Y-91451800D01*
X131773800Y-89751800D02*
X134323800Y-89751800D01*
%TO.C,C2*%
X133509936Y-83621200D02*
X134714064Y-83621200D01*
X133509936Y-85441200D02*
X134714064Y-85441200D01*
%TO.C,J3*%
X141843200Y-61043600D02*
X137963200Y-61043600D01*
X136793200Y-65513600D02*
X137843200Y-65513600D01*
X136793200Y-63013600D02*
X136793200Y-65513600D01*
X141963200Y-65513600D02*
X141963200Y-66503600D01*
X143013200Y-65513600D02*
X141963200Y-65513600D01*
X143013200Y-63013600D02*
X143013200Y-65513600D01*
%TO.C,Q1*%
X131846200Y-94181200D02*
X132776200Y-94181200D01*
X135006200Y-94181200D02*
X134076200Y-94181200D01*
X135006200Y-94181200D02*
X135006200Y-92021200D01*
X131846200Y-94181200D02*
X131846200Y-92721200D01*
%TO.C,R2*%
X137001067Y-74978800D02*
X136658533Y-74978800D01*
X137001067Y-75998800D02*
X136658533Y-75998800D01*
%TO.C,D3*%
X138918000Y-72775400D02*
X136033000Y-72775400D01*
X138918000Y-74595400D02*
X138918000Y-72775400D01*
X136033000Y-74595400D02*
X138918000Y-74595400D01*
%TO.C,J4*%
X146872000Y-68901000D02*
X146872000Y-70231000D01*
X145542000Y-68901000D02*
X146872000Y-68901000D01*
X144272000Y-68901000D02*
X144272000Y-71561000D01*
X144272000Y-71561000D02*
X136592000Y-71561000D01*
X144272000Y-68901000D02*
X136592000Y-68901000D01*
X136592000Y-68901000D02*
X136592000Y-71561000D01*
%TO.C,J5*%
X134360000Y-109675000D02*
X134860000Y-109675000D01*
X134360000Y-108935000D02*
X134360000Y-109675000D01*
X140933000Y-105798000D02*
X140886000Y-105844000D01*
X143230000Y-103500000D02*
X143195000Y-103536000D01*
X141126000Y-106014000D02*
X141091000Y-106049000D01*
X143435000Y-103706000D02*
X143388000Y-103752000D01*
X144720000Y-99514000D02*
X144720000Y-109435000D01*
X134600000Y-99514000D02*
X134600000Y-109435000D01*
X134600000Y-109435000D02*
X144720000Y-109435000D01*
X134600000Y-99514000D02*
X144720000Y-99514000D01*
X134600000Y-102474000D02*
X144720000Y-102474000D01*
X134600000Y-107375000D02*
X144720000Y-107375000D01*
X134600000Y-108875000D02*
X144720000Y-108875000D01*
X143840000Y-104775000D02*
G75*
G03*
X143840000Y-104775000I-1680000J0D01*
G01*
X137843318Y-106309756D02*
G75*
G02*
X137160000Y-106455000I-683318J1534756D01*
G01*
X138695426Y-104091958D02*
G75*
G02*
X138695000Y-105459000I-1535426J-683042D01*
G01*
X136476958Y-103239574D02*
G75*
G02*
X137844000Y-103240000I683042J-1535426D01*
G01*
X135624574Y-105458042D02*
G75*
G02*
X135625000Y-104091000I1535426J683042D01*
G01*
X137188805Y-106455253D02*
G75*
G02*
X136476000Y-106310000I-28805J1680253D01*
G01*
%TO.C,F1*%
X136093231Y-95394200D02*
X133553169Y-95394200D01*
X136093231Y-98814200D02*
X133553169Y-98814200D01*
%TO.C,JP1*%
X134750000Y-73715600D02*
X134750000Y-74315600D01*
X132650000Y-73015600D02*
X134050000Y-73015600D01*
X131950000Y-74315600D02*
X131950000Y-73715600D01*
X134050000Y-75015600D02*
X132650000Y-75015600D01*
X134750000Y-74315600D02*
G75*
G02*
X134050000Y-75015600I-700000J0D01*
G01*
X134050000Y-73015600D02*
G75*
G02*
X134750000Y-73715600I0J-700000D01*
G01*
X131950000Y-73715600D02*
G75*
G02*
X132650000Y-73015600I700000J0D01*
G01*
X132650000Y-75015600D02*
G75*
G02*
X131950000Y-74315600I0J700000D01*
G01*
%TO.C,R5*%
X132971000Y-78149267D02*
X132971000Y-77806733D01*
X131951000Y-78149267D02*
X131951000Y-77806733D01*
%TO.C,D1*%
X146592800Y-88655800D02*
X146592800Y-92505800D01*
X144592800Y-88655800D02*
X144592800Y-92505800D01*
X146592800Y-88655800D02*
X144592800Y-88655800D01*
%TO.C,R3*%
X133475000Y-77806733D02*
X133475000Y-78149267D01*
X134495000Y-77806733D02*
X134495000Y-78149267D01*
%TO.C,C1*%
X138428000Y-81235733D02*
X138428000Y-81578267D01*
X139448000Y-81235733D02*
X139448000Y-81578267D01*
%TO.C,J1*%
X148530000Y-74870000D02*
X149860000Y-74870000D01*
X148530000Y-76200000D02*
X148530000Y-74870000D01*
X148530000Y-77470000D02*
X151190000Y-77470000D01*
X151190000Y-77470000D02*
X151190000Y-105470000D01*
X148530000Y-77470000D02*
X148530000Y-105470000D01*
X148530000Y-105470000D02*
X151190000Y-105470000D01*
%TO.C,JP2*%
D15*
X143667266Y-75195180D02*
X143667266Y-75909466D01*
X143619647Y-76052323D01*
X143524409Y-76147561D01*
X143381552Y-76195180D01*
X143286314Y-76195180D01*
X144143457Y-76195180D02*
X144143457Y-75195180D01*
X144524409Y-75195180D01*
X144619647Y-75242800D01*
X144667266Y-75290419D01*
X144714885Y-75385657D01*
X144714885Y-75528514D01*
X144667266Y-75623752D01*
X144619647Y-75671371D01*
X144524409Y-75718990D01*
X144143457Y-75718990D01*
X145095838Y-75290419D02*
X145143457Y-75242800D01*
X145238695Y-75195180D01*
X145476790Y-75195180D01*
X145572028Y-75242800D01*
X145619647Y-75290419D01*
X145667266Y-75385657D01*
X145667266Y-75480895D01*
X145619647Y-75623752D01*
X145048219Y-76195180D01*
X145667266Y-76195180D01*
%TO.C,SW1*%
X148232761Y-97802533D02*
X148280380Y-97659676D01*
X148280380Y-97421580D01*
X148232761Y-97326342D01*
X148185142Y-97278723D01*
X148089904Y-97231104D01*
X147994666Y-97231104D01*
X147899428Y-97278723D01*
X147851809Y-97326342D01*
X147804190Y-97421580D01*
X147756571Y-97612057D01*
X147708952Y-97707295D01*
X147661333Y-97754914D01*
X147566095Y-97802533D01*
X147470857Y-97802533D01*
X147375619Y-97754914D01*
X147328000Y-97707295D01*
X147280380Y-97612057D01*
X147280380Y-97373961D01*
X147328000Y-97231104D01*
X147280380Y-96897771D02*
X148280380Y-96659676D01*
X147566095Y-96469200D01*
X148280380Y-96278723D01*
X147280380Y-96040628D01*
X148280380Y-95135866D02*
X148280380Y-95707295D01*
X148280380Y-95421580D02*
X147280380Y-95421580D01*
X147423238Y-95516819D01*
X147518476Y-95612057D01*
X147566095Y-95707295D01*
%TO.C,L1*%
X143216333Y-79319380D02*
X142740142Y-79319380D01*
X142740142Y-78319380D01*
X144073476Y-79319380D02*
X143502047Y-79319380D01*
X143787761Y-79319380D02*
X143787761Y-78319380D01*
X143692523Y-78462238D01*
X143597285Y-78557476D01*
X143502047Y-78605095D01*
%TO.C,R6*%
X132345133Y-69514980D02*
X132011800Y-69038790D01*
X131773704Y-69514980D02*
X131773704Y-68514980D01*
X132154657Y-68514980D01*
X132249895Y-68562600D01*
X132297514Y-68610219D01*
X132345133Y-68705457D01*
X132345133Y-68848314D01*
X132297514Y-68943552D01*
X132249895Y-68991171D01*
X132154657Y-69038790D01*
X131773704Y-69038790D01*
X133202276Y-68514980D02*
X133011800Y-68514980D01*
X132916561Y-68562600D01*
X132868942Y-68610219D01*
X132773704Y-68753076D01*
X132726085Y-68943552D01*
X132726085Y-69324504D01*
X132773704Y-69419742D01*
X132821323Y-69467361D01*
X132916561Y-69514980D01*
X133107038Y-69514980D01*
X133202276Y-69467361D01*
X133249895Y-69419742D01*
X133297514Y-69324504D01*
X133297514Y-69086409D01*
X133249895Y-68991171D01*
X133202276Y-68943552D01*
X133107038Y-68895933D01*
X132916561Y-68895933D01*
X132821323Y-68943552D01*
X132773704Y-68991171D01*
X132726085Y-69086409D01*
%TO.C,R4*%
X139431733Y-92882980D02*
X139098400Y-92406790D01*
X138860304Y-92882980D02*
X138860304Y-91882980D01*
X139241257Y-91882980D01*
X139336495Y-91930600D01*
X139384114Y-91978219D01*
X139431733Y-92073457D01*
X139431733Y-92216314D01*
X139384114Y-92311552D01*
X139336495Y-92359171D01*
X139241257Y-92406790D01*
X138860304Y-92406790D01*
X140288876Y-92216314D02*
X140288876Y-92882980D01*
X140050780Y-91835361D02*
X139812685Y-92549647D01*
X140431733Y-92549647D01*
%TO.C,C6*%
X138390333Y-90400142D02*
X138342714Y-90447761D01*
X138199857Y-90495380D01*
X138104619Y-90495380D01*
X137961761Y-90447761D01*
X137866523Y-90352523D01*
X137818904Y-90257285D01*
X137771285Y-90066809D01*
X137771285Y-89923952D01*
X137818904Y-89733476D01*
X137866523Y-89638238D01*
X137961761Y-89543000D01*
X138104619Y-89495380D01*
X138199857Y-89495380D01*
X138342714Y-89543000D01*
X138390333Y-89590619D01*
X139247476Y-89495380D02*
X139057000Y-89495380D01*
X138961761Y-89543000D01*
X138914142Y-89590619D01*
X138818904Y-89733476D01*
X138771285Y-89923952D01*
X138771285Y-90304904D01*
X138818904Y-90400142D01*
X138866523Y-90447761D01*
X138961761Y-90495380D01*
X139152238Y-90495380D01*
X139247476Y-90447761D01*
X139295095Y-90400142D01*
X139342714Y-90304904D01*
X139342714Y-90066809D01*
X139295095Y-89971571D01*
X139247476Y-89923952D01*
X139152238Y-89876333D01*
X138961761Y-89876333D01*
X138866523Y-89923952D01*
X138818904Y-89971571D01*
X138771285Y-90066809D01*
%TO.C,C5*%
X138390333Y-88622142D02*
X138342714Y-88669761D01*
X138199857Y-88717380D01*
X138104619Y-88717380D01*
X137961761Y-88669761D01*
X137866523Y-88574523D01*
X137818904Y-88479285D01*
X137771285Y-88288809D01*
X137771285Y-88145952D01*
X137818904Y-87955476D01*
X137866523Y-87860238D01*
X137961761Y-87765000D01*
X138104619Y-87717380D01*
X138199857Y-87717380D01*
X138342714Y-87765000D01*
X138390333Y-87812619D01*
X139295095Y-87717380D02*
X138818904Y-87717380D01*
X138771285Y-88193571D01*
X138818904Y-88145952D01*
X138914142Y-88098333D01*
X139152238Y-88098333D01*
X139247476Y-88145952D01*
X139295095Y-88193571D01*
X139342714Y-88288809D01*
X139342714Y-88526904D01*
X139295095Y-88622142D01*
X139247476Y-88669761D01*
X139152238Y-88717380D01*
X138914142Y-88717380D01*
X138818904Y-88669761D01*
X138771285Y-88622142D01*
%TO.C,C3*%
X137882333Y-87250542D02*
X137834714Y-87298161D01*
X137691857Y-87345780D01*
X137596619Y-87345780D01*
X137453761Y-87298161D01*
X137358523Y-87202923D01*
X137310904Y-87107685D01*
X137263285Y-86917209D01*
X137263285Y-86774352D01*
X137310904Y-86583876D01*
X137358523Y-86488638D01*
X137453761Y-86393400D01*
X137596619Y-86345780D01*
X137691857Y-86345780D01*
X137834714Y-86393400D01*
X137882333Y-86441019D01*
X138215666Y-86345780D02*
X138834714Y-86345780D01*
X138501380Y-86726733D01*
X138644238Y-86726733D01*
X138739476Y-86774352D01*
X138787095Y-86821971D01*
X138834714Y-86917209D01*
X138834714Y-87155304D01*
X138787095Y-87250542D01*
X138739476Y-87298161D01*
X138644238Y-87345780D01*
X138358523Y-87345780D01*
X138263285Y-87298161D01*
X138215666Y-87250542D01*
%TO.C,R7*%
X132345133Y-68295780D02*
X132011800Y-67819590D01*
X131773704Y-68295780D02*
X131773704Y-67295780D01*
X132154657Y-67295780D01*
X132249895Y-67343400D01*
X132297514Y-67391019D01*
X132345133Y-67486257D01*
X132345133Y-67629114D01*
X132297514Y-67724352D01*
X132249895Y-67771971D01*
X132154657Y-67819590D01*
X131773704Y-67819590D01*
X132678466Y-67295780D02*
X133345133Y-67295780D01*
X132916561Y-68295780D01*
%TO.C,C4*%
X138060133Y-77877942D02*
X138012514Y-77925561D01*
X137869657Y-77973180D01*
X137774419Y-77973180D01*
X137631561Y-77925561D01*
X137536323Y-77830323D01*
X137488704Y-77735085D01*
X137441085Y-77544609D01*
X137441085Y-77401752D01*
X137488704Y-77211276D01*
X137536323Y-77116038D01*
X137631561Y-77020800D01*
X137774419Y-76973180D01*
X137869657Y-76973180D01*
X138012514Y-77020800D01*
X138060133Y-77068419D01*
X138917276Y-77306514D02*
X138917276Y-77973180D01*
X138679180Y-76925561D02*
X138441085Y-77639847D01*
X139060133Y-77639847D01*
%TO.C,U1*%
X133985095Y-80732380D02*
X133985095Y-81541904D01*
X134032714Y-81637142D01*
X134080333Y-81684761D01*
X134175571Y-81732380D01*
X134366047Y-81732380D01*
X134461285Y-81684761D01*
X134508904Y-81637142D01*
X134556523Y-81541904D01*
X134556523Y-80732380D01*
X135556523Y-81732380D02*
X134985095Y-81732380D01*
X135270809Y-81732380D02*
X135270809Y-80732380D01*
X135175571Y-80875238D01*
X135080333Y-80970476D01*
X134985095Y-81018095D01*
%TO.C,R1*%
X135901133Y-89225380D02*
X135567800Y-88749190D01*
X135329704Y-89225380D02*
X135329704Y-88225380D01*
X135710657Y-88225380D01*
X135805895Y-88273000D01*
X135853514Y-88320619D01*
X135901133Y-88415857D01*
X135901133Y-88558714D01*
X135853514Y-88653952D01*
X135805895Y-88701571D01*
X135710657Y-88749190D01*
X135329704Y-88749190D01*
X136853514Y-89225380D02*
X136282085Y-89225380D01*
X136567800Y-89225380D02*
X136567800Y-88225380D01*
X136472561Y-88368238D01*
X136377323Y-88463476D01*
X136282085Y-88511095D01*
%TO.C,D2*%
X135329704Y-91206580D02*
X135329704Y-90206580D01*
X135567800Y-90206580D01*
X135710657Y-90254200D01*
X135805895Y-90349438D01*
X135853514Y-90444676D01*
X135901133Y-90635152D01*
X135901133Y-90778009D01*
X135853514Y-90968485D01*
X135805895Y-91063723D01*
X135710657Y-91158961D01*
X135567800Y-91206580D01*
X135329704Y-91206580D01*
X136282085Y-90301819D02*
X136329704Y-90254200D01*
X136424942Y-90206580D01*
X136663038Y-90206580D01*
X136758276Y-90254200D01*
X136805895Y-90301819D01*
X136853514Y-90397057D01*
X136853514Y-90492295D01*
X136805895Y-90635152D01*
X136234466Y-91206580D01*
X136853514Y-91206580D01*
%TO.C,C2*%
X137882333Y-85066142D02*
X137834714Y-85113761D01*
X137691857Y-85161380D01*
X137596619Y-85161380D01*
X137453761Y-85113761D01*
X137358523Y-85018523D01*
X137310904Y-84923285D01*
X137263285Y-84732809D01*
X137263285Y-84589952D01*
X137310904Y-84399476D01*
X137358523Y-84304238D01*
X137453761Y-84209000D01*
X137596619Y-84161380D01*
X137691857Y-84161380D01*
X137834714Y-84209000D01*
X137882333Y-84256619D01*
X138263285Y-84256619D02*
X138310904Y-84209000D01*
X138406142Y-84161380D01*
X138644238Y-84161380D01*
X138739476Y-84209000D01*
X138787095Y-84256619D01*
X138834714Y-84351857D01*
X138834714Y-84447095D01*
X138787095Y-84589952D01*
X138215666Y-85161380D01*
X138834714Y-85161380D01*
%TO.C,J3*%
X142541666Y-65720980D02*
X142541666Y-66435266D01*
X142494047Y-66578123D01*
X142398809Y-66673361D01*
X142255952Y-66720980D01*
X142160714Y-66720980D01*
X142922619Y-65720980D02*
X143541666Y-65720980D01*
X143208333Y-66101933D01*
X143351190Y-66101933D01*
X143446428Y-66149552D01*
X143494047Y-66197171D01*
X143541666Y-66292409D01*
X143541666Y-66530504D01*
X143494047Y-66625742D01*
X143446428Y-66673361D01*
X143351190Y-66720980D01*
X143065476Y-66720980D01*
X142970238Y-66673361D01*
X142922619Y-66625742D01*
%TO.C,Q1*%
X136226561Y-94730819D02*
X136131323Y-94683200D01*
X136036085Y-94587961D01*
X135893228Y-94445104D01*
X135797990Y-94397485D01*
X135702752Y-94397485D01*
X135750371Y-94635580D02*
X135655133Y-94587961D01*
X135559895Y-94492723D01*
X135512276Y-94302247D01*
X135512276Y-93968914D01*
X135559895Y-93778438D01*
X135655133Y-93683200D01*
X135750371Y-93635580D01*
X135940847Y-93635580D01*
X136036085Y-93683200D01*
X136131323Y-93778438D01*
X136178942Y-93968914D01*
X136178942Y-94302247D01*
X136131323Y-94492723D01*
X136036085Y-94587961D01*
X135940847Y-94635580D01*
X135750371Y-94635580D01*
X137131323Y-94635580D02*
X136559895Y-94635580D01*
X136845609Y-94635580D02*
X136845609Y-93635580D01*
X136750371Y-93778438D01*
X136655133Y-93873676D01*
X136559895Y-93921295D01*
%TO.C,R2*%
X139618980Y-75858666D02*
X139142790Y-76192000D01*
X139618980Y-76430095D02*
X138618980Y-76430095D01*
X138618980Y-76049142D01*
X138666600Y-75953904D01*
X138714219Y-75906285D01*
X138809457Y-75858666D01*
X138952314Y-75858666D01*
X139047552Y-75906285D01*
X139095171Y-75953904D01*
X139142790Y-76049142D01*
X139142790Y-76430095D01*
X138714219Y-75477714D02*
X138666600Y-75430095D01*
X138618980Y-75334857D01*
X138618980Y-75096761D01*
X138666600Y-75001523D01*
X138714219Y-74953904D01*
X138809457Y-74906285D01*
X138904695Y-74906285D01*
X139047552Y-74953904D01*
X139618980Y-75525333D01*
X139618980Y-74906285D01*
%TO.C,J5*%
X145716666Y-104989380D02*
X145716666Y-105703666D01*
X145669047Y-105846523D01*
X145573809Y-105941761D01*
X145430952Y-105989380D01*
X145335714Y-105989380D01*
X146669047Y-104989380D02*
X146192857Y-104989380D01*
X146145238Y-105465571D01*
X146192857Y-105417952D01*
X146288095Y-105370333D01*
X146526190Y-105370333D01*
X146621428Y-105417952D01*
X146669047Y-105465571D01*
X146716666Y-105560809D01*
X146716666Y-105798904D01*
X146669047Y-105894142D01*
X146621428Y-105941761D01*
X146526190Y-105989380D01*
X146288095Y-105989380D01*
X146192857Y-105941761D01*
X146145238Y-105894142D01*
%TO.C,F1*%
X134185066Y-97134371D02*
X133851733Y-97134371D01*
X133851733Y-97658180D02*
X133851733Y-96658180D01*
X134327923Y-96658180D01*
X135232685Y-97658180D02*
X134661257Y-97658180D01*
X134946971Y-97658180D02*
X134946971Y-96658180D01*
X134851733Y-96801038D01*
X134756495Y-96896276D01*
X134661257Y-96943895D01*
%TO.C,JP1*%
X131754666Y-75195180D02*
X131754666Y-75909466D01*
X131707047Y-76052323D01*
X131611809Y-76147561D01*
X131468952Y-76195180D01*
X131373714Y-76195180D01*
X132230857Y-76195180D02*
X132230857Y-75195180D01*
X132611809Y-75195180D01*
X132707047Y-75242800D01*
X132754666Y-75290419D01*
X132802285Y-75385657D01*
X132802285Y-75528514D01*
X132754666Y-75623752D01*
X132707047Y-75671371D01*
X132611809Y-75718990D01*
X132230857Y-75718990D01*
X133754666Y-76195180D02*
X133183238Y-76195180D01*
X133468952Y-76195180D02*
X133468952Y-75195180D01*
X133373714Y-75338038D01*
X133278476Y-75433276D01*
X133183238Y-75480895D01*
%TO.C,R5*%
X135885180Y-77408066D02*
X135408990Y-77741400D01*
X135885180Y-77979495D02*
X134885180Y-77979495D01*
X134885180Y-77598542D01*
X134932800Y-77503304D01*
X134980419Y-77455685D01*
X135075657Y-77408066D01*
X135218514Y-77408066D01*
X135313752Y-77455685D01*
X135361371Y-77503304D01*
X135408990Y-77598542D01*
X135408990Y-77979495D01*
X134885180Y-76503304D02*
X134885180Y-76979495D01*
X135361371Y-77027114D01*
X135313752Y-76979495D01*
X135266133Y-76884257D01*
X135266133Y-76646161D01*
X135313752Y-76550923D01*
X135361371Y-76503304D01*
X135456609Y-76455685D01*
X135694704Y-76455685D01*
X135789942Y-76503304D01*
X135837561Y-76550923D01*
X135885180Y-76646161D01*
X135885180Y-76884257D01*
X135837561Y-76979495D01*
X135789942Y-77027114D01*
%TO.C,D1*%
X144829304Y-88183980D02*
X144829304Y-87183980D01*
X145067400Y-87183980D01*
X145210257Y-87231600D01*
X145305495Y-87326838D01*
X145353114Y-87422076D01*
X145400733Y-87612552D01*
X145400733Y-87755409D01*
X145353114Y-87945885D01*
X145305495Y-88041123D01*
X145210257Y-88136361D01*
X145067400Y-88183980D01*
X144829304Y-88183980D01*
X146353114Y-88183980D02*
X145781685Y-88183980D01*
X146067400Y-88183980D02*
X146067400Y-87183980D01*
X145972161Y-87326838D01*
X145876923Y-87422076D01*
X145781685Y-87469695D01*
%TO.C,R3*%
X137129780Y-77408066D02*
X136653590Y-77741400D01*
X137129780Y-77979495D02*
X136129780Y-77979495D01*
X136129780Y-77598542D01*
X136177400Y-77503304D01*
X136225019Y-77455685D01*
X136320257Y-77408066D01*
X136463114Y-77408066D01*
X136558352Y-77455685D01*
X136605971Y-77503304D01*
X136653590Y-77598542D01*
X136653590Y-77979495D01*
X136129780Y-77074733D02*
X136129780Y-76455685D01*
X136510733Y-76789019D01*
X136510733Y-76646161D01*
X136558352Y-76550923D01*
X136605971Y-76503304D01*
X136701209Y-76455685D01*
X136939304Y-76455685D01*
X137034542Y-76503304D01*
X137082161Y-76550923D01*
X137129780Y-76646161D01*
X137129780Y-76931876D01*
X137082161Y-77027114D01*
X137034542Y-77074733D01*
%TO.C,C1*%
X139803142Y-79008266D02*
X139850761Y-79055885D01*
X139898380Y-79198742D01*
X139898380Y-79293980D01*
X139850761Y-79436838D01*
X139755523Y-79532076D01*
X139660285Y-79579695D01*
X139469809Y-79627314D01*
X139326952Y-79627314D01*
X139136476Y-79579695D01*
X139041238Y-79532076D01*
X138946000Y-79436838D01*
X138898380Y-79293980D01*
X138898380Y-79198742D01*
X138946000Y-79055885D01*
X138993619Y-79008266D01*
X139898380Y-78055885D02*
X139898380Y-78627314D01*
X139898380Y-78341600D02*
X138898380Y-78341600D01*
X139041238Y-78436838D01*
X139136476Y-78532076D01*
X139184095Y-78627314D01*
%TD*%
M02*
