%TF.GenerationSoftware,KiCad,Pcbnew,5.1.6-c6e7f7d~87~ubuntu18.04.1*%
%TF.CreationDate,2020-10-23T00:55:09-07:00*%
%TF.ProjectId,feather-power-supply-sw-smd-adj,66656174-6865-4722-9d70-6f7765722d73,rev?*%
%TF.SameCoordinates,Original*%
%TF.FileFunction,Soldermask,Top*%
%TF.FilePolarity,Negative*%
%FSLAX46Y46*%
G04 Gerber Fmt 4.6, Leading zero omitted, Abs format (unit mm)*
G04 Created by KiCad (PCBNEW 5.1.6-c6e7f7d~87~ubuntu18.04.1) date 2020-10-23 00:55:09*
%MOMM*%
%LPD*%
G01*
G04 APERTURE LIST*
%ADD10R,5.801600X1.701600*%
%ADD11O,1.801600X1.801600*%
%ADD12R,1.801600X1.801600*%
%ADD13R,0.701600X0.551600*%
%ADD14C,2.801600*%
%ADD15R,0.901600X1.001600*%
%ADD16R,2.701600X2.701600*%
%ADD17C,2.701600*%
%ADD18C,5.101600*%
%ADD19C,0.100000*%
%ADD20R,1.201600X1.201600*%
G04 APERTURE END LIST*
D10*
%TO.C,L1*%
X143002000Y-85408000D03*
X143002000Y-80708000D03*
%TD*%
%TO.C,R6*%
G36*
G01*
X133039400Y-71695300D02*
X133039400Y-72221100D01*
G75*
G02*
X132776500Y-72484000I-262900J0D01*
G01*
X132150700Y-72484000D01*
G75*
G02*
X131887800Y-72221100I0J262900D01*
G01*
X131887800Y-71695300D01*
G75*
G02*
X132150700Y-71432400I262900J0D01*
G01*
X132776500Y-71432400D01*
G75*
G02*
X133039400Y-71695300I0J-262900D01*
G01*
G37*
G36*
G01*
X134789400Y-71695300D02*
X134789400Y-72221100D01*
G75*
G02*
X134526500Y-72484000I-262900J0D01*
G01*
X133900700Y-72484000D01*
G75*
G02*
X133637800Y-72221100I0J262900D01*
G01*
X133637800Y-71695300D01*
G75*
G02*
X133900700Y-71432400I262900J0D01*
G01*
X134526500Y-71432400D01*
G75*
G02*
X134789400Y-71695300I0J-262900D01*
G01*
G37*
%TD*%
%TO.C,R4*%
G36*
G01*
X137205200Y-92693500D02*
X137205200Y-92167700D01*
G75*
G02*
X137468100Y-91904800I262900J0D01*
G01*
X138093900Y-91904800D01*
G75*
G02*
X138356800Y-92167700I0J-262900D01*
G01*
X138356800Y-92693500D01*
G75*
G02*
X138093900Y-92956400I-262900J0D01*
G01*
X137468100Y-92956400D01*
G75*
G02*
X137205200Y-92693500I0J262900D01*
G01*
G37*
G36*
G01*
X135455200Y-92693500D02*
X135455200Y-92167700D01*
G75*
G02*
X135718100Y-91904800I262900J0D01*
G01*
X136343900Y-91904800D01*
G75*
G02*
X136606800Y-92167700I0J-262900D01*
G01*
X136606800Y-92693500D01*
G75*
G02*
X136343900Y-92956400I-262900J0D01*
G01*
X135718100Y-92956400D01*
G75*
G02*
X135455200Y-92693500I0J262900D01*
G01*
G37*
%TD*%
%TO.C,C6*%
G36*
G01*
X141561400Y-89564286D02*
X141561400Y-90521714D01*
G75*
G02*
X141289314Y-90793800I-272086J0D01*
G01*
X140581886Y-90793800D01*
G75*
G02*
X140309800Y-90521714I0J272086D01*
G01*
X140309800Y-89564286D01*
G75*
G02*
X140581886Y-89292200I272086J0D01*
G01*
X141289314Y-89292200D01*
G75*
G02*
X141561400Y-89564286I0J-272086D01*
G01*
G37*
G36*
G01*
X143611400Y-89564286D02*
X143611400Y-90521714D01*
G75*
G02*
X143339314Y-90793800I-272086J0D01*
G01*
X142631886Y-90793800D01*
G75*
G02*
X142359800Y-90521714I0J272086D01*
G01*
X142359800Y-89564286D01*
G75*
G02*
X142631886Y-89292200I272086J0D01*
G01*
X143339314Y-89292200D01*
G75*
G02*
X143611400Y-89564286I0J-272086D01*
G01*
G37*
%TD*%
%TO.C,C5*%
G36*
G01*
X141536000Y-87583086D02*
X141536000Y-88540514D01*
G75*
G02*
X141263914Y-88812600I-272086J0D01*
G01*
X140556486Y-88812600D01*
G75*
G02*
X140284400Y-88540514I0J272086D01*
G01*
X140284400Y-87583086D01*
G75*
G02*
X140556486Y-87311000I272086J0D01*
G01*
X141263914Y-87311000D01*
G75*
G02*
X141536000Y-87583086I0J-272086D01*
G01*
G37*
G36*
G01*
X143586000Y-87583086D02*
X143586000Y-88540514D01*
G75*
G02*
X143313914Y-88812600I-272086J0D01*
G01*
X142606486Y-88812600D01*
G75*
G02*
X142334400Y-88540514I0J272086D01*
G01*
X142334400Y-87583086D01*
G75*
G02*
X142606486Y-87311000I272086J0D01*
G01*
X143313914Y-87311000D01*
G75*
G02*
X143586000Y-87583086I0J-272086D01*
G01*
G37*
%TD*%
%TO.C,C3*%
G36*
G01*
X134836200Y-87525975D02*
X134836200Y-86210025D01*
G75*
G02*
X135104025Y-85942200I267825J0D01*
G01*
X136094975Y-85942200D01*
G75*
G02*
X136362800Y-86210025I0J-267825D01*
G01*
X136362800Y-87525975D01*
G75*
G02*
X136094975Y-87793800I-267825J0D01*
G01*
X135104025Y-87793800D01*
G75*
G02*
X134836200Y-87525975I0J267825D01*
G01*
G37*
G36*
G01*
X131861200Y-87525975D02*
X131861200Y-86210025D01*
G75*
G02*
X132129025Y-85942200I267825J0D01*
G01*
X133119975Y-85942200D01*
G75*
G02*
X133387800Y-86210025I0J-267825D01*
G01*
X133387800Y-87525975D01*
G75*
G02*
X133119975Y-87793800I-267825J0D01*
G01*
X132129025Y-87793800D01*
G75*
G02*
X131861200Y-87525975I0J267825D01*
G01*
G37*
%TD*%
D11*
%TO.C,J2*%
X129565400Y-104089200D03*
X129565400Y-101549200D03*
X129565400Y-99009200D03*
X129565400Y-96469200D03*
X129565400Y-93929200D03*
X129565400Y-91389200D03*
X129565400Y-88849200D03*
X129565400Y-86309200D03*
X129565400Y-83769200D03*
X129565400Y-81229200D03*
X129565400Y-78689200D03*
X129565400Y-76149200D03*
X129565400Y-73609200D03*
X129565400Y-71069200D03*
X129565400Y-68529200D03*
D12*
X129565400Y-65989200D03*
%TD*%
%TO.C,R7*%
G36*
G01*
X133649200Y-70697100D02*
X133649200Y-70171300D01*
G75*
G02*
X133912100Y-69908400I262900J0D01*
G01*
X134537900Y-69908400D01*
G75*
G02*
X134800800Y-70171300I0J-262900D01*
G01*
X134800800Y-70697100D01*
G75*
G02*
X134537900Y-70960000I-262900J0D01*
G01*
X133912100Y-70960000D01*
G75*
G02*
X133649200Y-70697100I0J262900D01*
G01*
G37*
G36*
G01*
X131899200Y-70697100D02*
X131899200Y-70171300D01*
G75*
G02*
X132162100Y-69908400I262900J0D01*
G01*
X132787900Y-69908400D01*
G75*
G02*
X133050800Y-70171300I0J-262900D01*
G01*
X133050800Y-70697100D01*
G75*
G02*
X132787900Y-70960000I-262900J0D01*
G01*
X132162100Y-70960000D01*
G75*
G02*
X131899200Y-70697100I0J262900D01*
G01*
G37*
%TD*%
%TO.C,C4*%
G36*
G01*
X136824200Y-79129900D02*
X136824200Y-78604100D01*
G75*
G02*
X137087100Y-78341200I262900J0D01*
G01*
X137712900Y-78341200D01*
G75*
G02*
X137975800Y-78604100I0J-262900D01*
G01*
X137975800Y-79129900D01*
G75*
G02*
X137712900Y-79392800I-262900J0D01*
G01*
X137087100Y-79392800D01*
G75*
G02*
X136824200Y-79129900I0J262900D01*
G01*
G37*
G36*
G01*
X135074200Y-79129900D02*
X135074200Y-78604100D01*
G75*
G02*
X135337100Y-78341200I262900J0D01*
G01*
X135962900Y-78341200D01*
G75*
G02*
X136225800Y-78604100I0J-262900D01*
G01*
X136225800Y-79129900D01*
G75*
G02*
X135962900Y-79392800I-262900J0D01*
G01*
X135337100Y-79392800D01*
G75*
G02*
X135074200Y-79129900I0J262900D01*
G01*
G37*
%TD*%
%TO.C,U1*%
G36*
G01*
X136116600Y-80650600D02*
X136116600Y-80399800D01*
G75*
G02*
X136242000Y-80274400I125400J0D01*
G01*
X137717800Y-80274400D01*
G75*
G02*
X137843200Y-80399800I0J-125400D01*
G01*
X137843200Y-80650600D01*
G75*
G02*
X137717800Y-80776000I-125400J0D01*
G01*
X136242000Y-80776000D01*
G75*
G02*
X136116600Y-80650600I0J125400D01*
G01*
G37*
G36*
G01*
X136116600Y-81300600D02*
X136116600Y-81049800D01*
G75*
G02*
X136242000Y-80924400I125400J0D01*
G01*
X137717800Y-80924400D01*
G75*
G02*
X137843200Y-81049800I0J-125400D01*
G01*
X137843200Y-81300600D01*
G75*
G02*
X137717800Y-81426000I-125400J0D01*
G01*
X136242000Y-81426000D01*
G75*
G02*
X136116600Y-81300600I0J125400D01*
G01*
G37*
G36*
G01*
X136116600Y-81950600D02*
X136116600Y-81699800D01*
G75*
G02*
X136242000Y-81574400I125400J0D01*
G01*
X137717800Y-81574400D01*
G75*
G02*
X137843200Y-81699800I0J-125400D01*
G01*
X137843200Y-81950600D01*
G75*
G02*
X137717800Y-82076000I-125400J0D01*
G01*
X136242000Y-82076000D01*
G75*
G02*
X136116600Y-81950600I0J125400D01*
G01*
G37*
G36*
G01*
X136116600Y-82600600D02*
X136116600Y-82349800D01*
G75*
G02*
X136242000Y-82224400I125400J0D01*
G01*
X137717800Y-82224400D01*
G75*
G02*
X137843200Y-82349800I0J-125400D01*
G01*
X137843200Y-82600600D01*
G75*
G02*
X137717800Y-82726000I-125400J0D01*
G01*
X136242000Y-82726000D01*
G75*
G02*
X136116600Y-82600600I0J125400D01*
G01*
G37*
G36*
G01*
X131891600Y-82600600D02*
X131891600Y-82349800D01*
G75*
G02*
X132017000Y-82224400I125400J0D01*
G01*
X133492800Y-82224400D01*
G75*
G02*
X133618200Y-82349800I0J-125400D01*
G01*
X133618200Y-82600600D01*
G75*
G02*
X133492800Y-82726000I-125400J0D01*
G01*
X132017000Y-82726000D01*
G75*
G02*
X131891600Y-82600600I0J125400D01*
G01*
G37*
G36*
G01*
X131891600Y-81950600D02*
X131891600Y-81699800D01*
G75*
G02*
X132017000Y-81574400I125400J0D01*
G01*
X133492800Y-81574400D01*
G75*
G02*
X133618200Y-81699800I0J-125400D01*
G01*
X133618200Y-81950600D01*
G75*
G02*
X133492800Y-82076000I-125400J0D01*
G01*
X132017000Y-82076000D01*
G75*
G02*
X131891600Y-81950600I0J125400D01*
G01*
G37*
G36*
G01*
X131891600Y-81300600D02*
X131891600Y-81049800D01*
G75*
G02*
X132017000Y-80924400I125400J0D01*
G01*
X133492800Y-80924400D01*
G75*
G02*
X133618200Y-81049800I0J-125400D01*
G01*
X133618200Y-81300600D01*
G75*
G02*
X133492800Y-81426000I-125400J0D01*
G01*
X132017000Y-81426000D01*
G75*
G02*
X131891600Y-81300600I0J125400D01*
G01*
G37*
G36*
G01*
X131891600Y-80650600D02*
X131891600Y-80399800D01*
G75*
G02*
X132017000Y-80274400I125400J0D01*
G01*
X133492800Y-80274400D01*
G75*
G02*
X133618200Y-80399800I0J-125400D01*
G01*
X133618200Y-80650600D01*
G75*
G02*
X133492800Y-80776000I-125400J0D01*
G01*
X132017000Y-80776000D01*
G75*
G02*
X131891600Y-80650600I0J125400D01*
G01*
G37*
%TD*%
%TO.C,R1*%
G36*
G01*
X133623800Y-89086700D02*
X133623800Y-88560900D01*
G75*
G02*
X133886700Y-88298000I262900J0D01*
G01*
X134512500Y-88298000D01*
G75*
G02*
X134775400Y-88560900I0J-262900D01*
G01*
X134775400Y-89086700D01*
G75*
G02*
X134512500Y-89349600I-262900J0D01*
G01*
X133886700Y-89349600D01*
G75*
G02*
X133623800Y-89086700I0J262900D01*
G01*
G37*
G36*
G01*
X131873800Y-89086700D02*
X131873800Y-88560900D01*
G75*
G02*
X132136700Y-88298000I262900J0D01*
G01*
X132762500Y-88298000D01*
G75*
G02*
X133025400Y-88560900I0J-262900D01*
G01*
X133025400Y-89086700D01*
G75*
G02*
X132762500Y-89349600I-262900J0D01*
G01*
X132136700Y-89349600D01*
G75*
G02*
X131873800Y-89086700I0J262900D01*
G01*
G37*
%TD*%
D13*
%TO.C,D2*%
X134323800Y-90601800D03*
X132223800Y-90601800D03*
%TD*%
%TO.C,C2*%
G36*
G01*
X134836200Y-85189175D02*
X134836200Y-83873225D01*
G75*
G02*
X135104025Y-83605400I267825J0D01*
G01*
X136094975Y-83605400D01*
G75*
G02*
X136362800Y-83873225I0J-267825D01*
G01*
X136362800Y-85189175D01*
G75*
G02*
X136094975Y-85457000I-267825J0D01*
G01*
X135104025Y-85457000D01*
G75*
G02*
X134836200Y-85189175I0J267825D01*
G01*
G37*
G36*
G01*
X131861200Y-85189175D02*
X131861200Y-83873225D01*
G75*
G02*
X132129025Y-83605400I267825J0D01*
G01*
X133119975Y-83605400D01*
G75*
G02*
X133387800Y-83873225I0J-267825D01*
G01*
X133387800Y-85189175D01*
G75*
G02*
X133119975Y-85457000I-267825J0D01*
G01*
X132129025Y-85457000D01*
G75*
G02*
X131861200Y-85189175I0J267825D01*
G01*
G37*
%TD*%
D14*
%TO.C,H3*%
X148615400Y-107010200D03*
%TD*%
%TO.C,H4*%
X130810000Y-107010200D03*
%TD*%
%TO.C,J3*%
G36*
G01*
X138693800Y-61326366D02*
X138693800Y-62685634D01*
G75*
G02*
X138422634Y-62956800I-271166J0D01*
G01*
X137663366Y-62956800D01*
G75*
G02*
X137392200Y-62685634I0J271166D01*
G01*
X137392200Y-61326366D01*
G75*
G02*
X137663366Y-61055200I271166J0D01*
G01*
X138422634Y-61055200D01*
G75*
G02*
X138693800Y-61326366I0J-271166D01*
G01*
G37*
G36*
G01*
X144293800Y-61326366D02*
X144293800Y-62685634D01*
G75*
G02*
X144022634Y-62956800I-271166J0D01*
G01*
X143263366Y-62956800D01*
G75*
G02*
X142992200Y-62685634I0J271166D01*
G01*
X142992200Y-61326366D01*
G75*
G02*
X143263366Y-61055200I271166J0D01*
G01*
X144022634Y-61055200D01*
G75*
G02*
X144293800Y-61326366I0J-271166D01*
G01*
G37*
G36*
G01*
X139693800Y-65230600D02*
X139693800Y-66531400D01*
G75*
G02*
X139518400Y-66706800I-175400J0D01*
G01*
X139167600Y-66706800D01*
G75*
G02*
X138992200Y-66531400I0J175400D01*
G01*
X138992200Y-65230600D01*
G75*
G02*
X139167600Y-65055200I175400J0D01*
G01*
X139518400Y-65055200D01*
G75*
G02*
X139693800Y-65230600I0J-175400D01*
G01*
G37*
G36*
G01*
X140693800Y-65230600D02*
X140693800Y-66531400D01*
G75*
G02*
X140518400Y-66706800I-175400J0D01*
G01*
X140167600Y-66706800D01*
G75*
G02*
X139992200Y-66531400I0J175400D01*
G01*
X139992200Y-65230600D01*
G75*
G02*
X140167600Y-65055200I175400J0D01*
G01*
X140518400Y-65055200D01*
G75*
G02*
X140693800Y-65230600I0J-175400D01*
G01*
G37*
G36*
G01*
X141693800Y-65230600D02*
X141693800Y-66531400D01*
G75*
G02*
X141518400Y-66706800I-175400J0D01*
G01*
X141167600Y-66706800D01*
G75*
G02*
X140992200Y-66531400I0J175400D01*
G01*
X140992200Y-65230600D01*
G75*
G02*
X141167600Y-65055200I175400J0D01*
G01*
X141518400Y-65055200D01*
G75*
G02*
X141693800Y-65230600I0J-175400D01*
G01*
G37*
G36*
G01*
X142693800Y-65230600D02*
X142693800Y-66531400D01*
G75*
G02*
X142518400Y-66706800I-175400J0D01*
G01*
X142167600Y-66706800D01*
G75*
G02*
X141992200Y-66531400I0J175400D01*
G01*
X141992200Y-65230600D01*
G75*
G02*
X142167600Y-65055200I175400J0D01*
G01*
X142518400Y-65055200D01*
G75*
G02*
X142693800Y-65230600I0J-175400D01*
G01*
G37*
%TD*%
D15*
%TO.C,Q1*%
X133426200Y-94421200D03*
X132476200Y-92421200D03*
X134376200Y-92421200D03*
%TD*%
%TO.C,R2*%
G36*
G01*
X139654800Y-73346300D02*
X139654800Y-73872100D01*
G75*
G02*
X139391900Y-74135000I-262900J0D01*
G01*
X138766100Y-74135000D01*
G75*
G02*
X138503200Y-73872100I0J262900D01*
G01*
X138503200Y-73346300D01*
G75*
G02*
X138766100Y-73083400I262900J0D01*
G01*
X139391900Y-73083400D01*
G75*
G02*
X139654800Y-73346300I0J-262900D01*
G01*
G37*
G36*
G01*
X141404800Y-73346300D02*
X141404800Y-73872100D01*
G75*
G02*
X141141900Y-74135000I-262900J0D01*
G01*
X140516100Y-74135000D01*
G75*
G02*
X140253200Y-73872100I0J262900D01*
G01*
X140253200Y-73346300D01*
G75*
G02*
X140516100Y-73083400I262900J0D01*
G01*
X141141900Y-73083400D01*
G75*
G02*
X141404800Y-73346300I0J-262900D01*
G01*
G37*
%TD*%
%TO.C,D3*%
G36*
G01*
X139958800Y-75032138D02*
X139958800Y-75894662D01*
G75*
G02*
X139689262Y-76164200I-269538J0D01*
G01*
X138801738Y-76164200D01*
G75*
G02*
X138532200Y-75894662I0J269538D01*
G01*
X138532200Y-75032138D01*
G75*
G02*
X138801738Y-74762600I269538J0D01*
G01*
X139689262Y-74762600D01*
G75*
G02*
X139958800Y-75032138I0J-269538D01*
G01*
G37*
G36*
G01*
X141883800Y-75032138D02*
X141883800Y-75894662D01*
G75*
G02*
X141614262Y-76164200I-269538J0D01*
G01*
X140726738Y-76164200D01*
G75*
G02*
X140457200Y-75894662I0J269538D01*
G01*
X140457200Y-75032138D01*
G75*
G02*
X140726738Y-74762600I269538J0D01*
G01*
X141614262Y-74762600D01*
G75*
G02*
X141883800Y-75032138I0J-269538D01*
G01*
G37*
%TD*%
D11*
%TO.C,J4*%
X137922000Y-70231000D03*
X140462000Y-70231000D03*
X143002000Y-70231000D03*
D12*
X145542000Y-70231000D03*
%TD*%
D16*
%TO.C,J5*%
X137160000Y-104775000D03*
D17*
X142160000Y-104775000D03*
%TD*%
%TO.C,F1*%
G36*
G01*
X135938200Y-95670621D02*
X135938200Y-98537779D01*
G75*
G02*
X135670979Y-98805000I-267221J0D01*
G01*
X134628821Y-98805000D01*
G75*
G02*
X134361600Y-98537779I0J267221D01*
G01*
X134361600Y-95670621D01*
G75*
G02*
X134628821Y-95403400I267221J0D01*
G01*
X135670979Y-95403400D01*
G75*
G02*
X135938200Y-95670621I0J-267221D01*
G01*
G37*
G36*
G01*
X140263200Y-95670621D02*
X140263200Y-98537779D01*
G75*
G02*
X139995979Y-98805000I-267221J0D01*
G01*
X138953821Y-98805000D01*
G75*
G02*
X138686600Y-98537779I0J267221D01*
G01*
X138686600Y-95670621D01*
G75*
G02*
X138953821Y-95403400I267221J0D01*
G01*
X139995979Y-95403400D01*
G75*
G02*
X140263200Y-95670621I0J-267221D01*
G01*
G37*
%TD*%
D18*
%TO.C,H2*%
X148615400Y-61671200D03*
%TD*%
%TO.C,H1*%
X130810000Y-61696600D03*
%TD*%
D19*
%TO.C,JP1*%
G36*
X133490089Y-74815424D02*
G01*
X133480560Y-74812533D01*
X133471777Y-74807839D01*
X133464079Y-74801521D01*
X133457761Y-74793823D01*
X133453067Y-74785040D01*
X133450176Y-74775511D01*
X133449200Y-74765600D01*
X133449200Y-73265600D01*
X133450176Y-73255689D01*
X133453067Y-73246160D01*
X133457761Y-73237377D01*
X133464079Y-73229679D01*
X133471777Y-73223361D01*
X133480560Y-73218667D01*
X133490089Y-73215776D01*
X133500000Y-73214800D01*
X134000000Y-73214800D01*
X134006113Y-73215402D01*
X134024534Y-73215402D01*
X134029514Y-73215647D01*
X134078345Y-73220457D01*
X134083275Y-73221188D01*
X134131400Y-73230760D01*
X134136237Y-73231972D01*
X134183192Y-73246216D01*
X134187885Y-73247895D01*
X134233218Y-73266672D01*
X134237726Y-73268804D01*
X134280999Y-73291935D01*
X134285273Y-73294497D01*
X134326072Y-73321757D01*
X134330077Y-73324727D01*
X134368006Y-73355855D01*
X134371700Y-73359203D01*
X134406397Y-73393900D01*
X134409745Y-73397594D01*
X134440873Y-73435523D01*
X134443843Y-73439528D01*
X134471103Y-73480327D01*
X134473665Y-73484601D01*
X134496796Y-73527874D01*
X134498928Y-73532382D01*
X134517705Y-73577715D01*
X134519384Y-73582408D01*
X134533628Y-73629363D01*
X134534840Y-73634200D01*
X134544412Y-73682325D01*
X134545143Y-73687255D01*
X134549953Y-73736086D01*
X134550198Y-73741066D01*
X134550198Y-73759487D01*
X134550800Y-73765600D01*
X134550800Y-74265600D01*
X134550198Y-74271713D01*
X134550198Y-74290134D01*
X134549953Y-74295114D01*
X134545143Y-74343945D01*
X134544412Y-74348875D01*
X134534840Y-74397000D01*
X134533628Y-74401837D01*
X134519384Y-74448792D01*
X134517705Y-74453485D01*
X134498928Y-74498818D01*
X134496796Y-74503326D01*
X134473665Y-74546599D01*
X134471103Y-74550873D01*
X134443843Y-74591672D01*
X134440873Y-74595677D01*
X134409745Y-74633606D01*
X134406397Y-74637300D01*
X134371700Y-74671997D01*
X134368006Y-74675345D01*
X134330077Y-74706473D01*
X134326072Y-74709443D01*
X134285273Y-74736703D01*
X134280999Y-74739265D01*
X134237726Y-74762396D01*
X134233218Y-74764528D01*
X134187885Y-74783305D01*
X134183192Y-74784984D01*
X134136237Y-74799228D01*
X134131400Y-74800440D01*
X134083275Y-74810012D01*
X134078345Y-74810743D01*
X134029514Y-74815553D01*
X134024534Y-74815798D01*
X134006113Y-74815798D01*
X134000000Y-74816400D01*
X133500000Y-74816400D01*
X133490089Y-74815424D01*
G37*
G36*
X132693887Y-74815798D02*
G01*
X132675466Y-74815798D01*
X132670486Y-74815553D01*
X132621655Y-74810743D01*
X132616725Y-74810012D01*
X132568600Y-74800440D01*
X132563763Y-74799228D01*
X132516808Y-74784984D01*
X132512115Y-74783305D01*
X132466782Y-74764528D01*
X132462274Y-74762396D01*
X132419001Y-74739265D01*
X132414727Y-74736703D01*
X132373928Y-74709443D01*
X132369923Y-74706473D01*
X132331994Y-74675345D01*
X132328300Y-74671997D01*
X132293603Y-74637300D01*
X132290255Y-74633606D01*
X132259127Y-74595677D01*
X132256157Y-74591672D01*
X132228897Y-74550873D01*
X132226335Y-74546599D01*
X132203204Y-74503326D01*
X132201072Y-74498818D01*
X132182295Y-74453485D01*
X132180616Y-74448792D01*
X132166372Y-74401837D01*
X132165160Y-74397000D01*
X132155588Y-74348875D01*
X132154857Y-74343945D01*
X132150047Y-74295114D01*
X132149802Y-74290134D01*
X132149802Y-74271713D01*
X132149200Y-74265600D01*
X132149200Y-73765600D01*
X132149802Y-73759487D01*
X132149802Y-73741066D01*
X132150047Y-73736086D01*
X132154857Y-73687255D01*
X132155588Y-73682325D01*
X132165160Y-73634200D01*
X132166372Y-73629363D01*
X132180616Y-73582408D01*
X132182295Y-73577715D01*
X132201072Y-73532382D01*
X132203204Y-73527874D01*
X132226335Y-73484601D01*
X132228897Y-73480327D01*
X132256157Y-73439528D01*
X132259127Y-73435523D01*
X132290255Y-73397594D01*
X132293603Y-73393900D01*
X132328300Y-73359203D01*
X132331994Y-73355855D01*
X132369923Y-73324727D01*
X132373928Y-73321757D01*
X132414727Y-73294497D01*
X132419001Y-73291935D01*
X132462274Y-73268804D01*
X132466782Y-73266672D01*
X132512115Y-73247895D01*
X132516808Y-73246216D01*
X132563763Y-73231972D01*
X132568600Y-73230760D01*
X132616725Y-73221188D01*
X132621655Y-73220457D01*
X132670486Y-73215647D01*
X132675466Y-73215402D01*
X132693887Y-73215402D01*
X132700000Y-73214800D01*
X133200000Y-73214800D01*
X133209911Y-73215776D01*
X133219440Y-73218667D01*
X133228223Y-73223361D01*
X133235921Y-73229679D01*
X133242239Y-73237377D01*
X133246933Y-73246160D01*
X133249824Y-73255689D01*
X133250800Y-73265600D01*
X133250800Y-74765600D01*
X133249824Y-74775511D01*
X133246933Y-74785040D01*
X133242239Y-74793823D01*
X133235921Y-74801521D01*
X133228223Y-74807839D01*
X133219440Y-74812533D01*
X133209911Y-74815424D01*
X133200000Y-74816400D01*
X132700000Y-74816400D01*
X132693887Y-74815798D01*
G37*
%TD*%
%TO.C,R5*%
G36*
G01*
X132723900Y-77678800D02*
X132198100Y-77678800D01*
G75*
G02*
X131935200Y-77415900I0J262900D01*
G01*
X131935200Y-76790100D01*
G75*
G02*
X132198100Y-76527200I262900J0D01*
G01*
X132723900Y-76527200D01*
G75*
G02*
X132986800Y-76790100I0J-262900D01*
G01*
X132986800Y-77415900D01*
G75*
G02*
X132723900Y-77678800I-262900J0D01*
G01*
G37*
G36*
G01*
X132723900Y-79428800D02*
X132198100Y-79428800D01*
G75*
G02*
X131935200Y-79165900I0J262900D01*
G01*
X131935200Y-78540100D01*
G75*
G02*
X132198100Y-78277200I262900J0D01*
G01*
X132723900Y-78277200D01*
G75*
G02*
X132986800Y-78540100I0J-262900D01*
G01*
X132986800Y-79165900D01*
G75*
G02*
X132723900Y-79428800I-262900J0D01*
G01*
G37*
%TD*%
D20*
%TO.C,D1*%
X145592800Y-92255800D03*
X145592800Y-89455800D03*
%TD*%
%TO.C,R3*%
G36*
G01*
X133722100Y-78277200D02*
X134247900Y-78277200D01*
G75*
G02*
X134510800Y-78540100I0J-262900D01*
G01*
X134510800Y-79165900D01*
G75*
G02*
X134247900Y-79428800I-262900J0D01*
G01*
X133722100Y-79428800D01*
G75*
G02*
X133459200Y-79165900I0J262900D01*
G01*
X133459200Y-78540100D01*
G75*
G02*
X133722100Y-78277200I262900J0D01*
G01*
G37*
G36*
G01*
X133722100Y-76527200D02*
X134247900Y-76527200D01*
G75*
G02*
X134510800Y-76790100I0J-262900D01*
G01*
X134510800Y-77415900D01*
G75*
G02*
X134247900Y-77678800I-262900J0D01*
G01*
X133722100Y-77678800D01*
G75*
G02*
X133459200Y-77415900I0J262900D01*
G01*
X133459200Y-76790100D01*
G75*
G02*
X133722100Y-76527200I262900J0D01*
G01*
G37*
%TD*%
%TO.C,C1*%
G36*
G01*
X138675100Y-81706200D02*
X139200900Y-81706200D01*
G75*
G02*
X139463800Y-81969100I0J-262900D01*
G01*
X139463800Y-82594900D01*
G75*
G02*
X139200900Y-82857800I-262900J0D01*
G01*
X138675100Y-82857800D01*
G75*
G02*
X138412200Y-82594900I0J262900D01*
G01*
X138412200Y-81969100D01*
G75*
G02*
X138675100Y-81706200I262900J0D01*
G01*
G37*
G36*
G01*
X138675100Y-79956200D02*
X139200900Y-79956200D01*
G75*
G02*
X139463800Y-80219100I0J-262900D01*
G01*
X139463800Y-80844900D01*
G75*
G02*
X139200900Y-81107800I-262900J0D01*
G01*
X138675100Y-81107800D01*
G75*
G02*
X138412200Y-80844900I0J262900D01*
G01*
X138412200Y-80219100D01*
G75*
G02*
X138675100Y-79956200I262900J0D01*
G01*
G37*
%TD*%
D12*
%TO.C,J1*%
X149860000Y-76200000D03*
D11*
X149860000Y-78740000D03*
X149860000Y-81280000D03*
X149860000Y-83820000D03*
X149860000Y-86360000D03*
X149860000Y-88900000D03*
X149860000Y-91440000D03*
X149860000Y-93980000D03*
X149860000Y-96520000D03*
X149860000Y-99060000D03*
X149860000Y-101600000D03*
X149860000Y-104140000D03*
%TD*%
M02*
