%TF.GenerationSoftware,KiCad,Pcbnew,5.1.6-c6e7f7d~87~ubuntu18.04.1*%
%TF.CreationDate,2020-10-21T15:39:13-07:00*%
%TF.ProjectId,feather-power-supply-sw-smd-adj,66656174-6865-4722-9d70-6f7765722d73,rev?*%
%TF.SameCoordinates,Original*%
%TF.FileFunction,Legend,Top*%
%TF.FilePolarity,Positive*%
%FSLAX46Y46*%
G04 Gerber Fmt 4.6, Leading zero omitted, Abs format (unit mm)*
G04 Created by KiCad (PCBNEW 5.1.6-c6e7f7d~87~ubuntu18.04.1) date 2020-10-21 15:39:13*
%MOMM*%
%LPD*%
G01*
G04 APERTURE LIST*
%ADD10C,0.300000*%
%ADD11C,0.127000*%
%ADD12C,0.125000*%
%ADD13C,0.150000*%
%ADD14C,0.120000*%
G04 APERTURE END LIST*
D10*
X146931771Y-102909571D02*
X146931771Y-103766714D01*
X146931771Y-103338142D02*
X145431771Y-103338142D01*
X145646057Y-103481000D01*
X145788914Y-103623857D01*
X145860342Y-103766714D01*
X145574628Y-102338142D02*
X145503200Y-102266714D01*
X145431771Y-102123857D01*
X145431771Y-101766714D01*
X145503200Y-101623857D01*
X145574628Y-101552428D01*
X145717485Y-101481000D01*
X145860342Y-101481000D01*
X146074628Y-101552428D01*
X146931771Y-102409571D01*
X146931771Y-101481000D01*
X145431771Y-101052428D02*
X146931771Y-100552428D01*
X145431771Y-100052428D01*
D11*
X144834428Y-67843400D02*
X144761857Y-67807114D01*
X144653000Y-67807114D01*
X144544142Y-67843400D01*
X144471571Y-67915971D01*
X144435285Y-67988542D01*
X144399000Y-68133685D01*
X144399000Y-68242542D01*
X144435285Y-68387685D01*
X144471571Y-68460257D01*
X144544142Y-68532828D01*
X144653000Y-68569114D01*
X144725571Y-68569114D01*
X144834428Y-68532828D01*
X144870714Y-68496542D01*
X144870714Y-68242542D01*
X144725571Y-68242542D01*
X145197285Y-68569114D02*
X145197285Y-67807114D01*
X145632714Y-68569114D01*
X145632714Y-67807114D01*
X145995571Y-68569114D02*
X145995571Y-67807114D01*
X146177000Y-67807114D01*
X146285857Y-67843400D01*
X146358428Y-67915971D01*
X146394714Y-67988542D01*
X146431000Y-68133685D01*
X146431000Y-68242542D01*
X146394714Y-68387685D01*
X146358428Y-68460257D01*
X146285857Y-68532828D01*
X146177000Y-68569114D01*
X145995571Y-68569114D01*
X141784008Y-68278828D02*
X142364580Y-68278828D01*
X142074294Y-68569114D02*
X142074294Y-67988542D01*
X143090294Y-67807114D02*
X142727437Y-67807114D01*
X142691151Y-68169971D01*
X142727437Y-68133685D01*
X142800008Y-68097400D01*
X142981437Y-68097400D01*
X143054008Y-68133685D01*
X143090294Y-68169971D01*
X143126580Y-68242542D01*
X143126580Y-68423971D01*
X143090294Y-68496542D01*
X143054008Y-68532828D01*
X142981437Y-68569114D01*
X142800008Y-68569114D01*
X142727437Y-68532828D01*
X142691151Y-68496542D01*
X143344294Y-67807114D02*
X143598294Y-68569114D01*
X143852294Y-67807114D01*
X139314161Y-68532828D02*
X139423018Y-68569114D01*
X139604446Y-68569114D01*
X139677018Y-68532828D01*
X139713304Y-68496542D01*
X139749589Y-68423971D01*
X139749589Y-68351400D01*
X139713304Y-68278828D01*
X139677018Y-68242542D01*
X139604446Y-68206257D01*
X139459304Y-68169971D01*
X139386732Y-68133685D01*
X139350446Y-68097400D01*
X139314161Y-68024828D01*
X139314161Y-67952257D01*
X139350446Y-67879685D01*
X139386732Y-67843400D01*
X139459304Y-67807114D01*
X139640732Y-67807114D01*
X139749589Y-67843400D01*
X140511589Y-68496542D02*
X140475304Y-68532828D01*
X140366446Y-68569114D01*
X140293875Y-68569114D01*
X140185018Y-68532828D01*
X140112446Y-68460257D01*
X140076161Y-68387685D01*
X140039875Y-68242542D01*
X140039875Y-68133685D01*
X140076161Y-67988542D01*
X140112446Y-67915971D01*
X140185018Y-67843400D01*
X140293875Y-67807114D01*
X140366446Y-67807114D01*
X140475304Y-67843400D01*
X140511589Y-67879685D01*
X141201018Y-68569114D02*
X140838161Y-68569114D01*
X140838161Y-67807114D01*
X136844314Y-68532828D02*
X136953171Y-68569114D01*
X137134600Y-68569114D01*
X137207171Y-68532828D01*
X137243457Y-68496542D01*
X137279742Y-68423971D01*
X137279742Y-68351400D01*
X137243457Y-68278828D01*
X137207171Y-68242542D01*
X137134600Y-68206257D01*
X136989457Y-68169971D01*
X136916885Y-68133685D01*
X136880600Y-68097400D01*
X136844314Y-68024828D01*
X136844314Y-67952257D01*
X136880600Y-67879685D01*
X136916885Y-67843400D01*
X136989457Y-67807114D01*
X137170885Y-67807114D01*
X137279742Y-67843400D01*
X137606314Y-68569114D02*
X137606314Y-67807114D01*
X137787742Y-67807114D01*
X137896600Y-67843400D01*
X137969171Y-67915971D01*
X138005457Y-67988542D01*
X138041742Y-68133685D01*
X138041742Y-68242542D01*
X138005457Y-68387685D01*
X137969171Y-68460257D01*
X137896600Y-68532828D01*
X137787742Y-68569114D01*
X137606314Y-68569114D01*
X138332028Y-68351400D02*
X138694885Y-68351400D01*
X138259457Y-68569114D02*
X138513457Y-67807114D01*
X138767457Y-68569114D01*
D12*
X136706428Y-66809257D02*
X136742714Y-66700400D01*
X136742714Y-66518971D01*
X136706428Y-66446400D01*
X136670142Y-66410114D01*
X136597571Y-66373828D01*
X136525000Y-66373828D01*
X136452428Y-66410114D01*
X136416142Y-66446400D01*
X136379857Y-66518971D01*
X136343571Y-66664114D01*
X136307285Y-66736685D01*
X136271000Y-66772971D01*
X136198428Y-66809257D01*
X136125857Y-66809257D01*
X136053285Y-66772971D01*
X136017000Y-66736685D01*
X135980714Y-66664114D01*
X135980714Y-66482685D01*
X136017000Y-66373828D01*
X135980714Y-66156114D02*
X135980714Y-65720685D01*
X136742714Y-65938400D02*
X135980714Y-65938400D01*
X136343571Y-65466685D02*
X136343571Y-65212685D01*
X136742714Y-65103828D02*
X136742714Y-65466685D01*
X135980714Y-65466685D01*
X135980714Y-65103828D01*
X136742714Y-64777257D02*
X135980714Y-64777257D01*
X136525000Y-64523257D01*
X135980714Y-64269257D01*
X136742714Y-64269257D01*
X136742714Y-63906400D02*
X135980714Y-63906400D01*
X136525000Y-63652400D01*
X135980714Y-63398400D01*
X136742714Y-63398400D01*
X136525000Y-63071828D02*
X136525000Y-62708971D01*
X136742714Y-63144400D02*
X135980714Y-62890400D01*
X136742714Y-62636400D01*
X136815285Y-61293828D02*
X136779000Y-61366400D01*
X136706428Y-61438971D01*
X136597571Y-61547828D01*
X136561285Y-61620400D01*
X136561285Y-61692971D01*
X136742714Y-61656685D02*
X136706428Y-61729257D01*
X136633857Y-61801828D01*
X136488714Y-61838114D01*
X136234714Y-61838114D01*
X136089571Y-61801828D01*
X136017000Y-61729257D01*
X135980714Y-61656685D01*
X135980714Y-61511542D01*
X136017000Y-61438971D01*
X136089571Y-61366400D01*
X136234714Y-61330114D01*
X136488714Y-61330114D01*
X136633857Y-61366400D01*
X136706428Y-61438971D01*
X136742714Y-61511542D01*
X136742714Y-61656685D01*
X135980714Y-61112400D02*
X135980714Y-60676971D01*
X136742714Y-60894685D02*
X135980714Y-60894685D01*
D10*
X132015800Y-103098457D02*
X131944371Y-103241314D01*
X131944371Y-103455600D01*
X132015800Y-103669885D01*
X132158657Y-103812742D01*
X132301514Y-103884171D01*
X132587228Y-103955600D01*
X132801514Y-103955600D01*
X133087228Y-103884171D01*
X133230085Y-103812742D01*
X133372942Y-103669885D01*
X133444371Y-103455600D01*
X133444371Y-103312742D01*
X133372942Y-103098457D01*
X133301514Y-103027028D01*
X132801514Y-103027028D01*
X132801514Y-103312742D01*
X133444371Y-102384171D02*
X131944371Y-102384171D01*
X133444371Y-101527028D01*
X131944371Y-101527028D01*
X133444371Y-100812742D02*
X131944371Y-100812742D01*
X131944371Y-100455600D01*
X132015800Y-100241314D01*
X132158657Y-100098457D01*
X132301514Y-100027028D01*
X132587228Y-99955600D01*
X132801514Y-99955600D01*
X133087228Y-100027028D01*
X133230085Y-100098457D01*
X133372942Y-100241314D01*
X133444371Y-100455600D01*
X133444371Y-100812742D01*
D13*
%TO.C,L1*%
X146102000Y-81258000D02*
X146102000Y-84858000D01*
X139902000Y-81258000D02*
X139902000Y-84858000D01*
D14*
%TO.C,R6*%
X133509867Y-71448200D02*
X133167333Y-71448200D01*
X133509867Y-72468200D02*
X133167333Y-72468200D01*
%TO.C,R4*%
X136734733Y-92940600D02*
X137077267Y-92940600D01*
X136734733Y-91920600D02*
X137077267Y-91920600D01*
%TO.C,C6*%
X142221852Y-89333000D02*
X141699348Y-89333000D01*
X142221852Y-90753000D02*
X141699348Y-90753000D01*
%TO.C,C5*%
X142196452Y-87351800D02*
X141673948Y-87351800D01*
X142196452Y-88771800D02*
X141673948Y-88771800D01*
%TO.C,C3*%
X133509936Y-87778000D02*
X134714064Y-87778000D01*
X133509936Y-85958000D02*
X134714064Y-85958000D01*
%TO.C,J2*%
X128235400Y-105419200D02*
X130895400Y-105419200D01*
X128235400Y-67259200D02*
X128235400Y-105419200D01*
X130895400Y-67259200D02*
X130895400Y-105419200D01*
X128235400Y-67259200D02*
X130895400Y-67259200D01*
X128235400Y-65989200D02*
X128235400Y-64659200D01*
X128235400Y-64659200D02*
X129565400Y-64659200D01*
%TO.C,R7*%
X133178733Y-70944200D02*
X133521267Y-70944200D01*
X133178733Y-69924200D02*
X133521267Y-69924200D01*
%TO.C,C4*%
X136353733Y-78357000D02*
X136696267Y-78357000D01*
X136353733Y-79377000D02*
X136696267Y-79377000D01*
%TO.C,U1*%
X134867400Y-83110200D02*
X136367400Y-83110200D01*
X134867400Y-83110200D02*
X133367400Y-83110200D01*
X134867400Y-79890200D02*
X136367400Y-79890200D01*
X134867400Y-79890200D02*
X131942400Y-79890200D01*
%TO.C,R1*%
X133153333Y-88313800D02*
X133495867Y-88313800D01*
X133153333Y-89333800D02*
X133495867Y-89333800D01*
%TO.C,D2*%
X131773800Y-89751800D02*
X131773800Y-91451800D01*
X131773800Y-91451800D02*
X134323800Y-91451800D01*
X131773800Y-89751800D02*
X134323800Y-89751800D01*
%TO.C,C2*%
X133509936Y-83621200D02*
X134714064Y-83621200D01*
X133509936Y-85441200D02*
X134714064Y-85441200D01*
%TO.C,J3*%
X142783000Y-61196000D02*
X138903000Y-61196000D01*
X137733000Y-65666000D02*
X138783000Y-65666000D01*
X137733000Y-63166000D02*
X137733000Y-65666000D01*
X142903000Y-65666000D02*
X142903000Y-66656000D01*
X143953000Y-65666000D02*
X142903000Y-65666000D01*
X143953000Y-63166000D02*
X143953000Y-65666000D01*
%TO.C,Q1*%
X131846200Y-94181200D02*
X132776200Y-94181200D01*
X135006200Y-94181200D02*
X134076200Y-94181200D01*
X135006200Y-94181200D02*
X135006200Y-92021200D01*
X131846200Y-94181200D02*
X131846200Y-92721200D01*
%TO.C,R2*%
X140125267Y-73099200D02*
X139782733Y-73099200D01*
X140125267Y-74119200D02*
X139782733Y-74119200D01*
%TO.C,D3*%
X142093000Y-74553400D02*
X139208000Y-74553400D01*
X142093000Y-76373400D02*
X142093000Y-74553400D01*
X139208000Y-76373400D02*
X142093000Y-76373400D01*
%TO.C,J4*%
X146872000Y-68901000D02*
X146872000Y-70231000D01*
X145542000Y-68901000D02*
X146872000Y-68901000D01*
X144272000Y-68901000D02*
X144272000Y-71561000D01*
X144272000Y-71561000D02*
X136592000Y-71561000D01*
X144272000Y-68901000D02*
X136592000Y-68901000D01*
X136592000Y-68901000D02*
X136592000Y-71561000D01*
%TO.C,J5*%
X134360000Y-109675000D02*
X134860000Y-109675000D01*
X134360000Y-108935000D02*
X134360000Y-109675000D01*
X140933000Y-105798000D02*
X140886000Y-105844000D01*
X143230000Y-103500000D02*
X143195000Y-103536000D01*
X141126000Y-106014000D02*
X141091000Y-106049000D01*
X143435000Y-103706000D02*
X143388000Y-103752000D01*
X144720000Y-99514000D02*
X144720000Y-109435000D01*
X134600000Y-99514000D02*
X134600000Y-109435000D01*
X134600000Y-109435000D02*
X144720000Y-109435000D01*
X134600000Y-99514000D02*
X144720000Y-99514000D01*
X134600000Y-102474000D02*
X144720000Y-102474000D01*
X134600000Y-107375000D02*
X144720000Y-107375000D01*
X134600000Y-108875000D02*
X144720000Y-108875000D01*
X143840000Y-104775000D02*
G75*
G03*
X143840000Y-104775000I-1680000J0D01*
G01*
X137843318Y-106309756D02*
G75*
G02*
X137160000Y-106455000I-683318J1534756D01*
G01*
X138695426Y-104091958D02*
G75*
G02*
X138695000Y-105459000I-1535426J-683042D01*
G01*
X136476958Y-103239574D02*
G75*
G02*
X137844000Y-103240000I683042J-1535426D01*
G01*
X135624574Y-105458042D02*
G75*
G02*
X135625000Y-104091000I1535426J683042D01*
G01*
X137188805Y-106455253D02*
G75*
G02*
X136476000Y-106310000I-28805J1680253D01*
G01*
%TO.C,F1*%
X138582431Y-95394200D02*
X136042369Y-95394200D01*
X138582431Y-98814200D02*
X136042369Y-98814200D01*
%TO.C,JP1*%
X134750000Y-73715600D02*
X134750000Y-74315600D01*
X132650000Y-73015600D02*
X134050000Y-73015600D01*
X131950000Y-74315600D02*
X131950000Y-73715600D01*
X134050000Y-75015600D02*
X132650000Y-75015600D01*
X134750000Y-74315600D02*
G75*
G02*
X134050000Y-75015600I-700000J0D01*
G01*
X134050000Y-73015600D02*
G75*
G02*
X134750000Y-73715600I0J-700000D01*
G01*
X131950000Y-73715600D02*
G75*
G02*
X132650000Y-73015600I700000J0D01*
G01*
X132650000Y-75015600D02*
G75*
G02*
X131950000Y-74315600I0J700000D01*
G01*
%TO.C,R5*%
X132971000Y-78149267D02*
X132971000Y-77806733D01*
X131951000Y-78149267D02*
X131951000Y-77806733D01*
%TO.C,D1*%
X146592800Y-88655800D02*
X146592800Y-92505800D01*
X144592800Y-88655800D02*
X144592800Y-92505800D01*
X146592800Y-88655800D02*
X144592800Y-88655800D01*
%TO.C,R3*%
X133475000Y-77806733D02*
X133475000Y-78149267D01*
X134495000Y-77806733D02*
X134495000Y-78149267D01*
%TO.C,C1*%
X138428000Y-81235733D02*
X138428000Y-81578267D01*
X139448000Y-81235733D02*
X139448000Y-81578267D01*
%TO.C,J1*%
X148530000Y-74870000D02*
X149860000Y-74870000D01*
X148530000Y-76200000D02*
X148530000Y-74870000D01*
X148530000Y-77470000D02*
X151190000Y-77470000D01*
X151190000Y-77470000D02*
X151190000Y-105470000D01*
X148530000Y-77470000D02*
X148530000Y-105470000D01*
X148530000Y-105470000D02*
X151190000Y-105470000D01*
%TO.C,L1*%
D13*
X144029133Y-79293980D02*
X143552942Y-79293980D01*
X143552942Y-78293980D01*
X144886276Y-79293980D02*
X144314847Y-79293980D01*
X144600561Y-79293980D02*
X144600561Y-78293980D01*
X144505323Y-78436838D01*
X144410085Y-78532076D01*
X144314847Y-78579695D01*
%TO.C,R6*%
X132345133Y-69514980D02*
X132011800Y-69038790D01*
X131773704Y-69514980D02*
X131773704Y-68514980D01*
X132154657Y-68514980D01*
X132249895Y-68562600D01*
X132297514Y-68610219D01*
X132345133Y-68705457D01*
X132345133Y-68848314D01*
X132297514Y-68943552D01*
X132249895Y-68991171D01*
X132154657Y-69038790D01*
X131773704Y-69038790D01*
X133202276Y-68514980D02*
X133011800Y-68514980D01*
X132916561Y-68562600D01*
X132868942Y-68610219D01*
X132773704Y-68753076D01*
X132726085Y-68943552D01*
X132726085Y-69324504D01*
X132773704Y-69419742D01*
X132821323Y-69467361D01*
X132916561Y-69514980D01*
X133107038Y-69514980D01*
X133202276Y-69467361D01*
X133249895Y-69419742D01*
X133297514Y-69324504D01*
X133297514Y-69086409D01*
X133249895Y-68991171D01*
X133202276Y-68943552D01*
X133107038Y-68895933D01*
X132916561Y-68895933D01*
X132821323Y-68943552D01*
X132773704Y-68991171D01*
X132726085Y-69086409D01*
%TO.C,R4*%
X135901133Y-94381580D02*
X135567800Y-93905390D01*
X135329704Y-94381580D02*
X135329704Y-93381580D01*
X135710657Y-93381580D01*
X135805895Y-93429200D01*
X135853514Y-93476819D01*
X135901133Y-93572057D01*
X135901133Y-93714914D01*
X135853514Y-93810152D01*
X135805895Y-93857771D01*
X135710657Y-93905390D01*
X135329704Y-93905390D01*
X136758276Y-93714914D02*
X136758276Y-94381580D01*
X136520180Y-93333961D02*
X136282085Y-94048247D01*
X136901133Y-94048247D01*
%TO.C,C6*%
X138568133Y-90120742D02*
X138520514Y-90168361D01*
X138377657Y-90215980D01*
X138282419Y-90215980D01*
X138139561Y-90168361D01*
X138044323Y-90073123D01*
X137996704Y-89977885D01*
X137949085Y-89787409D01*
X137949085Y-89644552D01*
X137996704Y-89454076D01*
X138044323Y-89358838D01*
X138139561Y-89263600D01*
X138282419Y-89215980D01*
X138377657Y-89215980D01*
X138520514Y-89263600D01*
X138568133Y-89311219D01*
X139425276Y-89215980D02*
X139234800Y-89215980D01*
X139139561Y-89263600D01*
X139091942Y-89311219D01*
X138996704Y-89454076D01*
X138949085Y-89644552D01*
X138949085Y-90025504D01*
X138996704Y-90120742D01*
X139044323Y-90168361D01*
X139139561Y-90215980D01*
X139330038Y-90215980D01*
X139425276Y-90168361D01*
X139472895Y-90120742D01*
X139520514Y-90025504D01*
X139520514Y-89787409D01*
X139472895Y-89692171D01*
X139425276Y-89644552D01*
X139330038Y-89596933D01*
X139139561Y-89596933D01*
X139044323Y-89644552D01*
X138996704Y-89692171D01*
X138949085Y-89787409D01*
%TO.C,C5*%
X138542733Y-88139542D02*
X138495114Y-88187161D01*
X138352257Y-88234780D01*
X138257019Y-88234780D01*
X138114161Y-88187161D01*
X138018923Y-88091923D01*
X137971304Y-87996685D01*
X137923685Y-87806209D01*
X137923685Y-87663352D01*
X137971304Y-87472876D01*
X138018923Y-87377638D01*
X138114161Y-87282400D01*
X138257019Y-87234780D01*
X138352257Y-87234780D01*
X138495114Y-87282400D01*
X138542733Y-87330019D01*
X139447495Y-87234780D02*
X138971304Y-87234780D01*
X138923685Y-87710971D01*
X138971304Y-87663352D01*
X139066542Y-87615733D01*
X139304638Y-87615733D01*
X139399876Y-87663352D01*
X139447495Y-87710971D01*
X139495114Y-87806209D01*
X139495114Y-88044304D01*
X139447495Y-88139542D01*
X139399876Y-88187161D01*
X139304638Y-88234780D01*
X139066542Y-88234780D01*
X138971304Y-88187161D01*
X138923685Y-88139542D01*
%TO.C,C3*%
X137882333Y-87250542D02*
X137834714Y-87298161D01*
X137691857Y-87345780D01*
X137596619Y-87345780D01*
X137453761Y-87298161D01*
X137358523Y-87202923D01*
X137310904Y-87107685D01*
X137263285Y-86917209D01*
X137263285Y-86774352D01*
X137310904Y-86583876D01*
X137358523Y-86488638D01*
X137453761Y-86393400D01*
X137596619Y-86345780D01*
X137691857Y-86345780D01*
X137834714Y-86393400D01*
X137882333Y-86441019D01*
X138215666Y-86345780D02*
X138834714Y-86345780D01*
X138501380Y-86726733D01*
X138644238Y-86726733D01*
X138739476Y-86774352D01*
X138787095Y-86821971D01*
X138834714Y-86917209D01*
X138834714Y-87155304D01*
X138787095Y-87250542D01*
X138739476Y-87298161D01*
X138644238Y-87345780D01*
X138358523Y-87345780D01*
X138263285Y-87298161D01*
X138215666Y-87250542D01*
%TO.C,R7*%
X132319733Y-68295780D02*
X131986400Y-67819590D01*
X131748304Y-68295780D02*
X131748304Y-67295780D01*
X132129257Y-67295780D01*
X132224495Y-67343400D01*
X132272114Y-67391019D01*
X132319733Y-67486257D01*
X132319733Y-67629114D01*
X132272114Y-67724352D01*
X132224495Y-67771971D01*
X132129257Y-67819590D01*
X131748304Y-67819590D01*
X132653066Y-67295780D02*
X133319733Y-67295780D01*
X132891161Y-68295780D01*
%TO.C,C4*%
X138060133Y-77877942D02*
X138012514Y-77925561D01*
X137869657Y-77973180D01*
X137774419Y-77973180D01*
X137631561Y-77925561D01*
X137536323Y-77830323D01*
X137488704Y-77735085D01*
X137441085Y-77544609D01*
X137441085Y-77401752D01*
X137488704Y-77211276D01*
X137536323Y-77116038D01*
X137631561Y-77020800D01*
X137774419Y-76973180D01*
X137869657Y-76973180D01*
X138012514Y-77020800D01*
X138060133Y-77068419D01*
X138917276Y-77306514D02*
X138917276Y-77973180D01*
X138679180Y-76925561D02*
X138441085Y-77639847D01*
X139060133Y-77639847D01*
%TO.C,U1*%
X133985095Y-80732380D02*
X133985095Y-81541904D01*
X134032714Y-81637142D01*
X134080333Y-81684761D01*
X134175571Y-81732380D01*
X134366047Y-81732380D01*
X134461285Y-81684761D01*
X134508904Y-81637142D01*
X134556523Y-81541904D01*
X134556523Y-80732380D01*
X135556523Y-81732380D02*
X134985095Y-81732380D01*
X135270809Y-81732380D02*
X135270809Y-80732380D01*
X135175571Y-80875238D01*
X135080333Y-80970476D01*
X134985095Y-81018095D01*
%TO.C,R1*%
X135901133Y-89225380D02*
X135567800Y-88749190D01*
X135329704Y-89225380D02*
X135329704Y-88225380D01*
X135710657Y-88225380D01*
X135805895Y-88273000D01*
X135853514Y-88320619D01*
X135901133Y-88415857D01*
X135901133Y-88558714D01*
X135853514Y-88653952D01*
X135805895Y-88701571D01*
X135710657Y-88749190D01*
X135329704Y-88749190D01*
X136853514Y-89225380D02*
X136282085Y-89225380D01*
X136567800Y-89225380D02*
X136567800Y-88225380D01*
X136472561Y-88368238D01*
X136377323Y-88463476D01*
X136282085Y-88511095D01*
%TO.C,D2*%
X135329704Y-91206580D02*
X135329704Y-90206580D01*
X135567800Y-90206580D01*
X135710657Y-90254200D01*
X135805895Y-90349438D01*
X135853514Y-90444676D01*
X135901133Y-90635152D01*
X135901133Y-90778009D01*
X135853514Y-90968485D01*
X135805895Y-91063723D01*
X135710657Y-91158961D01*
X135567800Y-91206580D01*
X135329704Y-91206580D01*
X136282085Y-90301819D02*
X136329704Y-90254200D01*
X136424942Y-90206580D01*
X136663038Y-90206580D01*
X136758276Y-90254200D01*
X136805895Y-90301819D01*
X136853514Y-90397057D01*
X136853514Y-90492295D01*
X136805895Y-90635152D01*
X136234466Y-91206580D01*
X136853514Y-91206580D01*
%TO.C,C2*%
X137882333Y-85066142D02*
X137834714Y-85113761D01*
X137691857Y-85161380D01*
X137596619Y-85161380D01*
X137453761Y-85113761D01*
X137358523Y-85018523D01*
X137310904Y-84923285D01*
X137263285Y-84732809D01*
X137263285Y-84589952D01*
X137310904Y-84399476D01*
X137358523Y-84304238D01*
X137453761Y-84209000D01*
X137596619Y-84161380D01*
X137691857Y-84161380D01*
X137834714Y-84209000D01*
X137882333Y-84256619D01*
X138263285Y-84256619D02*
X138310904Y-84209000D01*
X138406142Y-84161380D01*
X138644238Y-84161380D01*
X138739476Y-84209000D01*
X138787095Y-84256619D01*
X138834714Y-84351857D01*
X138834714Y-84447095D01*
X138787095Y-84589952D01*
X138215666Y-85161380D01*
X138834714Y-85161380D01*
%TO.C,J3*%
X143481466Y-65873380D02*
X143481466Y-66587666D01*
X143433847Y-66730523D01*
X143338609Y-66825761D01*
X143195752Y-66873380D01*
X143100514Y-66873380D01*
X143862419Y-65873380D02*
X144481466Y-65873380D01*
X144148133Y-66254333D01*
X144290990Y-66254333D01*
X144386228Y-66301952D01*
X144433847Y-66349571D01*
X144481466Y-66444809D01*
X144481466Y-66682904D01*
X144433847Y-66778142D01*
X144386228Y-66825761D01*
X144290990Y-66873380D01*
X144005276Y-66873380D01*
X143910038Y-66825761D01*
X143862419Y-66778142D01*
%TO.C,Q1*%
X132238761Y-96381819D02*
X132143523Y-96334200D01*
X132048285Y-96238961D01*
X131905428Y-96096104D01*
X131810190Y-96048485D01*
X131714952Y-96048485D01*
X131762571Y-96286580D02*
X131667333Y-96238961D01*
X131572095Y-96143723D01*
X131524476Y-95953247D01*
X131524476Y-95619914D01*
X131572095Y-95429438D01*
X131667333Y-95334200D01*
X131762571Y-95286580D01*
X131953047Y-95286580D01*
X132048285Y-95334200D01*
X132143523Y-95429438D01*
X132191142Y-95619914D01*
X132191142Y-95953247D01*
X132143523Y-96143723D01*
X132048285Y-96238961D01*
X131953047Y-96286580D01*
X131762571Y-96286580D01*
X133143523Y-96286580D02*
X132572095Y-96286580D01*
X132857809Y-96286580D02*
X132857809Y-95286580D01*
X132762571Y-95429438D01*
X132667333Y-95524676D01*
X132572095Y-95572295D01*
%TO.C,R2*%
X142479733Y-74188580D02*
X142146400Y-73712390D01*
X141908304Y-74188580D02*
X141908304Y-73188580D01*
X142289257Y-73188580D01*
X142384495Y-73236200D01*
X142432114Y-73283819D01*
X142479733Y-73379057D01*
X142479733Y-73521914D01*
X142432114Y-73617152D01*
X142384495Y-73664771D01*
X142289257Y-73712390D01*
X141908304Y-73712390D01*
X142860685Y-73283819D02*
X142908304Y-73236200D01*
X143003542Y-73188580D01*
X143241638Y-73188580D01*
X143336876Y-73236200D01*
X143384495Y-73283819D01*
X143432114Y-73379057D01*
X143432114Y-73474295D01*
X143384495Y-73617152D01*
X142813066Y-74188580D01*
X143432114Y-74188580D01*
%TO.C,D3*%
D11*
X143032238Y-75008619D02*
X142548428Y-75008619D01*
X142500047Y-75492428D01*
X142548428Y-75444047D01*
X142645190Y-75395666D01*
X142887095Y-75395666D01*
X142983857Y-75444047D01*
X143032238Y-75492428D01*
X143080619Y-75589190D01*
X143080619Y-75831095D01*
X143032238Y-75927857D01*
X142983857Y-75976238D01*
X142887095Y-76024619D01*
X142645190Y-76024619D01*
X142548428Y-75976238D01*
X142500047Y-75927857D01*
X143370904Y-75008619D02*
X143709571Y-76024619D01*
X144048238Y-75008619D01*
X144145000Y-76121380D02*
X144919095Y-76121380D01*
X145354523Y-75008619D02*
X145548047Y-75008619D01*
X145644809Y-75057000D01*
X145741571Y-75153761D01*
X145789952Y-75347285D01*
X145789952Y-75685952D01*
X145741571Y-75879476D01*
X145644809Y-75976238D01*
X145548047Y-76024619D01*
X145354523Y-76024619D01*
X145257761Y-75976238D01*
X145161000Y-75879476D01*
X145112619Y-75685952D01*
X145112619Y-75347285D01*
X145161000Y-75153761D01*
X145257761Y-75057000D01*
X145354523Y-75008619D01*
X146225380Y-76024619D02*
X146225380Y-75008619D01*
X146805952Y-76024619D02*
X146370523Y-75444047D01*
X146805952Y-75008619D02*
X146225380Y-75589190D01*
%TO.C,J5*%
D13*
X144497466Y-97597980D02*
X144497466Y-98312266D01*
X144449847Y-98455123D01*
X144354609Y-98550361D01*
X144211752Y-98597980D01*
X144116514Y-98597980D01*
X145449847Y-97597980D02*
X144973657Y-97597980D01*
X144926038Y-98074171D01*
X144973657Y-98026552D01*
X145068895Y-97978933D01*
X145306990Y-97978933D01*
X145402228Y-98026552D01*
X145449847Y-98074171D01*
X145497466Y-98169409D01*
X145497466Y-98407504D01*
X145449847Y-98502742D01*
X145402228Y-98550361D01*
X145306990Y-98597980D01*
X145068895Y-98597980D01*
X144973657Y-98550361D01*
X144926038Y-98502742D01*
%TO.C,F1*%
X141144666Y-96880371D02*
X140811333Y-96880371D01*
X140811333Y-97404180D02*
X140811333Y-96404180D01*
X141287523Y-96404180D01*
X142192285Y-97404180D02*
X141620857Y-97404180D01*
X141906571Y-97404180D02*
X141906571Y-96404180D01*
X141811333Y-96547038D01*
X141716095Y-96642276D01*
X141620857Y-96689895D01*
%TO.C,JP1*%
X135564666Y-73493380D02*
X135564666Y-74207666D01*
X135517047Y-74350523D01*
X135421809Y-74445761D01*
X135278952Y-74493380D01*
X135183714Y-74493380D01*
X136040857Y-74493380D02*
X136040857Y-73493380D01*
X136421809Y-73493380D01*
X136517047Y-73541000D01*
X136564666Y-73588619D01*
X136612285Y-73683857D01*
X136612285Y-73826714D01*
X136564666Y-73921952D01*
X136517047Y-73969571D01*
X136421809Y-74017190D01*
X136040857Y-74017190D01*
X137564666Y-74493380D02*
X136993238Y-74493380D01*
X137278952Y-74493380D02*
X137278952Y-73493380D01*
X137183714Y-73636238D01*
X137088476Y-73731476D01*
X136993238Y-73779095D01*
%TO.C,R5*%
X135885180Y-77408066D02*
X135408990Y-77741400D01*
X135885180Y-77979495D02*
X134885180Y-77979495D01*
X134885180Y-77598542D01*
X134932800Y-77503304D01*
X134980419Y-77455685D01*
X135075657Y-77408066D01*
X135218514Y-77408066D01*
X135313752Y-77455685D01*
X135361371Y-77503304D01*
X135408990Y-77598542D01*
X135408990Y-77979495D01*
X134885180Y-76503304D02*
X134885180Y-76979495D01*
X135361371Y-77027114D01*
X135313752Y-76979495D01*
X135266133Y-76884257D01*
X135266133Y-76646161D01*
X135313752Y-76550923D01*
X135361371Y-76503304D01*
X135456609Y-76455685D01*
X135694704Y-76455685D01*
X135789942Y-76503304D01*
X135837561Y-76550923D01*
X135885180Y-76646161D01*
X135885180Y-76884257D01*
X135837561Y-76979495D01*
X135789942Y-77027114D01*
%TO.C,D1*%
X144829304Y-88183980D02*
X144829304Y-87183980D01*
X145067400Y-87183980D01*
X145210257Y-87231600D01*
X145305495Y-87326838D01*
X145353114Y-87422076D01*
X145400733Y-87612552D01*
X145400733Y-87755409D01*
X145353114Y-87945885D01*
X145305495Y-88041123D01*
X145210257Y-88136361D01*
X145067400Y-88183980D01*
X144829304Y-88183980D01*
X146353114Y-88183980D02*
X145781685Y-88183980D01*
X146067400Y-88183980D02*
X146067400Y-87183980D01*
X145972161Y-87326838D01*
X145876923Y-87422076D01*
X145781685Y-87469695D01*
%TO.C,R3*%
X137129780Y-77408066D02*
X136653590Y-77741400D01*
X137129780Y-77979495D02*
X136129780Y-77979495D01*
X136129780Y-77598542D01*
X136177400Y-77503304D01*
X136225019Y-77455685D01*
X136320257Y-77408066D01*
X136463114Y-77408066D01*
X136558352Y-77455685D01*
X136605971Y-77503304D01*
X136653590Y-77598542D01*
X136653590Y-77979495D01*
X136129780Y-77074733D02*
X136129780Y-76455685D01*
X136510733Y-76789019D01*
X136510733Y-76646161D01*
X136558352Y-76550923D01*
X136605971Y-76503304D01*
X136701209Y-76455685D01*
X136939304Y-76455685D01*
X137034542Y-76503304D01*
X137082161Y-76550923D01*
X137129780Y-76646161D01*
X137129780Y-76931876D01*
X137082161Y-77027114D01*
X137034542Y-77074733D01*
%TO.C,C1*%
X139803142Y-79008266D02*
X139850761Y-79055885D01*
X139898380Y-79198742D01*
X139898380Y-79293980D01*
X139850761Y-79436838D01*
X139755523Y-79532076D01*
X139660285Y-79579695D01*
X139469809Y-79627314D01*
X139326952Y-79627314D01*
X139136476Y-79579695D01*
X139041238Y-79532076D01*
X138946000Y-79436838D01*
X138898380Y-79293980D01*
X138898380Y-79198742D01*
X138946000Y-79055885D01*
X138993619Y-79008266D01*
X139898380Y-78055885D02*
X139898380Y-78627314D01*
X139898380Y-78341600D02*
X138898380Y-78341600D01*
X139041238Y-78436838D01*
X139136476Y-78532076D01*
X139184095Y-78627314D01*
%TD*%
M02*
