%TF.GenerationSoftware,KiCad,Pcbnew,5.1.6-c6e7f7d~87~ubuntu18.04.1*%
%TF.CreationDate,2020-10-12T14:40:45-07:00*%
%TF.ProjectId,feather-power-supply-sw-smd-adj,66656174-6865-4722-9d70-6f7765722d73,rev?*%
%TF.SameCoordinates,Original*%
%TF.FileFunction,Legend,Top*%
%TF.FilePolarity,Positive*%
%FSLAX46Y46*%
G04 Gerber Fmt 4.6, Leading zero omitted, Abs format (unit mm)*
G04 Created by KiCad (PCBNEW 5.1.6-c6e7f7d~87~ubuntu18.04.1) date 2020-10-12 14:40:45*
%MOMM*%
%LPD*%
G01*
G04 APERTURE LIST*
%ADD10C,0.300000*%
%ADD11C,0.127000*%
%ADD12C,0.125000*%
%ADD13C,0.120000*%
%ADD14C,0.152400*%
%ADD15C,0.150000*%
G04 APERTURE END LIST*
D10*
X146931771Y-102909571D02*
X146931771Y-103766714D01*
X146931771Y-103338142D02*
X145431771Y-103338142D01*
X145646057Y-103481000D01*
X145788914Y-103623857D01*
X145860342Y-103766714D01*
X145574628Y-102338142D02*
X145503200Y-102266714D01*
X145431771Y-102123857D01*
X145431771Y-101766714D01*
X145503200Y-101623857D01*
X145574628Y-101552428D01*
X145717485Y-101481000D01*
X145860342Y-101481000D01*
X146074628Y-101552428D01*
X146931771Y-102409571D01*
X146931771Y-101481000D01*
X145431771Y-101052428D02*
X146931771Y-100552428D01*
X145431771Y-100052428D01*
D11*
X144834428Y-67843400D02*
X144761857Y-67807114D01*
X144653000Y-67807114D01*
X144544142Y-67843400D01*
X144471571Y-67915971D01*
X144435285Y-67988542D01*
X144399000Y-68133685D01*
X144399000Y-68242542D01*
X144435285Y-68387685D01*
X144471571Y-68460257D01*
X144544142Y-68532828D01*
X144653000Y-68569114D01*
X144725571Y-68569114D01*
X144834428Y-68532828D01*
X144870714Y-68496542D01*
X144870714Y-68242542D01*
X144725571Y-68242542D01*
X145197285Y-68569114D02*
X145197285Y-67807114D01*
X145632714Y-68569114D01*
X145632714Y-67807114D01*
X145995571Y-68569114D02*
X145995571Y-67807114D01*
X146177000Y-67807114D01*
X146285857Y-67843400D01*
X146358428Y-67915971D01*
X146394714Y-67988542D01*
X146431000Y-68133685D01*
X146431000Y-68242542D01*
X146394714Y-68387685D01*
X146358428Y-68460257D01*
X146285857Y-68532828D01*
X146177000Y-68569114D01*
X145995571Y-68569114D01*
X141784008Y-68278828D02*
X142364580Y-68278828D01*
X142074294Y-68569114D02*
X142074294Y-67988542D01*
X143090294Y-67807114D02*
X142727437Y-67807114D01*
X142691151Y-68169971D01*
X142727437Y-68133685D01*
X142800008Y-68097400D01*
X142981437Y-68097400D01*
X143054008Y-68133685D01*
X143090294Y-68169971D01*
X143126580Y-68242542D01*
X143126580Y-68423971D01*
X143090294Y-68496542D01*
X143054008Y-68532828D01*
X142981437Y-68569114D01*
X142800008Y-68569114D01*
X142727437Y-68532828D01*
X142691151Y-68496542D01*
X143344294Y-67807114D02*
X143598294Y-68569114D01*
X143852294Y-67807114D01*
X139314161Y-68532828D02*
X139423018Y-68569114D01*
X139604446Y-68569114D01*
X139677018Y-68532828D01*
X139713304Y-68496542D01*
X139749589Y-68423971D01*
X139749589Y-68351400D01*
X139713304Y-68278828D01*
X139677018Y-68242542D01*
X139604446Y-68206257D01*
X139459304Y-68169971D01*
X139386732Y-68133685D01*
X139350446Y-68097400D01*
X139314161Y-68024828D01*
X139314161Y-67952257D01*
X139350446Y-67879685D01*
X139386732Y-67843400D01*
X139459304Y-67807114D01*
X139640732Y-67807114D01*
X139749589Y-67843400D01*
X140511589Y-68496542D02*
X140475304Y-68532828D01*
X140366446Y-68569114D01*
X140293875Y-68569114D01*
X140185018Y-68532828D01*
X140112446Y-68460257D01*
X140076161Y-68387685D01*
X140039875Y-68242542D01*
X140039875Y-68133685D01*
X140076161Y-67988542D01*
X140112446Y-67915971D01*
X140185018Y-67843400D01*
X140293875Y-67807114D01*
X140366446Y-67807114D01*
X140475304Y-67843400D01*
X140511589Y-67879685D01*
X141201018Y-68569114D02*
X140838161Y-68569114D01*
X140838161Y-67807114D01*
X136844314Y-68532828D02*
X136953171Y-68569114D01*
X137134600Y-68569114D01*
X137207171Y-68532828D01*
X137243457Y-68496542D01*
X137279742Y-68423971D01*
X137279742Y-68351400D01*
X137243457Y-68278828D01*
X137207171Y-68242542D01*
X137134600Y-68206257D01*
X136989457Y-68169971D01*
X136916885Y-68133685D01*
X136880600Y-68097400D01*
X136844314Y-68024828D01*
X136844314Y-67952257D01*
X136880600Y-67879685D01*
X136916885Y-67843400D01*
X136989457Y-67807114D01*
X137170885Y-67807114D01*
X137279742Y-67843400D01*
X137606314Y-68569114D02*
X137606314Y-67807114D01*
X137787742Y-67807114D01*
X137896600Y-67843400D01*
X137969171Y-67915971D01*
X138005457Y-67988542D01*
X138041742Y-68133685D01*
X138041742Y-68242542D01*
X138005457Y-68387685D01*
X137969171Y-68460257D01*
X137896600Y-68532828D01*
X137787742Y-68569114D01*
X137606314Y-68569114D01*
X138332028Y-68351400D02*
X138694885Y-68351400D01*
X138259457Y-68569114D02*
X138513457Y-67807114D01*
X138767457Y-68569114D01*
D12*
X136706428Y-66809257D02*
X136742714Y-66700400D01*
X136742714Y-66518971D01*
X136706428Y-66446400D01*
X136670142Y-66410114D01*
X136597571Y-66373828D01*
X136525000Y-66373828D01*
X136452428Y-66410114D01*
X136416142Y-66446400D01*
X136379857Y-66518971D01*
X136343571Y-66664114D01*
X136307285Y-66736685D01*
X136271000Y-66772971D01*
X136198428Y-66809257D01*
X136125857Y-66809257D01*
X136053285Y-66772971D01*
X136017000Y-66736685D01*
X135980714Y-66664114D01*
X135980714Y-66482685D01*
X136017000Y-66373828D01*
X135980714Y-66156114D02*
X135980714Y-65720685D01*
X136742714Y-65938400D02*
X135980714Y-65938400D01*
X136343571Y-65466685D02*
X136343571Y-65212685D01*
X136742714Y-65103828D02*
X136742714Y-65466685D01*
X135980714Y-65466685D01*
X135980714Y-65103828D01*
X136742714Y-64777257D02*
X135980714Y-64777257D01*
X136525000Y-64523257D01*
X135980714Y-64269257D01*
X136742714Y-64269257D01*
X136742714Y-63906400D02*
X135980714Y-63906400D01*
X136525000Y-63652400D01*
X135980714Y-63398400D01*
X136742714Y-63398400D01*
X136525000Y-63071828D02*
X136525000Y-62708971D01*
X136742714Y-63144400D02*
X135980714Y-62890400D01*
X136742714Y-62636400D01*
X136815285Y-61293828D02*
X136779000Y-61366400D01*
X136706428Y-61438971D01*
X136597571Y-61547828D01*
X136561285Y-61620400D01*
X136561285Y-61692971D01*
X136742714Y-61656685D02*
X136706428Y-61729257D01*
X136633857Y-61801828D01*
X136488714Y-61838114D01*
X136234714Y-61838114D01*
X136089571Y-61801828D01*
X136017000Y-61729257D01*
X135980714Y-61656685D01*
X135980714Y-61511542D01*
X136017000Y-61438971D01*
X136089571Y-61366400D01*
X136234714Y-61330114D01*
X136488714Y-61330114D01*
X136633857Y-61366400D01*
X136706428Y-61438971D01*
X136742714Y-61511542D01*
X136742714Y-61656685D01*
X135980714Y-61112400D02*
X135980714Y-60676971D01*
X136742714Y-60894685D02*
X135980714Y-60894685D01*
D10*
X132015800Y-103098457D02*
X131944371Y-103241314D01*
X131944371Y-103455600D01*
X132015800Y-103669885D01*
X132158657Y-103812742D01*
X132301514Y-103884171D01*
X132587228Y-103955600D01*
X132801514Y-103955600D01*
X133087228Y-103884171D01*
X133230085Y-103812742D01*
X133372942Y-103669885D01*
X133444371Y-103455600D01*
X133444371Y-103312742D01*
X133372942Y-103098457D01*
X133301514Y-103027028D01*
X132801514Y-103027028D01*
X132801514Y-103312742D01*
X133444371Y-102384171D02*
X131944371Y-102384171D01*
X133444371Y-101527028D01*
X131944371Y-101527028D01*
X133444371Y-100812742D02*
X131944371Y-100812742D01*
X131944371Y-100455600D01*
X132015800Y-100241314D01*
X132158657Y-100098457D01*
X132301514Y-100027028D01*
X132587228Y-99955600D01*
X132801514Y-99955600D01*
X133087228Y-100027028D01*
X133230085Y-100098457D01*
X133372942Y-100241314D01*
X133444371Y-100455600D01*
X133444371Y-100812742D01*
D13*
%TO.C,C6*%
X142943664Y-92527800D02*
X141739536Y-92527800D01*
X142943664Y-90707800D02*
X141739536Y-90707800D01*
%TO.C,C3*%
X133521036Y-85958000D02*
X134725164Y-85958000D01*
X133521036Y-87778000D02*
X134725164Y-87778000D01*
D14*
%TO.C,L1*%
X139979400Y-79908400D02*
X139979400Y-87477600D01*
X139979400Y-87477600D02*
X142237460Y-87477600D01*
X147548600Y-87477600D02*
X147548600Y-79908400D01*
X147548600Y-79908400D02*
X145290540Y-79908400D01*
X142237460Y-79908400D02*
X139979400Y-79908400D01*
X145290540Y-87477600D02*
X147548600Y-87477600D01*
D13*
%TO.C,J2*%
X128235400Y-105419200D02*
X130895400Y-105419200D01*
X128235400Y-67259200D02*
X128235400Y-105419200D01*
X130895400Y-67259200D02*
X130895400Y-105419200D01*
X128235400Y-67259200D02*
X130895400Y-67259200D01*
X128235400Y-65989200D02*
X128235400Y-64659200D01*
X128235400Y-64659200D02*
X129565400Y-64659200D01*
%TO.C,R7*%
X133178733Y-71909400D02*
X133521267Y-71909400D01*
X133178733Y-70889400D02*
X133521267Y-70889400D01*
%TO.C,C4*%
X136353733Y-78357000D02*
X136696267Y-78357000D01*
X136353733Y-79377000D02*
X136696267Y-79377000D01*
%TO.C,U1*%
X134867400Y-83110200D02*
X136367400Y-83110200D01*
X134867400Y-83110200D02*
X133367400Y-83110200D01*
X134867400Y-79890200D02*
X136367400Y-79890200D01*
X134867400Y-79890200D02*
X131942400Y-79890200D01*
%TO.C,R4*%
X136734733Y-91946000D02*
X137077267Y-91946000D01*
X136734733Y-92966000D02*
X137077267Y-92966000D01*
%TO.C,R1*%
X133153333Y-88313800D02*
X133495867Y-88313800D01*
X133153333Y-89333800D02*
X133495867Y-89333800D01*
%TO.C,D2*%
X131773800Y-89751800D02*
X131773800Y-91451800D01*
X131773800Y-91451800D02*
X134323800Y-91451800D01*
X131773800Y-89751800D02*
X134323800Y-89751800D01*
%TO.C,C5*%
X142932564Y-90191000D02*
X141728436Y-90191000D01*
X142932564Y-88371000D02*
X141728436Y-88371000D01*
%TO.C,C2*%
X133509936Y-83621200D02*
X134714064Y-83621200D01*
X133509936Y-85441200D02*
X134714064Y-85441200D01*
%TO.C,J3*%
X142783000Y-61196000D02*
X138903000Y-61196000D01*
X137733000Y-65666000D02*
X138783000Y-65666000D01*
X137733000Y-63166000D02*
X137733000Y-65666000D01*
X142903000Y-65666000D02*
X142903000Y-66656000D01*
X143953000Y-65666000D02*
X142903000Y-65666000D01*
X143953000Y-63166000D02*
X143953000Y-65666000D01*
%TO.C,Q1*%
X131846200Y-94181200D02*
X132776200Y-94181200D01*
X135006200Y-94181200D02*
X134076200Y-94181200D01*
X135006200Y-94181200D02*
X135006200Y-92021200D01*
X131846200Y-94181200D02*
X131846200Y-92721200D01*
%TO.C,R2*%
X140125267Y-73099200D02*
X139782733Y-73099200D01*
X140125267Y-74119200D02*
X139782733Y-74119200D01*
%TO.C,D3*%
X142093000Y-74553400D02*
X139208000Y-74553400D01*
X142093000Y-76373400D02*
X142093000Y-74553400D01*
X139208000Y-76373400D02*
X142093000Y-76373400D01*
%TO.C,J4*%
X146872000Y-68901000D02*
X146872000Y-70231000D01*
X145542000Y-68901000D02*
X146872000Y-68901000D01*
X144272000Y-68901000D02*
X144272000Y-71561000D01*
X144272000Y-71561000D02*
X136592000Y-71561000D01*
X144272000Y-68901000D02*
X136592000Y-68901000D01*
X136592000Y-68901000D02*
X136592000Y-71561000D01*
%TO.C,J5*%
X134360000Y-109675000D02*
X134860000Y-109675000D01*
X134360000Y-108935000D02*
X134360000Y-109675000D01*
X140933000Y-105798000D02*
X140886000Y-105844000D01*
X143230000Y-103500000D02*
X143195000Y-103536000D01*
X141126000Y-106014000D02*
X141091000Y-106049000D01*
X143435000Y-103706000D02*
X143388000Y-103752000D01*
X144720000Y-99514000D02*
X144720000Y-109435000D01*
X134600000Y-99514000D02*
X134600000Y-109435000D01*
X134600000Y-109435000D02*
X144720000Y-109435000D01*
X134600000Y-99514000D02*
X144720000Y-99514000D01*
X134600000Y-102474000D02*
X144720000Y-102474000D01*
X134600000Y-107375000D02*
X144720000Y-107375000D01*
X134600000Y-108875000D02*
X144720000Y-108875000D01*
X143840000Y-104775000D02*
G75*
G03*
X143840000Y-104775000I-1680000J0D01*
G01*
X137843318Y-106309756D02*
G75*
G02*
X137160000Y-106455000I-683318J1534756D01*
G01*
X138695426Y-104091958D02*
G75*
G02*
X138695000Y-105459000I-1535426J-683042D01*
G01*
X136476958Y-103239574D02*
G75*
G02*
X137844000Y-103240000I683042J-1535426D01*
G01*
X135624574Y-105458042D02*
G75*
G02*
X135625000Y-104091000I1535426J683042D01*
G01*
X137188805Y-106455253D02*
G75*
G02*
X136476000Y-106310000I-28805J1680253D01*
G01*
%TO.C,F1*%
X138582431Y-95394200D02*
X136042369Y-95394200D01*
X138582431Y-98814200D02*
X136042369Y-98814200D01*
%TO.C,JP1*%
X131950000Y-75280800D02*
X131950000Y-74680800D01*
X134050000Y-75980800D02*
X132650000Y-75980800D01*
X134750000Y-74680800D02*
X134750000Y-75280800D01*
X132650000Y-73980800D02*
X134050000Y-73980800D01*
X131950000Y-74680800D02*
G75*
G02*
X132650000Y-73980800I700000J0D01*
G01*
X132650000Y-75980800D02*
G75*
G02*
X131950000Y-75280800I0J700000D01*
G01*
X134750000Y-75280800D02*
G75*
G02*
X134050000Y-75980800I-700000J0D01*
G01*
X134050000Y-73980800D02*
G75*
G02*
X134750000Y-74680800I0J-700000D01*
G01*
%TO.C,R5*%
X132971000Y-78149267D02*
X132971000Y-77806733D01*
X131951000Y-78149267D02*
X131951000Y-77806733D01*
%TO.C,D1*%
X147685000Y-88478000D02*
X147685000Y-92328000D01*
X145685000Y-88478000D02*
X145685000Y-92328000D01*
X147685000Y-88478000D02*
X145685000Y-88478000D01*
%TO.C,R3*%
X133475000Y-77806733D02*
X133475000Y-78149267D01*
X134495000Y-77806733D02*
X134495000Y-78149267D01*
%TO.C,C1*%
X138428000Y-81235733D02*
X138428000Y-81578267D01*
X139448000Y-81235733D02*
X139448000Y-81578267D01*
%TO.C,R6*%
X133178733Y-73433400D02*
X133521267Y-73433400D01*
X133178733Y-72413400D02*
X133521267Y-72413400D01*
%TO.C,J1*%
X148530000Y-74870000D02*
X149860000Y-74870000D01*
X148530000Y-76200000D02*
X148530000Y-74870000D01*
X148530000Y-77470000D02*
X151190000Y-77470000D01*
X151190000Y-77470000D02*
X151190000Y-105470000D01*
X148530000Y-77470000D02*
X148530000Y-105470000D01*
X148530000Y-105470000D02*
X151190000Y-105470000D01*
%TO.C,C6*%
D15*
X142174933Y-93794942D02*
X142127314Y-93842561D01*
X141984457Y-93890180D01*
X141889219Y-93890180D01*
X141746361Y-93842561D01*
X141651123Y-93747323D01*
X141603504Y-93652085D01*
X141555885Y-93461609D01*
X141555885Y-93318752D01*
X141603504Y-93128276D01*
X141651123Y-93033038D01*
X141746361Y-92937800D01*
X141889219Y-92890180D01*
X141984457Y-92890180D01*
X142127314Y-92937800D01*
X142174933Y-92985419D01*
X143032076Y-92890180D02*
X142841600Y-92890180D01*
X142746361Y-92937800D01*
X142698742Y-92985419D01*
X142603504Y-93128276D01*
X142555885Y-93318752D01*
X142555885Y-93699704D01*
X142603504Y-93794942D01*
X142651123Y-93842561D01*
X142746361Y-93890180D01*
X142936838Y-93890180D01*
X143032076Y-93842561D01*
X143079695Y-93794942D01*
X143127314Y-93699704D01*
X143127314Y-93461609D01*
X143079695Y-93366371D01*
X143032076Y-93318752D01*
X142936838Y-93271133D01*
X142746361Y-93271133D01*
X142651123Y-93318752D01*
X142603504Y-93366371D01*
X142555885Y-93461609D01*
%TO.C,C3*%
X137907733Y-87250542D02*
X137860114Y-87298161D01*
X137717257Y-87345780D01*
X137622019Y-87345780D01*
X137479161Y-87298161D01*
X137383923Y-87202923D01*
X137336304Y-87107685D01*
X137288685Y-86917209D01*
X137288685Y-86774352D01*
X137336304Y-86583876D01*
X137383923Y-86488638D01*
X137479161Y-86393400D01*
X137622019Y-86345780D01*
X137717257Y-86345780D01*
X137860114Y-86393400D01*
X137907733Y-86441019D01*
X138241066Y-86345780D02*
X138860114Y-86345780D01*
X138526780Y-86726733D01*
X138669638Y-86726733D01*
X138764876Y-86774352D01*
X138812495Y-86821971D01*
X138860114Y-86917209D01*
X138860114Y-87155304D01*
X138812495Y-87250542D01*
X138764876Y-87298161D01*
X138669638Y-87345780D01*
X138383923Y-87345780D01*
X138288685Y-87298161D01*
X138241066Y-87250542D01*
%TO.C,L1*%
X142911533Y-79166980D02*
X142435342Y-79166980D01*
X142435342Y-78166980D01*
X143768676Y-79166980D02*
X143197247Y-79166980D01*
X143482961Y-79166980D02*
X143482961Y-78166980D01*
X143387723Y-78309838D01*
X143292485Y-78405076D01*
X143197247Y-78452695D01*
X142254504Y-83291419D02*
X142302123Y-83243800D01*
X142397361Y-83196180D01*
X142635457Y-83196180D01*
X142730695Y-83243800D01*
X142778314Y-83291419D01*
X142825933Y-83386657D01*
X142825933Y-83481895D01*
X142778314Y-83624752D01*
X142206885Y-84196180D01*
X142825933Y-84196180D01*
X143206885Y-83291419D02*
X143254504Y-83243800D01*
X143349742Y-83196180D01*
X143587838Y-83196180D01*
X143683076Y-83243800D01*
X143730695Y-83291419D01*
X143778314Y-83386657D01*
X143778314Y-83481895D01*
X143730695Y-83624752D01*
X143159266Y-84196180D01*
X143778314Y-84196180D01*
X144635457Y-83529514D02*
X144635457Y-84196180D01*
X144206885Y-83529514D02*
X144206885Y-84053323D01*
X144254504Y-84148561D01*
X144349742Y-84196180D01*
X144492600Y-84196180D01*
X144587838Y-84148561D01*
X144635457Y-84100942D01*
X145111647Y-84196180D02*
X145111647Y-83196180D01*
X145111647Y-83672371D02*
X145683076Y-83672371D01*
X145683076Y-84196180D02*
X145683076Y-83196180D01*
X143216380Y-83693000D02*
X143454476Y-83693000D01*
X143359238Y-83931095D02*
X143454476Y-83693000D01*
X143359238Y-83454904D01*
X143644952Y-83835857D02*
X143454476Y-83693000D01*
X143644952Y-83550142D01*
%TO.C,R7*%
X132319733Y-70530980D02*
X131986400Y-70054790D01*
X131748304Y-70530980D02*
X131748304Y-69530980D01*
X132129257Y-69530980D01*
X132224495Y-69578600D01*
X132272114Y-69626219D01*
X132319733Y-69721457D01*
X132319733Y-69864314D01*
X132272114Y-69959552D01*
X132224495Y-70007171D01*
X132129257Y-70054790D01*
X131748304Y-70054790D01*
X132653066Y-69530980D02*
X133319733Y-69530980D01*
X132891161Y-70530980D01*
%TO.C,C4*%
X137145733Y-77827142D02*
X137098114Y-77874761D01*
X136955257Y-77922380D01*
X136860019Y-77922380D01*
X136717161Y-77874761D01*
X136621923Y-77779523D01*
X136574304Y-77684285D01*
X136526685Y-77493809D01*
X136526685Y-77350952D01*
X136574304Y-77160476D01*
X136621923Y-77065238D01*
X136717161Y-76970000D01*
X136860019Y-76922380D01*
X136955257Y-76922380D01*
X137098114Y-76970000D01*
X137145733Y-77017619D01*
X138002876Y-77255714D02*
X138002876Y-77922380D01*
X137764780Y-76874761D02*
X137526685Y-77589047D01*
X138145733Y-77589047D01*
%TO.C,U1*%
X133985095Y-80732380D02*
X133985095Y-81541904D01*
X134032714Y-81637142D01*
X134080333Y-81684761D01*
X134175571Y-81732380D01*
X134366047Y-81732380D01*
X134461285Y-81684761D01*
X134508904Y-81637142D01*
X134556523Y-81541904D01*
X134556523Y-80732380D01*
X135556523Y-81732380D02*
X134985095Y-81732380D01*
X135270809Y-81732380D02*
X135270809Y-80732380D01*
X135175571Y-80875238D01*
X135080333Y-80970476D01*
X134985095Y-81018095D01*
%TO.C,R4*%
X136612333Y-94432380D02*
X136279000Y-93956190D01*
X136040904Y-94432380D02*
X136040904Y-93432380D01*
X136421857Y-93432380D01*
X136517095Y-93480000D01*
X136564714Y-93527619D01*
X136612333Y-93622857D01*
X136612333Y-93765714D01*
X136564714Y-93860952D01*
X136517095Y-93908571D01*
X136421857Y-93956190D01*
X136040904Y-93956190D01*
X137469476Y-93765714D02*
X137469476Y-94432380D01*
X137231380Y-93384761D02*
X136993285Y-94099047D01*
X137612333Y-94099047D01*
%TO.C,R1*%
X135824933Y-89276180D02*
X135491600Y-88799990D01*
X135253504Y-89276180D02*
X135253504Y-88276180D01*
X135634457Y-88276180D01*
X135729695Y-88323800D01*
X135777314Y-88371419D01*
X135824933Y-88466657D01*
X135824933Y-88609514D01*
X135777314Y-88704752D01*
X135729695Y-88752371D01*
X135634457Y-88799990D01*
X135253504Y-88799990D01*
X136777314Y-89276180D02*
X136205885Y-89276180D01*
X136491600Y-89276180D02*
X136491600Y-88276180D01*
X136396361Y-88419038D01*
X136301123Y-88514276D01*
X136205885Y-88561895D01*
%TO.C,D2*%
X135151904Y-91155780D02*
X135151904Y-90155780D01*
X135390000Y-90155780D01*
X135532857Y-90203400D01*
X135628095Y-90298638D01*
X135675714Y-90393876D01*
X135723333Y-90584352D01*
X135723333Y-90727209D01*
X135675714Y-90917685D01*
X135628095Y-91012923D01*
X135532857Y-91108161D01*
X135390000Y-91155780D01*
X135151904Y-91155780D01*
X136104285Y-90251019D02*
X136151904Y-90203400D01*
X136247142Y-90155780D01*
X136485238Y-90155780D01*
X136580476Y-90203400D01*
X136628095Y-90251019D01*
X136675714Y-90346257D01*
X136675714Y-90441495D01*
X136628095Y-90584352D01*
X136056666Y-91155780D01*
X136675714Y-91155780D01*
%TO.C,C5*%
X138136333Y-89638142D02*
X138088714Y-89685761D01*
X137945857Y-89733380D01*
X137850619Y-89733380D01*
X137707761Y-89685761D01*
X137612523Y-89590523D01*
X137564904Y-89495285D01*
X137517285Y-89304809D01*
X137517285Y-89161952D01*
X137564904Y-88971476D01*
X137612523Y-88876238D01*
X137707761Y-88781000D01*
X137850619Y-88733380D01*
X137945857Y-88733380D01*
X138088714Y-88781000D01*
X138136333Y-88828619D01*
X139041095Y-88733380D02*
X138564904Y-88733380D01*
X138517285Y-89209571D01*
X138564904Y-89161952D01*
X138660142Y-89114333D01*
X138898238Y-89114333D01*
X138993476Y-89161952D01*
X139041095Y-89209571D01*
X139088714Y-89304809D01*
X139088714Y-89542904D01*
X139041095Y-89638142D01*
X138993476Y-89685761D01*
X138898238Y-89733380D01*
X138660142Y-89733380D01*
X138564904Y-89685761D01*
X138517285Y-89638142D01*
%TO.C,C2*%
X137882333Y-85066142D02*
X137834714Y-85113761D01*
X137691857Y-85161380D01*
X137596619Y-85161380D01*
X137453761Y-85113761D01*
X137358523Y-85018523D01*
X137310904Y-84923285D01*
X137263285Y-84732809D01*
X137263285Y-84589952D01*
X137310904Y-84399476D01*
X137358523Y-84304238D01*
X137453761Y-84209000D01*
X137596619Y-84161380D01*
X137691857Y-84161380D01*
X137834714Y-84209000D01*
X137882333Y-84256619D01*
X138263285Y-84256619D02*
X138310904Y-84209000D01*
X138406142Y-84161380D01*
X138644238Y-84161380D01*
X138739476Y-84209000D01*
X138787095Y-84256619D01*
X138834714Y-84351857D01*
X138834714Y-84447095D01*
X138787095Y-84589952D01*
X138215666Y-85161380D01*
X138834714Y-85161380D01*
%TO.C,J3*%
X143481466Y-65873380D02*
X143481466Y-66587666D01*
X143433847Y-66730523D01*
X143338609Y-66825761D01*
X143195752Y-66873380D01*
X143100514Y-66873380D01*
X143862419Y-65873380D02*
X144481466Y-65873380D01*
X144148133Y-66254333D01*
X144290990Y-66254333D01*
X144386228Y-66301952D01*
X144433847Y-66349571D01*
X144481466Y-66444809D01*
X144481466Y-66682904D01*
X144433847Y-66778142D01*
X144386228Y-66825761D01*
X144290990Y-66873380D01*
X144005276Y-66873380D01*
X143910038Y-66825761D01*
X143862419Y-66778142D01*
%TO.C,Q1*%
X132238761Y-96381819D02*
X132143523Y-96334200D01*
X132048285Y-96238961D01*
X131905428Y-96096104D01*
X131810190Y-96048485D01*
X131714952Y-96048485D01*
X131762571Y-96286580D02*
X131667333Y-96238961D01*
X131572095Y-96143723D01*
X131524476Y-95953247D01*
X131524476Y-95619914D01*
X131572095Y-95429438D01*
X131667333Y-95334200D01*
X131762571Y-95286580D01*
X131953047Y-95286580D01*
X132048285Y-95334200D01*
X132143523Y-95429438D01*
X132191142Y-95619914D01*
X132191142Y-95953247D01*
X132143523Y-96143723D01*
X132048285Y-96238961D01*
X131953047Y-96286580D01*
X131762571Y-96286580D01*
X133143523Y-96286580D02*
X132572095Y-96286580D01*
X132857809Y-96286580D02*
X132857809Y-95286580D01*
X132762571Y-95429438D01*
X132667333Y-95524676D01*
X132572095Y-95572295D01*
%TO.C,R2*%
X142479733Y-74188580D02*
X142146400Y-73712390D01*
X141908304Y-74188580D02*
X141908304Y-73188580D01*
X142289257Y-73188580D01*
X142384495Y-73236200D01*
X142432114Y-73283819D01*
X142479733Y-73379057D01*
X142479733Y-73521914D01*
X142432114Y-73617152D01*
X142384495Y-73664771D01*
X142289257Y-73712390D01*
X141908304Y-73712390D01*
X142860685Y-73283819D02*
X142908304Y-73236200D01*
X143003542Y-73188580D01*
X143241638Y-73188580D01*
X143336876Y-73236200D01*
X143384495Y-73283819D01*
X143432114Y-73379057D01*
X143432114Y-73474295D01*
X143384495Y-73617152D01*
X142813066Y-74188580D01*
X143432114Y-74188580D01*
%TO.C,D3*%
D11*
X142878628Y-75096914D02*
X142515771Y-75096914D01*
X142479485Y-75459771D01*
X142515771Y-75423485D01*
X142588342Y-75387200D01*
X142769771Y-75387200D01*
X142842342Y-75423485D01*
X142878628Y-75459771D01*
X142914914Y-75532342D01*
X142914914Y-75713771D01*
X142878628Y-75786342D01*
X142842342Y-75822628D01*
X142769771Y-75858914D01*
X142588342Y-75858914D01*
X142515771Y-75822628D01*
X142479485Y-75786342D01*
X143132628Y-75096914D02*
X143386628Y-75858914D01*
X143640628Y-75096914D01*
X143713200Y-75931485D02*
X144293771Y-75931485D01*
X144620342Y-75096914D02*
X144765485Y-75096914D01*
X144838057Y-75133200D01*
X144910628Y-75205771D01*
X144946914Y-75350914D01*
X144946914Y-75604914D01*
X144910628Y-75750057D01*
X144838057Y-75822628D01*
X144765485Y-75858914D01*
X144620342Y-75858914D01*
X144547771Y-75822628D01*
X144475200Y-75750057D01*
X144438914Y-75604914D01*
X144438914Y-75350914D01*
X144475200Y-75205771D01*
X144547771Y-75133200D01*
X144620342Y-75096914D01*
X145273485Y-75858914D02*
X145273485Y-75096914D01*
X145708914Y-75858914D02*
X145382342Y-75423485D01*
X145708914Y-75096914D02*
X145273485Y-75532342D01*
%TO.C,J5*%
D15*
X144497466Y-97597980D02*
X144497466Y-98312266D01*
X144449847Y-98455123D01*
X144354609Y-98550361D01*
X144211752Y-98597980D01*
X144116514Y-98597980D01*
X145449847Y-97597980D02*
X144973657Y-97597980D01*
X144926038Y-98074171D01*
X144973657Y-98026552D01*
X145068895Y-97978933D01*
X145306990Y-97978933D01*
X145402228Y-98026552D01*
X145449847Y-98074171D01*
X145497466Y-98169409D01*
X145497466Y-98407504D01*
X145449847Y-98502742D01*
X145402228Y-98550361D01*
X145306990Y-98597980D01*
X145068895Y-98597980D01*
X144973657Y-98550361D01*
X144926038Y-98502742D01*
%TO.C,F1*%
X141144666Y-96880371D02*
X140811333Y-96880371D01*
X140811333Y-97404180D02*
X140811333Y-96404180D01*
X141287523Y-96404180D01*
X142192285Y-97404180D02*
X141620857Y-97404180D01*
X141906571Y-97404180D02*
X141906571Y-96404180D01*
X141811333Y-96547038D01*
X141716095Y-96642276D01*
X141620857Y-96689895D01*
%TO.C,JP1*%
X135488466Y-74407780D02*
X135488466Y-75122066D01*
X135440847Y-75264923D01*
X135345609Y-75360161D01*
X135202752Y-75407780D01*
X135107514Y-75407780D01*
X135964657Y-75407780D02*
X135964657Y-74407780D01*
X136345609Y-74407780D01*
X136440847Y-74455400D01*
X136488466Y-74503019D01*
X136536085Y-74598257D01*
X136536085Y-74741114D01*
X136488466Y-74836352D01*
X136440847Y-74883971D01*
X136345609Y-74931590D01*
X135964657Y-74931590D01*
X137488466Y-75407780D02*
X136917038Y-75407780D01*
X137202752Y-75407780D02*
X137202752Y-74407780D01*
X137107514Y-74550638D01*
X137012276Y-74645876D01*
X136917038Y-74693495D01*
%TO.C,D1*%
X145896104Y-94102180D02*
X145896104Y-93102180D01*
X146134200Y-93102180D01*
X146277057Y-93149800D01*
X146372295Y-93245038D01*
X146419914Y-93340276D01*
X146467533Y-93530752D01*
X146467533Y-93673609D01*
X146419914Y-93864085D01*
X146372295Y-93959323D01*
X146277057Y-94054561D01*
X146134200Y-94102180D01*
X145896104Y-94102180D01*
X147419914Y-94102180D02*
X146848485Y-94102180D01*
X147134200Y-94102180D02*
X147134200Y-93102180D01*
X147038961Y-93245038D01*
X146943723Y-93340276D01*
X146848485Y-93387895D01*
%TO.C,R3*%
X135935980Y-77433466D02*
X135459790Y-77766800D01*
X135935980Y-78004895D02*
X134935980Y-78004895D01*
X134935980Y-77623942D01*
X134983600Y-77528704D01*
X135031219Y-77481085D01*
X135126457Y-77433466D01*
X135269314Y-77433466D01*
X135364552Y-77481085D01*
X135412171Y-77528704D01*
X135459790Y-77623942D01*
X135459790Y-78004895D01*
X134935980Y-77100133D02*
X134935980Y-76481085D01*
X135316933Y-76814419D01*
X135316933Y-76671561D01*
X135364552Y-76576323D01*
X135412171Y-76528704D01*
X135507409Y-76481085D01*
X135745504Y-76481085D01*
X135840742Y-76528704D01*
X135888361Y-76576323D01*
X135935980Y-76671561D01*
X135935980Y-76957276D01*
X135888361Y-77052514D01*
X135840742Y-77100133D01*
%TO.C,C1*%
X139930142Y-79008266D02*
X139977761Y-79055885D01*
X140025380Y-79198742D01*
X140025380Y-79293980D01*
X139977761Y-79436838D01*
X139882523Y-79532076D01*
X139787285Y-79579695D01*
X139596809Y-79627314D01*
X139453952Y-79627314D01*
X139263476Y-79579695D01*
X139168238Y-79532076D01*
X139073000Y-79436838D01*
X139025380Y-79293980D01*
X139025380Y-79198742D01*
X139073000Y-79055885D01*
X139120619Y-79008266D01*
X140025380Y-78055885D02*
X140025380Y-78627314D01*
X140025380Y-78341600D02*
X139025380Y-78341600D01*
X139168238Y-78436838D01*
X139263476Y-78532076D01*
X139311095Y-78627314D01*
%TO.C,R6*%
X135799533Y-73477380D02*
X135466200Y-73001190D01*
X135228104Y-73477380D02*
X135228104Y-72477380D01*
X135609057Y-72477380D01*
X135704295Y-72525000D01*
X135751914Y-72572619D01*
X135799533Y-72667857D01*
X135799533Y-72810714D01*
X135751914Y-72905952D01*
X135704295Y-72953571D01*
X135609057Y-73001190D01*
X135228104Y-73001190D01*
X136656676Y-72477380D02*
X136466200Y-72477380D01*
X136370961Y-72525000D01*
X136323342Y-72572619D01*
X136228104Y-72715476D01*
X136180485Y-72905952D01*
X136180485Y-73286904D01*
X136228104Y-73382142D01*
X136275723Y-73429761D01*
X136370961Y-73477380D01*
X136561438Y-73477380D01*
X136656676Y-73429761D01*
X136704295Y-73382142D01*
X136751914Y-73286904D01*
X136751914Y-73048809D01*
X136704295Y-72953571D01*
X136656676Y-72905952D01*
X136561438Y-72858333D01*
X136370961Y-72858333D01*
X136275723Y-72905952D01*
X136228104Y-72953571D01*
X136180485Y-73048809D01*
%TD*%
M02*
