%TF.GenerationSoftware,KiCad,Pcbnew,5.1.6-c6e7f7d~87~ubuntu18.04.1*%
%TF.CreationDate,2020-10-12T11:29:30-07:00*%
%TF.ProjectId,feather-power-supply-sw-smd-adj,66656174-6865-4722-9d70-6f7765722d73,rev?*%
%TF.SameCoordinates,Original*%
%TF.FileFunction,Copper,L2,Bot*%
%TF.FilePolarity,Positive*%
%FSLAX46Y46*%
G04 Gerber Fmt 4.6, Leading zero omitted, Abs format (unit mm)*
G04 Created by KiCad (PCBNEW 5.1.6-c6e7f7d~87~ubuntu18.04.1) date 2020-10-12 11:29:30*
%MOMM*%
%LPD*%
G01*
G04 APERTURE LIST*
%TA.AperFunction,ComponentPad*%
%ADD10O,1.700000X1.700000*%
%TD*%
%TA.AperFunction,ComponentPad*%
%ADD11R,1.700000X1.700000*%
%TD*%
%TA.AperFunction,ComponentPad*%
%ADD12R,2.600000X2.600000*%
%TD*%
%TA.AperFunction,ComponentPad*%
%ADD13C,2.600000*%
%TD*%
%TA.AperFunction,ComponentPad*%
%ADD14C,5.000000*%
%TD*%
%TA.AperFunction,ViaPad*%
%ADD15C,0.685800*%
%TD*%
%TA.AperFunction,Conductor*%
%ADD16C,0.304800*%
%TD*%
%TA.AperFunction,Conductor*%
%ADD17C,0.254000*%
%TD*%
G04 APERTURE END LIST*
D10*
%TO.P,J2,16*%
%TO.N,Net-(J2-Pad16)*%
X129565400Y-104089200D03*
%TO.P,J2,15*%
%TO.N,Net-(J2-Pad15)*%
X129565400Y-101549200D03*
%TO.P,J2,14*%
%TO.N,Net-(J2-Pad14)*%
X129565400Y-99009200D03*
%TO.P,J2,13*%
%TO.N,Net-(J2-Pad13)*%
X129565400Y-96469200D03*
%TO.P,J2,12*%
%TO.N,Net-(J2-Pad12)*%
X129565400Y-93929200D03*
%TO.P,J2,11*%
%TO.N,Net-(J2-Pad11)*%
X129565400Y-91389200D03*
%TO.P,J2,10*%
%TO.N,Net-(J2-Pad10)*%
X129565400Y-88849200D03*
%TO.P,J2,9*%
%TO.N,Net-(J2-Pad9)*%
X129565400Y-86309200D03*
%TO.P,J2,8*%
%TO.N,Net-(J2-Pad8)*%
X129565400Y-83769200D03*
%TO.P,J2,7*%
%TO.N,Net-(J2-Pad7)*%
X129565400Y-81229200D03*
%TO.P,J2,6*%
%TO.N,A1*%
X129565400Y-78689200D03*
%TO.P,J2,5*%
%TO.N,Net-(J2-Pad5)*%
X129565400Y-76149200D03*
%TO.P,J2,4*%
%TO.N,GND*%
X129565400Y-73609200D03*
%TO.P,J2,3*%
%TO.N,Net-(J2-Pad3)*%
X129565400Y-71069200D03*
%TO.P,J2,2*%
%TO.N,Net-(J2-Pad2)*%
X129565400Y-68529200D03*
D11*
%TO.P,J2,1*%
%TO.N,Net-(J2-Pad1)*%
X129565400Y-65989200D03*
%TD*%
D10*
%TO.P,J4,4*%
%TO.N,SDA*%
X137922000Y-70231000D03*
%TO.P,J4,3*%
%TO.N,SCL*%
X140462000Y-70231000D03*
%TO.P,J4,2*%
%TO.N,+5V*%
X143002000Y-70231000D03*
D11*
%TO.P,J4,1*%
%TO.N,GND*%
X145542000Y-70231000D03*
%TD*%
D12*
%TO.P,J5,1*%
%TO.N,GND*%
X137160000Y-104775000D03*
D13*
%TO.P,J5,2*%
%TO.N,VCC*%
X142160000Y-104775000D03*
%TD*%
D14*
%TO.P,H2,1*%
%TO.N,GND*%
X148615400Y-61671200D03*
%TD*%
%TO.P,H1,1*%
%TO.N,GND*%
X130810000Y-61696600D03*
%TD*%
D11*
%TO.P,J1,1*%
%TO.N,Net-(J1-Pad1)*%
X149860000Y-76200000D03*
D10*
%TO.P,J1,2*%
%TO.N,+3V3*%
X149860000Y-78740000D03*
%TO.P,J1,3*%
%TO.N,Net-(J1-Pad3)*%
X149860000Y-81280000D03*
%TO.P,J1,4*%
%TO.N,+5V*%
X149860000Y-83820000D03*
%TO.P,J1,5*%
%TO.N,Net-(J1-Pad5)*%
X149860000Y-86360000D03*
%TO.P,J1,6*%
%TO.N,Net-(J1-Pad6)*%
X149860000Y-88900000D03*
%TO.P,J1,7*%
%TO.N,Net-(J1-Pad7)*%
X149860000Y-91440000D03*
%TO.P,J1,8*%
%TO.N,Net-(J1-Pad8)*%
X149860000Y-93980000D03*
%TO.P,J1,9*%
%TO.N,Net-(J1-Pad9)*%
X149860000Y-96520000D03*
%TO.P,J1,10*%
%TO.N,Net-(J1-Pad10)*%
X149860000Y-99060000D03*
%TO.P,J1,11*%
%TO.N,SCL*%
X149860000Y-101600000D03*
%TO.P,J1,12*%
%TO.N,SDA*%
X149860000Y-104140000D03*
%TD*%
D15*
%TO.N,*%
X137223500Y-59994800D03*
X143732250Y-59994800D03*
%TO.N,GND*%
X134620000Y-59994800D03*
X135921750Y-59994800D03*
X138525250Y-59994800D03*
X142430500Y-59994800D03*
X141128750Y-59994800D03*
X145034000Y-59994800D03*
X139827000Y-59994800D03*
X149860000Y-65532000D03*
X149860000Y-67564000D03*
X149860000Y-69596000D03*
X149860000Y-71628000D03*
X149860000Y-73660000D03*
X145288000Y-108712000D03*
X146812000Y-108712000D03*
X143764000Y-108712000D03*
X139088090Y-108712000D03*
X140716000Y-108712000D03*
X134112000Y-108712000D03*
X132588000Y-108712000D03*
X135636000Y-108712000D03*
X135432800Y-75996800D03*
X140716000Y-86360000D03*
X130810000Y-72364600D03*
X136652000Y-83820000D03*
X142367000Y-76454000D03*
X138430000Y-78486000D03*
X138430000Y-79248000D03*
X136652000Y-84582000D03*
X136652000Y-85344000D03*
X136652000Y-86106000D03*
X136652000Y-86868000D03*
X136652000Y-87630000D03*
X139827000Y-88646000D03*
X139827000Y-90932000D03*
X139827000Y-91694000D03*
X139827000Y-90170000D03*
X139827000Y-89408000D03*
X139827000Y-92456000D03*
X140716000Y-84455000D03*
X141859000Y-78486000D03*
X137795000Y-93243400D03*
X132080000Y-97282000D03*
X132080000Y-99441000D03*
%TO.N,VIN_SW*%
X131445000Y-82422998D03*
X131953000Y-75946000D03*
%TD*%
D16*
%TO.N,VIN_SW*%
X131191000Y-76708000D02*
X131191000Y-82168998D01*
X131953000Y-75946000D02*
X131191000Y-76708000D01*
X131191000Y-82168998D02*
X131445000Y-82422998D01*
%TO.N,SCL*%
X141616801Y-71385801D02*
X140462000Y-70231000D01*
X146635841Y-71385801D02*
X141616801Y-71385801D01*
X147980400Y-72730360D02*
X146635841Y-71385801D01*
X149860000Y-101600000D02*
X148717000Y-101600000D01*
X147980400Y-100863400D02*
X147980400Y-72730360D01*
X148717000Y-101600000D02*
X147980400Y-100863400D01*
%TO.N,SDA*%
X139979400Y-72288400D02*
X137922000Y-70231000D01*
X146354800Y-72288400D02*
X139979400Y-72288400D01*
X147269200Y-73202800D02*
X146354800Y-72288400D01*
X147269200Y-102565200D02*
X147269200Y-73202800D01*
X149860000Y-104140000D02*
X148844000Y-104140000D01*
X148844000Y-104140000D02*
X147269200Y-102565200D01*
%TD*%
D17*
%TO.N,GND*%
G36*
X136581988Y-59651905D02*
G01*
X136527419Y-59783646D01*
X136499600Y-59923502D01*
X136499600Y-60066098D01*
X136527419Y-60205954D01*
X136581988Y-60337695D01*
X136661210Y-60456260D01*
X136762040Y-60557090D01*
X136880605Y-60636312D01*
X137012346Y-60690881D01*
X137152202Y-60718700D01*
X137294798Y-60718700D01*
X137434654Y-60690881D01*
X137566395Y-60636312D01*
X137684960Y-60557090D01*
X137785790Y-60456260D01*
X137865012Y-60337695D01*
X137919581Y-60205954D01*
X137947400Y-60066098D01*
X137947400Y-59923502D01*
X137919581Y-59783646D01*
X137865012Y-59651905D01*
X137788369Y-59537200D01*
X143167381Y-59537200D01*
X143090738Y-59651905D01*
X143036169Y-59783646D01*
X143008350Y-59923502D01*
X143008350Y-60066098D01*
X143036169Y-60205954D01*
X143090738Y-60337695D01*
X143169960Y-60456260D01*
X143270790Y-60557090D01*
X143389355Y-60636312D01*
X143521096Y-60690881D01*
X143660952Y-60718700D01*
X143803548Y-60718700D01*
X143943404Y-60690881D01*
X144075145Y-60636312D01*
X144193710Y-60557090D01*
X144294540Y-60456260D01*
X144373762Y-60337695D01*
X144428331Y-60205954D01*
X144456150Y-60066098D01*
X144456150Y-59923502D01*
X144428331Y-59783646D01*
X144373762Y-59651905D01*
X144297119Y-59537200D01*
X146301792Y-59537200D01*
X146412250Y-59647658D01*
X145994282Y-59923827D01*
X145703751Y-60468757D01*
X145525113Y-61059896D01*
X145465232Y-61674528D01*
X145526410Y-62289031D01*
X145706297Y-62879792D01*
X145994282Y-63418573D01*
X146412252Y-63694743D01*
X148435795Y-61671200D01*
X148421653Y-61657058D01*
X148601258Y-61477453D01*
X148615400Y-61491595D01*
X150024590Y-60082405D01*
X150117717Y-60158357D01*
X150203796Y-60262409D01*
X148795005Y-61671200D01*
X148809148Y-61685343D01*
X148629543Y-61864948D01*
X148615400Y-61850805D01*
X146591857Y-63874348D01*
X146868027Y-64292318D01*
X147412957Y-64582849D01*
X148004096Y-64761487D01*
X148618728Y-64821368D01*
X149233231Y-64760190D01*
X149823992Y-64580303D01*
X150362773Y-64292318D01*
X150638942Y-63874350D01*
X150749400Y-63984808D01*
X150749400Y-74971037D01*
X150710000Y-74967157D01*
X149010000Y-74967157D01*
X148935311Y-74974513D01*
X148863492Y-74996299D01*
X148797304Y-75031678D01*
X148739289Y-75079289D01*
X148691678Y-75137304D01*
X148656299Y-75203492D01*
X148634513Y-75275311D01*
X148627157Y-75350000D01*
X148627157Y-77050000D01*
X148634513Y-77124689D01*
X148656299Y-77196508D01*
X148691678Y-77262696D01*
X148739289Y-77320711D01*
X148797304Y-77368322D01*
X148863492Y-77403701D01*
X148935311Y-77425487D01*
X149010000Y-77432843D01*
X150710000Y-77432843D01*
X150749400Y-77428963D01*
X150749400Y-77888503D01*
X150644717Y-77783820D01*
X150443097Y-77649102D01*
X150219069Y-77556307D01*
X149981243Y-77509000D01*
X149738757Y-77509000D01*
X149500931Y-77556307D01*
X149276903Y-77649102D01*
X149075283Y-77783820D01*
X148903820Y-77955283D01*
X148769102Y-78156903D01*
X148676307Y-78380931D01*
X148629000Y-78618757D01*
X148629000Y-78861243D01*
X148676307Y-79099069D01*
X148769102Y-79323097D01*
X148903820Y-79524717D01*
X149075283Y-79696180D01*
X149276903Y-79830898D01*
X149500931Y-79923693D01*
X149738757Y-79971000D01*
X149981243Y-79971000D01*
X150219069Y-79923693D01*
X150443097Y-79830898D01*
X150644717Y-79696180D01*
X150749400Y-79591497D01*
X150749400Y-80428503D01*
X150644717Y-80323820D01*
X150443097Y-80189102D01*
X150219069Y-80096307D01*
X149981243Y-80049000D01*
X149738757Y-80049000D01*
X149500931Y-80096307D01*
X149276903Y-80189102D01*
X149075283Y-80323820D01*
X148903820Y-80495283D01*
X148769102Y-80696903D01*
X148676307Y-80920931D01*
X148629000Y-81158757D01*
X148629000Y-81401243D01*
X148676307Y-81639069D01*
X148769102Y-81863097D01*
X148903820Y-82064717D01*
X149075283Y-82236180D01*
X149276903Y-82370898D01*
X149500931Y-82463693D01*
X149738757Y-82511000D01*
X149981243Y-82511000D01*
X150219069Y-82463693D01*
X150443097Y-82370898D01*
X150644717Y-82236180D01*
X150749400Y-82131497D01*
X150749400Y-82968503D01*
X150644717Y-82863820D01*
X150443097Y-82729102D01*
X150219069Y-82636307D01*
X149981243Y-82589000D01*
X149738757Y-82589000D01*
X149500931Y-82636307D01*
X149276903Y-82729102D01*
X149075283Y-82863820D01*
X148903820Y-83035283D01*
X148769102Y-83236903D01*
X148676307Y-83460931D01*
X148629000Y-83698757D01*
X148629000Y-83941243D01*
X148676307Y-84179069D01*
X148769102Y-84403097D01*
X148903820Y-84604717D01*
X149075283Y-84776180D01*
X149276903Y-84910898D01*
X149500931Y-85003693D01*
X149738757Y-85051000D01*
X149981243Y-85051000D01*
X150219069Y-85003693D01*
X150443097Y-84910898D01*
X150644717Y-84776180D01*
X150749401Y-84671496D01*
X150749401Y-85508504D01*
X150644717Y-85403820D01*
X150443097Y-85269102D01*
X150219069Y-85176307D01*
X149981243Y-85129000D01*
X149738757Y-85129000D01*
X149500931Y-85176307D01*
X149276903Y-85269102D01*
X149075283Y-85403820D01*
X148903820Y-85575283D01*
X148769102Y-85776903D01*
X148676307Y-86000931D01*
X148629000Y-86238757D01*
X148629000Y-86481243D01*
X148676307Y-86719069D01*
X148769102Y-86943097D01*
X148903820Y-87144717D01*
X149075283Y-87316180D01*
X149276903Y-87450898D01*
X149500931Y-87543693D01*
X149738757Y-87591000D01*
X149981243Y-87591000D01*
X150219069Y-87543693D01*
X150443097Y-87450898D01*
X150644717Y-87316180D01*
X150749401Y-87211496D01*
X150749401Y-88048504D01*
X150644717Y-87943820D01*
X150443097Y-87809102D01*
X150219069Y-87716307D01*
X149981243Y-87669000D01*
X149738757Y-87669000D01*
X149500931Y-87716307D01*
X149276903Y-87809102D01*
X149075283Y-87943820D01*
X148903820Y-88115283D01*
X148769102Y-88316903D01*
X148676307Y-88540931D01*
X148629000Y-88778757D01*
X148629000Y-89021243D01*
X148676307Y-89259069D01*
X148769102Y-89483097D01*
X148903820Y-89684717D01*
X149075283Y-89856180D01*
X149276903Y-89990898D01*
X149500931Y-90083693D01*
X149738757Y-90131000D01*
X149981243Y-90131000D01*
X150219069Y-90083693D01*
X150443097Y-89990898D01*
X150644717Y-89856180D01*
X150749401Y-89751496D01*
X150749401Y-90588504D01*
X150644717Y-90483820D01*
X150443097Y-90349102D01*
X150219069Y-90256307D01*
X149981243Y-90209000D01*
X149738757Y-90209000D01*
X149500931Y-90256307D01*
X149276903Y-90349102D01*
X149075283Y-90483820D01*
X148903820Y-90655283D01*
X148769102Y-90856903D01*
X148676307Y-91080931D01*
X148629000Y-91318757D01*
X148629000Y-91561243D01*
X148676307Y-91799069D01*
X148769102Y-92023097D01*
X148903820Y-92224717D01*
X149075283Y-92396180D01*
X149276903Y-92530898D01*
X149500931Y-92623693D01*
X149738757Y-92671000D01*
X149981243Y-92671000D01*
X150219069Y-92623693D01*
X150443097Y-92530898D01*
X150644717Y-92396180D01*
X150749401Y-92291496D01*
X150749401Y-93128504D01*
X150644717Y-93023820D01*
X150443097Y-92889102D01*
X150219069Y-92796307D01*
X149981243Y-92749000D01*
X149738757Y-92749000D01*
X149500931Y-92796307D01*
X149276903Y-92889102D01*
X149075283Y-93023820D01*
X148903820Y-93195283D01*
X148769102Y-93396903D01*
X148676307Y-93620931D01*
X148629000Y-93858757D01*
X148629000Y-94101243D01*
X148676307Y-94339069D01*
X148769102Y-94563097D01*
X148903820Y-94764717D01*
X149075283Y-94936180D01*
X149276903Y-95070898D01*
X149500931Y-95163693D01*
X149738757Y-95211000D01*
X149981243Y-95211000D01*
X150219069Y-95163693D01*
X150443097Y-95070898D01*
X150644717Y-94936180D01*
X150749401Y-94831496D01*
X150749401Y-95668504D01*
X150644717Y-95563820D01*
X150443097Y-95429102D01*
X150219069Y-95336307D01*
X149981243Y-95289000D01*
X149738757Y-95289000D01*
X149500931Y-95336307D01*
X149276903Y-95429102D01*
X149075283Y-95563820D01*
X148903820Y-95735283D01*
X148769102Y-95936903D01*
X148676307Y-96160931D01*
X148629000Y-96398757D01*
X148629000Y-96641243D01*
X148676307Y-96879069D01*
X148769102Y-97103097D01*
X148903820Y-97304717D01*
X149075283Y-97476180D01*
X149276903Y-97610898D01*
X149500931Y-97703693D01*
X149738757Y-97751000D01*
X149981243Y-97751000D01*
X150219069Y-97703693D01*
X150443097Y-97610898D01*
X150644717Y-97476180D01*
X150749401Y-97371496D01*
X150749401Y-98208504D01*
X150644717Y-98103820D01*
X150443097Y-97969102D01*
X150219069Y-97876307D01*
X149981243Y-97829000D01*
X149738757Y-97829000D01*
X149500931Y-97876307D01*
X149276903Y-97969102D01*
X149075283Y-98103820D01*
X148903820Y-98275283D01*
X148769102Y-98476903D01*
X148676307Y-98700931D01*
X148629000Y-98938757D01*
X148629000Y-99181243D01*
X148676307Y-99419069D01*
X148769102Y-99643097D01*
X148903820Y-99844717D01*
X149075283Y-100016180D01*
X149276903Y-100150898D01*
X149500931Y-100243693D01*
X149738757Y-100291000D01*
X149981243Y-100291000D01*
X150219069Y-100243693D01*
X150443097Y-100150898D01*
X150644717Y-100016180D01*
X150749401Y-99911496D01*
X150749401Y-100748504D01*
X150644717Y-100643820D01*
X150443097Y-100509102D01*
X150219069Y-100416307D01*
X149981243Y-100369000D01*
X149738757Y-100369000D01*
X149500931Y-100416307D01*
X149276903Y-100509102D01*
X149075283Y-100643820D01*
X148903820Y-100815283D01*
X148816824Y-100945483D01*
X148513800Y-100642459D01*
X148513800Y-72756554D01*
X148516380Y-72730360D01*
X148506081Y-72625796D01*
X148494063Y-72586175D01*
X148475581Y-72525249D01*
X148426051Y-72432585D01*
X148359395Y-72351365D01*
X148339045Y-72334664D01*
X147031537Y-71027156D01*
X147029767Y-71024999D01*
X147027000Y-70516750D01*
X146868250Y-70358000D01*
X145669000Y-70358000D01*
X145669000Y-70378000D01*
X145415000Y-70378000D01*
X145415000Y-70358000D01*
X145395000Y-70358000D01*
X145395000Y-70104000D01*
X145415000Y-70104000D01*
X145415000Y-68904750D01*
X145669000Y-68904750D01*
X145669000Y-70104000D01*
X146868250Y-70104000D01*
X147027000Y-69945250D01*
X147030072Y-69381000D01*
X147017812Y-69256518D01*
X146981502Y-69136820D01*
X146922537Y-69026506D01*
X146843185Y-68929815D01*
X146746494Y-68850463D01*
X146636180Y-68791498D01*
X146516482Y-68755188D01*
X146392000Y-68742928D01*
X145827750Y-68746000D01*
X145669000Y-68904750D01*
X145415000Y-68904750D01*
X145256250Y-68746000D01*
X144692000Y-68742928D01*
X144567518Y-68755188D01*
X144447820Y-68791498D01*
X144337506Y-68850463D01*
X144240815Y-68929815D01*
X144161463Y-69026506D01*
X144102498Y-69136820D01*
X144066188Y-69256518D01*
X144053928Y-69381000D01*
X144055073Y-69591294D01*
X143958180Y-69446283D01*
X143786717Y-69274820D01*
X143585097Y-69140102D01*
X143361069Y-69047307D01*
X143123243Y-69000000D01*
X142880757Y-69000000D01*
X142642931Y-69047307D01*
X142418903Y-69140102D01*
X142217283Y-69274820D01*
X142045820Y-69446283D01*
X141911102Y-69647903D01*
X141818307Y-69871931D01*
X141771000Y-70109757D01*
X141771000Y-70352243D01*
X141818307Y-70590069D01*
X141911102Y-70814097D01*
X141936696Y-70852401D01*
X141837743Y-70852401D01*
X141625108Y-70639766D01*
X141645693Y-70590069D01*
X141693000Y-70352243D01*
X141693000Y-70109757D01*
X141645693Y-69871931D01*
X141552898Y-69647903D01*
X141418180Y-69446283D01*
X141246717Y-69274820D01*
X141045097Y-69140102D01*
X140821069Y-69047307D01*
X140583243Y-69000000D01*
X140340757Y-69000000D01*
X140102931Y-69047307D01*
X139878903Y-69140102D01*
X139677283Y-69274820D01*
X139505820Y-69446283D01*
X139371102Y-69647903D01*
X139278307Y-69871931D01*
X139231000Y-70109757D01*
X139231000Y-70352243D01*
X139278307Y-70590069D01*
X139371102Y-70814097D01*
X139505820Y-71015717D01*
X139677283Y-71187180D01*
X139878903Y-71321898D01*
X140102931Y-71414693D01*
X140340757Y-71462000D01*
X140583243Y-71462000D01*
X140821069Y-71414693D01*
X140870766Y-71394108D01*
X141221110Y-71744452D01*
X141229767Y-71755000D01*
X140200342Y-71755000D01*
X139085108Y-70639766D01*
X139105693Y-70590069D01*
X139153000Y-70352243D01*
X139153000Y-70109757D01*
X139105693Y-69871931D01*
X139012898Y-69647903D01*
X138878180Y-69446283D01*
X138706717Y-69274820D01*
X138505097Y-69140102D01*
X138281069Y-69047307D01*
X138043243Y-69000000D01*
X137800757Y-69000000D01*
X137562931Y-69047307D01*
X137338903Y-69140102D01*
X137137283Y-69274820D01*
X136965820Y-69446283D01*
X136831102Y-69647903D01*
X136738307Y-69871931D01*
X136691000Y-70109757D01*
X136691000Y-70352243D01*
X136738307Y-70590069D01*
X136831102Y-70814097D01*
X136965820Y-71015717D01*
X137137283Y-71187180D01*
X137338903Y-71321898D01*
X137562931Y-71414693D01*
X137800757Y-71462000D01*
X138043243Y-71462000D01*
X138281069Y-71414693D01*
X138330766Y-71394108D01*
X139583709Y-72647051D01*
X139600405Y-72667395D01*
X139681625Y-72734051D01*
X139774289Y-72783581D01*
X139874835Y-72814081D01*
X139953205Y-72821800D01*
X139953213Y-72821800D01*
X139979400Y-72824379D01*
X140005587Y-72821800D01*
X146133859Y-72821800D01*
X146735801Y-73423743D01*
X146735800Y-102539013D01*
X146733221Y-102565200D01*
X146735800Y-102591387D01*
X146735800Y-102591394D01*
X146743519Y-102669764D01*
X146774019Y-102770310D01*
X146823549Y-102862975D01*
X146890205Y-102944195D01*
X146910555Y-102960896D01*
X148448304Y-104498645D01*
X148465005Y-104518995D01*
X148546225Y-104585651D01*
X148638889Y-104635181D01*
X148739435Y-104665681D01*
X148745570Y-104666285D01*
X148769102Y-104723097D01*
X148903820Y-104924717D01*
X149075283Y-105096180D01*
X149276903Y-105230898D01*
X149500931Y-105323693D01*
X149738757Y-105371000D01*
X149981243Y-105371000D01*
X150219069Y-105323693D01*
X150443097Y-105230898D01*
X150644717Y-105096180D01*
X150749401Y-104991496D01*
X150749401Y-106863336D01*
X150697174Y-107395986D01*
X150548250Y-107889248D01*
X150306354Y-108344185D01*
X149980702Y-108743475D01*
X149583699Y-109071904D01*
X149130464Y-109316967D01*
X148638258Y-109469330D01*
X148106700Y-109525200D01*
X131109253Y-109525200D01*
X130625948Y-109477812D01*
X130180147Y-109343216D01*
X129768979Y-109124594D01*
X129408105Y-108830273D01*
X129111273Y-108471465D01*
X128889785Y-108061833D01*
X128752082Y-107616985D01*
X128701400Y-107134780D01*
X128701400Y-106839711D01*
X129079000Y-106839711D01*
X129079000Y-107180689D01*
X129145521Y-107515114D01*
X129276007Y-107830136D01*
X129465444Y-108113648D01*
X129706552Y-108354756D01*
X129990064Y-108544193D01*
X130305086Y-108674679D01*
X130639511Y-108741200D01*
X130980489Y-108741200D01*
X131314914Y-108674679D01*
X131629936Y-108544193D01*
X131913448Y-108354756D01*
X132154556Y-108113648D01*
X132343993Y-107830136D01*
X132474479Y-107515114D01*
X132541000Y-107180689D01*
X132541000Y-106839711D01*
X146884400Y-106839711D01*
X146884400Y-107180689D01*
X146950921Y-107515114D01*
X147081407Y-107830136D01*
X147270844Y-108113648D01*
X147511952Y-108354756D01*
X147795464Y-108544193D01*
X148110486Y-108674679D01*
X148444911Y-108741200D01*
X148785889Y-108741200D01*
X149120314Y-108674679D01*
X149435336Y-108544193D01*
X149718848Y-108354756D01*
X149959956Y-108113648D01*
X150149393Y-107830136D01*
X150279879Y-107515114D01*
X150346400Y-107180689D01*
X150346400Y-106839711D01*
X150279879Y-106505286D01*
X150149393Y-106190264D01*
X149959956Y-105906752D01*
X149718848Y-105665644D01*
X149435336Y-105476207D01*
X149120314Y-105345721D01*
X148785889Y-105279200D01*
X148444911Y-105279200D01*
X148110486Y-105345721D01*
X147795464Y-105476207D01*
X147511952Y-105665644D01*
X147270844Y-105906752D01*
X147081407Y-106190264D01*
X146950921Y-106505286D01*
X146884400Y-106839711D01*
X132541000Y-106839711D01*
X132474479Y-106505286D01*
X132343993Y-106190264D01*
X132266976Y-106075000D01*
X135221928Y-106075000D01*
X135234188Y-106199482D01*
X135270498Y-106319180D01*
X135329463Y-106429494D01*
X135408815Y-106526185D01*
X135505506Y-106605537D01*
X135615820Y-106664502D01*
X135735518Y-106700812D01*
X135860000Y-106713072D01*
X136874250Y-106710000D01*
X137033000Y-106551250D01*
X137033000Y-104902000D01*
X137287000Y-104902000D01*
X137287000Y-106551250D01*
X137445750Y-106710000D01*
X138460000Y-106713072D01*
X138584482Y-106700812D01*
X138704180Y-106664502D01*
X138814494Y-106605537D01*
X138911185Y-106526185D01*
X138990537Y-106429494D01*
X139049502Y-106319180D01*
X139085812Y-106199482D01*
X139098072Y-106075000D01*
X139095000Y-105060750D01*
X138936250Y-104902000D01*
X137287000Y-104902000D01*
X137033000Y-104902000D01*
X135383750Y-104902000D01*
X135225000Y-105060750D01*
X135221928Y-106075000D01*
X132266976Y-106075000D01*
X132154556Y-105906752D01*
X131913448Y-105665644D01*
X131629936Y-105476207D01*
X131314914Y-105345721D01*
X130980489Y-105279200D01*
X130639511Y-105279200D01*
X130305086Y-105345721D01*
X129990064Y-105476207D01*
X129706552Y-105665644D01*
X129465444Y-105906752D01*
X129276007Y-106190264D01*
X129145521Y-106505286D01*
X129079000Y-106839711D01*
X128701400Y-106839711D01*
X128701400Y-104966097D01*
X128780683Y-105045380D01*
X128982303Y-105180098D01*
X129206331Y-105272893D01*
X129444157Y-105320200D01*
X129686643Y-105320200D01*
X129924469Y-105272893D01*
X130148497Y-105180098D01*
X130350117Y-105045380D01*
X130521580Y-104873917D01*
X130656298Y-104672297D01*
X130749093Y-104448269D01*
X130796400Y-104210443D01*
X130796400Y-103967957D01*
X130749093Y-103730131D01*
X130656298Y-103506103D01*
X130635516Y-103475000D01*
X135221928Y-103475000D01*
X135225000Y-104489250D01*
X135383750Y-104648000D01*
X137033000Y-104648000D01*
X137033000Y-102998750D01*
X137287000Y-102998750D01*
X137287000Y-104648000D01*
X138936250Y-104648000D01*
X138974814Y-104609436D01*
X140479000Y-104609436D01*
X140479000Y-104940564D01*
X140543600Y-105265330D01*
X140670317Y-105571252D01*
X140854282Y-105846575D01*
X141088425Y-106080718D01*
X141363748Y-106264683D01*
X141669670Y-106391400D01*
X141994436Y-106456000D01*
X142325564Y-106456000D01*
X142650330Y-106391400D01*
X142956252Y-106264683D01*
X143231575Y-106080718D01*
X143465718Y-105846575D01*
X143649683Y-105571252D01*
X143776400Y-105265330D01*
X143841000Y-104940564D01*
X143841000Y-104609436D01*
X143776400Y-104284670D01*
X143649683Y-103978748D01*
X143465718Y-103703425D01*
X143231575Y-103469282D01*
X142956252Y-103285317D01*
X142650330Y-103158600D01*
X142325564Y-103094000D01*
X141994436Y-103094000D01*
X141669670Y-103158600D01*
X141363748Y-103285317D01*
X141088425Y-103469282D01*
X140854282Y-103703425D01*
X140670317Y-103978748D01*
X140543600Y-104284670D01*
X140479000Y-104609436D01*
X138974814Y-104609436D01*
X139095000Y-104489250D01*
X139098072Y-103475000D01*
X139085812Y-103350518D01*
X139049502Y-103230820D01*
X138990537Y-103120506D01*
X138911185Y-103023815D01*
X138814494Y-102944463D01*
X138704180Y-102885498D01*
X138584482Y-102849188D01*
X138460000Y-102836928D01*
X137445750Y-102840000D01*
X137287000Y-102998750D01*
X137033000Y-102998750D01*
X136874250Y-102840000D01*
X135860000Y-102836928D01*
X135735518Y-102849188D01*
X135615820Y-102885498D01*
X135505506Y-102944463D01*
X135408815Y-103023815D01*
X135329463Y-103120506D01*
X135270498Y-103230820D01*
X135234188Y-103350518D01*
X135221928Y-103475000D01*
X130635516Y-103475000D01*
X130521580Y-103304483D01*
X130350117Y-103133020D01*
X130148497Y-102998302D01*
X129924469Y-102905507D01*
X129686643Y-102858200D01*
X129444157Y-102858200D01*
X129206331Y-102905507D01*
X128982303Y-102998302D01*
X128780683Y-103133020D01*
X128701400Y-103212303D01*
X128701400Y-102426097D01*
X128780683Y-102505380D01*
X128982303Y-102640098D01*
X129206331Y-102732893D01*
X129444157Y-102780200D01*
X129686643Y-102780200D01*
X129924469Y-102732893D01*
X130148497Y-102640098D01*
X130350117Y-102505380D01*
X130521580Y-102333917D01*
X130656298Y-102132297D01*
X130749093Y-101908269D01*
X130796400Y-101670443D01*
X130796400Y-101427957D01*
X130749093Y-101190131D01*
X130656298Y-100966103D01*
X130521580Y-100764483D01*
X130350117Y-100593020D01*
X130148497Y-100458302D01*
X129924469Y-100365507D01*
X129686643Y-100318200D01*
X129444157Y-100318200D01*
X129206331Y-100365507D01*
X128982303Y-100458302D01*
X128780683Y-100593020D01*
X128701400Y-100672303D01*
X128701400Y-99886097D01*
X128780683Y-99965380D01*
X128982303Y-100100098D01*
X129206331Y-100192893D01*
X129444157Y-100240200D01*
X129686643Y-100240200D01*
X129924469Y-100192893D01*
X130148497Y-100100098D01*
X130350117Y-99965380D01*
X130521580Y-99793917D01*
X130656298Y-99592297D01*
X130749093Y-99368269D01*
X130796400Y-99130443D01*
X130796400Y-98887957D01*
X130749093Y-98650131D01*
X130656298Y-98426103D01*
X130521580Y-98224483D01*
X130350117Y-98053020D01*
X130148497Y-97918302D01*
X129924469Y-97825507D01*
X129686643Y-97778200D01*
X129444157Y-97778200D01*
X129206331Y-97825507D01*
X128982303Y-97918302D01*
X128780683Y-98053020D01*
X128701400Y-98132303D01*
X128701400Y-97346097D01*
X128780683Y-97425380D01*
X128982303Y-97560098D01*
X129206331Y-97652893D01*
X129444157Y-97700200D01*
X129686643Y-97700200D01*
X129924469Y-97652893D01*
X130148497Y-97560098D01*
X130350117Y-97425380D01*
X130521580Y-97253917D01*
X130656298Y-97052297D01*
X130749093Y-96828269D01*
X130796400Y-96590443D01*
X130796400Y-96347957D01*
X130749093Y-96110131D01*
X130656298Y-95886103D01*
X130521580Y-95684483D01*
X130350117Y-95513020D01*
X130148497Y-95378302D01*
X129924469Y-95285507D01*
X129686643Y-95238200D01*
X129444157Y-95238200D01*
X129206331Y-95285507D01*
X128982303Y-95378302D01*
X128780683Y-95513020D01*
X128701400Y-95592303D01*
X128701400Y-94806097D01*
X128780683Y-94885380D01*
X128982303Y-95020098D01*
X129206331Y-95112893D01*
X129444157Y-95160200D01*
X129686643Y-95160200D01*
X129924469Y-95112893D01*
X130148497Y-95020098D01*
X130350117Y-94885380D01*
X130521580Y-94713917D01*
X130656298Y-94512297D01*
X130749093Y-94288269D01*
X130796400Y-94050443D01*
X130796400Y-93807957D01*
X130749093Y-93570131D01*
X130656298Y-93346103D01*
X130521580Y-93144483D01*
X130350117Y-92973020D01*
X130148497Y-92838302D01*
X129924469Y-92745507D01*
X129686643Y-92698200D01*
X129444157Y-92698200D01*
X129206331Y-92745507D01*
X128982303Y-92838302D01*
X128780683Y-92973020D01*
X128701400Y-93052303D01*
X128701400Y-92266097D01*
X128780683Y-92345380D01*
X128982303Y-92480098D01*
X129206331Y-92572893D01*
X129444157Y-92620200D01*
X129686643Y-92620200D01*
X129924469Y-92572893D01*
X130148497Y-92480098D01*
X130350117Y-92345380D01*
X130521580Y-92173917D01*
X130656298Y-91972297D01*
X130749093Y-91748269D01*
X130796400Y-91510443D01*
X130796400Y-91267957D01*
X130749093Y-91030131D01*
X130656298Y-90806103D01*
X130521580Y-90604483D01*
X130350117Y-90433020D01*
X130148497Y-90298302D01*
X129924469Y-90205507D01*
X129686643Y-90158200D01*
X129444157Y-90158200D01*
X129206331Y-90205507D01*
X128982303Y-90298302D01*
X128780683Y-90433020D01*
X128701400Y-90512303D01*
X128701400Y-89726097D01*
X128780683Y-89805380D01*
X128982303Y-89940098D01*
X129206331Y-90032893D01*
X129444157Y-90080200D01*
X129686643Y-90080200D01*
X129924469Y-90032893D01*
X130148497Y-89940098D01*
X130350117Y-89805380D01*
X130521580Y-89633917D01*
X130656298Y-89432297D01*
X130749093Y-89208269D01*
X130796400Y-88970443D01*
X130796400Y-88727957D01*
X130749093Y-88490131D01*
X130656298Y-88266103D01*
X130521580Y-88064483D01*
X130350117Y-87893020D01*
X130148497Y-87758302D01*
X129924469Y-87665507D01*
X129686643Y-87618200D01*
X129444157Y-87618200D01*
X129206331Y-87665507D01*
X128982303Y-87758302D01*
X128780683Y-87893020D01*
X128701400Y-87972303D01*
X128701400Y-87186097D01*
X128780683Y-87265380D01*
X128982303Y-87400098D01*
X129206331Y-87492893D01*
X129444157Y-87540200D01*
X129686643Y-87540200D01*
X129924469Y-87492893D01*
X130148497Y-87400098D01*
X130350117Y-87265380D01*
X130521580Y-87093917D01*
X130656298Y-86892297D01*
X130749093Y-86668269D01*
X130796400Y-86430443D01*
X130796400Y-86187957D01*
X130749093Y-85950131D01*
X130656298Y-85726103D01*
X130521580Y-85524483D01*
X130350117Y-85353020D01*
X130148497Y-85218302D01*
X129924469Y-85125507D01*
X129686643Y-85078200D01*
X129444157Y-85078200D01*
X129206331Y-85125507D01*
X128982303Y-85218302D01*
X128780683Y-85353020D01*
X128701400Y-85432303D01*
X128701400Y-84646097D01*
X128780683Y-84725380D01*
X128982303Y-84860098D01*
X129206331Y-84952893D01*
X129444157Y-85000200D01*
X129686643Y-85000200D01*
X129924469Y-84952893D01*
X130148497Y-84860098D01*
X130350117Y-84725380D01*
X130521580Y-84553917D01*
X130656298Y-84352297D01*
X130749093Y-84128269D01*
X130796400Y-83890443D01*
X130796400Y-83647957D01*
X130749093Y-83410131D01*
X130656298Y-83186103D01*
X130521580Y-82984483D01*
X130350117Y-82813020D01*
X130148497Y-82678302D01*
X129924469Y-82585507D01*
X129686643Y-82538200D01*
X129444157Y-82538200D01*
X129206331Y-82585507D01*
X128982303Y-82678302D01*
X128780683Y-82813020D01*
X128701400Y-82892303D01*
X128701400Y-82106097D01*
X128780683Y-82185380D01*
X128982303Y-82320098D01*
X129206331Y-82412893D01*
X129444157Y-82460200D01*
X129686643Y-82460200D01*
X129924469Y-82412893D01*
X130148497Y-82320098D01*
X130350117Y-82185380D01*
X130521580Y-82013917D01*
X130656298Y-81812297D01*
X130657601Y-81809151D01*
X130657601Y-82142801D01*
X130655021Y-82168998D01*
X130665319Y-82273562D01*
X130695819Y-82374108D01*
X130721100Y-82421405D01*
X130721100Y-82494296D01*
X130748919Y-82634152D01*
X130803488Y-82765893D01*
X130882710Y-82884458D01*
X130983540Y-82985288D01*
X131102105Y-83064510D01*
X131233846Y-83119079D01*
X131373702Y-83146898D01*
X131516298Y-83146898D01*
X131656154Y-83119079D01*
X131787895Y-83064510D01*
X131906460Y-82985288D01*
X132007290Y-82884458D01*
X132086512Y-82765893D01*
X132141081Y-82634152D01*
X132168900Y-82494296D01*
X132168900Y-82351700D01*
X132141081Y-82211844D01*
X132086512Y-82080103D01*
X132007290Y-81961538D01*
X131906460Y-81860708D01*
X131787895Y-81781486D01*
X131724400Y-81755185D01*
X131724400Y-76928941D01*
X131983441Y-76669900D01*
X132024298Y-76669900D01*
X132164154Y-76642081D01*
X132295895Y-76587512D01*
X132414460Y-76508290D01*
X132515290Y-76407460D01*
X132594512Y-76288895D01*
X132649081Y-76157154D01*
X132676900Y-76017298D01*
X132676900Y-75874702D01*
X132649081Y-75734846D01*
X132594512Y-75603105D01*
X132515290Y-75484540D01*
X132414460Y-75383710D01*
X132295895Y-75304488D01*
X132164154Y-75249919D01*
X132024298Y-75222100D01*
X131881702Y-75222100D01*
X131741846Y-75249919D01*
X131610105Y-75304488D01*
X131491540Y-75383710D01*
X131390710Y-75484540D01*
X131311488Y-75603105D01*
X131256919Y-75734846D01*
X131229100Y-75874702D01*
X131229100Y-75915559D01*
X130832355Y-76312304D01*
X130812005Y-76329005D01*
X130776032Y-76372838D01*
X130796400Y-76270443D01*
X130796400Y-76027957D01*
X130749093Y-75790131D01*
X130656298Y-75566103D01*
X130521580Y-75364483D01*
X130350117Y-75193020D01*
X130148497Y-75058302D01*
X130034232Y-75010972D01*
X130196652Y-74953357D01*
X130446755Y-74804378D01*
X130662988Y-74609469D01*
X130837041Y-74376120D01*
X130962225Y-74113299D01*
X131006876Y-73966090D01*
X130885555Y-73736200D01*
X129692400Y-73736200D01*
X129692400Y-73756200D01*
X129438400Y-73756200D01*
X129438400Y-73736200D01*
X129418400Y-73736200D01*
X129418400Y-73482200D01*
X129438400Y-73482200D01*
X129438400Y-73462200D01*
X129692400Y-73462200D01*
X129692400Y-73482200D01*
X130885555Y-73482200D01*
X131006876Y-73252310D01*
X130962225Y-73105101D01*
X130837041Y-72842280D01*
X130662988Y-72608931D01*
X130446755Y-72414022D01*
X130196652Y-72265043D01*
X130034232Y-72207428D01*
X130148497Y-72160098D01*
X130350117Y-72025380D01*
X130521580Y-71853917D01*
X130656298Y-71652297D01*
X130749093Y-71428269D01*
X130796400Y-71190443D01*
X130796400Y-70947957D01*
X130749093Y-70710131D01*
X130656298Y-70486103D01*
X130521580Y-70284483D01*
X130350117Y-70113020D01*
X130148497Y-69978302D01*
X129924469Y-69885507D01*
X129686643Y-69838200D01*
X129444157Y-69838200D01*
X129206331Y-69885507D01*
X128982303Y-69978302D01*
X128780683Y-70113020D01*
X128701400Y-70192303D01*
X128701400Y-69406097D01*
X128780683Y-69485380D01*
X128982303Y-69620098D01*
X129206331Y-69712893D01*
X129444157Y-69760200D01*
X129686643Y-69760200D01*
X129924469Y-69712893D01*
X130148497Y-69620098D01*
X130350117Y-69485380D01*
X130521580Y-69313917D01*
X130656298Y-69112297D01*
X130749093Y-68888269D01*
X130796400Y-68650443D01*
X130796400Y-68407957D01*
X130749093Y-68170131D01*
X130656298Y-67946103D01*
X130521580Y-67744483D01*
X130350117Y-67573020D01*
X130148497Y-67438302D01*
X129924469Y-67345507D01*
X129686643Y-67298200D01*
X129444157Y-67298200D01*
X129206331Y-67345507D01*
X128982303Y-67438302D01*
X128780683Y-67573020D01*
X128701400Y-67652303D01*
X128701400Y-67220664D01*
X128715400Y-67222043D01*
X130415400Y-67222043D01*
X130490089Y-67214687D01*
X130561908Y-67192901D01*
X130628096Y-67157522D01*
X130686111Y-67109911D01*
X130733722Y-67051896D01*
X130769101Y-66985708D01*
X130790887Y-66913889D01*
X130798243Y-66839200D01*
X130798243Y-65139200D01*
X130790887Y-65064511D01*
X130769101Y-64992692D01*
X130733722Y-64926504D01*
X130686111Y-64868489D01*
X130638941Y-64829778D01*
X130813328Y-64846768D01*
X131427831Y-64785590D01*
X132018592Y-64605703D01*
X132557373Y-64317718D01*
X132833543Y-63899748D01*
X130810000Y-61876205D01*
X130795858Y-61890348D01*
X130616253Y-61710743D01*
X130630395Y-61696600D01*
X130616253Y-61682458D01*
X130795858Y-61502853D01*
X130810000Y-61516995D01*
X130824143Y-61502853D01*
X131003748Y-61682458D01*
X130989605Y-61696600D01*
X133013148Y-63720143D01*
X133431118Y-63443973D01*
X133721649Y-62899043D01*
X133900287Y-62307904D01*
X133960168Y-61693272D01*
X133898990Y-61078769D01*
X133719103Y-60488008D01*
X133431118Y-59949227D01*
X133013150Y-59673058D01*
X133126875Y-59559333D01*
X133104742Y-59537200D01*
X136658631Y-59537200D01*
X136581988Y-59651905D01*
G37*
X136581988Y-59651905D02*
X136527419Y-59783646D01*
X136499600Y-59923502D01*
X136499600Y-60066098D01*
X136527419Y-60205954D01*
X136581988Y-60337695D01*
X136661210Y-60456260D01*
X136762040Y-60557090D01*
X136880605Y-60636312D01*
X137012346Y-60690881D01*
X137152202Y-60718700D01*
X137294798Y-60718700D01*
X137434654Y-60690881D01*
X137566395Y-60636312D01*
X137684960Y-60557090D01*
X137785790Y-60456260D01*
X137865012Y-60337695D01*
X137919581Y-60205954D01*
X137947400Y-60066098D01*
X137947400Y-59923502D01*
X137919581Y-59783646D01*
X137865012Y-59651905D01*
X137788369Y-59537200D01*
X143167381Y-59537200D01*
X143090738Y-59651905D01*
X143036169Y-59783646D01*
X143008350Y-59923502D01*
X143008350Y-60066098D01*
X143036169Y-60205954D01*
X143090738Y-60337695D01*
X143169960Y-60456260D01*
X143270790Y-60557090D01*
X143389355Y-60636312D01*
X143521096Y-60690881D01*
X143660952Y-60718700D01*
X143803548Y-60718700D01*
X143943404Y-60690881D01*
X144075145Y-60636312D01*
X144193710Y-60557090D01*
X144294540Y-60456260D01*
X144373762Y-60337695D01*
X144428331Y-60205954D01*
X144456150Y-60066098D01*
X144456150Y-59923502D01*
X144428331Y-59783646D01*
X144373762Y-59651905D01*
X144297119Y-59537200D01*
X146301792Y-59537200D01*
X146412250Y-59647658D01*
X145994282Y-59923827D01*
X145703751Y-60468757D01*
X145525113Y-61059896D01*
X145465232Y-61674528D01*
X145526410Y-62289031D01*
X145706297Y-62879792D01*
X145994282Y-63418573D01*
X146412252Y-63694743D01*
X148435795Y-61671200D01*
X148421653Y-61657058D01*
X148601258Y-61477453D01*
X148615400Y-61491595D01*
X150024590Y-60082405D01*
X150117717Y-60158357D01*
X150203796Y-60262409D01*
X148795005Y-61671200D01*
X148809148Y-61685343D01*
X148629543Y-61864948D01*
X148615400Y-61850805D01*
X146591857Y-63874348D01*
X146868027Y-64292318D01*
X147412957Y-64582849D01*
X148004096Y-64761487D01*
X148618728Y-64821368D01*
X149233231Y-64760190D01*
X149823992Y-64580303D01*
X150362773Y-64292318D01*
X150638942Y-63874350D01*
X150749400Y-63984808D01*
X150749400Y-74971037D01*
X150710000Y-74967157D01*
X149010000Y-74967157D01*
X148935311Y-74974513D01*
X148863492Y-74996299D01*
X148797304Y-75031678D01*
X148739289Y-75079289D01*
X148691678Y-75137304D01*
X148656299Y-75203492D01*
X148634513Y-75275311D01*
X148627157Y-75350000D01*
X148627157Y-77050000D01*
X148634513Y-77124689D01*
X148656299Y-77196508D01*
X148691678Y-77262696D01*
X148739289Y-77320711D01*
X148797304Y-77368322D01*
X148863492Y-77403701D01*
X148935311Y-77425487D01*
X149010000Y-77432843D01*
X150710000Y-77432843D01*
X150749400Y-77428963D01*
X150749400Y-77888503D01*
X150644717Y-77783820D01*
X150443097Y-77649102D01*
X150219069Y-77556307D01*
X149981243Y-77509000D01*
X149738757Y-77509000D01*
X149500931Y-77556307D01*
X149276903Y-77649102D01*
X149075283Y-77783820D01*
X148903820Y-77955283D01*
X148769102Y-78156903D01*
X148676307Y-78380931D01*
X148629000Y-78618757D01*
X148629000Y-78861243D01*
X148676307Y-79099069D01*
X148769102Y-79323097D01*
X148903820Y-79524717D01*
X149075283Y-79696180D01*
X149276903Y-79830898D01*
X149500931Y-79923693D01*
X149738757Y-79971000D01*
X149981243Y-79971000D01*
X150219069Y-79923693D01*
X150443097Y-79830898D01*
X150644717Y-79696180D01*
X150749400Y-79591497D01*
X150749400Y-80428503D01*
X150644717Y-80323820D01*
X150443097Y-80189102D01*
X150219069Y-80096307D01*
X149981243Y-80049000D01*
X149738757Y-80049000D01*
X149500931Y-80096307D01*
X149276903Y-80189102D01*
X149075283Y-80323820D01*
X148903820Y-80495283D01*
X148769102Y-80696903D01*
X148676307Y-80920931D01*
X148629000Y-81158757D01*
X148629000Y-81401243D01*
X148676307Y-81639069D01*
X148769102Y-81863097D01*
X148903820Y-82064717D01*
X149075283Y-82236180D01*
X149276903Y-82370898D01*
X149500931Y-82463693D01*
X149738757Y-82511000D01*
X149981243Y-82511000D01*
X150219069Y-82463693D01*
X150443097Y-82370898D01*
X150644717Y-82236180D01*
X150749400Y-82131497D01*
X150749400Y-82968503D01*
X150644717Y-82863820D01*
X150443097Y-82729102D01*
X150219069Y-82636307D01*
X149981243Y-82589000D01*
X149738757Y-82589000D01*
X149500931Y-82636307D01*
X149276903Y-82729102D01*
X149075283Y-82863820D01*
X148903820Y-83035283D01*
X148769102Y-83236903D01*
X148676307Y-83460931D01*
X148629000Y-83698757D01*
X148629000Y-83941243D01*
X148676307Y-84179069D01*
X148769102Y-84403097D01*
X148903820Y-84604717D01*
X149075283Y-84776180D01*
X149276903Y-84910898D01*
X149500931Y-85003693D01*
X149738757Y-85051000D01*
X149981243Y-85051000D01*
X150219069Y-85003693D01*
X150443097Y-84910898D01*
X150644717Y-84776180D01*
X150749401Y-84671496D01*
X150749401Y-85508504D01*
X150644717Y-85403820D01*
X150443097Y-85269102D01*
X150219069Y-85176307D01*
X149981243Y-85129000D01*
X149738757Y-85129000D01*
X149500931Y-85176307D01*
X149276903Y-85269102D01*
X149075283Y-85403820D01*
X148903820Y-85575283D01*
X148769102Y-85776903D01*
X148676307Y-86000931D01*
X148629000Y-86238757D01*
X148629000Y-86481243D01*
X148676307Y-86719069D01*
X148769102Y-86943097D01*
X148903820Y-87144717D01*
X149075283Y-87316180D01*
X149276903Y-87450898D01*
X149500931Y-87543693D01*
X149738757Y-87591000D01*
X149981243Y-87591000D01*
X150219069Y-87543693D01*
X150443097Y-87450898D01*
X150644717Y-87316180D01*
X150749401Y-87211496D01*
X150749401Y-88048504D01*
X150644717Y-87943820D01*
X150443097Y-87809102D01*
X150219069Y-87716307D01*
X149981243Y-87669000D01*
X149738757Y-87669000D01*
X149500931Y-87716307D01*
X149276903Y-87809102D01*
X149075283Y-87943820D01*
X148903820Y-88115283D01*
X148769102Y-88316903D01*
X148676307Y-88540931D01*
X148629000Y-88778757D01*
X148629000Y-89021243D01*
X148676307Y-89259069D01*
X148769102Y-89483097D01*
X148903820Y-89684717D01*
X149075283Y-89856180D01*
X149276903Y-89990898D01*
X149500931Y-90083693D01*
X149738757Y-90131000D01*
X149981243Y-90131000D01*
X150219069Y-90083693D01*
X150443097Y-89990898D01*
X150644717Y-89856180D01*
X150749401Y-89751496D01*
X150749401Y-90588504D01*
X150644717Y-90483820D01*
X150443097Y-90349102D01*
X150219069Y-90256307D01*
X149981243Y-90209000D01*
X149738757Y-90209000D01*
X149500931Y-90256307D01*
X149276903Y-90349102D01*
X149075283Y-90483820D01*
X148903820Y-90655283D01*
X148769102Y-90856903D01*
X148676307Y-91080931D01*
X148629000Y-91318757D01*
X148629000Y-91561243D01*
X148676307Y-91799069D01*
X148769102Y-92023097D01*
X148903820Y-92224717D01*
X149075283Y-92396180D01*
X149276903Y-92530898D01*
X149500931Y-92623693D01*
X149738757Y-92671000D01*
X149981243Y-92671000D01*
X150219069Y-92623693D01*
X150443097Y-92530898D01*
X150644717Y-92396180D01*
X150749401Y-92291496D01*
X150749401Y-93128504D01*
X150644717Y-93023820D01*
X150443097Y-92889102D01*
X150219069Y-92796307D01*
X149981243Y-92749000D01*
X149738757Y-92749000D01*
X149500931Y-92796307D01*
X149276903Y-92889102D01*
X149075283Y-93023820D01*
X148903820Y-93195283D01*
X148769102Y-93396903D01*
X148676307Y-93620931D01*
X148629000Y-93858757D01*
X148629000Y-94101243D01*
X148676307Y-94339069D01*
X148769102Y-94563097D01*
X148903820Y-94764717D01*
X149075283Y-94936180D01*
X149276903Y-95070898D01*
X149500931Y-95163693D01*
X149738757Y-95211000D01*
X149981243Y-95211000D01*
X150219069Y-95163693D01*
X150443097Y-95070898D01*
X150644717Y-94936180D01*
X150749401Y-94831496D01*
X150749401Y-95668504D01*
X150644717Y-95563820D01*
X150443097Y-95429102D01*
X150219069Y-95336307D01*
X149981243Y-95289000D01*
X149738757Y-95289000D01*
X149500931Y-95336307D01*
X149276903Y-95429102D01*
X149075283Y-95563820D01*
X148903820Y-95735283D01*
X148769102Y-95936903D01*
X148676307Y-96160931D01*
X148629000Y-96398757D01*
X148629000Y-96641243D01*
X148676307Y-96879069D01*
X148769102Y-97103097D01*
X148903820Y-97304717D01*
X149075283Y-97476180D01*
X149276903Y-97610898D01*
X149500931Y-97703693D01*
X149738757Y-97751000D01*
X149981243Y-97751000D01*
X150219069Y-97703693D01*
X150443097Y-97610898D01*
X150644717Y-97476180D01*
X150749401Y-97371496D01*
X150749401Y-98208504D01*
X150644717Y-98103820D01*
X150443097Y-97969102D01*
X150219069Y-97876307D01*
X149981243Y-97829000D01*
X149738757Y-97829000D01*
X149500931Y-97876307D01*
X149276903Y-97969102D01*
X149075283Y-98103820D01*
X148903820Y-98275283D01*
X148769102Y-98476903D01*
X148676307Y-98700931D01*
X148629000Y-98938757D01*
X148629000Y-99181243D01*
X148676307Y-99419069D01*
X148769102Y-99643097D01*
X148903820Y-99844717D01*
X149075283Y-100016180D01*
X149276903Y-100150898D01*
X149500931Y-100243693D01*
X149738757Y-100291000D01*
X149981243Y-100291000D01*
X150219069Y-100243693D01*
X150443097Y-100150898D01*
X150644717Y-100016180D01*
X150749401Y-99911496D01*
X150749401Y-100748504D01*
X150644717Y-100643820D01*
X150443097Y-100509102D01*
X150219069Y-100416307D01*
X149981243Y-100369000D01*
X149738757Y-100369000D01*
X149500931Y-100416307D01*
X149276903Y-100509102D01*
X149075283Y-100643820D01*
X148903820Y-100815283D01*
X148816824Y-100945483D01*
X148513800Y-100642459D01*
X148513800Y-72756554D01*
X148516380Y-72730360D01*
X148506081Y-72625796D01*
X148494063Y-72586175D01*
X148475581Y-72525249D01*
X148426051Y-72432585D01*
X148359395Y-72351365D01*
X148339045Y-72334664D01*
X147031537Y-71027156D01*
X147029767Y-71024999D01*
X147027000Y-70516750D01*
X146868250Y-70358000D01*
X145669000Y-70358000D01*
X145669000Y-70378000D01*
X145415000Y-70378000D01*
X145415000Y-70358000D01*
X145395000Y-70358000D01*
X145395000Y-70104000D01*
X145415000Y-70104000D01*
X145415000Y-68904750D01*
X145669000Y-68904750D01*
X145669000Y-70104000D01*
X146868250Y-70104000D01*
X147027000Y-69945250D01*
X147030072Y-69381000D01*
X147017812Y-69256518D01*
X146981502Y-69136820D01*
X146922537Y-69026506D01*
X146843185Y-68929815D01*
X146746494Y-68850463D01*
X146636180Y-68791498D01*
X146516482Y-68755188D01*
X146392000Y-68742928D01*
X145827750Y-68746000D01*
X145669000Y-68904750D01*
X145415000Y-68904750D01*
X145256250Y-68746000D01*
X144692000Y-68742928D01*
X144567518Y-68755188D01*
X144447820Y-68791498D01*
X144337506Y-68850463D01*
X144240815Y-68929815D01*
X144161463Y-69026506D01*
X144102498Y-69136820D01*
X144066188Y-69256518D01*
X144053928Y-69381000D01*
X144055073Y-69591294D01*
X143958180Y-69446283D01*
X143786717Y-69274820D01*
X143585097Y-69140102D01*
X143361069Y-69047307D01*
X143123243Y-69000000D01*
X142880757Y-69000000D01*
X142642931Y-69047307D01*
X142418903Y-69140102D01*
X142217283Y-69274820D01*
X142045820Y-69446283D01*
X141911102Y-69647903D01*
X141818307Y-69871931D01*
X141771000Y-70109757D01*
X141771000Y-70352243D01*
X141818307Y-70590069D01*
X141911102Y-70814097D01*
X141936696Y-70852401D01*
X141837743Y-70852401D01*
X141625108Y-70639766D01*
X141645693Y-70590069D01*
X141693000Y-70352243D01*
X141693000Y-70109757D01*
X141645693Y-69871931D01*
X141552898Y-69647903D01*
X141418180Y-69446283D01*
X141246717Y-69274820D01*
X141045097Y-69140102D01*
X140821069Y-69047307D01*
X140583243Y-69000000D01*
X140340757Y-69000000D01*
X140102931Y-69047307D01*
X139878903Y-69140102D01*
X139677283Y-69274820D01*
X139505820Y-69446283D01*
X139371102Y-69647903D01*
X139278307Y-69871931D01*
X139231000Y-70109757D01*
X139231000Y-70352243D01*
X139278307Y-70590069D01*
X139371102Y-70814097D01*
X139505820Y-71015717D01*
X139677283Y-71187180D01*
X139878903Y-71321898D01*
X140102931Y-71414693D01*
X140340757Y-71462000D01*
X140583243Y-71462000D01*
X140821069Y-71414693D01*
X140870766Y-71394108D01*
X141221110Y-71744452D01*
X141229767Y-71755000D01*
X140200342Y-71755000D01*
X139085108Y-70639766D01*
X139105693Y-70590069D01*
X139153000Y-70352243D01*
X139153000Y-70109757D01*
X139105693Y-69871931D01*
X139012898Y-69647903D01*
X138878180Y-69446283D01*
X138706717Y-69274820D01*
X138505097Y-69140102D01*
X138281069Y-69047307D01*
X138043243Y-69000000D01*
X137800757Y-69000000D01*
X137562931Y-69047307D01*
X137338903Y-69140102D01*
X137137283Y-69274820D01*
X136965820Y-69446283D01*
X136831102Y-69647903D01*
X136738307Y-69871931D01*
X136691000Y-70109757D01*
X136691000Y-70352243D01*
X136738307Y-70590069D01*
X136831102Y-70814097D01*
X136965820Y-71015717D01*
X137137283Y-71187180D01*
X137338903Y-71321898D01*
X137562931Y-71414693D01*
X137800757Y-71462000D01*
X138043243Y-71462000D01*
X138281069Y-71414693D01*
X138330766Y-71394108D01*
X139583709Y-72647051D01*
X139600405Y-72667395D01*
X139681625Y-72734051D01*
X139774289Y-72783581D01*
X139874835Y-72814081D01*
X139953205Y-72821800D01*
X139953213Y-72821800D01*
X139979400Y-72824379D01*
X140005587Y-72821800D01*
X146133859Y-72821800D01*
X146735801Y-73423743D01*
X146735800Y-102539013D01*
X146733221Y-102565200D01*
X146735800Y-102591387D01*
X146735800Y-102591394D01*
X146743519Y-102669764D01*
X146774019Y-102770310D01*
X146823549Y-102862975D01*
X146890205Y-102944195D01*
X146910555Y-102960896D01*
X148448304Y-104498645D01*
X148465005Y-104518995D01*
X148546225Y-104585651D01*
X148638889Y-104635181D01*
X148739435Y-104665681D01*
X148745570Y-104666285D01*
X148769102Y-104723097D01*
X148903820Y-104924717D01*
X149075283Y-105096180D01*
X149276903Y-105230898D01*
X149500931Y-105323693D01*
X149738757Y-105371000D01*
X149981243Y-105371000D01*
X150219069Y-105323693D01*
X150443097Y-105230898D01*
X150644717Y-105096180D01*
X150749401Y-104991496D01*
X150749401Y-106863336D01*
X150697174Y-107395986D01*
X150548250Y-107889248D01*
X150306354Y-108344185D01*
X149980702Y-108743475D01*
X149583699Y-109071904D01*
X149130464Y-109316967D01*
X148638258Y-109469330D01*
X148106700Y-109525200D01*
X131109253Y-109525200D01*
X130625948Y-109477812D01*
X130180147Y-109343216D01*
X129768979Y-109124594D01*
X129408105Y-108830273D01*
X129111273Y-108471465D01*
X128889785Y-108061833D01*
X128752082Y-107616985D01*
X128701400Y-107134780D01*
X128701400Y-106839711D01*
X129079000Y-106839711D01*
X129079000Y-107180689D01*
X129145521Y-107515114D01*
X129276007Y-107830136D01*
X129465444Y-108113648D01*
X129706552Y-108354756D01*
X129990064Y-108544193D01*
X130305086Y-108674679D01*
X130639511Y-108741200D01*
X130980489Y-108741200D01*
X131314914Y-108674679D01*
X131629936Y-108544193D01*
X131913448Y-108354756D01*
X132154556Y-108113648D01*
X132343993Y-107830136D01*
X132474479Y-107515114D01*
X132541000Y-107180689D01*
X132541000Y-106839711D01*
X146884400Y-106839711D01*
X146884400Y-107180689D01*
X146950921Y-107515114D01*
X147081407Y-107830136D01*
X147270844Y-108113648D01*
X147511952Y-108354756D01*
X147795464Y-108544193D01*
X148110486Y-108674679D01*
X148444911Y-108741200D01*
X148785889Y-108741200D01*
X149120314Y-108674679D01*
X149435336Y-108544193D01*
X149718848Y-108354756D01*
X149959956Y-108113648D01*
X150149393Y-107830136D01*
X150279879Y-107515114D01*
X150346400Y-107180689D01*
X150346400Y-106839711D01*
X150279879Y-106505286D01*
X150149393Y-106190264D01*
X149959956Y-105906752D01*
X149718848Y-105665644D01*
X149435336Y-105476207D01*
X149120314Y-105345721D01*
X148785889Y-105279200D01*
X148444911Y-105279200D01*
X148110486Y-105345721D01*
X147795464Y-105476207D01*
X147511952Y-105665644D01*
X147270844Y-105906752D01*
X147081407Y-106190264D01*
X146950921Y-106505286D01*
X146884400Y-106839711D01*
X132541000Y-106839711D01*
X132474479Y-106505286D01*
X132343993Y-106190264D01*
X132266976Y-106075000D01*
X135221928Y-106075000D01*
X135234188Y-106199482D01*
X135270498Y-106319180D01*
X135329463Y-106429494D01*
X135408815Y-106526185D01*
X135505506Y-106605537D01*
X135615820Y-106664502D01*
X135735518Y-106700812D01*
X135860000Y-106713072D01*
X136874250Y-106710000D01*
X137033000Y-106551250D01*
X137033000Y-104902000D01*
X137287000Y-104902000D01*
X137287000Y-106551250D01*
X137445750Y-106710000D01*
X138460000Y-106713072D01*
X138584482Y-106700812D01*
X138704180Y-106664502D01*
X138814494Y-106605537D01*
X138911185Y-106526185D01*
X138990537Y-106429494D01*
X139049502Y-106319180D01*
X139085812Y-106199482D01*
X139098072Y-106075000D01*
X139095000Y-105060750D01*
X138936250Y-104902000D01*
X137287000Y-104902000D01*
X137033000Y-104902000D01*
X135383750Y-104902000D01*
X135225000Y-105060750D01*
X135221928Y-106075000D01*
X132266976Y-106075000D01*
X132154556Y-105906752D01*
X131913448Y-105665644D01*
X131629936Y-105476207D01*
X131314914Y-105345721D01*
X130980489Y-105279200D01*
X130639511Y-105279200D01*
X130305086Y-105345721D01*
X129990064Y-105476207D01*
X129706552Y-105665644D01*
X129465444Y-105906752D01*
X129276007Y-106190264D01*
X129145521Y-106505286D01*
X129079000Y-106839711D01*
X128701400Y-106839711D01*
X128701400Y-104966097D01*
X128780683Y-105045380D01*
X128982303Y-105180098D01*
X129206331Y-105272893D01*
X129444157Y-105320200D01*
X129686643Y-105320200D01*
X129924469Y-105272893D01*
X130148497Y-105180098D01*
X130350117Y-105045380D01*
X130521580Y-104873917D01*
X130656298Y-104672297D01*
X130749093Y-104448269D01*
X130796400Y-104210443D01*
X130796400Y-103967957D01*
X130749093Y-103730131D01*
X130656298Y-103506103D01*
X130635516Y-103475000D01*
X135221928Y-103475000D01*
X135225000Y-104489250D01*
X135383750Y-104648000D01*
X137033000Y-104648000D01*
X137033000Y-102998750D01*
X137287000Y-102998750D01*
X137287000Y-104648000D01*
X138936250Y-104648000D01*
X138974814Y-104609436D01*
X140479000Y-104609436D01*
X140479000Y-104940564D01*
X140543600Y-105265330D01*
X140670317Y-105571252D01*
X140854282Y-105846575D01*
X141088425Y-106080718D01*
X141363748Y-106264683D01*
X141669670Y-106391400D01*
X141994436Y-106456000D01*
X142325564Y-106456000D01*
X142650330Y-106391400D01*
X142956252Y-106264683D01*
X143231575Y-106080718D01*
X143465718Y-105846575D01*
X143649683Y-105571252D01*
X143776400Y-105265330D01*
X143841000Y-104940564D01*
X143841000Y-104609436D01*
X143776400Y-104284670D01*
X143649683Y-103978748D01*
X143465718Y-103703425D01*
X143231575Y-103469282D01*
X142956252Y-103285317D01*
X142650330Y-103158600D01*
X142325564Y-103094000D01*
X141994436Y-103094000D01*
X141669670Y-103158600D01*
X141363748Y-103285317D01*
X141088425Y-103469282D01*
X140854282Y-103703425D01*
X140670317Y-103978748D01*
X140543600Y-104284670D01*
X140479000Y-104609436D01*
X138974814Y-104609436D01*
X139095000Y-104489250D01*
X139098072Y-103475000D01*
X139085812Y-103350518D01*
X139049502Y-103230820D01*
X138990537Y-103120506D01*
X138911185Y-103023815D01*
X138814494Y-102944463D01*
X138704180Y-102885498D01*
X138584482Y-102849188D01*
X138460000Y-102836928D01*
X137445750Y-102840000D01*
X137287000Y-102998750D01*
X137033000Y-102998750D01*
X136874250Y-102840000D01*
X135860000Y-102836928D01*
X135735518Y-102849188D01*
X135615820Y-102885498D01*
X135505506Y-102944463D01*
X135408815Y-103023815D01*
X135329463Y-103120506D01*
X135270498Y-103230820D01*
X135234188Y-103350518D01*
X135221928Y-103475000D01*
X130635516Y-103475000D01*
X130521580Y-103304483D01*
X130350117Y-103133020D01*
X130148497Y-102998302D01*
X129924469Y-102905507D01*
X129686643Y-102858200D01*
X129444157Y-102858200D01*
X129206331Y-102905507D01*
X128982303Y-102998302D01*
X128780683Y-103133020D01*
X128701400Y-103212303D01*
X128701400Y-102426097D01*
X128780683Y-102505380D01*
X128982303Y-102640098D01*
X129206331Y-102732893D01*
X129444157Y-102780200D01*
X129686643Y-102780200D01*
X129924469Y-102732893D01*
X130148497Y-102640098D01*
X130350117Y-102505380D01*
X130521580Y-102333917D01*
X130656298Y-102132297D01*
X130749093Y-101908269D01*
X130796400Y-101670443D01*
X130796400Y-101427957D01*
X130749093Y-101190131D01*
X130656298Y-100966103D01*
X130521580Y-100764483D01*
X130350117Y-100593020D01*
X130148497Y-100458302D01*
X129924469Y-100365507D01*
X129686643Y-100318200D01*
X129444157Y-100318200D01*
X129206331Y-100365507D01*
X128982303Y-100458302D01*
X128780683Y-100593020D01*
X128701400Y-100672303D01*
X128701400Y-99886097D01*
X128780683Y-99965380D01*
X128982303Y-100100098D01*
X129206331Y-100192893D01*
X129444157Y-100240200D01*
X129686643Y-100240200D01*
X129924469Y-100192893D01*
X130148497Y-100100098D01*
X130350117Y-99965380D01*
X130521580Y-99793917D01*
X130656298Y-99592297D01*
X130749093Y-99368269D01*
X130796400Y-99130443D01*
X130796400Y-98887957D01*
X130749093Y-98650131D01*
X130656298Y-98426103D01*
X130521580Y-98224483D01*
X130350117Y-98053020D01*
X130148497Y-97918302D01*
X129924469Y-97825507D01*
X129686643Y-97778200D01*
X129444157Y-97778200D01*
X129206331Y-97825507D01*
X128982303Y-97918302D01*
X128780683Y-98053020D01*
X128701400Y-98132303D01*
X128701400Y-97346097D01*
X128780683Y-97425380D01*
X128982303Y-97560098D01*
X129206331Y-97652893D01*
X129444157Y-97700200D01*
X129686643Y-97700200D01*
X129924469Y-97652893D01*
X130148497Y-97560098D01*
X130350117Y-97425380D01*
X130521580Y-97253917D01*
X130656298Y-97052297D01*
X130749093Y-96828269D01*
X130796400Y-96590443D01*
X130796400Y-96347957D01*
X130749093Y-96110131D01*
X130656298Y-95886103D01*
X130521580Y-95684483D01*
X130350117Y-95513020D01*
X130148497Y-95378302D01*
X129924469Y-95285507D01*
X129686643Y-95238200D01*
X129444157Y-95238200D01*
X129206331Y-95285507D01*
X128982303Y-95378302D01*
X128780683Y-95513020D01*
X128701400Y-95592303D01*
X128701400Y-94806097D01*
X128780683Y-94885380D01*
X128982303Y-95020098D01*
X129206331Y-95112893D01*
X129444157Y-95160200D01*
X129686643Y-95160200D01*
X129924469Y-95112893D01*
X130148497Y-95020098D01*
X130350117Y-94885380D01*
X130521580Y-94713917D01*
X130656298Y-94512297D01*
X130749093Y-94288269D01*
X130796400Y-94050443D01*
X130796400Y-93807957D01*
X130749093Y-93570131D01*
X130656298Y-93346103D01*
X130521580Y-93144483D01*
X130350117Y-92973020D01*
X130148497Y-92838302D01*
X129924469Y-92745507D01*
X129686643Y-92698200D01*
X129444157Y-92698200D01*
X129206331Y-92745507D01*
X128982303Y-92838302D01*
X128780683Y-92973020D01*
X128701400Y-93052303D01*
X128701400Y-92266097D01*
X128780683Y-92345380D01*
X128982303Y-92480098D01*
X129206331Y-92572893D01*
X129444157Y-92620200D01*
X129686643Y-92620200D01*
X129924469Y-92572893D01*
X130148497Y-92480098D01*
X130350117Y-92345380D01*
X130521580Y-92173917D01*
X130656298Y-91972297D01*
X130749093Y-91748269D01*
X130796400Y-91510443D01*
X130796400Y-91267957D01*
X130749093Y-91030131D01*
X130656298Y-90806103D01*
X130521580Y-90604483D01*
X130350117Y-90433020D01*
X130148497Y-90298302D01*
X129924469Y-90205507D01*
X129686643Y-90158200D01*
X129444157Y-90158200D01*
X129206331Y-90205507D01*
X128982303Y-90298302D01*
X128780683Y-90433020D01*
X128701400Y-90512303D01*
X128701400Y-89726097D01*
X128780683Y-89805380D01*
X128982303Y-89940098D01*
X129206331Y-90032893D01*
X129444157Y-90080200D01*
X129686643Y-90080200D01*
X129924469Y-90032893D01*
X130148497Y-89940098D01*
X130350117Y-89805380D01*
X130521580Y-89633917D01*
X130656298Y-89432297D01*
X130749093Y-89208269D01*
X130796400Y-88970443D01*
X130796400Y-88727957D01*
X130749093Y-88490131D01*
X130656298Y-88266103D01*
X130521580Y-88064483D01*
X130350117Y-87893020D01*
X130148497Y-87758302D01*
X129924469Y-87665507D01*
X129686643Y-87618200D01*
X129444157Y-87618200D01*
X129206331Y-87665507D01*
X128982303Y-87758302D01*
X128780683Y-87893020D01*
X128701400Y-87972303D01*
X128701400Y-87186097D01*
X128780683Y-87265380D01*
X128982303Y-87400098D01*
X129206331Y-87492893D01*
X129444157Y-87540200D01*
X129686643Y-87540200D01*
X129924469Y-87492893D01*
X130148497Y-87400098D01*
X130350117Y-87265380D01*
X130521580Y-87093917D01*
X130656298Y-86892297D01*
X130749093Y-86668269D01*
X130796400Y-86430443D01*
X130796400Y-86187957D01*
X130749093Y-85950131D01*
X130656298Y-85726103D01*
X130521580Y-85524483D01*
X130350117Y-85353020D01*
X130148497Y-85218302D01*
X129924469Y-85125507D01*
X129686643Y-85078200D01*
X129444157Y-85078200D01*
X129206331Y-85125507D01*
X128982303Y-85218302D01*
X128780683Y-85353020D01*
X128701400Y-85432303D01*
X128701400Y-84646097D01*
X128780683Y-84725380D01*
X128982303Y-84860098D01*
X129206331Y-84952893D01*
X129444157Y-85000200D01*
X129686643Y-85000200D01*
X129924469Y-84952893D01*
X130148497Y-84860098D01*
X130350117Y-84725380D01*
X130521580Y-84553917D01*
X130656298Y-84352297D01*
X130749093Y-84128269D01*
X130796400Y-83890443D01*
X130796400Y-83647957D01*
X130749093Y-83410131D01*
X130656298Y-83186103D01*
X130521580Y-82984483D01*
X130350117Y-82813020D01*
X130148497Y-82678302D01*
X129924469Y-82585507D01*
X129686643Y-82538200D01*
X129444157Y-82538200D01*
X129206331Y-82585507D01*
X128982303Y-82678302D01*
X128780683Y-82813020D01*
X128701400Y-82892303D01*
X128701400Y-82106097D01*
X128780683Y-82185380D01*
X128982303Y-82320098D01*
X129206331Y-82412893D01*
X129444157Y-82460200D01*
X129686643Y-82460200D01*
X129924469Y-82412893D01*
X130148497Y-82320098D01*
X130350117Y-82185380D01*
X130521580Y-82013917D01*
X130656298Y-81812297D01*
X130657601Y-81809151D01*
X130657601Y-82142801D01*
X130655021Y-82168998D01*
X130665319Y-82273562D01*
X130695819Y-82374108D01*
X130721100Y-82421405D01*
X130721100Y-82494296D01*
X130748919Y-82634152D01*
X130803488Y-82765893D01*
X130882710Y-82884458D01*
X130983540Y-82985288D01*
X131102105Y-83064510D01*
X131233846Y-83119079D01*
X131373702Y-83146898D01*
X131516298Y-83146898D01*
X131656154Y-83119079D01*
X131787895Y-83064510D01*
X131906460Y-82985288D01*
X132007290Y-82884458D01*
X132086512Y-82765893D01*
X132141081Y-82634152D01*
X132168900Y-82494296D01*
X132168900Y-82351700D01*
X132141081Y-82211844D01*
X132086512Y-82080103D01*
X132007290Y-81961538D01*
X131906460Y-81860708D01*
X131787895Y-81781486D01*
X131724400Y-81755185D01*
X131724400Y-76928941D01*
X131983441Y-76669900D01*
X132024298Y-76669900D01*
X132164154Y-76642081D01*
X132295895Y-76587512D01*
X132414460Y-76508290D01*
X132515290Y-76407460D01*
X132594512Y-76288895D01*
X132649081Y-76157154D01*
X132676900Y-76017298D01*
X132676900Y-75874702D01*
X132649081Y-75734846D01*
X132594512Y-75603105D01*
X132515290Y-75484540D01*
X132414460Y-75383710D01*
X132295895Y-75304488D01*
X132164154Y-75249919D01*
X132024298Y-75222100D01*
X131881702Y-75222100D01*
X131741846Y-75249919D01*
X131610105Y-75304488D01*
X131491540Y-75383710D01*
X131390710Y-75484540D01*
X131311488Y-75603105D01*
X131256919Y-75734846D01*
X131229100Y-75874702D01*
X131229100Y-75915559D01*
X130832355Y-76312304D01*
X130812005Y-76329005D01*
X130776032Y-76372838D01*
X130796400Y-76270443D01*
X130796400Y-76027957D01*
X130749093Y-75790131D01*
X130656298Y-75566103D01*
X130521580Y-75364483D01*
X130350117Y-75193020D01*
X130148497Y-75058302D01*
X130034232Y-75010972D01*
X130196652Y-74953357D01*
X130446755Y-74804378D01*
X130662988Y-74609469D01*
X130837041Y-74376120D01*
X130962225Y-74113299D01*
X131006876Y-73966090D01*
X130885555Y-73736200D01*
X129692400Y-73736200D01*
X129692400Y-73756200D01*
X129438400Y-73756200D01*
X129438400Y-73736200D01*
X129418400Y-73736200D01*
X129418400Y-73482200D01*
X129438400Y-73482200D01*
X129438400Y-73462200D01*
X129692400Y-73462200D01*
X129692400Y-73482200D01*
X130885555Y-73482200D01*
X131006876Y-73252310D01*
X130962225Y-73105101D01*
X130837041Y-72842280D01*
X130662988Y-72608931D01*
X130446755Y-72414022D01*
X130196652Y-72265043D01*
X130034232Y-72207428D01*
X130148497Y-72160098D01*
X130350117Y-72025380D01*
X130521580Y-71853917D01*
X130656298Y-71652297D01*
X130749093Y-71428269D01*
X130796400Y-71190443D01*
X130796400Y-70947957D01*
X130749093Y-70710131D01*
X130656298Y-70486103D01*
X130521580Y-70284483D01*
X130350117Y-70113020D01*
X130148497Y-69978302D01*
X129924469Y-69885507D01*
X129686643Y-69838200D01*
X129444157Y-69838200D01*
X129206331Y-69885507D01*
X128982303Y-69978302D01*
X128780683Y-70113020D01*
X128701400Y-70192303D01*
X128701400Y-69406097D01*
X128780683Y-69485380D01*
X128982303Y-69620098D01*
X129206331Y-69712893D01*
X129444157Y-69760200D01*
X129686643Y-69760200D01*
X129924469Y-69712893D01*
X130148497Y-69620098D01*
X130350117Y-69485380D01*
X130521580Y-69313917D01*
X130656298Y-69112297D01*
X130749093Y-68888269D01*
X130796400Y-68650443D01*
X130796400Y-68407957D01*
X130749093Y-68170131D01*
X130656298Y-67946103D01*
X130521580Y-67744483D01*
X130350117Y-67573020D01*
X130148497Y-67438302D01*
X129924469Y-67345507D01*
X129686643Y-67298200D01*
X129444157Y-67298200D01*
X129206331Y-67345507D01*
X128982303Y-67438302D01*
X128780683Y-67573020D01*
X128701400Y-67652303D01*
X128701400Y-67220664D01*
X128715400Y-67222043D01*
X130415400Y-67222043D01*
X130490089Y-67214687D01*
X130561908Y-67192901D01*
X130628096Y-67157522D01*
X130686111Y-67109911D01*
X130733722Y-67051896D01*
X130769101Y-66985708D01*
X130790887Y-66913889D01*
X130798243Y-66839200D01*
X130798243Y-65139200D01*
X130790887Y-65064511D01*
X130769101Y-64992692D01*
X130733722Y-64926504D01*
X130686111Y-64868489D01*
X130638941Y-64829778D01*
X130813328Y-64846768D01*
X131427831Y-64785590D01*
X132018592Y-64605703D01*
X132557373Y-64317718D01*
X132833543Y-63899748D01*
X130810000Y-61876205D01*
X130795858Y-61890348D01*
X130616253Y-61710743D01*
X130630395Y-61696600D01*
X130616253Y-61682458D01*
X130795858Y-61502853D01*
X130810000Y-61516995D01*
X130824143Y-61502853D01*
X131003748Y-61682458D01*
X130989605Y-61696600D01*
X133013148Y-63720143D01*
X133431118Y-63443973D01*
X133721649Y-62899043D01*
X133900287Y-62307904D01*
X133960168Y-61693272D01*
X133898990Y-61078769D01*
X133719103Y-60488008D01*
X133431118Y-59949227D01*
X133013150Y-59673058D01*
X133126875Y-59559333D01*
X133104742Y-59537200D01*
X136658631Y-59537200D01*
X136581988Y-59651905D01*
%TD*%
M02*
