%TF.GenerationSoftware,KiCad,Pcbnew,5.1.6-c6e7f7d~87~ubuntu18.04.1*%
%TF.CreationDate,2020-10-23T00:55:09-07:00*%
%TF.ProjectId,feather-power-supply-sw-smd-adj,66656174-6865-4722-9d70-6f7765722d73,rev?*%
%TF.SameCoordinates,Original*%
%TF.FileFunction,Legend,Bot*%
%TF.FilePolarity,Positive*%
%FSLAX46Y46*%
G04 Gerber Fmt 4.6, Leading zero omitted, Abs format (unit mm)*
G04 Created by KiCad (PCBNEW 5.1.6-c6e7f7d~87~ubuntu18.04.1) date 2020-10-23 00:55:09*
%MOMM*%
%LPD*%
G01*
G04 APERTURE LIST*
%ADD10C,0.150000*%
%ADD11C,0.010000*%
G04 APERTURE END LIST*
D10*
X143409080Y-95547371D02*
X143742413Y-95547371D01*
X143807889Y-96071180D02*
X143682889Y-95071180D01*
X143206699Y-95071180D01*
X142563842Y-96023561D02*
X142665032Y-96071180D01*
X142855508Y-96071180D01*
X142944794Y-96023561D01*
X142980508Y-95928323D01*
X142932889Y-95547371D01*
X142873366Y-95452133D01*
X142772175Y-95404514D01*
X142581699Y-95404514D01*
X142492413Y-95452133D01*
X142456699Y-95547371D01*
X142468604Y-95642609D01*
X142956699Y-95737847D01*
X141665032Y-96071180D02*
X141599556Y-95547371D01*
X141635270Y-95452133D01*
X141724556Y-95404514D01*
X141915032Y-95404514D01*
X142016223Y-95452133D01*
X141659080Y-96023561D02*
X141760270Y-96071180D01*
X141998366Y-96071180D01*
X142087651Y-96023561D01*
X142123366Y-95928323D01*
X142111461Y-95833085D01*
X142051937Y-95737847D01*
X141950747Y-95690228D01*
X141712651Y-95690228D01*
X141611461Y-95642609D01*
X141248366Y-95404514D02*
X140867413Y-95404514D01*
X141063842Y-95071180D02*
X141170985Y-95928323D01*
X141135270Y-96023561D01*
X141045985Y-96071180D01*
X140950747Y-96071180D01*
X140617413Y-96071180D02*
X140492413Y-95071180D01*
X140188842Y-96071180D02*
X140123366Y-95547371D01*
X140159080Y-95452133D01*
X140248366Y-95404514D01*
X140391223Y-95404514D01*
X140492413Y-95452133D01*
X140545985Y-95499752D01*
X139325747Y-96023561D02*
X139426937Y-96071180D01*
X139617413Y-96071180D01*
X139706699Y-96023561D01*
X139742413Y-95928323D01*
X139694794Y-95547371D01*
X139635270Y-95452133D01*
X139534080Y-95404514D01*
X139343604Y-95404514D01*
X139254318Y-95452133D01*
X139218604Y-95547371D01*
X139230508Y-95642609D01*
X139718604Y-95737847D01*
X138855508Y-96071180D02*
X138772175Y-95404514D01*
X138795985Y-95594990D02*
X138736461Y-95499752D01*
X138682889Y-95452133D01*
X138581699Y-95404514D01*
X138486461Y-95404514D01*
X138206699Y-95071180D02*
X138093604Y-96071180D01*
X137813842Y-95356895D01*
X137712651Y-96071180D01*
X137349556Y-95071180D01*
X137093604Y-96071180D02*
X137010270Y-95404514D01*
X136968604Y-95071180D02*
X137022175Y-95118800D01*
X136980508Y-95166419D01*
X136926937Y-95118800D01*
X136968604Y-95071180D01*
X136980508Y-95166419D01*
X136534080Y-95404514D02*
X136617413Y-96071180D01*
X136545985Y-95499752D02*
X136492413Y-95452133D01*
X136391223Y-95404514D01*
X136248366Y-95404514D01*
X136159080Y-95452133D01*
X136123366Y-95547371D01*
X136188842Y-96071180D01*
X135200747Y-95404514D02*
X135301937Y-96214038D01*
X135361461Y-96309276D01*
X135415032Y-96356895D01*
X135516223Y-96404514D01*
X135659080Y-96404514D01*
X135748366Y-96356895D01*
X135278127Y-96023561D02*
X135379318Y-96071180D01*
X135569794Y-96071180D01*
X135659080Y-96023561D01*
X135700747Y-95975942D01*
X135736461Y-95880704D01*
X135700747Y-95594990D01*
X135641223Y-95499752D01*
X135587651Y-95452133D01*
X135486461Y-95404514D01*
X135295985Y-95404514D01*
X135206699Y-95452133D01*
X143730508Y-97673561D02*
X143593604Y-97721180D01*
X143355508Y-97721180D01*
X143254318Y-97673561D01*
X143200747Y-97625942D01*
X143141223Y-97530704D01*
X143129318Y-97435466D01*
X143165032Y-97340228D01*
X143206699Y-97292609D01*
X143295985Y-97244990D01*
X143480508Y-97197371D01*
X143569794Y-97149752D01*
X143611461Y-97102133D01*
X143647175Y-97006895D01*
X143635270Y-96911657D01*
X143575747Y-96816419D01*
X143522175Y-96768800D01*
X143420985Y-96721180D01*
X143182889Y-96721180D01*
X143045985Y-96768800D01*
X142748366Y-97054514D02*
X142641223Y-97721180D01*
X142391223Y-97244990D01*
X142260270Y-97721180D01*
X141986461Y-97054514D01*
X141688842Y-97721180D02*
X141605508Y-97054514D01*
X141563842Y-96721180D02*
X141617413Y-96768800D01*
X141575747Y-96816419D01*
X141522175Y-96768800D01*
X141563842Y-96721180D01*
X141575747Y-96816419D01*
X141272175Y-97054514D02*
X140891223Y-97054514D01*
X141087651Y-96721180D02*
X141194794Y-97578323D01*
X141159080Y-97673561D01*
X141069794Y-97721180D01*
X140974556Y-97721180D01*
X140206699Y-97673561D02*
X140307889Y-97721180D01*
X140498366Y-97721180D01*
X140587651Y-97673561D01*
X140629318Y-97625942D01*
X140665032Y-97530704D01*
X140629318Y-97244990D01*
X140569794Y-97149752D01*
X140516223Y-97102133D01*
X140415032Y-97054514D01*
X140224556Y-97054514D01*
X140135270Y-97102133D01*
X139784080Y-97721180D02*
X139659080Y-96721180D01*
X139355508Y-97721180D02*
X139290032Y-97197371D01*
X139325747Y-97102133D01*
X139415032Y-97054514D01*
X139557889Y-97054514D01*
X139659080Y-97102133D01*
X139712651Y-97149752D01*
X138492413Y-97673561D02*
X138593604Y-97721180D01*
X138784080Y-97721180D01*
X138873366Y-97673561D01*
X138909080Y-97578323D01*
X138861461Y-97197371D01*
X138801937Y-97102133D01*
X138700747Y-97054514D01*
X138510270Y-97054514D01*
X138420985Y-97102133D01*
X138385270Y-97197371D01*
X138397175Y-97292609D01*
X138885270Y-97387847D01*
X138022175Y-97721180D02*
X137938842Y-97054514D01*
X137962651Y-97244990D02*
X137903127Y-97149752D01*
X137849556Y-97102133D01*
X137748366Y-97054514D01*
X137653127Y-97054514D01*
X136653127Y-97054514D02*
X136498366Y-97721180D01*
X136176937Y-97054514D01*
X135355508Y-97721180D02*
X135926937Y-97721180D01*
X135641223Y-97721180D02*
X135516223Y-96721180D01*
X135629318Y-96864038D01*
X135736461Y-96959276D01*
X135837651Y-97006895D01*
D11*
%TO.C,LOGO1*%
G36*
X139652186Y-61553131D02*
G01*
X139568365Y-61997755D01*
X139259080Y-62125253D01*
X138949794Y-62252751D01*
X138578754Y-62000446D01*
X138474843Y-61930196D01*
X138380913Y-61867472D01*
X138301348Y-61815138D01*
X138240530Y-61776057D01*
X138202843Y-61753093D01*
X138192579Y-61748142D01*
X138174090Y-61760876D01*
X138134580Y-61796082D01*
X138078478Y-61849262D01*
X138010213Y-61915918D01*
X137934214Y-61991554D01*
X137854908Y-62071672D01*
X137776725Y-62151774D01*
X137704093Y-62227364D01*
X137641441Y-62293945D01*
X137593197Y-62347018D01*
X137563790Y-62382087D01*
X137556759Y-62393823D01*
X137566877Y-62415460D01*
X137595241Y-62462862D01*
X137638871Y-62531393D01*
X137694782Y-62616415D01*
X137759994Y-62713293D01*
X137797781Y-62768550D01*
X137866657Y-62869448D01*
X137927860Y-62960499D01*
X137978422Y-63037170D01*
X138015372Y-63094928D01*
X138035742Y-63129243D01*
X138038803Y-63136454D01*
X138031864Y-63156948D01*
X138012949Y-63204713D01*
X137984913Y-63273032D01*
X137950609Y-63355189D01*
X137912891Y-63444470D01*
X137874613Y-63534158D01*
X137838630Y-63617538D01*
X137807794Y-63687894D01*
X137784961Y-63738510D01*
X137772983Y-63762671D01*
X137772276Y-63763622D01*
X137753469Y-63768236D01*
X137703382Y-63778528D01*
X137627207Y-63793487D01*
X137530135Y-63812101D01*
X137417357Y-63833359D01*
X137351558Y-63845618D01*
X137231050Y-63868562D01*
X137122203Y-63890395D01*
X137030524Y-63909922D01*
X136961519Y-63925948D01*
X136920696Y-63937279D01*
X136912489Y-63940874D01*
X136904452Y-63965206D01*
X136897967Y-64020159D01*
X136893030Y-64099308D01*
X136889636Y-64196226D01*
X136887782Y-64304487D01*
X136887462Y-64417665D01*
X136888673Y-64529335D01*
X136891410Y-64633068D01*
X136895669Y-64722441D01*
X136901445Y-64791026D01*
X136908733Y-64832397D01*
X136913105Y-64841010D01*
X136939236Y-64851333D01*
X136994607Y-64866092D01*
X137071893Y-64883552D01*
X137163770Y-64901980D01*
X137195842Y-64907941D01*
X137350476Y-64936266D01*
X137472625Y-64959076D01*
X137566327Y-64977280D01*
X137635616Y-64991783D01*
X137684529Y-65003492D01*
X137717103Y-65013315D01*
X137737372Y-65022156D01*
X137749374Y-65030924D01*
X137751053Y-65032657D01*
X137767816Y-65060571D01*
X137793386Y-65114895D01*
X137825212Y-65188977D01*
X137860740Y-65276165D01*
X137897417Y-65369808D01*
X137932689Y-65463252D01*
X137964004Y-65549847D01*
X137988807Y-65622940D01*
X138004546Y-65675878D01*
X138008668Y-65702011D01*
X138008324Y-65702926D01*
X137994359Y-65724286D01*
X137962678Y-65771284D01*
X137916609Y-65839027D01*
X137859482Y-65922623D01*
X137794627Y-66017182D01*
X137776157Y-66044054D01*
X137710301Y-66141475D01*
X137652350Y-66230363D01*
X137605462Y-66305612D01*
X137572793Y-66362120D01*
X137557500Y-66394781D01*
X137556759Y-66398793D01*
X137569608Y-66419884D01*
X137605112Y-66461664D01*
X137658707Y-66519645D01*
X137725829Y-66589335D01*
X137801913Y-66666245D01*
X137882396Y-66745883D01*
X137962713Y-66823761D01*
X138038301Y-66895386D01*
X138104595Y-66956270D01*
X138157031Y-67001921D01*
X138191045Y-67027850D01*
X138200455Y-67032083D01*
X138222357Y-67022112D01*
X138267200Y-66995220D01*
X138327679Y-66955936D01*
X138374211Y-66924317D01*
X138458525Y-66866298D01*
X138558374Y-66797984D01*
X138658527Y-66729779D01*
X138712373Y-66693275D01*
X138894629Y-66570000D01*
X139047619Y-66652720D01*
X139117318Y-66688959D01*
X139176586Y-66717126D01*
X139216689Y-66733191D01*
X139226897Y-66735426D01*
X139239171Y-66718922D01*
X139263387Y-66672282D01*
X139297737Y-66599809D01*
X139340412Y-66505806D01*
X139389606Y-66394574D01*
X139443510Y-66270415D01*
X139500316Y-66137632D01*
X139558218Y-66000527D01*
X139615407Y-65863402D01*
X139670076Y-65730558D01*
X139720416Y-65606298D01*
X139764620Y-65494925D01*
X139800881Y-65400739D01*
X139827391Y-65328044D01*
X139842342Y-65281141D01*
X139844746Y-65265033D01*
X139825689Y-65244486D01*
X139783964Y-65211133D01*
X139728294Y-65171902D01*
X139723622Y-65168799D01*
X139579736Y-65053623D01*
X139463717Y-64919253D01*
X139376570Y-64769984D01*
X139319301Y-64610113D01*
X139292914Y-64443937D01*
X139298415Y-64275752D01*
X139336810Y-64109855D01*
X139409105Y-63950542D01*
X139430374Y-63915687D01*
X139541004Y-63774937D01*
X139671698Y-63661914D01*
X139817936Y-63577203D01*
X139975192Y-63521394D01*
X140138943Y-63495074D01*
X140304667Y-63498830D01*
X140467838Y-63533250D01*
X140623935Y-63598923D01*
X140768433Y-63696435D01*
X140813131Y-63736013D01*
X140926888Y-63859903D01*
X141009782Y-63990324D01*
X141066644Y-64136515D01*
X141098313Y-64281288D01*
X141106131Y-64444060D01*
X141080062Y-64607640D01*
X141022755Y-64766498D01*
X140936856Y-64915106D01*
X140825014Y-65047935D01*
X140689877Y-65159456D01*
X140672117Y-65171211D01*
X140615850Y-65209708D01*
X140573077Y-65243063D01*
X140552628Y-65264360D01*
X140552331Y-65265033D01*
X140556721Y-65288071D01*
X140574124Y-65340357D01*
X140602732Y-65417590D01*
X140640735Y-65515468D01*
X140686326Y-65629691D01*
X140737697Y-65755958D01*
X140793038Y-65889967D01*
X140850542Y-66027418D01*
X140908399Y-66164008D01*
X140964802Y-66295437D01*
X141017942Y-66417405D01*
X141066010Y-66525609D01*
X141107199Y-66615749D01*
X141139699Y-66683523D01*
X141161703Y-66724630D01*
X141170564Y-66735426D01*
X141197640Y-66727019D01*
X141248303Y-66704472D01*
X141313817Y-66671813D01*
X141349841Y-66652720D01*
X141502832Y-66570000D01*
X141685088Y-66693275D01*
X141778125Y-66756428D01*
X141879985Y-66825927D01*
X141975438Y-66891365D01*
X142023250Y-66924317D01*
X142090495Y-66969473D01*
X142147436Y-67005257D01*
X142186646Y-67027138D01*
X142199381Y-67031763D01*
X142217917Y-67019285D01*
X142258941Y-66984452D01*
X142318475Y-66930878D01*
X142392542Y-66862183D01*
X142477165Y-66781981D01*
X142530685Y-66730486D01*
X142624319Y-66638486D01*
X142705241Y-66556199D01*
X142770177Y-66487145D01*
X142815858Y-66434844D01*
X142839011Y-66402816D01*
X142841232Y-66396316D01*
X142830924Y-66371594D01*
X142802439Y-66321605D01*
X142758937Y-66251412D01*
X142703577Y-66166075D01*
X142639520Y-66070656D01*
X142621303Y-66044054D01*
X142554927Y-65947367D01*
X142495378Y-65860317D01*
X142445984Y-65787795D01*
X142410075Y-65734693D01*
X142390981Y-65705903D01*
X142389136Y-65702926D01*
X142391895Y-65679982D01*
X142406538Y-65629536D01*
X142430513Y-65558241D01*
X142461266Y-65472747D01*
X142496244Y-65379707D01*
X142532893Y-65285774D01*
X142568661Y-65197599D01*
X142600994Y-65121834D01*
X142627338Y-65065131D01*
X142645142Y-65034143D01*
X142646407Y-65032657D01*
X142657294Y-65023801D01*
X142675682Y-65015043D01*
X142705606Y-65005477D01*
X142751103Y-64994196D01*
X142816209Y-64980293D01*
X142904961Y-64962863D01*
X143021393Y-64940998D01*
X143169542Y-64913791D01*
X143201618Y-64907941D01*
X143296686Y-64889574D01*
X143379565Y-64871605D01*
X143442930Y-64855769D01*
X143479458Y-64843800D01*
X143484356Y-64841010D01*
X143492427Y-64816272D01*
X143498987Y-64760990D01*
X143504033Y-64681589D01*
X143507559Y-64584496D01*
X143509561Y-64476138D01*
X143510036Y-64362940D01*
X143508977Y-64251328D01*
X143506382Y-64147729D01*
X143502246Y-64058568D01*
X143496563Y-63990272D01*
X143489331Y-63949266D01*
X143484971Y-63940874D01*
X143460698Y-63932408D01*
X143405426Y-63918635D01*
X143324662Y-63900750D01*
X143223912Y-63879948D01*
X143108683Y-63857423D01*
X143045902Y-63845618D01*
X142926787Y-63823351D01*
X142820565Y-63803179D01*
X142732427Y-63786115D01*
X142667566Y-63773169D01*
X142631174Y-63765355D01*
X142625184Y-63763622D01*
X142615061Y-63744090D01*
X142593662Y-63697043D01*
X142563839Y-63629203D01*
X142528445Y-63547291D01*
X142490332Y-63458028D01*
X142452353Y-63368135D01*
X142417360Y-63284335D01*
X142388206Y-63213347D01*
X142367743Y-63161894D01*
X142358823Y-63136697D01*
X142358657Y-63135596D01*
X142368769Y-63115719D01*
X142397117Y-63069977D01*
X142440723Y-63002917D01*
X142496606Y-62919084D01*
X142561787Y-62823026D01*
X142599679Y-62767850D01*
X142668725Y-62666681D01*
X142730050Y-62574830D01*
X142780663Y-62496944D01*
X142817571Y-62437669D01*
X142837782Y-62401651D01*
X142840701Y-62393577D01*
X142828153Y-62374784D01*
X142793463Y-62334657D01*
X142741063Y-62277693D01*
X142675384Y-62208385D01*
X142600856Y-62131231D01*
X142521913Y-62050725D01*
X142442983Y-61971363D01*
X142368500Y-61897640D01*
X142302894Y-61834052D01*
X142250596Y-61785094D01*
X142216039Y-61755261D01*
X142204478Y-61748142D01*
X142185654Y-61758153D01*
X142140631Y-61786278D01*
X142073787Y-61829654D01*
X141989499Y-61885418D01*
X141892144Y-61950706D01*
X141818707Y-62000446D01*
X141447667Y-62252751D01*
X140829095Y-61997755D01*
X140745275Y-61553131D01*
X140661454Y-61108507D01*
X139736006Y-61108507D01*
X139652186Y-61553131D01*
G37*
X139652186Y-61553131D02*
X139568365Y-61997755D01*
X139259080Y-62125253D01*
X138949794Y-62252751D01*
X138578754Y-62000446D01*
X138474843Y-61930196D01*
X138380913Y-61867472D01*
X138301348Y-61815138D01*
X138240530Y-61776057D01*
X138202843Y-61753093D01*
X138192579Y-61748142D01*
X138174090Y-61760876D01*
X138134580Y-61796082D01*
X138078478Y-61849262D01*
X138010213Y-61915918D01*
X137934214Y-61991554D01*
X137854908Y-62071672D01*
X137776725Y-62151774D01*
X137704093Y-62227364D01*
X137641441Y-62293945D01*
X137593197Y-62347018D01*
X137563790Y-62382087D01*
X137556759Y-62393823D01*
X137566877Y-62415460D01*
X137595241Y-62462862D01*
X137638871Y-62531393D01*
X137694782Y-62616415D01*
X137759994Y-62713293D01*
X137797781Y-62768550D01*
X137866657Y-62869448D01*
X137927860Y-62960499D01*
X137978422Y-63037170D01*
X138015372Y-63094928D01*
X138035742Y-63129243D01*
X138038803Y-63136454D01*
X138031864Y-63156948D01*
X138012949Y-63204713D01*
X137984913Y-63273032D01*
X137950609Y-63355189D01*
X137912891Y-63444470D01*
X137874613Y-63534158D01*
X137838630Y-63617538D01*
X137807794Y-63687894D01*
X137784961Y-63738510D01*
X137772983Y-63762671D01*
X137772276Y-63763622D01*
X137753469Y-63768236D01*
X137703382Y-63778528D01*
X137627207Y-63793487D01*
X137530135Y-63812101D01*
X137417357Y-63833359D01*
X137351558Y-63845618D01*
X137231050Y-63868562D01*
X137122203Y-63890395D01*
X137030524Y-63909922D01*
X136961519Y-63925948D01*
X136920696Y-63937279D01*
X136912489Y-63940874D01*
X136904452Y-63965206D01*
X136897967Y-64020159D01*
X136893030Y-64099308D01*
X136889636Y-64196226D01*
X136887782Y-64304487D01*
X136887462Y-64417665D01*
X136888673Y-64529335D01*
X136891410Y-64633068D01*
X136895669Y-64722441D01*
X136901445Y-64791026D01*
X136908733Y-64832397D01*
X136913105Y-64841010D01*
X136939236Y-64851333D01*
X136994607Y-64866092D01*
X137071893Y-64883552D01*
X137163770Y-64901980D01*
X137195842Y-64907941D01*
X137350476Y-64936266D01*
X137472625Y-64959076D01*
X137566327Y-64977280D01*
X137635616Y-64991783D01*
X137684529Y-65003492D01*
X137717103Y-65013315D01*
X137737372Y-65022156D01*
X137749374Y-65030924D01*
X137751053Y-65032657D01*
X137767816Y-65060571D01*
X137793386Y-65114895D01*
X137825212Y-65188977D01*
X137860740Y-65276165D01*
X137897417Y-65369808D01*
X137932689Y-65463252D01*
X137964004Y-65549847D01*
X137988807Y-65622940D01*
X138004546Y-65675878D01*
X138008668Y-65702011D01*
X138008324Y-65702926D01*
X137994359Y-65724286D01*
X137962678Y-65771284D01*
X137916609Y-65839027D01*
X137859482Y-65922623D01*
X137794627Y-66017182D01*
X137776157Y-66044054D01*
X137710301Y-66141475D01*
X137652350Y-66230363D01*
X137605462Y-66305612D01*
X137572793Y-66362120D01*
X137557500Y-66394781D01*
X137556759Y-66398793D01*
X137569608Y-66419884D01*
X137605112Y-66461664D01*
X137658707Y-66519645D01*
X137725829Y-66589335D01*
X137801913Y-66666245D01*
X137882396Y-66745883D01*
X137962713Y-66823761D01*
X138038301Y-66895386D01*
X138104595Y-66956270D01*
X138157031Y-67001921D01*
X138191045Y-67027850D01*
X138200455Y-67032083D01*
X138222357Y-67022112D01*
X138267200Y-66995220D01*
X138327679Y-66955936D01*
X138374211Y-66924317D01*
X138458525Y-66866298D01*
X138558374Y-66797984D01*
X138658527Y-66729779D01*
X138712373Y-66693275D01*
X138894629Y-66570000D01*
X139047619Y-66652720D01*
X139117318Y-66688959D01*
X139176586Y-66717126D01*
X139216689Y-66733191D01*
X139226897Y-66735426D01*
X139239171Y-66718922D01*
X139263387Y-66672282D01*
X139297737Y-66599809D01*
X139340412Y-66505806D01*
X139389606Y-66394574D01*
X139443510Y-66270415D01*
X139500316Y-66137632D01*
X139558218Y-66000527D01*
X139615407Y-65863402D01*
X139670076Y-65730558D01*
X139720416Y-65606298D01*
X139764620Y-65494925D01*
X139800881Y-65400739D01*
X139827391Y-65328044D01*
X139842342Y-65281141D01*
X139844746Y-65265033D01*
X139825689Y-65244486D01*
X139783964Y-65211133D01*
X139728294Y-65171902D01*
X139723622Y-65168799D01*
X139579736Y-65053623D01*
X139463717Y-64919253D01*
X139376570Y-64769984D01*
X139319301Y-64610113D01*
X139292914Y-64443937D01*
X139298415Y-64275752D01*
X139336810Y-64109855D01*
X139409105Y-63950542D01*
X139430374Y-63915687D01*
X139541004Y-63774937D01*
X139671698Y-63661914D01*
X139817936Y-63577203D01*
X139975192Y-63521394D01*
X140138943Y-63495074D01*
X140304667Y-63498830D01*
X140467838Y-63533250D01*
X140623935Y-63598923D01*
X140768433Y-63696435D01*
X140813131Y-63736013D01*
X140926888Y-63859903D01*
X141009782Y-63990324D01*
X141066644Y-64136515D01*
X141098313Y-64281288D01*
X141106131Y-64444060D01*
X141080062Y-64607640D01*
X141022755Y-64766498D01*
X140936856Y-64915106D01*
X140825014Y-65047935D01*
X140689877Y-65159456D01*
X140672117Y-65171211D01*
X140615850Y-65209708D01*
X140573077Y-65243063D01*
X140552628Y-65264360D01*
X140552331Y-65265033D01*
X140556721Y-65288071D01*
X140574124Y-65340357D01*
X140602732Y-65417590D01*
X140640735Y-65515468D01*
X140686326Y-65629691D01*
X140737697Y-65755958D01*
X140793038Y-65889967D01*
X140850542Y-66027418D01*
X140908399Y-66164008D01*
X140964802Y-66295437D01*
X141017942Y-66417405D01*
X141066010Y-66525609D01*
X141107199Y-66615749D01*
X141139699Y-66683523D01*
X141161703Y-66724630D01*
X141170564Y-66735426D01*
X141197640Y-66727019D01*
X141248303Y-66704472D01*
X141313817Y-66671813D01*
X141349841Y-66652720D01*
X141502832Y-66570000D01*
X141685088Y-66693275D01*
X141778125Y-66756428D01*
X141879985Y-66825927D01*
X141975438Y-66891365D01*
X142023250Y-66924317D01*
X142090495Y-66969473D01*
X142147436Y-67005257D01*
X142186646Y-67027138D01*
X142199381Y-67031763D01*
X142217917Y-67019285D01*
X142258941Y-66984452D01*
X142318475Y-66930878D01*
X142392542Y-66862183D01*
X142477165Y-66781981D01*
X142530685Y-66730486D01*
X142624319Y-66638486D01*
X142705241Y-66556199D01*
X142770177Y-66487145D01*
X142815858Y-66434844D01*
X142839011Y-66402816D01*
X142841232Y-66396316D01*
X142830924Y-66371594D01*
X142802439Y-66321605D01*
X142758937Y-66251412D01*
X142703577Y-66166075D01*
X142639520Y-66070656D01*
X142621303Y-66044054D01*
X142554927Y-65947367D01*
X142495378Y-65860317D01*
X142445984Y-65787795D01*
X142410075Y-65734693D01*
X142390981Y-65705903D01*
X142389136Y-65702926D01*
X142391895Y-65679982D01*
X142406538Y-65629536D01*
X142430513Y-65558241D01*
X142461266Y-65472747D01*
X142496244Y-65379707D01*
X142532893Y-65285774D01*
X142568661Y-65197599D01*
X142600994Y-65121834D01*
X142627338Y-65065131D01*
X142645142Y-65034143D01*
X142646407Y-65032657D01*
X142657294Y-65023801D01*
X142675682Y-65015043D01*
X142705606Y-65005477D01*
X142751103Y-64994196D01*
X142816209Y-64980293D01*
X142904961Y-64962863D01*
X143021393Y-64940998D01*
X143169542Y-64913791D01*
X143201618Y-64907941D01*
X143296686Y-64889574D01*
X143379565Y-64871605D01*
X143442930Y-64855769D01*
X143479458Y-64843800D01*
X143484356Y-64841010D01*
X143492427Y-64816272D01*
X143498987Y-64760990D01*
X143504033Y-64681589D01*
X143507559Y-64584496D01*
X143509561Y-64476138D01*
X143510036Y-64362940D01*
X143508977Y-64251328D01*
X143506382Y-64147729D01*
X143502246Y-64058568D01*
X143496563Y-63990272D01*
X143489331Y-63949266D01*
X143484971Y-63940874D01*
X143460698Y-63932408D01*
X143405426Y-63918635D01*
X143324662Y-63900750D01*
X143223912Y-63879948D01*
X143108683Y-63857423D01*
X143045902Y-63845618D01*
X142926787Y-63823351D01*
X142820565Y-63803179D01*
X142732427Y-63786115D01*
X142667566Y-63773169D01*
X142631174Y-63765355D01*
X142625184Y-63763622D01*
X142615061Y-63744090D01*
X142593662Y-63697043D01*
X142563839Y-63629203D01*
X142528445Y-63547291D01*
X142490332Y-63458028D01*
X142452353Y-63368135D01*
X142417360Y-63284335D01*
X142388206Y-63213347D01*
X142367743Y-63161894D01*
X142358823Y-63136697D01*
X142358657Y-63135596D01*
X142368769Y-63115719D01*
X142397117Y-63069977D01*
X142440723Y-63002917D01*
X142496606Y-62919084D01*
X142561787Y-62823026D01*
X142599679Y-62767850D01*
X142668725Y-62666681D01*
X142730050Y-62574830D01*
X142780663Y-62496944D01*
X142817571Y-62437669D01*
X142837782Y-62401651D01*
X142840701Y-62393577D01*
X142828153Y-62374784D01*
X142793463Y-62334657D01*
X142741063Y-62277693D01*
X142675384Y-62208385D01*
X142600856Y-62131231D01*
X142521913Y-62050725D01*
X142442983Y-61971363D01*
X142368500Y-61897640D01*
X142302894Y-61834052D01*
X142250596Y-61785094D01*
X142216039Y-61755261D01*
X142204478Y-61748142D01*
X142185654Y-61758153D01*
X142140631Y-61786278D01*
X142073787Y-61829654D01*
X141989499Y-61885418D01*
X141892144Y-61950706D01*
X141818707Y-62000446D01*
X141447667Y-62252751D01*
X140829095Y-61997755D01*
X140745275Y-61553131D01*
X140661454Y-61108507D01*
X139736006Y-61108507D01*
X139652186Y-61553131D01*
%TD*%
M02*
