%TF.GenerationSoftware,KiCad,Pcbnew,5.1.6-c6e7f7d~87~ubuntu18.04.1*%
%TF.CreationDate,2020-10-24T13:07:53-07:00*%
%TF.ProjectId,feather-power-supply-sw-smd-adj,66656174-6865-4722-9d70-6f7765722d73,rev?*%
%TF.SameCoordinates,Original*%
%TF.FileFunction,Soldermask,Bot*%
%TF.FilePolarity,Negative*%
%FSLAX46Y46*%
G04 Gerber Fmt 4.6, Leading zero omitted, Abs format (unit mm)*
G04 Created by KiCad (PCBNEW 5.1.6-c6e7f7d~87~ubuntu18.04.1) date 2020-10-24 13:07:53*
%MOMM*%
%LPD*%
G01*
G04 APERTURE LIST*
%ADD10C,0.150000*%
%ADD11C,1.625600*%
%ADD12O,1.801600X1.801600*%
%ADD13R,1.801600X1.801600*%
%ADD14C,2.801600*%
%ADD15R,2.701600X2.701600*%
%ADD16C,2.701600*%
%ADD17C,5.101600*%
G04 APERTURE END LIST*
D10*
X145248366Y-100128866D02*
X144772175Y-100128866D01*
X145379318Y-100414580D02*
X144920985Y-99414580D01*
X144712651Y-100414580D01*
X144295985Y-99747914D02*
X144379318Y-100414580D01*
X144307889Y-99843152D02*
X144254318Y-99795533D01*
X144153127Y-99747914D01*
X144010270Y-99747914D01*
X143920985Y-99795533D01*
X143885270Y-99890771D01*
X143950747Y-100414580D01*
X143045985Y-100414580D02*
X142980508Y-99890771D01*
X143016223Y-99795533D01*
X143105508Y-99747914D01*
X143295985Y-99747914D01*
X143397175Y-99795533D01*
X143040032Y-100366961D02*
X143141223Y-100414580D01*
X143379318Y-100414580D01*
X143468604Y-100366961D01*
X143504318Y-100271723D01*
X143492413Y-100176485D01*
X143432889Y-100081247D01*
X143331699Y-100033628D01*
X143093604Y-100033628D01*
X142992413Y-99986009D01*
X142486461Y-99747914D02*
X142611461Y-100747914D01*
X142492413Y-99795533D02*
X142391223Y-99747914D01*
X142200747Y-99747914D01*
X142111461Y-99795533D01*
X142069794Y-99843152D01*
X142034080Y-99938390D01*
X142069794Y-100224104D01*
X142129318Y-100319342D01*
X142182889Y-100366961D01*
X142284080Y-100414580D01*
X142474556Y-100414580D01*
X142563842Y-100366961D01*
X141522175Y-100414580D02*
X141611461Y-100366961D01*
X141653127Y-100319342D01*
X141688842Y-100224104D01*
X141653127Y-99938390D01*
X141593604Y-99843152D01*
X141540032Y-99795533D01*
X141438842Y-99747914D01*
X141295985Y-99747914D01*
X141206699Y-99795533D01*
X141165032Y-99843152D01*
X141129318Y-99938390D01*
X141165032Y-100224104D01*
X141224556Y-100319342D01*
X141278127Y-100366961D01*
X141379318Y-100414580D01*
X141522175Y-100414580D01*
X140801937Y-100366961D02*
X140712651Y-100414580D01*
X140522175Y-100414580D01*
X140420985Y-100366961D01*
X140361461Y-100271723D01*
X140355508Y-100224104D01*
X140391223Y-100128866D01*
X140480508Y-100081247D01*
X140623366Y-100081247D01*
X140712651Y-100033628D01*
X140748366Y-99938390D01*
X140742413Y-99890771D01*
X140682889Y-99795533D01*
X140581699Y-99747914D01*
X140438842Y-99747914D01*
X140349556Y-99795533D01*
X139230508Y-100366961D02*
X139093604Y-100414580D01*
X138855508Y-100414580D01*
X138754318Y-100366961D01*
X138700747Y-100319342D01*
X138641223Y-100224104D01*
X138629318Y-100128866D01*
X138665032Y-100033628D01*
X138706699Y-99986009D01*
X138795985Y-99938390D01*
X138980508Y-99890771D01*
X139069794Y-99843152D01*
X139111461Y-99795533D01*
X139147175Y-99700295D01*
X139135270Y-99605057D01*
X139075747Y-99509819D01*
X139022175Y-99462200D01*
X138920985Y-99414580D01*
X138682889Y-99414580D01*
X138545985Y-99462200D01*
X137849556Y-100366961D02*
X137950747Y-100414580D01*
X138141223Y-100414580D01*
X138230508Y-100366961D01*
X138266223Y-100271723D01*
X138218604Y-99890771D01*
X138159080Y-99795533D01*
X138057889Y-99747914D01*
X137867413Y-99747914D01*
X137778127Y-99795533D01*
X137742413Y-99890771D01*
X137754318Y-99986009D01*
X138242413Y-100081247D01*
X137295985Y-99747914D02*
X137379318Y-100414580D01*
X137307889Y-99843152D02*
X137254318Y-99795533D01*
X137153127Y-99747914D01*
X137010270Y-99747914D01*
X136920985Y-99795533D01*
X136885270Y-99890771D01*
X136950747Y-100414580D01*
X136516223Y-100366961D02*
X136426937Y-100414580D01*
X136236461Y-100414580D01*
X136135270Y-100366961D01*
X136075747Y-100271723D01*
X136069794Y-100224104D01*
X136105508Y-100128866D01*
X136194794Y-100081247D01*
X136337651Y-100081247D01*
X136426937Y-100033628D01*
X136462651Y-99938390D01*
X136456699Y-99890771D01*
X136397175Y-99795533D01*
X136295985Y-99747914D01*
X136153127Y-99747914D01*
X136063842Y-99795533D01*
X135665032Y-100414580D02*
X135581699Y-99747914D01*
X135540032Y-99414580D02*
X135593604Y-99462200D01*
X135551937Y-99509819D01*
X135498366Y-99462200D01*
X135540032Y-99414580D01*
X135551937Y-99509819D01*
X135105508Y-99747914D02*
X135188842Y-100414580D01*
X135117413Y-99843152D02*
X135063842Y-99795533D01*
X134962651Y-99747914D01*
X134819794Y-99747914D01*
X134730508Y-99795533D01*
X134694794Y-99890771D01*
X134760270Y-100414580D01*
X133772175Y-99747914D02*
X133873366Y-100557438D01*
X133932889Y-100652676D01*
X133986461Y-100700295D01*
X134087651Y-100747914D01*
X134230508Y-100747914D01*
X134319794Y-100700295D01*
X133849556Y-100366961D02*
X133950747Y-100414580D01*
X134141223Y-100414580D01*
X134230508Y-100366961D01*
X134272175Y-100319342D01*
X134307889Y-100224104D01*
X134272175Y-99938390D01*
X134212651Y-99843152D01*
X134159080Y-99795533D01*
X134057889Y-99747914D01*
X133867413Y-99747914D01*
X133778127Y-99795533D01*
X143093604Y-102064580D02*
X143028127Y-101540771D01*
X143063842Y-101445533D01*
X143153127Y-101397914D01*
X143343604Y-101397914D01*
X143444794Y-101445533D01*
X143087651Y-102016961D02*
X143188842Y-102064580D01*
X143426937Y-102064580D01*
X143516223Y-102016961D01*
X143551937Y-101921723D01*
X143540032Y-101826485D01*
X143480508Y-101731247D01*
X143379318Y-101683628D01*
X143141223Y-101683628D01*
X143040032Y-101636009D01*
X142534080Y-101397914D02*
X142617413Y-102064580D01*
X142545985Y-101493152D02*
X142492413Y-101445533D01*
X142391223Y-101397914D01*
X142248366Y-101397914D01*
X142159080Y-101445533D01*
X142123366Y-101540771D01*
X142188842Y-102064580D01*
X141284080Y-102064580D02*
X141159080Y-101064580D01*
X141278127Y-102016961D02*
X141379318Y-102064580D01*
X141569794Y-102064580D01*
X141659080Y-102016961D01*
X141700747Y-101969342D01*
X141736461Y-101874104D01*
X141700747Y-101588390D01*
X141641223Y-101493152D01*
X141587651Y-101445533D01*
X141486461Y-101397914D01*
X141295985Y-101397914D01*
X141206699Y-101445533D01*
X140045985Y-102064580D02*
X139920985Y-101064580D01*
X139682889Y-101064580D01*
X139545985Y-101112200D01*
X139462651Y-101207438D01*
X139426937Y-101302676D01*
X139403127Y-101493152D01*
X139420985Y-101636009D01*
X139492413Y-101826485D01*
X139551937Y-101921723D01*
X139659080Y-102016961D01*
X139807889Y-102064580D01*
X140045985Y-102064580D01*
X138659080Y-102016961D02*
X138760270Y-102064580D01*
X138950747Y-102064580D01*
X139040032Y-102016961D01*
X139075747Y-101921723D01*
X139028127Y-101540771D01*
X138968604Y-101445533D01*
X138867413Y-101397914D01*
X138676937Y-101397914D01*
X138587651Y-101445533D01*
X138551937Y-101540771D01*
X138563842Y-101636009D01*
X139051937Y-101731247D01*
X138230508Y-102016961D02*
X138141223Y-102064580D01*
X137950747Y-102064580D01*
X137849556Y-102016961D01*
X137790032Y-101921723D01*
X137784080Y-101874104D01*
X137819794Y-101778866D01*
X137909080Y-101731247D01*
X138051937Y-101731247D01*
X138141223Y-101683628D01*
X138176937Y-101588390D01*
X138170985Y-101540771D01*
X138111461Y-101445533D01*
X138010270Y-101397914D01*
X137867413Y-101397914D01*
X137778127Y-101445533D01*
X137379318Y-102064580D02*
X137295985Y-101397914D01*
X137254318Y-101064580D02*
X137307889Y-101112200D01*
X137266223Y-101159819D01*
X137212651Y-101112200D01*
X137254318Y-101064580D01*
X137266223Y-101159819D01*
X136391223Y-101397914D02*
X136492413Y-102207438D01*
X136551937Y-102302676D01*
X136605508Y-102350295D01*
X136706699Y-102397914D01*
X136849556Y-102397914D01*
X136938842Y-102350295D01*
X136468604Y-102016961D02*
X136569794Y-102064580D01*
X136760270Y-102064580D01*
X136849556Y-102016961D01*
X136891223Y-101969342D01*
X136926937Y-101874104D01*
X136891223Y-101588390D01*
X136831699Y-101493152D01*
X136778127Y-101445533D01*
X136676937Y-101397914D01*
X136486461Y-101397914D01*
X136397175Y-101445533D01*
X135915032Y-101397914D02*
X135998366Y-102064580D01*
X135926937Y-101493152D02*
X135873366Y-101445533D01*
X135772175Y-101397914D01*
X135629318Y-101397914D01*
X135540032Y-101445533D01*
X135504318Y-101540771D01*
X135569794Y-102064580D01*
D11*
%TO.C,SW1*%
X145095600Y-96494600D03*
X142595600Y-96494600D03*
X140095600Y-96494600D03*
%TD*%
D12*
%TO.C,J2*%
X129565400Y-104089200D03*
X129565400Y-101549200D03*
X129565400Y-99009200D03*
X129565400Y-96469200D03*
X129565400Y-93929200D03*
X129565400Y-91389200D03*
X129565400Y-88849200D03*
X129565400Y-86309200D03*
X129565400Y-83769200D03*
X129565400Y-81229200D03*
X129565400Y-78689200D03*
X129565400Y-76149200D03*
X129565400Y-73609200D03*
X129565400Y-71069200D03*
X129565400Y-68529200D03*
D13*
X129565400Y-65989200D03*
%TD*%
D14*
%TO.C,H3*%
X148615400Y-107010200D03*
%TD*%
%TO.C,H4*%
X130810000Y-107010200D03*
%TD*%
D12*
%TO.C,J4*%
X137922000Y-70231000D03*
X140462000Y-70231000D03*
X143002000Y-70231000D03*
D13*
X145542000Y-70231000D03*
%TD*%
D15*
%TO.C,J5*%
X137160000Y-104775000D03*
D16*
X142160000Y-104775000D03*
%TD*%
D17*
%TO.C,H2*%
X148615400Y-61671200D03*
%TD*%
%TO.C,H1*%
X130810000Y-61696600D03*
%TD*%
D13*
%TO.C,J1*%
X149860000Y-76200000D03*
D12*
X149860000Y-78740000D03*
X149860000Y-81280000D03*
X149860000Y-83820000D03*
X149860000Y-86360000D03*
X149860000Y-88900000D03*
X149860000Y-91440000D03*
X149860000Y-93980000D03*
X149860000Y-96520000D03*
X149860000Y-99060000D03*
X149860000Y-101600000D03*
X149860000Y-104140000D03*
%TD*%
M02*
