M48
; DRILL file {KiCad 5.1.6-c6e7f7d~87~ubuntu18.04.1} date Sat Oct 24 16:34:08 2020
; FORMAT={-:-/ absolute / inch / decimal}
; #@! TF.CreationDate,2020-10-24T16:34:08-07:00
; #@! TF.GenerationSoftware,Kicad,Pcbnew,5.1.6-c6e7f7d~87~ubuntu18.04.1
FMAT,2
INCH
T1C0.0130
T2C0.0217
T3C0.0394
T4C0.0512
T5C0.0984
T6C0.1063
%
G90
G05
T1
X5.149Y-2.951
X5.15Y-2.849
X5.173Y-3.069
X5.175Y-3.245
X5.19Y-3.924
X5.2Y-2.57
X5.2Y-2.62
X5.22Y-4.28
X5.25Y-2.57
X5.25Y-2.62
X5.275Y-2.978
X5.28Y-4.28
X5.3Y-2.362
X5.3Y-2.415
X5.3Y-2.465
X5.3Y-2.515
X5.3Y-2.57
X5.3Y-2.62
X5.3Y-2.67
X5.3Y-2.72
X5.325Y-2.775
X5.34Y-4.28
X5.3513Y-2.362
X5.38Y-3.3
X5.38Y-3.33
X5.38Y-3.36
X5.38Y-3.39
X5.38Y-3.42
X5.38Y-3.45
X5.4025Y-2.362
X5.41Y-4.28
X5.42Y-3.696
X5.432Y-2.847
X5.45Y-3.09
X5.45Y-3.12
X5.4538Y-2.362
X5.455Y-3.59
X5.47Y-3.295
X5.47Y-3.374
X5.4759Y-4.28
X5.505Y-2.362
X5.505Y-2.895
X5.509Y-3.453
X5.509Y-3.484
X5.511Y-3.528
X5.511Y-3.563
X5.54Y-3.095
X5.54Y-4.28
X5.546Y-3.589
X5.555Y-2.895
X5.5562Y-2.362
X5.565Y-3.755
X5.571Y-3.291
X5.595Y-3.095
X5.6Y-4.28
X5.6075Y-2.362
X5.611Y-3.695
X5.6587Y-2.362
X5.66Y-4.28
X5.663Y-3.291
X5.664Y-3.754
X5.709Y-3.025
X5.71Y-2.362
X5.71Y-2.415
X5.71Y-2.465
X5.71Y-2.515
X5.71Y-2.57
X5.72Y-4.28
X5.744Y-2.89
X5.755Y-2.57
X5.755Y-2.62
X5.78Y-4.28
X5.805Y-2.57
X5.805Y-2.62
X5.855Y-2.57
X5.855Y-2.62
X5.855Y-2.67
X5.855Y-2.72
X5.855Y-2.765
X5.855Y-2.815
X5.855Y-2.865
X5.855Y-2.915
X5.9Y-2.57
X5.9Y-2.62
X5.9Y-2.67
X5.9Y-2.72
X5.9Y-2.765
X5.9Y-2.815
X5.9Y-2.865
X5.9Y-2.915
T2
X5.5156Y-3.799
X5.614Y-3.799
X5.7124Y-3.799
T3
X5.43Y-2.765
X5.53Y-2.765
X5.63Y-2.765
X5.73Y-2.765
X5.101Y-2.598
X5.101Y-2.698
X5.101Y-2.798
X5.101Y-2.898
X5.101Y-2.998
X5.101Y-3.098
X5.101Y-3.198
X5.101Y-3.298
X5.101Y-3.398
X5.101Y-3.498
X5.101Y-3.598
X5.101Y-3.698
X5.101Y-3.798
X5.101Y-3.898
X5.101Y-3.998
X5.101Y-4.098
X5.9Y-3.0
X5.9Y-3.1
X5.9Y-3.2
X5.9Y-3.3
X5.9Y-3.4
X5.9Y-3.5
X5.9Y-3.6
X5.9Y-3.7
X5.9Y-3.8
X5.9Y-3.9
X5.9Y-4.0
X5.9Y-4.1
T4
X5.4Y-4.125
X5.5969Y-4.125
T5
X5.15Y-2.429
X5.851Y-2.428
T6
X5.15Y-4.213
X5.851Y-4.213
T0
M30
