%TF.GenerationSoftware,KiCad,Pcbnew,5.1.6-c6e7f7d~87~ubuntu18.04.1*%
%TF.CreationDate,2020-10-12T14:40:45-07:00*%
%TF.ProjectId,feather-power-supply-sw-smd-adj,66656174-6865-4722-9d70-6f7765722d73,rev?*%
%TF.SameCoordinates,Original*%
%TF.FileFunction,Paste,Top*%
%TF.FilePolarity,Positive*%
%FSLAX46Y46*%
G04 Gerber Fmt 4.6, Leading zero omitted, Abs format (unit mm)*
G04 Created by KiCad (PCBNEW 5.1.6-c6e7f7d~87~ubuntu18.04.1) date 2020-10-12 14:40:45*
%MOMM*%
%LPD*%
G01*
G04 APERTURE LIST*
%ADD10R,2.387600X1.803400*%
%ADD11R,0.600000X0.450000*%
%ADD12R,0.800000X0.900000*%
%ADD13R,1.100000X1.100000*%
G04 APERTURE END LIST*
%TO.C,C6*%
G36*
G01*
X141566600Y-90992800D02*
X141566600Y-92242800D01*
G75*
G02*
X141316600Y-92492800I-250000J0D01*
G01*
X140391600Y-92492800D01*
G75*
G02*
X140141600Y-92242800I0J250000D01*
G01*
X140141600Y-90992800D01*
G75*
G02*
X140391600Y-90742800I250000J0D01*
G01*
X141316600Y-90742800D01*
G75*
G02*
X141566600Y-90992800I0J-250000D01*
G01*
G37*
G36*
G01*
X144541600Y-90992800D02*
X144541600Y-92242800D01*
G75*
G02*
X144291600Y-92492800I-250000J0D01*
G01*
X143366600Y-92492800D01*
G75*
G02*
X143116600Y-92242800I0J250000D01*
G01*
X143116600Y-90992800D01*
G75*
G02*
X143366600Y-90742800I250000J0D01*
G01*
X144291600Y-90742800D01*
G75*
G02*
X144541600Y-90992800I0J-250000D01*
G01*
G37*
%TD*%
%TO.C,C3*%
G36*
G01*
X134898100Y-87493000D02*
X134898100Y-86243000D01*
G75*
G02*
X135148100Y-85993000I250000J0D01*
G01*
X136073100Y-85993000D01*
G75*
G02*
X136323100Y-86243000I0J-250000D01*
G01*
X136323100Y-87493000D01*
G75*
G02*
X136073100Y-87743000I-250000J0D01*
G01*
X135148100Y-87743000D01*
G75*
G02*
X134898100Y-87493000I0J250000D01*
G01*
G37*
G36*
G01*
X131923100Y-87493000D02*
X131923100Y-86243000D01*
G75*
G02*
X132173100Y-85993000I250000J0D01*
G01*
X133098100Y-85993000D01*
G75*
G02*
X133348100Y-86243000I0J-250000D01*
G01*
X133348100Y-87493000D01*
G75*
G02*
X133098100Y-87743000I-250000J0D01*
G01*
X132173100Y-87743000D01*
G75*
G02*
X131923100Y-87493000I0J250000D01*
G01*
G37*
%TD*%
D10*
%TO.C,L1*%
X143764000Y-86690200D03*
X143764000Y-80695800D03*
%TD*%
%TO.C,R7*%
G36*
G01*
X133700000Y-71636900D02*
X133700000Y-71161900D01*
G75*
G02*
X133937500Y-70924400I237500J0D01*
G01*
X134512500Y-70924400D01*
G75*
G02*
X134750000Y-71161900I0J-237500D01*
G01*
X134750000Y-71636900D01*
G75*
G02*
X134512500Y-71874400I-237500J0D01*
G01*
X133937500Y-71874400D01*
G75*
G02*
X133700000Y-71636900I0J237500D01*
G01*
G37*
G36*
G01*
X131950000Y-71636900D02*
X131950000Y-71161900D01*
G75*
G02*
X132187500Y-70924400I237500J0D01*
G01*
X132762500Y-70924400D01*
G75*
G02*
X133000000Y-71161900I0J-237500D01*
G01*
X133000000Y-71636900D01*
G75*
G02*
X132762500Y-71874400I-237500J0D01*
G01*
X132187500Y-71874400D01*
G75*
G02*
X131950000Y-71636900I0J237500D01*
G01*
G37*
%TD*%
%TO.C,C4*%
G36*
G01*
X136875000Y-79104500D02*
X136875000Y-78629500D01*
G75*
G02*
X137112500Y-78392000I237500J0D01*
G01*
X137687500Y-78392000D01*
G75*
G02*
X137925000Y-78629500I0J-237500D01*
G01*
X137925000Y-79104500D01*
G75*
G02*
X137687500Y-79342000I-237500J0D01*
G01*
X137112500Y-79342000D01*
G75*
G02*
X136875000Y-79104500I0J237500D01*
G01*
G37*
G36*
G01*
X135125000Y-79104500D02*
X135125000Y-78629500D01*
G75*
G02*
X135362500Y-78392000I237500J0D01*
G01*
X135937500Y-78392000D01*
G75*
G02*
X136175000Y-78629500I0J-237500D01*
G01*
X136175000Y-79104500D01*
G75*
G02*
X135937500Y-79342000I-237500J0D01*
G01*
X135362500Y-79342000D01*
G75*
G02*
X135125000Y-79104500I0J237500D01*
G01*
G37*
%TD*%
%TO.C,U1*%
G36*
G01*
X136167400Y-80625200D02*
X136167400Y-80425200D01*
G75*
G02*
X136267400Y-80325200I100000J0D01*
G01*
X137692400Y-80325200D01*
G75*
G02*
X137792400Y-80425200I0J-100000D01*
G01*
X137792400Y-80625200D01*
G75*
G02*
X137692400Y-80725200I-100000J0D01*
G01*
X136267400Y-80725200D01*
G75*
G02*
X136167400Y-80625200I0J100000D01*
G01*
G37*
G36*
G01*
X136167400Y-81275200D02*
X136167400Y-81075200D01*
G75*
G02*
X136267400Y-80975200I100000J0D01*
G01*
X137692400Y-80975200D01*
G75*
G02*
X137792400Y-81075200I0J-100000D01*
G01*
X137792400Y-81275200D01*
G75*
G02*
X137692400Y-81375200I-100000J0D01*
G01*
X136267400Y-81375200D01*
G75*
G02*
X136167400Y-81275200I0J100000D01*
G01*
G37*
G36*
G01*
X136167400Y-81925200D02*
X136167400Y-81725200D01*
G75*
G02*
X136267400Y-81625200I100000J0D01*
G01*
X137692400Y-81625200D01*
G75*
G02*
X137792400Y-81725200I0J-100000D01*
G01*
X137792400Y-81925200D01*
G75*
G02*
X137692400Y-82025200I-100000J0D01*
G01*
X136267400Y-82025200D01*
G75*
G02*
X136167400Y-81925200I0J100000D01*
G01*
G37*
G36*
G01*
X136167400Y-82575200D02*
X136167400Y-82375200D01*
G75*
G02*
X136267400Y-82275200I100000J0D01*
G01*
X137692400Y-82275200D01*
G75*
G02*
X137792400Y-82375200I0J-100000D01*
G01*
X137792400Y-82575200D01*
G75*
G02*
X137692400Y-82675200I-100000J0D01*
G01*
X136267400Y-82675200D01*
G75*
G02*
X136167400Y-82575200I0J100000D01*
G01*
G37*
G36*
G01*
X131942400Y-82575200D02*
X131942400Y-82375200D01*
G75*
G02*
X132042400Y-82275200I100000J0D01*
G01*
X133467400Y-82275200D01*
G75*
G02*
X133567400Y-82375200I0J-100000D01*
G01*
X133567400Y-82575200D01*
G75*
G02*
X133467400Y-82675200I-100000J0D01*
G01*
X132042400Y-82675200D01*
G75*
G02*
X131942400Y-82575200I0J100000D01*
G01*
G37*
G36*
G01*
X131942400Y-81925200D02*
X131942400Y-81725200D01*
G75*
G02*
X132042400Y-81625200I100000J0D01*
G01*
X133467400Y-81625200D01*
G75*
G02*
X133567400Y-81725200I0J-100000D01*
G01*
X133567400Y-81925200D01*
G75*
G02*
X133467400Y-82025200I-100000J0D01*
G01*
X132042400Y-82025200D01*
G75*
G02*
X131942400Y-81925200I0J100000D01*
G01*
G37*
G36*
G01*
X131942400Y-81275200D02*
X131942400Y-81075200D01*
G75*
G02*
X132042400Y-80975200I100000J0D01*
G01*
X133467400Y-80975200D01*
G75*
G02*
X133567400Y-81075200I0J-100000D01*
G01*
X133567400Y-81275200D01*
G75*
G02*
X133467400Y-81375200I-100000J0D01*
G01*
X132042400Y-81375200D01*
G75*
G02*
X131942400Y-81275200I0J100000D01*
G01*
G37*
G36*
G01*
X131942400Y-80625200D02*
X131942400Y-80425200D01*
G75*
G02*
X132042400Y-80325200I100000J0D01*
G01*
X133467400Y-80325200D01*
G75*
G02*
X133567400Y-80425200I0J-100000D01*
G01*
X133567400Y-80625200D01*
G75*
G02*
X133467400Y-80725200I-100000J0D01*
G01*
X132042400Y-80725200D01*
G75*
G02*
X131942400Y-80625200I0J100000D01*
G01*
G37*
%TD*%
%TO.C,R4*%
G36*
G01*
X137256000Y-92693500D02*
X137256000Y-92218500D01*
G75*
G02*
X137493500Y-91981000I237500J0D01*
G01*
X138068500Y-91981000D01*
G75*
G02*
X138306000Y-92218500I0J-237500D01*
G01*
X138306000Y-92693500D01*
G75*
G02*
X138068500Y-92931000I-237500J0D01*
G01*
X137493500Y-92931000D01*
G75*
G02*
X137256000Y-92693500I0J237500D01*
G01*
G37*
G36*
G01*
X135506000Y-92693500D02*
X135506000Y-92218500D01*
G75*
G02*
X135743500Y-91981000I237500J0D01*
G01*
X136318500Y-91981000D01*
G75*
G02*
X136556000Y-92218500I0J-237500D01*
G01*
X136556000Y-92693500D01*
G75*
G02*
X136318500Y-92931000I-237500J0D01*
G01*
X135743500Y-92931000D01*
G75*
G02*
X135506000Y-92693500I0J237500D01*
G01*
G37*
%TD*%
%TO.C,R1*%
G36*
G01*
X133674600Y-89061300D02*
X133674600Y-88586300D01*
G75*
G02*
X133912100Y-88348800I237500J0D01*
G01*
X134487100Y-88348800D01*
G75*
G02*
X134724600Y-88586300I0J-237500D01*
G01*
X134724600Y-89061300D01*
G75*
G02*
X134487100Y-89298800I-237500J0D01*
G01*
X133912100Y-89298800D01*
G75*
G02*
X133674600Y-89061300I0J237500D01*
G01*
G37*
G36*
G01*
X131924600Y-89061300D02*
X131924600Y-88586300D01*
G75*
G02*
X132162100Y-88348800I237500J0D01*
G01*
X132737100Y-88348800D01*
G75*
G02*
X132974600Y-88586300I0J-237500D01*
G01*
X132974600Y-89061300D01*
G75*
G02*
X132737100Y-89298800I-237500J0D01*
G01*
X132162100Y-89298800D01*
G75*
G02*
X131924600Y-89061300I0J237500D01*
G01*
G37*
%TD*%
D11*
%TO.C,D2*%
X134323800Y-90601800D03*
X132223800Y-90601800D03*
%TD*%
%TO.C,C5*%
G36*
G01*
X141555500Y-88656000D02*
X141555500Y-89906000D01*
G75*
G02*
X141305500Y-90156000I-250000J0D01*
G01*
X140380500Y-90156000D01*
G75*
G02*
X140130500Y-89906000I0J250000D01*
G01*
X140130500Y-88656000D01*
G75*
G02*
X140380500Y-88406000I250000J0D01*
G01*
X141305500Y-88406000D01*
G75*
G02*
X141555500Y-88656000I0J-250000D01*
G01*
G37*
G36*
G01*
X144530500Y-88656000D02*
X144530500Y-89906000D01*
G75*
G02*
X144280500Y-90156000I-250000J0D01*
G01*
X143355500Y-90156000D01*
G75*
G02*
X143105500Y-89906000I0J250000D01*
G01*
X143105500Y-88656000D01*
G75*
G02*
X143355500Y-88406000I250000J0D01*
G01*
X144280500Y-88406000D01*
G75*
G02*
X144530500Y-88656000I0J-250000D01*
G01*
G37*
%TD*%
%TO.C,C2*%
G36*
G01*
X134887000Y-85156200D02*
X134887000Y-83906200D01*
G75*
G02*
X135137000Y-83656200I250000J0D01*
G01*
X136062000Y-83656200D01*
G75*
G02*
X136312000Y-83906200I0J-250000D01*
G01*
X136312000Y-85156200D01*
G75*
G02*
X136062000Y-85406200I-250000J0D01*
G01*
X135137000Y-85406200D01*
G75*
G02*
X134887000Y-85156200I0J250000D01*
G01*
G37*
G36*
G01*
X131912000Y-85156200D02*
X131912000Y-83906200D01*
G75*
G02*
X132162000Y-83656200I250000J0D01*
G01*
X133087000Y-83656200D01*
G75*
G02*
X133337000Y-83906200I0J-250000D01*
G01*
X133337000Y-85156200D01*
G75*
G02*
X133087000Y-85406200I-250000J0D01*
G01*
X132162000Y-85406200D01*
G75*
G02*
X131912000Y-85156200I0J250000D01*
G01*
G37*
%TD*%
%TO.C,J3*%
G36*
G01*
X138643000Y-61355999D02*
X138643000Y-62656001D01*
G75*
G02*
X138393001Y-62906000I-249999J0D01*
G01*
X137692999Y-62906000D01*
G75*
G02*
X137443000Y-62656001I0J249999D01*
G01*
X137443000Y-61355999D01*
G75*
G02*
X137692999Y-61106000I249999J0D01*
G01*
X138393001Y-61106000D01*
G75*
G02*
X138643000Y-61355999I0J-249999D01*
G01*
G37*
G36*
G01*
X144243000Y-61355999D02*
X144243000Y-62656001D01*
G75*
G02*
X143993001Y-62906000I-249999J0D01*
G01*
X143292999Y-62906000D01*
G75*
G02*
X143043000Y-62656001I0J249999D01*
G01*
X143043000Y-61355999D01*
G75*
G02*
X143292999Y-61106000I249999J0D01*
G01*
X143993001Y-61106000D01*
G75*
G02*
X144243000Y-61355999I0J-249999D01*
G01*
G37*
G36*
G01*
X139643000Y-65256000D02*
X139643000Y-66506000D01*
G75*
G02*
X139493000Y-66656000I-150000J0D01*
G01*
X139193000Y-66656000D01*
G75*
G02*
X139043000Y-66506000I0J150000D01*
G01*
X139043000Y-65256000D01*
G75*
G02*
X139193000Y-65106000I150000J0D01*
G01*
X139493000Y-65106000D01*
G75*
G02*
X139643000Y-65256000I0J-150000D01*
G01*
G37*
G36*
G01*
X140643000Y-65256000D02*
X140643000Y-66506000D01*
G75*
G02*
X140493000Y-66656000I-150000J0D01*
G01*
X140193000Y-66656000D01*
G75*
G02*
X140043000Y-66506000I0J150000D01*
G01*
X140043000Y-65256000D01*
G75*
G02*
X140193000Y-65106000I150000J0D01*
G01*
X140493000Y-65106000D01*
G75*
G02*
X140643000Y-65256000I0J-150000D01*
G01*
G37*
G36*
G01*
X141643000Y-65256000D02*
X141643000Y-66506000D01*
G75*
G02*
X141493000Y-66656000I-150000J0D01*
G01*
X141193000Y-66656000D01*
G75*
G02*
X141043000Y-66506000I0J150000D01*
G01*
X141043000Y-65256000D01*
G75*
G02*
X141193000Y-65106000I150000J0D01*
G01*
X141493000Y-65106000D01*
G75*
G02*
X141643000Y-65256000I0J-150000D01*
G01*
G37*
G36*
G01*
X142643000Y-65256000D02*
X142643000Y-66506000D01*
G75*
G02*
X142493000Y-66656000I-150000J0D01*
G01*
X142193000Y-66656000D01*
G75*
G02*
X142043000Y-66506000I0J150000D01*
G01*
X142043000Y-65256000D01*
G75*
G02*
X142193000Y-65106000I150000J0D01*
G01*
X142493000Y-65106000D01*
G75*
G02*
X142643000Y-65256000I0J-150000D01*
G01*
G37*
%TD*%
D12*
%TO.C,Q1*%
X133426200Y-94421200D03*
X132476200Y-92421200D03*
X134376200Y-92421200D03*
%TD*%
%TO.C,R2*%
G36*
G01*
X139604000Y-73371700D02*
X139604000Y-73846700D01*
G75*
G02*
X139366500Y-74084200I-237500J0D01*
G01*
X138791500Y-74084200D01*
G75*
G02*
X138554000Y-73846700I0J237500D01*
G01*
X138554000Y-73371700D01*
G75*
G02*
X138791500Y-73134200I237500J0D01*
G01*
X139366500Y-73134200D01*
G75*
G02*
X139604000Y-73371700I0J-237500D01*
G01*
G37*
G36*
G01*
X141354000Y-73371700D02*
X141354000Y-73846700D01*
G75*
G02*
X141116500Y-74084200I-237500J0D01*
G01*
X140541500Y-74084200D01*
G75*
G02*
X140304000Y-73846700I0J237500D01*
G01*
X140304000Y-73371700D01*
G75*
G02*
X140541500Y-73134200I237500J0D01*
G01*
X141116500Y-73134200D01*
G75*
G02*
X141354000Y-73371700I0J-237500D01*
G01*
G37*
%TD*%
%TO.C,D3*%
G36*
G01*
X139908000Y-75063400D02*
X139908000Y-75863400D01*
G75*
G02*
X139658000Y-76113400I-250000J0D01*
G01*
X138833000Y-76113400D01*
G75*
G02*
X138583000Y-75863400I0J250000D01*
G01*
X138583000Y-75063400D01*
G75*
G02*
X138833000Y-74813400I250000J0D01*
G01*
X139658000Y-74813400D01*
G75*
G02*
X139908000Y-75063400I0J-250000D01*
G01*
G37*
G36*
G01*
X141833000Y-75063400D02*
X141833000Y-75863400D01*
G75*
G02*
X141583000Y-76113400I-250000J0D01*
G01*
X140758000Y-76113400D01*
G75*
G02*
X140508000Y-75863400I0J250000D01*
G01*
X140508000Y-75063400D01*
G75*
G02*
X140758000Y-74813400I250000J0D01*
G01*
X141583000Y-74813400D01*
G75*
G02*
X141833000Y-75063400I0J-250000D01*
G01*
G37*
%TD*%
%TO.C,F1*%
G36*
G01*
X135887400Y-95704200D02*
X135887400Y-98504200D01*
G75*
G02*
X135637400Y-98754200I-250000J0D01*
G01*
X134662400Y-98754200D01*
G75*
G02*
X134412400Y-98504200I0J250000D01*
G01*
X134412400Y-95704200D01*
G75*
G02*
X134662400Y-95454200I250000J0D01*
G01*
X135637400Y-95454200D01*
G75*
G02*
X135887400Y-95704200I0J-250000D01*
G01*
G37*
G36*
G01*
X140212400Y-95704200D02*
X140212400Y-98504200D01*
G75*
G02*
X139962400Y-98754200I-250000J0D01*
G01*
X138987400Y-98754200D01*
G75*
G02*
X138737400Y-98504200I0J250000D01*
G01*
X138737400Y-95704200D01*
G75*
G02*
X138987400Y-95454200I250000J0D01*
G01*
X139962400Y-95454200D01*
G75*
G02*
X140212400Y-95704200I0J-250000D01*
G01*
G37*
%TD*%
%TO.C,R5*%
G36*
G01*
X132698500Y-77628000D02*
X132223500Y-77628000D01*
G75*
G02*
X131986000Y-77390500I0J237500D01*
G01*
X131986000Y-76815500D01*
G75*
G02*
X132223500Y-76578000I237500J0D01*
G01*
X132698500Y-76578000D01*
G75*
G02*
X132936000Y-76815500I0J-237500D01*
G01*
X132936000Y-77390500D01*
G75*
G02*
X132698500Y-77628000I-237500J0D01*
G01*
G37*
G36*
G01*
X132698500Y-79378000D02*
X132223500Y-79378000D01*
G75*
G02*
X131986000Y-79140500I0J237500D01*
G01*
X131986000Y-78565500D01*
G75*
G02*
X132223500Y-78328000I237500J0D01*
G01*
X132698500Y-78328000D01*
G75*
G02*
X132936000Y-78565500I0J-237500D01*
G01*
X132936000Y-79140500D01*
G75*
G02*
X132698500Y-79378000I-237500J0D01*
G01*
G37*
%TD*%
D13*
%TO.C,D1*%
X146685000Y-92078000D03*
X146685000Y-89278000D03*
%TD*%
%TO.C,R3*%
G36*
G01*
X133747500Y-78328000D02*
X134222500Y-78328000D01*
G75*
G02*
X134460000Y-78565500I0J-237500D01*
G01*
X134460000Y-79140500D01*
G75*
G02*
X134222500Y-79378000I-237500J0D01*
G01*
X133747500Y-79378000D01*
G75*
G02*
X133510000Y-79140500I0J237500D01*
G01*
X133510000Y-78565500D01*
G75*
G02*
X133747500Y-78328000I237500J0D01*
G01*
G37*
G36*
G01*
X133747500Y-76578000D02*
X134222500Y-76578000D01*
G75*
G02*
X134460000Y-76815500I0J-237500D01*
G01*
X134460000Y-77390500D01*
G75*
G02*
X134222500Y-77628000I-237500J0D01*
G01*
X133747500Y-77628000D01*
G75*
G02*
X133510000Y-77390500I0J237500D01*
G01*
X133510000Y-76815500D01*
G75*
G02*
X133747500Y-76578000I237500J0D01*
G01*
G37*
%TD*%
%TO.C,C1*%
G36*
G01*
X138700500Y-81757000D02*
X139175500Y-81757000D01*
G75*
G02*
X139413000Y-81994500I0J-237500D01*
G01*
X139413000Y-82569500D01*
G75*
G02*
X139175500Y-82807000I-237500J0D01*
G01*
X138700500Y-82807000D01*
G75*
G02*
X138463000Y-82569500I0J237500D01*
G01*
X138463000Y-81994500D01*
G75*
G02*
X138700500Y-81757000I237500J0D01*
G01*
G37*
G36*
G01*
X138700500Y-80007000D02*
X139175500Y-80007000D01*
G75*
G02*
X139413000Y-80244500I0J-237500D01*
G01*
X139413000Y-80819500D01*
G75*
G02*
X139175500Y-81057000I-237500J0D01*
G01*
X138700500Y-81057000D01*
G75*
G02*
X138463000Y-80819500I0J237500D01*
G01*
X138463000Y-80244500D01*
G75*
G02*
X138700500Y-80007000I237500J0D01*
G01*
G37*
%TD*%
%TO.C,R6*%
G36*
G01*
X133700000Y-73160900D02*
X133700000Y-72685900D01*
G75*
G02*
X133937500Y-72448400I237500J0D01*
G01*
X134512500Y-72448400D01*
G75*
G02*
X134750000Y-72685900I0J-237500D01*
G01*
X134750000Y-73160900D01*
G75*
G02*
X134512500Y-73398400I-237500J0D01*
G01*
X133937500Y-73398400D01*
G75*
G02*
X133700000Y-73160900I0J237500D01*
G01*
G37*
G36*
G01*
X131950000Y-73160900D02*
X131950000Y-72685900D01*
G75*
G02*
X132187500Y-72448400I237500J0D01*
G01*
X132762500Y-72448400D01*
G75*
G02*
X133000000Y-72685900I0J-237500D01*
G01*
X133000000Y-73160900D01*
G75*
G02*
X132762500Y-73398400I-237500J0D01*
G01*
X132187500Y-73398400D01*
G75*
G02*
X131950000Y-73160900I0J237500D01*
G01*
G37*
%TD*%
M02*
