%TF.GenerationSoftware,KiCad,Pcbnew,5.1.6-c6e7f7d~87~ubuntu18.04.1*%
%TF.CreationDate,2020-10-12T11:29:30-07:00*%
%TF.ProjectId,feather-power-supply-sw-smd-adj,66656174-6865-4722-9d70-6f7765722d73,rev?*%
%TF.SameCoordinates,Original*%
%TF.FileFunction,Copper,L1,Top*%
%TF.FilePolarity,Positive*%
%FSLAX46Y46*%
G04 Gerber Fmt 4.6, Leading zero omitted, Abs format (unit mm)*
G04 Created by KiCad (PCBNEW 5.1.6-c6e7f7d~87~ubuntu18.04.1) date 2020-10-12 11:29:30*
%MOMM*%
%LPD*%
G01*
G04 APERTURE LIST*
%TA.AperFunction,EtchedComponent*%
%ADD10C,0.100000*%
%TD*%
%TA.AperFunction,SMDPad,CuDef*%
%ADD11R,2.387600X1.803400*%
%TD*%
%TA.AperFunction,ComponentPad*%
%ADD12O,1.700000X1.700000*%
%TD*%
%TA.AperFunction,ComponentPad*%
%ADD13R,1.700000X1.700000*%
%TD*%
%TA.AperFunction,SMDPad,CuDef*%
%ADD14R,0.600000X0.450000*%
%TD*%
%TA.AperFunction,SMDPad,CuDef*%
%ADD15R,0.800000X0.900000*%
%TD*%
%TA.AperFunction,ComponentPad*%
%ADD16R,2.600000X2.600000*%
%TD*%
%TA.AperFunction,ComponentPad*%
%ADD17C,2.600000*%
%TD*%
%TA.AperFunction,ComponentPad*%
%ADD18C,5.000000*%
%TD*%
%TA.AperFunction,SMDPad,CuDef*%
%ADD19C,0.100000*%
%TD*%
%TA.AperFunction,SMDPad,CuDef*%
%ADD20R,1.100000X1.100000*%
%TD*%
%TA.AperFunction,ViaPad*%
%ADD21C,0.685800*%
%TD*%
%TA.AperFunction,Conductor*%
%ADD22C,0.609600*%
%TD*%
%TA.AperFunction,Conductor*%
%ADD23C,0.304800*%
%TD*%
%TA.AperFunction,Conductor*%
%ADD24C,1.524000*%
%TD*%
%TA.AperFunction,Conductor*%
%ADD25C,1.219200*%
%TD*%
%TA.AperFunction,Conductor*%
%ADD26C,0.254000*%
%TD*%
G04 APERTURE END LIST*
D10*
%TO.C,JP1*%
G36*
X133600000Y-74680800D02*
G01*
X133100000Y-74680800D01*
X133100000Y-75280800D01*
X133600000Y-75280800D01*
X133600000Y-74680800D01*
G37*
%TD*%
D11*
%TO.P,L1,2*%
%TO.N,+5.3V*%
X143764000Y-86690200D03*
%TO.P,L1,1*%
%TO.N,Net-(C1-Pad2)*%
X143764000Y-80695800D03*
%TD*%
D12*
%TO.P,J2,16*%
%TO.N,Net-(J2-Pad16)*%
X129565400Y-104089200D03*
%TO.P,J2,15*%
%TO.N,Net-(J2-Pad15)*%
X129565400Y-101549200D03*
%TO.P,J2,14*%
%TO.N,Net-(J2-Pad14)*%
X129565400Y-99009200D03*
%TO.P,J2,13*%
%TO.N,Net-(J2-Pad13)*%
X129565400Y-96469200D03*
%TO.P,J2,12*%
%TO.N,Net-(J2-Pad12)*%
X129565400Y-93929200D03*
%TO.P,J2,11*%
%TO.N,Net-(J2-Pad11)*%
X129565400Y-91389200D03*
%TO.P,J2,10*%
%TO.N,Net-(J2-Pad10)*%
X129565400Y-88849200D03*
%TO.P,J2,9*%
%TO.N,Net-(J2-Pad9)*%
X129565400Y-86309200D03*
%TO.P,J2,8*%
%TO.N,Net-(J2-Pad8)*%
X129565400Y-83769200D03*
%TO.P,J2,7*%
%TO.N,Net-(J2-Pad7)*%
X129565400Y-81229200D03*
%TO.P,J2,6*%
%TO.N,A1*%
X129565400Y-78689200D03*
%TO.P,J2,5*%
%TO.N,Net-(J2-Pad5)*%
X129565400Y-76149200D03*
%TO.P,J2,4*%
%TO.N,GND*%
X129565400Y-73609200D03*
%TO.P,J2,3*%
%TO.N,Net-(J2-Pad3)*%
X129565400Y-71069200D03*
%TO.P,J2,2*%
%TO.N,Net-(J2-Pad2)*%
X129565400Y-68529200D03*
D13*
%TO.P,J2,1*%
%TO.N,Net-(J2-Pad1)*%
X129565400Y-65989200D03*
%TD*%
%TO.P,R7,2*%
%TO.N,GND*%
%TA.AperFunction,SMDPad,CuDef*%
G36*
G01*
X133700000Y-71636900D02*
X133700000Y-71161900D01*
G75*
G02*
X133937500Y-70924400I237500J0D01*
G01*
X134512500Y-70924400D01*
G75*
G02*
X134750000Y-71161900I0J-237500D01*
G01*
X134750000Y-71636900D01*
G75*
G02*
X134512500Y-71874400I-237500J0D01*
G01*
X133937500Y-71874400D01*
G75*
G02*
X133700000Y-71636900I0J237500D01*
G01*
G37*
%TD.AperFunction*%
%TO.P,R7,1*%
%TO.N,A1*%
%TA.AperFunction,SMDPad,CuDef*%
G36*
G01*
X131950000Y-71636900D02*
X131950000Y-71161900D01*
G75*
G02*
X132187500Y-70924400I237500J0D01*
G01*
X132762500Y-70924400D01*
G75*
G02*
X133000000Y-71161900I0J-237500D01*
G01*
X133000000Y-71636900D01*
G75*
G02*
X132762500Y-71874400I-237500J0D01*
G01*
X132187500Y-71874400D01*
G75*
G02*
X131950000Y-71636900I0J237500D01*
G01*
G37*
%TD.AperFunction*%
%TD*%
%TO.P,C4,2*%
%TO.N,GND*%
%TA.AperFunction,SMDPad,CuDef*%
G36*
G01*
X136875000Y-79104500D02*
X136875000Y-78629500D01*
G75*
G02*
X137112500Y-78392000I237500J0D01*
G01*
X137687500Y-78392000D01*
G75*
G02*
X137925000Y-78629500I0J-237500D01*
G01*
X137925000Y-79104500D01*
G75*
G02*
X137687500Y-79342000I-237500J0D01*
G01*
X137112500Y-79342000D01*
G75*
G02*
X136875000Y-79104500I0J237500D01*
G01*
G37*
%TD.AperFunction*%
%TO.P,C4,1*%
%TO.N,Net-(C4-Pad1)*%
%TA.AperFunction,SMDPad,CuDef*%
G36*
G01*
X135125000Y-79104500D02*
X135125000Y-78629500D01*
G75*
G02*
X135362500Y-78392000I237500J0D01*
G01*
X135937500Y-78392000D01*
G75*
G02*
X136175000Y-78629500I0J-237500D01*
G01*
X136175000Y-79104500D01*
G75*
G02*
X135937500Y-79342000I-237500J0D01*
G01*
X135362500Y-79342000D01*
G75*
G02*
X135125000Y-79104500I0J237500D01*
G01*
G37*
%TD.AperFunction*%
%TD*%
%TO.P,U1,8*%
%TO.N,GND*%
%TA.AperFunction,SMDPad,CuDef*%
G36*
G01*
X136167400Y-80625200D02*
X136167400Y-80425200D01*
G75*
G02*
X136267400Y-80325200I100000J0D01*
G01*
X137692400Y-80325200D01*
G75*
G02*
X137792400Y-80425200I0J-100000D01*
G01*
X137792400Y-80625200D01*
G75*
G02*
X137692400Y-80725200I-100000J0D01*
G01*
X136267400Y-80725200D01*
G75*
G02*
X136167400Y-80625200I0J100000D01*
G01*
G37*
%TD.AperFunction*%
%TO.P,U1,7*%
%TO.N,Net-(C1-Pad1)*%
%TA.AperFunction,SMDPad,CuDef*%
G36*
G01*
X136167400Y-81275200D02*
X136167400Y-81075200D01*
G75*
G02*
X136267400Y-80975200I100000J0D01*
G01*
X137692400Y-80975200D01*
G75*
G02*
X137792400Y-81075200I0J-100000D01*
G01*
X137792400Y-81275200D01*
G75*
G02*
X137692400Y-81375200I-100000J0D01*
G01*
X136267400Y-81375200D01*
G75*
G02*
X136167400Y-81275200I0J100000D01*
G01*
G37*
%TD.AperFunction*%
%TO.P,U1,6*%
%TO.N,Net-(C1-Pad2)*%
%TA.AperFunction,SMDPad,CuDef*%
G36*
G01*
X136167400Y-81925200D02*
X136167400Y-81725200D01*
G75*
G02*
X136267400Y-81625200I100000J0D01*
G01*
X137692400Y-81625200D01*
G75*
G02*
X137792400Y-81725200I0J-100000D01*
G01*
X137792400Y-81925200D01*
G75*
G02*
X137692400Y-82025200I-100000J0D01*
G01*
X136267400Y-82025200D01*
G75*
G02*
X136167400Y-81925200I0J100000D01*
G01*
G37*
%TD.AperFunction*%
%TO.P,U1,5*%
%TO.N,GND*%
%TA.AperFunction,SMDPad,CuDef*%
G36*
G01*
X136167400Y-82575200D02*
X136167400Y-82375200D01*
G75*
G02*
X136267400Y-82275200I100000J0D01*
G01*
X137692400Y-82275200D01*
G75*
G02*
X137792400Y-82375200I0J-100000D01*
G01*
X137792400Y-82575200D01*
G75*
G02*
X137692400Y-82675200I-100000J0D01*
G01*
X136267400Y-82675200D01*
G75*
G02*
X136167400Y-82575200I0J100000D01*
G01*
G37*
%TD.AperFunction*%
%TO.P,U1,4*%
%TO.N,VIN_SW*%
%TA.AperFunction,SMDPad,CuDef*%
G36*
G01*
X131942400Y-82575200D02*
X131942400Y-82375200D01*
G75*
G02*
X132042400Y-82275200I100000J0D01*
G01*
X133467400Y-82275200D01*
G75*
G02*
X133567400Y-82375200I0J-100000D01*
G01*
X133567400Y-82575200D01*
G75*
G02*
X133467400Y-82675200I-100000J0D01*
G01*
X132042400Y-82675200D01*
G75*
G02*
X131942400Y-82575200I0J100000D01*
G01*
G37*
%TD.AperFunction*%
%TO.P,U1,3*%
%TO.N,Net-(R1-Pad2)*%
%TA.AperFunction,SMDPad,CuDef*%
G36*
G01*
X131942400Y-81925200D02*
X131942400Y-81725200D01*
G75*
G02*
X132042400Y-81625200I100000J0D01*
G01*
X133467400Y-81625200D01*
G75*
G02*
X133567400Y-81725200I0J-100000D01*
G01*
X133567400Y-81925200D01*
G75*
G02*
X133467400Y-82025200I-100000J0D01*
G01*
X132042400Y-82025200D01*
G75*
G02*
X131942400Y-81925200I0J100000D01*
G01*
G37*
%TD.AperFunction*%
%TO.P,U1,2*%
%TO.N,Net-(C4-Pad1)*%
%TA.AperFunction,SMDPad,CuDef*%
G36*
G01*
X131942400Y-81275200D02*
X131942400Y-81075200D01*
G75*
G02*
X132042400Y-80975200I100000J0D01*
G01*
X133467400Y-80975200D01*
G75*
G02*
X133567400Y-81075200I0J-100000D01*
G01*
X133567400Y-81275200D01*
G75*
G02*
X133467400Y-81375200I-100000J0D01*
G01*
X132042400Y-81375200D01*
G75*
G02*
X131942400Y-81275200I0J100000D01*
G01*
G37*
%TD.AperFunction*%
%TO.P,U1,1*%
%TO.N,Net-(R3-Pad2)*%
%TA.AperFunction,SMDPad,CuDef*%
G36*
G01*
X131942400Y-80625200D02*
X131942400Y-80425200D01*
G75*
G02*
X132042400Y-80325200I100000J0D01*
G01*
X133467400Y-80325200D01*
G75*
G02*
X133567400Y-80425200I0J-100000D01*
G01*
X133567400Y-80625200D01*
G75*
G02*
X133467400Y-80725200I-100000J0D01*
G01*
X132042400Y-80725200D01*
G75*
G02*
X131942400Y-80625200I0J100000D01*
G01*
G37*
%TD.AperFunction*%
%TD*%
%TO.P,R4,2*%
%TO.N,GND*%
%TA.AperFunction,SMDPad,CuDef*%
G36*
G01*
X137256000Y-92693500D02*
X137256000Y-92218500D01*
G75*
G02*
X137493500Y-91981000I237500J0D01*
G01*
X138068500Y-91981000D01*
G75*
G02*
X138306000Y-92218500I0J-237500D01*
G01*
X138306000Y-92693500D01*
G75*
G02*
X138068500Y-92931000I-237500J0D01*
G01*
X137493500Y-92931000D01*
G75*
G02*
X137256000Y-92693500I0J237500D01*
G01*
G37*
%TD.AperFunction*%
%TO.P,R4,1*%
%TO.N,Net-(D2-Pad2)*%
%TA.AperFunction,SMDPad,CuDef*%
G36*
G01*
X135506000Y-92693500D02*
X135506000Y-92218500D01*
G75*
G02*
X135743500Y-91981000I237500J0D01*
G01*
X136318500Y-91981000D01*
G75*
G02*
X136556000Y-92218500I0J-237500D01*
G01*
X136556000Y-92693500D01*
G75*
G02*
X136318500Y-92931000I-237500J0D01*
G01*
X135743500Y-92931000D01*
G75*
G02*
X135506000Y-92693500I0J237500D01*
G01*
G37*
%TD.AperFunction*%
%TD*%
%TO.P,R1,2*%
%TO.N,Net-(R1-Pad2)*%
%TA.AperFunction,SMDPad,CuDef*%
G36*
G01*
X133674600Y-89061300D02*
X133674600Y-88586300D01*
G75*
G02*
X133912100Y-88348800I237500J0D01*
G01*
X134487100Y-88348800D01*
G75*
G02*
X134724600Y-88586300I0J-237500D01*
G01*
X134724600Y-89061300D01*
G75*
G02*
X134487100Y-89298800I-237500J0D01*
G01*
X133912100Y-89298800D01*
G75*
G02*
X133674600Y-89061300I0J237500D01*
G01*
G37*
%TD.AperFunction*%
%TO.P,R1,1*%
%TO.N,VIN_SW*%
%TA.AperFunction,SMDPad,CuDef*%
G36*
G01*
X131924600Y-89061300D02*
X131924600Y-88586300D01*
G75*
G02*
X132162100Y-88348800I237500J0D01*
G01*
X132737100Y-88348800D01*
G75*
G02*
X132974600Y-88586300I0J-237500D01*
G01*
X132974600Y-89061300D01*
G75*
G02*
X132737100Y-89298800I-237500J0D01*
G01*
X132162100Y-89298800D01*
G75*
G02*
X131924600Y-89061300I0J237500D01*
G01*
G37*
%TD.AperFunction*%
%TD*%
D14*
%TO.P,D2,2*%
%TO.N,Net-(D2-Pad2)*%
X134323800Y-90601800D03*
%TO.P,D2,1*%
%TO.N,VIN_SW*%
X132223800Y-90601800D03*
%TD*%
%TO.P,C6,2*%
%TO.N,GND*%
%TA.AperFunction,SMDPad,CuDef*%
G36*
G01*
X141592000Y-91196000D02*
X141592000Y-92446000D01*
G75*
G02*
X141342000Y-92696000I-250000J0D01*
G01*
X140417000Y-92696000D01*
G75*
G02*
X140167000Y-92446000I0J250000D01*
G01*
X140167000Y-91196000D01*
G75*
G02*
X140417000Y-90946000I250000J0D01*
G01*
X141342000Y-90946000D01*
G75*
G02*
X141592000Y-91196000I0J-250000D01*
G01*
G37*
%TD.AperFunction*%
%TO.P,C6,1*%
%TO.N,+5.3V*%
%TA.AperFunction,SMDPad,CuDef*%
G36*
G01*
X144567000Y-91196000D02*
X144567000Y-92446000D01*
G75*
G02*
X144317000Y-92696000I-250000J0D01*
G01*
X143392000Y-92696000D01*
G75*
G02*
X143142000Y-92446000I0J250000D01*
G01*
X143142000Y-91196000D01*
G75*
G02*
X143392000Y-90946000I250000J0D01*
G01*
X144317000Y-90946000D01*
G75*
G02*
X144567000Y-91196000I0J-250000D01*
G01*
G37*
%TD.AperFunction*%
%TD*%
%TO.P,C5,2*%
%TO.N,GND*%
%TA.AperFunction,SMDPad,CuDef*%
G36*
G01*
X141555500Y-88656000D02*
X141555500Y-89906000D01*
G75*
G02*
X141305500Y-90156000I-250000J0D01*
G01*
X140380500Y-90156000D01*
G75*
G02*
X140130500Y-89906000I0J250000D01*
G01*
X140130500Y-88656000D01*
G75*
G02*
X140380500Y-88406000I250000J0D01*
G01*
X141305500Y-88406000D01*
G75*
G02*
X141555500Y-88656000I0J-250000D01*
G01*
G37*
%TD.AperFunction*%
%TO.P,C5,1*%
%TO.N,+5.3V*%
%TA.AperFunction,SMDPad,CuDef*%
G36*
G01*
X144530500Y-88656000D02*
X144530500Y-89906000D01*
G75*
G02*
X144280500Y-90156000I-250000J0D01*
G01*
X143355500Y-90156000D01*
G75*
G02*
X143105500Y-89906000I0J250000D01*
G01*
X143105500Y-88656000D01*
G75*
G02*
X143355500Y-88406000I250000J0D01*
G01*
X144280500Y-88406000D01*
G75*
G02*
X144530500Y-88656000I0J-250000D01*
G01*
G37*
%TD.AperFunction*%
%TD*%
%TO.P,C3,2*%
%TO.N,GND*%
%TA.AperFunction,SMDPad,CuDef*%
G36*
G01*
X134898100Y-87518400D02*
X134898100Y-86268400D01*
G75*
G02*
X135148100Y-86018400I250000J0D01*
G01*
X136073100Y-86018400D01*
G75*
G02*
X136323100Y-86268400I0J-250000D01*
G01*
X136323100Y-87518400D01*
G75*
G02*
X136073100Y-87768400I-250000J0D01*
G01*
X135148100Y-87768400D01*
G75*
G02*
X134898100Y-87518400I0J250000D01*
G01*
G37*
%TD.AperFunction*%
%TO.P,C3,1*%
%TO.N,VIN_SW*%
%TA.AperFunction,SMDPad,CuDef*%
G36*
G01*
X131923100Y-87518400D02*
X131923100Y-86268400D01*
G75*
G02*
X132173100Y-86018400I250000J0D01*
G01*
X133098100Y-86018400D01*
G75*
G02*
X133348100Y-86268400I0J-250000D01*
G01*
X133348100Y-87518400D01*
G75*
G02*
X133098100Y-87768400I-250000J0D01*
G01*
X132173100Y-87768400D01*
G75*
G02*
X131923100Y-87518400I0J250000D01*
G01*
G37*
%TD.AperFunction*%
%TD*%
%TO.P,C2,2*%
%TO.N,GND*%
%TA.AperFunction,SMDPad,CuDef*%
G36*
G01*
X134887000Y-85156200D02*
X134887000Y-83906200D01*
G75*
G02*
X135137000Y-83656200I250000J0D01*
G01*
X136062000Y-83656200D01*
G75*
G02*
X136312000Y-83906200I0J-250000D01*
G01*
X136312000Y-85156200D01*
G75*
G02*
X136062000Y-85406200I-250000J0D01*
G01*
X135137000Y-85406200D01*
G75*
G02*
X134887000Y-85156200I0J250000D01*
G01*
G37*
%TD.AperFunction*%
%TO.P,C2,1*%
%TO.N,VIN_SW*%
%TA.AperFunction,SMDPad,CuDef*%
G36*
G01*
X131912000Y-85156200D02*
X131912000Y-83906200D01*
G75*
G02*
X132162000Y-83656200I250000J0D01*
G01*
X133087000Y-83656200D01*
G75*
G02*
X133337000Y-83906200I0J-250000D01*
G01*
X133337000Y-85156200D01*
G75*
G02*
X133087000Y-85406200I-250000J0D01*
G01*
X132162000Y-85406200D01*
G75*
G02*
X131912000Y-85156200I0J250000D01*
G01*
G37*
%TD.AperFunction*%
%TD*%
%TO.P,J3,MP*%
%TO.N,N/C*%
%TA.AperFunction,SMDPad,CuDef*%
G36*
G01*
X138643000Y-61355999D02*
X138643000Y-62656001D01*
G75*
G02*
X138393001Y-62906000I-249999J0D01*
G01*
X137692999Y-62906000D01*
G75*
G02*
X137443000Y-62656001I0J249999D01*
G01*
X137443000Y-61355999D01*
G75*
G02*
X137692999Y-61106000I249999J0D01*
G01*
X138393001Y-61106000D01*
G75*
G02*
X138643000Y-61355999I0J-249999D01*
G01*
G37*
%TD.AperFunction*%
%TA.AperFunction,SMDPad,CuDef*%
G36*
G01*
X144243000Y-61355999D02*
X144243000Y-62656001D01*
G75*
G02*
X143993001Y-62906000I-249999J0D01*
G01*
X143292999Y-62906000D01*
G75*
G02*
X143043000Y-62656001I0J249999D01*
G01*
X143043000Y-61355999D01*
G75*
G02*
X143292999Y-61106000I249999J0D01*
G01*
X143993001Y-61106000D01*
G75*
G02*
X144243000Y-61355999I0J-249999D01*
G01*
G37*
%TD.AperFunction*%
%TO.P,J3,4*%
%TO.N,SDA*%
%TA.AperFunction,SMDPad,CuDef*%
G36*
G01*
X139643000Y-65256000D02*
X139643000Y-66506000D01*
G75*
G02*
X139493000Y-66656000I-150000J0D01*
G01*
X139193000Y-66656000D01*
G75*
G02*
X139043000Y-66506000I0J150000D01*
G01*
X139043000Y-65256000D01*
G75*
G02*
X139193000Y-65106000I150000J0D01*
G01*
X139493000Y-65106000D01*
G75*
G02*
X139643000Y-65256000I0J-150000D01*
G01*
G37*
%TD.AperFunction*%
%TO.P,J3,3*%
%TO.N,SCL*%
%TA.AperFunction,SMDPad,CuDef*%
G36*
G01*
X140643000Y-65256000D02*
X140643000Y-66506000D01*
G75*
G02*
X140493000Y-66656000I-150000J0D01*
G01*
X140193000Y-66656000D01*
G75*
G02*
X140043000Y-66506000I0J150000D01*
G01*
X140043000Y-65256000D01*
G75*
G02*
X140193000Y-65106000I150000J0D01*
G01*
X140493000Y-65106000D01*
G75*
G02*
X140643000Y-65256000I0J-150000D01*
G01*
G37*
%TD.AperFunction*%
%TO.P,J3,2*%
%TO.N,+5V*%
%TA.AperFunction,SMDPad,CuDef*%
G36*
G01*
X141643000Y-65256000D02*
X141643000Y-66506000D01*
G75*
G02*
X141493000Y-66656000I-150000J0D01*
G01*
X141193000Y-66656000D01*
G75*
G02*
X141043000Y-66506000I0J150000D01*
G01*
X141043000Y-65256000D01*
G75*
G02*
X141193000Y-65106000I150000J0D01*
G01*
X141493000Y-65106000D01*
G75*
G02*
X141643000Y-65256000I0J-150000D01*
G01*
G37*
%TD.AperFunction*%
%TO.P,J3,1*%
%TO.N,GND*%
%TA.AperFunction,SMDPad,CuDef*%
G36*
G01*
X142643000Y-65256000D02*
X142643000Y-66506000D01*
G75*
G02*
X142493000Y-66656000I-150000J0D01*
G01*
X142193000Y-66656000D01*
G75*
G02*
X142043000Y-66506000I0J150000D01*
G01*
X142043000Y-65256000D01*
G75*
G02*
X142193000Y-65106000I150000J0D01*
G01*
X142493000Y-65106000D01*
G75*
G02*
X142643000Y-65256000I0J-150000D01*
G01*
G37*
%TD.AperFunction*%
%TD*%
D15*
%TO.P,Q1,3*%
%TO.N,Net-(F1-Pad2)*%
X133426200Y-94421200D03*
%TO.P,Q1,2*%
%TO.N,VIN_SW*%
X132476200Y-92421200D03*
%TO.P,Q1,1*%
%TO.N,Net-(D2-Pad2)*%
X134376200Y-92421200D03*
%TD*%
%TO.P,R2,2*%
%TO.N,Net-(D3-Pad2)*%
%TA.AperFunction,SMDPad,CuDef*%
G36*
G01*
X139604000Y-73371700D02*
X139604000Y-73846700D01*
G75*
G02*
X139366500Y-74084200I-237500J0D01*
G01*
X138791500Y-74084200D01*
G75*
G02*
X138554000Y-73846700I0J237500D01*
G01*
X138554000Y-73371700D01*
G75*
G02*
X138791500Y-73134200I237500J0D01*
G01*
X139366500Y-73134200D01*
G75*
G02*
X139604000Y-73371700I0J-237500D01*
G01*
G37*
%TD.AperFunction*%
%TO.P,R2,1*%
%TO.N,+5V*%
%TA.AperFunction,SMDPad,CuDef*%
G36*
G01*
X141354000Y-73371700D02*
X141354000Y-73846700D01*
G75*
G02*
X141116500Y-74084200I-237500J0D01*
G01*
X140541500Y-74084200D01*
G75*
G02*
X140304000Y-73846700I0J237500D01*
G01*
X140304000Y-73371700D01*
G75*
G02*
X140541500Y-73134200I237500J0D01*
G01*
X141116500Y-73134200D01*
G75*
G02*
X141354000Y-73371700I0J-237500D01*
G01*
G37*
%TD.AperFunction*%
%TD*%
%TO.P,D3,2*%
%TO.N,Net-(D3-Pad2)*%
%TA.AperFunction,SMDPad,CuDef*%
G36*
G01*
X139908000Y-75063400D02*
X139908000Y-75863400D01*
G75*
G02*
X139658000Y-76113400I-250000J0D01*
G01*
X138833000Y-76113400D01*
G75*
G02*
X138583000Y-75863400I0J250000D01*
G01*
X138583000Y-75063400D01*
G75*
G02*
X138833000Y-74813400I250000J0D01*
G01*
X139658000Y-74813400D01*
G75*
G02*
X139908000Y-75063400I0J-250000D01*
G01*
G37*
%TD.AperFunction*%
%TO.P,D3,1*%
%TO.N,GND*%
%TA.AperFunction,SMDPad,CuDef*%
G36*
G01*
X141833000Y-75063400D02*
X141833000Y-75863400D01*
G75*
G02*
X141583000Y-76113400I-250000J0D01*
G01*
X140758000Y-76113400D01*
G75*
G02*
X140508000Y-75863400I0J250000D01*
G01*
X140508000Y-75063400D01*
G75*
G02*
X140758000Y-74813400I250000J0D01*
G01*
X141583000Y-74813400D01*
G75*
G02*
X141833000Y-75063400I0J-250000D01*
G01*
G37*
%TD.AperFunction*%
%TD*%
D12*
%TO.P,J4,4*%
%TO.N,SDA*%
X137922000Y-70231000D03*
%TO.P,J4,3*%
%TO.N,SCL*%
X140462000Y-70231000D03*
%TO.P,J4,2*%
%TO.N,+5V*%
X143002000Y-70231000D03*
D13*
%TO.P,J4,1*%
%TO.N,GND*%
X145542000Y-70231000D03*
%TD*%
D16*
%TO.P,J5,1*%
%TO.N,GND*%
X137160000Y-104775000D03*
D17*
%TO.P,J5,2*%
%TO.N,VCC*%
X142160000Y-104775000D03*
%TD*%
%TO.P,F1,2*%
%TO.N,Net-(F1-Pad2)*%
%TA.AperFunction,SMDPad,CuDef*%
G36*
G01*
X135887400Y-95704200D02*
X135887400Y-98504200D01*
G75*
G02*
X135637400Y-98754200I-250000J0D01*
G01*
X134662400Y-98754200D01*
G75*
G02*
X134412400Y-98504200I0J250000D01*
G01*
X134412400Y-95704200D01*
G75*
G02*
X134662400Y-95454200I250000J0D01*
G01*
X135637400Y-95454200D01*
G75*
G02*
X135887400Y-95704200I0J-250000D01*
G01*
G37*
%TD.AperFunction*%
%TO.P,F1,1*%
%TO.N,VCC*%
%TA.AperFunction,SMDPad,CuDef*%
G36*
G01*
X140212400Y-95704200D02*
X140212400Y-98504200D01*
G75*
G02*
X139962400Y-98754200I-250000J0D01*
G01*
X138987400Y-98754200D01*
G75*
G02*
X138737400Y-98504200I0J250000D01*
G01*
X138737400Y-95704200D01*
G75*
G02*
X138987400Y-95454200I250000J0D01*
G01*
X139962400Y-95454200D01*
G75*
G02*
X140212400Y-95704200I0J-250000D01*
G01*
G37*
%TD.AperFunction*%
%TD*%
D18*
%TO.P,H2,1*%
%TO.N,GND*%
X148615400Y-61671200D03*
%TD*%
%TO.P,H1,1*%
%TO.N,GND*%
X130810000Y-61696600D03*
%TD*%
%TA.AperFunction,SMDPad,CuDef*%
D19*
%TO.P,JP1,1*%
%TO.N,VIN_SW*%
G36*
X133200000Y-75730800D02*
G01*
X132700000Y-75730800D01*
X132700000Y-75730198D01*
X132675466Y-75730198D01*
X132626635Y-75725388D01*
X132578510Y-75715816D01*
X132531555Y-75701572D01*
X132486222Y-75682795D01*
X132442949Y-75659664D01*
X132402150Y-75632404D01*
X132364221Y-75601276D01*
X132329524Y-75566579D01*
X132298396Y-75528650D01*
X132271136Y-75487851D01*
X132248005Y-75444578D01*
X132229228Y-75399245D01*
X132214984Y-75352290D01*
X132205412Y-75304165D01*
X132200602Y-75255334D01*
X132200602Y-75230800D01*
X132200000Y-75230800D01*
X132200000Y-74730800D01*
X132200602Y-74730800D01*
X132200602Y-74706266D01*
X132205412Y-74657435D01*
X132214984Y-74609310D01*
X132229228Y-74562355D01*
X132248005Y-74517022D01*
X132271136Y-74473749D01*
X132298396Y-74432950D01*
X132329524Y-74395021D01*
X132364221Y-74360324D01*
X132402150Y-74329196D01*
X132442949Y-74301936D01*
X132486222Y-74278805D01*
X132531555Y-74260028D01*
X132578510Y-74245784D01*
X132626635Y-74236212D01*
X132675466Y-74231402D01*
X132700000Y-74231402D01*
X132700000Y-74230800D01*
X133200000Y-74230800D01*
X133200000Y-75730800D01*
G37*
%TD.AperFunction*%
%TA.AperFunction,SMDPad,CuDef*%
%TO.P,JP1,2*%
%TO.N,Net-(JP1-Pad2)*%
G36*
X134000000Y-74231402D02*
G01*
X134024534Y-74231402D01*
X134073365Y-74236212D01*
X134121490Y-74245784D01*
X134168445Y-74260028D01*
X134213778Y-74278805D01*
X134257051Y-74301936D01*
X134297850Y-74329196D01*
X134335779Y-74360324D01*
X134370476Y-74395021D01*
X134401604Y-74432950D01*
X134428864Y-74473749D01*
X134451995Y-74517022D01*
X134470772Y-74562355D01*
X134485016Y-74609310D01*
X134494588Y-74657435D01*
X134499398Y-74706266D01*
X134499398Y-74730800D01*
X134500000Y-74730800D01*
X134500000Y-75230800D01*
X134499398Y-75230800D01*
X134499398Y-75255334D01*
X134494588Y-75304165D01*
X134485016Y-75352290D01*
X134470772Y-75399245D01*
X134451995Y-75444578D01*
X134428864Y-75487851D01*
X134401604Y-75528650D01*
X134370476Y-75566579D01*
X134335779Y-75601276D01*
X134297850Y-75632404D01*
X134257051Y-75659664D01*
X134213778Y-75682795D01*
X134168445Y-75701572D01*
X134121490Y-75715816D01*
X134073365Y-75725388D01*
X134024534Y-75730198D01*
X134000000Y-75730198D01*
X134000000Y-75730800D01*
X133500000Y-75730800D01*
X133500000Y-74230800D01*
X134000000Y-74230800D01*
X134000000Y-74231402D01*
G37*
%TD.AperFunction*%
%TD*%
%TO.P,R5,2*%
%TO.N,GND*%
%TA.AperFunction,SMDPad,CuDef*%
G36*
G01*
X132698500Y-77628000D02*
X132223500Y-77628000D01*
G75*
G02*
X131986000Y-77390500I0J237500D01*
G01*
X131986000Y-76815500D01*
G75*
G02*
X132223500Y-76578000I237500J0D01*
G01*
X132698500Y-76578000D01*
G75*
G02*
X132936000Y-76815500I0J-237500D01*
G01*
X132936000Y-77390500D01*
G75*
G02*
X132698500Y-77628000I-237500J0D01*
G01*
G37*
%TD.AperFunction*%
%TO.P,R5,1*%
%TO.N,Net-(R3-Pad2)*%
%TA.AperFunction,SMDPad,CuDef*%
G36*
G01*
X132698500Y-79378000D02*
X132223500Y-79378000D01*
G75*
G02*
X131986000Y-79140500I0J237500D01*
G01*
X131986000Y-78565500D01*
G75*
G02*
X132223500Y-78328000I237500J0D01*
G01*
X132698500Y-78328000D01*
G75*
G02*
X132936000Y-78565500I0J-237500D01*
G01*
X132936000Y-79140500D01*
G75*
G02*
X132698500Y-79378000I-237500J0D01*
G01*
G37*
%TD.AperFunction*%
%TD*%
D20*
%TO.P,D1,2*%
%TO.N,+5.3V*%
X146685000Y-92078000D03*
%TO.P,D1,1*%
%TO.N,+5V*%
X146685000Y-89278000D03*
%TD*%
%TO.P,R3,2*%
%TO.N,Net-(R3-Pad2)*%
%TA.AperFunction,SMDPad,CuDef*%
G36*
G01*
X133747500Y-78328000D02*
X134222500Y-78328000D01*
G75*
G02*
X134460000Y-78565500I0J-237500D01*
G01*
X134460000Y-79140500D01*
G75*
G02*
X134222500Y-79378000I-237500J0D01*
G01*
X133747500Y-79378000D01*
G75*
G02*
X133510000Y-79140500I0J237500D01*
G01*
X133510000Y-78565500D01*
G75*
G02*
X133747500Y-78328000I237500J0D01*
G01*
G37*
%TD.AperFunction*%
%TO.P,R3,1*%
%TO.N,+5.3V*%
%TA.AperFunction,SMDPad,CuDef*%
G36*
G01*
X133747500Y-76578000D02*
X134222500Y-76578000D01*
G75*
G02*
X134460000Y-76815500I0J-237500D01*
G01*
X134460000Y-77390500D01*
G75*
G02*
X134222500Y-77628000I-237500J0D01*
G01*
X133747500Y-77628000D01*
G75*
G02*
X133510000Y-77390500I0J237500D01*
G01*
X133510000Y-76815500D01*
G75*
G02*
X133747500Y-76578000I237500J0D01*
G01*
G37*
%TD.AperFunction*%
%TD*%
%TO.P,C1,2*%
%TO.N,Net-(C1-Pad2)*%
%TA.AperFunction,SMDPad,CuDef*%
G36*
G01*
X138700500Y-81757000D02*
X139175500Y-81757000D01*
G75*
G02*
X139413000Y-81994500I0J-237500D01*
G01*
X139413000Y-82569500D01*
G75*
G02*
X139175500Y-82807000I-237500J0D01*
G01*
X138700500Y-82807000D01*
G75*
G02*
X138463000Y-82569500I0J237500D01*
G01*
X138463000Y-81994500D01*
G75*
G02*
X138700500Y-81757000I237500J0D01*
G01*
G37*
%TD.AperFunction*%
%TO.P,C1,1*%
%TO.N,Net-(C1-Pad1)*%
%TA.AperFunction,SMDPad,CuDef*%
G36*
G01*
X138700500Y-80007000D02*
X139175500Y-80007000D01*
G75*
G02*
X139413000Y-80244500I0J-237500D01*
G01*
X139413000Y-80819500D01*
G75*
G02*
X139175500Y-81057000I-237500J0D01*
G01*
X138700500Y-81057000D01*
G75*
G02*
X138463000Y-80819500I0J237500D01*
G01*
X138463000Y-80244500D01*
G75*
G02*
X138700500Y-80007000I237500J0D01*
G01*
G37*
%TD.AperFunction*%
%TD*%
%TO.P,R6,2*%
%TO.N,Net-(JP1-Pad2)*%
%TA.AperFunction,SMDPad,CuDef*%
G36*
G01*
X133700000Y-73160900D02*
X133700000Y-72685900D01*
G75*
G02*
X133937500Y-72448400I237500J0D01*
G01*
X134512500Y-72448400D01*
G75*
G02*
X134750000Y-72685900I0J-237500D01*
G01*
X134750000Y-73160900D01*
G75*
G02*
X134512500Y-73398400I-237500J0D01*
G01*
X133937500Y-73398400D01*
G75*
G02*
X133700000Y-73160900I0J237500D01*
G01*
G37*
%TD.AperFunction*%
%TO.P,R6,1*%
%TO.N,A1*%
%TA.AperFunction,SMDPad,CuDef*%
G36*
G01*
X131950000Y-73160900D02*
X131950000Y-72685900D01*
G75*
G02*
X132187500Y-72448400I237500J0D01*
G01*
X132762500Y-72448400D01*
G75*
G02*
X133000000Y-72685900I0J-237500D01*
G01*
X133000000Y-73160900D01*
G75*
G02*
X132762500Y-73398400I-237500J0D01*
G01*
X132187500Y-73398400D01*
G75*
G02*
X131950000Y-73160900I0J237500D01*
G01*
G37*
%TD.AperFunction*%
%TD*%
D13*
%TO.P,J1,1*%
%TO.N,Net-(J1-Pad1)*%
X149860000Y-76200000D03*
D12*
%TO.P,J1,2*%
%TO.N,+3V3*%
X149860000Y-78740000D03*
%TO.P,J1,3*%
%TO.N,Net-(J1-Pad3)*%
X149860000Y-81280000D03*
%TO.P,J1,4*%
%TO.N,+5V*%
X149860000Y-83820000D03*
%TO.P,J1,5*%
%TO.N,Net-(J1-Pad5)*%
X149860000Y-86360000D03*
%TO.P,J1,6*%
%TO.N,Net-(J1-Pad6)*%
X149860000Y-88900000D03*
%TO.P,J1,7*%
%TO.N,Net-(J1-Pad7)*%
X149860000Y-91440000D03*
%TO.P,J1,8*%
%TO.N,Net-(J1-Pad8)*%
X149860000Y-93980000D03*
%TO.P,J1,9*%
%TO.N,Net-(J1-Pad9)*%
X149860000Y-96520000D03*
%TO.P,J1,10*%
%TO.N,Net-(J1-Pad10)*%
X149860000Y-99060000D03*
%TO.P,J1,11*%
%TO.N,SCL*%
X149860000Y-101600000D03*
%TO.P,J1,12*%
%TO.N,SDA*%
X149860000Y-104140000D03*
%TD*%
D21*
%TO.N,*%
X137223500Y-59994800D03*
X143732250Y-59994800D03*
%TO.N,GND*%
X134620000Y-59994800D03*
X135921750Y-59994800D03*
X138525250Y-59994800D03*
X142430500Y-59994800D03*
X141128750Y-59994800D03*
X145034000Y-59994800D03*
X139827000Y-59994800D03*
X149860000Y-65532000D03*
X149860000Y-67564000D03*
X149860000Y-69596000D03*
X149860000Y-71628000D03*
X149860000Y-73660000D03*
X145288000Y-108712000D03*
X146812000Y-108712000D03*
X143764000Y-108712000D03*
X139088090Y-108712000D03*
X140716000Y-108712000D03*
X134112000Y-108712000D03*
X132588000Y-108712000D03*
X135636000Y-108712000D03*
X135432800Y-75996800D03*
X140716000Y-86360000D03*
X130810000Y-72364600D03*
X136652000Y-83820000D03*
X142367000Y-76454000D03*
X138430000Y-78486000D03*
X138430000Y-79248000D03*
X136652000Y-84582000D03*
X136652000Y-85344000D03*
X136652000Y-86106000D03*
X136652000Y-86868000D03*
X136652000Y-87630000D03*
X139827000Y-88646000D03*
X139827000Y-90932000D03*
X139827000Y-91694000D03*
X139827000Y-90170000D03*
X139827000Y-89408000D03*
X139827000Y-92456000D03*
X140716000Y-84455000D03*
X141859000Y-78486000D03*
X137795000Y-93243400D03*
X132080000Y-97282000D03*
X132080000Y-99441000D03*
%TO.N,VIN_SW*%
X131445000Y-82422998D03*
X131953000Y-75946000D03*
%TD*%
D22*
%TO.N,GND*%
X142343000Y-67032000D02*
X145542000Y-70231000D01*
X142343000Y-65881000D02*
X142343000Y-67032000D01*
D23*
X135229600Y-76200000D02*
X135432800Y-75996800D01*
X132839000Y-76200000D02*
X135229600Y-76200000D01*
X132461000Y-77103000D02*
X132461000Y-76578000D01*
X132461000Y-76578000D02*
X132839000Y-76200000D01*
%TO.N,Net-(C1-Pad1)*%
X138294800Y-81175200D02*
X138938000Y-80532000D01*
X136979900Y-81175200D02*
X138294800Y-81175200D01*
%TO.N,Net-(JP1-Pad2)*%
X134000000Y-73148400D02*
X134225000Y-72923400D01*
X134000000Y-74980800D02*
X134000000Y-73148400D01*
%TO.N,VIN_SW*%
X132754900Y-82475200D02*
X131497202Y-82475200D01*
X131497202Y-82475200D02*
X131445000Y-82422998D01*
X132700000Y-74980800D02*
X132700000Y-75199000D01*
X132700000Y-75199000D02*
X131953000Y-75946000D01*
D24*
%TO.N,+5V*%
X146685000Y-86995000D02*
X149860000Y-83820000D01*
X146685000Y-89278000D02*
X146685000Y-86995000D01*
D25*
X147497800Y-81457800D02*
X149860000Y-83820000D01*
X147497800Y-77393800D02*
X147497800Y-81457800D01*
X143002000Y-70231000D02*
X143002000Y-72898000D01*
X143002000Y-72898000D02*
X147497800Y-77393800D01*
D22*
X141343000Y-68572000D02*
X143002000Y-70231000D01*
X141343000Y-65881000D02*
X141343000Y-68572000D01*
D23*
X141540200Y-72898000D02*
X140829000Y-73609200D01*
X143002000Y-72898000D02*
X141540200Y-72898000D01*
%TO.N,A1*%
X132475000Y-71399400D02*
X132475000Y-72923400D01*
X132475000Y-72923400D02*
X132475000Y-72923400D01*
X130937000Y-77317600D02*
X130937000Y-74461400D01*
X129565400Y-78689200D02*
X130937000Y-77317600D01*
X130937000Y-74461400D02*
X132475000Y-72923400D01*
D22*
%TO.N,SCL*%
X140343000Y-70112000D02*
X140462000Y-70231000D01*
X140343000Y-65881000D02*
X140343000Y-70112000D01*
%TO.N,SDA*%
X139343000Y-68810000D02*
X137922000Y-70231000D01*
X139343000Y-65881000D02*
X139343000Y-68810000D01*
D23*
%TO.N,Net-(C4-Pad1)*%
X135650000Y-79092600D02*
X135650000Y-78867000D01*
X133567400Y-81175200D02*
X135650000Y-79092600D01*
X132754900Y-81175200D02*
X133567400Y-81175200D01*
%TO.N,+5.3V*%
X145923000Y-84531200D02*
X143764000Y-86690200D01*
X145923000Y-78816200D02*
X145923000Y-84531200D01*
X133985000Y-77103000D02*
X144209800Y-77103000D01*
X144209800Y-77103000D02*
X145923000Y-78816200D01*
%TO.N,Net-(D3-Pad2)*%
X139079000Y-75296900D02*
X139245500Y-75463400D01*
X139079000Y-73609200D02*
X139079000Y-75296900D01*
%TO.N,Net-(R1-Pad2)*%
X134199600Y-82457400D02*
X134199600Y-88823800D01*
X133567400Y-81825200D02*
X134199600Y-82457400D01*
X132754900Y-81825200D02*
X133567400Y-81825200D01*
%TO.N,Net-(R3-Pad2)*%
X132461000Y-80231300D02*
X132754900Y-80525200D01*
X132461000Y-78853000D02*
X132461000Y-80231300D01*
X132461000Y-78853000D02*
X133985000Y-78853000D01*
%TD*%
D26*
%TO.N,GND*%
G36*
X136581988Y-59651905D02*
G01*
X136527419Y-59783646D01*
X136499600Y-59923502D01*
X136499600Y-60066098D01*
X136527419Y-60205954D01*
X136581988Y-60337695D01*
X136661210Y-60456260D01*
X136762040Y-60557090D01*
X136880605Y-60636312D01*
X137012346Y-60690881D01*
X137152202Y-60718700D01*
X137294798Y-60718700D01*
X137434654Y-60690881D01*
X137566395Y-60636312D01*
X137684960Y-60557090D01*
X137785790Y-60456260D01*
X137865012Y-60337695D01*
X137919581Y-60205954D01*
X137947400Y-60066098D01*
X137947400Y-59923502D01*
X137919581Y-59783646D01*
X137865012Y-59651905D01*
X137788369Y-59537200D01*
X143167381Y-59537200D01*
X143090738Y-59651905D01*
X143036169Y-59783646D01*
X143008350Y-59923502D01*
X143008350Y-60066098D01*
X143036169Y-60205954D01*
X143090738Y-60337695D01*
X143169960Y-60456260D01*
X143270790Y-60557090D01*
X143389355Y-60636312D01*
X143521096Y-60690881D01*
X143660952Y-60718700D01*
X143803548Y-60718700D01*
X143943404Y-60690881D01*
X144075145Y-60636312D01*
X144193710Y-60557090D01*
X144294540Y-60456260D01*
X144373762Y-60337695D01*
X144428331Y-60205954D01*
X144456150Y-60066098D01*
X144456150Y-59923502D01*
X144428331Y-59783646D01*
X144373762Y-59651905D01*
X144297119Y-59537200D01*
X146301792Y-59537200D01*
X146412250Y-59647658D01*
X145994282Y-59923827D01*
X145703751Y-60468757D01*
X145525113Y-61059896D01*
X145465232Y-61674528D01*
X145526410Y-62289031D01*
X145706297Y-62879792D01*
X145994282Y-63418573D01*
X146412252Y-63694743D01*
X148435795Y-61671200D01*
X148421653Y-61657058D01*
X148601258Y-61477453D01*
X148615400Y-61491595D01*
X150024590Y-60082405D01*
X150117717Y-60158357D01*
X150203796Y-60262409D01*
X148795005Y-61671200D01*
X148809148Y-61685343D01*
X148629543Y-61864948D01*
X148615400Y-61850805D01*
X146591857Y-63874348D01*
X146868027Y-64292318D01*
X147412957Y-64582849D01*
X148004096Y-64761487D01*
X148618728Y-64821368D01*
X149233231Y-64760190D01*
X149823992Y-64580303D01*
X150362773Y-64292318D01*
X150638942Y-63874350D01*
X150749400Y-63984808D01*
X150749400Y-74971037D01*
X150710000Y-74967157D01*
X149010000Y-74967157D01*
X148935311Y-74974513D01*
X148863492Y-74996299D01*
X148797304Y-75031678D01*
X148739289Y-75079289D01*
X148691678Y-75137304D01*
X148656299Y-75203492D01*
X148634513Y-75275311D01*
X148627157Y-75350000D01*
X148627157Y-77050000D01*
X148634513Y-77124689D01*
X148656299Y-77196508D01*
X148691678Y-77262696D01*
X148739289Y-77320711D01*
X148797304Y-77368322D01*
X148863492Y-77403701D01*
X148935311Y-77425487D01*
X149010000Y-77432843D01*
X150710000Y-77432843D01*
X150749400Y-77428963D01*
X150749400Y-77888503D01*
X150644717Y-77783820D01*
X150443097Y-77649102D01*
X150219069Y-77556307D01*
X149981243Y-77509000D01*
X149738757Y-77509000D01*
X149500931Y-77556307D01*
X149276903Y-77649102D01*
X149075283Y-77783820D01*
X148903820Y-77955283D01*
X148769102Y-78156903D01*
X148676307Y-78380931D01*
X148629000Y-78618757D01*
X148629000Y-78861243D01*
X148676307Y-79099069D01*
X148769102Y-79323097D01*
X148903820Y-79524717D01*
X149075283Y-79696180D01*
X149276903Y-79830898D01*
X149500931Y-79923693D01*
X149738757Y-79971000D01*
X149981243Y-79971000D01*
X150219069Y-79923693D01*
X150443097Y-79830898D01*
X150644717Y-79696180D01*
X150749400Y-79591497D01*
X150749400Y-80428503D01*
X150644717Y-80323820D01*
X150443097Y-80189102D01*
X150219069Y-80096307D01*
X149981243Y-80049000D01*
X149738757Y-80049000D01*
X149500931Y-80096307D01*
X149276903Y-80189102D01*
X149075283Y-80323820D01*
X148903820Y-80495283D01*
X148769102Y-80696903D01*
X148676307Y-80920931D01*
X148629000Y-81158757D01*
X148629000Y-81188081D01*
X148488400Y-81047481D01*
X148488400Y-77442454D01*
X148493192Y-77393799D01*
X148488400Y-77345145D01*
X148488400Y-77345135D01*
X148474067Y-77199608D01*
X148417423Y-77012880D01*
X148325439Y-76840789D01*
X148201649Y-76689951D01*
X148163850Y-76658930D01*
X143992600Y-72487681D01*
X143992600Y-70964204D01*
X144055073Y-70870706D01*
X144053928Y-71081000D01*
X144066188Y-71205482D01*
X144102498Y-71325180D01*
X144161463Y-71435494D01*
X144240815Y-71532185D01*
X144337506Y-71611537D01*
X144447820Y-71670502D01*
X144567518Y-71706812D01*
X144692000Y-71719072D01*
X145256250Y-71716000D01*
X145415000Y-71557250D01*
X145415000Y-70358000D01*
X145669000Y-70358000D01*
X145669000Y-71557250D01*
X145827750Y-71716000D01*
X146392000Y-71719072D01*
X146516482Y-71706812D01*
X146636180Y-71670502D01*
X146746494Y-71611537D01*
X146843185Y-71532185D01*
X146922537Y-71435494D01*
X146981502Y-71325180D01*
X147017812Y-71205482D01*
X147030072Y-71081000D01*
X147027000Y-70516750D01*
X146868250Y-70358000D01*
X145669000Y-70358000D01*
X145415000Y-70358000D01*
X145395000Y-70358000D01*
X145395000Y-70104000D01*
X145415000Y-70104000D01*
X145415000Y-68904750D01*
X145669000Y-68904750D01*
X145669000Y-70104000D01*
X146868250Y-70104000D01*
X147027000Y-69945250D01*
X147030072Y-69381000D01*
X147017812Y-69256518D01*
X146981502Y-69136820D01*
X146922537Y-69026506D01*
X146843185Y-68929815D01*
X146746494Y-68850463D01*
X146636180Y-68791498D01*
X146516482Y-68755188D01*
X146392000Y-68742928D01*
X145827750Y-68746000D01*
X145669000Y-68904750D01*
X145415000Y-68904750D01*
X145256250Y-68746000D01*
X144692000Y-68742928D01*
X144567518Y-68755188D01*
X144447820Y-68791498D01*
X144337506Y-68850463D01*
X144240815Y-68929815D01*
X144161463Y-69026506D01*
X144102498Y-69136820D01*
X144066188Y-69256518D01*
X144053928Y-69381000D01*
X144055073Y-69591294D01*
X143958180Y-69446283D01*
X143786717Y-69274820D01*
X143585097Y-69140102D01*
X143361069Y-69047307D01*
X143123243Y-69000000D01*
X142880757Y-69000000D01*
X142764077Y-69023209D01*
X142028800Y-68287933D01*
X142028800Y-65847311D01*
X142025843Y-65817288D01*
X142025843Y-65256000D01*
X142015605Y-65152047D01*
X141985283Y-65052090D01*
X141936043Y-64959968D01*
X141869777Y-64879223D01*
X141789032Y-64812957D01*
X141696910Y-64763717D01*
X141596953Y-64733395D01*
X141493000Y-64723157D01*
X141193000Y-64723157D01*
X141089047Y-64733395D01*
X140989090Y-64763717D01*
X140896968Y-64812957D01*
X140843000Y-64857248D01*
X140789032Y-64812957D01*
X140696910Y-64763717D01*
X140596953Y-64733395D01*
X140493000Y-64723157D01*
X140193000Y-64723157D01*
X140089047Y-64733395D01*
X139989090Y-64763717D01*
X139896968Y-64812957D01*
X139843000Y-64857248D01*
X139789032Y-64812957D01*
X139696910Y-64763717D01*
X139596953Y-64733395D01*
X139493000Y-64723157D01*
X139193000Y-64723157D01*
X139089047Y-64733395D01*
X138989090Y-64763717D01*
X138896968Y-64812957D01*
X138816223Y-64879223D01*
X138749957Y-64959968D01*
X138700717Y-65052090D01*
X138670395Y-65152047D01*
X138660157Y-65256000D01*
X138660157Y-65817289D01*
X138657200Y-65847312D01*
X138657201Y-68525931D01*
X138159923Y-69023209D01*
X138043243Y-69000000D01*
X137800757Y-69000000D01*
X137562931Y-69047307D01*
X137338903Y-69140102D01*
X137137283Y-69274820D01*
X136965820Y-69446283D01*
X136831102Y-69647903D01*
X136738307Y-69871931D01*
X136691000Y-70109757D01*
X136691000Y-70352243D01*
X136738307Y-70590069D01*
X136831102Y-70814097D01*
X136965820Y-71015717D01*
X137137283Y-71187180D01*
X137338903Y-71321898D01*
X137562931Y-71414693D01*
X137800757Y-71462000D01*
X138043243Y-71462000D01*
X138281069Y-71414693D01*
X138505097Y-71321898D01*
X138706717Y-71187180D01*
X138878180Y-71015717D01*
X139012898Y-70814097D01*
X139105693Y-70590069D01*
X139153000Y-70352243D01*
X139153000Y-70109757D01*
X139129791Y-69993077D01*
X139297661Y-69825207D01*
X139278307Y-69871931D01*
X139231000Y-70109757D01*
X139231000Y-70352243D01*
X139278307Y-70590069D01*
X139371102Y-70814097D01*
X139505820Y-71015717D01*
X139677283Y-71187180D01*
X139878903Y-71321898D01*
X140102931Y-71414693D01*
X140340757Y-71462000D01*
X140583243Y-71462000D01*
X140821069Y-71414693D01*
X141045097Y-71321898D01*
X141246717Y-71187180D01*
X141418180Y-71015717D01*
X141552898Y-70814097D01*
X141645693Y-70590069D01*
X141693000Y-70352243D01*
X141693000Y-70109757D01*
X141645693Y-69871931D01*
X141626339Y-69825207D01*
X141794209Y-69993077D01*
X141771000Y-70109757D01*
X141771000Y-70352243D01*
X141818307Y-70590069D01*
X141911102Y-70814097D01*
X142011400Y-70964204D01*
X142011401Y-72364600D01*
X141566394Y-72364600D01*
X141540200Y-72362020D01*
X141514006Y-72364600D01*
X141514005Y-72364600D01*
X141435635Y-72372319D01*
X141335089Y-72402819D01*
X141242425Y-72452349D01*
X141161205Y-72519005D01*
X141144504Y-72539355D01*
X140932502Y-72751357D01*
X140541500Y-72751357D01*
X140420477Y-72763277D01*
X140304105Y-72798578D01*
X140196856Y-72855904D01*
X140102851Y-72933051D01*
X140025704Y-73027056D01*
X139968378Y-73134305D01*
X139954000Y-73181703D01*
X139939622Y-73134305D01*
X139882296Y-73027056D01*
X139805149Y-72933051D01*
X139711144Y-72855904D01*
X139603895Y-72798578D01*
X139487523Y-72763277D01*
X139366500Y-72751357D01*
X138791500Y-72751357D01*
X138670477Y-72763277D01*
X138554105Y-72798578D01*
X138446856Y-72855904D01*
X138352851Y-72933051D01*
X138275704Y-73027056D01*
X138218378Y-73134305D01*
X138183077Y-73250677D01*
X138171157Y-73371700D01*
X138171157Y-73846700D01*
X138183077Y-73967723D01*
X138218378Y-74084095D01*
X138275704Y-74191344D01*
X138352851Y-74285349D01*
X138446856Y-74362496D01*
X138545600Y-74415276D01*
X138545601Y-74502900D01*
X138481411Y-74537210D01*
X138385512Y-74615912D01*
X138306810Y-74711811D01*
X138248329Y-74821221D01*
X138212317Y-74939938D01*
X138200157Y-75063400D01*
X138200157Y-75863400D01*
X138212317Y-75986862D01*
X138248329Y-76105579D01*
X138306810Y-76214989D01*
X138385512Y-76310888D01*
X138481411Y-76389590D01*
X138590821Y-76448071D01*
X138709538Y-76484083D01*
X138833000Y-76496243D01*
X139658000Y-76496243D01*
X139781462Y-76484083D01*
X139900179Y-76448071D01*
X140009589Y-76389590D01*
X140105488Y-76310888D01*
X140184190Y-76214989D01*
X140242671Y-76105579D01*
X140278683Y-75986862D01*
X140290843Y-75863400D01*
X140290843Y-75063400D01*
X140278683Y-74939938D01*
X140242671Y-74821221D01*
X140184190Y-74711811D01*
X140105488Y-74615912D01*
X140009589Y-74537210D01*
X139900179Y-74478729D01*
X139781462Y-74442717D01*
X139658000Y-74430557D01*
X139612400Y-74430557D01*
X139612400Y-74415276D01*
X139711144Y-74362496D01*
X139805149Y-74285349D01*
X139882296Y-74191344D01*
X139939622Y-74084095D01*
X139954000Y-74036697D01*
X139968378Y-74084095D01*
X140025704Y-74191344D01*
X140102851Y-74285349D01*
X140196856Y-74362496D01*
X140304105Y-74419822D01*
X140420477Y-74455123D01*
X140541500Y-74467043D01*
X141116500Y-74467043D01*
X141237523Y-74455123D01*
X141353895Y-74419822D01*
X141461144Y-74362496D01*
X141555149Y-74285349D01*
X141632296Y-74191344D01*
X141689622Y-74084095D01*
X141724923Y-73967723D01*
X141736843Y-73846700D01*
X141736843Y-73455698D01*
X141761141Y-73431400D01*
X142163879Y-73431400D01*
X142174361Y-73451010D01*
X142250753Y-73544093D01*
X142298152Y-73601849D01*
X142335951Y-73632870D01*
X146507200Y-77804120D01*
X146507201Y-81409136D01*
X146502408Y-81457800D01*
X146507201Y-81506465D01*
X146521534Y-81651992D01*
X146542357Y-81720635D01*
X146578178Y-81838720D01*
X146670161Y-82010810D01*
X146756943Y-82116553D01*
X146793952Y-82161649D01*
X146831751Y-82192670D01*
X148351317Y-83712237D01*
X145916478Y-86147077D01*
X145872868Y-86182867D01*
X145730033Y-86356911D01*
X145623898Y-86555477D01*
X145558539Y-86770933D01*
X145542000Y-86938861D01*
X145542000Y-85666542D01*
X146281651Y-84926891D01*
X146301995Y-84910195D01*
X146368651Y-84828975D01*
X146418181Y-84736311D01*
X146448681Y-84635765D01*
X146456400Y-84557395D01*
X146456400Y-84557388D01*
X146458979Y-84531201D01*
X146456400Y-84505014D01*
X146456400Y-78842394D01*
X146458980Y-78816200D01*
X146453685Y-78762436D01*
X146448681Y-78711635D01*
X146418181Y-78611089D01*
X146368651Y-78518425D01*
X146301995Y-78437205D01*
X146281645Y-78420504D01*
X144605496Y-76744355D01*
X144588795Y-76724005D01*
X144507575Y-76657349D01*
X144414911Y-76607819D01*
X144314365Y-76577319D01*
X144235995Y-76569600D01*
X144235987Y-76569600D01*
X144209800Y-76567021D01*
X144183613Y-76569600D01*
X134791076Y-76569600D01*
X134738296Y-76470856D01*
X134661149Y-76376851D01*
X134567144Y-76299704D01*
X134459895Y-76242378D01*
X134343523Y-76207077D01*
X134222500Y-76195157D01*
X133747500Y-76195157D01*
X133626477Y-76207077D01*
X133510105Y-76242378D01*
X133402856Y-76299704D01*
X133308851Y-76376851D01*
X133231704Y-76470856D01*
X133174378Y-76578105D01*
X133139077Y-76694477D01*
X133127157Y-76815500D01*
X133127157Y-77390500D01*
X133139077Y-77511523D01*
X133174378Y-77627895D01*
X133231704Y-77735144D01*
X133308851Y-77829149D01*
X133402856Y-77906296D01*
X133510105Y-77963622D01*
X133557503Y-77978000D01*
X133510105Y-77992378D01*
X133402856Y-78049704D01*
X133308851Y-78126851D01*
X133231704Y-78220856D01*
X133223000Y-78237140D01*
X133214296Y-78220856D01*
X133137149Y-78126851D01*
X133043144Y-78049704D01*
X132935895Y-77992378D01*
X132819523Y-77957077D01*
X132698500Y-77945157D01*
X132223500Y-77945157D01*
X132102477Y-77957077D01*
X131986105Y-77992378D01*
X131878856Y-78049704D01*
X131784851Y-78126851D01*
X131707704Y-78220856D01*
X131650378Y-78328105D01*
X131615077Y-78444477D01*
X131603157Y-78565500D01*
X131603157Y-79140500D01*
X131615077Y-79261523D01*
X131650378Y-79377895D01*
X131707704Y-79485144D01*
X131784851Y-79579149D01*
X131878856Y-79656296D01*
X131927601Y-79682351D01*
X131927601Y-79957884D01*
X131857624Y-79979111D01*
X131774147Y-80023731D01*
X131700978Y-80083778D01*
X131640931Y-80156947D01*
X131596311Y-80240424D01*
X131568835Y-80331002D01*
X131559557Y-80425200D01*
X131559557Y-80625200D01*
X131568835Y-80719398D01*
X131596311Y-80809976D01*
X131617811Y-80850200D01*
X131596311Y-80890424D01*
X131568835Y-80981002D01*
X131559557Y-81075200D01*
X131559557Y-81275200D01*
X131568835Y-81369398D01*
X131596311Y-81459976D01*
X131617811Y-81500200D01*
X131596311Y-81540424D01*
X131568835Y-81631002D01*
X131561247Y-81708039D01*
X131516298Y-81699098D01*
X131373702Y-81699098D01*
X131233846Y-81726917D01*
X131102105Y-81781486D01*
X130983540Y-81860708D01*
X130882710Y-81961538D01*
X130803488Y-82080103D01*
X130748919Y-82211844D01*
X130721100Y-82351700D01*
X130721100Y-82494296D01*
X130748919Y-82634152D01*
X130803488Y-82765893D01*
X130882710Y-82884458D01*
X130983540Y-82985288D01*
X131102105Y-83064510D01*
X131191000Y-83101332D01*
X131191000Y-93091000D01*
X131198321Y-93165329D01*
X131220002Y-93236802D01*
X131255210Y-93302672D01*
X131302592Y-93360408D01*
X131360328Y-93407790D01*
X131426198Y-93442998D01*
X131497671Y-93464679D01*
X131572000Y-93472000D01*
X132432947Y-93472000D01*
X132398210Y-93514328D01*
X132363002Y-93580198D01*
X132341321Y-93651671D01*
X132334000Y-93726000D01*
X132334000Y-99060000D01*
X132341321Y-99134329D01*
X132363002Y-99205802D01*
X132398210Y-99271672D01*
X132445592Y-99329408D01*
X132503328Y-99376790D01*
X132569198Y-99411998D01*
X132640671Y-99433679D01*
X132715000Y-99441000D01*
X136144000Y-99441000D01*
X136218329Y-99433679D01*
X136289802Y-99411998D01*
X136355672Y-99376790D01*
X136413408Y-99329408D01*
X136460790Y-99271672D01*
X136495998Y-99205802D01*
X136517679Y-99134329D01*
X136525000Y-99060000D01*
X136525000Y-95250000D01*
X138176000Y-95250000D01*
X138176000Y-98933000D01*
X138183321Y-99007329D01*
X138205002Y-99078802D01*
X138240210Y-99144672D01*
X138287592Y-99202408D01*
X138345328Y-99249790D01*
X138411198Y-99284998D01*
X138482671Y-99306679D01*
X138557000Y-99314000D01*
X139573000Y-99314000D01*
X139573000Y-106680000D01*
X139580321Y-106754329D01*
X139602002Y-106825802D01*
X139637210Y-106891672D01*
X139684592Y-106949408D01*
X139742328Y-106996790D01*
X139808198Y-107031998D01*
X139879671Y-107053679D01*
X139954000Y-107061000D01*
X144145000Y-107061000D01*
X144219329Y-107053679D01*
X144290802Y-107031998D01*
X144356672Y-106996790D01*
X144414408Y-106949408D01*
X144461790Y-106891672D01*
X144489563Y-106839711D01*
X146884400Y-106839711D01*
X146884400Y-107180689D01*
X146950921Y-107515114D01*
X147081407Y-107830136D01*
X147270844Y-108113648D01*
X147511952Y-108354756D01*
X147795464Y-108544193D01*
X148110486Y-108674679D01*
X148444911Y-108741200D01*
X148785889Y-108741200D01*
X149120314Y-108674679D01*
X149435336Y-108544193D01*
X149718848Y-108354756D01*
X149959956Y-108113648D01*
X150149393Y-107830136D01*
X150279879Y-107515114D01*
X150346400Y-107180689D01*
X150346400Y-106839711D01*
X150279879Y-106505286D01*
X150149393Y-106190264D01*
X149959956Y-105906752D01*
X149718848Y-105665644D01*
X149435336Y-105476207D01*
X149120314Y-105345721D01*
X148785889Y-105279200D01*
X148444911Y-105279200D01*
X148110486Y-105345721D01*
X147795464Y-105476207D01*
X147511952Y-105665644D01*
X147270844Y-105906752D01*
X147081407Y-106190264D01*
X146950921Y-106505286D01*
X146884400Y-106839711D01*
X144489563Y-106839711D01*
X144496998Y-106825802D01*
X144518679Y-106754329D01*
X144526000Y-106680000D01*
X144526000Y-95250000D01*
X144518679Y-95175671D01*
X144496998Y-95104198D01*
X144461790Y-95038328D01*
X144414408Y-94980592D01*
X144356672Y-94933210D01*
X144290802Y-94898002D01*
X144219329Y-94876321D01*
X144145000Y-94869000D01*
X138557000Y-94869000D01*
X138482671Y-94876321D01*
X138411198Y-94898002D01*
X138345328Y-94933210D01*
X138287592Y-94980592D01*
X138240210Y-95038328D01*
X138205002Y-95104198D01*
X138183321Y-95175671D01*
X138176000Y-95250000D01*
X136525000Y-95250000D01*
X136517679Y-95175671D01*
X136495998Y-95104198D01*
X136460790Y-95038328D01*
X136413408Y-94980592D01*
X136355672Y-94933210D01*
X136289802Y-94898002D01*
X136218329Y-94876321D01*
X136144000Y-94869000D01*
X134493000Y-94869000D01*
X134493000Y-93726000D01*
X134485679Y-93651671D01*
X134469701Y-93599000D01*
X136652000Y-93599000D01*
X136726329Y-93591679D01*
X136797802Y-93569998D01*
X136863672Y-93534790D01*
X136921408Y-93487408D01*
X136968790Y-93429672D01*
X137003998Y-93363802D01*
X137025679Y-93292329D01*
X137033000Y-93218000D01*
X141732000Y-93218000D01*
X141756776Y-93215560D01*
X141780601Y-93208333D01*
X141802557Y-93196597D01*
X141821803Y-93180803D01*
X141837597Y-93161557D01*
X141849333Y-93139601D01*
X141856560Y-93115776D01*
X141859000Y-93091000D01*
X141859000Y-83566000D01*
X141856560Y-83541224D01*
X141849333Y-83517399D01*
X141837597Y-83495443D01*
X141821803Y-83476197D01*
X141802557Y-83460403D01*
X141780601Y-83448667D01*
X141756776Y-83441440D01*
X141732000Y-83439000D01*
X140109053Y-83439000D01*
X140143790Y-83396672D01*
X140178998Y-83330802D01*
X140200679Y-83259329D01*
X140208000Y-83185000D01*
X140208000Y-82423000D01*
X145161000Y-82423000D01*
X145235329Y-82415679D01*
X145306802Y-82393998D01*
X145372672Y-82358790D01*
X145389601Y-82344897D01*
X145389601Y-84310257D01*
X144482858Y-85217000D01*
X142367000Y-85217000D01*
X142292671Y-85224321D01*
X142221198Y-85246002D01*
X142155328Y-85281210D01*
X142097592Y-85328592D01*
X142050210Y-85386328D01*
X142015002Y-85452198D01*
X141993321Y-85523671D01*
X141986000Y-85598000D01*
X141986000Y-88519000D01*
X141993321Y-88593329D01*
X142015002Y-88664802D01*
X142050210Y-88730672D01*
X142097592Y-88788408D01*
X142155328Y-88835790D01*
X142221198Y-88870998D01*
X142292671Y-88892679D01*
X142367000Y-88900000D01*
X142494000Y-88900000D01*
X142494000Y-93091000D01*
X142501321Y-93165329D01*
X142523002Y-93236802D01*
X142558210Y-93302672D01*
X142605592Y-93360408D01*
X142663328Y-93407790D01*
X142729198Y-93442998D01*
X142800671Y-93464679D01*
X142875000Y-93472000D01*
X147828000Y-93472000D01*
X147902329Y-93464679D01*
X147973802Y-93442998D01*
X148039672Y-93407790D01*
X148097408Y-93360408D01*
X148144790Y-93302672D01*
X148179998Y-93236802D01*
X148201679Y-93165329D01*
X148209000Y-93091000D01*
X148209000Y-91186000D01*
X148201679Y-91111671D01*
X148179998Y-91040198D01*
X148144790Y-90974328D01*
X148097408Y-90916592D01*
X148039672Y-90869210D01*
X147973802Y-90834002D01*
X147902329Y-90812321D01*
X147828000Y-90805000D01*
X145542000Y-90805000D01*
X145542000Y-89334146D01*
X145558539Y-89502066D01*
X145623897Y-89717522D01*
X145730032Y-89916088D01*
X145787506Y-89986120D01*
X145816678Y-90040696D01*
X145864289Y-90098711D01*
X145922304Y-90146322D01*
X145976878Y-90175493D01*
X146046911Y-90232968D01*
X146245477Y-90339103D01*
X146460933Y-90404461D01*
X146685000Y-90426530D01*
X146909066Y-90404461D01*
X147124522Y-90339103D01*
X147323088Y-90232968D01*
X147393120Y-90175494D01*
X147447696Y-90146322D01*
X147505711Y-90098711D01*
X147553322Y-90040696D01*
X147582493Y-89986122D01*
X147639968Y-89916089D01*
X147746103Y-89717523D01*
X147811461Y-89502067D01*
X147828000Y-89334146D01*
X147828000Y-87468445D01*
X148659893Y-86636552D01*
X148676307Y-86719069D01*
X148769102Y-86943097D01*
X148903820Y-87144717D01*
X149075283Y-87316180D01*
X149276903Y-87450898D01*
X149500931Y-87543693D01*
X149738757Y-87591000D01*
X149981243Y-87591000D01*
X150219069Y-87543693D01*
X150443097Y-87450898D01*
X150644717Y-87316180D01*
X150749401Y-87211496D01*
X150749401Y-88048504D01*
X150644717Y-87943820D01*
X150443097Y-87809102D01*
X150219069Y-87716307D01*
X149981243Y-87669000D01*
X149738757Y-87669000D01*
X149500931Y-87716307D01*
X149276903Y-87809102D01*
X149075283Y-87943820D01*
X148903820Y-88115283D01*
X148769102Y-88316903D01*
X148676307Y-88540931D01*
X148629000Y-88778757D01*
X148629000Y-89021243D01*
X148676307Y-89259069D01*
X148769102Y-89483097D01*
X148903820Y-89684717D01*
X149075283Y-89856180D01*
X149276903Y-89990898D01*
X149500931Y-90083693D01*
X149738757Y-90131000D01*
X149981243Y-90131000D01*
X150219069Y-90083693D01*
X150443097Y-89990898D01*
X150644717Y-89856180D01*
X150749401Y-89751496D01*
X150749401Y-90588504D01*
X150644717Y-90483820D01*
X150443097Y-90349102D01*
X150219069Y-90256307D01*
X149981243Y-90209000D01*
X149738757Y-90209000D01*
X149500931Y-90256307D01*
X149276903Y-90349102D01*
X149075283Y-90483820D01*
X148903820Y-90655283D01*
X148769102Y-90856903D01*
X148676307Y-91080931D01*
X148629000Y-91318757D01*
X148629000Y-91561243D01*
X148676307Y-91799069D01*
X148769102Y-92023097D01*
X148903820Y-92224717D01*
X149075283Y-92396180D01*
X149276903Y-92530898D01*
X149500931Y-92623693D01*
X149738757Y-92671000D01*
X149981243Y-92671000D01*
X150219069Y-92623693D01*
X150443097Y-92530898D01*
X150644717Y-92396180D01*
X150749401Y-92291496D01*
X150749401Y-93128504D01*
X150644717Y-93023820D01*
X150443097Y-92889102D01*
X150219069Y-92796307D01*
X149981243Y-92749000D01*
X149738757Y-92749000D01*
X149500931Y-92796307D01*
X149276903Y-92889102D01*
X149075283Y-93023820D01*
X148903820Y-93195283D01*
X148769102Y-93396903D01*
X148676307Y-93620931D01*
X148629000Y-93858757D01*
X148629000Y-94101243D01*
X148676307Y-94339069D01*
X148769102Y-94563097D01*
X148903820Y-94764717D01*
X149075283Y-94936180D01*
X149276903Y-95070898D01*
X149500931Y-95163693D01*
X149738757Y-95211000D01*
X149981243Y-95211000D01*
X150219069Y-95163693D01*
X150443097Y-95070898D01*
X150644717Y-94936180D01*
X150749401Y-94831496D01*
X150749401Y-95668504D01*
X150644717Y-95563820D01*
X150443097Y-95429102D01*
X150219069Y-95336307D01*
X149981243Y-95289000D01*
X149738757Y-95289000D01*
X149500931Y-95336307D01*
X149276903Y-95429102D01*
X149075283Y-95563820D01*
X148903820Y-95735283D01*
X148769102Y-95936903D01*
X148676307Y-96160931D01*
X148629000Y-96398757D01*
X148629000Y-96641243D01*
X148676307Y-96879069D01*
X148769102Y-97103097D01*
X148903820Y-97304717D01*
X149075283Y-97476180D01*
X149276903Y-97610898D01*
X149500931Y-97703693D01*
X149738757Y-97751000D01*
X149981243Y-97751000D01*
X150219069Y-97703693D01*
X150443097Y-97610898D01*
X150644717Y-97476180D01*
X150749401Y-97371496D01*
X150749401Y-98208504D01*
X150644717Y-98103820D01*
X150443097Y-97969102D01*
X150219069Y-97876307D01*
X149981243Y-97829000D01*
X149738757Y-97829000D01*
X149500931Y-97876307D01*
X149276903Y-97969102D01*
X149075283Y-98103820D01*
X148903820Y-98275283D01*
X148769102Y-98476903D01*
X148676307Y-98700931D01*
X148629000Y-98938757D01*
X148629000Y-99181243D01*
X148676307Y-99419069D01*
X148769102Y-99643097D01*
X148903820Y-99844717D01*
X149075283Y-100016180D01*
X149276903Y-100150898D01*
X149500931Y-100243693D01*
X149738757Y-100291000D01*
X149981243Y-100291000D01*
X150219069Y-100243693D01*
X150443097Y-100150898D01*
X150644717Y-100016180D01*
X150749401Y-99911496D01*
X150749401Y-100748504D01*
X150644717Y-100643820D01*
X150443097Y-100509102D01*
X150219069Y-100416307D01*
X149981243Y-100369000D01*
X149738757Y-100369000D01*
X149500931Y-100416307D01*
X149276903Y-100509102D01*
X149075283Y-100643820D01*
X148903820Y-100815283D01*
X148769102Y-101016903D01*
X148676307Y-101240931D01*
X148629000Y-101478757D01*
X148629000Y-101721243D01*
X148676307Y-101959069D01*
X148769102Y-102183097D01*
X148903820Y-102384717D01*
X149075283Y-102556180D01*
X149276903Y-102690898D01*
X149500931Y-102783693D01*
X149738757Y-102831000D01*
X149981243Y-102831000D01*
X150219069Y-102783693D01*
X150443097Y-102690898D01*
X150644717Y-102556180D01*
X150749401Y-102451496D01*
X150749401Y-103288504D01*
X150644717Y-103183820D01*
X150443097Y-103049102D01*
X150219069Y-102956307D01*
X149981243Y-102909000D01*
X149738757Y-102909000D01*
X149500931Y-102956307D01*
X149276903Y-103049102D01*
X149075283Y-103183820D01*
X148903820Y-103355283D01*
X148769102Y-103556903D01*
X148676307Y-103780931D01*
X148629000Y-104018757D01*
X148629000Y-104261243D01*
X148676307Y-104499069D01*
X148769102Y-104723097D01*
X148903820Y-104924717D01*
X149075283Y-105096180D01*
X149276903Y-105230898D01*
X149500931Y-105323693D01*
X149738757Y-105371000D01*
X149981243Y-105371000D01*
X150219069Y-105323693D01*
X150443097Y-105230898D01*
X150644717Y-105096180D01*
X150749401Y-104991496D01*
X150749401Y-106863336D01*
X150697174Y-107395986D01*
X150548250Y-107889248D01*
X150306354Y-108344185D01*
X149980702Y-108743475D01*
X149583699Y-109071904D01*
X149130464Y-109316967D01*
X148638258Y-109469330D01*
X148106700Y-109525200D01*
X131109253Y-109525200D01*
X130625948Y-109477812D01*
X130180147Y-109343216D01*
X129768979Y-109124594D01*
X129408105Y-108830273D01*
X129111273Y-108471465D01*
X128889785Y-108061833D01*
X128752082Y-107616985D01*
X128701400Y-107134780D01*
X128701400Y-106839711D01*
X129079000Y-106839711D01*
X129079000Y-107180689D01*
X129145521Y-107515114D01*
X129276007Y-107830136D01*
X129465444Y-108113648D01*
X129706552Y-108354756D01*
X129990064Y-108544193D01*
X130305086Y-108674679D01*
X130639511Y-108741200D01*
X130980489Y-108741200D01*
X131314914Y-108674679D01*
X131629936Y-108544193D01*
X131913448Y-108354756D01*
X132154556Y-108113648D01*
X132343993Y-107830136D01*
X132474479Y-107515114D01*
X132541000Y-107180689D01*
X132541000Y-106839711D01*
X132474479Y-106505286D01*
X132343993Y-106190264D01*
X132266976Y-106075000D01*
X135221928Y-106075000D01*
X135234188Y-106199482D01*
X135270498Y-106319180D01*
X135329463Y-106429494D01*
X135408815Y-106526185D01*
X135505506Y-106605537D01*
X135615820Y-106664502D01*
X135735518Y-106700812D01*
X135860000Y-106713072D01*
X136874250Y-106710000D01*
X137033000Y-106551250D01*
X137033000Y-104902000D01*
X137287000Y-104902000D01*
X137287000Y-106551250D01*
X137445750Y-106710000D01*
X138460000Y-106713072D01*
X138584482Y-106700812D01*
X138704180Y-106664502D01*
X138814494Y-106605537D01*
X138911185Y-106526185D01*
X138990537Y-106429494D01*
X139049502Y-106319180D01*
X139085812Y-106199482D01*
X139098072Y-106075000D01*
X139095000Y-105060750D01*
X138936250Y-104902000D01*
X137287000Y-104902000D01*
X137033000Y-104902000D01*
X135383750Y-104902000D01*
X135225000Y-105060750D01*
X135221928Y-106075000D01*
X132266976Y-106075000D01*
X132154556Y-105906752D01*
X131913448Y-105665644D01*
X131629936Y-105476207D01*
X131314914Y-105345721D01*
X130980489Y-105279200D01*
X130639511Y-105279200D01*
X130305086Y-105345721D01*
X129990064Y-105476207D01*
X129706552Y-105665644D01*
X129465444Y-105906752D01*
X129276007Y-106190264D01*
X129145521Y-106505286D01*
X129079000Y-106839711D01*
X128701400Y-106839711D01*
X128701400Y-104966097D01*
X128780683Y-105045380D01*
X128982303Y-105180098D01*
X129206331Y-105272893D01*
X129444157Y-105320200D01*
X129686643Y-105320200D01*
X129924469Y-105272893D01*
X130148497Y-105180098D01*
X130350117Y-105045380D01*
X130521580Y-104873917D01*
X130656298Y-104672297D01*
X130749093Y-104448269D01*
X130796400Y-104210443D01*
X130796400Y-103967957D01*
X130749093Y-103730131D01*
X130656298Y-103506103D01*
X130635516Y-103475000D01*
X135221928Y-103475000D01*
X135225000Y-104489250D01*
X135383750Y-104648000D01*
X137033000Y-104648000D01*
X137033000Y-102998750D01*
X137287000Y-102998750D01*
X137287000Y-104648000D01*
X138936250Y-104648000D01*
X139095000Y-104489250D01*
X139098072Y-103475000D01*
X139085812Y-103350518D01*
X139049502Y-103230820D01*
X138990537Y-103120506D01*
X138911185Y-103023815D01*
X138814494Y-102944463D01*
X138704180Y-102885498D01*
X138584482Y-102849188D01*
X138460000Y-102836928D01*
X137445750Y-102840000D01*
X137287000Y-102998750D01*
X137033000Y-102998750D01*
X136874250Y-102840000D01*
X135860000Y-102836928D01*
X135735518Y-102849188D01*
X135615820Y-102885498D01*
X135505506Y-102944463D01*
X135408815Y-103023815D01*
X135329463Y-103120506D01*
X135270498Y-103230820D01*
X135234188Y-103350518D01*
X135221928Y-103475000D01*
X130635516Y-103475000D01*
X130521580Y-103304483D01*
X130350117Y-103133020D01*
X130148497Y-102998302D01*
X129924469Y-102905507D01*
X129686643Y-102858200D01*
X129444157Y-102858200D01*
X129206331Y-102905507D01*
X128982303Y-102998302D01*
X128780683Y-103133020D01*
X128701400Y-103212303D01*
X128701400Y-102426097D01*
X128780683Y-102505380D01*
X128982303Y-102640098D01*
X129206331Y-102732893D01*
X129444157Y-102780200D01*
X129686643Y-102780200D01*
X129924469Y-102732893D01*
X130148497Y-102640098D01*
X130350117Y-102505380D01*
X130521580Y-102333917D01*
X130656298Y-102132297D01*
X130749093Y-101908269D01*
X130796400Y-101670443D01*
X130796400Y-101427957D01*
X130749093Y-101190131D01*
X130656298Y-100966103D01*
X130521580Y-100764483D01*
X130350117Y-100593020D01*
X130148497Y-100458302D01*
X129924469Y-100365507D01*
X129686643Y-100318200D01*
X129444157Y-100318200D01*
X129206331Y-100365507D01*
X128982303Y-100458302D01*
X128780683Y-100593020D01*
X128701400Y-100672303D01*
X128701400Y-99886097D01*
X128780683Y-99965380D01*
X128982303Y-100100098D01*
X129206331Y-100192893D01*
X129444157Y-100240200D01*
X129686643Y-100240200D01*
X129924469Y-100192893D01*
X130148497Y-100100098D01*
X130350117Y-99965380D01*
X130521580Y-99793917D01*
X130656298Y-99592297D01*
X130749093Y-99368269D01*
X130796400Y-99130443D01*
X130796400Y-98887957D01*
X130749093Y-98650131D01*
X130656298Y-98426103D01*
X130521580Y-98224483D01*
X130350117Y-98053020D01*
X130148497Y-97918302D01*
X129924469Y-97825507D01*
X129686643Y-97778200D01*
X129444157Y-97778200D01*
X129206331Y-97825507D01*
X128982303Y-97918302D01*
X128780683Y-98053020D01*
X128701400Y-98132303D01*
X128701400Y-97346097D01*
X128780683Y-97425380D01*
X128982303Y-97560098D01*
X129206331Y-97652893D01*
X129444157Y-97700200D01*
X129686643Y-97700200D01*
X129924469Y-97652893D01*
X130148497Y-97560098D01*
X130350117Y-97425380D01*
X130521580Y-97253917D01*
X130656298Y-97052297D01*
X130749093Y-96828269D01*
X130796400Y-96590443D01*
X130796400Y-96347957D01*
X130749093Y-96110131D01*
X130656298Y-95886103D01*
X130521580Y-95684483D01*
X130350117Y-95513020D01*
X130148497Y-95378302D01*
X129924469Y-95285507D01*
X129686643Y-95238200D01*
X129444157Y-95238200D01*
X129206331Y-95285507D01*
X128982303Y-95378302D01*
X128780683Y-95513020D01*
X128701400Y-95592303D01*
X128701400Y-94806097D01*
X128780683Y-94885380D01*
X128982303Y-95020098D01*
X129206331Y-95112893D01*
X129444157Y-95160200D01*
X129686643Y-95160200D01*
X129924469Y-95112893D01*
X130148497Y-95020098D01*
X130350117Y-94885380D01*
X130521580Y-94713917D01*
X130656298Y-94512297D01*
X130749093Y-94288269D01*
X130796400Y-94050443D01*
X130796400Y-93807957D01*
X130749093Y-93570131D01*
X130656298Y-93346103D01*
X130521580Y-93144483D01*
X130350117Y-92973020D01*
X130148497Y-92838302D01*
X129924469Y-92745507D01*
X129686643Y-92698200D01*
X129444157Y-92698200D01*
X129206331Y-92745507D01*
X128982303Y-92838302D01*
X128780683Y-92973020D01*
X128701400Y-93052303D01*
X128701400Y-92266097D01*
X128780683Y-92345380D01*
X128982303Y-92480098D01*
X129206331Y-92572893D01*
X129444157Y-92620200D01*
X129686643Y-92620200D01*
X129924469Y-92572893D01*
X130148497Y-92480098D01*
X130350117Y-92345380D01*
X130521580Y-92173917D01*
X130656298Y-91972297D01*
X130749093Y-91748269D01*
X130796400Y-91510443D01*
X130796400Y-91267957D01*
X130749093Y-91030131D01*
X130656298Y-90806103D01*
X130521580Y-90604483D01*
X130350117Y-90433020D01*
X130148497Y-90298302D01*
X129924469Y-90205507D01*
X129686643Y-90158200D01*
X129444157Y-90158200D01*
X129206331Y-90205507D01*
X128982303Y-90298302D01*
X128780683Y-90433020D01*
X128701400Y-90512303D01*
X128701400Y-89726097D01*
X128780683Y-89805380D01*
X128982303Y-89940098D01*
X129206331Y-90032893D01*
X129444157Y-90080200D01*
X129686643Y-90080200D01*
X129924469Y-90032893D01*
X130148497Y-89940098D01*
X130350117Y-89805380D01*
X130521580Y-89633917D01*
X130656298Y-89432297D01*
X130749093Y-89208269D01*
X130796400Y-88970443D01*
X130796400Y-88727957D01*
X130749093Y-88490131D01*
X130656298Y-88266103D01*
X130521580Y-88064483D01*
X130350117Y-87893020D01*
X130148497Y-87758302D01*
X129924469Y-87665507D01*
X129686643Y-87618200D01*
X129444157Y-87618200D01*
X129206331Y-87665507D01*
X128982303Y-87758302D01*
X128780683Y-87893020D01*
X128701400Y-87972303D01*
X128701400Y-87186097D01*
X128780683Y-87265380D01*
X128982303Y-87400098D01*
X129206331Y-87492893D01*
X129444157Y-87540200D01*
X129686643Y-87540200D01*
X129924469Y-87492893D01*
X130148497Y-87400098D01*
X130350117Y-87265380D01*
X130521580Y-87093917D01*
X130656298Y-86892297D01*
X130749093Y-86668269D01*
X130796400Y-86430443D01*
X130796400Y-86187957D01*
X130749093Y-85950131D01*
X130656298Y-85726103D01*
X130521580Y-85524483D01*
X130350117Y-85353020D01*
X130148497Y-85218302D01*
X129924469Y-85125507D01*
X129686643Y-85078200D01*
X129444157Y-85078200D01*
X129206331Y-85125507D01*
X128982303Y-85218302D01*
X128780683Y-85353020D01*
X128701400Y-85432303D01*
X128701400Y-84646097D01*
X128780683Y-84725380D01*
X128982303Y-84860098D01*
X129206331Y-84952893D01*
X129444157Y-85000200D01*
X129686643Y-85000200D01*
X129924469Y-84952893D01*
X130148497Y-84860098D01*
X130350117Y-84725380D01*
X130521580Y-84553917D01*
X130656298Y-84352297D01*
X130749093Y-84128269D01*
X130796400Y-83890443D01*
X130796400Y-83647957D01*
X130749093Y-83410131D01*
X130656298Y-83186103D01*
X130521580Y-82984483D01*
X130350117Y-82813020D01*
X130148497Y-82678302D01*
X129924469Y-82585507D01*
X129686643Y-82538200D01*
X129444157Y-82538200D01*
X129206331Y-82585507D01*
X128982303Y-82678302D01*
X128780683Y-82813020D01*
X128701400Y-82892303D01*
X128701400Y-82106097D01*
X128780683Y-82185380D01*
X128982303Y-82320098D01*
X129206331Y-82412893D01*
X129444157Y-82460200D01*
X129686643Y-82460200D01*
X129924469Y-82412893D01*
X130148497Y-82320098D01*
X130350117Y-82185380D01*
X130521580Y-82013917D01*
X130656298Y-81812297D01*
X130749093Y-81588269D01*
X130796400Y-81350443D01*
X130796400Y-81107957D01*
X130749093Y-80870131D01*
X130656298Y-80646103D01*
X130521580Y-80444483D01*
X130350117Y-80273020D01*
X130148497Y-80138302D01*
X129924469Y-80045507D01*
X129686643Y-79998200D01*
X129444157Y-79998200D01*
X129206331Y-80045507D01*
X128982303Y-80138302D01*
X128780683Y-80273020D01*
X128701400Y-80352303D01*
X128701400Y-79566097D01*
X128780683Y-79645380D01*
X128982303Y-79780098D01*
X129206331Y-79872893D01*
X129444157Y-79920200D01*
X129686643Y-79920200D01*
X129924469Y-79872893D01*
X130148497Y-79780098D01*
X130350117Y-79645380D01*
X130521580Y-79473917D01*
X130656298Y-79272297D01*
X130749093Y-79048269D01*
X130796400Y-78810443D01*
X130796400Y-78567957D01*
X130749093Y-78330131D01*
X130728508Y-78280434D01*
X131295651Y-77713291D01*
X131315995Y-77696595D01*
X131382651Y-77615375D01*
X131432181Y-77522711D01*
X131462681Y-77422165D01*
X131470400Y-77343795D01*
X131470400Y-77343788D01*
X131472979Y-77317601D01*
X131470400Y-77291414D01*
X131470400Y-76487150D01*
X131491540Y-76508290D01*
X131610105Y-76587512D01*
X131741846Y-76642081D01*
X131881702Y-76669900D01*
X132024298Y-76669900D01*
X132164154Y-76642081D01*
X132295895Y-76587512D01*
X132414460Y-76508290D01*
X132515290Y-76407460D01*
X132594512Y-76288895D01*
X132649081Y-76157154D01*
X132658215Y-76111235D01*
X132675550Y-76111235D01*
X132700000Y-76113643D01*
X133200000Y-76113643D01*
X133274689Y-76106287D01*
X133346508Y-76084501D01*
X133350000Y-76082634D01*
X133353492Y-76084501D01*
X133425311Y-76106287D01*
X133500000Y-76113643D01*
X134000000Y-76113643D01*
X134024450Y-76111235D01*
X134049009Y-76111235D01*
X134123698Y-76103879D01*
X134219831Y-76084757D01*
X134291648Y-76062972D01*
X134382204Y-76025463D01*
X134448394Y-75990083D01*
X134529893Y-75935627D01*
X134587908Y-75888016D01*
X134657216Y-75818708D01*
X134704827Y-75760693D01*
X134759283Y-75679194D01*
X134794663Y-75613004D01*
X134832172Y-75522448D01*
X134853957Y-75450631D01*
X134873079Y-75354498D01*
X134880435Y-75279809D01*
X134880435Y-75255250D01*
X134882843Y-75230800D01*
X134882843Y-74730800D01*
X134880435Y-74706350D01*
X134880435Y-74681791D01*
X134873079Y-74607102D01*
X134853957Y-74510969D01*
X134832172Y-74439152D01*
X134794663Y-74348596D01*
X134759283Y-74282406D01*
X134704827Y-74200907D01*
X134657216Y-74142892D01*
X134587908Y-74073584D01*
X134533400Y-74028851D01*
X134533400Y-73779184D01*
X134633523Y-73769323D01*
X134749895Y-73734022D01*
X134857144Y-73676696D01*
X134951149Y-73599549D01*
X135028296Y-73505544D01*
X135085622Y-73398295D01*
X135120923Y-73281923D01*
X135132843Y-73160900D01*
X135132843Y-72685900D01*
X135120923Y-72564877D01*
X135085622Y-72448505D01*
X135028296Y-72341256D01*
X134951149Y-72247251D01*
X134857144Y-72170104D01*
X134749895Y-72112778D01*
X134633523Y-72077477D01*
X134512500Y-72065557D01*
X133937500Y-72065557D01*
X133816477Y-72077477D01*
X133700105Y-72112778D01*
X133592856Y-72170104D01*
X133498851Y-72247251D01*
X133421704Y-72341256D01*
X133364378Y-72448505D01*
X133350000Y-72495903D01*
X133335622Y-72448505D01*
X133278296Y-72341256D01*
X133201149Y-72247251D01*
X133107144Y-72170104D01*
X133090860Y-72161400D01*
X133107144Y-72152696D01*
X133201149Y-72075549D01*
X133278296Y-71981544D01*
X133335622Y-71874295D01*
X133370923Y-71757923D01*
X133382843Y-71636900D01*
X133382843Y-71161900D01*
X133370923Y-71040877D01*
X133335622Y-70924505D01*
X133278296Y-70817256D01*
X133201149Y-70723251D01*
X133107144Y-70646104D01*
X132999895Y-70588778D01*
X132883523Y-70553477D01*
X132762500Y-70541557D01*
X132187500Y-70541557D01*
X132066477Y-70553477D01*
X131950105Y-70588778D01*
X131842856Y-70646104D01*
X131748851Y-70723251D01*
X131671704Y-70817256D01*
X131614378Y-70924505D01*
X131579077Y-71040877D01*
X131567157Y-71161900D01*
X131567157Y-71636900D01*
X131579077Y-71757923D01*
X131614378Y-71874295D01*
X131671704Y-71981544D01*
X131748851Y-72075549D01*
X131842856Y-72152696D01*
X131859140Y-72161400D01*
X131842856Y-72170104D01*
X131748851Y-72247251D01*
X131671704Y-72341256D01*
X131614378Y-72448505D01*
X131579077Y-72564877D01*
X131567157Y-72685900D01*
X131567157Y-73076901D01*
X131050400Y-73593659D01*
X131050400Y-73482198D01*
X130885556Y-73482198D01*
X131006876Y-73252310D01*
X130962225Y-73105101D01*
X130837041Y-72842280D01*
X130662988Y-72608931D01*
X130446755Y-72414022D01*
X130196652Y-72265043D01*
X130034232Y-72207428D01*
X130148497Y-72160098D01*
X130350117Y-72025380D01*
X130521580Y-71853917D01*
X130656298Y-71652297D01*
X130749093Y-71428269D01*
X130796400Y-71190443D01*
X130796400Y-70947957D01*
X130749093Y-70710131D01*
X130656298Y-70486103D01*
X130521580Y-70284483D01*
X130350117Y-70113020D01*
X130148497Y-69978302D01*
X129924469Y-69885507D01*
X129686643Y-69838200D01*
X129444157Y-69838200D01*
X129206331Y-69885507D01*
X128982303Y-69978302D01*
X128780683Y-70113020D01*
X128701400Y-70192303D01*
X128701400Y-69406097D01*
X128780683Y-69485380D01*
X128982303Y-69620098D01*
X129206331Y-69712893D01*
X129444157Y-69760200D01*
X129686643Y-69760200D01*
X129924469Y-69712893D01*
X130148497Y-69620098D01*
X130350117Y-69485380D01*
X130521580Y-69313917D01*
X130656298Y-69112297D01*
X130749093Y-68888269D01*
X130796400Y-68650443D01*
X130796400Y-68407957D01*
X130749093Y-68170131D01*
X130656298Y-67946103D01*
X130521580Y-67744483D01*
X130350117Y-67573020D01*
X130148497Y-67438302D01*
X129924469Y-67345507D01*
X129686643Y-67298200D01*
X129444157Y-67298200D01*
X129206331Y-67345507D01*
X128982303Y-67438302D01*
X128780683Y-67573020D01*
X128701400Y-67652303D01*
X128701400Y-67220664D01*
X128715400Y-67222043D01*
X130415400Y-67222043D01*
X130490089Y-67214687D01*
X130561908Y-67192901D01*
X130628096Y-67157522D01*
X130686111Y-67109911D01*
X130733722Y-67051896D01*
X130769101Y-66985708D01*
X130790887Y-66913889D01*
X130798243Y-66839200D01*
X130798243Y-65139200D01*
X130790887Y-65064511D01*
X130769101Y-64992692D01*
X130733722Y-64926504D01*
X130686111Y-64868489D01*
X130638941Y-64829778D01*
X130813328Y-64846768D01*
X131427831Y-64785590D01*
X132018592Y-64605703D01*
X132557373Y-64317718D01*
X132833543Y-63899748D01*
X130810000Y-61876205D01*
X130795858Y-61890348D01*
X130616253Y-61710743D01*
X130630395Y-61696600D01*
X129223785Y-60289990D01*
X129322557Y-60168883D01*
X129398808Y-60105803D01*
X130810000Y-61516995D01*
X130824143Y-61502853D01*
X131003748Y-61682458D01*
X130989605Y-61696600D01*
X133013148Y-63720143D01*
X133431118Y-63443973D01*
X133721649Y-62899043D01*
X133900287Y-62307904D01*
X133960168Y-61693272D01*
X133926591Y-61355999D01*
X137060157Y-61355999D01*
X137060157Y-62656001D01*
X137072317Y-62779462D01*
X137108329Y-62898179D01*
X137166810Y-63007589D01*
X137245512Y-63103488D01*
X137341411Y-63182190D01*
X137450821Y-63240671D01*
X137569538Y-63276683D01*
X137692999Y-63288843D01*
X138393001Y-63288843D01*
X138516462Y-63276683D01*
X138635179Y-63240671D01*
X138744589Y-63182190D01*
X138840488Y-63103488D01*
X138919190Y-63007589D01*
X138977671Y-62898179D01*
X139013683Y-62779462D01*
X139025843Y-62656001D01*
X139025843Y-61355999D01*
X142660157Y-61355999D01*
X142660157Y-62656001D01*
X142672317Y-62779462D01*
X142708329Y-62898179D01*
X142766810Y-63007589D01*
X142845512Y-63103488D01*
X142941411Y-63182190D01*
X143050821Y-63240671D01*
X143169538Y-63276683D01*
X143292999Y-63288843D01*
X143993001Y-63288843D01*
X144116462Y-63276683D01*
X144235179Y-63240671D01*
X144344589Y-63182190D01*
X144440488Y-63103488D01*
X144519190Y-63007589D01*
X144577671Y-62898179D01*
X144613683Y-62779462D01*
X144625843Y-62656001D01*
X144625843Y-61355999D01*
X144613683Y-61232538D01*
X144577671Y-61113821D01*
X144519190Y-61004411D01*
X144440488Y-60908512D01*
X144344589Y-60829810D01*
X144235179Y-60771329D01*
X144116462Y-60735317D01*
X143993001Y-60723157D01*
X143292999Y-60723157D01*
X143169538Y-60735317D01*
X143050821Y-60771329D01*
X142941411Y-60829810D01*
X142845512Y-60908512D01*
X142766810Y-61004411D01*
X142708329Y-61113821D01*
X142672317Y-61232538D01*
X142660157Y-61355999D01*
X139025843Y-61355999D01*
X139013683Y-61232538D01*
X138977671Y-61113821D01*
X138919190Y-61004411D01*
X138840488Y-60908512D01*
X138744589Y-60829810D01*
X138635179Y-60771329D01*
X138516462Y-60735317D01*
X138393001Y-60723157D01*
X137692999Y-60723157D01*
X137569538Y-60735317D01*
X137450821Y-60771329D01*
X137341411Y-60829810D01*
X137245512Y-60908512D01*
X137166810Y-61004411D01*
X137108329Y-61113821D01*
X137072317Y-61232538D01*
X137060157Y-61355999D01*
X133926591Y-61355999D01*
X133898990Y-61078769D01*
X133719103Y-60488008D01*
X133431118Y-59949227D01*
X133013150Y-59673058D01*
X133126875Y-59559333D01*
X133104742Y-59537200D01*
X136658631Y-59537200D01*
X136581988Y-59651905D01*
G37*
X136581988Y-59651905D02*
X136527419Y-59783646D01*
X136499600Y-59923502D01*
X136499600Y-60066098D01*
X136527419Y-60205954D01*
X136581988Y-60337695D01*
X136661210Y-60456260D01*
X136762040Y-60557090D01*
X136880605Y-60636312D01*
X137012346Y-60690881D01*
X137152202Y-60718700D01*
X137294798Y-60718700D01*
X137434654Y-60690881D01*
X137566395Y-60636312D01*
X137684960Y-60557090D01*
X137785790Y-60456260D01*
X137865012Y-60337695D01*
X137919581Y-60205954D01*
X137947400Y-60066098D01*
X137947400Y-59923502D01*
X137919581Y-59783646D01*
X137865012Y-59651905D01*
X137788369Y-59537200D01*
X143167381Y-59537200D01*
X143090738Y-59651905D01*
X143036169Y-59783646D01*
X143008350Y-59923502D01*
X143008350Y-60066098D01*
X143036169Y-60205954D01*
X143090738Y-60337695D01*
X143169960Y-60456260D01*
X143270790Y-60557090D01*
X143389355Y-60636312D01*
X143521096Y-60690881D01*
X143660952Y-60718700D01*
X143803548Y-60718700D01*
X143943404Y-60690881D01*
X144075145Y-60636312D01*
X144193710Y-60557090D01*
X144294540Y-60456260D01*
X144373762Y-60337695D01*
X144428331Y-60205954D01*
X144456150Y-60066098D01*
X144456150Y-59923502D01*
X144428331Y-59783646D01*
X144373762Y-59651905D01*
X144297119Y-59537200D01*
X146301792Y-59537200D01*
X146412250Y-59647658D01*
X145994282Y-59923827D01*
X145703751Y-60468757D01*
X145525113Y-61059896D01*
X145465232Y-61674528D01*
X145526410Y-62289031D01*
X145706297Y-62879792D01*
X145994282Y-63418573D01*
X146412252Y-63694743D01*
X148435795Y-61671200D01*
X148421653Y-61657058D01*
X148601258Y-61477453D01*
X148615400Y-61491595D01*
X150024590Y-60082405D01*
X150117717Y-60158357D01*
X150203796Y-60262409D01*
X148795005Y-61671200D01*
X148809148Y-61685343D01*
X148629543Y-61864948D01*
X148615400Y-61850805D01*
X146591857Y-63874348D01*
X146868027Y-64292318D01*
X147412957Y-64582849D01*
X148004096Y-64761487D01*
X148618728Y-64821368D01*
X149233231Y-64760190D01*
X149823992Y-64580303D01*
X150362773Y-64292318D01*
X150638942Y-63874350D01*
X150749400Y-63984808D01*
X150749400Y-74971037D01*
X150710000Y-74967157D01*
X149010000Y-74967157D01*
X148935311Y-74974513D01*
X148863492Y-74996299D01*
X148797304Y-75031678D01*
X148739289Y-75079289D01*
X148691678Y-75137304D01*
X148656299Y-75203492D01*
X148634513Y-75275311D01*
X148627157Y-75350000D01*
X148627157Y-77050000D01*
X148634513Y-77124689D01*
X148656299Y-77196508D01*
X148691678Y-77262696D01*
X148739289Y-77320711D01*
X148797304Y-77368322D01*
X148863492Y-77403701D01*
X148935311Y-77425487D01*
X149010000Y-77432843D01*
X150710000Y-77432843D01*
X150749400Y-77428963D01*
X150749400Y-77888503D01*
X150644717Y-77783820D01*
X150443097Y-77649102D01*
X150219069Y-77556307D01*
X149981243Y-77509000D01*
X149738757Y-77509000D01*
X149500931Y-77556307D01*
X149276903Y-77649102D01*
X149075283Y-77783820D01*
X148903820Y-77955283D01*
X148769102Y-78156903D01*
X148676307Y-78380931D01*
X148629000Y-78618757D01*
X148629000Y-78861243D01*
X148676307Y-79099069D01*
X148769102Y-79323097D01*
X148903820Y-79524717D01*
X149075283Y-79696180D01*
X149276903Y-79830898D01*
X149500931Y-79923693D01*
X149738757Y-79971000D01*
X149981243Y-79971000D01*
X150219069Y-79923693D01*
X150443097Y-79830898D01*
X150644717Y-79696180D01*
X150749400Y-79591497D01*
X150749400Y-80428503D01*
X150644717Y-80323820D01*
X150443097Y-80189102D01*
X150219069Y-80096307D01*
X149981243Y-80049000D01*
X149738757Y-80049000D01*
X149500931Y-80096307D01*
X149276903Y-80189102D01*
X149075283Y-80323820D01*
X148903820Y-80495283D01*
X148769102Y-80696903D01*
X148676307Y-80920931D01*
X148629000Y-81158757D01*
X148629000Y-81188081D01*
X148488400Y-81047481D01*
X148488400Y-77442454D01*
X148493192Y-77393799D01*
X148488400Y-77345145D01*
X148488400Y-77345135D01*
X148474067Y-77199608D01*
X148417423Y-77012880D01*
X148325439Y-76840789D01*
X148201649Y-76689951D01*
X148163850Y-76658930D01*
X143992600Y-72487681D01*
X143992600Y-70964204D01*
X144055073Y-70870706D01*
X144053928Y-71081000D01*
X144066188Y-71205482D01*
X144102498Y-71325180D01*
X144161463Y-71435494D01*
X144240815Y-71532185D01*
X144337506Y-71611537D01*
X144447820Y-71670502D01*
X144567518Y-71706812D01*
X144692000Y-71719072D01*
X145256250Y-71716000D01*
X145415000Y-71557250D01*
X145415000Y-70358000D01*
X145669000Y-70358000D01*
X145669000Y-71557250D01*
X145827750Y-71716000D01*
X146392000Y-71719072D01*
X146516482Y-71706812D01*
X146636180Y-71670502D01*
X146746494Y-71611537D01*
X146843185Y-71532185D01*
X146922537Y-71435494D01*
X146981502Y-71325180D01*
X147017812Y-71205482D01*
X147030072Y-71081000D01*
X147027000Y-70516750D01*
X146868250Y-70358000D01*
X145669000Y-70358000D01*
X145415000Y-70358000D01*
X145395000Y-70358000D01*
X145395000Y-70104000D01*
X145415000Y-70104000D01*
X145415000Y-68904750D01*
X145669000Y-68904750D01*
X145669000Y-70104000D01*
X146868250Y-70104000D01*
X147027000Y-69945250D01*
X147030072Y-69381000D01*
X147017812Y-69256518D01*
X146981502Y-69136820D01*
X146922537Y-69026506D01*
X146843185Y-68929815D01*
X146746494Y-68850463D01*
X146636180Y-68791498D01*
X146516482Y-68755188D01*
X146392000Y-68742928D01*
X145827750Y-68746000D01*
X145669000Y-68904750D01*
X145415000Y-68904750D01*
X145256250Y-68746000D01*
X144692000Y-68742928D01*
X144567518Y-68755188D01*
X144447820Y-68791498D01*
X144337506Y-68850463D01*
X144240815Y-68929815D01*
X144161463Y-69026506D01*
X144102498Y-69136820D01*
X144066188Y-69256518D01*
X144053928Y-69381000D01*
X144055073Y-69591294D01*
X143958180Y-69446283D01*
X143786717Y-69274820D01*
X143585097Y-69140102D01*
X143361069Y-69047307D01*
X143123243Y-69000000D01*
X142880757Y-69000000D01*
X142764077Y-69023209D01*
X142028800Y-68287933D01*
X142028800Y-65847311D01*
X142025843Y-65817288D01*
X142025843Y-65256000D01*
X142015605Y-65152047D01*
X141985283Y-65052090D01*
X141936043Y-64959968D01*
X141869777Y-64879223D01*
X141789032Y-64812957D01*
X141696910Y-64763717D01*
X141596953Y-64733395D01*
X141493000Y-64723157D01*
X141193000Y-64723157D01*
X141089047Y-64733395D01*
X140989090Y-64763717D01*
X140896968Y-64812957D01*
X140843000Y-64857248D01*
X140789032Y-64812957D01*
X140696910Y-64763717D01*
X140596953Y-64733395D01*
X140493000Y-64723157D01*
X140193000Y-64723157D01*
X140089047Y-64733395D01*
X139989090Y-64763717D01*
X139896968Y-64812957D01*
X139843000Y-64857248D01*
X139789032Y-64812957D01*
X139696910Y-64763717D01*
X139596953Y-64733395D01*
X139493000Y-64723157D01*
X139193000Y-64723157D01*
X139089047Y-64733395D01*
X138989090Y-64763717D01*
X138896968Y-64812957D01*
X138816223Y-64879223D01*
X138749957Y-64959968D01*
X138700717Y-65052090D01*
X138670395Y-65152047D01*
X138660157Y-65256000D01*
X138660157Y-65817289D01*
X138657200Y-65847312D01*
X138657201Y-68525931D01*
X138159923Y-69023209D01*
X138043243Y-69000000D01*
X137800757Y-69000000D01*
X137562931Y-69047307D01*
X137338903Y-69140102D01*
X137137283Y-69274820D01*
X136965820Y-69446283D01*
X136831102Y-69647903D01*
X136738307Y-69871931D01*
X136691000Y-70109757D01*
X136691000Y-70352243D01*
X136738307Y-70590069D01*
X136831102Y-70814097D01*
X136965820Y-71015717D01*
X137137283Y-71187180D01*
X137338903Y-71321898D01*
X137562931Y-71414693D01*
X137800757Y-71462000D01*
X138043243Y-71462000D01*
X138281069Y-71414693D01*
X138505097Y-71321898D01*
X138706717Y-71187180D01*
X138878180Y-71015717D01*
X139012898Y-70814097D01*
X139105693Y-70590069D01*
X139153000Y-70352243D01*
X139153000Y-70109757D01*
X139129791Y-69993077D01*
X139297661Y-69825207D01*
X139278307Y-69871931D01*
X139231000Y-70109757D01*
X139231000Y-70352243D01*
X139278307Y-70590069D01*
X139371102Y-70814097D01*
X139505820Y-71015717D01*
X139677283Y-71187180D01*
X139878903Y-71321898D01*
X140102931Y-71414693D01*
X140340757Y-71462000D01*
X140583243Y-71462000D01*
X140821069Y-71414693D01*
X141045097Y-71321898D01*
X141246717Y-71187180D01*
X141418180Y-71015717D01*
X141552898Y-70814097D01*
X141645693Y-70590069D01*
X141693000Y-70352243D01*
X141693000Y-70109757D01*
X141645693Y-69871931D01*
X141626339Y-69825207D01*
X141794209Y-69993077D01*
X141771000Y-70109757D01*
X141771000Y-70352243D01*
X141818307Y-70590069D01*
X141911102Y-70814097D01*
X142011400Y-70964204D01*
X142011401Y-72364600D01*
X141566394Y-72364600D01*
X141540200Y-72362020D01*
X141514006Y-72364600D01*
X141514005Y-72364600D01*
X141435635Y-72372319D01*
X141335089Y-72402819D01*
X141242425Y-72452349D01*
X141161205Y-72519005D01*
X141144504Y-72539355D01*
X140932502Y-72751357D01*
X140541500Y-72751357D01*
X140420477Y-72763277D01*
X140304105Y-72798578D01*
X140196856Y-72855904D01*
X140102851Y-72933051D01*
X140025704Y-73027056D01*
X139968378Y-73134305D01*
X139954000Y-73181703D01*
X139939622Y-73134305D01*
X139882296Y-73027056D01*
X139805149Y-72933051D01*
X139711144Y-72855904D01*
X139603895Y-72798578D01*
X139487523Y-72763277D01*
X139366500Y-72751357D01*
X138791500Y-72751357D01*
X138670477Y-72763277D01*
X138554105Y-72798578D01*
X138446856Y-72855904D01*
X138352851Y-72933051D01*
X138275704Y-73027056D01*
X138218378Y-73134305D01*
X138183077Y-73250677D01*
X138171157Y-73371700D01*
X138171157Y-73846700D01*
X138183077Y-73967723D01*
X138218378Y-74084095D01*
X138275704Y-74191344D01*
X138352851Y-74285349D01*
X138446856Y-74362496D01*
X138545600Y-74415276D01*
X138545601Y-74502900D01*
X138481411Y-74537210D01*
X138385512Y-74615912D01*
X138306810Y-74711811D01*
X138248329Y-74821221D01*
X138212317Y-74939938D01*
X138200157Y-75063400D01*
X138200157Y-75863400D01*
X138212317Y-75986862D01*
X138248329Y-76105579D01*
X138306810Y-76214989D01*
X138385512Y-76310888D01*
X138481411Y-76389590D01*
X138590821Y-76448071D01*
X138709538Y-76484083D01*
X138833000Y-76496243D01*
X139658000Y-76496243D01*
X139781462Y-76484083D01*
X139900179Y-76448071D01*
X140009589Y-76389590D01*
X140105488Y-76310888D01*
X140184190Y-76214989D01*
X140242671Y-76105579D01*
X140278683Y-75986862D01*
X140290843Y-75863400D01*
X140290843Y-75063400D01*
X140278683Y-74939938D01*
X140242671Y-74821221D01*
X140184190Y-74711811D01*
X140105488Y-74615912D01*
X140009589Y-74537210D01*
X139900179Y-74478729D01*
X139781462Y-74442717D01*
X139658000Y-74430557D01*
X139612400Y-74430557D01*
X139612400Y-74415276D01*
X139711144Y-74362496D01*
X139805149Y-74285349D01*
X139882296Y-74191344D01*
X139939622Y-74084095D01*
X139954000Y-74036697D01*
X139968378Y-74084095D01*
X140025704Y-74191344D01*
X140102851Y-74285349D01*
X140196856Y-74362496D01*
X140304105Y-74419822D01*
X140420477Y-74455123D01*
X140541500Y-74467043D01*
X141116500Y-74467043D01*
X141237523Y-74455123D01*
X141353895Y-74419822D01*
X141461144Y-74362496D01*
X141555149Y-74285349D01*
X141632296Y-74191344D01*
X141689622Y-74084095D01*
X141724923Y-73967723D01*
X141736843Y-73846700D01*
X141736843Y-73455698D01*
X141761141Y-73431400D01*
X142163879Y-73431400D01*
X142174361Y-73451010D01*
X142250753Y-73544093D01*
X142298152Y-73601849D01*
X142335951Y-73632870D01*
X146507200Y-77804120D01*
X146507201Y-81409136D01*
X146502408Y-81457800D01*
X146507201Y-81506465D01*
X146521534Y-81651992D01*
X146542357Y-81720635D01*
X146578178Y-81838720D01*
X146670161Y-82010810D01*
X146756943Y-82116553D01*
X146793952Y-82161649D01*
X146831751Y-82192670D01*
X148351317Y-83712237D01*
X145916478Y-86147077D01*
X145872868Y-86182867D01*
X145730033Y-86356911D01*
X145623898Y-86555477D01*
X145558539Y-86770933D01*
X145542000Y-86938861D01*
X145542000Y-85666542D01*
X146281651Y-84926891D01*
X146301995Y-84910195D01*
X146368651Y-84828975D01*
X146418181Y-84736311D01*
X146448681Y-84635765D01*
X146456400Y-84557395D01*
X146456400Y-84557388D01*
X146458979Y-84531201D01*
X146456400Y-84505014D01*
X146456400Y-78842394D01*
X146458980Y-78816200D01*
X146453685Y-78762436D01*
X146448681Y-78711635D01*
X146418181Y-78611089D01*
X146368651Y-78518425D01*
X146301995Y-78437205D01*
X146281645Y-78420504D01*
X144605496Y-76744355D01*
X144588795Y-76724005D01*
X144507575Y-76657349D01*
X144414911Y-76607819D01*
X144314365Y-76577319D01*
X144235995Y-76569600D01*
X144235987Y-76569600D01*
X144209800Y-76567021D01*
X144183613Y-76569600D01*
X134791076Y-76569600D01*
X134738296Y-76470856D01*
X134661149Y-76376851D01*
X134567144Y-76299704D01*
X134459895Y-76242378D01*
X134343523Y-76207077D01*
X134222500Y-76195157D01*
X133747500Y-76195157D01*
X133626477Y-76207077D01*
X133510105Y-76242378D01*
X133402856Y-76299704D01*
X133308851Y-76376851D01*
X133231704Y-76470856D01*
X133174378Y-76578105D01*
X133139077Y-76694477D01*
X133127157Y-76815500D01*
X133127157Y-77390500D01*
X133139077Y-77511523D01*
X133174378Y-77627895D01*
X133231704Y-77735144D01*
X133308851Y-77829149D01*
X133402856Y-77906296D01*
X133510105Y-77963622D01*
X133557503Y-77978000D01*
X133510105Y-77992378D01*
X133402856Y-78049704D01*
X133308851Y-78126851D01*
X133231704Y-78220856D01*
X133223000Y-78237140D01*
X133214296Y-78220856D01*
X133137149Y-78126851D01*
X133043144Y-78049704D01*
X132935895Y-77992378D01*
X132819523Y-77957077D01*
X132698500Y-77945157D01*
X132223500Y-77945157D01*
X132102477Y-77957077D01*
X131986105Y-77992378D01*
X131878856Y-78049704D01*
X131784851Y-78126851D01*
X131707704Y-78220856D01*
X131650378Y-78328105D01*
X131615077Y-78444477D01*
X131603157Y-78565500D01*
X131603157Y-79140500D01*
X131615077Y-79261523D01*
X131650378Y-79377895D01*
X131707704Y-79485144D01*
X131784851Y-79579149D01*
X131878856Y-79656296D01*
X131927601Y-79682351D01*
X131927601Y-79957884D01*
X131857624Y-79979111D01*
X131774147Y-80023731D01*
X131700978Y-80083778D01*
X131640931Y-80156947D01*
X131596311Y-80240424D01*
X131568835Y-80331002D01*
X131559557Y-80425200D01*
X131559557Y-80625200D01*
X131568835Y-80719398D01*
X131596311Y-80809976D01*
X131617811Y-80850200D01*
X131596311Y-80890424D01*
X131568835Y-80981002D01*
X131559557Y-81075200D01*
X131559557Y-81275200D01*
X131568835Y-81369398D01*
X131596311Y-81459976D01*
X131617811Y-81500200D01*
X131596311Y-81540424D01*
X131568835Y-81631002D01*
X131561247Y-81708039D01*
X131516298Y-81699098D01*
X131373702Y-81699098D01*
X131233846Y-81726917D01*
X131102105Y-81781486D01*
X130983540Y-81860708D01*
X130882710Y-81961538D01*
X130803488Y-82080103D01*
X130748919Y-82211844D01*
X130721100Y-82351700D01*
X130721100Y-82494296D01*
X130748919Y-82634152D01*
X130803488Y-82765893D01*
X130882710Y-82884458D01*
X130983540Y-82985288D01*
X131102105Y-83064510D01*
X131191000Y-83101332D01*
X131191000Y-93091000D01*
X131198321Y-93165329D01*
X131220002Y-93236802D01*
X131255210Y-93302672D01*
X131302592Y-93360408D01*
X131360328Y-93407790D01*
X131426198Y-93442998D01*
X131497671Y-93464679D01*
X131572000Y-93472000D01*
X132432947Y-93472000D01*
X132398210Y-93514328D01*
X132363002Y-93580198D01*
X132341321Y-93651671D01*
X132334000Y-93726000D01*
X132334000Y-99060000D01*
X132341321Y-99134329D01*
X132363002Y-99205802D01*
X132398210Y-99271672D01*
X132445592Y-99329408D01*
X132503328Y-99376790D01*
X132569198Y-99411998D01*
X132640671Y-99433679D01*
X132715000Y-99441000D01*
X136144000Y-99441000D01*
X136218329Y-99433679D01*
X136289802Y-99411998D01*
X136355672Y-99376790D01*
X136413408Y-99329408D01*
X136460790Y-99271672D01*
X136495998Y-99205802D01*
X136517679Y-99134329D01*
X136525000Y-99060000D01*
X136525000Y-95250000D01*
X138176000Y-95250000D01*
X138176000Y-98933000D01*
X138183321Y-99007329D01*
X138205002Y-99078802D01*
X138240210Y-99144672D01*
X138287592Y-99202408D01*
X138345328Y-99249790D01*
X138411198Y-99284998D01*
X138482671Y-99306679D01*
X138557000Y-99314000D01*
X139573000Y-99314000D01*
X139573000Y-106680000D01*
X139580321Y-106754329D01*
X139602002Y-106825802D01*
X139637210Y-106891672D01*
X139684592Y-106949408D01*
X139742328Y-106996790D01*
X139808198Y-107031998D01*
X139879671Y-107053679D01*
X139954000Y-107061000D01*
X144145000Y-107061000D01*
X144219329Y-107053679D01*
X144290802Y-107031998D01*
X144356672Y-106996790D01*
X144414408Y-106949408D01*
X144461790Y-106891672D01*
X144489563Y-106839711D01*
X146884400Y-106839711D01*
X146884400Y-107180689D01*
X146950921Y-107515114D01*
X147081407Y-107830136D01*
X147270844Y-108113648D01*
X147511952Y-108354756D01*
X147795464Y-108544193D01*
X148110486Y-108674679D01*
X148444911Y-108741200D01*
X148785889Y-108741200D01*
X149120314Y-108674679D01*
X149435336Y-108544193D01*
X149718848Y-108354756D01*
X149959956Y-108113648D01*
X150149393Y-107830136D01*
X150279879Y-107515114D01*
X150346400Y-107180689D01*
X150346400Y-106839711D01*
X150279879Y-106505286D01*
X150149393Y-106190264D01*
X149959956Y-105906752D01*
X149718848Y-105665644D01*
X149435336Y-105476207D01*
X149120314Y-105345721D01*
X148785889Y-105279200D01*
X148444911Y-105279200D01*
X148110486Y-105345721D01*
X147795464Y-105476207D01*
X147511952Y-105665644D01*
X147270844Y-105906752D01*
X147081407Y-106190264D01*
X146950921Y-106505286D01*
X146884400Y-106839711D01*
X144489563Y-106839711D01*
X144496998Y-106825802D01*
X144518679Y-106754329D01*
X144526000Y-106680000D01*
X144526000Y-95250000D01*
X144518679Y-95175671D01*
X144496998Y-95104198D01*
X144461790Y-95038328D01*
X144414408Y-94980592D01*
X144356672Y-94933210D01*
X144290802Y-94898002D01*
X144219329Y-94876321D01*
X144145000Y-94869000D01*
X138557000Y-94869000D01*
X138482671Y-94876321D01*
X138411198Y-94898002D01*
X138345328Y-94933210D01*
X138287592Y-94980592D01*
X138240210Y-95038328D01*
X138205002Y-95104198D01*
X138183321Y-95175671D01*
X138176000Y-95250000D01*
X136525000Y-95250000D01*
X136517679Y-95175671D01*
X136495998Y-95104198D01*
X136460790Y-95038328D01*
X136413408Y-94980592D01*
X136355672Y-94933210D01*
X136289802Y-94898002D01*
X136218329Y-94876321D01*
X136144000Y-94869000D01*
X134493000Y-94869000D01*
X134493000Y-93726000D01*
X134485679Y-93651671D01*
X134469701Y-93599000D01*
X136652000Y-93599000D01*
X136726329Y-93591679D01*
X136797802Y-93569998D01*
X136863672Y-93534790D01*
X136921408Y-93487408D01*
X136968790Y-93429672D01*
X137003998Y-93363802D01*
X137025679Y-93292329D01*
X137033000Y-93218000D01*
X141732000Y-93218000D01*
X141756776Y-93215560D01*
X141780601Y-93208333D01*
X141802557Y-93196597D01*
X141821803Y-93180803D01*
X141837597Y-93161557D01*
X141849333Y-93139601D01*
X141856560Y-93115776D01*
X141859000Y-93091000D01*
X141859000Y-83566000D01*
X141856560Y-83541224D01*
X141849333Y-83517399D01*
X141837597Y-83495443D01*
X141821803Y-83476197D01*
X141802557Y-83460403D01*
X141780601Y-83448667D01*
X141756776Y-83441440D01*
X141732000Y-83439000D01*
X140109053Y-83439000D01*
X140143790Y-83396672D01*
X140178998Y-83330802D01*
X140200679Y-83259329D01*
X140208000Y-83185000D01*
X140208000Y-82423000D01*
X145161000Y-82423000D01*
X145235329Y-82415679D01*
X145306802Y-82393998D01*
X145372672Y-82358790D01*
X145389601Y-82344897D01*
X145389601Y-84310257D01*
X144482858Y-85217000D01*
X142367000Y-85217000D01*
X142292671Y-85224321D01*
X142221198Y-85246002D01*
X142155328Y-85281210D01*
X142097592Y-85328592D01*
X142050210Y-85386328D01*
X142015002Y-85452198D01*
X141993321Y-85523671D01*
X141986000Y-85598000D01*
X141986000Y-88519000D01*
X141993321Y-88593329D01*
X142015002Y-88664802D01*
X142050210Y-88730672D01*
X142097592Y-88788408D01*
X142155328Y-88835790D01*
X142221198Y-88870998D01*
X142292671Y-88892679D01*
X142367000Y-88900000D01*
X142494000Y-88900000D01*
X142494000Y-93091000D01*
X142501321Y-93165329D01*
X142523002Y-93236802D01*
X142558210Y-93302672D01*
X142605592Y-93360408D01*
X142663328Y-93407790D01*
X142729198Y-93442998D01*
X142800671Y-93464679D01*
X142875000Y-93472000D01*
X147828000Y-93472000D01*
X147902329Y-93464679D01*
X147973802Y-93442998D01*
X148039672Y-93407790D01*
X148097408Y-93360408D01*
X148144790Y-93302672D01*
X148179998Y-93236802D01*
X148201679Y-93165329D01*
X148209000Y-93091000D01*
X148209000Y-91186000D01*
X148201679Y-91111671D01*
X148179998Y-91040198D01*
X148144790Y-90974328D01*
X148097408Y-90916592D01*
X148039672Y-90869210D01*
X147973802Y-90834002D01*
X147902329Y-90812321D01*
X147828000Y-90805000D01*
X145542000Y-90805000D01*
X145542000Y-89334146D01*
X145558539Y-89502066D01*
X145623897Y-89717522D01*
X145730032Y-89916088D01*
X145787506Y-89986120D01*
X145816678Y-90040696D01*
X145864289Y-90098711D01*
X145922304Y-90146322D01*
X145976878Y-90175493D01*
X146046911Y-90232968D01*
X146245477Y-90339103D01*
X146460933Y-90404461D01*
X146685000Y-90426530D01*
X146909066Y-90404461D01*
X147124522Y-90339103D01*
X147323088Y-90232968D01*
X147393120Y-90175494D01*
X147447696Y-90146322D01*
X147505711Y-90098711D01*
X147553322Y-90040696D01*
X147582493Y-89986122D01*
X147639968Y-89916089D01*
X147746103Y-89717523D01*
X147811461Y-89502067D01*
X147828000Y-89334146D01*
X147828000Y-87468445D01*
X148659893Y-86636552D01*
X148676307Y-86719069D01*
X148769102Y-86943097D01*
X148903820Y-87144717D01*
X149075283Y-87316180D01*
X149276903Y-87450898D01*
X149500931Y-87543693D01*
X149738757Y-87591000D01*
X149981243Y-87591000D01*
X150219069Y-87543693D01*
X150443097Y-87450898D01*
X150644717Y-87316180D01*
X150749401Y-87211496D01*
X150749401Y-88048504D01*
X150644717Y-87943820D01*
X150443097Y-87809102D01*
X150219069Y-87716307D01*
X149981243Y-87669000D01*
X149738757Y-87669000D01*
X149500931Y-87716307D01*
X149276903Y-87809102D01*
X149075283Y-87943820D01*
X148903820Y-88115283D01*
X148769102Y-88316903D01*
X148676307Y-88540931D01*
X148629000Y-88778757D01*
X148629000Y-89021243D01*
X148676307Y-89259069D01*
X148769102Y-89483097D01*
X148903820Y-89684717D01*
X149075283Y-89856180D01*
X149276903Y-89990898D01*
X149500931Y-90083693D01*
X149738757Y-90131000D01*
X149981243Y-90131000D01*
X150219069Y-90083693D01*
X150443097Y-89990898D01*
X150644717Y-89856180D01*
X150749401Y-89751496D01*
X150749401Y-90588504D01*
X150644717Y-90483820D01*
X150443097Y-90349102D01*
X150219069Y-90256307D01*
X149981243Y-90209000D01*
X149738757Y-90209000D01*
X149500931Y-90256307D01*
X149276903Y-90349102D01*
X149075283Y-90483820D01*
X148903820Y-90655283D01*
X148769102Y-90856903D01*
X148676307Y-91080931D01*
X148629000Y-91318757D01*
X148629000Y-91561243D01*
X148676307Y-91799069D01*
X148769102Y-92023097D01*
X148903820Y-92224717D01*
X149075283Y-92396180D01*
X149276903Y-92530898D01*
X149500931Y-92623693D01*
X149738757Y-92671000D01*
X149981243Y-92671000D01*
X150219069Y-92623693D01*
X150443097Y-92530898D01*
X150644717Y-92396180D01*
X150749401Y-92291496D01*
X150749401Y-93128504D01*
X150644717Y-93023820D01*
X150443097Y-92889102D01*
X150219069Y-92796307D01*
X149981243Y-92749000D01*
X149738757Y-92749000D01*
X149500931Y-92796307D01*
X149276903Y-92889102D01*
X149075283Y-93023820D01*
X148903820Y-93195283D01*
X148769102Y-93396903D01*
X148676307Y-93620931D01*
X148629000Y-93858757D01*
X148629000Y-94101243D01*
X148676307Y-94339069D01*
X148769102Y-94563097D01*
X148903820Y-94764717D01*
X149075283Y-94936180D01*
X149276903Y-95070898D01*
X149500931Y-95163693D01*
X149738757Y-95211000D01*
X149981243Y-95211000D01*
X150219069Y-95163693D01*
X150443097Y-95070898D01*
X150644717Y-94936180D01*
X150749401Y-94831496D01*
X150749401Y-95668504D01*
X150644717Y-95563820D01*
X150443097Y-95429102D01*
X150219069Y-95336307D01*
X149981243Y-95289000D01*
X149738757Y-95289000D01*
X149500931Y-95336307D01*
X149276903Y-95429102D01*
X149075283Y-95563820D01*
X148903820Y-95735283D01*
X148769102Y-95936903D01*
X148676307Y-96160931D01*
X148629000Y-96398757D01*
X148629000Y-96641243D01*
X148676307Y-96879069D01*
X148769102Y-97103097D01*
X148903820Y-97304717D01*
X149075283Y-97476180D01*
X149276903Y-97610898D01*
X149500931Y-97703693D01*
X149738757Y-97751000D01*
X149981243Y-97751000D01*
X150219069Y-97703693D01*
X150443097Y-97610898D01*
X150644717Y-97476180D01*
X150749401Y-97371496D01*
X150749401Y-98208504D01*
X150644717Y-98103820D01*
X150443097Y-97969102D01*
X150219069Y-97876307D01*
X149981243Y-97829000D01*
X149738757Y-97829000D01*
X149500931Y-97876307D01*
X149276903Y-97969102D01*
X149075283Y-98103820D01*
X148903820Y-98275283D01*
X148769102Y-98476903D01*
X148676307Y-98700931D01*
X148629000Y-98938757D01*
X148629000Y-99181243D01*
X148676307Y-99419069D01*
X148769102Y-99643097D01*
X148903820Y-99844717D01*
X149075283Y-100016180D01*
X149276903Y-100150898D01*
X149500931Y-100243693D01*
X149738757Y-100291000D01*
X149981243Y-100291000D01*
X150219069Y-100243693D01*
X150443097Y-100150898D01*
X150644717Y-100016180D01*
X150749401Y-99911496D01*
X150749401Y-100748504D01*
X150644717Y-100643820D01*
X150443097Y-100509102D01*
X150219069Y-100416307D01*
X149981243Y-100369000D01*
X149738757Y-100369000D01*
X149500931Y-100416307D01*
X149276903Y-100509102D01*
X149075283Y-100643820D01*
X148903820Y-100815283D01*
X148769102Y-101016903D01*
X148676307Y-101240931D01*
X148629000Y-101478757D01*
X148629000Y-101721243D01*
X148676307Y-101959069D01*
X148769102Y-102183097D01*
X148903820Y-102384717D01*
X149075283Y-102556180D01*
X149276903Y-102690898D01*
X149500931Y-102783693D01*
X149738757Y-102831000D01*
X149981243Y-102831000D01*
X150219069Y-102783693D01*
X150443097Y-102690898D01*
X150644717Y-102556180D01*
X150749401Y-102451496D01*
X150749401Y-103288504D01*
X150644717Y-103183820D01*
X150443097Y-103049102D01*
X150219069Y-102956307D01*
X149981243Y-102909000D01*
X149738757Y-102909000D01*
X149500931Y-102956307D01*
X149276903Y-103049102D01*
X149075283Y-103183820D01*
X148903820Y-103355283D01*
X148769102Y-103556903D01*
X148676307Y-103780931D01*
X148629000Y-104018757D01*
X148629000Y-104261243D01*
X148676307Y-104499069D01*
X148769102Y-104723097D01*
X148903820Y-104924717D01*
X149075283Y-105096180D01*
X149276903Y-105230898D01*
X149500931Y-105323693D01*
X149738757Y-105371000D01*
X149981243Y-105371000D01*
X150219069Y-105323693D01*
X150443097Y-105230898D01*
X150644717Y-105096180D01*
X150749401Y-104991496D01*
X150749401Y-106863336D01*
X150697174Y-107395986D01*
X150548250Y-107889248D01*
X150306354Y-108344185D01*
X149980702Y-108743475D01*
X149583699Y-109071904D01*
X149130464Y-109316967D01*
X148638258Y-109469330D01*
X148106700Y-109525200D01*
X131109253Y-109525200D01*
X130625948Y-109477812D01*
X130180147Y-109343216D01*
X129768979Y-109124594D01*
X129408105Y-108830273D01*
X129111273Y-108471465D01*
X128889785Y-108061833D01*
X128752082Y-107616985D01*
X128701400Y-107134780D01*
X128701400Y-106839711D01*
X129079000Y-106839711D01*
X129079000Y-107180689D01*
X129145521Y-107515114D01*
X129276007Y-107830136D01*
X129465444Y-108113648D01*
X129706552Y-108354756D01*
X129990064Y-108544193D01*
X130305086Y-108674679D01*
X130639511Y-108741200D01*
X130980489Y-108741200D01*
X131314914Y-108674679D01*
X131629936Y-108544193D01*
X131913448Y-108354756D01*
X132154556Y-108113648D01*
X132343993Y-107830136D01*
X132474479Y-107515114D01*
X132541000Y-107180689D01*
X132541000Y-106839711D01*
X132474479Y-106505286D01*
X132343993Y-106190264D01*
X132266976Y-106075000D01*
X135221928Y-106075000D01*
X135234188Y-106199482D01*
X135270498Y-106319180D01*
X135329463Y-106429494D01*
X135408815Y-106526185D01*
X135505506Y-106605537D01*
X135615820Y-106664502D01*
X135735518Y-106700812D01*
X135860000Y-106713072D01*
X136874250Y-106710000D01*
X137033000Y-106551250D01*
X137033000Y-104902000D01*
X137287000Y-104902000D01*
X137287000Y-106551250D01*
X137445750Y-106710000D01*
X138460000Y-106713072D01*
X138584482Y-106700812D01*
X138704180Y-106664502D01*
X138814494Y-106605537D01*
X138911185Y-106526185D01*
X138990537Y-106429494D01*
X139049502Y-106319180D01*
X139085812Y-106199482D01*
X139098072Y-106075000D01*
X139095000Y-105060750D01*
X138936250Y-104902000D01*
X137287000Y-104902000D01*
X137033000Y-104902000D01*
X135383750Y-104902000D01*
X135225000Y-105060750D01*
X135221928Y-106075000D01*
X132266976Y-106075000D01*
X132154556Y-105906752D01*
X131913448Y-105665644D01*
X131629936Y-105476207D01*
X131314914Y-105345721D01*
X130980489Y-105279200D01*
X130639511Y-105279200D01*
X130305086Y-105345721D01*
X129990064Y-105476207D01*
X129706552Y-105665644D01*
X129465444Y-105906752D01*
X129276007Y-106190264D01*
X129145521Y-106505286D01*
X129079000Y-106839711D01*
X128701400Y-106839711D01*
X128701400Y-104966097D01*
X128780683Y-105045380D01*
X128982303Y-105180098D01*
X129206331Y-105272893D01*
X129444157Y-105320200D01*
X129686643Y-105320200D01*
X129924469Y-105272893D01*
X130148497Y-105180098D01*
X130350117Y-105045380D01*
X130521580Y-104873917D01*
X130656298Y-104672297D01*
X130749093Y-104448269D01*
X130796400Y-104210443D01*
X130796400Y-103967957D01*
X130749093Y-103730131D01*
X130656298Y-103506103D01*
X130635516Y-103475000D01*
X135221928Y-103475000D01*
X135225000Y-104489250D01*
X135383750Y-104648000D01*
X137033000Y-104648000D01*
X137033000Y-102998750D01*
X137287000Y-102998750D01*
X137287000Y-104648000D01*
X138936250Y-104648000D01*
X139095000Y-104489250D01*
X139098072Y-103475000D01*
X139085812Y-103350518D01*
X139049502Y-103230820D01*
X138990537Y-103120506D01*
X138911185Y-103023815D01*
X138814494Y-102944463D01*
X138704180Y-102885498D01*
X138584482Y-102849188D01*
X138460000Y-102836928D01*
X137445750Y-102840000D01*
X137287000Y-102998750D01*
X137033000Y-102998750D01*
X136874250Y-102840000D01*
X135860000Y-102836928D01*
X135735518Y-102849188D01*
X135615820Y-102885498D01*
X135505506Y-102944463D01*
X135408815Y-103023815D01*
X135329463Y-103120506D01*
X135270498Y-103230820D01*
X135234188Y-103350518D01*
X135221928Y-103475000D01*
X130635516Y-103475000D01*
X130521580Y-103304483D01*
X130350117Y-103133020D01*
X130148497Y-102998302D01*
X129924469Y-102905507D01*
X129686643Y-102858200D01*
X129444157Y-102858200D01*
X129206331Y-102905507D01*
X128982303Y-102998302D01*
X128780683Y-103133020D01*
X128701400Y-103212303D01*
X128701400Y-102426097D01*
X128780683Y-102505380D01*
X128982303Y-102640098D01*
X129206331Y-102732893D01*
X129444157Y-102780200D01*
X129686643Y-102780200D01*
X129924469Y-102732893D01*
X130148497Y-102640098D01*
X130350117Y-102505380D01*
X130521580Y-102333917D01*
X130656298Y-102132297D01*
X130749093Y-101908269D01*
X130796400Y-101670443D01*
X130796400Y-101427957D01*
X130749093Y-101190131D01*
X130656298Y-100966103D01*
X130521580Y-100764483D01*
X130350117Y-100593020D01*
X130148497Y-100458302D01*
X129924469Y-100365507D01*
X129686643Y-100318200D01*
X129444157Y-100318200D01*
X129206331Y-100365507D01*
X128982303Y-100458302D01*
X128780683Y-100593020D01*
X128701400Y-100672303D01*
X128701400Y-99886097D01*
X128780683Y-99965380D01*
X128982303Y-100100098D01*
X129206331Y-100192893D01*
X129444157Y-100240200D01*
X129686643Y-100240200D01*
X129924469Y-100192893D01*
X130148497Y-100100098D01*
X130350117Y-99965380D01*
X130521580Y-99793917D01*
X130656298Y-99592297D01*
X130749093Y-99368269D01*
X130796400Y-99130443D01*
X130796400Y-98887957D01*
X130749093Y-98650131D01*
X130656298Y-98426103D01*
X130521580Y-98224483D01*
X130350117Y-98053020D01*
X130148497Y-97918302D01*
X129924469Y-97825507D01*
X129686643Y-97778200D01*
X129444157Y-97778200D01*
X129206331Y-97825507D01*
X128982303Y-97918302D01*
X128780683Y-98053020D01*
X128701400Y-98132303D01*
X128701400Y-97346097D01*
X128780683Y-97425380D01*
X128982303Y-97560098D01*
X129206331Y-97652893D01*
X129444157Y-97700200D01*
X129686643Y-97700200D01*
X129924469Y-97652893D01*
X130148497Y-97560098D01*
X130350117Y-97425380D01*
X130521580Y-97253917D01*
X130656298Y-97052297D01*
X130749093Y-96828269D01*
X130796400Y-96590443D01*
X130796400Y-96347957D01*
X130749093Y-96110131D01*
X130656298Y-95886103D01*
X130521580Y-95684483D01*
X130350117Y-95513020D01*
X130148497Y-95378302D01*
X129924469Y-95285507D01*
X129686643Y-95238200D01*
X129444157Y-95238200D01*
X129206331Y-95285507D01*
X128982303Y-95378302D01*
X128780683Y-95513020D01*
X128701400Y-95592303D01*
X128701400Y-94806097D01*
X128780683Y-94885380D01*
X128982303Y-95020098D01*
X129206331Y-95112893D01*
X129444157Y-95160200D01*
X129686643Y-95160200D01*
X129924469Y-95112893D01*
X130148497Y-95020098D01*
X130350117Y-94885380D01*
X130521580Y-94713917D01*
X130656298Y-94512297D01*
X130749093Y-94288269D01*
X130796400Y-94050443D01*
X130796400Y-93807957D01*
X130749093Y-93570131D01*
X130656298Y-93346103D01*
X130521580Y-93144483D01*
X130350117Y-92973020D01*
X130148497Y-92838302D01*
X129924469Y-92745507D01*
X129686643Y-92698200D01*
X129444157Y-92698200D01*
X129206331Y-92745507D01*
X128982303Y-92838302D01*
X128780683Y-92973020D01*
X128701400Y-93052303D01*
X128701400Y-92266097D01*
X128780683Y-92345380D01*
X128982303Y-92480098D01*
X129206331Y-92572893D01*
X129444157Y-92620200D01*
X129686643Y-92620200D01*
X129924469Y-92572893D01*
X130148497Y-92480098D01*
X130350117Y-92345380D01*
X130521580Y-92173917D01*
X130656298Y-91972297D01*
X130749093Y-91748269D01*
X130796400Y-91510443D01*
X130796400Y-91267957D01*
X130749093Y-91030131D01*
X130656298Y-90806103D01*
X130521580Y-90604483D01*
X130350117Y-90433020D01*
X130148497Y-90298302D01*
X129924469Y-90205507D01*
X129686643Y-90158200D01*
X129444157Y-90158200D01*
X129206331Y-90205507D01*
X128982303Y-90298302D01*
X128780683Y-90433020D01*
X128701400Y-90512303D01*
X128701400Y-89726097D01*
X128780683Y-89805380D01*
X128982303Y-89940098D01*
X129206331Y-90032893D01*
X129444157Y-90080200D01*
X129686643Y-90080200D01*
X129924469Y-90032893D01*
X130148497Y-89940098D01*
X130350117Y-89805380D01*
X130521580Y-89633917D01*
X130656298Y-89432297D01*
X130749093Y-89208269D01*
X130796400Y-88970443D01*
X130796400Y-88727957D01*
X130749093Y-88490131D01*
X130656298Y-88266103D01*
X130521580Y-88064483D01*
X130350117Y-87893020D01*
X130148497Y-87758302D01*
X129924469Y-87665507D01*
X129686643Y-87618200D01*
X129444157Y-87618200D01*
X129206331Y-87665507D01*
X128982303Y-87758302D01*
X128780683Y-87893020D01*
X128701400Y-87972303D01*
X128701400Y-87186097D01*
X128780683Y-87265380D01*
X128982303Y-87400098D01*
X129206331Y-87492893D01*
X129444157Y-87540200D01*
X129686643Y-87540200D01*
X129924469Y-87492893D01*
X130148497Y-87400098D01*
X130350117Y-87265380D01*
X130521580Y-87093917D01*
X130656298Y-86892297D01*
X130749093Y-86668269D01*
X130796400Y-86430443D01*
X130796400Y-86187957D01*
X130749093Y-85950131D01*
X130656298Y-85726103D01*
X130521580Y-85524483D01*
X130350117Y-85353020D01*
X130148497Y-85218302D01*
X129924469Y-85125507D01*
X129686643Y-85078200D01*
X129444157Y-85078200D01*
X129206331Y-85125507D01*
X128982303Y-85218302D01*
X128780683Y-85353020D01*
X128701400Y-85432303D01*
X128701400Y-84646097D01*
X128780683Y-84725380D01*
X128982303Y-84860098D01*
X129206331Y-84952893D01*
X129444157Y-85000200D01*
X129686643Y-85000200D01*
X129924469Y-84952893D01*
X130148497Y-84860098D01*
X130350117Y-84725380D01*
X130521580Y-84553917D01*
X130656298Y-84352297D01*
X130749093Y-84128269D01*
X130796400Y-83890443D01*
X130796400Y-83647957D01*
X130749093Y-83410131D01*
X130656298Y-83186103D01*
X130521580Y-82984483D01*
X130350117Y-82813020D01*
X130148497Y-82678302D01*
X129924469Y-82585507D01*
X129686643Y-82538200D01*
X129444157Y-82538200D01*
X129206331Y-82585507D01*
X128982303Y-82678302D01*
X128780683Y-82813020D01*
X128701400Y-82892303D01*
X128701400Y-82106097D01*
X128780683Y-82185380D01*
X128982303Y-82320098D01*
X129206331Y-82412893D01*
X129444157Y-82460200D01*
X129686643Y-82460200D01*
X129924469Y-82412893D01*
X130148497Y-82320098D01*
X130350117Y-82185380D01*
X130521580Y-82013917D01*
X130656298Y-81812297D01*
X130749093Y-81588269D01*
X130796400Y-81350443D01*
X130796400Y-81107957D01*
X130749093Y-80870131D01*
X130656298Y-80646103D01*
X130521580Y-80444483D01*
X130350117Y-80273020D01*
X130148497Y-80138302D01*
X129924469Y-80045507D01*
X129686643Y-79998200D01*
X129444157Y-79998200D01*
X129206331Y-80045507D01*
X128982303Y-80138302D01*
X128780683Y-80273020D01*
X128701400Y-80352303D01*
X128701400Y-79566097D01*
X128780683Y-79645380D01*
X128982303Y-79780098D01*
X129206331Y-79872893D01*
X129444157Y-79920200D01*
X129686643Y-79920200D01*
X129924469Y-79872893D01*
X130148497Y-79780098D01*
X130350117Y-79645380D01*
X130521580Y-79473917D01*
X130656298Y-79272297D01*
X130749093Y-79048269D01*
X130796400Y-78810443D01*
X130796400Y-78567957D01*
X130749093Y-78330131D01*
X130728508Y-78280434D01*
X131295651Y-77713291D01*
X131315995Y-77696595D01*
X131382651Y-77615375D01*
X131432181Y-77522711D01*
X131462681Y-77422165D01*
X131470400Y-77343795D01*
X131470400Y-77343788D01*
X131472979Y-77317601D01*
X131470400Y-77291414D01*
X131470400Y-76487150D01*
X131491540Y-76508290D01*
X131610105Y-76587512D01*
X131741846Y-76642081D01*
X131881702Y-76669900D01*
X132024298Y-76669900D01*
X132164154Y-76642081D01*
X132295895Y-76587512D01*
X132414460Y-76508290D01*
X132515290Y-76407460D01*
X132594512Y-76288895D01*
X132649081Y-76157154D01*
X132658215Y-76111235D01*
X132675550Y-76111235D01*
X132700000Y-76113643D01*
X133200000Y-76113643D01*
X133274689Y-76106287D01*
X133346508Y-76084501D01*
X133350000Y-76082634D01*
X133353492Y-76084501D01*
X133425311Y-76106287D01*
X133500000Y-76113643D01*
X134000000Y-76113643D01*
X134024450Y-76111235D01*
X134049009Y-76111235D01*
X134123698Y-76103879D01*
X134219831Y-76084757D01*
X134291648Y-76062972D01*
X134382204Y-76025463D01*
X134448394Y-75990083D01*
X134529893Y-75935627D01*
X134587908Y-75888016D01*
X134657216Y-75818708D01*
X134704827Y-75760693D01*
X134759283Y-75679194D01*
X134794663Y-75613004D01*
X134832172Y-75522448D01*
X134853957Y-75450631D01*
X134873079Y-75354498D01*
X134880435Y-75279809D01*
X134880435Y-75255250D01*
X134882843Y-75230800D01*
X134882843Y-74730800D01*
X134880435Y-74706350D01*
X134880435Y-74681791D01*
X134873079Y-74607102D01*
X134853957Y-74510969D01*
X134832172Y-74439152D01*
X134794663Y-74348596D01*
X134759283Y-74282406D01*
X134704827Y-74200907D01*
X134657216Y-74142892D01*
X134587908Y-74073584D01*
X134533400Y-74028851D01*
X134533400Y-73779184D01*
X134633523Y-73769323D01*
X134749895Y-73734022D01*
X134857144Y-73676696D01*
X134951149Y-73599549D01*
X135028296Y-73505544D01*
X135085622Y-73398295D01*
X135120923Y-73281923D01*
X135132843Y-73160900D01*
X135132843Y-72685900D01*
X135120923Y-72564877D01*
X135085622Y-72448505D01*
X135028296Y-72341256D01*
X134951149Y-72247251D01*
X134857144Y-72170104D01*
X134749895Y-72112778D01*
X134633523Y-72077477D01*
X134512500Y-72065557D01*
X133937500Y-72065557D01*
X133816477Y-72077477D01*
X133700105Y-72112778D01*
X133592856Y-72170104D01*
X133498851Y-72247251D01*
X133421704Y-72341256D01*
X133364378Y-72448505D01*
X133350000Y-72495903D01*
X133335622Y-72448505D01*
X133278296Y-72341256D01*
X133201149Y-72247251D01*
X133107144Y-72170104D01*
X133090860Y-72161400D01*
X133107144Y-72152696D01*
X133201149Y-72075549D01*
X133278296Y-71981544D01*
X133335622Y-71874295D01*
X133370923Y-71757923D01*
X133382843Y-71636900D01*
X133382843Y-71161900D01*
X133370923Y-71040877D01*
X133335622Y-70924505D01*
X133278296Y-70817256D01*
X133201149Y-70723251D01*
X133107144Y-70646104D01*
X132999895Y-70588778D01*
X132883523Y-70553477D01*
X132762500Y-70541557D01*
X132187500Y-70541557D01*
X132066477Y-70553477D01*
X131950105Y-70588778D01*
X131842856Y-70646104D01*
X131748851Y-70723251D01*
X131671704Y-70817256D01*
X131614378Y-70924505D01*
X131579077Y-71040877D01*
X131567157Y-71161900D01*
X131567157Y-71636900D01*
X131579077Y-71757923D01*
X131614378Y-71874295D01*
X131671704Y-71981544D01*
X131748851Y-72075549D01*
X131842856Y-72152696D01*
X131859140Y-72161400D01*
X131842856Y-72170104D01*
X131748851Y-72247251D01*
X131671704Y-72341256D01*
X131614378Y-72448505D01*
X131579077Y-72564877D01*
X131567157Y-72685900D01*
X131567157Y-73076901D01*
X131050400Y-73593659D01*
X131050400Y-73482198D01*
X130885556Y-73482198D01*
X131006876Y-73252310D01*
X130962225Y-73105101D01*
X130837041Y-72842280D01*
X130662988Y-72608931D01*
X130446755Y-72414022D01*
X130196652Y-72265043D01*
X130034232Y-72207428D01*
X130148497Y-72160098D01*
X130350117Y-72025380D01*
X130521580Y-71853917D01*
X130656298Y-71652297D01*
X130749093Y-71428269D01*
X130796400Y-71190443D01*
X130796400Y-70947957D01*
X130749093Y-70710131D01*
X130656298Y-70486103D01*
X130521580Y-70284483D01*
X130350117Y-70113020D01*
X130148497Y-69978302D01*
X129924469Y-69885507D01*
X129686643Y-69838200D01*
X129444157Y-69838200D01*
X129206331Y-69885507D01*
X128982303Y-69978302D01*
X128780683Y-70113020D01*
X128701400Y-70192303D01*
X128701400Y-69406097D01*
X128780683Y-69485380D01*
X128982303Y-69620098D01*
X129206331Y-69712893D01*
X129444157Y-69760200D01*
X129686643Y-69760200D01*
X129924469Y-69712893D01*
X130148497Y-69620098D01*
X130350117Y-69485380D01*
X130521580Y-69313917D01*
X130656298Y-69112297D01*
X130749093Y-68888269D01*
X130796400Y-68650443D01*
X130796400Y-68407957D01*
X130749093Y-68170131D01*
X130656298Y-67946103D01*
X130521580Y-67744483D01*
X130350117Y-67573020D01*
X130148497Y-67438302D01*
X129924469Y-67345507D01*
X129686643Y-67298200D01*
X129444157Y-67298200D01*
X129206331Y-67345507D01*
X128982303Y-67438302D01*
X128780683Y-67573020D01*
X128701400Y-67652303D01*
X128701400Y-67220664D01*
X128715400Y-67222043D01*
X130415400Y-67222043D01*
X130490089Y-67214687D01*
X130561908Y-67192901D01*
X130628096Y-67157522D01*
X130686111Y-67109911D01*
X130733722Y-67051896D01*
X130769101Y-66985708D01*
X130790887Y-66913889D01*
X130798243Y-66839200D01*
X130798243Y-65139200D01*
X130790887Y-65064511D01*
X130769101Y-64992692D01*
X130733722Y-64926504D01*
X130686111Y-64868489D01*
X130638941Y-64829778D01*
X130813328Y-64846768D01*
X131427831Y-64785590D01*
X132018592Y-64605703D01*
X132557373Y-64317718D01*
X132833543Y-63899748D01*
X130810000Y-61876205D01*
X130795858Y-61890348D01*
X130616253Y-61710743D01*
X130630395Y-61696600D01*
X129223785Y-60289990D01*
X129322557Y-60168883D01*
X129398808Y-60105803D01*
X130810000Y-61516995D01*
X130824143Y-61502853D01*
X131003748Y-61682458D01*
X130989605Y-61696600D01*
X133013148Y-63720143D01*
X133431118Y-63443973D01*
X133721649Y-62899043D01*
X133900287Y-62307904D01*
X133960168Y-61693272D01*
X133926591Y-61355999D01*
X137060157Y-61355999D01*
X137060157Y-62656001D01*
X137072317Y-62779462D01*
X137108329Y-62898179D01*
X137166810Y-63007589D01*
X137245512Y-63103488D01*
X137341411Y-63182190D01*
X137450821Y-63240671D01*
X137569538Y-63276683D01*
X137692999Y-63288843D01*
X138393001Y-63288843D01*
X138516462Y-63276683D01*
X138635179Y-63240671D01*
X138744589Y-63182190D01*
X138840488Y-63103488D01*
X138919190Y-63007589D01*
X138977671Y-62898179D01*
X139013683Y-62779462D01*
X139025843Y-62656001D01*
X139025843Y-61355999D01*
X142660157Y-61355999D01*
X142660157Y-62656001D01*
X142672317Y-62779462D01*
X142708329Y-62898179D01*
X142766810Y-63007589D01*
X142845512Y-63103488D01*
X142941411Y-63182190D01*
X143050821Y-63240671D01*
X143169538Y-63276683D01*
X143292999Y-63288843D01*
X143993001Y-63288843D01*
X144116462Y-63276683D01*
X144235179Y-63240671D01*
X144344589Y-63182190D01*
X144440488Y-63103488D01*
X144519190Y-63007589D01*
X144577671Y-62898179D01*
X144613683Y-62779462D01*
X144625843Y-62656001D01*
X144625843Y-61355999D01*
X144613683Y-61232538D01*
X144577671Y-61113821D01*
X144519190Y-61004411D01*
X144440488Y-60908512D01*
X144344589Y-60829810D01*
X144235179Y-60771329D01*
X144116462Y-60735317D01*
X143993001Y-60723157D01*
X143292999Y-60723157D01*
X143169538Y-60735317D01*
X143050821Y-60771329D01*
X142941411Y-60829810D01*
X142845512Y-60908512D01*
X142766810Y-61004411D01*
X142708329Y-61113821D01*
X142672317Y-61232538D01*
X142660157Y-61355999D01*
X139025843Y-61355999D01*
X139013683Y-61232538D01*
X138977671Y-61113821D01*
X138919190Y-61004411D01*
X138840488Y-60908512D01*
X138744589Y-60829810D01*
X138635179Y-60771329D01*
X138516462Y-60735317D01*
X138393001Y-60723157D01*
X137692999Y-60723157D01*
X137569538Y-60735317D01*
X137450821Y-60771329D01*
X137341411Y-60829810D01*
X137245512Y-60908512D01*
X137166810Y-61004411D01*
X137108329Y-61113821D01*
X137072317Y-61232538D01*
X137060157Y-61355999D01*
X133926591Y-61355999D01*
X133898990Y-61078769D01*
X133719103Y-60488008D01*
X133431118Y-59949227D01*
X133013150Y-59673058D01*
X133126875Y-59559333D01*
X133104742Y-59537200D01*
X136658631Y-59537200D01*
X136581988Y-59651905D01*
G36*
X145389600Y-79037141D02*
G01*
X145389600Y-79199102D01*
X145372672Y-79185210D01*
X145306802Y-79150002D01*
X145235329Y-79128321D01*
X145161000Y-79121000D01*
X140462000Y-79121000D01*
X140387671Y-79128321D01*
X140316198Y-79150002D01*
X140250328Y-79185210D01*
X140192592Y-79232592D01*
X140145210Y-79290328D01*
X140110002Y-79356198D01*
X140088321Y-79427671D01*
X140081000Y-79502000D01*
X140081000Y-81153000D01*
X139697253Y-81153000D01*
X139748622Y-81056895D01*
X139783923Y-80940523D01*
X139795843Y-80819500D01*
X139795843Y-80244500D01*
X139783923Y-80123477D01*
X139748622Y-80007105D01*
X139691296Y-79899856D01*
X139614149Y-79805851D01*
X139520144Y-79728704D01*
X139412895Y-79671378D01*
X139296523Y-79636077D01*
X139175500Y-79624157D01*
X138938000Y-79624157D01*
X138938000Y-78105000D01*
X138935560Y-78080224D01*
X138928333Y-78056399D01*
X138916597Y-78034443D01*
X138900803Y-78015197D01*
X138881557Y-77999403D01*
X138859601Y-77987667D01*
X138835776Y-77980440D01*
X138811000Y-77978000D01*
X136525000Y-77978000D01*
X136500224Y-77980440D01*
X136476399Y-77987667D01*
X136454443Y-77999403D01*
X136435197Y-78015197D01*
X136419403Y-78034443D01*
X136407667Y-78056399D01*
X136400440Y-78080224D01*
X136398000Y-78105000D01*
X136398000Y-78217477D01*
X136376149Y-78190851D01*
X136282144Y-78113704D01*
X136174895Y-78056378D01*
X136058523Y-78021077D01*
X135937500Y-78009157D01*
X135362500Y-78009157D01*
X135241477Y-78021077D01*
X135125105Y-78056378D01*
X135017856Y-78113704D01*
X134923851Y-78190851D01*
X134846704Y-78284856D01*
X134805747Y-78361482D01*
X134795622Y-78328105D01*
X134738296Y-78220856D01*
X134661149Y-78126851D01*
X134567144Y-78049704D01*
X134459895Y-77992378D01*
X134412497Y-77978000D01*
X134459895Y-77963622D01*
X134567144Y-77906296D01*
X134661149Y-77829149D01*
X134738296Y-77735144D01*
X134791076Y-77636400D01*
X143988859Y-77636400D01*
X145389600Y-79037141D01*
G37*
X145389600Y-79037141D02*
X145389600Y-79199102D01*
X145372672Y-79185210D01*
X145306802Y-79150002D01*
X145235329Y-79128321D01*
X145161000Y-79121000D01*
X140462000Y-79121000D01*
X140387671Y-79128321D01*
X140316198Y-79150002D01*
X140250328Y-79185210D01*
X140192592Y-79232592D01*
X140145210Y-79290328D01*
X140110002Y-79356198D01*
X140088321Y-79427671D01*
X140081000Y-79502000D01*
X140081000Y-81153000D01*
X139697253Y-81153000D01*
X139748622Y-81056895D01*
X139783923Y-80940523D01*
X139795843Y-80819500D01*
X139795843Y-80244500D01*
X139783923Y-80123477D01*
X139748622Y-80007105D01*
X139691296Y-79899856D01*
X139614149Y-79805851D01*
X139520144Y-79728704D01*
X139412895Y-79671378D01*
X139296523Y-79636077D01*
X139175500Y-79624157D01*
X138938000Y-79624157D01*
X138938000Y-78105000D01*
X138935560Y-78080224D01*
X138928333Y-78056399D01*
X138916597Y-78034443D01*
X138900803Y-78015197D01*
X138881557Y-77999403D01*
X138859601Y-77987667D01*
X138835776Y-77980440D01*
X138811000Y-77978000D01*
X136525000Y-77978000D01*
X136500224Y-77980440D01*
X136476399Y-77987667D01*
X136454443Y-77999403D01*
X136435197Y-78015197D01*
X136419403Y-78034443D01*
X136407667Y-78056399D01*
X136400440Y-78080224D01*
X136398000Y-78105000D01*
X136398000Y-78217477D01*
X136376149Y-78190851D01*
X136282144Y-78113704D01*
X136174895Y-78056378D01*
X136058523Y-78021077D01*
X135937500Y-78009157D01*
X135362500Y-78009157D01*
X135241477Y-78021077D01*
X135125105Y-78056378D01*
X135017856Y-78113704D01*
X134923851Y-78190851D01*
X134846704Y-78284856D01*
X134805747Y-78361482D01*
X134795622Y-78328105D01*
X134738296Y-78220856D01*
X134661149Y-78126851D01*
X134567144Y-78049704D01*
X134459895Y-77992378D01*
X134412497Y-77978000D01*
X134459895Y-77963622D01*
X134567144Y-77906296D01*
X134661149Y-77829149D01*
X134738296Y-77735144D01*
X134791076Y-77636400D01*
X143988859Y-77636400D01*
X145389600Y-79037141D01*
G36*
X129692400Y-73482200D02*
G01*
X129712400Y-73482200D01*
X129712400Y-73736200D01*
X129692400Y-73736200D01*
X129692400Y-73756200D01*
X129438400Y-73756200D01*
X129438400Y-73736200D01*
X129418400Y-73736200D01*
X129418400Y-73482200D01*
X129438400Y-73482200D01*
X129438400Y-73462200D01*
X129692400Y-73462200D01*
X129692400Y-73482200D01*
G37*
X129692400Y-73482200D02*
X129712400Y-73482200D01*
X129712400Y-73736200D01*
X129692400Y-73736200D01*
X129692400Y-73756200D01*
X129438400Y-73756200D01*
X129438400Y-73736200D01*
X129418400Y-73736200D01*
X129418400Y-73482200D01*
X129438400Y-73482200D01*
X129438400Y-73462200D01*
X129692400Y-73462200D01*
X129692400Y-73482200D01*
%TO.N,+5.3V*%
G36*
X145034000Y-91186000D02*
G01*
X145036440Y-91210776D01*
X145043667Y-91234601D01*
X145055403Y-91256557D01*
X145071197Y-91275803D01*
X145090443Y-91291597D01*
X145112399Y-91303333D01*
X145136224Y-91310560D01*
X145161000Y-91313000D01*
X147701000Y-91313000D01*
X147701000Y-92964000D01*
X143002000Y-92964000D01*
X143002000Y-88519000D01*
X142999560Y-88494224D01*
X142992333Y-88470399D01*
X142980597Y-88448443D01*
X142964803Y-88429197D01*
X142945557Y-88413403D01*
X142923601Y-88401667D01*
X142899776Y-88394440D01*
X142875000Y-88392000D01*
X142494000Y-88392000D01*
X142494000Y-85725000D01*
X145034000Y-85725000D01*
X145034000Y-91186000D01*
G37*
X145034000Y-91186000D02*
X145036440Y-91210776D01*
X145043667Y-91234601D01*
X145055403Y-91256557D01*
X145071197Y-91275803D01*
X145090443Y-91291597D01*
X145112399Y-91303333D01*
X145136224Y-91310560D01*
X145161000Y-91313000D01*
X147701000Y-91313000D01*
X147701000Y-92964000D01*
X143002000Y-92964000D01*
X143002000Y-88519000D01*
X142999560Y-88494224D01*
X142992333Y-88470399D01*
X142980597Y-88448443D01*
X142964803Y-88429197D01*
X142945557Y-88413403D01*
X142923601Y-88401667D01*
X142899776Y-88394440D01*
X142875000Y-88392000D01*
X142494000Y-88392000D01*
X142494000Y-85725000D01*
X145034000Y-85725000D01*
X145034000Y-91186000D01*
%TO.N,VIN_SW*%
G36*
X133477000Y-82489141D02*
G01*
X133477000Y-88011000D01*
X133223000Y-88011000D01*
X133198224Y-88013440D01*
X133174399Y-88020667D01*
X133152443Y-88032403D01*
X133133197Y-88048197D01*
X133117403Y-88067443D01*
X133105667Y-88089399D01*
X133098440Y-88113224D01*
X133096000Y-88138000D01*
X133096000Y-92964000D01*
X131699000Y-92964000D01*
X131699000Y-82423000D01*
X133410859Y-82423000D01*
X133477000Y-82489141D01*
G37*
X133477000Y-82489141D02*
X133477000Y-88011000D01*
X133223000Y-88011000D01*
X133198224Y-88013440D01*
X133174399Y-88020667D01*
X133152443Y-88032403D01*
X133133197Y-88048197D01*
X133117403Y-88067443D01*
X133105667Y-88089399D01*
X133098440Y-88113224D01*
X133096000Y-88138000D01*
X133096000Y-92964000D01*
X131699000Y-92964000D01*
X131699000Y-82423000D01*
X133410859Y-82423000D01*
X133477000Y-82489141D01*
%TO.N,Net-(C1-Pad2)*%
G36*
X145034000Y-81915000D02*
G01*
X139827000Y-81915000D01*
X139802224Y-81917440D01*
X139778399Y-81924667D01*
X139756443Y-81936403D01*
X139737197Y-81952197D01*
X139721403Y-81971443D01*
X139709667Y-81993399D01*
X139702440Y-82017224D01*
X139700000Y-82042000D01*
X139700000Y-83058000D01*
X138176000Y-83058000D01*
X138176000Y-82016600D01*
X138173560Y-81991824D01*
X138166333Y-81967999D01*
X138154597Y-81946043D01*
X138138803Y-81926797D01*
X138119557Y-81911003D01*
X138097601Y-81899267D01*
X138073776Y-81892040D01*
X138049000Y-81889600D01*
X136525000Y-81889600D01*
X136525000Y-81758043D01*
X137692400Y-81758043D01*
X137786598Y-81748765D01*
X137824723Y-81737200D01*
X138049000Y-81737200D01*
X138073776Y-81734760D01*
X138097601Y-81727533D01*
X138119557Y-81715797D01*
X138128327Y-81708600D01*
X138268613Y-81708600D01*
X138294800Y-81711179D01*
X138320987Y-81708600D01*
X138320995Y-81708600D01*
X138399365Y-81700881D01*
X138499911Y-81670381D01*
X138517462Y-81661000D01*
X140462000Y-81661000D01*
X140486776Y-81658560D01*
X140510601Y-81651333D01*
X140532557Y-81639597D01*
X140551803Y-81623803D01*
X140567597Y-81604557D01*
X140579333Y-81582601D01*
X140586560Y-81558776D01*
X140589000Y-81534000D01*
X140589000Y-79629000D01*
X145034000Y-79629000D01*
X145034000Y-81915000D01*
G37*
X145034000Y-81915000D02*
X139827000Y-81915000D01*
X139802224Y-81917440D01*
X139778399Y-81924667D01*
X139756443Y-81936403D01*
X139737197Y-81952197D01*
X139721403Y-81971443D01*
X139709667Y-81993399D01*
X139702440Y-82017224D01*
X139700000Y-82042000D01*
X139700000Y-83058000D01*
X138176000Y-83058000D01*
X138176000Y-82016600D01*
X138173560Y-81991824D01*
X138166333Y-81967999D01*
X138154597Y-81946043D01*
X138138803Y-81926797D01*
X138119557Y-81911003D01*
X138097601Y-81899267D01*
X138073776Y-81892040D01*
X138049000Y-81889600D01*
X136525000Y-81889600D01*
X136525000Y-81758043D01*
X137692400Y-81758043D01*
X137786598Y-81748765D01*
X137824723Y-81737200D01*
X138049000Y-81737200D01*
X138073776Y-81734760D01*
X138097601Y-81727533D01*
X138119557Y-81715797D01*
X138128327Y-81708600D01*
X138268613Y-81708600D01*
X138294800Y-81711179D01*
X138320987Y-81708600D01*
X138320995Y-81708600D01*
X138399365Y-81700881D01*
X138499911Y-81670381D01*
X138517462Y-81661000D01*
X140462000Y-81661000D01*
X140486776Y-81658560D01*
X140510601Y-81651333D01*
X140532557Y-81639597D01*
X140551803Y-81623803D01*
X140567597Y-81604557D01*
X140579333Y-81582601D01*
X140586560Y-81558776D01*
X140589000Y-81534000D01*
X140589000Y-79629000D01*
X145034000Y-79629000D01*
X145034000Y-81915000D01*
%TO.N,GND*%
G36*
X138684000Y-79502000D02*
G01*
X138176000Y-79502000D01*
X138151224Y-79504440D01*
X138127399Y-79511667D01*
X138105443Y-79523403D01*
X138086197Y-79539197D01*
X138070403Y-79558443D01*
X138058667Y-79580399D01*
X138051440Y-79604224D01*
X138049000Y-79629000D01*
X138049000Y-80641800D01*
X137900915Y-80641800D01*
X137877176Y-80629111D01*
X137786598Y-80601635D01*
X137692400Y-80592357D01*
X136267400Y-80592357D01*
X136173202Y-80601635D01*
X136144000Y-80610493D01*
X136144000Y-80137000D01*
X136525000Y-80137000D01*
X136549776Y-80134560D01*
X136573601Y-80127333D01*
X136595557Y-80115597D01*
X136614803Y-80099803D01*
X136630597Y-80080557D01*
X136642333Y-80058601D01*
X136649560Y-80034776D01*
X136652000Y-80010000D01*
X136652000Y-78232000D01*
X138684000Y-78232000D01*
X138684000Y-79502000D01*
G37*
X138684000Y-79502000D02*
X138176000Y-79502000D01*
X138151224Y-79504440D01*
X138127399Y-79511667D01*
X138105443Y-79523403D01*
X138086197Y-79539197D01*
X138070403Y-79558443D01*
X138058667Y-79580399D01*
X138051440Y-79604224D01*
X138049000Y-79629000D01*
X138049000Y-80641800D01*
X137900915Y-80641800D01*
X137877176Y-80629111D01*
X137786598Y-80601635D01*
X137692400Y-80592357D01*
X136267400Y-80592357D01*
X136173202Y-80601635D01*
X136144000Y-80610493D01*
X136144000Y-80137000D01*
X136525000Y-80137000D01*
X136549776Y-80134560D01*
X136573601Y-80127333D01*
X136595557Y-80115597D01*
X136614803Y-80099803D01*
X136630597Y-80080557D01*
X136642333Y-80058601D01*
X136649560Y-80034776D01*
X136652000Y-80010000D01*
X136652000Y-78232000D01*
X138684000Y-78232000D01*
X138684000Y-79502000D01*
G36*
X136173202Y-82398765D02*
G01*
X136267400Y-82408043D01*
X137668000Y-82408043D01*
X137668000Y-83566000D01*
X137670440Y-83590776D01*
X137677667Y-83614601D01*
X137689403Y-83636557D01*
X137705197Y-83655803D01*
X137724443Y-83671597D01*
X137746399Y-83683333D01*
X137770224Y-83690560D01*
X137795000Y-83693000D01*
X141605000Y-83693000D01*
X141605000Y-92964000D01*
X137160000Y-92964000D01*
X137160000Y-88011000D01*
X137157560Y-87986224D01*
X137150333Y-87962399D01*
X137138597Y-87940443D01*
X137122803Y-87921197D01*
X137103557Y-87905403D01*
X137081601Y-87893667D01*
X137057776Y-87886440D01*
X137033000Y-87884000D01*
X134874000Y-87884000D01*
X134874000Y-82397600D01*
X136169361Y-82397600D01*
X136173202Y-82398765D01*
G37*
X136173202Y-82398765D02*
X136267400Y-82408043D01*
X137668000Y-82408043D01*
X137668000Y-83566000D01*
X137670440Y-83590776D01*
X137677667Y-83614601D01*
X137689403Y-83636557D01*
X137705197Y-83655803D01*
X137724443Y-83671597D01*
X137746399Y-83683333D01*
X137770224Y-83690560D01*
X137795000Y-83693000D01*
X141605000Y-83693000D01*
X141605000Y-92964000D01*
X137160000Y-92964000D01*
X137160000Y-88011000D01*
X137157560Y-87986224D01*
X137150333Y-87962399D01*
X137138597Y-87940443D01*
X137122803Y-87921197D01*
X137103557Y-87905403D01*
X137081601Y-87893667D01*
X137057776Y-87886440D01*
X137033000Y-87884000D01*
X134874000Y-87884000D01*
X134874000Y-82397600D01*
X136169361Y-82397600D01*
X136173202Y-82398765D01*
%TO.N,Net-(D2-Pad2)*%
G36*
X134747000Y-91694000D02*
G01*
X134749440Y-91718776D01*
X134756667Y-91742601D01*
X134768403Y-91764557D01*
X134784197Y-91783803D01*
X134803443Y-91799597D01*
X134825399Y-91811333D01*
X134849224Y-91818560D01*
X134874000Y-91821000D01*
X136525000Y-91821000D01*
X136525000Y-93091000D01*
X133858000Y-93091000D01*
X133858000Y-90297000D01*
X134747000Y-90297000D01*
X134747000Y-91694000D01*
G37*
X134747000Y-91694000D02*
X134749440Y-91718776D01*
X134756667Y-91742601D01*
X134768403Y-91764557D01*
X134784197Y-91783803D01*
X134803443Y-91799597D01*
X134825399Y-91811333D01*
X134849224Y-91818560D01*
X134874000Y-91821000D01*
X136525000Y-91821000D01*
X136525000Y-93091000D01*
X133858000Y-93091000D01*
X133858000Y-90297000D01*
X134747000Y-90297000D01*
X134747000Y-91694000D01*
%TO.N,Net-(F1-Pad2)*%
G36*
X133985000Y-95250000D02*
G01*
X133987440Y-95274776D01*
X133994667Y-95298601D01*
X134006403Y-95320557D01*
X134022197Y-95339803D01*
X134041443Y-95355597D01*
X134063399Y-95367333D01*
X134087224Y-95374560D01*
X134112000Y-95377000D01*
X136017000Y-95377000D01*
X136017000Y-98933000D01*
X132842000Y-98933000D01*
X132842000Y-93853000D01*
X133985000Y-93853000D01*
X133985000Y-95250000D01*
G37*
X133985000Y-95250000D02*
X133987440Y-95274776D01*
X133994667Y-95298601D01*
X134006403Y-95320557D01*
X134022197Y-95339803D01*
X134041443Y-95355597D01*
X134063399Y-95367333D01*
X134087224Y-95374560D01*
X134112000Y-95377000D01*
X136017000Y-95377000D01*
X136017000Y-98933000D01*
X132842000Y-98933000D01*
X132842000Y-93853000D01*
X133985000Y-93853000D01*
X133985000Y-95250000D01*
%TO.N,VCC*%
G36*
X144018000Y-106553000D02*
G01*
X140081000Y-106553000D01*
X140081000Y-98933000D01*
X140078560Y-98908224D01*
X140071333Y-98884399D01*
X140059597Y-98862443D01*
X140043803Y-98843197D01*
X140024557Y-98827403D01*
X140002601Y-98815667D01*
X139978776Y-98808440D01*
X139954000Y-98806000D01*
X138684000Y-98806000D01*
X138684000Y-95377000D01*
X144018000Y-95377000D01*
X144018000Y-106553000D01*
G37*
X144018000Y-106553000D02*
X140081000Y-106553000D01*
X140081000Y-98933000D01*
X140078560Y-98908224D01*
X140071333Y-98884399D01*
X140059597Y-98862443D01*
X140043803Y-98843197D01*
X140024557Y-98827403D01*
X140002601Y-98815667D01*
X139978776Y-98808440D01*
X139954000Y-98806000D01*
X138684000Y-98806000D01*
X138684000Y-95377000D01*
X144018000Y-95377000D01*
X144018000Y-106553000D01*
%TD*%
M02*
