M48
; DRILL file {KiCad 5.1.6-c6e7f7d~87~ubuntu18.04.1} date Mon Oct 12 14:33:15 2020
; FORMAT={-:-/ absolute / inch / decimal}
; #@! TF.CreationDate,2020-10-12T14:33:15-07:00
; #@! TF.GenerationSoftware,Kicad,Pcbnew,5.1.6-c6e7f7d~87~ubuntu18.04.1
FMAT,2
INCH
T1C0.0130
T2C0.0394
T3C0.0512
T4C0.0984
T5C0.1063
%
G90
G05
T1
X5.15Y-2.849
X5.175Y-3.245
X5.195Y-2.99
X5.2Y-3.83
X5.2Y-3.915
X5.22Y-4.28
X5.28Y-4.28
X5.3Y-2.362
X5.325Y-2.813
X5.332Y-2.992
X5.34Y-4.28
X5.3513Y-2.362
X5.38Y-3.3
X5.38Y-3.33
X5.38Y-3.36
X5.38Y-3.39
X5.38Y-3.42
X5.38Y-3.45
X5.4025Y-2.362
X5.425Y-3.671
X5.45Y-3.09
X5.45Y-3.12
X5.4538Y-2.362
X5.4759Y-4.28
X5.505Y-2.362
X5.505Y-3.49
X5.505Y-3.52
X5.505Y-3.55
X5.505Y-3.58
X5.505Y-3.61
X5.505Y-3.64
X5.54Y-3.325
X5.54Y-3.4
X5.54Y-4.28
X5.5562Y-2.362
X5.585Y-3.09
X5.605Y-3.01
X5.6075Y-2.362
X5.6587Y-2.362
X5.66Y-4.28
X5.71Y-2.362
X5.72Y-4.28
X5.78Y-4.28
X5.9Y-2.58
X5.9Y-2.66
X5.9Y-2.74
X5.9Y-2.82
X5.9Y-2.9
T2
X5.9Y-3.0
X5.9Y-3.1
X5.9Y-3.2
X5.9Y-3.3
X5.9Y-3.4
X5.9Y-3.5
X5.9Y-3.6
X5.9Y-3.7
X5.9Y-3.8
X5.9Y-3.9
X5.9Y-4.0
X5.9Y-4.1
X5.43Y-2.765
X5.53Y-2.765
X5.63Y-2.765
X5.73Y-2.765
X5.101Y-2.598
X5.101Y-2.698
X5.101Y-2.798
X5.101Y-2.898
X5.101Y-2.998
X5.101Y-3.098
X5.101Y-3.198
X5.101Y-3.298
X5.101Y-3.398
X5.101Y-3.498
X5.101Y-3.598
X5.101Y-3.698
X5.101Y-3.798
X5.101Y-3.898
X5.101Y-3.998
X5.101Y-4.098
T3
X5.4Y-4.125
X5.5969Y-4.125
T4
X5.15Y-2.429
X5.851Y-2.428
T5
X5.851Y-4.213
X5.15Y-4.213
T0
M30
