%TF.GenerationSoftware,KiCad,Pcbnew,5.1.6-c6e7f7d~87~ubuntu18.04.1*%
%TF.CreationDate,2020-10-24T16:34:10-07:00*%
%TF.ProjectId,feather-power-supply-sw-smd-adj,66656174-6865-4722-9d70-6f7765722d73,rev?*%
%TF.SameCoordinates,Original*%
%TF.FileFunction,Legend,Bot*%
%TF.FilePolarity,Positive*%
%FSLAX46Y46*%
G04 Gerber Fmt 4.6, Leading zero omitted, Abs format (unit mm)*
G04 Created by KiCad (PCBNEW 5.1.6-c6e7f7d~87~ubuntu18.04.1) date 2020-10-24 16:34:10*
%MOMM*%
%LPD*%
G01*
G04 APERTURE LIST*
%ADD10C,0.150000*%
%ADD11C,0.010000*%
G04 APERTURE END LIST*
D10*
X142596280Y-80637571D02*
X142929613Y-80637571D01*
X142995089Y-81161380D02*
X142870089Y-80161380D01*
X142393899Y-80161380D01*
X141751042Y-81113761D02*
X141852232Y-81161380D01*
X142042708Y-81161380D01*
X142131994Y-81113761D01*
X142167708Y-81018523D01*
X142120089Y-80637571D01*
X142060566Y-80542333D01*
X141959375Y-80494714D01*
X141768899Y-80494714D01*
X141679613Y-80542333D01*
X141643899Y-80637571D01*
X141655804Y-80732809D01*
X142143899Y-80828047D01*
X140852232Y-81161380D02*
X140786756Y-80637571D01*
X140822470Y-80542333D01*
X140911756Y-80494714D01*
X141102232Y-80494714D01*
X141203423Y-80542333D01*
X140846280Y-81113761D02*
X140947470Y-81161380D01*
X141185566Y-81161380D01*
X141274851Y-81113761D01*
X141310566Y-81018523D01*
X141298661Y-80923285D01*
X141239137Y-80828047D01*
X141137947Y-80780428D01*
X140899851Y-80780428D01*
X140798661Y-80732809D01*
X140435566Y-80494714D02*
X140054613Y-80494714D01*
X140251042Y-80161380D02*
X140358185Y-81018523D01*
X140322470Y-81113761D01*
X140233185Y-81161380D01*
X140137947Y-81161380D01*
X139804613Y-81161380D02*
X139679613Y-80161380D01*
X139376042Y-81161380D02*
X139310566Y-80637571D01*
X139346280Y-80542333D01*
X139435566Y-80494714D01*
X139578423Y-80494714D01*
X139679613Y-80542333D01*
X139733185Y-80589952D01*
X138512947Y-81113761D02*
X138614137Y-81161380D01*
X138804613Y-81161380D01*
X138893899Y-81113761D01*
X138929613Y-81018523D01*
X138881994Y-80637571D01*
X138822470Y-80542333D01*
X138721280Y-80494714D01*
X138530804Y-80494714D01*
X138441518Y-80542333D01*
X138405804Y-80637571D01*
X138417708Y-80732809D01*
X138905804Y-80828047D01*
X138042708Y-81161380D02*
X137959375Y-80494714D01*
X137983185Y-80685190D02*
X137923661Y-80589952D01*
X137870089Y-80542333D01*
X137768899Y-80494714D01*
X137673661Y-80494714D01*
X137393899Y-80161380D02*
X137280804Y-81161380D01*
X137001042Y-80447095D01*
X136899851Y-81161380D01*
X136536756Y-80161380D01*
X136280804Y-81161380D02*
X136197470Y-80494714D01*
X136155804Y-80161380D02*
X136209375Y-80209000D01*
X136167708Y-80256619D01*
X136114137Y-80209000D01*
X136155804Y-80161380D01*
X136167708Y-80256619D01*
X135721280Y-80494714D02*
X135804613Y-81161380D01*
X135733185Y-80589952D02*
X135679613Y-80542333D01*
X135578423Y-80494714D01*
X135435566Y-80494714D01*
X135346280Y-80542333D01*
X135310566Y-80637571D01*
X135376042Y-81161380D01*
X134387947Y-80494714D02*
X134489137Y-81304238D01*
X134548661Y-81399476D01*
X134602232Y-81447095D01*
X134703423Y-81494714D01*
X134846280Y-81494714D01*
X134935566Y-81447095D01*
X134465327Y-81113761D02*
X134566518Y-81161380D01*
X134756994Y-81161380D01*
X134846280Y-81113761D01*
X134887947Y-81066142D01*
X134923661Y-80970904D01*
X134887947Y-80685190D01*
X134828423Y-80589952D01*
X134774851Y-80542333D01*
X134673661Y-80494714D01*
X134483185Y-80494714D01*
X134393899Y-80542333D01*
X143631994Y-82763761D02*
X143495089Y-82811380D01*
X143256994Y-82811380D01*
X143155804Y-82763761D01*
X143102232Y-82716142D01*
X143042708Y-82620904D01*
X143030804Y-82525666D01*
X143066518Y-82430428D01*
X143108185Y-82382809D01*
X143197470Y-82335190D01*
X143381994Y-82287571D01*
X143471280Y-82239952D01*
X143512947Y-82192333D01*
X143548661Y-82097095D01*
X143536756Y-82001857D01*
X143477232Y-81906619D01*
X143423661Y-81859000D01*
X143322470Y-81811380D01*
X143084375Y-81811380D01*
X142947470Y-81859000D01*
X142649851Y-82144714D02*
X142542708Y-82811380D01*
X142292708Y-82335190D01*
X142161756Y-82811380D01*
X141887947Y-82144714D01*
X141590327Y-82811380D02*
X141506994Y-82144714D01*
X141465327Y-81811380D02*
X141518899Y-81859000D01*
X141477232Y-81906619D01*
X141423661Y-81859000D01*
X141465327Y-81811380D01*
X141477232Y-81906619D01*
X141173661Y-82144714D02*
X140792708Y-82144714D01*
X140989137Y-81811380D02*
X141096280Y-82668523D01*
X141060566Y-82763761D01*
X140971280Y-82811380D01*
X140876042Y-82811380D01*
X140108185Y-82763761D02*
X140209375Y-82811380D01*
X140399851Y-82811380D01*
X140489137Y-82763761D01*
X140530804Y-82716142D01*
X140566518Y-82620904D01*
X140530804Y-82335190D01*
X140471280Y-82239952D01*
X140417708Y-82192333D01*
X140316518Y-82144714D01*
X140126042Y-82144714D01*
X140036756Y-82192333D01*
X139685566Y-82811380D02*
X139560566Y-81811380D01*
X139256994Y-82811380D02*
X139191518Y-82287571D01*
X139227232Y-82192333D01*
X139316518Y-82144714D01*
X139459375Y-82144714D01*
X139560566Y-82192333D01*
X139614137Y-82239952D01*
X138393899Y-82763761D02*
X138495089Y-82811380D01*
X138685566Y-82811380D01*
X138774851Y-82763761D01*
X138810566Y-82668523D01*
X138762947Y-82287571D01*
X138703423Y-82192333D01*
X138602232Y-82144714D01*
X138411756Y-82144714D01*
X138322470Y-82192333D01*
X138286756Y-82287571D01*
X138298661Y-82382809D01*
X138786756Y-82478047D01*
X137923661Y-82811380D02*
X137840327Y-82144714D01*
X137864137Y-82335190D02*
X137804613Y-82239952D01*
X137751042Y-82192333D01*
X137649851Y-82144714D01*
X137554613Y-82144714D01*
X136554613Y-82144714D02*
X136399851Y-82811380D01*
X136078423Y-82144714D01*
X135256994Y-82811380D02*
X135828423Y-82811380D01*
X135542708Y-82811380D02*
X135417708Y-81811380D01*
X135530804Y-81954238D01*
X135637947Y-82049476D01*
X135739137Y-82097095D01*
X134816518Y-82716142D02*
X134774851Y-82763761D01*
X134828423Y-82811380D01*
X134870089Y-82763761D01*
X134816518Y-82716142D01*
X134828423Y-82811380D01*
X133828423Y-82811380D02*
X134399851Y-82811380D01*
X134114137Y-82811380D02*
X133989137Y-81811380D01*
X134102232Y-81954238D01*
X134209375Y-82049476D01*
X134310566Y-82097095D01*
D11*
%TO.C,LOGO1*%
G36*
X139372786Y-61273731D02*
G01*
X139288965Y-61718355D01*
X138979680Y-61845853D01*
X138670394Y-61973351D01*
X138299354Y-61721046D01*
X138195443Y-61650796D01*
X138101513Y-61588072D01*
X138021948Y-61535738D01*
X137961130Y-61496657D01*
X137923443Y-61473693D01*
X137913179Y-61468742D01*
X137894690Y-61481476D01*
X137855180Y-61516682D01*
X137799078Y-61569862D01*
X137730813Y-61636518D01*
X137654814Y-61712154D01*
X137575508Y-61792272D01*
X137497325Y-61872374D01*
X137424693Y-61947964D01*
X137362041Y-62014545D01*
X137313797Y-62067618D01*
X137284390Y-62102687D01*
X137277359Y-62114423D01*
X137287477Y-62136060D01*
X137315841Y-62183462D01*
X137359471Y-62251993D01*
X137415382Y-62337015D01*
X137480594Y-62433893D01*
X137518381Y-62489150D01*
X137587257Y-62590048D01*
X137648460Y-62681099D01*
X137699022Y-62757770D01*
X137735972Y-62815528D01*
X137756342Y-62849843D01*
X137759403Y-62857054D01*
X137752464Y-62877548D01*
X137733549Y-62925313D01*
X137705513Y-62993632D01*
X137671209Y-63075789D01*
X137633491Y-63165070D01*
X137595213Y-63254758D01*
X137559230Y-63338138D01*
X137528394Y-63408494D01*
X137505561Y-63459110D01*
X137493583Y-63483271D01*
X137492876Y-63484222D01*
X137474069Y-63488836D01*
X137423982Y-63499128D01*
X137347807Y-63514087D01*
X137250735Y-63532701D01*
X137137957Y-63553959D01*
X137072158Y-63566218D01*
X136951650Y-63589162D01*
X136842803Y-63610995D01*
X136751124Y-63630522D01*
X136682119Y-63646548D01*
X136641296Y-63657879D01*
X136633089Y-63661474D01*
X136625052Y-63685806D01*
X136618567Y-63740759D01*
X136613630Y-63819908D01*
X136610236Y-63916826D01*
X136608382Y-64025087D01*
X136608062Y-64138265D01*
X136609273Y-64249935D01*
X136612010Y-64353668D01*
X136616269Y-64443041D01*
X136622045Y-64511626D01*
X136629333Y-64552997D01*
X136633705Y-64561610D01*
X136659836Y-64571933D01*
X136715207Y-64586692D01*
X136792493Y-64604152D01*
X136884370Y-64622580D01*
X136916442Y-64628541D01*
X137071076Y-64656866D01*
X137193225Y-64679676D01*
X137286927Y-64697880D01*
X137356216Y-64712383D01*
X137405129Y-64724092D01*
X137437703Y-64733915D01*
X137457972Y-64742756D01*
X137469974Y-64751524D01*
X137471653Y-64753257D01*
X137488416Y-64781171D01*
X137513986Y-64835495D01*
X137545812Y-64909577D01*
X137581340Y-64996765D01*
X137618017Y-65090408D01*
X137653289Y-65183852D01*
X137684604Y-65270447D01*
X137709407Y-65343540D01*
X137725146Y-65396478D01*
X137729268Y-65422611D01*
X137728924Y-65423526D01*
X137714959Y-65444886D01*
X137683278Y-65491884D01*
X137637209Y-65559627D01*
X137580082Y-65643223D01*
X137515227Y-65737782D01*
X137496757Y-65764654D01*
X137430901Y-65862075D01*
X137372950Y-65950963D01*
X137326062Y-66026212D01*
X137293393Y-66082720D01*
X137278100Y-66115381D01*
X137277359Y-66119393D01*
X137290208Y-66140484D01*
X137325712Y-66182264D01*
X137379307Y-66240245D01*
X137446429Y-66309935D01*
X137522513Y-66386845D01*
X137602996Y-66466483D01*
X137683313Y-66544361D01*
X137758901Y-66615986D01*
X137825195Y-66676870D01*
X137877631Y-66722521D01*
X137911645Y-66748450D01*
X137921055Y-66752683D01*
X137942957Y-66742712D01*
X137987800Y-66715820D01*
X138048279Y-66676536D01*
X138094811Y-66644917D01*
X138179125Y-66586898D01*
X138278974Y-66518584D01*
X138379127Y-66450379D01*
X138432973Y-66413875D01*
X138615229Y-66290600D01*
X138768219Y-66373320D01*
X138837918Y-66409559D01*
X138897186Y-66437726D01*
X138937289Y-66453791D01*
X138947497Y-66456026D01*
X138959771Y-66439522D01*
X138983987Y-66392882D01*
X139018337Y-66320409D01*
X139061012Y-66226406D01*
X139110206Y-66115174D01*
X139164110Y-65991015D01*
X139220916Y-65858232D01*
X139278818Y-65721127D01*
X139336007Y-65584002D01*
X139390676Y-65451158D01*
X139441016Y-65326898D01*
X139485220Y-65215525D01*
X139521481Y-65121339D01*
X139547991Y-65048644D01*
X139562942Y-65001741D01*
X139565346Y-64985633D01*
X139546289Y-64965086D01*
X139504564Y-64931733D01*
X139448894Y-64892502D01*
X139444222Y-64889399D01*
X139300336Y-64774223D01*
X139184317Y-64639853D01*
X139097170Y-64490584D01*
X139039901Y-64330713D01*
X139013514Y-64164537D01*
X139019015Y-63996352D01*
X139057410Y-63830455D01*
X139129705Y-63671142D01*
X139150974Y-63636287D01*
X139261604Y-63495537D01*
X139392298Y-63382514D01*
X139538536Y-63297803D01*
X139695792Y-63241994D01*
X139859543Y-63215674D01*
X140025267Y-63219430D01*
X140188438Y-63253850D01*
X140344535Y-63319523D01*
X140489033Y-63417035D01*
X140533731Y-63456613D01*
X140647488Y-63580503D01*
X140730382Y-63710924D01*
X140787244Y-63857115D01*
X140818913Y-64001888D01*
X140826731Y-64164660D01*
X140800662Y-64328240D01*
X140743355Y-64487098D01*
X140657456Y-64635706D01*
X140545614Y-64768535D01*
X140410477Y-64880056D01*
X140392717Y-64891811D01*
X140336450Y-64930308D01*
X140293677Y-64963663D01*
X140273228Y-64984960D01*
X140272931Y-64985633D01*
X140277321Y-65008671D01*
X140294724Y-65060957D01*
X140323332Y-65138190D01*
X140361335Y-65236068D01*
X140406926Y-65350291D01*
X140458297Y-65476558D01*
X140513638Y-65610567D01*
X140571142Y-65748018D01*
X140628999Y-65884608D01*
X140685402Y-66016037D01*
X140738542Y-66138005D01*
X140786610Y-66246209D01*
X140827799Y-66336349D01*
X140860299Y-66404123D01*
X140882303Y-66445230D01*
X140891164Y-66456026D01*
X140918240Y-66447619D01*
X140968903Y-66425072D01*
X141034417Y-66392413D01*
X141070441Y-66373320D01*
X141223432Y-66290600D01*
X141405688Y-66413875D01*
X141498725Y-66477028D01*
X141600585Y-66546527D01*
X141696038Y-66611965D01*
X141743850Y-66644917D01*
X141811095Y-66690073D01*
X141868036Y-66725857D01*
X141907246Y-66747738D01*
X141919981Y-66752363D01*
X141938517Y-66739885D01*
X141979541Y-66705052D01*
X142039075Y-66651478D01*
X142113142Y-66582783D01*
X142197765Y-66502581D01*
X142251285Y-66451086D01*
X142344919Y-66359086D01*
X142425841Y-66276799D01*
X142490777Y-66207745D01*
X142536458Y-66155444D01*
X142559611Y-66123416D01*
X142561832Y-66116916D01*
X142551524Y-66092194D01*
X142523039Y-66042205D01*
X142479537Y-65972012D01*
X142424177Y-65886675D01*
X142360120Y-65791256D01*
X142341903Y-65764654D01*
X142275527Y-65667967D01*
X142215978Y-65580917D01*
X142166584Y-65508395D01*
X142130675Y-65455293D01*
X142111581Y-65426503D01*
X142109736Y-65423526D01*
X142112495Y-65400582D01*
X142127138Y-65350136D01*
X142151113Y-65278841D01*
X142181866Y-65193347D01*
X142216844Y-65100307D01*
X142253493Y-65006374D01*
X142289261Y-64918199D01*
X142321594Y-64842434D01*
X142347938Y-64785731D01*
X142365742Y-64754743D01*
X142367007Y-64753257D01*
X142377894Y-64744401D01*
X142396282Y-64735643D01*
X142426206Y-64726077D01*
X142471703Y-64714796D01*
X142536809Y-64700893D01*
X142625561Y-64683463D01*
X142741993Y-64661598D01*
X142890142Y-64634391D01*
X142922218Y-64628541D01*
X143017286Y-64610174D01*
X143100165Y-64592205D01*
X143163530Y-64576369D01*
X143200058Y-64564400D01*
X143204956Y-64561610D01*
X143213027Y-64536872D01*
X143219587Y-64481590D01*
X143224633Y-64402189D01*
X143228159Y-64305096D01*
X143230161Y-64196738D01*
X143230636Y-64083540D01*
X143229577Y-63971928D01*
X143226982Y-63868329D01*
X143222846Y-63779168D01*
X143217163Y-63710872D01*
X143209931Y-63669866D01*
X143205571Y-63661474D01*
X143181298Y-63653008D01*
X143126026Y-63639235D01*
X143045262Y-63621350D01*
X142944512Y-63600548D01*
X142829283Y-63578023D01*
X142766502Y-63566218D01*
X142647387Y-63543951D01*
X142541165Y-63523779D01*
X142453027Y-63506715D01*
X142388166Y-63493769D01*
X142351774Y-63485955D01*
X142345784Y-63484222D01*
X142335661Y-63464690D01*
X142314262Y-63417643D01*
X142284439Y-63349803D01*
X142249045Y-63267891D01*
X142210932Y-63178628D01*
X142172953Y-63088735D01*
X142137960Y-63004935D01*
X142108806Y-62933947D01*
X142088343Y-62882494D01*
X142079423Y-62857297D01*
X142079257Y-62856196D01*
X142089369Y-62836319D01*
X142117717Y-62790577D01*
X142161323Y-62723517D01*
X142217206Y-62639684D01*
X142282387Y-62543626D01*
X142320279Y-62488450D01*
X142389325Y-62387281D01*
X142450650Y-62295430D01*
X142501263Y-62217544D01*
X142538171Y-62158269D01*
X142558382Y-62122251D01*
X142561301Y-62114177D01*
X142548753Y-62095384D01*
X142514063Y-62055257D01*
X142461663Y-61998293D01*
X142395984Y-61928985D01*
X142321456Y-61851831D01*
X142242513Y-61771325D01*
X142163583Y-61691963D01*
X142089100Y-61618240D01*
X142023494Y-61554652D01*
X141971196Y-61505694D01*
X141936639Y-61475861D01*
X141925078Y-61468742D01*
X141906254Y-61478753D01*
X141861231Y-61506878D01*
X141794387Y-61550254D01*
X141710099Y-61606018D01*
X141612744Y-61671306D01*
X141539307Y-61721046D01*
X141168267Y-61973351D01*
X140549695Y-61718355D01*
X140465875Y-61273731D01*
X140382054Y-60829107D01*
X139456606Y-60829107D01*
X139372786Y-61273731D01*
G37*
X139372786Y-61273731D02*
X139288965Y-61718355D01*
X138979680Y-61845853D01*
X138670394Y-61973351D01*
X138299354Y-61721046D01*
X138195443Y-61650796D01*
X138101513Y-61588072D01*
X138021948Y-61535738D01*
X137961130Y-61496657D01*
X137923443Y-61473693D01*
X137913179Y-61468742D01*
X137894690Y-61481476D01*
X137855180Y-61516682D01*
X137799078Y-61569862D01*
X137730813Y-61636518D01*
X137654814Y-61712154D01*
X137575508Y-61792272D01*
X137497325Y-61872374D01*
X137424693Y-61947964D01*
X137362041Y-62014545D01*
X137313797Y-62067618D01*
X137284390Y-62102687D01*
X137277359Y-62114423D01*
X137287477Y-62136060D01*
X137315841Y-62183462D01*
X137359471Y-62251993D01*
X137415382Y-62337015D01*
X137480594Y-62433893D01*
X137518381Y-62489150D01*
X137587257Y-62590048D01*
X137648460Y-62681099D01*
X137699022Y-62757770D01*
X137735972Y-62815528D01*
X137756342Y-62849843D01*
X137759403Y-62857054D01*
X137752464Y-62877548D01*
X137733549Y-62925313D01*
X137705513Y-62993632D01*
X137671209Y-63075789D01*
X137633491Y-63165070D01*
X137595213Y-63254758D01*
X137559230Y-63338138D01*
X137528394Y-63408494D01*
X137505561Y-63459110D01*
X137493583Y-63483271D01*
X137492876Y-63484222D01*
X137474069Y-63488836D01*
X137423982Y-63499128D01*
X137347807Y-63514087D01*
X137250735Y-63532701D01*
X137137957Y-63553959D01*
X137072158Y-63566218D01*
X136951650Y-63589162D01*
X136842803Y-63610995D01*
X136751124Y-63630522D01*
X136682119Y-63646548D01*
X136641296Y-63657879D01*
X136633089Y-63661474D01*
X136625052Y-63685806D01*
X136618567Y-63740759D01*
X136613630Y-63819908D01*
X136610236Y-63916826D01*
X136608382Y-64025087D01*
X136608062Y-64138265D01*
X136609273Y-64249935D01*
X136612010Y-64353668D01*
X136616269Y-64443041D01*
X136622045Y-64511626D01*
X136629333Y-64552997D01*
X136633705Y-64561610D01*
X136659836Y-64571933D01*
X136715207Y-64586692D01*
X136792493Y-64604152D01*
X136884370Y-64622580D01*
X136916442Y-64628541D01*
X137071076Y-64656866D01*
X137193225Y-64679676D01*
X137286927Y-64697880D01*
X137356216Y-64712383D01*
X137405129Y-64724092D01*
X137437703Y-64733915D01*
X137457972Y-64742756D01*
X137469974Y-64751524D01*
X137471653Y-64753257D01*
X137488416Y-64781171D01*
X137513986Y-64835495D01*
X137545812Y-64909577D01*
X137581340Y-64996765D01*
X137618017Y-65090408D01*
X137653289Y-65183852D01*
X137684604Y-65270447D01*
X137709407Y-65343540D01*
X137725146Y-65396478D01*
X137729268Y-65422611D01*
X137728924Y-65423526D01*
X137714959Y-65444886D01*
X137683278Y-65491884D01*
X137637209Y-65559627D01*
X137580082Y-65643223D01*
X137515227Y-65737782D01*
X137496757Y-65764654D01*
X137430901Y-65862075D01*
X137372950Y-65950963D01*
X137326062Y-66026212D01*
X137293393Y-66082720D01*
X137278100Y-66115381D01*
X137277359Y-66119393D01*
X137290208Y-66140484D01*
X137325712Y-66182264D01*
X137379307Y-66240245D01*
X137446429Y-66309935D01*
X137522513Y-66386845D01*
X137602996Y-66466483D01*
X137683313Y-66544361D01*
X137758901Y-66615986D01*
X137825195Y-66676870D01*
X137877631Y-66722521D01*
X137911645Y-66748450D01*
X137921055Y-66752683D01*
X137942957Y-66742712D01*
X137987800Y-66715820D01*
X138048279Y-66676536D01*
X138094811Y-66644917D01*
X138179125Y-66586898D01*
X138278974Y-66518584D01*
X138379127Y-66450379D01*
X138432973Y-66413875D01*
X138615229Y-66290600D01*
X138768219Y-66373320D01*
X138837918Y-66409559D01*
X138897186Y-66437726D01*
X138937289Y-66453791D01*
X138947497Y-66456026D01*
X138959771Y-66439522D01*
X138983987Y-66392882D01*
X139018337Y-66320409D01*
X139061012Y-66226406D01*
X139110206Y-66115174D01*
X139164110Y-65991015D01*
X139220916Y-65858232D01*
X139278818Y-65721127D01*
X139336007Y-65584002D01*
X139390676Y-65451158D01*
X139441016Y-65326898D01*
X139485220Y-65215525D01*
X139521481Y-65121339D01*
X139547991Y-65048644D01*
X139562942Y-65001741D01*
X139565346Y-64985633D01*
X139546289Y-64965086D01*
X139504564Y-64931733D01*
X139448894Y-64892502D01*
X139444222Y-64889399D01*
X139300336Y-64774223D01*
X139184317Y-64639853D01*
X139097170Y-64490584D01*
X139039901Y-64330713D01*
X139013514Y-64164537D01*
X139019015Y-63996352D01*
X139057410Y-63830455D01*
X139129705Y-63671142D01*
X139150974Y-63636287D01*
X139261604Y-63495537D01*
X139392298Y-63382514D01*
X139538536Y-63297803D01*
X139695792Y-63241994D01*
X139859543Y-63215674D01*
X140025267Y-63219430D01*
X140188438Y-63253850D01*
X140344535Y-63319523D01*
X140489033Y-63417035D01*
X140533731Y-63456613D01*
X140647488Y-63580503D01*
X140730382Y-63710924D01*
X140787244Y-63857115D01*
X140818913Y-64001888D01*
X140826731Y-64164660D01*
X140800662Y-64328240D01*
X140743355Y-64487098D01*
X140657456Y-64635706D01*
X140545614Y-64768535D01*
X140410477Y-64880056D01*
X140392717Y-64891811D01*
X140336450Y-64930308D01*
X140293677Y-64963663D01*
X140273228Y-64984960D01*
X140272931Y-64985633D01*
X140277321Y-65008671D01*
X140294724Y-65060957D01*
X140323332Y-65138190D01*
X140361335Y-65236068D01*
X140406926Y-65350291D01*
X140458297Y-65476558D01*
X140513638Y-65610567D01*
X140571142Y-65748018D01*
X140628999Y-65884608D01*
X140685402Y-66016037D01*
X140738542Y-66138005D01*
X140786610Y-66246209D01*
X140827799Y-66336349D01*
X140860299Y-66404123D01*
X140882303Y-66445230D01*
X140891164Y-66456026D01*
X140918240Y-66447619D01*
X140968903Y-66425072D01*
X141034417Y-66392413D01*
X141070441Y-66373320D01*
X141223432Y-66290600D01*
X141405688Y-66413875D01*
X141498725Y-66477028D01*
X141600585Y-66546527D01*
X141696038Y-66611965D01*
X141743850Y-66644917D01*
X141811095Y-66690073D01*
X141868036Y-66725857D01*
X141907246Y-66747738D01*
X141919981Y-66752363D01*
X141938517Y-66739885D01*
X141979541Y-66705052D01*
X142039075Y-66651478D01*
X142113142Y-66582783D01*
X142197765Y-66502581D01*
X142251285Y-66451086D01*
X142344919Y-66359086D01*
X142425841Y-66276799D01*
X142490777Y-66207745D01*
X142536458Y-66155444D01*
X142559611Y-66123416D01*
X142561832Y-66116916D01*
X142551524Y-66092194D01*
X142523039Y-66042205D01*
X142479537Y-65972012D01*
X142424177Y-65886675D01*
X142360120Y-65791256D01*
X142341903Y-65764654D01*
X142275527Y-65667967D01*
X142215978Y-65580917D01*
X142166584Y-65508395D01*
X142130675Y-65455293D01*
X142111581Y-65426503D01*
X142109736Y-65423526D01*
X142112495Y-65400582D01*
X142127138Y-65350136D01*
X142151113Y-65278841D01*
X142181866Y-65193347D01*
X142216844Y-65100307D01*
X142253493Y-65006374D01*
X142289261Y-64918199D01*
X142321594Y-64842434D01*
X142347938Y-64785731D01*
X142365742Y-64754743D01*
X142367007Y-64753257D01*
X142377894Y-64744401D01*
X142396282Y-64735643D01*
X142426206Y-64726077D01*
X142471703Y-64714796D01*
X142536809Y-64700893D01*
X142625561Y-64683463D01*
X142741993Y-64661598D01*
X142890142Y-64634391D01*
X142922218Y-64628541D01*
X143017286Y-64610174D01*
X143100165Y-64592205D01*
X143163530Y-64576369D01*
X143200058Y-64564400D01*
X143204956Y-64561610D01*
X143213027Y-64536872D01*
X143219587Y-64481590D01*
X143224633Y-64402189D01*
X143228159Y-64305096D01*
X143230161Y-64196738D01*
X143230636Y-64083540D01*
X143229577Y-63971928D01*
X143226982Y-63868329D01*
X143222846Y-63779168D01*
X143217163Y-63710872D01*
X143209931Y-63669866D01*
X143205571Y-63661474D01*
X143181298Y-63653008D01*
X143126026Y-63639235D01*
X143045262Y-63621350D01*
X142944512Y-63600548D01*
X142829283Y-63578023D01*
X142766502Y-63566218D01*
X142647387Y-63543951D01*
X142541165Y-63523779D01*
X142453027Y-63506715D01*
X142388166Y-63493769D01*
X142351774Y-63485955D01*
X142345784Y-63484222D01*
X142335661Y-63464690D01*
X142314262Y-63417643D01*
X142284439Y-63349803D01*
X142249045Y-63267891D01*
X142210932Y-63178628D01*
X142172953Y-63088735D01*
X142137960Y-63004935D01*
X142108806Y-62933947D01*
X142088343Y-62882494D01*
X142079423Y-62857297D01*
X142079257Y-62856196D01*
X142089369Y-62836319D01*
X142117717Y-62790577D01*
X142161323Y-62723517D01*
X142217206Y-62639684D01*
X142282387Y-62543626D01*
X142320279Y-62488450D01*
X142389325Y-62387281D01*
X142450650Y-62295430D01*
X142501263Y-62217544D01*
X142538171Y-62158269D01*
X142558382Y-62122251D01*
X142561301Y-62114177D01*
X142548753Y-62095384D01*
X142514063Y-62055257D01*
X142461663Y-61998293D01*
X142395984Y-61928985D01*
X142321456Y-61851831D01*
X142242513Y-61771325D01*
X142163583Y-61691963D01*
X142089100Y-61618240D01*
X142023494Y-61554652D01*
X141971196Y-61505694D01*
X141936639Y-61475861D01*
X141925078Y-61468742D01*
X141906254Y-61478753D01*
X141861231Y-61506878D01*
X141794387Y-61550254D01*
X141710099Y-61606018D01*
X141612744Y-61671306D01*
X141539307Y-61721046D01*
X141168267Y-61973351D01*
X140549695Y-61718355D01*
X140465875Y-61273731D01*
X140382054Y-60829107D01*
X139456606Y-60829107D01*
X139372786Y-61273731D01*
%TD*%
M02*
