%TF.GenerationSoftware,KiCad,Pcbnew,5.1.6-c6e7f7d~87~ubuntu18.04.1*%
%TF.CreationDate,2020-10-05T22:19:12-07:00*%
%TF.ProjectId,feather-power-supply-sw-smd,66656174-6865-4722-9d70-6f7765722d73,rev?*%
%TF.SameCoordinates,Original*%
%TF.FileFunction,Legend,Bot*%
%TF.FilePolarity,Positive*%
%FSLAX46Y46*%
G04 Gerber Fmt 4.6, Leading zero omitted, Abs format (unit mm)*
G04 Created by KiCad (PCBNEW 5.1.6-c6e7f7d~87~ubuntu18.04.1) date 2020-10-05 22:19:12*
%MOMM*%
%LPD*%
G01*
G04 APERTURE LIST*
%ADD10C,0.010000*%
G04 APERTURE END LIST*
D10*
%TO.C,REF\u002A\u002A*%
G36*
X132455177Y-86094533D02*
G01*
X132423798Y-86116776D01*
X132396089Y-86144485D01*
X132396089Y-86453920D01*
X132396162Y-86545799D01*
X132396505Y-86617840D01*
X132397308Y-86672780D01*
X132398759Y-86713360D01*
X132401048Y-86742317D01*
X132404364Y-86762391D01*
X132408895Y-86776321D01*
X132414831Y-86786845D01*
X132419486Y-86793100D01*
X132450217Y-86817673D01*
X132485504Y-86820341D01*
X132517755Y-86805271D01*
X132528412Y-86796374D01*
X132535536Y-86784557D01*
X132539833Y-86765526D01*
X132542009Y-86734992D01*
X132542772Y-86688662D01*
X132542845Y-86652871D01*
X132542845Y-86518045D01*
X133039556Y-86518045D01*
X133039556Y-86640700D01*
X133040069Y-86696787D01*
X133042124Y-86735333D01*
X133046492Y-86761361D01*
X133053944Y-86779897D01*
X133062953Y-86793100D01*
X133093856Y-86817604D01*
X133128804Y-86820506D01*
X133162262Y-86803089D01*
X133171396Y-86793959D01*
X133177848Y-86781855D01*
X133182103Y-86763001D01*
X133184648Y-86733620D01*
X133185971Y-86689937D01*
X133186557Y-86628175D01*
X133186625Y-86614000D01*
X133187109Y-86497631D01*
X133187359Y-86401727D01*
X133187277Y-86324177D01*
X133186769Y-86262869D01*
X133185738Y-86215690D01*
X133184087Y-86180530D01*
X133181721Y-86155276D01*
X133178543Y-86137817D01*
X133174456Y-86126041D01*
X133169366Y-86117835D01*
X133163734Y-86111645D01*
X133131872Y-86091844D01*
X133098643Y-86094533D01*
X133067265Y-86116776D01*
X133054567Y-86131126D01*
X133046474Y-86146978D01*
X133041958Y-86169554D01*
X133039994Y-86204078D01*
X133039556Y-86255776D01*
X133039556Y-86371289D01*
X132542845Y-86371289D01*
X132542845Y-86252756D01*
X132542338Y-86198148D01*
X132540302Y-86161275D01*
X132535965Y-86137307D01*
X132528553Y-86121415D01*
X132520267Y-86111645D01*
X132488406Y-86091844D01*
X132455177Y-86094533D01*
G37*
X132455177Y-86094533D02*
X132423798Y-86116776D01*
X132396089Y-86144485D01*
X132396089Y-86453920D01*
X132396162Y-86545799D01*
X132396505Y-86617840D01*
X132397308Y-86672780D01*
X132398759Y-86713360D01*
X132401048Y-86742317D01*
X132404364Y-86762391D01*
X132408895Y-86776321D01*
X132414831Y-86786845D01*
X132419486Y-86793100D01*
X132450217Y-86817673D01*
X132485504Y-86820341D01*
X132517755Y-86805271D01*
X132528412Y-86796374D01*
X132535536Y-86784557D01*
X132539833Y-86765526D01*
X132542009Y-86734992D01*
X132542772Y-86688662D01*
X132542845Y-86652871D01*
X132542845Y-86518045D01*
X133039556Y-86518045D01*
X133039556Y-86640700D01*
X133040069Y-86696787D01*
X133042124Y-86735333D01*
X133046492Y-86761361D01*
X133053944Y-86779897D01*
X133062953Y-86793100D01*
X133093856Y-86817604D01*
X133128804Y-86820506D01*
X133162262Y-86803089D01*
X133171396Y-86793959D01*
X133177848Y-86781855D01*
X133182103Y-86763001D01*
X133184648Y-86733620D01*
X133185971Y-86689937D01*
X133186557Y-86628175D01*
X133186625Y-86614000D01*
X133187109Y-86497631D01*
X133187359Y-86401727D01*
X133187277Y-86324177D01*
X133186769Y-86262869D01*
X133185738Y-86215690D01*
X133184087Y-86180530D01*
X133181721Y-86155276D01*
X133178543Y-86137817D01*
X133174456Y-86126041D01*
X133169366Y-86117835D01*
X133163734Y-86111645D01*
X133131872Y-86091844D01*
X133098643Y-86094533D01*
X133067265Y-86116776D01*
X133054567Y-86131126D01*
X133046474Y-86146978D01*
X133041958Y-86169554D01*
X133039994Y-86204078D01*
X133039556Y-86255776D01*
X133039556Y-86371289D01*
X132542845Y-86371289D01*
X132542845Y-86252756D01*
X132542338Y-86198148D01*
X132540302Y-86161275D01*
X132535965Y-86137307D01*
X132528553Y-86121415D01*
X132520267Y-86111645D01*
X132488406Y-86091844D01*
X132455177Y-86094533D01*
G36*
X133720935Y-86089163D02*
G01*
X133642228Y-86089542D01*
X133581137Y-86090333D01*
X133535183Y-86091670D01*
X133501886Y-86093683D01*
X133478764Y-86096506D01*
X133463338Y-86100269D01*
X133453129Y-86105105D01*
X133448187Y-86108822D01*
X133422543Y-86141358D01*
X133419441Y-86175138D01*
X133435289Y-86205826D01*
X133445652Y-86218089D01*
X133456804Y-86226450D01*
X133472965Y-86231657D01*
X133498358Y-86234457D01*
X133537202Y-86235596D01*
X133593720Y-86235821D01*
X133604820Y-86235822D01*
X133750756Y-86235822D01*
X133750756Y-86506756D01*
X133750852Y-86592154D01*
X133751289Y-86657864D01*
X133752288Y-86706774D01*
X133754072Y-86741773D01*
X133756863Y-86765749D01*
X133760883Y-86781593D01*
X133766355Y-86792191D01*
X133773334Y-86800267D01*
X133806266Y-86820112D01*
X133840646Y-86818548D01*
X133871824Y-86795906D01*
X133874114Y-86793100D01*
X133881571Y-86782492D01*
X133887253Y-86770081D01*
X133891399Y-86752850D01*
X133894250Y-86727784D01*
X133896046Y-86691867D01*
X133897028Y-86642083D01*
X133897436Y-86575417D01*
X133897511Y-86499589D01*
X133897511Y-86235822D01*
X134036873Y-86235822D01*
X134096678Y-86235418D01*
X134138082Y-86233840D01*
X134165252Y-86230547D01*
X134182354Y-86224992D01*
X134193557Y-86216631D01*
X134194917Y-86215178D01*
X134211275Y-86181939D01*
X134209828Y-86144362D01*
X134191022Y-86111645D01*
X134183750Y-86105298D01*
X134174373Y-86100266D01*
X134160391Y-86096396D01*
X134139304Y-86093537D01*
X134108611Y-86091535D01*
X134065811Y-86090239D01*
X134008405Y-86089498D01*
X133933890Y-86089158D01*
X133839767Y-86089068D01*
X133819740Y-86089067D01*
X133720935Y-86089163D01*
G37*
X133720935Y-86089163D02*
X133642228Y-86089542D01*
X133581137Y-86090333D01*
X133535183Y-86091670D01*
X133501886Y-86093683D01*
X133478764Y-86096506D01*
X133463338Y-86100269D01*
X133453129Y-86105105D01*
X133448187Y-86108822D01*
X133422543Y-86141358D01*
X133419441Y-86175138D01*
X133435289Y-86205826D01*
X133445652Y-86218089D01*
X133456804Y-86226450D01*
X133472965Y-86231657D01*
X133498358Y-86234457D01*
X133537202Y-86235596D01*
X133593720Y-86235821D01*
X133604820Y-86235822D01*
X133750756Y-86235822D01*
X133750756Y-86506756D01*
X133750852Y-86592154D01*
X133751289Y-86657864D01*
X133752288Y-86706774D01*
X133754072Y-86741773D01*
X133756863Y-86765749D01*
X133760883Y-86781593D01*
X133766355Y-86792191D01*
X133773334Y-86800267D01*
X133806266Y-86820112D01*
X133840646Y-86818548D01*
X133871824Y-86795906D01*
X133874114Y-86793100D01*
X133881571Y-86782492D01*
X133887253Y-86770081D01*
X133891399Y-86752850D01*
X133894250Y-86727784D01*
X133896046Y-86691867D01*
X133897028Y-86642083D01*
X133897436Y-86575417D01*
X133897511Y-86499589D01*
X133897511Y-86235822D01*
X134036873Y-86235822D01*
X134096678Y-86235418D01*
X134138082Y-86233840D01*
X134165252Y-86230547D01*
X134182354Y-86224992D01*
X134193557Y-86216631D01*
X134194917Y-86215178D01*
X134211275Y-86181939D01*
X134209828Y-86144362D01*
X134191022Y-86111645D01*
X134183750Y-86105298D01*
X134174373Y-86100266D01*
X134160391Y-86096396D01*
X134139304Y-86093537D01*
X134108611Y-86091535D01*
X134065811Y-86090239D01*
X134008405Y-86089498D01*
X133933890Y-86089158D01*
X133839767Y-86089068D01*
X133819740Y-86089067D01*
X133720935Y-86089163D01*
G36*
X134495386Y-86095877D02*
G01*
X134471673Y-86110647D01*
X134445022Y-86132227D01*
X134445022Y-86453773D01*
X134445107Y-86547830D01*
X134445471Y-86621932D01*
X134446276Y-86678704D01*
X134447687Y-86720768D01*
X134449867Y-86750748D01*
X134452979Y-86771267D01*
X134457186Y-86784949D01*
X134462652Y-86794416D01*
X134466528Y-86799082D01*
X134497966Y-86819575D01*
X134533767Y-86818739D01*
X134565127Y-86801264D01*
X134591778Y-86779684D01*
X134591778Y-86132227D01*
X134565127Y-86110647D01*
X134539406Y-86094949D01*
X134518400Y-86089067D01*
X134495386Y-86095877D01*
G37*
X134495386Y-86095877D02*
X134471673Y-86110647D01*
X134445022Y-86132227D01*
X134445022Y-86453773D01*
X134445107Y-86547830D01*
X134445471Y-86621932D01*
X134446276Y-86678704D01*
X134447687Y-86720768D01*
X134449867Y-86750748D01*
X134452979Y-86771267D01*
X134457186Y-86784949D01*
X134462652Y-86794416D01*
X134466528Y-86799082D01*
X134497966Y-86819575D01*
X134533767Y-86818739D01*
X134565127Y-86801264D01*
X134591778Y-86779684D01*
X134591778Y-86132227D01*
X134565127Y-86110647D01*
X134539406Y-86094949D01*
X134518400Y-86089067D01*
X134495386Y-86095877D01*
G36*
X134939335Y-86091034D02*
G01*
X134919745Y-86098035D01*
X134918990Y-86098377D01*
X134892387Y-86118678D01*
X134877730Y-86139561D01*
X134874862Y-86149352D01*
X134875004Y-86162361D01*
X134879039Y-86180895D01*
X134887854Y-86207257D01*
X134902331Y-86243752D01*
X134923355Y-86292687D01*
X134951812Y-86356365D01*
X134988585Y-86437093D01*
X135008825Y-86481216D01*
X135045375Y-86559985D01*
X135079685Y-86632423D01*
X135110448Y-86695880D01*
X135136352Y-86747708D01*
X135156090Y-86785259D01*
X135168350Y-86805884D01*
X135170776Y-86808733D01*
X135201817Y-86821302D01*
X135236879Y-86819619D01*
X135265000Y-86804332D01*
X135266146Y-86803089D01*
X135277332Y-86786154D01*
X135296096Y-86753170D01*
X135320125Y-86708380D01*
X135347103Y-86656032D01*
X135356799Y-86636742D01*
X135429986Y-86490150D01*
X135509760Y-86649393D01*
X135538233Y-86704415D01*
X135564650Y-86752132D01*
X135586852Y-86788893D01*
X135602681Y-86811044D01*
X135608046Y-86815741D01*
X135649743Y-86822102D01*
X135684151Y-86808733D01*
X135694272Y-86794446D01*
X135711786Y-86762692D01*
X135735265Y-86716597D01*
X135763280Y-86659285D01*
X135794401Y-86593880D01*
X135827201Y-86523507D01*
X135860250Y-86451291D01*
X135892119Y-86380355D01*
X135921381Y-86313825D01*
X135946605Y-86254826D01*
X135966364Y-86206481D01*
X135979228Y-86171915D01*
X135983769Y-86154253D01*
X135983723Y-86153613D01*
X135972674Y-86131388D01*
X135950590Y-86108753D01*
X135949290Y-86107768D01*
X135922147Y-86092425D01*
X135897042Y-86092574D01*
X135887632Y-86095466D01*
X135876166Y-86101718D01*
X135863990Y-86114014D01*
X135849643Y-86134908D01*
X135831664Y-86166949D01*
X135808593Y-86212688D01*
X135778970Y-86274677D01*
X135752255Y-86331898D01*
X135721520Y-86398226D01*
X135693979Y-86457874D01*
X135671062Y-86507725D01*
X135654202Y-86544664D01*
X135644827Y-86565573D01*
X135643460Y-86568845D01*
X135637311Y-86563497D01*
X135623178Y-86541109D01*
X135602943Y-86504946D01*
X135578485Y-86458277D01*
X135568752Y-86439022D01*
X135535783Y-86374004D01*
X135510357Y-86326654D01*
X135490388Y-86294219D01*
X135473790Y-86273946D01*
X135458476Y-86263082D01*
X135442360Y-86258875D01*
X135431857Y-86258400D01*
X135413330Y-86260042D01*
X135397096Y-86266831D01*
X135380965Y-86281566D01*
X135362749Y-86307044D01*
X135340261Y-86346061D01*
X135311311Y-86401414D01*
X135295338Y-86432903D01*
X135269430Y-86483087D01*
X135246833Y-86524704D01*
X135229542Y-86554242D01*
X135219550Y-86568189D01*
X135218191Y-86568770D01*
X135211739Y-86557793D01*
X135197292Y-86529290D01*
X135176297Y-86486244D01*
X135150203Y-86431638D01*
X135120454Y-86368454D01*
X135105820Y-86337071D01*
X135067750Y-86256078D01*
X135037095Y-86193756D01*
X135012263Y-86148071D01*
X134991663Y-86116989D01*
X134973702Y-86098478D01*
X134956790Y-86090504D01*
X134939335Y-86091034D01*
G37*
X134939335Y-86091034D02*
X134919745Y-86098035D01*
X134918990Y-86098377D01*
X134892387Y-86118678D01*
X134877730Y-86139561D01*
X134874862Y-86149352D01*
X134875004Y-86162361D01*
X134879039Y-86180895D01*
X134887854Y-86207257D01*
X134902331Y-86243752D01*
X134923355Y-86292687D01*
X134951812Y-86356365D01*
X134988585Y-86437093D01*
X135008825Y-86481216D01*
X135045375Y-86559985D01*
X135079685Y-86632423D01*
X135110448Y-86695880D01*
X135136352Y-86747708D01*
X135156090Y-86785259D01*
X135168350Y-86805884D01*
X135170776Y-86808733D01*
X135201817Y-86821302D01*
X135236879Y-86819619D01*
X135265000Y-86804332D01*
X135266146Y-86803089D01*
X135277332Y-86786154D01*
X135296096Y-86753170D01*
X135320125Y-86708380D01*
X135347103Y-86656032D01*
X135356799Y-86636742D01*
X135429986Y-86490150D01*
X135509760Y-86649393D01*
X135538233Y-86704415D01*
X135564650Y-86752132D01*
X135586852Y-86788893D01*
X135602681Y-86811044D01*
X135608046Y-86815741D01*
X135649743Y-86822102D01*
X135684151Y-86808733D01*
X135694272Y-86794446D01*
X135711786Y-86762692D01*
X135735265Y-86716597D01*
X135763280Y-86659285D01*
X135794401Y-86593880D01*
X135827201Y-86523507D01*
X135860250Y-86451291D01*
X135892119Y-86380355D01*
X135921381Y-86313825D01*
X135946605Y-86254826D01*
X135966364Y-86206481D01*
X135979228Y-86171915D01*
X135983769Y-86154253D01*
X135983723Y-86153613D01*
X135972674Y-86131388D01*
X135950590Y-86108753D01*
X135949290Y-86107768D01*
X135922147Y-86092425D01*
X135897042Y-86092574D01*
X135887632Y-86095466D01*
X135876166Y-86101718D01*
X135863990Y-86114014D01*
X135849643Y-86134908D01*
X135831664Y-86166949D01*
X135808593Y-86212688D01*
X135778970Y-86274677D01*
X135752255Y-86331898D01*
X135721520Y-86398226D01*
X135693979Y-86457874D01*
X135671062Y-86507725D01*
X135654202Y-86544664D01*
X135644827Y-86565573D01*
X135643460Y-86568845D01*
X135637311Y-86563497D01*
X135623178Y-86541109D01*
X135602943Y-86504946D01*
X135578485Y-86458277D01*
X135568752Y-86439022D01*
X135535783Y-86374004D01*
X135510357Y-86326654D01*
X135490388Y-86294219D01*
X135473790Y-86273946D01*
X135458476Y-86263082D01*
X135442360Y-86258875D01*
X135431857Y-86258400D01*
X135413330Y-86260042D01*
X135397096Y-86266831D01*
X135380965Y-86281566D01*
X135362749Y-86307044D01*
X135340261Y-86346061D01*
X135311311Y-86401414D01*
X135295338Y-86432903D01*
X135269430Y-86483087D01*
X135246833Y-86524704D01*
X135229542Y-86554242D01*
X135219550Y-86568189D01*
X135218191Y-86568770D01*
X135211739Y-86557793D01*
X135197292Y-86529290D01*
X135176297Y-86486244D01*
X135150203Y-86431638D01*
X135120454Y-86368454D01*
X135105820Y-86337071D01*
X135067750Y-86256078D01*
X135037095Y-86193756D01*
X135012263Y-86148071D01*
X134991663Y-86116989D01*
X134973702Y-86098478D01*
X134956790Y-86090504D01*
X134939335Y-86091034D01*
G36*
X137665691Y-86089275D02*
G01*
X137536712Y-86093636D01*
X137427009Y-86106861D01*
X137334774Y-86129741D01*
X137258198Y-86163070D01*
X137195473Y-86207638D01*
X137144788Y-86264236D01*
X137104337Y-86333658D01*
X137103541Y-86335351D01*
X137079399Y-86397483D01*
X137070797Y-86452509D01*
X137077769Y-86507887D01*
X137100346Y-86571073D01*
X137104628Y-86580689D01*
X137133828Y-86636966D01*
X137166644Y-86680451D01*
X137208998Y-86717417D01*
X137266810Y-86754135D01*
X137270169Y-86756052D01*
X137320496Y-86780227D01*
X137377379Y-86798282D01*
X137444473Y-86810839D01*
X137525435Y-86818522D01*
X137623918Y-86821953D01*
X137658714Y-86822251D01*
X137824406Y-86822845D01*
X137847803Y-86793100D01*
X137854743Y-86783319D01*
X137860158Y-86771897D01*
X137864235Y-86756095D01*
X137867163Y-86733175D01*
X137869133Y-86700396D01*
X137869775Y-86676089D01*
X137713156Y-86676089D01*
X137619274Y-86676089D01*
X137564336Y-86674483D01*
X137507940Y-86670255D01*
X137461655Y-86664292D01*
X137458861Y-86663790D01*
X137376652Y-86641736D01*
X137312886Y-86608600D01*
X137265548Y-86562847D01*
X137232618Y-86502939D01*
X137226892Y-86487061D01*
X137221279Y-86462333D01*
X137223709Y-86437902D01*
X137235533Y-86405400D01*
X137242660Y-86389434D01*
X137266000Y-86347006D01*
X137294120Y-86317240D01*
X137325060Y-86296511D01*
X137387034Y-86269537D01*
X137466349Y-86249998D01*
X137558747Y-86238746D01*
X137625667Y-86236270D01*
X137713156Y-86235822D01*
X137713156Y-86676089D01*
X137869775Y-86676089D01*
X137870332Y-86655021D01*
X137870950Y-86594311D01*
X137871175Y-86515526D01*
X137871200Y-86453920D01*
X137871200Y-86144485D01*
X137843491Y-86116776D01*
X137831194Y-86105544D01*
X137817897Y-86097853D01*
X137799328Y-86093040D01*
X137771214Y-86090446D01*
X137729283Y-86089410D01*
X137669263Y-86089270D01*
X137665691Y-86089275D01*
G37*
X137665691Y-86089275D02*
X137536712Y-86093636D01*
X137427009Y-86106861D01*
X137334774Y-86129741D01*
X137258198Y-86163070D01*
X137195473Y-86207638D01*
X137144788Y-86264236D01*
X137104337Y-86333658D01*
X137103541Y-86335351D01*
X137079399Y-86397483D01*
X137070797Y-86452509D01*
X137077769Y-86507887D01*
X137100346Y-86571073D01*
X137104628Y-86580689D01*
X137133828Y-86636966D01*
X137166644Y-86680451D01*
X137208998Y-86717417D01*
X137266810Y-86754135D01*
X137270169Y-86756052D01*
X137320496Y-86780227D01*
X137377379Y-86798282D01*
X137444473Y-86810839D01*
X137525435Y-86818522D01*
X137623918Y-86821953D01*
X137658714Y-86822251D01*
X137824406Y-86822845D01*
X137847803Y-86793100D01*
X137854743Y-86783319D01*
X137860158Y-86771897D01*
X137864235Y-86756095D01*
X137867163Y-86733175D01*
X137869133Y-86700396D01*
X137869775Y-86676089D01*
X137713156Y-86676089D01*
X137619274Y-86676089D01*
X137564336Y-86674483D01*
X137507940Y-86670255D01*
X137461655Y-86664292D01*
X137458861Y-86663790D01*
X137376652Y-86641736D01*
X137312886Y-86608600D01*
X137265548Y-86562847D01*
X137232618Y-86502939D01*
X137226892Y-86487061D01*
X137221279Y-86462333D01*
X137223709Y-86437902D01*
X137235533Y-86405400D01*
X137242660Y-86389434D01*
X137266000Y-86347006D01*
X137294120Y-86317240D01*
X137325060Y-86296511D01*
X137387034Y-86269537D01*
X137466349Y-86249998D01*
X137558747Y-86238746D01*
X137625667Y-86236270D01*
X137713156Y-86235822D01*
X137713156Y-86676089D01*
X137869775Y-86676089D01*
X137870332Y-86655021D01*
X137870950Y-86594311D01*
X137871175Y-86515526D01*
X137871200Y-86453920D01*
X137871200Y-86144485D01*
X137843491Y-86116776D01*
X137831194Y-86105544D01*
X137817897Y-86097853D01*
X137799328Y-86093040D01*
X137771214Y-86090446D01*
X137729283Y-86089410D01*
X137669263Y-86089270D01*
X137665691Y-86089275D01*
G36*
X138453657Y-86089260D02*
G01*
X138377299Y-86090174D01*
X138318783Y-86092311D01*
X138275745Y-86096175D01*
X138245817Y-86102267D01*
X138226632Y-86111090D01*
X138215824Y-86123146D01*
X138211027Y-86138939D01*
X138209873Y-86158970D01*
X138209867Y-86161335D01*
X138210869Y-86183992D01*
X138215604Y-86201503D01*
X138226667Y-86214574D01*
X138246652Y-86223913D01*
X138278154Y-86230227D01*
X138323768Y-86234222D01*
X138386087Y-86236606D01*
X138467707Y-86238086D01*
X138492723Y-86238414D01*
X138734800Y-86241467D01*
X138738186Y-86306378D01*
X138741571Y-86371289D01*
X138573424Y-86371289D01*
X138507734Y-86371531D01*
X138460828Y-86372556D01*
X138428917Y-86374811D01*
X138408209Y-86378742D01*
X138394916Y-86384798D01*
X138385245Y-86393424D01*
X138385183Y-86393493D01*
X138367644Y-86427112D01*
X138368278Y-86463448D01*
X138386686Y-86494423D01*
X138390329Y-86497607D01*
X138403259Y-86505812D01*
X138420976Y-86511521D01*
X138447430Y-86515162D01*
X138486568Y-86517167D01*
X138542338Y-86517964D01*
X138578006Y-86518045D01*
X138740445Y-86518045D01*
X138740445Y-86676089D01*
X138493839Y-86676089D01*
X138412420Y-86676231D01*
X138350590Y-86676814D01*
X138305363Y-86678068D01*
X138273752Y-86680227D01*
X138252769Y-86683523D01*
X138239427Y-86688189D01*
X138230739Y-86694457D01*
X138228550Y-86696733D01*
X138212386Y-86728280D01*
X138211203Y-86764168D01*
X138224464Y-86795285D01*
X138234957Y-86805271D01*
X138245871Y-86810769D01*
X138262783Y-86815022D01*
X138288367Y-86818180D01*
X138325299Y-86820392D01*
X138376254Y-86821806D01*
X138443906Y-86822572D01*
X138530931Y-86822838D01*
X138550606Y-86822845D01*
X138639089Y-86822787D01*
X138707773Y-86822467D01*
X138759436Y-86821667D01*
X138796855Y-86820167D01*
X138822810Y-86817749D01*
X138840078Y-86814194D01*
X138851438Y-86809282D01*
X138859668Y-86802795D01*
X138864183Y-86798138D01*
X138870979Y-86789889D01*
X138876288Y-86779669D01*
X138880294Y-86764800D01*
X138883179Y-86742602D01*
X138885126Y-86710393D01*
X138886319Y-86665496D01*
X138886939Y-86605228D01*
X138887171Y-86526911D01*
X138887200Y-86460994D01*
X138887129Y-86368628D01*
X138886792Y-86296117D01*
X138886002Y-86240737D01*
X138884574Y-86199765D01*
X138882321Y-86170478D01*
X138879057Y-86150153D01*
X138874596Y-86136066D01*
X138868752Y-86125495D01*
X138863803Y-86118811D01*
X138840406Y-86089067D01*
X138550226Y-86089067D01*
X138453657Y-86089260D01*
G37*
X138453657Y-86089260D02*
X138377299Y-86090174D01*
X138318783Y-86092311D01*
X138275745Y-86096175D01*
X138245817Y-86102267D01*
X138226632Y-86111090D01*
X138215824Y-86123146D01*
X138211027Y-86138939D01*
X138209873Y-86158970D01*
X138209867Y-86161335D01*
X138210869Y-86183992D01*
X138215604Y-86201503D01*
X138226667Y-86214574D01*
X138246652Y-86223913D01*
X138278154Y-86230227D01*
X138323768Y-86234222D01*
X138386087Y-86236606D01*
X138467707Y-86238086D01*
X138492723Y-86238414D01*
X138734800Y-86241467D01*
X138738186Y-86306378D01*
X138741571Y-86371289D01*
X138573424Y-86371289D01*
X138507734Y-86371531D01*
X138460828Y-86372556D01*
X138428917Y-86374811D01*
X138408209Y-86378742D01*
X138394916Y-86384798D01*
X138385245Y-86393424D01*
X138385183Y-86393493D01*
X138367644Y-86427112D01*
X138368278Y-86463448D01*
X138386686Y-86494423D01*
X138390329Y-86497607D01*
X138403259Y-86505812D01*
X138420976Y-86511521D01*
X138447430Y-86515162D01*
X138486568Y-86517167D01*
X138542338Y-86517964D01*
X138578006Y-86518045D01*
X138740445Y-86518045D01*
X138740445Y-86676089D01*
X138493839Y-86676089D01*
X138412420Y-86676231D01*
X138350590Y-86676814D01*
X138305363Y-86678068D01*
X138273752Y-86680227D01*
X138252769Y-86683523D01*
X138239427Y-86688189D01*
X138230739Y-86694457D01*
X138228550Y-86696733D01*
X138212386Y-86728280D01*
X138211203Y-86764168D01*
X138224464Y-86795285D01*
X138234957Y-86805271D01*
X138245871Y-86810769D01*
X138262783Y-86815022D01*
X138288367Y-86818180D01*
X138325299Y-86820392D01*
X138376254Y-86821806D01*
X138443906Y-86822572D01*
X138530931Y-86822838D01*
X138550606Y-86822845D01*
X138639089Y-86822787D01*
X138707773Y-86822467D01*
X138759436Y-86821667D01*
X138796855Y-86820167D01*
X138822810Y-86817749D01*
X138840078Y-86814194D01*
X138851438Y-86809282D01*
X138859668Y-86802795D01*
X138864183Y-86798138D01*
X138870979Y-86789889D01*
X138876288Y-86779669D01*
X138880294Y-86764800D01*
X138883179Y-86742602D01*
X138885126Y-86710393D01*
X138886319Y-86665496D01*
X138886939Y-86605228D01*
X138887171Y-86526911D01*
X138887200Y-86460994D01*
X138887129Y-86368628D01*
X138886792Y-86296117D01*
X138886002Y-86240737D01*
X138884574Y-86199765D01*
X138882321Y-86170478D01*
X138879057Y-86150153D01*
X138874596Y-86136066D01*
X138868752Y-86125495D01*
X138863803Y-86118811D01*
X138840406Y-86089067D01*
X138550226Y-86089067D01*
X138453657Y-86089260D01*
G36*
X139984114Y-86093448D02*
G01*
X139960548Y-86107273D01*
X139929735Y-86129881D01*
X139890078Y-86162338D01*
X139839980Y-86205708D01*
X139777843Y-86261058D01*
X139702072Y-86329451D01*
X139615334Y-86408084D01*
X139434711Y-86571878D01*
X139429067Y-86352029D01*
X139427029Y-86276351D01*
X139425063Y-86219994D01*
X139422734Y-86179706D01*
X139419606Y-86152235D01*
X139415245Y-86134329D01*
X139409216Y-86122737D01*
X139401084Y-86114208D01*
X139396772Y-86110623D01*
X139362241Y-86091670D01*
X139329383Y-86094441D01*
X139303318Y-86110633D01*
X139276667Y-86132199D01*
X139273352Y-86447151D01*
X139272435Y-86539779D01*
X139271968Y-86612544D01*
X139272113Y-86668161D01*
X139273032Y-86709342D01*
X139274887Y-86738803D01*
X139277839Y-86759255D01*
X139282050Y-86773413D01*
X139287682Y-86783991D01*
X139293927Y-86792474D01*
X139307439Y-86808207D01*
X139320883Y-86818636D01*
X139336124Y-86822639D01*
X139355026Y-86819094D01*
X139379455Y-86806879D01*
X139411273Y-86784871D01*
X139452348Y-86751949D01*
X139504542Y-86706991D01*
X139569722Y-86648875D01*
X139643556Y-86582099D01*
X139908845Y-86341458D01*
X139914489Y-86560589D01*
X139916531Y-86636128D01*
X139918502Y-86692354D01*
X139920839Y-86732524D01*
X139923981Y-86759896D01*
X139928364Y-86777728D01*
X139934424Y-86789279D01*
X139942600Y-86797807D01*
X139946784Y-86801282D01*
X139983765Y-86820372D01*
X140018708Y-86817493D01*
X140049136Y-86793100D01*
X140056097Y-86783286D01*
X140061523Y-86771826D01*
X140065603Y-86755968D01*
X140068529Y-86732963D01*
X140070492Y-86700062D01*
X140071683Y-86654516D01*
X140072292Y-86593573D01*
X140072511Y-86514486D01*
X140072534Y-86455956D01*
X140072460Y-86364407D01*
X140072113Y-86292687D01*
X140071301Y-86238045D01*
X140069833Y-86197732D01*
X140067519Y-86168998D01*
X140064167Y-86149093D01*
X140059588Y-86135268D01*
X140053589Y-86124772D01*
X140049136Y-86118811D01*
X140037850Y-86104691D01*
X140027301Y-86094029D01*
X140015893Y-86087892D01*
X140002030Y-86087343D01*
X139984114Y-86093448D01*
G37*
X139984114Y-86093448D02*
X139960548Y-86107273D01*
X139929735Y-86129881D01*
X139890078Y-86162338D01*
X139839980Y-86205708D01*
X139777843Y-86261058D01*
X139702072Y-86329451D01*
X139615334Y-86408084D01*
X139434711Y-86571878D01*
X139429067Y-86352029D01*
X139427029Y-86276351D01*
X139425063Y-86219994D01*
X139422734Y-86179706D01*
X139419606Y-86152235D01*
X139415245Y-86134329D01*
X139409216Y-86122737D01*
X139401084Y-86114208D01*
X139396772Y-86110623D01*
X139362241Y-86091670D01*
X139329383Y-86094441D01*
X139303318Y-86110633D01*
X139276667Y-86132199D01*
X139273352Y-86447151D01*
X139272435Y-86539779D01*
X139271968Y-86612544D01*
X139272113Y-86668161D01*
X139273032Y-86709342D01*
X139274887Y-86738803D01*
X139277839Y-86759255D01*
X139282050Y-86773413D01*
X139287682Y-86783991D01*
X139293927Y-86792474D01*
X139307439Y-86808207D01*
X139320883Y-86818636D01*
X139336124Y-86822639D01*
X139355026Y-86819094D01*
X139379455Y-86806879D01*
X139411273Y-86784871D01*
X139452348Y-86751949D01*
X139504542Y-86706991D01*
X139569722Y-86648875D01*
X139643556Y-86582099D01*
X139908845Y-86341458D01*
X139914489Y-86560589D01*
X139916531Y-86636128D01*
X139918502Y-86692354D01*
X139920839Y-86732524D01*
X139923981Y-86759896D01*
X139928364Y-86777728D01*
X139934424Y-86789279D01*
X139942600Y-86797807D01*
X139946784Y-86801282D01*
X139983765Y-86820372D01*
X140018708Y-86817493D01*
X140049136Y-86793100D01*
X140056097Y-86783286D01*
X140061523Y-86771826D01*
X140065603Y-86755968D01*
X140068529Y-86732963D01*
X140070492Y-86700062D01*
X140071683Y-86654516D01*
X140072292Y-86593573D01*
X140072511Y-86514486D01*
X140072534Y-86455956D01*
X140072460Y-86364407D01*
X140072113Y-86292687D01*
X140071301Y-86238045D01*
X140069833Y-86197732D01*
X140067519Y-86168998D01*
X140064167Y-86149093D01*
X140059588Y-86135268D01*
X140053589Y-86124772D01*
X140049136Y-86118811D01*
X140037850Y-86104691D01*
X140027301Y-86094029D01*
X140015893Y-86087892D01*
X140002030Y-86087343D01*
X139984114Y-86093448D01*
G36*
X140634081Y-86094599D02*
G01*
X140565565Y-86106095D01*
X140512943Y-86123967D01*
X140478708Y-86147499D01*
X140469379Y-86160924D01*
X140459893Y-86192148D01*
X140466277Y-86220395D01*
X140486430Y-86247182D01*
X140517745Y-86259713D01*
X140563183Y-86258696D01*
X140598326Y-86251906D01*
X140676419Y-86238971D01*
X140756226Y-86237742D01*
X140845555Y-86248241D01*
X140870229Y-86252690D01*
X140953291Y-86276108D01*
X141018273Y-86310945D01*
X141064461Y-86356604D01*
X141091145Y-86412494D01*
X141096663Y-86441388D01*
X141093051Y-86500012D01*
X141069729Y-86551879D01*
X141028824Y-86595978D01*
X140972459Y-86631299D01*
X140902760Y-86656829D01*
X140821852Y-86671559D01*
X140731860Y-86674478D01*
X140634910Y-86664575D01*
X140629436Y-86663641D01*
X140590875Y-86656459D01*
X140569494Y-86649521D01*
X140560227Y-86639227D01*
X140558006Y-86621976D01*
X140557956Y-86612841D01*
X140557956Y-86574489D01*
X140626431Y-86574489D01*
X140686900Y-86570347D01*
X140728165Y-86557147D01*
X140752175Y-86533730D01*
X140760877Y-86498936D01*
X140760983Y-86494394D01*
X140755892Y-86464654D01*
X140738433Y-86443419D01*
X140705939Y-86429366D01*
X140655743Y-86421173D01*
X140607123Y-86418161D01*
X140536456Y-86416433D01*
X140485198Y-86419070D01*
X140450239Y-86428800D01*
X140428470Y-86448353D01*
X140416780Y-86480456D01*
X140412060Y-86527838D01*
X140411200Y-86590071D01*
X140412609Y-86659535D01*
X140416848Y-86706786D01*
X140423936Y-86732012D01*
X140425311Y-86733988D01*
X140464228Y-86765508D01*
X140521286Y-86790470D01*
X140592869Y-86808340D01*
X140675358Y-86818586D01*
X140765139Y-86820673D01*
X140858592Y-86814068D01*
X140913556Y-86805956D01*
X140999766Y-86781554D01*
X141079892Y-86741662D01*
X141146977Y-86689887D01*
X141157173Y-86679539D01*
X141190302Y-86636035D01*
X141220194Y-86582118D01*
X141243357Y-86525592D01*
X141256298Y-86474259D01*
X141257858Y-86454544D01*
X141251218Y-86413419D01*
X141233568Y-86362252D01*
X141208297Y-86308394D01*
X141178789Y-86259195D01*
X141152719Y-86226334D01*
X141091765Y-86177452D01*
X141012969Y-86138545D01*
X140919157Y-86110494D01*
X140813150Y-86094179D01*
X140716000Y-86090192D01*
X140634081Y-86094599D01*
G37*
X140634081Y-86094599D02*
X140565565Y-86106095D01*
X140512943Y-86123967D01*
X140478708Y-86147499D01*
X140469379Y-86160924D01*
X140459893Y-86192148D01*
X140466277Y-86220395D01*
X140486430Y-86247182D01*
X140517745Y-86259713D01*
X140563183Y-86258696D01*
X140598326Y-86251906D01*
X140676419Y-86238971D01*
X140756226Y-86237742D01*
X140845555Y-86248241D01*
X140870229Y-86252690D01*
X140953291Y-86276108D01*
X141018273Y-86310945D01*
X141064461Y-86356604D01*
X141091145Y-86412494D01*
X141096663Y-86441388D01*
X141093051Y-86500012D01*
X141069729Y-86551879D01*
X141028824Y-86595978D01*
X140972459Y-86631299D01*
X140902760Y-86656829D01*
X140821852Y-86671559D01*
X140731860Y-86674478D01*
X140634910Y-86664575D01*
X140629436Y-86663641D01*
X140590875Y-86656459D01*
X140569494Y-86649521D01*
X140560227Y-86639227D01*
X140558006Y-86621976D01*
X140557956Y-86612841D01*
X140557956Y-86574489D01*
X140626431Y-86574489D01*
X140686900Y-86570347D01*
X140728165Y-86557147D01*
X140752175Y-86533730D01*
X140760877Y-86498936D01*
X140760983Y-86494394D01*
X140755892Y-86464654D01*
X140738433Y-86443419D01*
X140705939Y-86429366D01*
X140655743Y-86421173D01*
X140607123Y-86418161D01*
X140536456Y-86416433D01*
X140485198Y-86419070D01*
X140450239Y-86428800D01*
X140428470Y-86448353D01*
X140416780Y-86480456D01*
X140412060Y-86527838D01*
X140411200Y-86590071D01*
X140412609Y-86659535D01*
X140416848Y-86706786D01*
X140423936Y-86732012D01*
X140425311Y-86733988D01*
X140464228Y-86765508D01*
X140521286Y-86790470D01*
X140592869Y-86808340D01*
X140675358Y-86818586D01*
X140765139Y-86820673D01*
X140858592Y-86814068D01*
X140913556Y-86805956D01*
X140999766Y-86781554D01*
X141079892Y-86741662D01*
X141146977Y-86689887D01*
X141157173Y-86679539D01*
X141190302Y-86636035D01*
X141220194Y-86582118D01*
X141243357Y-86525592D01*
X141256298Y-86474259D01*
X141257858Y-86454544D01*
X141251218Y-86413419D01*
X141233568Y-86362252D01*
X141208297Y-86308394D01*
X141178789Y-86259195D01*
X141152719Y-86226334D01*
X141091765Y-86177452D01*
X141012969Y-86138545D01*
X140919157Y-86110494D01*
X140813150Y-86094179D01*
X140716000Y-86090192D01*
X140634081Y-86094599D01*
G36*
X141607822Y-86111645D02*
G01*
X141601242Y-86119218D01*
X141596079Y-86128987D01*
X141592164Y-86143571D01*
X141589324Y-86165585D01*
X141587387Y-86197648D01*
X141586183Y-86242375D01*
X141585539Y-86302385D01*
X141585284Y-86380294D01*
X141585245Y-86455956D01*
X141585314Y-86549802D01*
X141585638Y-86623689D01*
X141586386Y-86680232D01*
X141587732Y-86722049D01*
X141589846Y-86751757D01*
X141592900Y-86771973D01*
X141597066Y-86785314D01*
X141602516Y-86794398D01*
X141607822Y-86800267D01*
X141640826Y-86819947D01*
X141675991Y-86818181D01*
X141707455Y-86796717D01*
X141714684Y-86788337D01*
X141720334Y-86778614D01*
X141724599Y-86764861D01*
X141727673Y-86744389D01*
X141729752Y-86714512D01*
X141731030Y-86672541D01*
X141731701Y-86615789D01*
X141731959Y-86541567D01*
X141732000Y-86457537D01*
X141732000Y-86144485D01*
X141704291Y-86116776D01*
X141670137Y-86093463D01*
X141637006Y-86092623D01*
X141607822Y-86111645D01*
G37*
X141607822Y-86111645D02*
X141601242Y-86119218D01*
X141596079Y-86128987D01*
X141592164Y-86143571D01*
X141589324Y-86165585D01*
X141587387Y-86197648D01*
X141586183Y-86242375D01*
X141585539Y-86302385D01*
X141585284Y-86380294D01*
X141585245Y-86455956D01*
X141585314Y-86549802D01*
X141585638Y-86623689D01*
X141586386Y-86680232D01*
X141587732Y-86722049D01*
X141589846Y-86751757D01*
X141592900Y-86771973D01*
X141597066Y-86785314D01*
X141602516Y-86794398D01*
X141607822Y-86800267D01*
X141640826Y-86819947D01*
X141675991Y-86818181D01*
X141707455Y-86796717D01*
X141714684Y-86788337D01*
X141720334Y-86778614D01*
X141724599Y-86764861D01*
X141727673Y-86744389D01*
X141729752Y-86714512D01*
X141731030Y-86672541D01*
X141731701Y-86615789D01*
X141731959Y-86541567D01*
X141732000Y-86457537D01*
X141732000Y-86144485D01*
X141704291Y-86116776D01*
X141670137Y-86093463D01*
X141637006Y-86092623D01*
X141607822Y-86111645D01*
G36*
X142375703Y-86090351D02*
G01*
X142300888Y-86095581D01*
X142231306Y-86103750D01*
X142171002Y-86114550D01*
X142124020Y-86127673D01*
X142094406Y-86142813D01*
X142089860Y-86147269D01*
X142074054Y-86181850D01*
X142078847Y-86217351D01*
X142103364Y-86247725D01*
X142104534Y-86248596D01*
X142118954Y-86257954D01*
X142134008Y-86262876D01*
X142155005Y-86263473D01*
X142187257Y-86259861D01*
X142236073Y-86252154D01*
X142240000Y-86251505D01*
X142312739Y-86242569D01*
X142391217Y-86238161D01*
X142469927Y-86238119D01*
X142543361Y-86242279D01*
X142606011Y-86250479D01*
X142652370Y-86262557D01*
X142655416Y-86263771D01*
X142689048Y-86282615D01*
X142700864Y-86301685D01*
X142691614Y-86320439D01*
X142662047Y-86338337D01*
X142612911Y-86354837D01*
X142544957Y-86369396D01*
X142499645Y-86376406D01*
X142405456Y-86389889D01*
X142330544Y-86402214D01*
X142271717Y-86414449D01*
X142225785Y-86427661D01*
X142189555Y-86442917D01*
X142159838Y-86461285D01*
X142133442Y-86483831D01*
X142112230Y-86505971D01*
X142087065Y-86536819D01*
X142074681Y-86563345D01*
X142070808Y-86596026D01*
X142070667Y-86607995D01*
X142073576Y-86647712D01*
X142085202Y-86677259D01*
X142105323Y-86703486D01*
X142146216Y-86743576D01*
X142191817Y-86774149D01*
X142245513Y-86796203D01*
X142310692Y-86810735D01*
X142390744Y-86818741D01*
X142489057Y-86821218D01*
X142505289Y-86821177D01*
X142570849Y-86819818D01*
X142635866Y-86816730D01*
X142693252Y-86812356D01*
X142735922Y-86807140D01*
X142739372Y-86806541D01*
X142781796Y-86796491D01*
X142817780Y-86783796D01*
X142838150Y-86772190D01*
X142857107Y-86741572D01*
X142858427Y-86705918D01*
X142842085Y-86674144D01*
X142838429Y-86670551D01*
X142823315Y-86659876D01*
X142804415Y-86655276D01*
X142775162Y-86656059D01*
X142739651Y-86660127D01*
X142699970Y-86663762D01*
X142644345Y-86666828D01*
X142579406Y-86669053D01*
X142511785Y-86670164D01*
X142494000Y-86670237D01*
X142426128Y-86669964D01*
X142376454Y-86668646D01*
X142340610Y-86665827D01*
X142314224Y-86661050D01*
X142292926Y-86653857D01*
X142280126Y-86647867D01*
X142252000Y-86631233D01*
X142234068Y-86616168D01*
X142231447Y-86611897D01*
X142236976Y-86594263D01*
X142263260Y-86577192D01*
X142308478Y-86561458D01*
X142370808Y-86547838D01*
X142389171Y-86544804D01*
X142485090Y-86529738D01*
X142561641Y-86517146D01*
X142621780Y-86506111D01*
X142668460Y-86495720D01*
X142704637Y-86485056D01*
X142733265Y-86473205D01*
X142757298Y-86459251D01*
X142779692Y-86442281D01*
X142803402Y-86421378D01*
X142811380Y-86414049D01*
X142839353Y-86386699D01*
X142854160Y-86365029D01*
X142859952Y-86340232D01*
X142860889Y-86308983D01*
X142850575Y-86247705D01*
X142819752Y-86195640D01*
X142768595Y-86152958D01*
X142697283Y-86119825D01*
X142646400Y-86104964D01*
X142591100Y-86095366D01*
X142524853Y-86089936D01*
X142451706Y-86088367D01*
X142375703Y-86090351D01*
G37*
X142375703Y-86090351D02*
X142300888Y-86095581D01*
X142231306Y-86103750D01*
X142171002Y-86114550D01*
X142124020Y-86127673D01*
X142094406Y-86142813D01*
X142089860Y-86147269D01*
X142074054Y-86181850D01*
X142078847Y-86217351D01*
X142103364Y-86247725D01*
X142104534Y-86248596D01*
X142118954Y-86257954D01*
X142134008Y-86262876D01*
X142155005Y-86263473D01*
X142187257Y-86259861D01*
X142236073Y-86252154D01*
X142240000Y-86251505D01*
X142312739Y-86242569D01*
X142391217Y-86238161D01*
X142469927Y-86238119D01*
X142543361Y-86242279D01*
X142606011Y-86250479D01*
X142652370Y-86262557D01*
X142655416Y-86263771D01*
X142689048Y-86282615D01*
X142700864Y-86301685D01*
X142691614Y-86320439D01*
X142662047Y-86338337D01*
X142612911Y-86354837D01*
X142544957Y-86369396D01*
X142499645Y-86376406D01*
X142405456Y-86389889D01*
X142330544Y-86402214D01*
X142271717Y-86414449D01*
X142225785Y-86427661D01*
X142189555Y-86442917D01*
X142159838Y-86461285D01*
X142133442Y-86483831D01*
X142112230Y-86505971D01*
X142087065Y-86536819D01*
X142074681Y-86563345D01*
X142070808Y-86596026D01*
X142070667Y-86607995D01*
X142073576Y-86647712D01*
X142085202Y-86677259D01*
X142105323Y-86703486D01*
X142146216Y-86743576D01*
X142191817Y-86774149D01*
X142245513Y-86796203D01*
X142310692Y-86810735D01*
X142390744Y-86818741D01*
X142489057Y-86821218D01*
X142505289Y-86821177D01*
X142570849Y-86819818D01*
X142635866Y-86816730D01*
X142693252Y-86812356D01*
X142735922Y-86807140D01*
X142739372Y-86806541D01*
X142781796Y-86796491D01*
X142817780Y-86783796D01*
X142838150Y-86772190D01*
X142857107Y-86741572D01*
X142858427Y-86705918D01*
X142842085Y-86674144D01*
X142838429Y-86670551D01*
X142823315Y-86659876D01*
X142804415Y-86655276D01*
X142775162Y-86656059D01*
X142739651Y-86660127D01*
X142699970Y-86663762D01*
X142644345Y-86666828D01*
X142579406Y-86669053D01*
X142511785Y-86670164D01*
X142494000Y-86670237D01*
X142426128Y-86669964D01*
X142376454Y-86668646D01*
X142340610Y-86665827D01*
X142314224Y-86661050D01*
X142292926Y-86653857D01*
X142280126Y-86647867D01*
X142252000Y-86631233D01*
X142234068Y-86616168D01*
X142231447Y-86611897D01*
X142236976Y-86594263D01*
X142263260Y-86577192D01*
X142308478Y-86561458D01*
X142370808Y-86547838D01*
X142389171Y-86544804D01*
X142485090Y-86529738D01*
X142561641Y-86517146D01*
X142621780Y-86506111D01*
X142668460Y-86495720D01*
X142704637Y-86485056D01*
X142733265Y-86473205D01*
X142757298Y-86459251D01*
X142779692Y-86442281D01*
X142803402Y-86421378D01*
X142811380Y-86414049D01*
X142839353Y-86386699D01*
X142854160Y-86365029D01*
X142859952Y-86340232D01*
X142860889Y-86308983D01*
X142850575Y-86247705D01*
X142819752Y-86195640D01*
X142768595Y-86152958D01*
X142697283Y-86119825D01*
X142646400Y-86104964D01*
X142591100Y-86095366D01*
X142524853Y-86089936D01*
X142451706Y-86088367D01*
X142375703Y-86090351D01*
G36*
X143396794Y-86089146D02*
G01*
X143327386Y-86089518D01*
X143274997Y-86090385D01*
X143236847Y-86091946D01*
X143210159Y-86094403D01*
X143192153Y-86097957D01*
X143180049Y-86102810D01*
X143171069Y-86109161D01*
X143167818Y-86112084D01*
X143148043Y-86143142D01*
X143144482Y-86178828D01*
X143157491Y-86210510D01*
X143163506Y-86216913D01*
X143173235Y-86223121D01*
X143188901Y-86227910D01*
X143213408Y-86231514D01*
X143249661Y-86234164D01*
X143300565Y-86236095D01*
X143369026Y-86237539D01*
X143431617Y-86238418D01*
X143679334Y-86241467D01*
X143682719Y-86306378D01*
X143686105Y-86371289D01*
X143517958Y-86371289D01*
X143444959Y-86371919D01*
X143391517Y-86374553D01*
X143354628Y-86380309D01*
X143331288Y-86390304D01*
X143318494Y-86405656D01*
X143313242Y-86427482D01*
X143312445Y-86447738D01*
X143314923Y-86472592D01*
X143324277Y-86490906D01*
X143343383Y-86503637D01*
X143375118Y-86511741D01*
X143422359Y-86516176D01*
X143487983Y-86517899D01*
X143523801Y-86518045D01*
X143684978Y-86518045D01*
X143684978Y-86676089D01*
X143436622Y-86676089D01*
X143355213Y-86676202D01*
X143293342Y-86676712D01*
X143247968Y-86677870D01*
X143216054Y-86679930D01*
X143194559Y-86683146D01*
X143180443Y-86687772D01*
X143170668Y-86694059D01*
X143165689Y-86698667D01*
X143148610Y-86725560D01*
X143143111Y-86749467D01*
X143150963Y-86778667D01*
X143165689Y-86800267D01*
X143173546Y-86807066D01*
X143183688Y-86812346D01*
X143198844Y-86816298D01*
X143221741Y-86819113D01*
X143255109Y-86820982D01*
X143301675Y-86822098D01*
X143364167Y-86822651D01*
X143445314Y-86822833D01*
X143487422Y-86822845D01*
X143577598Y-86822765D01*
X143647924Y-86822398D01*
X143701129Y-86821552D01*
X143739940Y-86820036D01*
X143767087Y-86817659D01*
X143785298Y-86814229D01*
X143797300Y-86809554D01*
X143805822Y-86803444D01*
X143809156Y-86800267D01*
X143815755Y-86792670D01*
X143820927Y-86782870D01*
X143824846Y-86768239D01*
X143827684Y-86746152D01*
X143829615Y-86713982D01*
X143830812Y-86669103D01*
X143831448Y-86608889D01*
X143831697Y-86530713D01*
X143831734Y-86457923D01*
X143831700Y-86364707D01*
X143831465Y-86291431D01*
X143830830Y-86235458D01*
X143829594Y-86194151D01*
X143827556Y-86164872D01*
X143824517Y-86144984D01*
X143820277Y-86131850D01*
X143814635Y-86122832D01*
X143807391Y-86115293D01*
X143805606Y-86113612D01*
X143796945Y-86106172D01*
X143786882Y-86100409D01*
X143772625Y-86096112D01*
X143751383Y-86093064D01*
X143720364Y-86091051D01*
X143676777Y-86089860D01*
X143617831Y-86089275D01*
X143540734Y-86089083D01*
X143486001Y-86089067D01*
X143396794Y-86089146D01*
G37*
X143396794Y-86089146D02*
X143327386Y-86089518D01*
X143274997Y-86090385D01*
X143236847Y-86091946D01*
X143210159Y-86094403D01*
X143192153Y-86097957D01*
X143180049Y-86102810D01*
X143171069Y-86109161D01*
X143167818Y-86112084D01*
X143148043Y-86143142D01*
X143144482Y-86178828D01*
X143157491Y-86210510D01*
X143163506Y-86216913D01*
X143173235Y-86223121D01*
X143188901Y-86227910D01*
X143213408Y-86231514D01*
X143249661Y-86234164D01*
X143300565Y-86236095D01*
X143369026Y-86237539D01*
X143431617Y-86238418D01*
X143679334Y-86241467D01*
X143682719Y-86306378D01*
X143686105Y-86371289D01*
X143517958Y-86371289D01*
X143444959Y-86371919D01*
X143391517Y-86374553D01*
X143354628Y-86380309D01*
X143331288Y-86390304D01*
X143318494Y-86405656D01*
X143313242Y-86427482D01*
X143312445Y-86447738D01*
X143314923Y-86472592D01*
X143324277Y-86490906D01*
X143343383Y-86503637D01*
X143375118Y-86511741D01*
X143422359Y-86516176D01*
X143487983Y-86517899D01*
X143523801Y-86518045D01*
X143684978Y-86518045D01*
X143684978Y-86676089D01*
X143436622Y-86676089D01*
X143355213Y-86676202D01*
X143293342Y-86676712D01*
X143247968Y-86677870D01*
X143216054Y-86679930D01*
X143194559Y-86683146D01*
X143180443Y-86687772D01*
X143170668Y-86694059D01*
X143165689Y-86698667D01*
X143148610Y-86725560D01*
X143143111Y-86749467D01*
X143150963Y-86778667D01*
X143165689Y-86800267D01*
X143173546Y-86807066D01*
X143183688Y-86812346D01*
X143198844Y-86816298D01*
X143221741Y-86819113D01*
X143255109Y-86820982D01*
X143301675Y-86822098D01*
X143364167Y-86822651D01*
X143445314Y-86822833D01*
X143487422Y-86822845D01*
X143577598Y-86822765D01*
X143647924Y-86822398D01*
X143701129Y-86821552D01*
X143739940Y-86820036D01*
X143767087Y-86817659D01*
X143785298Y-86814229D01*
X143797300Y-86809554D01*
X143805822Y-86803444D01*
X143809156Y-86800267D01*
X143815755Y-86792670D01*
X143820927Y-86782870D01*
X143824846Y-86768239D01*
X143827684Y-86746152D01*
X143829615Y-86713982D01*
X143830812Y-86669103D01*
X143831448Y-86608889D01*
X143831697Y-86530713D01*
X143831734Y-86457923D01*
X143831700Y-86364707D01*
X143831465Y-86291431D01*
X143830830Y-86235458D01*
X143829594Y-86194151D01*
X143827556Y-86164872D01*
X143824517Y-86144984D01*
X143820277Y-86131850D01*
X143814635Y-86122832D01*
X143807391Y-86115293D01*
X143805606Y-86113612D01*
X143796945Y-86106172D01*
X143786882Y-86100409D01*
X143772625Y-86096112D01*
X143751383Y-86093064D01*
X143720364Y-86091051D01*
X143676777Y-86089860D01*
X143617831Y-86089275D01*
X143540734Y-86089083D01*
X143486001Y-86089067D01*
X143396794Y-86089146D01*
G36*
X144805371Y-86089066D02*
G01*
X144765889Y-86089467D01*
X144650200Y-86092259D01*
X144553311Y-86100550D01*
X144471919Y-86115232D01*
X144402723Y-86137193D01*
X144342420Y-86167322D01*
X144287708Y-86206510D01*
X144268167Y-86223532D01*
X144235750Y-86263363D01*
X144206520Y-86317413D01*
X144183991Y-86377323D01*
X144171679Y-86434739D01*
X144170400Y-86455956D01*
X144178417Y-86514769D01*
X144199899Y-86579013D01*
X144230999Y-86639821D01*
X144267866Y-86688330D01*
X144273854Y-86694182D01*
X144324579Y-86735321D01*
X144380125Y-86767435D01*
X144443696Y-86791365D01*
X144518494Y-86807953D01*
X144607722Y-86818041D01*
X144714582Y-86822469D01*
X144763528Y-86822845D01*
X144825762Y-86822545D01*
X144869528Y-86821292D01*
X144898931Y-86818554D01*
X144918079Y-86813801D01*
X144931077Y-86806501D01*
X144938045Y-86800267D01*
X144944626Y-86792694D01*
X144949788Y-86782924D01*
X144953703Y-86768340D01*
X144956543Y-86746326D01*
X144958480Y-86714264D01*
X144959684Y-86669536D01*
X144960328Y-86609526D01*
X144960583Y-86531617D01*
X144960622Y-86455956D01*
X144960870Y-86355041D01*
X144960817Y-86274427D01*
X144959857Y-86235822D01*
X144813867Y-86235822D01*
X144813867Y-86676089D01*
X144720734Y-86676004D01*
X144664693Y-86674396D01*
X144605999Y-86670256D01*
X144557028Y-86664464D01*
X144555538Y-86664226D01*
X144476392Y-86645090D01*
X144415002Y-86615287D01*
X144368305Y-86572878D01*
X144338635Y-86526961D01*
X144320353Y-86476026D01*
X144321771Y-86428200D01*
X144342988Y-86376933D01*
X144384489Y-86323899D01*
X144441998Y-86284600D01*
X144516750Y-86258331D01*
X144566708Y-86249035D01*
X144623416Y-86242507D01*
X144683519Y-86237782D01*
X144734639Y-86235817D01*
X144737667Y-86235808D01*
X144813867Y-86235822D01*
X144959857Y-86235822D01*
X144959260Y-86211851D01*
X144954998Y-86165055D01*
X144946830Y-86131778D01*
X144933556Y-86109759D01*
X144913974Y-86096739D01*
X144886883Y-86090457D01*
X144851082Y-86088653D01*
X144805371Y-86089066D01*
G37*
X144805371Y-86089066D02*
X144765889Y-86089467D01*
X144650200Y-86092259D01*
X144553311Y-86100550D01*
X144471919Y-86115232D01*
X144402723Y-86137193D01*
X144342420Y-86167322D01*
X144287708Y-86206510D01*
X144268167Y-86223532D01*
X144235750Y-86263363D01*
X144206520Y-86317413D01*
X144183991Y-86377323D01*
X144171679Y-86434739D01*
X144170400Y-86455956D01*
X144178417Y-86514769D01*
X144199899Y-86579013D01*
X144230999Y-86639821D01*
X144267866Y-86688330D01*
X144273854Y-86694182D01*
X144324579Y-86735321D01*
X144380125Y-86767435D01*
X144443696Y-86791365D01*
X144518494Y-86807953D01*
X144607722Y-86818041D01*
X144714582Y-86822469D01*
X144763528Y-86822845D01*
X144825762Y-86822545D01*
X144869528Y-86821292D01*
X144898931Y-86818554D01*
X144918079Y-86813801D01*
X144931077Y-86806501D01*
X144938045Y-86800267D01*
X144944626Y-86792694D01*
X144949788Y-86782924D01*
X144953703Y-86768340D01*
X144956543Y-86746326D01*
X144958480Y-86714264D01*
X144959684Y-86669536D01*
X144960328Y-86609526D01*
X144960583Y-86531617D01*
X144960622Y-86455956D01*
X144960870Y-86355041D01*
X144960817Y-86274427D01*
X144959857Y-86235822D01*
X144813867Y-86235822D01*
X144813867Y-86676089D01*
X144720734Y-86676004D01*
X144664693Y-86674396D01*
X144605999Y-86670256D01*
X144557028Y-86664464D01*
X144555538Y-86664226D01*
X144476392Y-86645090D01*
X144415002Y-86615287D01*
X144368305Y-86572878D01*
X144338635Y-86526961D01*
X144320353Y-86476026D01*
X144321771Y-86428200D01*
X144342988Y-86376933D01*
X144384489Y-86323899D01*
X144441998Y-86284600D01*
X144516750Y-86258331D01*
X144566708Y-86249035D01*
X144623416Y-86242507D01*
X144683519Y-86237782D01*
X144734639Y-86235817D01*
X144737667Y-86235808D01*
X144813867Y-86235822D01*
X144959857Y-86235822D01*
X144959260Y-86211851D01*
X144954998Y-86165055D01*
X144946830Y-86131778D01*
X144933556Y-86109759D01*
X144913974Y-86096739D01*
X144886883Y-86090457D01*
X144851082Y-86088653D01*
X144805371Y-86089066D01*
G36*
X140957043Y-80846571D02*
G01*
X140860768Y-80870809D01*
X140774184Y-80913641D01*
X140699373Y-80973419D01*
X140638418Y-81048494D01*
X140593399Y-81137220D01*
X140567136Y-81233530D01*
X140561286Y-81330795D01*
X140576140Y-81424654D01*
X140609840Y-81512511D01*
X140660528Y-81591770D01*
X140726345Y-81659836D01*
X140805434Y-81714112D01*
X140895934Y-81752002D01*
X140947200Y-81764426D01*
X140991698Y-81771947D01*
X141025999Y-81774919D01*
X141058960Y-81773094D01*
X141099434Y-81766225D01*
X141132531Y-81759250D01*
X141225947Y-81727741D01*
X141309619Y-81676617D01*
X141381665Y-81607429D01*
X141440200Y-81521728D01*
X141454148Y-81494489D01*
X141470586Y-81458122D01*
X141480894Y-81427582D01*
X141486460Y-81395450D01*
X141488669Y-81354307D01*
X141488948Y-81308222D01*
X141484861Y-81223865D01*
X141471446Y-81154586D01*
X141446256Y-81093961D01*
X141406846Y-81035567D01*
X141368298Y-80991302D01*
X141296406Y-80925484D01*
X141221313Y-80880053D01*
X141138562Y-80852850D01*
X141060928Y-80842576D01*
X140957043Y-80846571D01*
G37*
X140957043Y-80846571D02*
X140860768Y-80870809D01*
X140774184Y-80913641D01*
X140699373Y-80973419D01*
X140638418Y-81048494D01*
X140593399Y-81137220D01*
X140567136Y-81233530D01*
X140561286Y-81330795D01*
X140576140Y-81424654D01*
X140609840Y-81512511D01*
X140660528Y-81591770D01*
X140726345Y-81659836D01*
X140805434Y-81714112D01*
X140895934Y-81752002D01*
X140947200Y-81764426D01*
X140991698Y-81771947D01*
X141025999Y-81774919D01*
X141058960Y-81773094D01*
X141099434Y-81766225D01*
X141132531Y-81759250D01*
X141225947Y-81727741D01*
X141309619Y-81676617D01*
X141381665Y-81607429D01*
X141440200Y-81521728D01*
X141454148Y-81494489D01*
X141470586Y-81458122D01*
X141480894Y-81427582D01*
X141486460Y-81395450D01*
X141488669Y-81354307D01*
X141488948Y-81308222D01*
X141484861Y-81223865D01*
X141471446Y-81154586D01*
X141446256Y-81093961D01*
X141406846Y-81035567D01*
X141368298Y-80991302D01*
X141296406Y-80925484D01*
X141221313Y-80880053D01*
X141138562Y-80852850D01*
X141060928Y-80842576D01*
X140957043Y-80846571D01*
G36*
X132497493Y-83292245D02*
G01*
X132497474Y-83526662D01*
X132497448Y-83739603D01*
X132497375Y-83932168D01*
X132497218Y-84105459D01*
X132496936Y-84260576D01*
X132496491Y-84398620D01*
X132495844Y-84520692D01*
X132494955Y-84627894D01*
X132493787Y-84721326D01*
X132492299Y-84802090D01*
X132490454Y-84871286D01*
X132488211Y-84930015D01*
X132485531Y-84979379D01*
X132482377Y-85020478D01*
X132478708Y-85054413D01*
X132474487Y-85082286D01*
X132469673Y-85105198D01*
X132464227Y-85124249D01*
X132458112Y-85140540D01*
X132451288Y-85155173D01*
X132443715Y-85169249D01*
X132435355Y-85183868D01*
X132430161Y-85192974D01*
X132395896Y-85253689D01*
X133254045Y-85253689D01*
X133254045Y-85157733D01*
X133254776Y-85114370D01*
X133256728Y-85081205D01*
X133259537Y-85063424D01*
X133260779Y-85061778D01*
X133272201Y-85068662D01*
X133294916Y-85086505D01*
X133317615Y-85105879D01*
X133372200Y-85146614D01*
X133441679Y-85187617D01*
X133518730Y-85225123D01*
X133596035Y-85255364D01*
X133626887Y-85265012D01*
X133695384Y-85279578D01*
X133778236Y-85289539D01*
X133867629Y-85294583D01*
X133955752Y-85294396D01*
X134034793Y-85288666D01*
X134072489Y-85282858D01*
X134210586Y-85244797D01*
X134337887Y-85187073D01*
X134453708Y-85110211D01*
X134557363Y-85014739D01*
X134648167Y-84901179D01*
X134714969Y-84790381D01*
X134769836Y-84673625D01*
X134811837Y-84554276D01*
X134841833Y-84428283D01*
X134860689Y-84291594D01*
X134869268Y-84140158D01*
X134869994Y-84062711D01*
X134867900Y-84005934D01*
X134038783Y-84005934D01*
X134038576Y-84099002D01*
X134035663Y-84186692D01*
X134030000Y-84263772D01*
X134021545Y-84325009D01*
X134018962Y-84337350D01*
X133987160Y-84444633D01*
X133945502Y-84531658D01*
X133893637Y-84598642D01*
X133831219Y-84645805D01*
X133757900Y-84673365D01*
X133673331Y-84681541D01*
X133577165Y-84670551D01*
X133513689Y-84654829D01*
X133464546Y-84636639D01*
X133410417Y-84610791D01*
X133369756Y-84587089D01*
X133299200Y-84540721D01*
X133299200Y-83390530D01*
X133366608Y-83346962D01*
X133445133Y-83306040D01*
X133529319Y-83279389D01*
X133614443Y-83267465D01*
X133695784Y-83270722D01*
X133768620Y-83289615D01*
X133800574Y-83305184D01*
X133858499Y-83348181D01*
X133907456Y-83404953D01*
X133948610Y-83477575D01*
X133983126Y-83568121D01*
X134012167Y-83678666D01*
X134013448Y-83684533D01*
X134023619Y-83746788D01*
X134031261Y-83824594D01*
X134036330Y-83912720D01*
X134038783Y-84005934D01*
X134867900Y-84005934D01*
X134862143Y-83849895D01*
X134840198Y-83654059D01*
X134804214Y-83475332D01*
X134754241Y-83313845D01*
X134690332Y-83169726D01*
X134612538Y-83043106D01*
X134520911Y-82934115D01*
X134415503Y-82842883D01*
X134370338Y-82811932D01*
X134269389Y-82755785D01*
X134166099Y-82716174D01*
X134056011Y-82692014D01*
X133934670Y-82682219D01*
X133842164Y-82683265D01*
X133712510Y-82694231D01*
X133599916Y-82716046D01*
X133501125Y-82749714D01*
X133412879Y-82796236D01*
X133364014Y-82830448D01*
X133334647Y-82852362D01*
X133312957Y-82867333D01*
X133304747Y-82871733D01*
X133303132Y-82860904D01*
X133301841Y-82830251D01*
X133300862Y-82782526D01*
X133300183Y-82720479D01*
X133299790Y-82646862D01*
X133299670Y-82564427D01*
X133299812Y-82475925D01*
X133300203Y-82384107D01*
X133300829Y-82291724D01*
X133301680Y-82201528D01*
X133302740Y-82116271D01*
X133303999Y-82038703D01*
X133305444Y-81971576D01*
X133307062Y-81917641D01*
X133308839Y-81879650D01*
X133309331Y-81872667D01*
X133316908Y-81802251D01*
X133328469Y-81747102D01*
X133346208Y-81699981D01*
X133372318Y-81653647D01*
X133378585Y-81644067D01*
X133403017Y-81607378D01*
X132497689Y-81607378D01*
X132497493Y-83292245D01*
G37*
X132497493Y-83292245D02*
X132497474Y-83526662D01*
X132497448Y-83739603D01*
X132497375Y-83932168D01*
X132497218Y-84105459D01*
X132496936Y-84260576D01*
X132496491Y-84398620D01*
X132495844Y-84520692D01*
X132494955Y-84627894D01*
X132493787Y-84721326D01*
X132492299Y-84802090D01*
X132490454Y-84871286D01*
X132488211Y-84930015D01*
X132485531Y-84979379D01*
X132482377Y-85020478D01*
X132478708Y-85054413D01*
X132474487Y-85082286D01*
X132469673Y-85105198D01*
X132464227Y-85124249D01*
X132458112Y-85140540D01*
X132451288Y-85155173D01*
X132443715Y-85169249D01*
X132435355Y-85183868D01*
X132430161Y-85192974D01*
X132395896Y-85253689D01*
X133254045Y-85253689D01*
X133254045Y-85157733D01*
X133254776Y-85114370D01*
X133256728Y-85081205D01*
X133259537Y-85063424D01*
X133260779Y-85061778D01*
X133272201Y-85068662D01*
X133294916Y-85086505D01*
X133317615Y-85105879D01*
X133372200Y-85146614D01*
X133441679Y-85187617D01*
X133518730Y-85225123D01*
X133596035Y-85255364D01*
X133626887Y-85265012D01*
X133695384Y-85279578D01*
X133778236Y-85289539D01*
X133867629Y-85294583D01*
X133955752Y-85294396D01*
X134034793Y-85288666D01*
X134072489Y-85282858D01*
X134210586Y-85244797D01*
X134337887Y-85187073D01*
X134453708Y-85110211D01*
X134557363Y-85014739D01*
X134648167Y-84901179D01*
X134714969Y-84790381D01*
X134769836Y-84673625D01*
X134811837Y-84554276D01*
X134841833Y-84428283D01*
X134860689Y-84291594D01*
X134869268Y-84140158D01*
X134869994Y-84062711D01*
X134867900Y-84005934D01*
X134038783Y-84005934D01*
X134038576Y-84099002D01*
X134035663Y-84186692D01*
X134030000Y-84263772D01*
X134021545Y-84325009D01*
X134018962Y-84337350D01*
X133987160Y-84444633D01*
X133945502Y-84531658D01*
X133893637Y-84598642D01*
X133831219Y-84645805D01*
X133757900Y-84673365D01*
X133673331Y-84681541D01*
X133577165Y-84670551D01*
X133513689Y-84654829D01*
X133464546Y-84636639D01*
X133410417Y-84610791D01*
X133369756Y-84587089D01*
X133299200Y-84540721D01*
X133299200Y-83390530D01*
X133366608Y-83346962D01*
X133445133Y-83306040D01*
X133529319Y-83279389D01*
X133614443Y-83267465D01*
X133695784Y-83270722D01*
X133768620Y-83289615D01*
X133800574Y-83305184D01*
X133858499Y-83348181D01*
X133907456Y-83404953D01*
X133948610Y-83477575D01*
X133983126Y-83568121D01*
X134012167Y-83678666D01*
X134013448Y-83684533D01*
X134023619Y-83746788D01*
X134031261Y-83824594D01*
X134036330Y-83912720D01*
X134038783Y-84005934D01*
X134867900Y-84005934D01*
X134862143Y-83849895D01*
X134840198Y-83654059D01*
X134804214Y-83475332D01*
X134754241Y-83313845D01*
X134690332Y-83169726D01*
X134612538Y-83043106D01*
X134520911Y-82934115D01*
X134415503Y-82842883D01*
X134370338Y-82811932D01*
X134269389Y-82755785D01*
X134166099Y-82716174D01*
X134056011Y-82692014D01*
X133934670Y-82682219D01*
X133842164Y-82683265D01*
X133712510Y-82694231D01*
X133599916Y-82716046D01*
X133501125Y-82749714D01*
X133412879Y-82796236D01*
X133364014Y-82830448D01*
X133334647Y-82852362D01*
X133312957Y-82867333D01*
X133304747Y-82871733D01*
X133303132Y-82860904D01*
X133301841Y-82830251D01*
X133300862Y-82782526D01*
X133300183Y-82720479D01*
X133299790Y-82646862D01*
X133299670Y-82564427D01*
X133299812Y-82475925D01*
X133300203Y-82384107D01*
X133300829Y-82291724D01*
X133301680Y-82201528D01*
X133302740Y-82116271D01*
X133303999Y-82038703D01*
X133305444Y-81971576D01*
X133307062Y-81917641D01*
X133308839Y-81879650D01*
X133309331Y-81872667D01*
X133316908Y-81802251D01*
X133328469Y-81747102D01*
X133346208Y-81699981D01*
X133372318Y-81653647D01*
X133378585Y-81644067D01*
X133403017Y-81607378D01*
X132497689Y-81607378D01*
X132497493Y-83292245D01*
G36*
X136010426Y-82686552D02*
G01*
X135858508Y-82706567D01*
X135723244Y-82740202D01*
X135603761Y-82787725D01*
X135499185Y-82849405D01*
X135421576Y-82912965D01*
X135352735Y-82987099D01*
X135298994Y-83066871D01*
X135256090Y-83159091D01*
X135240616Y-83202161D01*
X135227756Y-83241142D01*
X135216554Y-83277289D01*
X135206880Y-83312434D01*
X135198604Y-83348410D01*
X135191597Y-83387050D01*
X135185728Y-83430185D01*
X135180869Y-83479649D01*
X135176890Y-83537273D01*
X135173660Y-83604891D01*
X135171051Y-83684334D01*
X135168933Y-83777436D01*
X135167176Y-83886027D01*
X135165651Y-84011942D01*
X135164228Y-84157012D01*
X135162975Y-84299778D01*
X135161649Y-84455968D01*
X135160444Y-84591239D01*
X135159234Y-84707246D01*
X135157894Y-84805645D01*
X135156300Y-84888093D01*
X135154325Y-84956246D01*
X135151844Y-85011760D01*
X135148731Y-85056292D01*
X135144862Y-85091498D01*
X135140111Y-85119034D01*
X135134352Y-85140556D01*
X135127461Y-85157722D01*
X135119311Y-85172186D01*
X135109777Y-85185606D01*
X135098734Y-85199638D01*
X135094434Y-85205071D01*
X135078614Y-85227910D01*
X135071578Y-85243463D01*
X135071556Y-85243922D01*
X135082433Y-85246121D01*
X135113418Y-85248147D01*
X135162043Y-85249942D01*
X135225837Y-85251451D01*
X135302331Y-85252616D01*
X135389056Y-85253380D01*
X135483543Y-85253686D01*
X135494450Y-85253689D01*
X135917343Y-85253689D01*
X135920605Y-85157622D01*
X135923867Y-85061556D01*
X135985956Y-85112543D01*
X136083286Y-85180057D01*
X136193187Y-85234749D01*
X136279651Y-85264978D01*
X136348722Y-85279666D01*
X136432075Y-85289659D01*
X136521841Y-85294646D01*
X136610155Y-85294313D01*
X136689149Y-85288351D01*
X136725378Y-85282638D01*
X136865397Y-85244776D01*
X136991822Y-85189932D01*
X137103740Y-85118924D01*
X137200238Y-85032568D01*
X137280400Y-84931679D01*
X137343313Y-84817076D01*
X137387688Y-84690984D01*
X137400022Y-84634401D01*
X137407632Y-84572202D01*
X137411261Y-84497363D01*
X137411755Y-84463467D01*
X137411690Y-84460282D01*
X136651752Y-84460282D01*
X136642459Y-84535333D01*
X136614272Y-84599160D01*
X136565803Y-84654798D01*
X136560746Y-84659211D01*
X136512452Y-84694037D01*
X136460743Y-84716620D01*
X136400011Y-84728540D01*
X136324648Y-84731383D01*
X136306541Y-84730978D01*
X136252722Y-84728325D01*
X136212692Y-84722909D01*
X136177676Y-84712745D01*
X136138897Y-84695850D01*
X136128255Y-84690672D01*
X136067604Y-84654844D01*
X136020785Y-84612212D01*
X136008048Y-84596973D01*
X135963378Y-84540462D01*
X135963378Y-84344586D01*
X135963914Y-84265939D01*
X135965604Y-84207988D01*
X135968572Y-84168875D01*
X135972943Y-84146741D01*
X135977028Y-84140274D01*
X135992953Y-84137111D01*
X136026736Y-84134488D01*
X136073660Y-84132655D01*
X136129007Y-84131857D01*
X136137894Y-84131842D01*
X136258670Y-84137096D01*
X136361340Y-84153263D01*
X136447894Y-84180961D01*
X136520319Y-84220808D01*
X136575249Y-84267758D01*
X136619796Y-84325645D01*
X136644520Y-84388693D01*
X136651752Y-84460282D01*
X137411690Y-84460282D01*
X137409822Y-84369712D01*
X137401478Y-84290812D01*
X137385232Y-84219590D01*
X137359595Y-84148864D01*
X137335599Y-84096493D01*
X137276980Y-84001196D01*
X137198883Y-83913170D01*
X137103685Y-83834017D01*
X136993762Y-83765340D01*
X136871490Y-83708741D01*
X136739245Y-83665821D01*
X136674578Y-83650882D01*
X136538396Y-83628777D01*
X136389951Y-83614194D01*
X136238495Y-83607813D01*
X136111936Y-83609445D01*
X135950050Y-83616224D01*
X135957470Y-83557245D01*
X135976762Y-83458092D01*
X136007896Y-83377372D01*
X136051731Y-83314466D01*
X136109129Y-83268756D01*
X136180952Y-83239622D01*
X136268059Y-83226447D01*
X136371314Y-83228611D01*
X136409289Y-83232612D01*
X136550480Y-83257780D01*
X136687293Y-83298814D01*
X136781822Y-83336815D01*
X136826982Y-83356190D01*
X136865415Y-83371760D01*
X136891766Y-83381405D01*
X136899454Y-83383452D01*
X136909198Y-83374374D01*
X136925917Y-83345405D01*
X136949768Y-83296217D01*
X136980907Y-83226484D01*
X137019493Y-83135879D01*
X137026090Y-83120089D01*
X137056147Y-83047772D01*
X137083126Y-82982425D01*
X137105864Y-82926906D01*
X137123194Y-82884072D01*
X137133952Y-82856781D01*
X137137059Y-82847942D01*
X137127060Y-82843187D01*
X137100783Y-82837910D01*
X137072511Y-82834231D01*
X137042354Y-82829474D01*
X136994567Y-82820028D01*
X136933388Y-82806820D01*
X136863054Y-82790776D01*
X136787806Y-82772820D01*
X136759245Y-82765797D01*
X136654184Y-82740209D01*
X136566520Y-82720147D01*
X136491932Y-82704969D01*
X136426097Y-82694035D01*
X136364693Y-82686704D01*
X136303398Y-82682335D01*
X136237890Y-82680287D01*
X136179872Y-82679889D01*
X136010426Y-82686552D01*
G37*
X136010426Y-82686552D02*
X135858508Y-82706567D01*
X135723244Y-82740202D01*
X135603761Y-82787725D01*
X135499185Y-82849405D01*
X135421576Y-82912965D01*
X135352735Y-82987099D01*
X135298994Y-83066871D01*
X135256090Y-83159091D01*
X135240616Y-83202161D01*
X135227756Y-83241142D01*
X135216554Y-83277289D01*
X135206880Y-83312434D01*
X135198604Y-83348410D01*
X135191597Y-83387050D01*
X135185728Y-83430185D01*
X135180869Y-83479649D01*
X135176890Y-83537273D01*
X135173660Y-83604891D01*
X135171051Y-83684334D01*
X135168933Y-83777436D01*
X135167176Y-83886027D01*
X135165651Y-84011942D01*
X135164228Y-84157012D01*
X135162975Y-84299778D01*
X135161649Y-84455968D01*
X135160444Y-84591239D01*
X135159234Y-84707246D01*
X135157894Y-84805645D01*
X135156300Y-84888093D01*
X135154325Y-84956246D01*
X135151844Y-85011760D01*
X135148731Y-85056292D01*
X135144862Y-85091498D01*
X135140111Y-85119034D01*
X135134352Y-85140556D01*
X135127461Y-85157722D01*
X135119311Y-85172186D01*
X135109777Y-85185606D01*
X135098734Y-85199638D01*
X135094434Y-85205071D01*
X135078614Y-85227910D01*
X135071578Y-85243463D01*
X135071556Y-85243922D01*
X135082433Y-85246121D01*
X135113418Y-85248147D01*
X135162043Y-85249942D01*
X135225837Y-85251451D01*
X135302331Y-85252616D01*
X135389056Y-85253380D01*
X135483543Y-85253686D01*
X135494450Y-85253689D01*
X135917343Y-85253689D01*
X135920605Y-85157622D01*
X135923867Y-85061556D01*
X135985956Y-85112543D01*
X136083286Y-85180057D01*
X136193187Y-85234749D01*
X136279651Y-85264978D01*
X136348722Y-85279666D01*
X136432075Y-85289659D01*
X136521841Y-85294646D01*
X136610155Y-85294313D01*
X136689149Y-85288351D01*
X136725378Y-85282638D01*
X136865397Y-85244776D01*
X136991822Y-85189932D01*
X137103740Y-85118924D01*
X137200238Y-85032568D01*
X137280400Y-84931679D01*
X137343313Y-84817076D01*
X137387688Y-84690984D01*
X137400022Y-84634401D01*
X137407632Y-84572202D01*
X137411261Y-84497363D01*
X137411755Y-84463467D01*
X137411690Y-84460282D01*
X136651752Y-84460282D01*
X136642459Y-84535333D01*
X136614272Y-84599160D01*
X136565803Y-84654798D01*
X136560746Y-84659211D01*
X136512452Y-84694037D01*
X136460743Y-84716620D01*
X136400011Y-84728540D01*
X136324648Y-84731383D01*
X136306541Y-84730978D01*
X136252722Y-84728325D01*
X136212692Y-84722909D01*
X136177676Y-84712745D01*
X136138897Y-84695850D01*
X136128255Y-84690672D01*
X136067604Y-84654844D01*
X136020785Y-84612212D01*
X136008048Y-84596973D01*
X135963378Y-84540462D01*
X135963378Y-84344586D01*
X135963914Y-84265939D01*
X135965604Y-84207988D01*
X135968572Y-84168875D01*
X135972943Y-84146741D01*
X135977028Y-84140274D01*
X135992953Y-84137111D01*
X136026736Y-84134488D01*
X136073660Y-84132655D01*
X136129007Y-84131857D01*
X136137894Y-84131842D01*
X136258670Y-84137096D01*
X136361340Y-84153263D01*
X136447894Y-84180961D01*
X136520319Y-84220808D01*
X136575249Y-84267758D01*
X136619796Y-84325645D01*
X136644520Y-84388693D01*
X136651752Y-84460282D01*
X137411690Y-84460282D01*
X137409822Y-84369712D01*
X137401478Y-84290812D01*
X137385232Y-84219590D01*
X137359595Y-84148864D01*
X137335599Y-84096493D01*
X137276980Y-84001196D01*
X137198883Y-83913170D01*
X137103685Y-83834017D01*
X136993762Y-83765340D01*
X136871490Y-83708741D01*
X136739245Y-83665821D01*
X136674578Y-83650882D01*
X136538396Y-83628777D01*
X136389951Y-83614194D01*
X136238495Y-83607813D01*
X136111936Y-83609445D01*
X135950050Y-83616224D01*
X135957470Y-83557245D01*
X135976762Y-83458092D01*
X136007896Y-83377372D01*
X136051731Y-83314466D01*
X136109129Y-83268756D01*
X136180952Y-83239622D01*
X136268059Y-83226447D01*
X136371314Y-83228611D01*
X136409289Y-83232612D01*
X136550480Y-83257780D01*
X136687293Y-83298814D01*
X136781822Y-83336815D01*
X136826982Y-83356190D01*
X136865415Y-83371760D01*
X136891766Y-83381405D01*
X136899454Y-83383452D01*
X136909198Y-83374374D01*
X136925917Y-83345405D01*
X136949768Y-83296217D01*
X136980907Y-83226484D01*
X137019493Y-83135879D01*
X137026090Y-83120089D01*
X137056147Y-83047772D01*
X137083126Y-82982425D01*
X137105864Y-82926906D01*
X137123194Y-82884072D01*
X137133952Y-82856781D01*
X137137059Y-82847942D01*
X137127060Y-82843187D01*
X137100783Y-82837910D01*
X137072511Y-82834231D01*
X137042354Y-82829474D01*
X136994567Y-82820028D01*
X136933388Y-82806820D01*
X136863054Y-82790776D01*
X136787806Y-82772820D01*
X136759245Y-82765797D01*
X136654184Y-82740209D01*
X136566520Y-82720147D01*
X136491932Y-82704969D01*
X136426097Y-82694035D01*
X136364693Y-82686704D01*
X136303398Y-82682335D01*
X136237890Y-82680287D01*
X136179872Y-82679889D01*
X136010426Y-82686552D01*
G36*
X138355571Y-81769071D02*
G01*
X138195430Y-81790245D01*
X138031490Y-81830385D01*
X137861687Y-81889889D01*
X137683957Y-81969154D01*
X137672690Y-81974699D01*
X137614995Y-82002725D01*
X137563448Y-82026802D01*
X137521809Y-82045249D01*
X137493838Y-82056386D01*
X137484267Y-82058933D01*
X137465050Y-82063941D01*
X137460439Y-82068147D01*
X137465542Y-82078580D01*
X137481582Y-82104868D01*
X137506712Y-82144257D01*
X137539086Y-82193991D01*
X137576857Y-82251315D01*
X137618178Y-82313476D01*
X137661202Y-82377718D01*
X137704083Y-82441285D01*
X137744974Y-82501425D01*
X137782029Y-82555380D01*
X137813400Y-82600397D01*
X137837241Y-82633721D01*
X137851706Y-82652597D01*
X137853691Y-82654787D01*
X137863809Y-82650138D01*
X137886150Y-82632962D01*
X137916720Y-82606440D01*
X137932464Y-82591964D01*
X138028953Y-82516682D01*
X138135664Y-82461241D01*
X138251168Y-82426141D01*
X138374038Y-82411880D01*
X138443439Y-82413051D01*
X138564577Y-82430212D01*
X138673795Y-82466094D01*
X138771418Y-82520959D01*
X138857772Y-82595070D01*
X138933185Y-82688688D01*
X138997982Y-82802076D01*
X139035399Y-82888667D01*
X139079252Y-83024366D01*
X139111572Y-83171850D01*
X139132443Y-83327314D01*
X139141949Y-83486956D01*
X139140173Y-83646973D01*
X139127197Y-83803561D01*
X139103106Y-83952918D01*
X139067982Y-84091240D01*
X139021908Y-84214724D01*
X139005627Y-84248978D01*
X138937380Y-84363064D01*
X138856921Y-84459557D01*
X138765430Y-84537670D01*
X138664089Y-84596617D01*
X138554080Y-84635612D01*
X138436585Y-84653868D01*
X138395117Y-84655211D01*
X138273559Y-84644290D01*
X138153122Y-84611474D01*
X138035334Y-84557439D01*
X137921723Y-84482865D01*
X137830315Y-84404539D01*
X137783785Y-84360008D01*
X137602517Y-84657271D01*
X137557420Y-84731433D01*
X137516181Y-84799646D01*
X137480265Y-84859459D01*
X137451134Y-84908420D01*
X137430250Y-84944079D01*
X137419076Y-84963984D01*
X137417625Y-84967079D01*
X137425854Y-84976718D01*
X137451433Y-84993999D01*
X137491127Y-85017283D01*
X137541703Y-85044934D01*
X137599926Y-85075315D01*
X137662563Y-85106790D01*
X137726379Y-85137722D01*
X137788140Y-85166473D01*
X137844612Y-85191408D01*
X137892562Y-85210889D01*
X137916014Y-85219318D01*
X138049779Y-85257133D01*
X138187673Y-85282136D01*
X138335378Y-85295140D01*
X138462167Y-85297468D01*
X138530122Y-85296373D01*
X138595723Y-85294275D01*
X138653153Y-85291434D01*
X138696597Y-85288106D01*
X138710702Y-85286422D01*
X138849716Y-85257587D01*
X138991243Y-85212468D01*
X139128725Y-85153750D01*
X139255606Y-85084120D01*
X139333111Y-85031441D01*
X139460519Y-84923239D01*
X139578822Y-84796671D01*
X139685828Y-84654866D01*
X139779348Y-84500951D01*
X139857190Y-84338053D01*
X139901044Y-84220756D01*
X139951292Y-84037128D01*
X139984791Y-83842581D01*
X140001551Y-83641325D01*
X140001584Y-83437568D01*
X139984899Y-83235521D01*
X139951507Y-83039392D01*
X139901420Y-82853391D01*
X139897603Y-82841803D01*
X139834719Y-82679750D01*
X139757972Y-82531832D01*
X139664758Y-82393865D01*
X139552473Y-82261661D01*
X139508608Y-82216399D01*
X139372466Y-82092457D01*
X139232509Y-81989915D01*
X139086589Y-81907656D01*
X138932558Y-81844564D01*
X138768268Y-81799523D01*
X138672711Y-81782033D01*
X138513977Y-81766466D01*
X138355571Y-81769071D01*
G37*
X138355571Y-81769071D02*
X138195430Y-81790245D01*
X138031490Y-81830385D01*
X137861687Y-81889889D01*
X137683957Y-81969154D01*
X137672690Y-81974699D01*
X137614995Y-82002725D01*
X137563448Y-82026802D01*
X137521809Y-82045249D01*
X137493838Y-82056386D01*
X137484267Y-82058933D01*
X137465050Y-82063941D01*
X137460439Y-82068147D01*
X137465542Y-82078580D01*
X137481582Y-82104868D01*
X137506712Y-82144257D01*
X137539086Y-82193991D01*
X137576857Y-82251315D01*
X137618178Y-82313476D01*
X137661202Y-82377718D01*
X137704083Y-82441285D01*
X137744974Y-82501425D01*
X137782029Y-82555380D01*
X137813400Y-82600397D01*
X137837241Y-82633721D01*
X137851706Y-82652597D01*
X137853691Y-82654787D01*
X137863809Y-82650138D01*
X137886150Y-82632962D01*
X137916720Y-82606440D01*
X137932464Y-82591964D01*
X138028953Y-82516682D01*
X138135664Y-82461241D01*
X138251168Y-82426141D01*
X138374038Y-82411880D01*
X138443439Y-82413051D01*
X138564577Y-82430212D01*
X138673795Y-82466094D01*
X138771418Y-82520959D01*
X138857772Y-82595070D01*
X138933185Y-82688688D01*
X138997982Y-82802076D01*
X139035399Y-82888667D01*
X139079252Y-83024366D01*
X139111572Y-83171850D01*
X139132443Y-83327314D01*
X139141949Y-83486956D01*
X139140173Y-83646973D01*
X139127197Y-83803561D01*
X139103106Y-83952918D01*
X139067982Y-84091240D01*
X139021908Y-84214724D01*
X139005627Y-84248978D01*
X138937380Y-84363064D01*
X138856921Y-84459557D01*
X138765430Y-84537670D01*
X138664089Y-84596617D01*
X138554080Y-84635612D01*
X138436585Y-84653868D01*
X138395117Y-84655211D01*
X138273559Y-84644290D01*
X138153122Y-84611474D01*
X138035334Y-84557439D01*
X137921723Y-84482865D01*
X137830315Y-84404539D01*
X137783785Y-84360008D01*
X137602517Y-84657271D01*
X137557420Y-84731433D01*
X137516181Y-84799646D01*
X137480265Y-84859459D01*
X137451134Y-84908420D01*
X137430250Y-84944079D01*
X137419076Y-84963984D01*
X137417625Y-84967079D01*
X137425854Y-84976718D01*
X137451433Y-84993999D01*
X137491127Y-85017283D01*
X137541703Y-85044934D01*
X137599926Y-85075315D01*
X137662563Y-85106790D01*
X137726379Y-85137722D01*
X137788140Y-85166473D01*
X137844612Y-85191408D01*
X137892562Y-85210889D01*
X137916014Y-85219318D01*
X138049779Y-85257133D01*
X138187673Y-85282136D01*
X138335378Y-85295140D01*
X138462167Y-85297468D01*
X138530122Y-85296373D01*
X138595723Y-85294275D01*
X138653153Y-85291434D01*
X138696597Y-85288106D01*
X138710702Y-85286422D01*
X138849716Y-85257587D01*
X138991243Y-85212468D01*
X139128725Y-85153750D01*
X139255606Y-85084120D01*
X139333111Y-85031441D01*
X139460519Y-84923239D01*
X139578822Y-84796671D01*
X139685828Y-84654866D01*
X139779348Y-84500951D01*
X139857190Y-84338053D01*
X139901044Y-84220756D01*
X139951292Y-84037128D01*
X139984791Y-83842581D01*
X140001551Y-83641325D01*
X140001584Y-83437568D01*
X139984899Y-83235521D01*
X139951507Y-83039392D01*
X139901420Y-82853391D01*
X139897603Y-82841803D01*
X139834719Y-82679750D01*
X139757972Y-82531832D01*
X139664758Y-82393865D01*
X139552473Y-82261661D01*
X139508608Y-82216399D01*
X139372466Y-82092457D01*
X139232509Y-81989915D01*
X139086589Y-81907656D01*
X138932558Y-81844564D01*
X138768268Y-81799523D01*
X138672711Y-81782033D01*
X138513977Y-81766466D01*
X138355571Y-81769071D01*
G36*
X141630400Y-81309054D02*
G01*
X141619535Y-81422993D01*
X141587918Y-81530616D01*
X141537015Y-81629615D01*
X141468293Y-81717684D01*
X141383219Y-81792516D01*
X141286232Y-81850384D01*
X141179964Y-81890005D01*
X141072950Y-81908573D01*
X140967300Y-81907434D01*
X140865125Y-81887930D01*
X140768534Y-81851406D01*
X140679638Y-81799205D01*
X140600546Y-81732673D01*
X140533369Y-81653152D01*
X140480217Y-81561987D01*
X140443199Y-81460523D01*
X140424427Y-81350102D01*
X140422489Y-81300206D01*
X140422489Y-81212267D01*
X140370560Y-81212267D01*
X140334253Y-81215111D01*
X140307355Y-81226911D01*
X140280249Y-81250649D01*
X140241867Y-81289031D01*
X140241867Y-83480602D01*
X140241876Y-83742739D01*
X140241908Y-83983241D01*
X140241972Y-84203048D01*
X140242076Y-84403101D01*
X140242227Y-84584344D01*
X140242434Y-84747716D01*
X140242706Y-84894160D01*
X140243050Y-85024617D01*
X140243474Y-85140029D01*
X140243987Y-85241338D01*
X140244597Y-85329484D01*
X140245312Y-85405410D01*
X140246140Y-85470057D01*
X140247089Y-85524367D01*
X140248167Y-85569280D01*
X140249383Y-85605740D01*
X140250745Y-85634687D01*
X140252261Y-85657063D01*
X140253938Y-85673809D01*
X140255786Y-85685868D01*
X140257813Y-85694180D01*
X140260025Y-85699687D01*
X140261108Y-85701537D01*
X140265271Y-85708549D01*
X140268805Y-85714996D01*
X140272635Y-85720900D01*
X140277682Y-85726286D01*
X140284871Y-85731178D01*
X140295123Y-85735598D01*
X140309364Y-85739572D01*
X140328514Y-85743121D01*
X140353499Y-85746270D01*
X140385240Y-85749042D01*
X140424662Y-85751461D01*
X140472686Y-85753551D01*
X140530237Y-85755335D01*
X140598237Y-85756837D01*
X140677610Y-85758080D01*
X140769279Y-85759089D01*
X140874166Y-85759885D01*
X140993196Y-85760494D01*
X141127290Y-85760939D01*
X141277373Y-85761243D01*
X141444367Y-85761430D01*
X141629196Y-85761524D01*
X141832783Y-85761548D01*
X142056050Y-85761525D01*
X142299922Y-85761480D01*
X142565321Y-85761437D01*
X142603704Y-85761432D01*
X142870682Y-85761389D01*
X143116002Y-85761318D01*
X143340583Y-85761213D01*
X143545345Y-85761066D01*
X143731206Y-85760869D01*
X143899088Y-85760616D01*
X144049908Y-85760300D01*
X144184587Y-85759913D01*
X144304044Y-85759447D01*
X144409199Y-85758897D01*
X144500971Y-85758253D01*
X144580279Y-85757511D01*
X144648043Y-85756661D01*
X144705182Y-85755697D01*
X144752617Y-85754611D01*
X144791266Y-85753397D01*
X144822049Y-85752047D01*
X144845885Y-85750555D01*
X144863694Y-85748911D01*
X144876395Y-85747111D01*
X144884908Y-85745145D01*
X144889266Y-85743477D01*
X144897728Y-85739906D01*
X144905497Y-85737270D01*
X144912602Y-85734634D01*
X144919073Y-85731062D01*
X144924939Y-85725621D01*
X144930229Y-85717375D01*
X144934974Y-85705390D01*
X144939202Y-85688731D01*
X144942943Y-85666463D01*
X144946227Y-85637652D01*
X144949083Y-85601363D01*
X144951540Y-85556661D01*
X144953629Y-85502611D01*
X144955378Y-85438279D01*
X144956817Y-85362730D01*
X144957976Y-85275030D01*
X144958883Y-85174243D01*
X144959569Y-85059434D01*
X144960063Y-84929670D01*
X144960395Y-84784015D01*
X144960593Y-84621535D01*
X144960687Y-84441295D01*
X144960708Y-84242360D01*
X144960685Y-84023796D01*
X144960646Y-83784668D01*
X144960622Y-83524040D01*
X144960622Y-83481889D01*
X144960636Y-83218992D01*
X144960661Y-82977732D01*
X144960671Y-82757165D01*
X144960642Y-82556352D01*
X144960548Y-82374349D01*
X144960362Y-82210216D01*
X144960059Y-82063011D01*
X144959614Y-81931792D01*
X144959034Y-81821867D01*
X144656197Y-81821867D01*
X144616407Y-81879711D01*
X144605236Y-81895479D01*
X144595166Y-81909441D01*
X144586138Y-81922784D01*
X144578097Y-81936693D01*
X144570986Y-81952356D01*
X144564747Y-81970958D01*
X144559325Y-81993686D01*
X144554662Y-82021727D01*
X144550701Y-82056267D01*
X144547385Y-82098492D01*
X144544659Y-82149589D01*
X144542464Y-82210744D01*
X144540745Y-82283144D01*
X144539444Y-82367975D01*
X144538505Y-82466422D01*
X144537870Y-82579674D01*
X144537484Y-82708916D01*
X144537288Y-82855334D01*
X144537227Y-83020116D01*
X144537243Y-83204447D01*
X144537280Y-83409513D01*
X144537289Y-83532133D01*
X144537265Y-83749082D01*
X144537231Y-83944642D01*
X144537243Y-84119999D01*
X144537358Y-84276341D01*
X144537630Y-84414857D01*
X144538118Y-84536734D01*
X144538876Y-84643160D01*
X144539962Y-84735322D01*
X144541431Y-84814409D01*
X144543340Y-84881608D01*
X144545744Y-84938107D01*
X144548701Y-84985093D01*
X144552266Y-85023755D01*
X144556495Y-85055280D01*
X144561446Y-85080855D01*
X144567173Y-85101670D01*
X144573733Y-85118911D01*
X144581183Y-85133765D01*
X144589579Y-85147422D01*
X144598976Y-85161069D01*
X144609432Y-85175893D01*
X144615523Y-85184783D01*
X144654296Y-85242400D01*
X144122732Y-85242400D01*
X143999483Y-85242365D01*
X143896987Y-85242215D01*
X143813420Y-85241878D01*
X143746956Y-85241286D01*
X143695771Y-85240367D01*
X143658041Y-85239051D01*
X143631940Y-85237269D01*
X143615644Y-85234951D01*
X143607328Y-85232026D01*
X143605168Y-85228424D01*
X143607339Y-85224075D01*
X143608535Y-85222645D01*
X143633685Y-85185573D01*
X143659583Y-85132772D01*
X143683192Y-85070770D01*
X143691461Y-85044357D01*
X143696078Y-85026416D01*
X143699979Y-85005355D01*
X143703248Y-84979089D01*
X143705966Y-84945532D01*
X143708215Y-84902599D01*
X143710077Y-84848204D01*
X143711636Y-84780262D01*
X143712972Y-84696688D01*
X143714169Y-84595395D01*
X143715308Y-84474300D01*
X143715685Y-84429600D01*
X143716702Y-84304449D01*
X143717460Y-84200082D01*
X143717903Y-84114707D01*
X143717970Y-84046533D01*
X143717605Y-83993765D01*
X143716748Y-83954614D01*
X143715341Y-83927285D01*
X143713325Y-83909986D01*
X143710643Y-83900926D01*
X143707236Y-83898312D01*
X143703044Y-83900351D01*
X143698571Y-83904667D01*
X143688216Y-83917602D01*
X143666158Y-83946676D01*
X143633957Y-83989759D01*
X143593174Y-84044718D01*
X143545370Y-84109423D01*
X143492105Y-84181742D01*
X143434940Y-84259544D01*
X143375437Y-84340698D01*
X143315155Y-84423072D01*
X143255655Y-84504536D01*
X143198498Y-84582957D01*
X143145245Y-84656204D01*
X143097457Y-84722147D01*
X143056693Y-84778654D01*
X143024516Y-84823593D01*
X143002485Y-84854834D01*
X142997917Y-84861466D01*
X142974996Y-84898369D01*
X142948188Y-84946359D01*
X142922789Y-84995897D01*
X142919568Y-85002577D01*
X142897890Y-85050772D01*
X142885304Y-85088334D01*
X142879574Y-85124160D01*
X142878456Y-85166200D01*
X142879090Y-85242400D01*
X141724651Y-85242400D01*
X141815815Y-85148669D01*
X141862612Y-85098775D01*
X141912899Y-85042295D01*
X141958944Y-84988026D01*
X141979369Y-84962673D01*
X142009807Y-84923128D01*
X142049862Y-84869916D01*
X142098361Y-84804667D01*
X142154135Y-84729011D01*
X142216011Y-84644577D01*
X142282819Y-84552994D01*
X142353387Y-84455892D01*
X142426545Y-84354901D01*
X142501121Y-84251650D01*
X142575944Y-84147768D01*
X142649843Y-84044885D01*
X142721646Y-83944631D01*
X142790184Y-83848636D01*
X142854284Y-83758527D01*
X142912775Y-83675936D01*
X142964486Y-83602492D01*
X143008247Y-83539824D01*
X143042885Y-83489561D01*
X143067230Y-83453334D01*
X143080111Y-83432771D01*
X143081869Y-83428668D01*
X143073910Y-83417342D01*
X143053115Y-83390162D01*
X143020847Y-83348829D01*
X142978470Y-83295044D01*
X142927347Y-83230506D01*
X142868841Y-83156918D01*
X142804314Y-83075978D01*
X142735131Y-82989388D01*
X142662653Y-82898848D01*
X142588246Y-82806060D01*
X142528517Y-82731702D01*
X141517511Y-82731702D01*
X141511602Y-82744659D01*
X141497272Y-82766908D01*
X141496225Y-82768391D01*
X141477438Y-82798544D01*
X141457791Y-82835375D01*
X141453892Y-82843511D01*
X141450356Y-82851940D01*
X141447230Y-82862059D01*
X141444486Y-82875260D01*
X141442092Y-82892938D01*
X141440019Y-82916484D01*
X141438235Y-82947293D01*
X141436712Y-82986757D01*
X141435419Y-83036269D01*
X141434326Y-83097223D01*
X141433403Y-83171011D01*
X141432619Y-83259028D01*
X141431945Y-83362665D01*
X141431350Y-83483316D01*
X141430805Y-83622374D01*
X141430279Y-83781232D01*
X141429745Y-83960089D01*
X141429206Y-84145207D01*
X141428772Y-84309145D01*
X141428509Y-84453303D01*
X141428484Y-84579079D01*
X141428765Y-84687871D01*
X141429419Y-84781077D01*
X141430514Y-84860097D01*
X141432118Y-84926328D01*
X141434297Y-84981170D01*
X141437119Y-85026021D01*
X141440651Y-85062278D01*
X141444961Y-85091341D01*
X141450117Y-85114609D01*
X141456185Y-85133479D01*
X141463233Y-85149351D01*
X141471329Y-85163622D01*
X141480540Y-85177691D01*
X141489040Y-85190158D01*
X141506176Y-85216452D01*
X141516322Y-85234037D01*
X141517511Y-85237257D01*
X141506604Y-85238334D01*
X141475411Y-85239335D01*
X141426223Y-85240235D01*
X141361333Y-85241010D01*
X141283030Y-85241637D01*
X141193607Y-85242091D01*
X141095356Y-85242349D01*
X141026445Y-85242400D01*
X140921452Y-85242180D01*
X140824610Y-85241548D01*
X140738107Y-85240549D01*
X140664132Y-85239227D01*
X140604874Y-85237626D01*
X140562520Y-85235791D01*
X140539260Y-85233765D01*
X140535378Y-85232493D01*
X140543076Y-85217591D01*
X140551074Y-85209560D01*
X140564246Y-85192434D01*
X140581485Y-85162183D01*
X140593407Y-85137622D01*
X140620045Y-85078711D01*
X140623120Y-83901845D01*
X140626195Y-82724978D01*
X141071853Y-82724978D01*
X141169670Y-82725142D01*
X141260064Y-82725611D01*
X141340630Y-82726347D01*
X141408962Y-82727316D01*
X141462656Y-82728480D01*
X141499305Y-82729803D01*
X141516504Y-82731249D01*
X141517511Y-82731702D01*
X142528517Y-82731702D01*
X142513270Y-82712722D01*
X142439090Y-82620537D01*
X142367069Y-82531204D01*
X142298569Y-82446424D01*
X142234955Y-82367898D01*
X142177588Y-82297326D01*
X142127833Y-82236409D01*
X142087052Y-82186847D01*
X142069888Y-82166178D01*
X141983596Y-82065516D01*
X141906997Y-81982259D01*
X141838183Y-81914438D01*
X141775248Y-81860089D01*
X141765867Y-81852722D01*
X141726356Y-81822117D01*
X142858116Y-81821867D01*
X142852827Y-81869844D01*
X142856130Y-81927188D01*
X142877661Y-81995463D01*
X142917635Y-82075212D01*
X142962943Y-82147495D01*
X142979161Y-82170140D01*
X143007214Y-82207696D01*
X143045430Y-82258021D01*
X143092137Y-82318973D01*
X143145661Y-82388411D01*
X143204331Y-82464194D01*
X143266475Y-82544180D01*
X143330421Y-82626228D01*
X143394495Y-82708196D01*
X143457027Y-82787943D01*
X143516343Y-82863327D01*
X143570771Y-82932207D01*
X143618639Y-82992442D01*
X143658275Y-83041889D01*
X143688006Y-83078408D01*
X143706161Y-83099858D01*
X143709220Y-83103156D01*
X143712079Y-83095149D01*
X143714293Y-83064855D01*
X143715857Y-83012556D01*
X143716767Y-82938531D01*
X143717020Y-82843063D01*
X143716613Y-82726434D01*
X143715704Y-82606445D01*
X143714382Y-82474333D01*
X143712857Y-82362594D01*
X143710881Y-82269025D01*
X143708206Y-82191419D01*
X143704582Y-82127574D01*
X143699761Y-82075283D01*
X143693494Y-82032344D01*
X143685532Y-81996551D01*
X143675627Y-81965700D01*
X143663531Y-81937586D01*
X143648993Y-81910005D01*
X143634311Y-81884966D01*
X143596314Y-81821867D01*
X144656197Y-81821867D01*
X144959034Y-81821867D01*
X144959001Y-81815617D01*
X144958195Y-81713544D01*
X144957170Y-81624633D01*
X144955900Y-81547941D01*
X144954360Y-81482527D01*
X144952524Y-81427449D01*
X144950367Y-81381765D01*
X144947863Y-81344534D01*
X144944987Y-81314813D01*
X144941713Y-81291662D01*
X144938015Y-81274139D01*
X144933869Y-81261301D01*
X144929247Y-81252208D01*
X144924126Y-81245918D01*
X144918478Y-81241488D01*
X144912279Y-81237978D01*
X144905504Y-81234445D01*
X144899508Y-81230876D01*
X144894275Y-81228300D01*
X144886099Y-81225972D01*
X144873886Y-81223878D01*
X144856541Y-81222007D01*
X144832969Y-81220347D01*
X144802077Y-81218884D01*
X144762768Y-81217608D01*
X144713950Y-81216504D01*
X144654527Y-81215561D01*
X144583404Y-81214767D01*
X144499488Y-81214109D01*
X144401683Y-81213575D01*
X144288894Y-81213153D01*
X144160029Y-81212829D01*
X144013991Y-81212592D01*
X143849686Y-81212430D01*
X143666020Y-81212330D01*
X143461897Y-81212280D01*
X143250753Y-81212267D01*
X141630400Y-81212267D01*
X141630400Y-81309054D01*
G37*
X141630400Y-81309054D02*
X141619535Y-81422993D01*
X141587918Y-81530616D01*
X141537015Y-81629615D01*
X141468293Y-81717684D01*
X141383219Y-81792516D01*
X141286232Y-81850384D01*
X141179964Y-81890005D01*
X141072950Y-81908573D01*
X140967300Y-81907434D01*
X140865125Y-81887930D01*
X140768534Y-81851406D01*
X140679638Y-81799205D01*
X140600546Y-81732673D01*
X140533369Y-81653152D01*
X140480217Y-81561987D01*
X140443199Y-81460523D01*
X140424427Y-81350102D01*
X140422489Y-81300206D01*
X140422489Y-81212267D01*
X140370560Y-81212267D01*
X140334253Y-81215111D01*
X140307355Y-81226911D01*
X140280249Y-81250649D01*
X140241867Y-81289031D01*
X140241867Y-83480602D01*
X140241876Y-83742739D01*
X140241908Y-83983241D01*
X140241972Y-84203048D01*
X140242076Y-84403101D01*
X140242227Y-84584344D01*
X140242434Y-84747716D01*
X140242706Y-84894160D01*
X140243050Y-85024617D01*
X140243474Y-85140029D01*
X140243987Y-85241338D01*
X140244597Y-85329484D01*
X140245312Y-85405410D01*
X140246140Y-85470057D01*
X140247089Y-85524367D01*
X140248167Y-85569280D01*
X140249383Y-85605740D01*
X140250745Y-85634687D01*
X140252261Y-85657063D01*
X140253938Y-85673809D01*
X140255786Y-85685868D01*
X140257813Y-85694180D01*
X140260025Y-85699687D01*
X140261108Y-85701537D01*
X140265271Y-85708549D01*
X140268805Y-85714996D01*
X140272635Y-85720900D01*
X140277682Y-85726286D01*
X140284871Y-85731178D01*
X140295123Y-85735598D01*
X140309364Y-85739572D01*
X140328514Y-85743121D01*
X140353499Y-85746270D01*
X140385240Y-85749042D01*
X140424662Y-85751461D01*
X140472686Y-85753551D01*
X140530237Y-85755335D01*
X140598237Y-85756837D01*
X140677610Y-85758080D01*
X140769279Y-85759089D01*
X140874166Y-85759885D01*
X140993196Y-85760494D01*
X141127290Y-85760939D01*
X141277373Y-85761243D01*
X141444367Y-85761430D01*
X141629196Y-85761524D01*
X141832783Y-85761548D01*
X142056050Y-85761525D01*
X142299922Y-85761480D01*
X142565321Y-85761437D01*
X142603704Y-85761432D01*
X142870682Y-85761389D01*
X143116002Y-85761318D01*
X143340583Y-85761213D01*
X143545345Y-85761066D01*
X143731206Y-85760869D01*
X143899088Y-85760616D01*
X144049908Y-85760300D01*
X144184587Y-85759913D01*
X144304044Y-85759447D01*
X144409199Y-85758897D01*
X144500971Y-85758253D01*
X144580279Y-85757511D01*
X144648043Y-85756661D01*
X144705182Y-85755697D01*
X144752617Y-85754611D01*
X144791266Y-85753397D01*
X144822049Y-85752047D01*
X144845885Y-85750555D01*
X144863694Y-85748911D01*
X144876395Y-85747111D01*
X144884908Y-85745145D01*
X144889266Y-85743477D01*
X144897728Y-85739906D01*
X144905497Y-85737270D01*
X144912602Y-85734634D01*
X144919073Y-85731062D01*
X144924939Y-85725621D01*
X144930229Y-85717375D01*
X144934974Y-85705390D01*
X144939202Y-85688731D01*
X144942943Y-85666463D01*
X144946227Y-85637652D01*
X144949083Y-85601363D01*
X144951540Y-85556661D01*
X144953629Y-85502611D01*
X144955378Y-85438279D01*
X144956817Y-85362730D01*
X144957976Y-85275030D01*
X144958883Y-85174243D01*
X144959569Y-85059434D01*
X144960063Y-84929670D01*
X144960395Y-84784015D01*
X144960593Y-84621535D01*
X144960687Y-84441295D01*
X144960708Y-84242360D01*
X144960685Y-84023796D01*
X144960646Y-83784668D01*
X144960622Y-83524040D01*
X144960622Y-83481889D01*
X144960636Y-83218992D01*
X144960661Y-82977732D01*
X144960671Y-82757165D01*
X144960642Y-82556352D01*
X144960548Y-82374349D01*
X144960362Y-82210216D01*
X144960059Y-82063011D01*
X144959614Y-81931792D01*
X144959034Y-81821867D01*
X144656197Y-81821867D01*
X144616407Y-81879711D01*
X144605236Y-81895479D01*
X144595166Y-81909441D01*
X144586138Y-81922784D01*
X144578097Y-81936693D01*
X144570986Y-81952356D01*
X144564747Y-81970958D01*
X144559325Y-81993686D01*
X144554662Y-82021727D01*
X144550701Y-82056267D01*
X144547385Y-82098492D01*
X144544659Y-82149589D01*
X144542464Y-82210744D01*
X144540745Y-82283144D01*
X144539444Y-82367975D01*
X144538505Y-82466422D01*
X144537870Y-82579674D01*
X144537484Y-82708916D01*
X144537288Y-82855334D01*
X144537227Y-83020116D01*
X144537243Y-83204447D01*
X144537280Y-83409513D01*
X144537289Y-83532133D01*
X144537265Y-83749082D01*
X144537231Y-83944642D01*
X144537243Y-84119999D01*
X144537358Y-84276341D01*
X144537630Y-84414857D01*
X144538118Y-84536734D01*
X144538876Y-84643160D01*
X144539962Y-84735322D01*
X144541431Y-84814409D01*
X144543340Y-84881608D01*
X144545744Y-84938107D01*
X144548701Y-84985093D01*
X144552266Y-85023755D01*
X144556495Y-85055280D01*
X144561446Y-85080855D01*
X144567173Y-85101670D01*
X144573733Y-85118911D01*
X144581183Y-85133765D01*
X144589579Y-85147422D01*
X144598976Y-85161069D01*
X144609432Y-85175893D01*
X144615523Y-85184783D01*
X144654296Y-85242400D01*
X144122732Y-85242400D01*
X143999483Y-85242365D01*
X143896987Y-85242215D01*
X143813420Y-85241878D01*
X143746956Y-85241286D01*
X143695771Y-85240367D01*
X143658041Y-85239051D01*
X143631940Y-85237269D01*
X143615644Y-85234951D01*
X143607328Y-85232026D01*
X143605168Y-85228424D01*
X143607339Y-85224075D01*
X143608535Y-85222645D01*
X143633685Y-85185573D01*
X143659583Y-85132772D01*
X143683192Y-85070770D01*
X143691461Y-85044357D01*
X143696078Y-85026416D01*
X143699979Y-85005355D01*
X143703248Y-84979089D01*
X143705966Y-84945532D01*
X143708215Y-84902599D01*
X143710077Y-84848204D01*
X143711636Y-84780262D01*
X143712972Y-84696688D01*
X143714169Y-84595395D01*
X143715308Y-84474300D01*
X143715685Y-84429600D01*
X143716702Y-84304449D01*
X143717460Y-84200082D01*
X143717903Y-84114707D01*
X143717970Y-84046533D01*
X143717605Y-83993765D01*
X143716748Y-83954614D01*
X143715341Y-83927285D01*
X143713325Y-83909986D01*
X143710643Y-83900926D01*
X143707236Y-83898312D01*
X143703044Y-83900351D01*
X143698571Y-83904667D01*
X143688216Y-83917602D01*
X143666158Y-83946676D01*
X143633957Y-83989759D01*
X143593174Y-84044718D01*
X143545370Y-84109423D01*
X143492105Y-84181742D01*
X143434940Y-84259544D01*
X143375437Y-84340698D01*
X143315155Y-84423072D01*
X143255655Y-84504536D01*
X143198498Y-84582957D01*
X143145245Y-84656204D01*
X143097457Y-84722147D01*
X143056693Y-84778654D01*
X143024516Y-84823593D01*
X143002485Y-84854834D01*
X142997917Y-84861466D01*
X142974996Y-84898369D01*
X142948188Y-84946359D01*
X142922789Y-84995897D01*
X142919568Y-85002577D01*
X142897890Y-85050772D01*
X142885304Y-85088334D01*
X142879574Y-85124160D01*
X142878456Y-85166200D01*
X142879090Y-85242400D01*
X141724651Y-85242400D01*
X141815815Y-85148669D01*
X141862612Y-85098775D01*
X141912899Y-85042295D01*
X141958944Y-84988026D01*
X141979369Y-84962673D01*
X142009807Y-84923128D01*
X142049862Y-84869916D01*
X142098361Y-84804667D01*
X142154135Y-84729011D01*
X142216011Y-84644577D01*
X142282819Y-84552994D01*
X142353387Y-84455892D01*
X142426545Y-84354901D01*
X142501121Y-84251650D01*
X142575944Y-84147768D01*
X142649843Y-84044885D01*
X142721646Y-83944631D01*
X142790184Y-83848636D01*
X142854284Y-83758527D01*
X142912775Y-83675936D01*
X142964486Y-83602492D01*
X143008247Y-83539824D01*
X143042885Y-83489561D01*
X143067230Y-83453334D01*
X143080111Y-83432771D01*
X143081869Y-83428668D01*
X143073910Y-83417342D01*
X143053115Y-83390162D01*
X143020847Y-83348829D01*
X142978470Y-83295044D01*
X142927347Y-83230506D01*
X142868841Y-83156918D01*
X142804314Y-83075978D01*
X142735131Y-82989388D01*
X142662653Y-82898848D01*
X142588246Y-82806060D01*
X142528517Y-82731702D01*
X141517511Y-82731702D01*
X141511602Y-82744659D01*
X141497272Y-82766908D01*
X141496225Y-82768391D01*
X141477438Y-82798544D01*
X141457791Y-82835375D01*
X141453892Y-82843511D01*
X141450356Y-82851940D01*
X141447230Y-82862059D01*
X141444486Y-82875260D01*
X141442092Y-82892938D01*
X141440019Y-82916484D01*
X141438235Y-82947293D01*
X141436712Y-82986757D01*
X141435419Y-83036269D01*
X141434326Y-83097223D01*
X141433403Y-83171011D01*
X141432619Y-83259028D01*
X141431945Y-83362665D01*
X141431350Y-83483316D01*
X141430805Y-83622374D01*
X141430279Y-83781232D01*
X141429745Y-83960089D01*
X141429206Y-84145207D01*
X141428772Y-84309145D01*
X141428509Y-84453303D01*
X141428484Y-84579079D01*
X141428765Y-84687871D01*
X141429419Y-84781077D01*
X141430514Y-84860097D01*
X141432118Y-84926328D01*
X141434297Y-84981170D01*
X141437119Y-85026021D01*
X141440651Y-85062278D01*
X141444961Y-85091341D01*
X141450117Y-85114609D01*
X141456185Y-85133479D01*
X141463233Y-85149351D01*
X141471329Y-85163622D01*
X141480540Y-85177691D01*
X141489040Y-85190158D01*
X141506176Y-85216452D01*
X141516322Y-85234037D01*
X141517511Y-85237257D01*
X141506604Y-85238334D01*
X141475411Y-85239335D01*
X141426223Y-85240235D01*
X141361333Y-85241010D01*
X141283030Y-85241637D01*
X141193607Y-85242091D01*
X141095356Y-85242349D01*
X141026445Y-85242400D01*
X140921452Y-85242180D01*
X140824610Y-85241548D01*
X140738107Y-85240549D01*
X140664132Y-85239227D01*
X140604874Y-85237626D01*
X140562520Y-85235791D01*
X140539260Y-85233765D01*
X140535378Y-85232493D01*
X140543076Y-85217591D01*
X140551074Y-85209560D01*
X140564246Y-85192434D01*
X140581485Y-85162183D01*
X140593407Y-85137622D01*
X140620045Y-85078711D01*
X140623120Y-83901845D01*
X140626195Y-82724978D01*
X141071853Y-82724978D01*
X141169670Y-82725142D01*
X141260064Y-82725611D01*
X141340630Y-82726347D01*
X141408962Y-82727316D01*
X141462656Y-82728480D01*
X141499305Y-82729803D01*
X141516504Y-82731249D01*
X141517511Y-82731702D01*
X142528517Y-82731702D01*
X142513270Y-82712722D01*
X142439090Y-82620537D01*
X142367069Y-82531204D01*
X142298569Y-82446424D01*
X142234955Y-82367898D01*
X142177588Y-82297326D01*
X142127833Y-82236409D01*
X142087052Y-82186847D01*
X142069888Y-82166178D01*
X141983596Y-82065516D01*
X141906997Y-81982259D01*
X141838183Y-81914438D01*
X141775248Y-81860089D01*
X141765867Y-81852722D01*
X141726356Y-81822117D01*
X142858116Y-81821867D01*
X142852827Y-81869844D01*
X142856130Y-81927188D01*
X142877661Y-81995463D01*
X142917635Y-82075212D01*
X142962943Y-82147495D01*
X142979161Y-82170140D01*
X143007214Y-82207696D01*
X143045430Y-82258021D01*
X143092137Y-82318973D01*
X143145661Y-82388411D01*
X143204331Y-82464194D01*
X143266475Y-82544180D01*
X143330421Y-82626228D01*
X143394495Y-82708196D01*
X143457027Y-82787943D01*
X143516343Y-82863327D01*
X143570771Y-82932207D01*
X143618639Y-82992442D01*
X143658275Y-83041889D01*
X143688006Y-83078408D01*
X143706161Y-83099858D01*
X143709220Y-83103156D01*
X143712079Y-83095149D01*
X143714293Y-83064855D01*
X143715857Y-83012556D01*
X143716767Y-82938531D01*
X143717020Y-82843063D01*
X143716613Y-82726434D01*
X143715704Y-82606445D01*
X143714382Y-82474333D01*
X143712857Y-82362594D01*
X143710881Y-82269025D01*
X143708206Y-82191419D01*
X143704582Y-82127574D01*
X143699761Y-82075283D01*
X143693494Y-82032344D01*
X143685532Y-81996551D01*
X143675627Y-81965700D01*
X143663531Y-81937586D01*
X143648993Y-81910005D01*
X143634311Y-81884966D01*
X143596314Y-81821867D01*
X144656197Y-81821867D01*
X144959034Y-81821867D01*
X144959001Y-81815617D01*
X144958195Y-81713544D01*
X144957170Y-81624633D01*
X144955900Y-81547941D01*
X144954360Y-81482527D01*
X144952524Y-81427449D01*
X144950367Y-81381765D01*
X144947863Y-81344534D01*
X144944987Y-81314813D01*
X144941713Y-81291662D01*
X144938015Y-81274139D01*
X144933869Y-81261301D01*
X144929247Y-81252208D01*
X144924126Y-81245918D01*
X144918478Y-81241488D01*
X144912279Y-81237978D01*
X144905504Y-81234445D01*
X144899508Y-81230876D01*
X144894275Y-81228300D01*
X144886099Y-81225972D01*
X144873886Y-81223878D01*
X144856541Y-81222007D01*
X144832969Y-81220347D01*
X144802077Y-81218884D01*
X144762768Y-81217608D01*
X144713950Y-81216504D01*
X144654527Y-81215561D01*
X144583404Y-81214767D01*
X144499488Y-81214109D01*
X144401683Y-81213575D01*
X144288894Y-81213153D01*
X144160029Y-81212829D01*
X144013991Y-81212592D01*
X143849686Y-81212430D01*
X143666020Y-81212330D01*
X143461897Y-81212280D01*
X143250753Y-81212267D01*
X141630400Y-81212267D01*
X141630400Y-81309054D01*
%TO.C,LOGO1*%
G36*
X135156386Y-70417731D02*
G01*
X135072565Y-70862355D01*
X134763280Y-70989853D01*
X134453994Y-71117351D01*
X134082954Y-70865046D01*
X133979043Y-70794796D01*
X133885113Y-70732072D01*
X133805548Y-70679738D01*
X133744730Y-70640657D01*
X133707043Y-70617693D01*
X133696779Y-70612742D01*
X133678290Y-70625476D01*
X133638780Y-70660682D01*
X133582678Y-70713862D01*
X133514413Y-70780518D01*
X133438414Y-70856154D01*
X133359108Y-70936272D01*
X133280925Y-71016374D01*
X133208293Y-71091964D01*
X133145641Y-71158545D01*
X133097397Y-71211618D01*
X133067990Y-71246687D01*
X133060959Y-71258423D01*
X133071077Y-71280060D01*
X133099441Y-71327462D01*
X133143071Y-71395993D01*
X133198982Y-71481015D01*
X133264194Y-71577893D01*
X133301981Y-71633150D01*
X133370857Y-71734048D01*
X133432060Y-71825099D01*
X133482622Y-71901770D01*
X133519572Y-71959528D01*
X133539942Y-71993843D01*
X133543003Y-72001054D01*
X133536064Y-72021548D01*
X133517149Y-72069313D01*
X133489113Y-72137632D01*
X133454809Y-72219789D01*
X133417091Y-72309070D01*
X133378813Y-72398758D01*
X133342830Y-72482138D01*
X133311994Y-72552494D01*
X133289161Y-72603110D01*
X133277183Y-72627271D01*
X133276476Y-72628222D01*
X133257669Y-72632836D01*
X133207582Y-72643128D01*
X133131407Y-72658087D01*
X133034335Y-72676701D01*
X132921557Y-72697959D01*
X132855758Y-72710218D01*
X132735250Y-72733162D01*
X132626403Y-72754995D01*
X132534724Y-72774522D01*
X132465719Y-72790548D01*
X132424896Y-72801879D01*
X132416689Y-72805474D01*
X132408652Y-72829806D01*
X132402167Y-72884759D01*
X132397230Y-72963908D01*
X132393836Y-73060826D01*
X132391982Y-73169087D01*
X132391662Y-73282265D01*
X132392873Y-73393935D01*
X132395610Y-73497668D01*
X132399869Y-73587041D01*
X132405645Y-73655626D01*
X132412933Y-73696997D01*
X132417305Y-73705610D01*
X132443436Y-73715933D01*
X132498807Y-73730692D01*
X132576093Y-73748152D01*
X132667970Y-73766580D01*
X132700042Y-73772541D01*
X132854676Y-73800866D01*
X132976825Y-73823676D01*
X133070527Y-73841880D01*
X133139816Y-73856383D01*
X133188729Y-73868092D01*
X133221303Y-73877915D01*
X133241572Y-73886756D01*
X133253574Y-73895524D01*
X133255253Y-73897257D01*
X133272016Y-73925171D01*
X133297586Y-73979495D01*
X133329412Y-74053577D01*
X133364940Y-74140765D01*
X133401617Y-74234408D01*
X133436889Y-74327852D01*
X133468204Y-74414447D01*
X133493007Y-74487540D01*
X133508746Y-74540478D01*
X133512868Y-74566611D01*
X133512524Y-74567526D01*
X133498559Y-74588886D01*
X133466878Y-74635884D01*
X133420809Y-74703627D01*
X133363682Y-74787223D01*
X133298827Y-74881782D01*
X133280357Y-74908654D01*
X133214501Y-75006075D01*
X133156550Y-75094963D01*
X133109662Y-75170212D01*
X133076993Y-75226720D01*
X133061700Y-75259381D01*
X133060959Y-75263393D01*
X133073808Y-75284484D01*
X133109312Y-75326264D01*
X133162907Y-75384245D01*
X133230029Y-75453935D01*
X133306113Y-75530845D01*
X133386596Y-75610483D01*
X133466913Y-75688361D01*
X133542501Y-75759986D01*
X133608795Y-75820870D01*
X133661231Y-75866521D01*
X133695245Y-75892450D01*
X133704655Y-75896683D01*
X133726557Y-75886712D01*
X133771400Y-75859820D01*
X133831879Y-75820536D01*
X133878411Y-75788917D01*
X133962725Y-75730898D01*
X134062574Y-75662584D01*
X134162727Y-75594379D01*
X134216573Y-75557875D01*
X134398829Y-75434600D01*
X134551819Y-75517320D01*
X134621518Y-75553559D01*
X134680786Y-75581726D01*
X134720889Y-75597791D01*
X134731097Y-75600026D01*
X134743371Y-75583522D01*
X134767587Y-75536882D01*
X134801937Y-75464409D01*
X134844612Y-75370406D01*
X134893806Y-75259174D01*
X134947710Y-75135015D01*
X135004516Y-75002232D01*
X135062418Y-74865127D01*
X135119607Y-74728002D01*
X135174276Y-74595158D01*
X135224616Y-74470898D01*
X135268820Y-74359525D01*
X135305081Y-74265339D01*
X135331591Y-74192644D01*
X135346542Y-74145741D01*
X135348946Y-74129633D01*
X135329889Y-74109086D01*
X135288164Y-74075733D01*
X135232494Y-74036502D01*
X135227822Y-74033399D01*
X135083936Y-73918223D01*
X134967917Y-73783853D01*
X134880770Y-73634584D01*
X134823501Y-73474713D01*
X134797114Y-73308537D01*
X134802615Y-73140352D01*
X134841010Y-72974455D01*
X134913305Y-72815142D01*
X134934574Y-72780287D01*
X135045204Y-72639537D01*
X135175898Y-72526514D01*
X135322136Y-72441803D01*
X135479392Y-72385994D01*
X135643143Y-72359674D01*
X135808867Y-72363430D01*
X135972038Y-72397850D01*
X136128135Y-72463523D01*
X136272633Y-72561035D01*
X136317331Y-72600613D01*
X136431088Y-72724503D01*
X136513982Y-72854924D01*
X136570844Y-73001115D01*
X136602513Y-73145888D01*
X136610331Y-73308660D01*
X136584262Y-73472240D01*
X136526955Y-73631098D01*
X136441056Y-73779706D01*
X136329214Y-73912535D01*
X136194077Y-74024056D01*
X136176317Y-74035811D01*
X136120050Y-74074308D01*
X136077277Y-74107663D01*
X136056828Y-74128960D01*
X136056531Y-74129633D01*
X136060921Y-74152671D01*
X136078324Y-74204957D01*
X136106932Y-74282190D01*
X136144935Y-74380068D01*
X136190526Y-74494291D01*
X136241897Y-74620558D01*
X136297238Y-74754567D01*
X136354742Y-74892018D01*
X136412599Y-75028608D01*
X136469002Y-75160037D01*
X136522142Y-75282005D01*
X136570210Y-75390209D01*
X136611399Y-75480349D01*
X136643899Y-75548123D01*
X136665903Y-75589230D01*
X136674764Y-75600026D01*
X136701840Y-75591619D01*
X136752503Y-75569072D01*
X136818017Y-75536413D01*
X136854041Y-75517320D01*
X137007032Y-75434600D01*
X137189288Y-75557875D01*
X137282325Y-75621028D01*
X137384185Y-75690527D01*
X137479638Y-75755965D01*
X137527450Y-75788917D01*
X137594695Y-75834073D01*
X137651636Y-75869857D01*
X137690846Y-75891738D01*
X137703581Y-75896363D01*
X137722117Y-75883885D01*
X137763141Y-75849052D01*
X137822675Y-75795478D01*
X137896742Y-75726783D01*
X137981365Y-75646581D01*
X138034885Y-75595086D01*
X138128519Y-75503086D01*
X138209441Y-75420799D01*
X138274377Y-75351745D01*
X138320058Y-75299444D01*
X138343211Y-75267416D01*
X138345432Y-75260916D01*
X138335124Y-75236194D01*
X138306639Y-75186205D01*
X138263137Y-75116012D01*
X138207777Y-75030675D01*
X138143720Y-74935256D01*
X138125503Y-74908654D01*
X138059127Y-74811967D01*
X137999578Y-74724917D01*
X137950184Y-74652395D01*
X137914275Y-74599293D01*
X137895181Y-74570503D01*
X137893336Y-74567526D01*
X137896095Y-74544582D01*
X137910738Y-74494136D01*
X137934713Y-74422841D01*
X137965466Y-74337347D01*
X138000444Y-74244307D01*
X138037093Y-74150374D01*
X138072861Y-74062199D01*
X138105194Y-73986434D01*
X138131538Y-73929731D01*
X138149342Y-73898743D01*
X138150607Y-73897257D01*
X138161494Y-73888401D01*
X138179882Y-73879643D01*
X138209806Y-73870077D01*
X138255303Y-73858796D01*
X138320409Y-73844893D01*
X138409161Y-73827463D01*
X138525593Y-73805598D01*
X138673742Y-73778391D01*
X138705818Y-73772541D01*
X138800886Y-73754174D01*
X138883765Y-73736205D01*
X138947130Y-73720369D01*
X138983658Y-73708400D01*
X138988556Y-73705610D01*
X138996627Y-73680872D01*
X139003187Y-73625590D01*
X139008233Y-73546189D01*
X139011759Y-73449096D01*
X139013761Y-73340738D01*
X139014236Y-73227540D01*
X139013177Y-73115928D01*
X139010582Y-73012329D01*
X139006446Y-72923168D01*
X139000763Y-72854872D01*
X138993531Y-72813866D01*
X138989171Y-72805474D01*
X138964898Y-72797008D01*
X138909626Y-72783235D01*
X138828862Y-72765350D01*
X138728112Y-72744548D01*
X138612883Y-72722023D01*
X138550102Y-72710218D01*
X138430987Y-72687951D01*
X138324765Y-72667779D01*
X138236627Y-72650715D01*
X138171766Y-72637769D01*
X138135374Y-72629955D01*
X138129384Y-72628222D01*
X138119261Y-72608690D01*
X138097862Y-72561643D01*
X138068039Y-72493803D01*
X138032645Y-72411891D01*
X137994532Y-72322628D01*
X137956553Y-72232735D01*
X137921560Y-72148935D01*
X137892406Y-72077947D01*
X137871943Y-72026494D01*
X137863023Y-72001297D01*
X137862857Y-72000196D01*
X137872969Y-71980319D01*
X137901317Y-71934577D01*
X137944923Y-71867517D01*
X138000806Y-71783684D01*
X138065987Y-71687626D01*
X138103879Y-71632450D01*
X138172925Y-71531281D01*
X138234250Y-71439430D01*
X138284863Y-71361544D01*
X138321771Y-71302269D01*
X138341982Y-71266251D01*
X138344901Y-71258177D01*
X138332353Y-71239384D01*
X138297663Y-71199257D01*
X138245263Y-71142293D01*
X138179584Y-71072985D01*
X138105056Y-70995831D01*
X138026113Y-70915325D01*
X137947183Y-70835963D01*
X137872700Y-70762240D01*
X137807094Y-70698652D01*
X137754796Y-70649694D01*
X137720239Y-70619861D01*
X137708678Y-70612742D01*
X137689854Y-70622753D01*
X137644831Y-70650878D01*
X137577987Y-70694254D01*
X137493699Y-70750018D01*
X137396344Y-70815306D01*
X137322907Y-70865046D01*
X136951867Y-71117351D01*
X136333295Y-70862355D01*
X136249475Y-70417731D01*
X136165654Y-69973107D01*
X135240206Y-69973107D01*
X135156386Y-70417731D01*
G37*
X135156386Y-70417731D02*
X135072565Y-70862355D01*
X134763280Y-70989853D01*
X134453994Y-71117351D01*
X134082954Y-70865046D01*
X133979043Y-70794796D01*
X133885113Y-70732072D01*
X133805548Y-70679738D01*
X133744730Y-70640657D01*
X133707043Y-70617693D01*
X133696779Y-70612742D01*
X133678290Y-70625476D01*
X133638780Y-70660682D01*
X133582678Y-70713862D01*
X133514413Y-70780518D01*
X133438414Y-70856154D01*
X133359108Y-70936272D01*
X133280925Y-71016374D01*
X133208293Y-71091964D01*
X133145641Y-71158545D01*
X133097397Y-71211618D01*
X133067990Y-71246687D01*
X133060959Y-71258423D01*
X133071077Y-71280060D01*
X133099441Y-71327462D01*
X133143071Y-71395993D01*
X133198982Y-71481015D01*
X133264194Y-71577893D01*
X133301981Y-71633150D01*
X133370857Y-71734048D01*
X133432060Y-71825099D01*
X133482622Y-71901770D01*
X133519572Y-71959528D01*
X133539942Y-71993843D01*
X133543003Y-72001054D01*
X133536064Y-72021548D01*
X133517149Y-72069313D01*
X133489113Y-72137632D01*
X133454809Y-72219789D01*
X133417091Y-72309070D01*
X133378813Y-72398758D01*
X133342830Y-72482138D01*
X133311994Y-72552494D01*
X133289161Y-72603110D01*
X133277183Y-72627271D01*
X133276476Y-72628222D01*
X133257669Y-72632836D01*
X133207582Y-72643128D01*
X133131407Y-72658087D01*
X133034335Y-72676701D01*
X132921557Y-72697959D01*
X132855758Y-72710218D01*
X132735250Y-72733162D01*
X132626403Y-72754995D01*
X132534724Y-72774522D01*
X132465719Y-72790548D01*
X132424896Y-72801879D01*
X132416689Y-72805474D01*
X132408652Y-72829806D01*
X132402167Y-72884759D01*
X132397230Y-72963908D01*
X132393836Y-73060826D01*
X132391982Y-73169087D01*
X132391662Y-73282265D01*
X132392873Y-73393935D01*
X132395610Y-73497668D01*
X132399869Y-73587041D01*
X132405645Y-73655626D01*
X132412933Y-73696997D01*
X132417305Y-73705610D01*
X132443436Y-73715933D01*
X132498807Y-73730692D01*
X132576093Y-73748152D01*
X132667970Y-73766580D01*
X132700042Y-73772541D01*
X132854676Y-73800866D01*
X132976825Y-73823676D01*
X133070527Y-73841880D01*
X133139816Y-73856383D01*
X133188729Y-73868092D01*
X133221303Y-73877915D01*
X133241572Y-73886756D01*
X133253574Y-73895524D01*
X133255253Y-73897257D01*
X133272016Y-73925171D01*
X133297586Y-73979495D01*
X133329412Y-74053577D01*
X133364940Y-74140765D01*
X133401617Y-74234408D01*
X133436889Y-74327852D01*
X133468204Y-74414447D01*
X133493007Y-74487540D01*
X133508746Y-74540478D01*
X133512868Y-74566611D01*
X133512524Y-74567526D01*
X133498559Y-74588886D01*
X133466878Y-74635884D01*
X133420809Y-74703627D01*
X133363682Y-74787223D01*
X133298827Y-74881782D01*
X133280357Y-74908654D01*
X133214501Y-75006075D01*
X133156550Y-75094963D01*
X133109662Y-75170212D01*
X133076993Y-75226720D01*
X133061700Y-75259381D01*
X133060959Y-75263393D01*
X133073808Y-75284484D01*
X133109312Y-75326264D01*
X133162907Y-75384245D01*
X133230029Y-75453935D01*
X133306113Y-75530845D01*
X133386596Y-75610483D01*
X133466913Y-75688361D01*
X133542501Y-75759986D01*
X133608795Y-75820870D01*
X133661231Y-75866521D01*
X133695245Y-75892450D01*
X133704655Y-75896683D01*
X133726557Y-75886712D01*
X133771400Y-75859820D01*
X133831879Y-75820536D01*
X133878411Y-75788917D01*
X133962725Y-75730898D01*
X134062574Y-75662584D01*
X134162727Y-75594379D01*
X134216573Y-75557875D01*
X134398829Y-75434600D01*
X134551819Y-75517320D01*
X134621518Y-75553559D01*
X134680786Y-75581726D01*
X134720889Y-75597791D01*
X134731097Y-75600026D01*
X134743371Y-75583522D01*
X134767587Y-75536882D01*
X134801937Y-75464409D01*
X134844612Y-75370406D01*
X134893806Y-75259174D01*
X134947710Y-75135015D01*
X135004516Y-75002232D01*
X135062418Y-74865127D01*
X135119607Y-74728002D01*
X135174276Y-74595158D01*
X135224616Y-74470898D01*
X135268820Y-74359525D01*
X135305081Y-74265339D01*
X135331591Y-74192644D01*
X135346542Y-74145741D01*
X135348946Y-74129633D01*
X135329889Y-74109086D01*
X135288164Y-74075733D01*
X135232494Y-74036502D01*
X135227822Y-74033399D01*
X135083936Y-73918223D01*
X134967917Y-73783853D01*
X134880770Y-73634584D01*
X134823501Y-73474713D01*
X134797114Y-73308537D01*
X134802615Y-73140352D01*
X134841010Y-72974455D01*
X134913305Y-72815142D01*
X134934574Y-72780287D01*
X135045204Y-72639537D01*
X135175898Y-72526514D01*
X135322136Y-72441803D01*
X135479392Y-72385994D01*
X135643143Y-72359674D01*
X135808867Y-72363430D01*
X135972038Y-72397850D01*
X136128135Y-72463523D01*
X136272633Y-72561035D01*
X136317331Y-72600613D01*
X136431088Y-72724503D01*
X136513982Y-72854924D01*
X136570844Y-73001115D01*
X136602513Y-73145888D01*
X136610331Y-73308660D01*
X136584262Y-73472240D01*
X136526955Y-73631098D01*
X136441056Y-73779706D01*
X136329214Y-73912535D01*
X136194077Y-74024056D01*
X136176317Y-74035811D01*
X136120050Y-74074308D01*
X136077277Y-74107663D01*
X136056828Y-74128960D01*
X136056531Y-74129633D01*
X136060921Y-74152671D01*
X136078324Y-74204957D01*
X136106932Y-74282190D01*
X136144935Y-74380068D01*
X136190526Y-74494291D01*
X136241897Y-74620558D01*
X136297238Y-74754567D01*
X136354742Y-74892018D01*
X136412599Y-75028608D01*
X136469002Y-75160037D01*
X136522142Y-75282005D01*
X136570210Y-75390209D01*
X136611399Y-75480349D01*
X136643899Y-75548123D01*
X136665903Y-75589230D01*
X136674764Y-75600026D01*
X136701840Y-75591619D01*
X136752503Y-75569072D01*
X136818017Y-75536413D01*
X136854041Y-75517320D01*
X137007032Y-75434600D01*
X137189288Y-75557875D01*
X137282325Y-75621028D01*
X137384185Y-75690527D01*
X137479638Y-75755965D01*
X137527450Y-75788917D01*
X137594695Y-75834073D01*
X137651636Y-75869857D01*
X137690846Y-75891738D01*
X137703581Y-75896363D01*
X137722117Y-75883885D01*
X137763141Y-75849052D01*
X137822675Y-75795478D01*
X137896742Y-75726783D01*
X137981365Y-75646581D01*
X138034885Y-75595086D01*
X138128519Y-75503086D01*
X138209441Y-75420799D01*
X138274377Y-75351745D01*
X138320058Y-75299444D01*
X138343211Y-75267416D01*
X138345432Y-75260916D01*
X138335124Y-75236194D01*
X138306639Y-75186205D01*
X138263137Y-75116012D01*
X138207777Y-75030675D01*
X138143720Y-74935256D01*
X138125503Y-74908654D01*
X138059127Y-74811967D01*
X137999578Y-74724917D01*
X137950184Y-74652395D01*
X137914275Y-74599293D01*
X137895181Y-74570503D01*
X137893336Y-74567526D01*
X137896095Y-74544582D01*
X137910738Y-74494136D01*
X137934713Y-74422841D01*
X137965466Y-74337347D01*
X138000444Y-74244307D01*
X138037093Y-74150374D01*
X138072861Y-74062199D01*
X138105194Y-73986434D01*
X138131538Y-73929731D01*
X138149342Y-73898743D01*
X138150607Y-73897257D01*
X138161494Y-73888401D01*
X138179882Y-73879643D01*
X138209806Y-73870077D01*
X138255303Y-73858796D01*
X138320409Y-73844893D01*
X138409161Y-73827463D01*
X138525593Y-73805598D01*
X138673742Y-73778391D01*
X138705818Y-73772541D01*
X138800886Y-73754174D01*
X138883765Y-73736205D01*
X138947130Y-73720369D01*
X138983658Y-73708400D01*
X138988556Y-73705610D01*
X138996627Y-73680872D01*
X139003187Y-73625590D01*
X139008233Y-73546189D01*
X139011759Y-73449096D01*
X139013761Y-73340738D01*
X139014236Y-73227540D01*
X139013177Y-73115928D01*
X139010582Y-73012329D01*
X139006446Y-72923168D01*
X139000763Y-72854872D01*
X138993531Y-72813866D01*
X138989171Y-72805474D01*
X138964898Y-72797008D01*
X138909626Y-72783235D01*
X138828862Y-72765350D01*
X138728112Y-72744548D01*
X138612883Y-72722023D01*
X138550102Y-72710218D01*
X138430987Y-72687951D01*
X138324765Y-72667779D01*
X138236627Y-72650715D01*
X138171766Y-72637769D01*
X138135374Y-72629955D01*
X138129384Y-72628222D01*
X138119261Y-72608690D01*
X138097862Y-72561643D01*
X138068039Y-72493803D01*
X138032645Y-72411891D01*
X137994532Y-72322628D01*
X137956553Y-72232735D01*
X137921560Y-72148935D01*
X137892406Y-72077947D01*
X137871943Y-72026494D01*
X137863023Y-72001297D01*
X137862857Y-72000196D01*
X137872969Y-71980319D01*
X137901317Y-71934577D01*
X137944923Y-71867517D01*
X138000806Y-71783684D01*
X138065987Y-71687626D01*
X138103879Y-71632450D01*
X138172925Y-71531281D01*
X138234250Y-71439430D01*
X138284863Y-71361544D01*
X138321771Y-71302269D01*
X138341982Y-71266251D01*
X138344901Y-71258177D01*
X138332353Y-71239384D01*
X138297663Y-71199257D01*
X138245263Y-71142293D01*
X138179584Y-71072985D01*
X138105056Y-70995831D01*
X138026113Y-70915325D01*
X137947183Y-70835963D01*
X137872700Y-70762240D01*
X137807094Y-70698652D01*
X137754796Y-70649694D01*
X137720239Y-70619861D01*
X137708678Y-70612742D01*
X137689854Y-70622753D01*
X137644831Y-70650878D01*
X137577987Y-70694254D01*
X137493699Y-70750018D01*
X137396344Y-70815306D01*
X137322907Y-70865046D01*
X136951867Y-71117351D01*
X136333295Y-70862355D01*
X136249475Y-70417731D01*
X136165654Y-69973107D01*
X135240206Y-69973107D01*
X135156386Y-70417731D01*
%TD*%
M02*
