%TF.GenerationSoftware,KiCad,Pcbnew,5.1.6-c6e7f7d~87~ubuntu18.04.1*%
%TF.CreationDate,2020-09-21T00:51:10-07:00*%
%TF.ProjectId,feather-power-supply-sw-smd,66656174-6865-4722-9d70-6f7765722d73,rev?*%
%TF.SameCoordinates,Original*%
%TF.FileFunction,Soldermask,Bot*%
%TF.FilePolarity,Negative*%
%FSLAX46Y46*%
G04 Gerber Fmt 4.6, Leading zero omitted, Abs format (unit mm)*
G04 Created by KiCad (PCBNEW 5.1.6-c6e7f7d~87~ubuntu18.04.1) date 2020-09-21 00:51:10*
%MOMM*%
%LPD*%
G01*
G04 APERTURE LIST*
%ADD10C,0.150000*%
%ADD11C,2.801600*%
%ADD12O,1.801600X1.801600*%
%ADD13R,1.801600X1.801600*%
%ADD14R,2.701600X2.701600*%
%ADD15C,2.701600*%
%ADD16C,5.101600*%
G04 APERTURE END LIST*
D10*
X143184480Y-105612180D02*
X143273766Y-106326466D01*
X143339242Y-106469323D01*
X143446385Y-106564561D01*
X143595194Y-106612180D01*
X143690432Y-106612180D01*
X142434480Y-106088371D02*
X142767813Y-106088371D01*
X142833289Y-106612180D02*
X142708289Y-105612180D01*
X142232099Y-105612180D01*
X142017813Y-106564561D02*
X141880908Y-106612180D01*
X141642813Y-106612180D01*
X141541623Y-106564561D01*
X141488051Y-106516942D01*
X141428527Y-106421704D01*
X141416623Y-106326466D01*
X141452337Y-106231228D01*
X141494004Y-106183609D01*
X141583289Y-106135990D01*
X141767813Y-106088371D01*
X141857099Y-106040752D01*
X141898766Y-105993133D01*
X141934480Y-105897895D01*
X141922575Y-105802657D01*
X141863051Y-105707419D01*
X141809480Y-105659800D01*
X141708289Y-105612180D01*
X141470194Y-105612180D01*
X141333289Y-105659800D01*
X140595194Y-106612180D02*
X140529718Y-106088371D01*
X140565432Y-105993133D01*
X140654718Y-105945514D01*
X140845194Y-105945514D01*
X140946385Y-105993133D01*
X140589242Y-106564561D02*
X140690432Y-106612180D01*
X140928527Y-106612180D01*
X141017813Y-106564561D01*
X141053527Y-106469323D01*
X141041623Y-106374085D01*
X140982099Y-106278847D01*
X140880908Y-106231228D01*
X140642813Y-106231228D01*
X140541623Y-106183609D01*
X140119004Y-106612180D02*
X140035670Y-105945514D01*
X140059480Y-106135990D02*
X139999956Y-106040752D01*
X139946385Y-105993133D01*
X139845194Y-105945514D01*
X139749956Y-105945514D01*
X139071385Y-106612180D02*
X139005908Y-106088371D01*
X139041623Y-105993133D01*
X139130908Y-105945514D01*
X139321385Y-105945514D01*
X139422575Y-105993133D01*
X139065432Y-106564561D02*
X139166623Y-106612180D01*
X139404718Y-106612180D01*
X139494004Y-106564561D01*
X139529718Y-106469323D01*
X139517813Y-106374085D01*
X139458289Y-106278847D01*
X139357099Y-106231228D01*
X139119004Y-106231228D01*
X139017813Y-106183609D01*
X138160670Y-106564561D02*
X138261861Y-106612180D01*
X138452337Y-106612180D01*
X138541623Y-106564561D01*
X138583289Y-106516942D01*
X138619004Y-106421704D01*
X138583289Y-106135990D01*
X138523766Y-106040752D01*
X138470194Y-105993133D01*
X138369004Y-105945514D01*
X138178527Y-105945514D01*
X138089242Y-105993133D01*
X137351147Y-106564561D02*
X137452337Y-106612180D01*
X137642813Y-106612180D01*
X137732099Y-106564561D01*
X137767813Y-106469323D01*
X137720194Y-106088371D01*
X137660670Y-105993133D01*
X137559480Y-105945514D01*
X137369004Y-105945514D01*
X137279718Y-105993133D01*
X137244004Y-106088371D01*
X137255908Y-106183609D01*
X137744004Y-106278847D01*
X136797575Y-105945514D02*
X136880908Y-106612180D01*
X136809480Y-106040752D02*
X136755908Y-105993133D01*
X136654718Y-105945514D01*
X136511861Y-105945514D01*
X136422575Y-105993133D01*
X136386861Y-106088371D01*
X136452337Y-106612180D01*
X135833289Y-106612180D02*
X135922575Y-106564561D01*
X135964242Y-106516942D01*
X135999956Y-106421704D01*
X135964242Y-106135990D01*
X135904718Y-106040752D01*
X135851147Y-105993133D01*
X135749956Y-105945514D01*
X135607099Y-105945514D01*
X135517813Y-105993133D01*
X135476147Y-106040752D01*
X135440432Y-106135990D01*
X135476147Y-106421704D01*
X135535670Y-106516942D01*
X135589242Y-106564561D01*
X135690432Y-106612180D01*
X135833289Y-106612180D01*
X142398766Y-107262180D02*
X142303527Y-107262180D01*
X142214242Y-107309800D01*
X142172575Y-107357419D01*
X142136861Y-107452657D01*
X142113051Y-107643133D01*
X142142813Y-107881228D01*
X142214242Y-108071704D01*
X142273766Y-108166942D01*
X142327337Y-108214561D01*
X142428527Y-108262180D01*
X142523766Y-108262180D01*
X142613051Y-108214561D01*
X142654718Y-108166942D01*
X142690432Y-108071704D01*
X142714242Y-107881228D01*
X142684480Y-107643133D01*
X142613051Y-107452657D01*
X142553527Y-107357419D01*
X142499956Y-107309800D01*
X142398766Y-107262180D01*
X141714242Y-108262180D02*
X141523766Y-108262180D01*
X141422575Y-108214561D01*
X141369004Y-108166942D01*
X141255908Y-108024085D01*
X141184480Y-107833609D01*
X141136861Y-107452657D01*
X141172575Y-107357419D01*
X141214242Y-107309800D01*
X141303527Y-107262180D01*
X141494004Y-107262180D01*
X141595194Y-107309800D01*
X141648766Y-107357419D01*
X141708289Y-107452657D01*
X141738051Y-107690752D01*
X141702337Y-107785990D01*
X141660670Y-107833609D01*
X141571385Y-107881228D01*
X141380908Y-107881228D01*
X141279718Y-107833609D01*
X141226147Y-107785990D01*
X141166623Y-107690752D01*
X139964242Y-107214561D02*
X140982099Y-108500276D01*
X139696385Y-107357419D02*
X139642813Y-107309800D01*
X139541623Y-107262180D01*
X139303527Y-107262180D01*
X139214242Y-107309800D01*
X139172575Y-107357419D01*
X139136861Y-107452657D01*
X139148766Y-107547895D01*
X139214242Y-107690752D01*
X139857099Y-108262180D01*
X139238051Y-108262180D01*
X138494004Y-107262180D02*
X138398766Y-107262180D01*
X138309480Y-107309800D01*
X138267813Y-107357419D01*
X138232099Y-107452657D01*
X138208289Y-107643133D01*
X138238051Y-107881228D01*
X138309480Y-108071704D01*
X138369004Y-108166942D01*
X138422575Y-108214561D01*
X138523766Y-108262180D01*
X138619004Y-108262180D01*
X138708289Y-108214561D01*
X138749956Y-108166942D01*
X138785670Y-108071704D01*
X138809480Y-107881228D01*
X138779718Y-107643133D01*
X138708289Y-107452657D01*
X138648766Y-107357419D01*
X138595194Y-107309800D01*
X138494004Y-107262180D01*
X137791623Y-107357419D02*
X137738051Y-107309800D01*
X137636861Y-107262180D01*
X137398766Y-107262180D01*
X137309480Y-107309800D01*
X137267813Y-107357419D01*
X137232099Y-107452657D01*
X137244004Y-107547895D01*
X137309480Y-107690752D01*
X137952337Y-108262180D01*
X137333289Y-108262180D01*
X136589242Y-107262180D02*
X136494004Y-107262180D01*
X136404718Y-107309800D01*
X136363051Y-107357419D01*
X136327337Y-107452657D01*
X136303527Y-107643133D01*
X136333289Y-107881228D01*
X136404718Y-108071704D01*
X136464242Y-108166942D01*
X136517813Y-108214561D01*
X136619004Y-108262180D01*
X136714242Y-108262180D01*
X136803527Y-108214561D01*
X136845194Y-108166942D01*
X136880908Y-108071704D01*
X136904718Y-107881228D01*
X136874956Y-107643133D01*
X136803527Y-107452657D01*
X136744004Y-107357419D01*
X136690432Y-107309800D01*
X136589242Y-107262180D01*
D11*
%TO.C,H3*%
X148615400Y-107010200D03*
%TD*%
D12*
%TO.C,J5*%
X134874000Y-104063800D03*
X137414000Y-104063800D03*
X139954000Y-104063800D03*
D13*
X142494000Y-104063800D03*
%TD*%
D14*
%TO.C,J1*%
X142176500Y-64643000D03*
D15*
X137176500Y-64643000D03*
%TD*%
D16*
%TO.C,H2*%
X148615400Y-61671200D03*
%TD*%
%TO.C,H1*%
X130810000Y-61696600D03*
%TD*%
D11*
%TO.C,H4*%
X130810000Y-107010200D03*
%TD*%
D12*
%TO.C,J3*%
X129565400Y-104089200D03*
X129565400Y-101549200D03*
X129565400Y-99009200D03*
X129565400Y-96469200D03*
X129565400Y-93929200D03*
X129565400Y-91389200D03*
X129565400Y-88849200D03*
X129565400Y-86309200D03*
X129565400Y-83769200D03*
X129565400Y-81229200D03*
X129565400Y-78689200D03*
X129565400Y-76149200D03*
X129565400Y-73609200D03*
X129565400Y-71069200D03*
X129565400Y-68529200D03*
D13*
X129565400Y-65989200D03*
%TD*%
%TO.C,J2*%
X149885400Y-65989200D03*
D12*
X149885400Y-68529200D03*
X149885400Y-71069200D03*
X149885400Y-73609200D03*
X149885400Y-76149200D03*
X149885400Y-78689200D03*
X149885400Y-81229200D03*
X149885400Y-83769200D03*
X149885400Y-86309200D03*
X149885400Y-88849200D03*
X149885400Y-91389200D03*
X149885400Y-93929200D03*
%TD*%
M02*
