%TF.GenerationSoftware,KiCad,Pcbnew,5.1.6-c6e7f7d~87~ubuntu18.04.1*%
%TF.CreationDate,2020-09-21T00:51:10-07:00*%
%TF.ProjectId,feather-power-supply-sw-smd,66656174-6865-4722-9d70-6f7765722d73,rev?*%
%TF.SameCoordinates,Original*%
%TF.FileFunction,Legend,Bot*%
%TF.FilePolarity,Positive*%
%FSLAX46Y46*%
G04 Gerber Fmt 4.6, Leading zero omitted, Abs format (unit mm)*
G04 Created by KiCad (PCBNEW 5.1.6-c6e7f7d~87~ubuntu18.04.1) date 2020-09-21 00:51:10*
%MOMM*%
%LPD*%
G01*
G04 APERTURE LIST*
%ADD10C,0.010000*%
G04 APERTURE END LIST*
D10*
%TO.C,REF\u002A\u002A*%
G36*
X141376400Y-82579054D02*
G01*
X141365535Y-82692993D01*
X141333918Y-82800616D01*
X141283015Y-82899615D01*
X141214293Y-82987684D01*
X141129219Y-83062516D01*
X141032232Y-83120384D01*
X140925964Y-83160005D01*
X140818950Y-83178573D01*
X140713300Y-83177434D01*
X140611125Y-83157930D01*
X140514534Y-83121406D01*
X140425638Y-83069205D01*
X140346546Y-83002673D01*
X140279369Y-82923152D01*
X140226217Y-82831987D01*
X140189199Y-82730523D01*
X140170427Y-82620102D01*
X140168489Y-82570206D01*
X140168489Y-82482267D01*
X140116560Y-82482267D01*
X140080253Y-82485111D01*
X140053355Y-82496911D01*
X140026249Y-82520649D01*
X139987867Y-82559031D01*
X139987867Y-84750602D01*
X139987876Y-85012739D01*
X139987908Y-85253241D01*
X139987972Y-85473048D01*
X139988076Y-85673101D01*
X139988227Y-85854344D01*
X139988434Y-86017716D01*
X139988706Y-86164160D01*
X139989050Y-86294617D01*
X139989474Y-86410029D01*
X139989987Y-86511338D01*
X139990597Y-86599484D01*
X139991312Y-86675410D01*
X139992140Y-86740057D01*
X139993089Y-86794367D01*
X139994167Y-86839280D01*
X139995383Y-86875740D01*
X139996745Y-86904687D01*
X139998261Y-86927063D01*
X139999938Y-86943809D01*
X140001786Y-86955868D01*
X140003813Y-86964180D01*
X140006025Y-86969687D01*
X140007108Y-86971537D01*
X140011271Y-86978549D01*
X140014805Y-86984996D01*
X140018635Y-86990900D01*
X140023682Y-86996286D01*
X140030871Y-87001178D01*
X140041123Y-87005598D01*
X140055364Y-87009572D01*
X140074514Y-87013121D01*
X140099499Y-87016270D01*
X140131240Y-87019042D01*
X140170662Y-87021461D01*
X140218686Y-87023551D01*
X140276237Y-87025335D01*
X140344237Y-87026837D01*
X140423610Y-87028080D01*
X140515279Y-87029089D01*
X140620166Y-87029885D01*
X140739196Y-87030494D01*
X140873290Y-87030939D01*
X141023373Y-87031243D01*
X141190367Y-87031430D01*
X141375196Y-87031524D01*
X141578783Y-87031548D01*
X141802050Y-87031525D01*
X142045922Y-87031480D01*
X142311321Y-87031437D01*
X142349704Y-87031432D01*
X142616682Y-87031389D01*
X142862002Y-87031318D01*
X143086583Y-87031213D01*
X143291345Y-87031066D01*
X143477206Y-87030869D01*
X143645088Y-87030616D01*
X143795908Y-87030300D01*
X143930587Y-87029913D01*
X144050044Y-87029447D01*
X144155199Y-87028897D01*
X144246971Y-87028253D01*
X144326279Y-87027511D01*
X144394043Y-87026661D01*
X144451182Y-87025697D01*
X144498617Y-87024611D01*
X144537266Y-87023397D01*
X144568049Y-87022047D01*
X144591885Y-87020555D01*
X144609694Y-87018911D01*
X144622395Y-87017111D01*
X144630908Y-87015145D01*
X144635266Y-87013477D01*
X144643728Y-87009906D01*
X144651497Y-87007270D01*
X144658602Y-87004634D01*
X144665073Y-87001062D01*
X144670939Y-86995621D01*
X144676229Y-86987375D01*
X144680974Y-86975390D01*
X144685202Y-86958731D01*
X144688943Y-86936463D01*
X144692227Y-86907652D01*
X144695083Y-86871363D01*
X144697540Y-86826661D01*
X144699629Y-86772611D01*
X144701378Y-86708279D01*
X144702817Y-86632730D01*
X144703976Y-86545030D01*
X144704883Y-86444243D01*
X144705569Y-86329434D01*
X144706063Y-86199670D01*
X144706395Y-86054015D01*
X144706593Y-85891535D01*
X144706687Y-85711295D01*
X144706708Y-85512360D01*
X144706685Y-85293796D01*
X144706646Y-85054668D01*
X144706622Y-84794040D01*
X144706622Y-84751889D01*
X144706636Y-84488992D01*
X144706661Y-84247732D01*
X144706671Y-84027165D01*
X144706642Y-83826352D01*
X144706548Y-83644349D01*
X144706362Y-83480216D01*
X144706059Y-83333011D01*
X144705614Y-83201792D01*
X144705034Y-83091867D01*
X144402197Y-83091867D01*
X144362407Y-83149711D01*
X144351236Y-83165479D01*
X144341166Y-83179441D01*
X144332138Y-83192784D01*
X144324097Y-83206693D01*
X144316986Y-83222356D01*
X144310747Y-83240958D01*
X144305325Y-83263686D01*
X144300662Y-83291727D01*
X144296701Y-83326267D01*
X144293385Y-83368492D01*
X144290659Y-83419589D01*
X144288464Y-83480744D01*
X144286745Y-83553144D01*
X144285444Y-83637975D01*
X144284505Y-83736422D01*
X144283870Y-83849674D01*
X144283484Y-83978916D01*
X144283288Y-84125334D01*
X144283227Y-84290116D01*
X144283243Y-84474447D01*
X144283280Y-84679513D01*
X144283289Y-84802133D01*
X144283265Y-85019082D01*
X144283231Y-85214642D01*
X144283243Y-85389999D01*
X144283358Y-85546341D01*
X144283630Y-85684857D01*
X144284118Y-85806734D01*
X144284876Y-85913160D01*
X144285962Y-86005322D01*
X144287431Y-86084409D01*
X144289340Y-86151608D01*
X144291744Y-86208107D01*
X144294701Y-86255093D01*
X144298266Y-86293755D01*
X144302495Y-86325280D01*
X144307446Y-86350855D01*
X144313173Y-86371670D01*
X144319733Y-86388911D01*
X144327183Y-86403765D01*
X144335579Y-86417422D01*
X144344976Y-86431069D01*
X144355432Y-86445893D01*
X144361523Y-86454783D01*
X144400296Y-86512400D01*
X143868732Y-86512400D01*
X143745483Y-86512365D01*
X143642987Y-86512215D01*
X143559420Y-86511878D01*
X143492956Y-86511286D01*
X143441771Y-86510367D01*
X143404041Y-86509051D01*
X143377940Y-86507269D01*
X143361644Y-86504951D01*
X143353328Y-86502026D01*
X143351168Y-86498424D01*
X143353339Y-86494075D01*
X143354535Y-86492645D01*
X143379685Y-86455573D01*
X143405583Y-86402772D01*
X143429192Y-86340770D01*
X143437461Y-86314357D01*
X143442078Y-86296416D01*
X143445979Y-86275355D01*
X143449248Y-86249089D01*
X143451966Y-86215532D01*
X143454215Y-86172599D01*
X143456077Y-86118204D01*
X143457636Y-86050262D01*
X143458972Y-85966688D01*
X143460169Y-85865395D01*
X143461308Y-85744300D01*
X143461685Y-85699600D01*
X143462702Y-85574449D01*
X143463460Y-85470082D01*
X143463903Y-85384707D01*
X143463970Y-85316533D01*
X143463605Y-85263765D01*
X143462748Y-85224614D01*
X143461341Y-85197285D01*
X143459325Y-85179986D01*
X143456643Y-85170926D01*
X143453236Y-85168312D01*
X143449044Y-85170351D01*
X143444571Y-85174667D01*
X143434216Y-85187602D01*
X143412158Y-85216676D01*
X143379957Y-85259759D01*
X143339174Y-85314718D01*
X143291370Y-85379423D01*
X143238105Y-85451742D01*
X143180940Y-85529544D01*
X143121437Y-85610698D01*
X143061155Y-85693072D01*
X143001655Y-85774536D01*
X142944498Y-85852957D01*
X142891245Y-85926204D01*
X142843457Y-85992147D01*
X142802693Y-86048654D01*
X142770516Y-86093593D01*
X142748485Y-86124834D01*
X142743917Y-86131466D01*
X142720996Y-86168369D01*
X142694188Y-86216359D01*
X142668789Y-86265897D01*
X142665568Y-86272577D01*
X142643890Y-86320772D01*
X142631304Y-86358334D01*
X142625574Y-86394160D01*
X142624456Y-86436200D01*
X142625090Y-86512400D01*
X141470651Y-86512400D01*
X141561815Y-86418669D01*
X141608612Y-86368775D01*
X141658899Y-86312295D01*
X141704944Y-86258026D01*
X141725369Y-86232673D01*
X141755807Y-86193128D01*
X141795862Y-86139916D01*
X141844361Y-86074667D01*
X141900135Y-85999011D01*
X141962011Y-85914577D01*
X142028819Y-85822994D01*
X142099387Y-85725892D01*
X142172545Y-85624901D01*
X142247121Y-85521650D01*
X142321944Y-85417768D01*
X142395843Y-85314885D01*
X142467646Y-85214631D01*
X142536184Y-85118636D01*
X142600284Y-85028527D01*
X142658775Y-84945936D01*
X142710486Y-84872492D01*
X142754247Y-84809824D01*
X142788885Y-84759561D01*
X142813230Y-84723334D01*
X142826111Y-84702771D01*
X142827869Y-84698668D01*
X142819910Y-84687342D01*
X142799115Y-84660162D01*
X142766847Y-84618829D01*
X142724470Y-84565044D01*
X142673347Y-84500506D01*
X142614841Y-84426918D01*
X142550314Y-84345978D01*
X142481131Y-84259388D01*
X142408653Y-84168848D01*
X142334246Y-84076060D01*
X142274517Y-84001702D01*
X141263511Y-84001702D01*
X141257602Y-84014659D01*
X141243272Y-84036908D01*
X141242225Y-84038391D01*
X141223438Y-84068544D01*
X141203791Y-84105375D01*
X141199892Y-84113511D01*
X141196356Y-84121940D01*
X141193230Y-84132059D01*
X141190486Y-84145260D01*
X141188092Y-84162938D01*
X141186019Y-84186484D01*
X141184235Y-84217293D01*
X141182712Y-84256757D01*
X141181419Y-84306269D01*
X141180326Y-84367223D01*
X141179403Y-84441011D01*
X141178619Y-84529028D01*
X141177945Y-84632665D01*
X141177350Y-84753316D01*
X141176805Y-84892374D01*
X141176279Y-85051232D01*
X141175745Y-85230089D01*
X141175206Y-85415207D01*
X141174772Y-85579145D01*
X141174509Y-85723303D01*
X141174484Y-85849079D01*
X141174765Y-85957871D01*
X141175419Y-86051077D01*
X141176514Y-86130097D01*
X141178118Y-86196328D01*
X141180297Y-86251170D01*
X141183119Y-86296021D01*
X141186651Y-86332278D01*
X141190961Y-86361341D01*
X141196117Y-86384609D01*
X141202185Y-86403479D01*
X141209233Y-86419351D01*
X141217329Y-86433622D01*
X141226540Y-86447691D01*
X141235040Y-86460158D01*
X141252176Y-86486452D01*
X141262322Y-86504037D01*
X141263511Y-86507257D01*
X141252604Y-86508334D01*
X141221411Y-86509335D01*
X141172223Y-86510235D01*
X141107333Y-86511010D01*
X141029030Y-86511637D01*
X140939607Y-86512091D01*
X140841356Y-86512349D01*
X140772445Y-86512400D01*
X140667452Y-86512180D01*
X140570610Y-86511548D01*
X140484107Y-86510549D01*
X140410132Y-86509227D01*
X140350874Y-86507626D01*
X140308520Y-86505791D01*
X140285260Y-86503765D01*
X140281378Y-86502493D01*
X140289076Y-86487591D01*
X140297074Y-86479560D01*
X140310246Y-86462434D01*
X140327485Y-86432183D01*
X140339407Y-86407622D01*
X140366045Y-86348711D01*
X140369120Y-85171845D01*
X140372195Y-83994978D01*
X140817853Y-83994978D01*
X140915670Y-83995142D01*
X141006064Y-83995611D01*
X141086630Y-83996347D01*
X141154962Y-83997316D01*
X141208656Y-83998480D01*
X141245305Y-83999803D01*
X141262504Y-84001249D01*
X141263511Y-84001702D01*
X142274517Y-84001702D01*
X142259270Y-83982722D01*
X142185090Y-83890537D01*
X142113069Y-83801204D01*
X142044569Y-83716424D01*
X141980955Y-83637898D01*
X141923588Y-83567326D01*
X141873833Y-83506409D01*
X141833052Y-83456847D01*
X141815888Y-83436178D01*
X141729596Y-83335516D01*
X141652997Y-83252259D01*
X141584183Y-83184438D01*
X141521248Y-83130089D01*
X141511867Y-83122722D01*
X141472356Y-83092117D01*
X142604116Y-83091867D01*
X142598827Y-83139844D01*
X142602130Y-83197188D01*
X142623661Y-83265463D01*
X142663635Y-83345212D01*
X142708943Y-83417495D01*
X142725161Y-83440140D01*
X142753214Y-83477696D01*
X142791430Y-83528021D01*
X142838137Y-83588973D01*
X142891661Y-83658411D01*
X142950331Y-83734194D01*
X143012475Y-83814180D01*
X143076421Y-83896228D01*
X143140495Y-83978196D01*
X143203027Y-84057943D01*
X143262343Y-84133327D01*
X143316771Y-84202207D01*
X143364639Y-84262442D01*
X143404275Y-84311889D01*
X143434006Y-84348408D01*
X143452161Y-84369858D01*
X143455220Y-84373156D01*
X143458079Y-84365149D01*
X143460293Y-84334855D01*
X143461857Y-84282556D01*
X143462767Y-84208531D01*
X143463020Y-84113063D01*
X143462613Y-83996434D01*
X143461704Y-83876445D01*
X143460382Y-83744333D01*
X143458857Y-83632594D01*
X143456881Y-83539025D01*
X143454206Y-83461419D01*
X143450582Y-83397574D01*
X143445761Y-83345283D01*
X143439494Y-83302344D01*
X143431532Y-83266551D01*
X143421627Y-83235700D01*
X143409531Y-83207586D01*
X143394993Y-83180005D01*
X143380311Y-83154966D01*
X143342314Y-83091867D01*
X144402197Y-83091867D01*
X144705034Y-83091867D01*
X144705001Y-83085617D01*
X144704195Y-82983544D01*
X144703170Y-82894633D01*
X144701900Y-82817941D01*
X144700360Y-82752527D01*
X144698524Y-82697449D01*
X144696367Y-82651765D01*
X144693863Y-82614534D01*
X144690987Y-82584813D01*
X144687713Y-82561662D01*
X144684015Y-82544139D01*
X144679869Y-82531301D01*
X144675247Y-82522208D01*
X144670126Y-82515918D01*
X144664478Y-82511488D01*
X144658279Y-82507978D01*
X144651504Y-82504445D01*
X144645508Y-82500876D01*
X144640275Y-82498300D01*
X144632099Y-82495972D01*
X144619886Y-82493878D01*
X144602541Y-82492007D01*
X144578969Y-82490347D01*
X144548077Y-82488884D01*
X144508768Y-82487608D01*
X144459950Y-82486504D01*
X144400527Y-82485561D01*
X144329404Y-82484767D01*
X144245488Y-82484109D01*
X144147683Y-82483575D01*
X144034894Y-82483153D01*
X143906029Y-82482829D01*
X143759991Y-82482592D01*
X143595686Y-82482430D01*
X143412020Y-82482330D01*
X143207897Y-82482280D01*
X142996753Y-82482267D01*
X141376400Y-82482267D01*
X141376400Y-82579054D01*
G37*
X141376400Y-82579054D02*
X141365535Y-82692993D01*
X141333918Y-82800616D01*
X141283015Y-82899615D01*
X141214293Y-82987684D01*
X141129219Y-83062516D01*
X141032232Y-83120384D01*
X140925964Y-83160005D01*
X140818950Y-83178573D01*
X140713300Y-83177434D01*
X140611125Y-83157930D01*
X140514534Y-83121406D01*
X140425638Y-83069205D01*
X140346546Y-83002673D01*
X140279369Y-82923152D01*
X140226217Y-82831987D01*
X140189199Y-82730523D01*
X140170427Y-82620102D01*
X140168489Y-82570206D01*
X140168489Y-82482267D01*
X140116560Y-82482267D01*
X140080253Y-82485111D01*
X140053355Y-82496911D01*
X140026249Y-82520649D01*
X139987867Y-82559031D01*
X139987867Y-84750602D01*
X139987876Y-85012739D01*
X139987908Y-85253241D01*
X139987972Y-85473048D01*
X139988076Y-85673101D01*
X139988227Y-85854344D01*
X139988434Y-86017716D01*
X139988706Y-86164160D01*
X139989050Y-86294617D01*
X139989474Y-86410029D01*
X139989987Y-86511338D01*
X139990597Y-86599484D01*
X139991312Y-86675410D01*
X139992140Y-86740057D01*
X139993089Y-86794367D01*
X139994167Y-86839280D01*
X139995383Y-86875740D01*
X139996745Y-86904687D01*
X139998261Y-86927063D01*
X139999938Y-86943809D01*
X140001786Y-86955868D01*
X140003813Y-86964180D01*
X140006025Y-86969687D01*
X140007108Y-86971537D01*
X140011271Y-86978549D01*
X140014805Y-86984996D01*
X140018635Y-86990900D01*
X140023682Y-86996286D01*
X140030871Y-87001178D01*
X140041123Y-87005598D01*
X140055364Y-87009572D01*
X140074514Y-87013121D01*
X140099499Y-87016270D01*
X140131240Y-87019042D01*
X140170662Y-87021461D01*
X140218686Y-87023551D01*
X140276237Y-87025335D01*
X140344237Y-87026837D01*
X140423610Y-87028080D01*
X140515279Y-87029089D01*
X140620166Y-87029885D01*
X140739196Y-87030494D01*
X140873290Y-87030939D01*
X141023373Y-87031243D01*
X141190367Y-87031430D01*
X141375196Y-87031524D01*
X141578783Y-87031548D01*
X141802050Y-87031525D01*
X142045922Y-87031480D01*
X142311321Y-87031437D01*
X142349704Y-87031432D01*
X142616682Y-87031389D01*
X142862002Y-87031318D01*
X143086583Y-87031213D01*
X143291345Y-87031066D01*
X143477206Y-87030869D01*
X143645088Y-87030616D01*
X143795908Y-87030300D01*
X143930587Y-87029913D01*
X144050044Y-87029447D01*
X144155199Y-87028897D01*
X144246971Y-87028253D01*
X144326279Y-87027511D01*
X144394043Y-87026661D01*
X144451182Y-87025697D01*
X144498617Y-87024611D01*
X144537266Y-87023397D01*
X144568049Y-87022047D01*
X144591885Y-87020555D01*
X144609694Y-87018911D01*
X144622395Y-87017111D01*
X144630908Y-87015145D01*
X144635266Y-87013477D01*
X144643728Y-87009906D01*
X144651497Y-87007270D01*
X144658602Y-87004634D01*
X144665073Y-87001062D01*
X144670939Y-86995621D01*
X144676229Y-86987375D01*
X144680974Y-86975390D01*
X144685202Y-86958731D01*
X144688943Y-86936463D01*
X144692227Y-86907652D01*
X144695083Y-86871363D01*
X144697540Y-86826661D01*
X144699629Y-86772611D01*
X144701378Y-86708279D01*
X144702817Y-86632730D01*
X144703976Y-86545030D01*
X144704883Y-86444243D01*
X144705569Y-86329434D01*
X144706063Y-86199670D01*
X144706395Y-86054015D01*
X144706593Y-85891535D01*
X144706687Y-85711295D01*
X144706708Y-85512360D01*
X144706685Y-85293796D01*
X144706646Y-85054668D01*
X144706622Y-84794040D01*
X144706622Y-84751889D01*
X144706636Y-84488992D01*
X144706661Y-84247732D01*
X144706671Y-84027165D01*
X144706642Y-83826352D01*
X144706548Y-83644349D01*
X144706362Y-83480216D01*
X144706059Y-83333011D01*
X144705614Y-83201792D01*
X144705034Y-83091867D01*
X144402197Y-83091867D01*
X144362407Y-83149711D01*
X144351236Y-83165479D01*
X144341166Y-83179441D01*
X144332138Y-83192784D01*
X144324097Y-83206693D01*
X144316986Y-83222356D01*
X144310747Y-83240958D01*
X144305325Y-83263686D01*
X144300662Y-83291727D01*
X144296701Y-83326267D01*
X144293385Y-83368492D01*
X144290659Y-83419589D01*
X144288464Y-83480744D01*
X144286745Y-83553144D01*
X144285444Y-83637975D01*
X144284505Y-83736422D01*
X144283870Y-83849674D01*
X144283484Y-83978916D01*
X144283288Y-84125334D01*
X144283227Y-84290116D01*
X144283243Y-84474447D01*
X144283280Y-84679513D01*
X144283289Y-84802133D01*
X144283265Y-85019082D01*
X144283231Y-85214642D01*
X144283243Y-85389999D01*
X144283358Y-85546341D01*
X144283630Y-85684857D01*
X144284118Y-85806734D01*
X144284876Y-85913160D01*
X144285962Y-86005322D01*
X144287431Y-86084409D01*
X144289340Y-86151608D01*
X144291744Y-86208107D01*
X144294701Y-86255093D01*
X144298266Y-86293755D01*
X144302495Y-86325280D01*
X144307446Y-86350855D01*
X144313173Y-86371670D01*
X144319733Y-86388911D01*
X144327183Y-86403765D01*
X144335579Y-86417422D01*
X144344976Y-86431069D01*
X144355432Y-86445893D01*
X144361523Y-86454783D01*
X144400296Y-86512400D01*
X143868732Y-86512400D01*
X143745483Y-86512365D01*
X143642987Y-86512215D01*
X143559420Y-86511878D01*
X143492956Y-86511286D01*
X143441771Y-86510367D01*
X143404041Y-86509051D01*
X143377940Y-86507269D01*
X143361644Y-86504951D01*
X143353328Y-86502026D01*
X143351168Y-86498424D01*
X143353339Y-86494075D01*
X143354535Y-86492645D01*
X143379685Y-86455573D01*
X143405583Y-86402772D01*
X143429192Y-86340770D01*
X143437461Y-86314357D01*
X143442078Y-86296416D01*
X143445979Y-86275355D01*
X143449248Y-86249089D01*
X143451966Y-86215532D01*
X143454215Y-86172599D01*
X143456077Y-86118204D01*
X143457636Y-86050262D01*
X143458972Y-85966688D01*
X143460169Y-85865395D01*
X143461308Y-85744300D01*
X143461685Y-85699600D01*
X143462702Y-85574449D01*
X143463460Y-85470082D01*
X143463903Y-85384707D01*
X143463970Y-85316533D01*
X143463605Y-85263765D01*
X143462748Y-85224614D01*
X143461341Y-85197285D01*
X143459325Y-85179986D01*
X143456643Y-85170926D01*
X143453236Y-85168312D01*
X143449044Y-85170351D01*
X143444571Y-85174667D01*
X143434216Y-85187602D01*
X143412158Y-85216676D01*
X143379957Y-85259759D01*
X143339174Y-85314718D01*
X143291370Y-85379423D01*
X143238105Y-85451742D01*
X143180940Y-85529544D01*
X143121437Y-85610698D01*
X143061155Y-85693072D01*
X143001655Y-85774536D01*
X142944498Y-85852957D01*
X142891245Y-85926204D01*
X142843457Y-85992147D01*
X142802693Y-86048654D01*
X142770516Y-86093593D01*
X142748485Y-86124834D01*
X142743917Y-86131466D01*
X142720996Y-86168369D01*
X142694188Y-86216359D01*
X142668789Y-86265897D01*
X142665568Y-86272577D01*
X142643890Y-86320772D01*
X142631304Y-86358334D01*
X142625574Y-86394160D01*
X142624456Y-86436200D01*
X142625090Y-86512400D01*
X141470651Y-86512400D01*
X141561815Y-86418669D01*
X141608612Y-86368775D01*
X141658899Y-86312295D01*
X141704944Y-86258026D01*
X141725369Y-86232673D01*
X141755807Y-86193128D01*
X141795862Y-86139916D01*
X141844361Y-86074667D01*
X141900135Y-85999011D01*
X141962011Y-85914577D01*
X142028819Y-85822994D01*
X142099387Y-85725892D01*
X142172545Y-85624901D01*
X142247121Y-85521650D01*
X142321944Y-85417768D01*
X142395843Y-85314885D01*
X142467646Y-85214631D01*
X142536184Y-85118636D01*
X142600284Y-85028527D01*
X142658775Y-84945936D01*
X142710486Y-84872492D01*
X142754247Y-84809824D01*
X142788885Y-84759561D01*
X142813230Y-84723334D01*
X142826111Y-84702771D01*
X142827869Y-84698668D01*
X142819910Y-84687342D01*
X142799115Y-84660162D01*
X142766847Y-84618829D01*
X142724470Y-84565044D01*
X142673347Y-84500506D01*
X142614841Y-84426918D01*
X142550314Y-84345978D01*
X142481131Y-84259388D01*
X142408653Y-84168848D01*
X142334246Y-84076060D01*
X142274517Y-84001702D01*
X141263511Y-84001702D01*
X141257602Y-84014659D01*
X141243272Y-84036908D01*
X141242225Y-84038391D01*
X141223438Y-84068544D01*
X141203791Y-84105375D01*
X141199892Y-84113511D01*
X141196356Y-84121940D01*
X141193230Y-84132059D01*
X141190486Y-84145260D01*
X141188092Y-84162938D01*
X141186019Y-84186484D01*
X141184235Y-84217293D01*
X141182712Y-84256757D01*
X141181419Y-84306269D01*
X141180326Y-84367223D01*
X141179403Y-84441011D01*
X141178619Y-84529028D01*
X141177945Y-84632665D01*
X141177350Y-84753316D01*
X141176805Y-84892374D01*
X141176279Y-85051232D01*
X141175745Y-85230089D01*
X141175206Y-85415207D01*
X141174772Y-85579145D01*
X141174509Y-85723303D01*
X141174484Y-85849079D01*
X141174765Y-85957871D01*
X141175419Y-86051077D01*
X141176514Y-86130097D01*
X141178118Y-86196328D01*
X141180297Y-86251170D01*
X141183119Y-86296021D01*
X141186651Y-86332278D01*
X141190961Y-86361341D01*
X141196117Y-86384609D01*
X141202185Y-86403479D01*
X141209233Y-86419351D01*
X141217329Y-86433622D01*
X141226540Y-86447691D01*
X141235040Y-86460158D01*
X141252176Y-86486452D01*
X141262322Y-86504037D01*
X141263511Y-86507257D01*
X141252604Y-86508334D01*
X141221411Y-86509335D01*
X141172223Y-86510235D01*
X141107333Y-86511010D01*
X141029030Y-86511637D01*
X140939607Y-86512091D01*
X140841356Y-86512349D01*
X140772445Y-86512400D01*
X140667452Y-86512180D01*
X140570610Y-86511548D01*
X140484107Y-86510549D01*
X140410132Y-86509227D01*
X140350874Y-86507626D01*
X140308520Y-86505791D01*
X140285260Y-86503765D01*
X140281378Y-86502493D01*
X140289076Y-86487591D01*
X140297074Y-86479560D01*
X140310246Y-86462434D01*
X140327485Y-86432183D01*
X140339407Y-86407622D01*
X140366045Y-86348711D01*
X140369120Y-85171845D01*
X140372195Y-83994978D01*
X140817853Y-83994978D01*
X140915670Y-83995142D01*
X141006064Y-83995611D01*
X141086630Y-83996347D01*
X141154962Y-83997316D01*
X141208656Y-83998480D01*
X141245305Y-83999803D01*
X141262504Y-84001249D01*
X141263511Y-84001702D01*
X142274517Y-84001702D01*
X142259270Y-83982722D01*
X142185090Y-83890537D01*
X142113069Y-83801204D01*
X142044569Y-83716424D01*
X141980955Y-83637898D01*
X141923588Y-83567326D01*
X141873833Y-83506409D01*
X141833052Y-83456847D01*
X141815888Y-83436178D01*
X141729596Y-83335516D01*
X141652997Y-83252259D01*
X141584183Y-83184438D01*
X141521248Y-83130089D01*
X141511867Y-83122722D01*
X141472356Y-83092117D01*
X142604116Y-83091867D01*
X142598827Y-83139844D01*
X142602130Y-83197188D01*
X142623661Y-83265463D01*
X142663635Y-83345212D01*
X142708943Y-83417495D01*
X142725161Y-83440140D01*
X142753214Y-83477696D01*
X142791430Y-83528021D01*
X142838137Y-83588973D01*
X142891661Y-83658411D01*
X142950331Y-83734194D01*
X143012475Y-83814180D01*
X143076421Y-83896228D01*
X143140495Y-83978196D01*
X143203027Y-84057943D01*
X143262343Y-84133327D01*
X143316771Y-84202207D01*
X143364639Y-84262442D01*
X143404275Y-84311889D01*
X143434006Y-84348408D01*
X143452161Y-84369858D01*
X143455220Y-84373156D01*
X143458079Y-84365149D01*
X143460293Y-84334855D01*
X143461857Y-84282556D01*
X143462767Y-84208531D01*
X143463020Y-84113063D01*
X143462613Y-83996434D01*
X143461704Y-83876445D01*
X143460382Y-83744333D01*
X143458857Y-83632594D01*
X143456881Y-83539025D01*
X143454206Y-83461419D01*
X143450582Y-83397574D01*
X143445761Y-83345283D01*
X143439494Y-83302344D01*
X143431532Y-83266551D01*
X143421627Y-83235700D01*
X143409531Y-83207586D01*
X143394993Y-83180005D01*
X143380311Y-83154966D01*
X143342314Y-83091867D01*
X144402197Y-83091867D01*
X144705034Y-83091867D01*
X144705001Y-83085617D01*
X144704195Y-82983544D01*
X144703170Y-82894633D01*
X144701900Y-82817941D01*
X144700360Y-82752527D01*
X144698524Y-82697449D01*
X144696367Y-82651765D01*
X144693863Y-82614534D01*
X144690987Y-82584813D01*
X144687713Y-82561662D01*
X144684015Y-82544139D01*
X144679869Y-82531301D01*
X144675247Y-82522208D01*
X144670126Y-82515918D01*
X144664478Y-82511488D01*
X144658279Y-82507978D01*
X144651504Y-82504445D01*
X144645508Y-82500876D01*
X144640275Y-82498300D01*
X144632099Y-82495972D01*
X144619886Y-82493878D01*
X144602541Y-82492007D01*
X144578969Y-82490347D01*
X144548077Y-82488884D01*
X144508768Y-82487608D01*
X144459950Y-82486504D01*
X144400527Y-82485561D01*
X144329404Y-82484767D01*
X144245488Y-82484109D01*
X144147683Y-82483575D01*
X144034894Y-82483153D01*
X143906029Y-82482829D01*
X143759991Y-82482592D01*
X143595686Y-82482430D01*
X143412020Y-82482330D01*
X143207897Y-82482280D01*
X142996753Y-82482267D01*
X141376400Y-82482267D01*
X141376400Y-82579054D01*
G36*
X138101571Y-83039071D02*
G01*
X137941430Y-83060245D01*
X137777490Y-83100385D01*
X137607687Y-83159889D01*
X137429957Y-83239154D01*
X137418690Y-83244699D01*
X137360995Y-83272725D01*
X137309448Y-83296802D01*
X137267809Y-83315249D01*
X137239838Y-83326386D01*
X137230267Y-83328933D01*
X137211050Y-83333941D01*
X137206439Y-83338147D01*
X137211542Y-83348580D01*
X137227582Y-83374868D01*
X137252712Y-83414257D01*
X137285086Y-83463991D01*
X137322857Y-83521315D01*
X137364178Y-83583476D01*
X137407202Y-83647718D01*
X137450083Y-83711285D01*
X137490974Y-83771425D01*
X137528029Y-83825380D01*
X137559400Y-83870397D01*
X137583241Y-83903721D01*
X137597706Y-83922597D01*
X137599691Y-83924787D01*
X137609809Y-83920138D01*
X137632150Y-83902962D01*
X137662720Y-83876440D01*
X137678464Y-83861964D01*
X137774953Y-83786682D01*
X137881664Y-83731241D01*
X137997168Y-83696141D01*
X138120038Y-83681880D01*
X138189439Y-83683051D01*
X138310577Y-83700212D01*
X138419795Y-83736094D01*
X138517418Y-83790959D01*
X138603772Y-83865070D01*
X138679185Y-83958688D01*
X138743982Y-84072076D01*
X138781399Y-84158667D01*
X138825252Y-84294366D01*
X138857572Y-84441850D01*
X138878443Y-84597314D01*
X138887949Y-84756956D01*
X138886173Y-84916973D01*
X138873197Y-85073561D01*
X138849106Y-85222918D01*
X138813982Y-85361240D01*
X138767908Y-85484724D01*
X138751627Y-85518978D01*
X138683380Y-85633064D01*
X138602921Y-85729557D01*
X138511430Y-85807670D01*
X138410089Y-85866617D01*
X138300080Y-85905612D01*
X138182585Y-85923868D01*
X138141117Y-85925211D01*
X138019559Y-85914290D01*
X137899122Y-85881474D01*
X137781334Y-85827439D01*
X137667723Y-85752865D01*
X137576315Y-85674539D01*
X137529785Y-85630008D01*
X137348517Y-85927271D01*
X137303420Y-86001433D01*
X137262181Y-86069646D01*
X137226265Y-86129459D01*
X137197134Y-86178420D01*
X137176250Y-86214079D01*
X137165076Y-86233984D01*
X137163625Y-86237079D01*
X137171854Y-86246718D01*
X137197433Y-86263999D01*
X137237127Y-86287283D01*
X137287703Y-86314934D01*
X137345926Y-86345315D01*
X137408563Y-86376790D01*
X137472379Y-86407722D01*
X137534140Y-86436473D01*
X137590612Y-86461408D01*
X137638562Y-86480889D01*
X137662014Y-86489318D01*
X137795779Y-86527133D01*
X137933673Y-86552136D01*
X138081378Y-86565140D01*
X138208167Y-86567468D01*
X138276122Y-86566373D01*
X138341723Y-86564275D01*
X138399153Y-86561434D01*
X138442597Y-86558106D01*
X138456702Y-86556422D01*
X138595716Y-86527587D01*
X138737243Y-86482468D01*
X138874725Y-86423750D01*
X139001606Y-86354120D01*
X139079111Y-86301441D01*
X139206519Y-86193239D01*
X139324822Y-86066671D01*
X139431828Y-85924866D01*
X139525348Y-85770951D01*
X139603190Y-85608053D01*
X139647044Y-85490756D01*
X139697292Y-85307128D01*
X139730791Y-85112581D01*
X139747551Y-84911325D01*
X139747584Y-84707568D01*
X139730899Y-84505521D01*
X139697507Y-84309392D01*
X139647420Y-84123391D01*
X139643603Y-84111803D01*
X139580719Y-83949750D01*
X139503972Y-83801832D01*
X139410758Y-83663865D01*
X139298473Y-83531661D01*
X139254608Y-83486399D01*
X139118466Y-83362457D01*
X138978509Y-83259915D01*
X138832589Y-83177656D01*
X138678558Y-83114564D01*
X138514268Y-83069523D01*
X138418711Y-83052033D01*
X138259977Y-83036466D01*
X138101571Y-83039071D01*
G37*
X138101571Y-83039071D02*
X137941430Y-83060245D01*
X137777490Y-83100385D01*
X137607687Y-83159889D01*
X137429957Y-83239154D01*
X137418690Y-83244699D01*
X137360995Y-83272725D01*
X137309448Y-83296802D01*
X137267809Y-83315249D01*
X137239838Y-83326386D01*
X137230267Y-83328933D01*
X137211050Y-83333941D01*
X137206439Y-83338147D01*
X137211542Y-83348580D01*
X137227582Y-83374868D01*
X137252712Y-83414257D01*
X137285086Y-83463991D01*
X137322857Y-83521315D01*
X137364178Y-83583476D01*
X137407202Y-83647718D01*
X137450083Y-83711285D01*
X137490974Y-83771425D01*
X137528029Y-83825380D01*
X137559400Y-83870397D01*
X137583241Y-83903721D01*
X137597706Y-83922597D01*
X137599691Y-83924787D01*
X137609809Y-83920138D01*
X137632150Y-83902962D01*
X137662720Y-83876440D01*
X137678464Y-83861964D01*
X137774953Y-83786682D01*
X137881664Y-83731241D01*
X137997168Y-83696141D01*
X138120038Y-83681880D01*
X138189439Y-83683051D01*
X138310577Y-83700212D01*
X138419795Y-83736094D01*
X138517418Y-83790959D01*
X138603772Y-83865070D01*
X138679185Y-83958688D01*
X138743982Y-84072076D01*
X138781399Y-84158667D01*
X138825252Y-84294366D01*
X138857572Y-84441850D01*
X138878443Y-84597314D01*
X138887949Y-84756956D01*
X138886173Y-84916973D01*
X138873197Y-85073561D01*
X138849106Y-85222918D01*
X138813982Y-85361240D01*
X138767908Y-85484724D01*
X138751627Y-85518978D01*
X138683380Y-85633064D01*
X138602921Y-85729557D01*
X138511430Y-85807670D01*
X138410089Y-85866617D01*
X138300080Y-85905612D01*
X138182585Y-85923868D01*
X138141117Y-85925211D01*
X138019559Y-85914290D01*
X137899122Y-85881474D01*
X137781334Y-85827439D01*
X137667723Y-85752865D01*
X137576315Y-85674539D01*
X137529785Y-85630008D01*
X137348517Y-85927271D01*
X137303420Y-86001433D01*
X137262181Y-86069646D01*
X137226265Y-86129459D01*
X137197134Y-86178420D01*
X137176250Y-86214079D01*
X137165076Y-86233984D01*
X137163625Y-86237079D01*
X137171854Y-86246718D01*
X137197433Y-86263999D01*
X137237127Y-86287283D01*
X137287703Y-86314934D01*
X137345926Y-86345315D01*
X137408563Y-86376790D01*
X137472379Y-86407722D01*
X137534140Y-86436473D01*
X137590612Y-86461408D01*
X137638562Y-86480889D01*
X137662014Y-86489318D01*
X137795779Y-86527133D01*
X137933673Y-86552136D01*
X138081378Y-86565140D01*
X138208167Y-86567468D01*
X138276122Y-86566373D01*
X138341723Y-86564275D01*
X138399153Y-86561434D01*
X138442597Y-86558106D01*
X138456702Y-86556422D01*
X138595716Y-86527587D01*
X138737243Y-86482468D01*
X138874725Y-86423750D01*
X139001606Y-86354120D01*
X139079111Y-86301441D01*
X139206519Y-86193239D01*
X139324822Y-86066671D01*
X139431828Y-85924866D01*
X139525348Y-85770951D01*
X139603190Y-85608053D01*
X139647044Y-85490756D01*
X139697292Y-85307128D01*
X139730791Y-85112581D01*
X139747551Y-84911325D01*
X139747584Y-84707568D01*
X139730899Y-84505521D01*
X139697507Y-84309392D01*
X139647420Y-84123391D01*
X139643603Y-84111803D01*
X139580719Y-83949750D01*
X139503972Y-83801832D01*
X139410758Y-83663865D01*
X139298473Y-83531661D01*
X139254608Y-83486399D01*
X139118466Y-83362457D01*
X138978509Y-83259915D01*
X138832589Y-83177656D01*
X138678558Y-83114564D01*
X138514268Y-83069523D01*
X138418711Y-83052033D01*
X138259977Y-83036466D01*
X138101571Y-83039071D01*
G36*
X135756426Y-83956552D02*
G01*
X135604508Y-83976567D01*
X135469244Y-84010202D01*
X135349761Y-84057725D01*
X135245185Y-84119405D01*
X135167576Y-84182965D01*
X135098735Y-84257099D01*
X135044994Y-84336871D01*
X135002090Y-84429091D01*
X134986616Y-84472161D01*
X134973756Y-84511142D01*
X134962554Y-84547289D01*
X134952880Y-84582434D01*
X134944604Y-84618410D01*
X134937597Y-84657050D01*
X134931728Y-84700185D01*
X134926869Y-84749649D01*
X134922890Y-84807273D01*
X134919660Y-84874891D01*
X134917051Y-84954334D01*
X134914933Y-85047436D01*
X134913176Y-85156027D01*
X134911651Y-85281942D01*
X134910228Y-85427012D01*
X134908975Y-85569778D01*
X134907649Y-85725968D01*
X134906444Y-85861239D01*
X134905234Y-85977246D01*
X134903894Y-86075645D01*
X134902300Y-86158093D01*
X134900325Y-86226246D01*
X134897844Y-86281760D01*
X134894731Y-86326292D01*
X134890862Y-86361498D01*
X134886111Y-86389034D01*
X134880352Y-86410556D01*
X134873461Y-86427722D01*
X134865311Y-86442186D01*
X134855777Y-86455606D01*
X134844734Y-86469638D01*
X134840434Y-86475071D01*
X134824614Y-86497910D01*
X134817578Y-86513463D01*
X134817556Y-86513922D01*
X134828433Y-86516121D01*
X134859418Y-86518147D01*
X134908043Y-86519942D01*
X134971837Y-86521451D01*
X135048331Y-86522616D01*
X135135056Y-86523380D01*
X135229543Y-86523686D01*
X135240450Y-86523689D01*
X135663343Y-86523689D01*
X135666605Y-86427622D01*
X135669867Y-86331556D01*
X135731956Y-86382543D01*
X135829286Y-86450057D01*
X135939187Y-86504749D01*
X136025651Y-86534978D01*
X136094722Y-86549666D01*
X136178075Y-86559659D01*
X136267841Y-86564646D01*
X136356155Y-86564313D01*
X136435149Y-86558351D01*
X136471378Y-86552638D01*
X136611397Y-86514776D01*
X136737822Y-86459932D01*
X136849740Y-86388924D01*
X136946238Y-86302568D01*
X137026400Y-86201679D01*
X137089313Y-86087076D01*
X137133688Y-85960984D01*
X137146022Y-85904401D01*
X137153632Y-85842202D01*
X137157261Y-85767363D01*
X137157755Y-85733467D01*
X137157690Y-85730282D01*
X136397752Y-85730282D01*
X136388459Y-85805333D01*
X136360272Y-85869160D01*
X136311803Y-85924798D01*
X136306746Y-85929211D01*
X136258452Y-85964037D01*
X136206743Y-85986620D01*
X136146011Y-85998540D01*
X136070648Y-86001383D01*
X136052541Y-86000978D01*
X135998722Y-85998325D01*
X135958692Y-85992909D01*
X135923676Y-85982745D01*
X135884897Y-85965850D01*
X135874255Y-85960672D01*
X135813604Y-85924844D01*
X135766785Y-85882212D01*
X135754048Y-85866973D01*
X135709378Y-85810462D01*
X135709378Y-85614586D01*
X135709914Y-85535939D01*
X135711604Y-85477988D01*
X135714572Y-85438875D01*
X135718943Y-85416741D01*
X135723028Y-85410274D01*
X135738953Y-85407111D01*
X135772736Y-85404488D01*
X135819660Y-85402655D01*
X135875007Y-85401857D01*
X135883894Y-85401842D01*
X136004670Y-85407096D01*
X136107340Y-85423263D01*
X136193894Y-85450961D01*
X136266319Y-85490808D01*
X136321249Y-85537758D01*
X136365796Y-85595645D01*
X136390520Y-85658693D01*
X136397752Y-85730282D01*
X137157690Y-85730282D01*
X137155822Y-85639712D01*
X137147478Y-85560812D01*
X137131232Y-85489590D01*
X137105595Y-85418864D01*
X137081599Y-85366493D01*
X137022980Y-85271196D01*
X136944883Y-85183170D01*
X136849685Y-85104017D01*
X136739762Y-85035340D01*
X136617490Y-84978741D01*
X136485245Y-84935821D01*
X136420578Y-84920882D01*
X136284396Y-84898777D01*
X136135951Y-84884194D01*
X135984495Y-84877813D01*
X135857936Y-84879445D01*
X135696050Y-84886224D01*
X135703470Y-84827245D01*
X135722762Y-84728092D01*
X135753896Y-84647372D01*
X135797731Y-84584466D01*
X135855129Y-84538756D01*
X135926952Y-84509622D01*
X136014059Y-84496447D01*
X136117314Y-84498611D01*
X136155289Y-84502612D01*
X136296480Y-84527780D01*
X136433293Y-84568814D01*
X136527822Y-84606815D01*
X136572982Y-84626190D01*
X136611415Y-84641760D01*
X136637766Y-84651405D01*
X136645454Y-84653452D01*
X136655198Y-84644374D01*
X136671917Y-84615405D01*
X136695768Y-84566217D01*
X136726907Y-84496484D01*
X136765493Y-84405879D01*
X136772090Y-84390089D01*
X136802147Y-84317772D01*
X136829126Y-84252425D01*
X136851864Y-84196906D01*
X136869194Y-84154072D01*
X136879952Y-84126781D01*
X136883059Y-84117942D01*
X136873060Y-84113187D01*
X136846783Y-84107910D01*
X136818511Y-84104231D01*
X136788354Y-84099474D01*
X136740567Y-84090028D01*
X136679388Y-84076820D01*
X136609054Y-84060776D01*
X136533806Y-84042820D01*
X136505245Y-84035797D01*
X136400184Y-84010209D01*
X136312520Y-83990147D01*
X136237932Y-83974969D01*
X136172097Y-83964035D01*
X136110693Y-83956704D01*
X136049398Y-83952335D01*
X135983890Y-83950287D01*
X135925872Y-83949889D01*
X135756426Y-83956552D01*
G37*
X135756426Y-83956552D02*
X135604508Y-83976567D01*
X135469244Y-84010202D01*
X135349761Y-84057725D01*
X135245185Y-84119405D01*
X135167576Y-84182965D01*
X135098735Y-84257099D01*
X135044994Y-84336871D01*
X135002090Y-84429091D01*
X134986616Y-84472161D01*
X134973756Y-84511142D01*
X134962554Y-84547289D01*
X134952880Y-84582434D01*
X134944604Y-84618410D01*
X134937597Y-84657050D01*
X134931728Y-84700185D01*
X134926869Y-84749649D01*
X134922890Y-84807273D01*
X134919660Y-84874891D01*
X134917051Y-84954334D01*
X134914933Y-85047436D01*
X134913176Y-85156027D01*
X134911651Y-85281942D01*
X134910228Y-85427012D01*
X134908975Y-85569778D01*
X134907649Y-85725968D01*
X134906444Y-85861239D01*
X134905234Y-85977246D01*
X134903894Y-86075645D01*
X134902300Y-86158093D01*
X134900325Y-86226246D01*
X134897844Y-86281760D01*
X134894731Y-86326292D01*
X134890862Y-86361498D01*
X134886111Y-86389034D01*
X134880352Y-86410556D01*
X134873461Y-86427722D01*
X134865311Y-86442186D01*
X134855777Y-86455606D01*
X134844734Y-86469638D01*
X134840434Y-86475071D01*
X134824614Y-86497910D01*
X134817578Y-86513463D01*
X134817556Y-86513922D01*
X134828433Y-86516121D01*
X134859418Y-86518147D01*
X134908043Y-86519942D01*
X134971837Y-86521451D01*
X135048331Y-86522616D01*
X135135056Y-86523380D01*
X135229543Y-86523686D01*
X135240450Y-86523689D01*
X135663343Y-86523689D01*
X135666605Y-86427622D01*
X135669867Y-86331556D01*
X135731956Y-86382543D01*
X135829286Y-86450057D01*
X135939187Y-86504749D01*
X136025651Y-86534978D01*
X136094722Y-86549666D01*
X136178075Y-86559659D01*
X136267841Y-86564646D01*
X136356155Y-86564313D01*
X136435149Y-86558351D01*
X136471378Y-86552638D01*
X136611397Y-86514776D01*
X136737822Y-86459932D01*
X136849740Y-86388924D01*
X136946238Y-86302568D01*
X137026400Y-86201679D01*
X137089313Y-86087076D01*
X137133688Y-85960984D01*
X137146022Y-85904401D01*
X137153632Y-85842202D01*
X137157261Y-85767363D01*
X137157755Y-85733467D01*
X137157690Y-85730282D01*
X136397752Y-85730282D01*
X136388459Y-85805333D01*
X136360272Y-85869160D01*
X136311803Y-85924798D01*
X136306746Y-85929211D01*
X136258452Y-85964037D01*
X136206743Y-85986620D01*
X136146011Y-85998540D01*
X136070648Y-86001383D01*
X136052541Y-86000978D01*
X135998722Y-85998325D01*
X135958692Y-85992909D01*
X135923676Y-85982745D01*
X135884897Y-85965850D01*
X135874255Y-85960672D01*
X135813604Y-85924844D01*
X135766785Y-85882212D01*
X135754048Y-85866973D01*
X135709378Y-85810462D01*
X135709378Y-85614586D01*
X135709914Y-85535939D01*
X135711604Y-85477988D01*
X135714572Y-85438875D01*
X135718943Y-85416741D01*
X135723028Y-85410274D01*
X135738953Y-85407111D01*
X135772736Y-85404488D01*
X135819660Y-85402655D01*
X135875007Y-85401857D01*
X135883894Y-85401842D01*
X136004670Y-85407096D01*
X136107340Y-85423263D01*
X136193894Y-85450961D01*
X136266319Y-85490808D01*
X136321249Y-85537758D01*
X136365796Y-85595645D01*
X136390520Y-85658693D01*
X136397752Y-85730282D01*
X137157690Y-85730282D01*
X137155822Y-85639712D01*
X137147478Y-85560812D01*
X137131232Y-85489590D01*
X137105595Y-85418864D01*
X137081599Y-85366493D01*
X137022980Y-85271196D01*
X136944883Y-85183170D01*
X136849685Y-85104017D01*
X136739762Y-85035340D01*
X136617490Y-84978741D01*
X136485245Y-84935821D01*
X136420578Y-84920882D01*
X136284396Y-84898777D01*
X136135951Y-84884194D01*
X135984495Y-84877813D01*
X135857936Y-84879445D01*
X135696050Y-84886224D01*
X135703470Y-84827245D01*
X135722762Y-84728092D01*
X135753896Y-84647372D01*
X135797731Y-84584466D01*
X135855129Y-84538756D01*
X135926952Y-84509622D01*
X136014059Y-84496447D01*
X136117314Y-84498611D01*
X136155289Y-84502612D01*
X136296480Y-84527780D01*
X136433293Y-84568814D01*
X136527822Y-84606815D01*
X136572982Y-84626190D01*
X136611415Y-84641760D01*
X136637766Y-84651405D01*
X136645454Y-84653452D01*
X136655198Y-84644374D01*
X136671917Y-84615405D01*
X136695768Y-84566217D01*
X136726907Y-84496484D01*
X136765493Y-84405879D01*
X136772090Y-84390089D01*
X136802147Y-84317772D01*
X136829126Y-84252425D01*
X136851864Y-84196906D01*
X136869194Y-84154072D01*
X136879952Y-84126781D01*
X136883059Y-84117942D01*
X136873060Y-84113187D01*
X136846783Y-84107910D01*
X136818511Y-84104231D01*
X136788354Y-84099474D01*
X136740567Y-84090028D01*
X136679388Y-84076820D01*
X136609054Y-84060776D01*
X136533806Y-84042820D01*
X136505245Y-84035797D01*
X136400184Y-84010209D01*
X136312520Y-83990147D01*
X136237932Y-83974969D01*
X136172097Y-83964035D01*
X136110693Y-83956704D01*
X136049398Y-83952335D01*
X135983890Y-83950287D01*
X135925872Y-83949889D01*
X135756426Y-83956552D01*
G36*
X132243493Y-84562245D02*
G01*
X132243474Y-84796662D01*
X132243448Y-85009603D01*
X132243375Y-85202168D01*
X132243218Y-85375459D01*
X132242936Y-85530576D01*
X132242491Y-85668620D01*
X132241844Y-85790692D01*
X132240955Y-85897894D01*
X132239787Y-85991326D01*
X132238299Y-86072090D01*
X132236454Y-86141286D01*
X132234211Y-86200015D01*
X132231531Y-86249379D01*
X132228377Y-86290478D01*
X132224708Y-86324413D01*
X132220487Y-86352286D01*
X132215673Y-86375198D01*
X132210227Y-86394249D01*
X132204112Y-86410540D01*
X132197288Y-86425173D01*
X132189715Y-86439249D01*
X132181355Y-86453868D01*
X132176161Y-86462974D01*
X132141896Y-86523689D01*
X133000045Y-86523689D01*
X133000045Y-86427733D01*
X133000776Y-86384370D01*
X133002728Y-86351205D01*
X133005537Y-86333424D01*
X133006779Y-86331778D01*
X133018201Y-86338662D01*
X133040916Y-86356505D01*
X133063615Y-86375879D01*
X133118200Y-86416614D01*
X133187679Y-86457617D01*
X133264730Y-86495123D01*
X133342035Y-86525364D01*
X133372887Y-86535012D01*
X133441384Y-86549578D01*
X133524236Y-86559539D01*
X133613629Y-86564583D01*
X133701752Y-86564396D01*
X133780793Y-86558666D01*
X133818489Y-86552858D01*
X133956586Y-86514797D01*
X134083887Y-86457073D01*
X134199708Y-86380211D01*
X134303363Y-86284739D01*
X134394167Y-86171179D01*
X134460969Y-86060381D01*
X134515836Y-85943625D01*
X134557837Y-85824276D01*
X134587833Y-85698283D01*
X134606689Y-85561594D01*
X134615268Y-85410158D01*
X134615994Y-85332711D01*
X134613900Y-85275934D01*
X133784783Y-85275934D01*
X133784576Y-85369002D01*
X133781663Y-85456692D01*
X133776000Y-85533772D01*
X133767545Y-85595009D01*
X133764962Y-85607350D01*
X133733160Y-85714633D01*
X133691502Y-85801658D01*
X133639637Y-85868642D01*
X133577219Y-85915805D01*
X133503900Y-85943365D01*
X133419331Y-85951541D01*
X133323165Y-85940551D01*
X133259689Y-85924829D01*
X133210546Y-85906639D01*
X133156417Y-85880791D01*
X133115756Y-85857089D01*
X133045200Y-85810721D01*
X133045200Y-84660530D01*
X133112608Y-84616962D01*
X133191133Y-84576040D01*
X133275319Y-84549389D01*
X133360443Y-84537465D01*
X133441784Y-84540722D01*
X133514620Y-84559615D01*
X133546574Y-84575184D01*
X133604499Y-84618181D01*
X133653456Y-84674953D01*
X133694610Y-84747575D01*
X133729126Y-84838121D01*
X133758167Y-84948666D01*
X133759448Y-84954533D01*
X133769619Y-85016788D01*
X133777261Y-85094594D01*
X133782330Y-85182720D01*
X133784783Y-85275934D01*
X134613900Y-85275934D01*
X134608143Y-85119895D01*
X134586198Y-84924059D01*
X134550214Y-84745332D01*
X134500241Y-84583845D01*
X134436332Y-84439726D01*
X134358538Y-84313106D01*
X134266911Y-84204115D01*
X134161503Y-84112883D01*
X134116338Y-84081932D01*
X134015389Y-84025785D01*
X133912099Y-83986174D01*
X133802011Y-83962014D01*
X133680670Y-83952219D01*
X133588164Y-83953265D01*
X133458510Y-83964231D01*
X133345916Y-83986046D01*
X133247125Y-84019714D01*
X133158879Y-84066236D01*
X133110014Y-84100448D01*
X133080647Y-84122362D01*
X133058957Y-84137333D01*
X133050747Y-84141733D01*
X133049132Y-84130904D01*
X133047841Y-84100251D01*
X133046862Y-84052526D01*
X133046183Y-83990479D01*
X133045790Y-83916862D01*
X133045670Y-83834427D01*
X133045812Y-83745925D01*
X133046203Y-83654107D01*
X133046829Y-83561724D01*
X133047680Y-83471528D01*
X133048740Y-83386271D01*
X133049999Y-83308703D01*
X133051444Y-83241576D01*
X133053062Y-83187641D01*
X133054839Y-83149650D01*
X133055331Y-83142667D01*
X133062908Y-83072251D01*
X133074469Y-83017102D01*
X133092208Y-82969981D01*
X133118318Y-82923647D01*
X133124585Y-82914067D01*
X133149017Y-82877378D01*
X132243689Y-82877378D01*
X132243493Y-84562245D01*
G37*
X132243493Y-84562245D02*
X132243474Y-84796662D01*
X132243448Y-85009603D01*
X132243375Y-85202168D01*
X132243218Y-85375459D01*
X132242936Y-85530576D01*
X132242491Y-85668620D01*
X132241844Y-85790692D01*
X132240955Y-85897894D01*
X132239787Y-85991326D01*
X132238299Y-86072090D01*
X132236454Y-86141286D01*
X132234211Y-86200015D01*
X132231531Y-86249379D01*
X132228377Y-86290478D01*
X132224708Y-86324413D01*
X132220487Y-86352286D01*
X132215673Y-86375198D01*
X132210227Y-86394249D01*
X132204112Y-86410540D01*
X132197288Y-86425173D01*
X132189715Y-86439249D01*
X132181355Y-86453868D01*
X132176161Y-86462974D01*
X132141896Y-86523689D01*
X133000045Y-86523689D01*
X133000045Y-86427733D01*
X133000776Y-86384370D01*
X133002728Y-86351205D01*
X133005537Y-86333424D01*
X133006779Y-86331778D01*
X133018201Y-86338662D01*
X133040916Y-86356505D01*
X133063615Y-86375879D01*
X133118200Y-86416614D01*
X133187679Y-86457617D01*
X133264730Y-86495123D01*
X133342035Y-86525364D01*
X133372887Y-86535012D01*
X133441384Y-86549578D01*
X133524236Y-86559539D01*
X133613629Y-86564583D01*
X133701752Y-86564396D01*
X133780793Y-86558666D01*
X133818489Y-86552858D01*
X133956586Y-86514797D01*
X134083887Y-86457073D01*
X134199708Y-86380211D01*
X134303363Y-86284739D01*
X134394167Y-86171179D01*
X134460969Y-86060381D01*
X134515836Y-85943625D01*
X134557837Y-85824276D01*
X134587833Y-85698283D01*
X134606689Y-85561594D01*
X134615268Y-85410158D01*
X134615994Y-85332711D01*
X134613900Y-85275934D01*
X133784783Y-85275934D01*
X133784576Y-85369002D01*
X133781663Y-85456692D01*
X133776000Y-85533772D01*
X133767545Y-85595009D01*
X133764962Y-85607350D01*
X133733160Y-85714633D01*
X133691502Y-85801658D01*
X133639637Y-85868642D01*
X133577219Y-85915805D01*
X133503900Y-85943365D01*
X133419331Y-85951541D01*
X133323165Y-85940551D01*
X133259689Y-85924829D01*
X133210546Y-85906639D01*
X133156417Y-85880791D01*
X133115756Y-85857089D01*
X133045200Y-85810721D01*
X133045200Y-84660530D01*
X133112608Y-84616962D01*
X133191133Y-84576040D01*
X133275319Y-84549389D01*
X133360443Y-84537465D01*
X133441784Y-84540722D01*
X133514620Y-84559615D01*
X133546574Y-84575184D01*
X133604499Y-84618181D01*
X133653456Y-84674953D01*
X133694610Y-84747575D01*
X133729126Y-84838121D01*
X133758167Y-84948666D01*
X133759448Y-84954533D01*
X133769619Y-85016788D01*
X133777261Y-85094594D01*
X133782330Y-85182720D01*
X133784783Y-85275934D01*
X134613900Y-85275934D01*
X134608143Y-85119895D01*
X134586198Y-84924059D01*
X134550214Y-84745332D01*
X134500241Y-84583845D01*
X134436332Y-84439726D01*
X134358538Y-84313106D01*
X134266911Y-84204115D01*
X134161503Y-84112883D01*
X134116338Y-84081932D01*
X134015389Y-84025785D01*
X133912099Y-83986174D01*
X133802011Y-83962014D01*
X133680670Y-83952219D01*
X133588164Y-83953265D01*
X133458510Y-83964231D01*
X133345916Y-83986046D01*
X133247125Y-84019714D01*
X133158879Y-84066236D01*
X133110014Y-84100448D01*
X133080647Y-84122362D01*
X133058957Y-84137333D01*
X133050747Y-84141733D01*
X133049132Y-84130904D01*
X133047841Y-84100251D01*
X133046862Y-84052526D01*
X133046183Y-83990479D01*
X133045790Y-83916862D01*
X133045670Y-83834427D01*
X133045812Y-83745925D01*
X133046203Y-83654107D01*
X133046829Y-83561724D01*
X133047680Y-83471528D01*
X133048740Y-83386271D01*
X133049999Y-83308703D01*
X133051444Y-83241576D01*
X133053062Y-83187641D01*
X133054839Y-83149650D01*
X133055331Y-83142667D01*
X133062908Y-83072251D01*
X133074469Y-83017102D01*
X133092208Y-82969981D01*
X133118318Y-82923647D01*
X133124585Y-82914067D01*
X133149017Y-82877378D01*
X132243689Y-82877378D01*
X132243493Y-84562245D01*
G36*
X140703043Y-82116571D02*
G01*
X140606768Y-82140809D01*
X140520184Y-82183641D01*
X140445373Y-82243419D01*
X140384418Y-82318494D01*
X140339399Y-82407220D01*
X140313136Y-82503530D01*
X140307286Y-82600795D01*
X140322140Y-82694654D01*
X140355840Y-82782511D01*
X140406528Y-82861770D01*
X140472345Y-82929836D01*
X140551434Y-82984112D01*
X140641934Y-83022002D01*
X140693200Y-83034426D01*
X140737698Y-83041947D01*
X140771999Y-83044919D01*
X140804960Y-83043094D01*
X140845434Y-83036225D01*
X140878531Y-83029250D01*
X140971947Y-82997741D01*
X141055619Y-82946617D01*
X141127665Y-82877429D01*
X141186200Y-82791728D01*
X141200148Y-82764489D01*
X141216586Y-82728122D01*
X141226894Y-82697582D01*
X141232460Y-82665450D01*
X141234669Y-82624307D01*
X141234948Y-82578222D01*
X141230861Y-82493865D01*
X141217446Y-82424586D01*
X141192256Y-82363961D01*
X141152846Y-82305567D01*
X141114298Y-82261302D01*
X141042406Y-82195484D01*
X140967313Y-82150053D01*
X140884562Y-82122850D01*
X140806928Y-82112576D01*
X140703043Y-82116571D01*
G37*
X140703043Y-82116571D02*
X140606768Y-82140809D01*
X140520184Y-82183641D01*
X140445373Y-82243419D01*
X140384418Y-82318494D01*
X140339399Y-82407220D01*
X140313136Y-82503530D01*
X140307286Y-82600795D01*
X140322140Y-82694654D01*
X140355840Y-82782511D01*
X140406528Y-82861770D01*
X140472345Y-82929836D01*
X140551434Y-82984112D01*
X140641934Y-83022002D01*
X140693200Y-83034426D01*
X140737698Y-83041947D01*
X140771999Y-83044919D01*
X140804960Y-83043094D01*
X140845434Y-83036225D01*
X140878531Y-83029250D01*
X140971947Y-82997741D01*
X141055619Y-82946617D01*
X141127665Y-82877429D01*
X141186200Y-82791728D01*
X141200148Y-82764489D01*
X141216586Y-82728122D01*
X141226894Y-82697582D01*
X141232460Y-82665450D01*
X141234669Y-82624307D01*
X141234948Y-82578222D01*
X141230861Y-82493865D01*
X141217446Y-82424586D01*
X141192256Y-82363961D01*
X141152846Y-82305567D01*
X141114298Y-82261302D01*
X141042406Y-82195484D01*
X140967313Y-82150053D01*
X140884562Y-82122850D01*
X140806928Y-82112576D01*
X140703043Y-82116571D01*
G36*
X144551371Y-87359066D02*
G01*
X144511889Y-87359467D01*
X144396200Y-87362259D01*
X144299311Y-87370550D01*
X144217919Y-87385232D01*
X144148723Y-87407193D01*
X144088420Y-87437322D01*
X144033708Y-87476510D01*
X144014167Y-87493532D01*
X143981750Y-87533363D01*
X143952520Y-87587413D01*
X143929991Y-87647323D01*
X143917679Y-87704739D01*
X143916400Y-87725956D01*
X143924417Y-87784769D01*
X143945899Y-87849013D01*
X143976999Y-87909821D01*
X144013866Y-87958330D01*
X144019854Y-87964182D01*
X144070579Y-88005321D01*
X144126125Y-88037435D01*
X144189696Y-88061365D01*
X144264494Y-88077953D01*
X144353722Y-88088041D01*
X144460582Y-88092469D01*
X144509528Y-88092845D01*
X144571762Y-88092545D01*
X144615528Y-88091292D01*
X144644931Y-88088554D01*
X144664079Y-88083801D01*
X144677077Y-88076501D01*
X144684045Y-88070267D01*
X144690626Y-88062694D01*
X144695788Y-88052924D01*
X144699703Y-88038340D01*
X144702543Y-88016326D01*
X144704480Y-87984264D01*
X144705684Y-87939536D01*
X144706328Y-87879526D01*
X144706583Y-87801617D01*
X144706622Y-87725956D01*
X144706870Y-87625041D01*
X144706817Y-87544427D01*
X144705857Y-87505822D01*
X144559867Y-87505822D01*
X144559867Y-87946089D01*
X144466734Y-87946004D01*
X144410693Y-87944396D01*
X144351999Y-87940256D01*
X144303028Y-87934464D01*
X144301538Y-87934226D01*
X144222392Y-87915090D01*
X144161002Y-87885287D01*
X144114305Y-87842878D01*
X144084635Y-87796961D01*
X144066353Y-87746026D01*
X144067771Y-87698200D01*
X144088988Y-87646933D01*
X144130489Y-87593899D01*
X144187998Y-87554600D01*
X144262750Y-87528331D01*
X144312708Y-87519035D01*
X144369416Y-87512507D01*
X144429519Y-87507782D01*
X144480639Y-87505817D01*
X144483667Y-87505808D01*
X144559867Y-87505822D01*
X144705857Y-87505822D01*
X144705260Y-87481851D01*
X144700998Y-87435055D01*
X144692830Y-87401778D01*
X144679556Y-87379759D01*
X144659974Y-87366739D01*
X144632883Y-87360457D01*
X144597082Y-87358653D01*
X144551371Y-87359066D01*
G37*
X144551371Y-87359066D02*
X144511889Y-87359467D01*
X144396200Y-87362259D01*
X144299311Y-87370550D01*
X144217919Y-87385232D01*
X144148723Y-87407193D01*
X144088420Y-87437322D01*
X144033708Y-87476510D01*
X144014167Y-87493532D01*
X143981750Y-87533363D01*
X143952520Y-87587413D01*
X143929991Y-87647323D01*
X143917679Y-87704739D01*
X143916400Y-87725956D01*
X143924417Y-87784769D01*
X143945899Y-87849013D01*
X143976999Y-87909821D01*
X144013866Y-87958330D01*
X144019854Y-87964182D01*
X144070579Y-88005321D01*
X144126125Y-88037435D01*
X144189696Y-88061365D01*
X144264494Y-88077953D01*
X144353722Y-88088041D01*
X144460582Y-88092469D01*
X144509528Y-88092845D01*
X144571762Y-88092545D01*
X144615528Y-88091292D01*
X144644931Y-88088554D01*
X144664079Y-88083801D01*
X144677077Y-88076501D01*
X144684045Y-88070267D01*
X144690626Y-88062694D01*
X144695788Y-88052924D01*
X144699703Y-88038340D01*
X144702543Y-88016326D01*
X144704480Y-87984264D01*
X144705684Y-87939536D01*
X144706328Y-87879526D01*
X144706583Y-87801617D01*
X144706622Y-87725956D01*
X144706870Y-87625041D01*
X144706817Y-87544427D01*
X144705857Y-87505822D01*
X144559867Y-87505822D01*
X144559867Y-87946089D01*
X144466734Y-87946004D01*
X144410693Y-87944396D01*
X144351999Y-87940256D01*
X144303028Y-87934464D01*
X144301538Y-87934226D01*
X144222392Y-87915090D01*
X144161002Y-87885287D01*
X144114305Y-87842878D01*
X144084635Y-87796961D01*
X144066353Y-87746026D01*
X144067771Y-87698200D01*
X144088988Y-87646933D01*
X144130489Y-87593899D01*
X144187998Y-87554600D01*
X144262750Y-87528331D01*
X144312708Y-87519035D01*
X144369416Y-87512507D01*
X144429519Y-87507782D01*
X144480639Y-87505817D01*
X144483667Y-87505808D01*
X144559867Y-87505822D01*
X144705857Y-87505822D01*
X144705260Y-87481851D01*
X144700998Y-87435055D01*
X144692830Y-87401778D01*
X144679556Y-87379759D01*
X144659974Y-87366739D01*
X144632883Y-87360457D01*
X144597082Y-87358653D01*
X144551371Y-87359066D01*
G36*
X143142794Y-87359146D02*
G01*
X143073386Y-87359518D01*
X143020997Y-87360385D01*
X142982847Y-87361946D01*
X142956159Y-87364403D01*
X142938153Y-87367957D01*
X142926049Y-87372810D01*
X142917069Y-87379161D01*
X142913818Y-87382084D01*
X142894043Y-87413142D01*
X142890482Y-87448828D01*
X142903491Y-87480510D01*
X142909506Y-87486913D01*
X142919235Y-87493121D01*
X142934901Y-87497910D01*
X142959408Y-87501514D01*
X142995661Y-87504164D01*
X143046565Y-87506095D01*
X143115026Y-87507539D01*
X143177617Y-87508418D01*
X143425334Y-87511467D01*
X143428719Y-87576378D01*
X143432105Y-87641289D01*
X143263958Y-87641289D01*
X143190959Y-87641919D01*
X143137517Y-87644553D01*
X143100628Y-87650309D01*
X143077288Y-87660304D01*
X143064494Y-87675656D01*
X143059242Y-87697482D01*
X143058445Y-87717738D01*
X143060923Y-87742592D01*
X143070277Y-87760906D01*
X143089383Y-87773637D01*
X143121118Y-87781741D01*
X143168359Y-87786176D01*
X143233983Y-87787899D01*
X143269801Y-87788045D01*
X143430978Y-87788045D01*
X143430978Y-87946089D01*
X143182622Y-87946089D01*
X143101213Y-87946202D01*
X143039342Y-87946712D01*
X142993968Y-87947870D01*
X142962054Y-87949930D01*
X142940559Y-87953146D01*
X142926443Y-87957772D01*
X142916668Y-87964059D01*
X142911689Y-87968667D01*
X142894610Y-87995560D01*
X142889111Y-88019467D01*
X142896963Y-88048667D01*
X142911689Y-88070267D01*
X142919546Y-88077066D01*
X142929688Y-88082346D01*
X142944844Y-88086298D01*
X142967741Y-88089113D01*
X143001109Y-88090982D01*
X143047675Y-88092098D01*
X143110167Y-88092651D01*
X143191314Y-88092833D01*
X143233422Y-88092845D01*
X143323598Y-88092765D01*
X143393924Y-88092398D01*
X143447129Y-88091552D01*
X143485940Y-88090036D01*
X143513087Y-88087659D01*
X143531298Y-88084229D01*
X143543300Y-88079554D01*
X143551822Y-88073444D01*
X143555156Y-88070267D01*
X143561755Y-88062670D01*
X143566927Y-88052870D01*
X143570846Y-88038239D01*
X143573684Y-88016152D01*
X143575615Y-87983982D01*
X143576812Y-87939103D01*
X143577448Y-87878889D01*
X143577697Y-87800713D01*
X143577734Y-87727923D01*
X143577700Y-87634707D01*
X143577465Y-87561431D01*
X143576830Y-87505458D01*
X143575594Y-87464151D01*
X143573556Y-87434872D01*
X143570517Y-87414984D01*
X143566277Y-87401850D01*
X143560635Y-87392832D01*
X143553391Y-87385293D01*
X143551606Y-87383612D01*
X143542945Y-87376172D01*
X143532882Y-87370409D01*
X143518625Y-87366112D01*
X143497383Y-87363064D01*
X143466364Y-87361051D01*
X143422777Y-87359860D01*
X143363831Y-87359275D01*
X143286734Y-87359083D01*
X143232001Y-87359067D01*
X143142794Y-87359146D01*
G37*
X143142794Y-87359146D02*
X143073386Y-87359518D01*
X143020997Y-87360385D01*
X142982847Y-87361946D01*
X142956159Y-87364403D01*
X142938153Y-87367957D01*
X142926049Y-87372810D01*
X142917069Y-87379161D01*
X142913818Y-87382084D01*
X142894043Y-87413142D01*
X142890482Y-87448828D01*
X142903491Y-87480510D01*
X142909506Y-87486913D01*
X142919235Y-87493121D01*
X142934901Y-87497910D01*
X142959408Y-87501514D01*
X142995661Y-87504164D01*
X143046565Y-87506095D01*
X143115026Y-87507539D01*
X143177617Y-87508418D01*
X143425334Y-87511467D01*
X143428719Y-87576378D01*
X143432105Y-87641289D01*
X143263958Y-87641289D01*
X143190959Y-87641919D01*
X143137517Y-87644553D01*
X143100628Y-87650309D01*
X143077288Y-87660304D01*
X143064494Y-87675656D01*
X143059242Y-87697482D01*
X143058445Y-87717738D01*
X143060923Y-87742592D01*
X143070277Y-87760906D01*
X143089383Y-87773637D01*
X143121118Y-87781741D01*
X143168359Y-87786176D01*
X143233983Y-87787899D01*
X143269801Y-87788045D01*
X143430978Y-87788045D01*
X143430978Y-87946089D01*
X143182622Y-87946089D01*
X143101213Y-87946202D01*
X143039342Y-87946712D01*
X142993968Y-87947870D01*
X142962054Y-87949930D01*
X142940559Y-87953146D01*
X142926443Y-87957772D01*
X142916668Y-87964059D01*
X142911689Y-87968667D01*
X142894610Y-87995560D01*
X142889111Y-88019467D01*
X142896963Y-88048667D01*
X142911689Y-88070267D01*
X142919546Y-88077066D01*
X142929688Y-88082346D01*
X142944844Y-88086298D01*
X142967741Y-88089113D01*
X143001109Y-88090982D01*
X143047675Y-88092098D01*
X143110167Y-88092651D01*
X143191314Y-88092833D01*
X143233422Y-88092845D01*
X143323598Y-88092765D01*
X143393924Y-88092398D01*
X143447129Y-88091552D01*
X143485940Y-88090036D01*
X143513087Y-88087659D01*
X143531298Y-88084229D01*
X143543300Y-88079554D01*
X143551822Y-88073444D01*
X143555156Y-88070267D01*
X143561755Y-88062670D01*
X143566927Y-88052870D01*
X143570846Y-88038239D01*
X143573684Y-88016152D01*
X143575615Y-87983982D01*
X143576812Y-87939103D01*
X143577448Y-87878889D01*
X143577697Y-87800713D01*
X143577734Y-87727923D01*
X143577700Y-87634707D01*
X143577465Y-87561431D01*
X143576830Y-87505458D01*
X143575594Y-87464151D01*
X143573556Y-87434872D01*
X143570517Y-87414984D01*
X143566277Y-87401850D01*
X143560635Y-87392832D01*
X143553391Y-87385293D01*
X143551606Y-87383612D01*
X143542945Y-87376172D01*
X143532882Y-87370409D01*
X143518625Y-87366112D01*
X143497383Y-87363064D01*
X143466364Y-87361051D01*
X143422777Y-87359860D01*
X143363831Y-87359275D01*
X143286734Y-87359083D01*
X143232001Y-87359067D01*
X143142794Y-87359146D01*
G36*
X142121703Y-87360351D02*
G01*
X142046888Y-87365581D01*
X141977306Y-87373750D01*
X141917002Y-87384550D01*
X141870020Y-87397673D01*
X141840406Y-87412813D01*
X141835860Y-87417269D01*
X141820054Y-87451850D01*
X141824847Y-87487351D01*
X141849364Y-87517725D01*
X141850534Y-87518596D01*
X141864954Y-87527954D01*
X141880008Y-87532876D01*
X141901005Y-87533473D01*
X141933257Y-87529861D01*
X141982073Y-87522154D01*
X141986000Y-87521505D01*
X142058739Y-87512569D01*
X142137217Y-87508161D01*
X142215927Y-87508119D01*
X142289361Y-87512279D01*
X142352011Y-87520479D01*
X142398370Y-87532557D01*
X142401416Y-87533771D01*
X142435048Y-87552615D01*
X142446864Y-87571685D01*
X142437614Y-87590439D01*
X142408047Y-87608337D01*
X142358911Y-87624837D01*
X142290957Y-87639396D01*
X142245645Y-87646406D01*
X142151456Y-87659889D01*
X142076544Y-87672214D01*
X142017717Y-87684449D01*
X141971785Y-87697661D01*
X141935555Y-87712917D01*
X141905838Y-87731285D01*
X141879442Y-87753831D01*
X141858230Y-87775971D01*
X141833065Y-87806819D01*
X141820681Y-87833345D01*
X141816808Y-87866026D01*
X141816667Y-87877995D01*
X141819576Y-87917712D01*
X141831202Y-87947259D01*
X141851323Y-87973486D01*
X141892216Y-88013576D01*
X141937817Y-88044149D01*
X141991513Y-88066203D01*
X142056692Y-88080735D01*
X142136744Y-88088741D01*
X142235057Y-88091218D01*
X142251289Y-88091177D01*
X142316849Y-88089818D01*
X142381866Y-88086730D01*
X142439252Y-88082356D01*
X142481922Y-88077140D01*
X142485372Y-88076541D01*
X142527796Y-88066491D01*
X142563780Y-88053796D01*
X142584150Y-88042190D01*
X142603107Y-88011572D01*
X142604427Y-87975918D01*
X142588085Y-87944144D01*
X142584429Y-87940551D01*
X142569315Y-87929876D01*
X142550415Y-87925276D01*
X142521162Y-87926059D01*
X142485651Y-87930127D01*
X142445970Y-87933762D01*
X142390345Y-87936828D01*
X142325406Y-87939053D01*
X142257785Y-87940164D01*
X142240000Y-87940237D01*
X142172128Y-87939964D01*
X142122454Y-87938646D01*
X142086610Y-87935827D01*
X142060224Y-87931050D01*
X142038926Y-87923857D01*
X142026126Y-87917867D01*
X141998000Y-87901233D01*
X141980068Y-87886168D01*
X141977447Y-87881897D01*
X141982976Y-87864263D01*
X142009260Y-87847192D01*
X142054478Y-87831458D01*
X142116808Y-87817838D01*
X142135171Y-87814804D01*
X142231090Y-87799738D01*
X142307641Y-87787146D01*
X142367780Y-87776111D01*
X142414460Y-87765720D01*
X142450637Y-87755056D01*
X142479265Y-87743205D01*
X142503298Y-87729251D01*
X142525692Y-87712281D01*
X142549402Y-87691378D01*
X142557380Y-87684049D01*
X142585353Y-87656699D01*
X142600160Y-87635029D01*
X142605952Y-87610232D01*
X142606889Y-87578983D01*
X142596575Y-87517705D01*
X142565752Y-87465640D01*
X142514595Y-87422958D01*
X142443283Y-87389825D01*
X142392400Y-87374964D01*
X142337100Y-87365366D01*
X142270853Y-87359936D01*
X142197706Y-87358367D01*
X142121703Y-87360351D01*
G37*
X142121703Y-87360351D02*
X142046888Y-87365581D01*
X141977306Y-87373750D01*
X141917002Y-87384550D01*
X141870020Y-87397673D01*
X141840406Y-87412813D01*
X141835860Y-87417269D01*
X141820054Y-87451850D01*
X141824847Y-87487351D01*
X141849364Y-87517725D01*
X141850534Y-87518596D01*
X141864954Y-87527954D01*
X141880008Y-87532876D01*
X141901005Y-87533473D01*
X141933257Y-87529861D01*
X141982073Y-87522154D01*
X141986000Y-87521505D01*
X142058739Y-87512569D01*
X142137217Y-87508161D01*
X142215927Y-87508119D01*
X142289361Y-87512279D01*
X142352011Y-87520479D01*
X142398370Y-87532557D01*
X142401416Y-87533771D01*
X142435048Y-87552615D01*
X142446864Y-87571685D01*
X142437614Y-87590439D01*
X142408047Y-87608337D01*
X142358911Y-87624837D01*
X142290957Y-87639396D01*
X142245645Y-87646406D01*
X142151456Y-87659889D01*
X142076544Y-87672214D01*
X142017717Y-87684449D01*
X141971785Y-87697661D01*
X141935555Y-87712917D01*
X141905838Y-87731285D01*
X141879442Y-87753831D01*
X141858230Y-87775971D01*
X141833065Y-87806819D01*
X141820681Y-87833345D01*
X141816808Y-87866026D01*
X141816667Y-87877995D01*
X141819576Y-87917712D01*
X141831202Y-87947259D01*
X141851323Y-87973486D01*
X141892216Y-88013576D01*
X141937817Y-88044149D01*
X141991513Y-88066203D01*
X142056692Y-88080735D01*
X142136744Y-88088741D01*
X142235057Y-88091218D01*
X142251289Y-88091177D01*
X142316849Y-88089818D01*
X142381866Y-88086730D01*
X142439252Y-88082356D01*
X142481922Y-88077140D01*
X142485372Y-88076541D01*
X142527796Y-88066491D01*
X142563780Y-88053796D01*
X142584150Y-88042190D01*
X142603107Y-88011572D01*
X142604427Y-87975918D01*
X142588085Y-87944144D01*
X142584429Y-87940551D01*
X142569315Y-87929876D01*
X142550415Y-87925276D01*
X142521162Y-87926059D01*
X142485651Y-87930127D01*
X142445970Y-87933762D01*
X142390345Y-87936828D01*
X142325406Y-87939053D01*
X142257785Y-87940164D01*
X142240000Y-87940237D01*
X142172128Y-87939964D01*
X142122454Y-87938646D01*
X142086610Y-87935827D01*
X142060224Y-87931050D01*
X142038926Y-87923857D01*
X142026126Y-87917867D01*
X141998000Y-87901233D01*
X141980068Y-87886168D01*
X141977447Y-87881897D01*
X141982976Y-87864263D01*
X142009260Y-87847192D01*
X142054478Y-87831458D01*
X142116808Y-87817838D01*
X142135171Y-87814804D01*
X142231090Y-87799738D01*
X142307641Y-87787146D01*
X142367780Y-87776111D01*
X142414460Y-87765720D01*
X142450637Y-87755056D01*
X142479265Y-87743205D01*
X142503298Y-87729251D01*
X142525692Y-87712281D01*
X142549402Y-87691378D01*
X142557380Y-87684049D01*
X142585353Y-87656699D01*
X142600160Y-87635029D01*
X142605952Y-87610232D01*
X142606889Y-87578983D01*
X142596575Y-87517705D01*
X142565752Y-87465640D01*
X142514595Y-87422958D01*
X142443283Y-87389825D01*
X142392400Y-87374964D01*
X142337100Y-87365366D01*
X142270853Y-87359936D01*
X142197706Y-87358367D01*
X142121703Y-87360351D01*
G36*
X141353822Y-87381645D02*
G01*
X141347242Y-87389218D01*
X141342079Y-87398987D01*
X141338164Y-87413571D01*
X141335324Y-87435585D01*
X141333387Y-87467648D01*
X141332183Y-87512375D01*
X141331539Y-87572385D01*
X141331284Y-87650294D01*
X141331245Y-87725956D01*
X141331314Y-87819802D01*
X141331638Y-87893689D01*
X141332386Y-87950232D01*
X141333732Y-87992049D01*
X141335846Y-88021757D01*
X141338900Y-88041973D01*
X141343066Y-88055314D01*
X141348516Y-88064398D01*
X141353822Y-88070267D01*
X141386826Y-88089947D01*
X141421991Y-88088181D01*
X141453455Y-88066717D01*
X141460684Y-88058337D01*
X141466334Y-88048614D01*
X141470599Y-88034861D01*
X141473673Y-88014389D01*
X141475752Y-87984512D01*
X141477030Y-87942541D01*
X141477701Y-87885789D01*
X141477959Y-87811567D01*
X141478000Y-87727537D01*
X141478000Y-87414485D01*
X141450291Y-87386776D01*
X141416137Y-87363463D01*
X141383006Y-87362623D01*
X141353822Y-87381645D01*
G37*
X141353822Y-87381645D02*
X141347242Y-87389218D01*
X141342079Y-87398987D01*
X141338164Y-87413571D01*
X141335324Y-87435585D01*
X141333387Y-87467648D01*
X141332183Y-87512375D01*
X141331539Y-87572385D01*
X141331284Y-87650294D01*
X141331245Y-87725956D01*
X141331314Y-87819802D01*
X141331638Y-87893689D01*
X141332386Y-87950232D01*
X141333732Y-87992049D01*
X141335846Y-88021757D01*
X141338900Y-88041973D01*
X141343066Y-88055314D01*
X141348516Y-88064398D01*
X141353822Y-88070267D01*
X141386826Y-88089947D01*
X141421991Y-88088181D01*
X141453455Y-88066717D01*
X141460684Y-88058337D01*
X141466334Y-88048614D01*
X141470599Y-88034861D01*
X141473673Y-88014389D01*
X141475752Y-87984512D01*
X141477030Y-87942541D01*
X141477701Y-87885789D01*
X141477959Y-87811567D01*
X141478000Y-87727537D01*
X141478000Y-87414485D01*
X141450291Y-87386776D01*
X141416137Y-87363463D01*
X141383006Y-87362623D01*
X141353822Y-87381645D01*
G36*
X140380081Y-87364599D02*
G01*
X140311565Y-87376095D01*
X140258943Y-87393967D01*
X140224708Y-87417499D01*
X140215379Y-87430924D01*
X140205893Y-87462148D01*
X140212277Y-87490395D01*
X140232430Y-87517182D01*
X140263745Y-87529713D01*
X140309183Y-87528696D01*
X140344326Y-87521906D01*
X140422419Y-87508971D01*
X140502226Y-87507742D01*
X140591555Y-87518241D01*
X140616229Y-87522690D01*
X140699291Y-87546108D01*
X140764273Y-87580945D01*
X140810461Y-87626604D01*
X140837145Y-87682494D01*
X140842663Y-87711388D01*
X140839051Y-87770012D01*
X140815729Y-87821879D01*
X140774824Y-87865978D01*
X140718459Y-87901299D01*
X140648760Y-87926829D01*
X140567852Y-87941559D01*
X140477860Y-87944478D01*
X140380910Y-87934575D01*
X140375436Y-87933641D01*
X140336875Y-87926459D01*
X140315494Y-87919521D01*
X140306227Y-87909227D01*
X140304006Y-87891976D01*
X140303956Y-87882841D01*
X140303956Y-87844489D01*
X140372431Y-87844489D01*
X140432900Y-87840347D01*
X140474165Y-87827147D01*
X140498175Y-87803730D01*
X140506877Y-87768936D01*
X140506983Y-87764394D01*
X140501892Y-87734654D01*
X140484433Y-87713419D01*
X140451939Y-87699366D01*
X140401743Y-87691173D01*
X140353123Y-87688161D01*
X140282456Y-87686433D01*
X140231198Y-87689070D01*
X140196239Y-87698800D01*
X140174470Y-87718353D01*
X140162780Y-87750456D01*
X140158060Y-87797838D01*
X140157200Y-87860071D01*
X140158609Y-87929535D01*
X140162848Y-87976786D01*
X140169936Y-88002012D01*
X140171311Y-88003988D01*
X140210228Y-88035508D01*
X140267286Y-88060470D01*
X140338869Y-88078340D01*
X140421358Y-88088586D01*
X140511139Y-88090673D01*
X140604592Y-88084068D01*
X140659556Y-88075956D01*
X140745766Y-88051554D01*
X140825892Y-88011662D01*
X140892977Y-87959887D01*
X140903173Y-87949539D01*
X140936302Y-87906035D01*
X140966194Y-87852118D01*
X140989357Y-87795592D01*
X141002298Y-87744259D01*
X141003858Y-87724544D01*
X140997218Y-87683419D01*
X140979568Y-87632252D01*
X140954297Y-87578394D01*
X140924789Y-87529195D01*
X140898719Y-87496334D01*
X140837765Y-87447452D01*
X140758969Y-87408545D01*
X140665157Y-87380494D01*
X140559150Y-87364179D01*
X140462000Y-87360192D01*
X140380081Y-87364599D01*
G37*
X140380081Y-87364599D02*
X140311565Y-87376095D01*
X140258943Y-87393967D01*
X140224708Y-87417499D01*
X140215379Y-87430924D01*
X140205893Y-87462148D01*
X140212277Y-87490395D01*
X140232430Y-87517182D01*
X140263745Y-87529713D01*
X140309183Y-87528696D01*
X140344326Y-87521906D01*
X140422419Y-87508971D01*
X140502226Y-87507742D01*
X140591555Y-87518241D01*
X140616229Y-87522690D01*
X140699291Y-87546108D01*
X140764273Y-87580945D01*
X140810461Y-87626604D01*
X140837145Y-87682494D01*
X140842663Y-87711388D01*
X140839051Y-87770012D01*
X140815729Y-87821879D01*
X140774824Y-87865978D01*
X140718459Y-87901299D01*
X140648760Y-87926829D01*
X140567852Y-87941559D01*
X140477860Y-87944478D01*
X140380910Y-87934575D01*
X140375436Y-87933641D01*
X140336875Y-87926459D01*
X140315494Y-87919521D01*
X140306227Y-87909227D01*
X140304006Y-87891976D01*
X140303956Y-87882841D01*
X140303956Y-87844489D01*
X140372431Y-87844489D01*
X140432900Y-87840347D01*
X140474165Y-87827147D01*
X140498175Y-87803730D01*
X140506877Y-87768936D01*
X140506983Y-87764394D01*
X140501892Y-87734654D01*
X140484433Y-87713419D01*
X140451939Y-87699366D01*
X140401743Y-87691173D01*
X140353123Y-87688161D01*
X140282456Y-87686433D01*
X140231198Y-87689070D01*
X140196239Y-87698800D01*
X140174470Y-87718353D01*
X140162780Y-87750456D01*
X140158060Y-87797838D01*
X140157200Y-87860071D01*
X140158609Y-87929535D01*
X140162848Y-87976786D01*
X140169936Y-88002012D01*
X140171311Y-88003988D01*
X140210228Y-88035508D01*
X140267286Y-88060470D01*
X140338869Y-88078340D01*
X140421358Y-88088586D01*
X140511139Y-88090673D01*
X140604592Y-88084068D01*
X140659556Y-88075956D01*
X140745766Y-88051554D01*
X140825892Y-88011662D01*
X140892977Y-87959887D01*
X140903173Y-87949539D01*
X140936302Y-87906035D01*
X140966194Y-87852118D01*
X140989357Y-87795592D01*
X141002298Y-87744259D01*
X141003858Y-87724544D01*
X140997218Y-87683419D01*
X140979568Y-87632252D01*
X140954297Y-87578394D01*
X140924789Y-87529195D01*
X140898719Y-87496334D01*
X140837765Y-87447452D01*
X140758969Y-87408545D01*
X140665157Y-87380494D01*
X140559150Y-87364179D01*
X140462000Y-87360192D01*
X140380081Y-87364599D01*
G36*
X139730114Y-87363448D02*
G01*
X139706548Y-87377273D01*
X139675735Y-87399881D01*
X139636078Y-87432338D01*
X139585980Y-87475708D01*
X139523843Y-87531058D01*
X139448072Y-87599451D01*
X139361334Y-87678084D01*
X139180711Y-87841878D01*
X139175067Y-87622029D01*
X139173029Y-87546351D01*
X139171063Y-87489994D01*
X139168734Y-87449706D01*
X139165606Y-87422235D01*
X139161245Y-87404329D01*
X139155216Y-87392737D01*
X139147084Y-87384208D01*
X139142772Y-87380623D01*
X139108241Y-87361670D01*
X139075383Y-87364441D01*
X139049318Y-87380633D01*
X139022667Y-87402199D01*
X139019352Y-87717151D01*
X139018435Y-87809779D01*
X139017968Y-87882544D01*
X139018113Y-87938161D01*
X139019032Y-87979342D01*
X139020887Y-88008803D01*
X139023839Y-88029255D01*
X139028050Y-88043413D01*
X139033682Y-88053991D01*
X139039927Y-88062474D01*
X139053439Y-88078207D01*
X139066883Y-88088636D01*
X139082124Y-88092639D01*
X139101026Y-88089094D01*
X139125455Y-88076879D01*
X139157273Y-88054871D01*
X139198348Y-88021949D01*
X139250542Y-87976991D01*
X139315722Y-87918875D01*
X139389556Y-87852099D01*
X139654845Y-87611458D01*
X139660489Y-87830589D01*
X139662531Y-87906128D01*
X139664502Y-87962354D01*
X139666839Y-88002524D01*
X139669981Y-88029896D01*
X139674364Y-88047728D01*
X139680424Y-88059279D01*
X139688600Y-88067807D01*
X139692784Y-88071282D01*
X139729765Y-88090372D01*
X139764708Y-88087493D01*
X139795136Y-88063100D01*
X139802097Y-88053286D01*
X139807523Y-88041826D01*
X139811603Y-88025968D01*
X139814529Y-88002963D01*
X139816492Y-87970062D01*
X139817683Y-87924516D01*
X139818292Y-87863573D01*
X139818511Y-87784486D01*
X139818534Y-87725956D01*
X139818460Y-87634407D01*
X139818113Y-87562687D01*
X139817301Y-87508045D01*
X139815833Y-87467732D01*
X139813519Y-87438998D01*
X139810167Y-87419093D01*
X139805588Y-87405268D01*
X139799589Y-87394772D01*
X139795136Y-87388811D01*
X139783850Y-87374691D01*
X139773301Y-87364029D01*
X139761893Y-87357892D01*
X139748030Y-87357343D01*
X139730114Y-87363448D01*
G37*
X139730114Y-87363448D02*
X139706548Y-87377273D01*
X139675735Y-87399881D01*
X139636078Y-87432338D01*
X139585980Y-87475708D01*
X139523843Y-87531058D01*
X139448072Y-87599451D01*
X139361334Y-87678084D01*
X139180711Y-87841878D01*
X139175067Y-87622029D01*
X139173029Y-87546351D01*
X139171063Y-87489994D01*
X139168734Y-87449706D01*
X139165606Y-87422235D01*
X139161245Y-87404329D01*
X139155216Y-87392737D01*
X139147084Y-87384208D01*
X139142772Y-87380623D01*
X139108241Y-87361670D01*
X139075383Y-87364441D01*
X139049318Y-87380633D01*
X139022667Y-87402199D01*
X139019352Y-87717151D01*
X139018435Y-87809779D01*
X139017968Y-87882544D01*
X139018113Y-87938161D01*
X139019032Y-87979342D01*
X139020887Y-88008803D01*
X139023839Y-88029255D01*
X139028050Y-88043413D01*
X139033682Y-88053991D01*
X139039927Y-88062474D01*
X139053439Y-88078207D01*
X139066883Y-88088636D01*
X139082124Y-88092639D01*
X139101026Y-88089094D01*
X139125455Y-88076879D01*
X139157273Y-88054871D01*
X139198348Y-88021949D01*
X139250542Y-87976991D01*
X139315722Y-87918875D01*
X139389556Y-87852099D01*
X139654845Y-87611458D01*
X139660489Y-87830589D01*
X139662531Y-87906128D01*
X139664502Y-87962354D01*
X139666839Y-88002524D01*
X139669981Y-88029896D01*
X139674364Y-88047728D01*
X139680424Y-88059279D01*
X139688600Y-88067807D01*
X139692784Y-88071282D01*
X139729765Y-88090372D01*
X139764708Y-88087493D01*
X139795136Y-88063100D01*
X139802097Y-88053286D01*
X139807523Y-88041826D01*
X139811603Y-88025968D01*
X139814529Y-88002963D01*
X139816492Y-87970062D01*
X139817683Y-87924516D01*
X139818292Y-87863573D01*
X139818511Y-87784486D01*
X139818534Y-87725956D01*
X139818460Y-87634407D01*
X139818113Y-87562687D01*
X139817301Y-87508045D01*
X139815833Y-87467732D01*
X139813519Y-87438998D01*
X139810167Y-87419093D01*
X139805588Y-87405268D01*
X139799589Y-87394772D01*
X139795136Y-87388811D01*
X139783850Y-87374691D01*
X139773301Y-87364029D01*
X139761893Y-87357892D01*
X139748030Y-87357343D01*
X139730114Y-87363448D01*
G36*
X138199657Y-87359260D02*
G01*
X138123299Y-87360174D01*
X138064783Y-87362311D01*
X138021745Y-87366175D01*
X137991817Y-87372267D01*
X137972632Y-87381090D01*
X137961824Y-87393146D01*
X137957027Y-87408939D01*
X137955873Y-87428970D01*
X137955867Y-87431335D01*
X137956869Y-87453992D01*
X137961604Y-87471503D01*
X137972667Y-87484574D01*
X137992652Y-87493913D01*
X138024154Y-87500227D01*
X138069768Y-87504222D01*
X138132087Y-87506606D01*
X138213707Y-87508086D01*
X138238723Y-87508414D01*
X138480800Y-87511467D01*
X138484186Y-87576378D01*
X138487571Y-87641289D01*
X138319424Y-87641289D01*
X138253734Y-87641531D01*
X138206828Y-87642556D01*
X138174917Y-87644811D01*
X138154209Y-87648742D01*
X138140916Y-87654798D01*
X138131245Y-87663424D01*
X138131183Y-87663493D01*
X138113644Y-87697112D01*
X138114278Y-87733448D01*
X138132686Y-87764423D01*
X138136329Y-87767607D01*
X138149259Y-87775812D01*
X138166976Y-87781521D01*
X138193430Y-87785162D01*
X138232568Y-87787167D01*
X138288338Y-87787964D01*
X138324006Y-87788045D01*
X138486445Y-87788045D01*
X138486445Y-87946089D01*
X138239839Y-87946089D01*
X138158420Y-87946231D01*
X138096590Y-87946814D01*
X138051363Y-87948068D01*
X138019752Y-87950227D01*
X137998769Y-87953523D01*
X137985427Y-87958189D01*
X137976739Y-87964457D01*
X137974550Y-87966733D01*
X137958386Y-87998280D01*
X137957203Y-88034168D01*
X137970464Y-88065285D01*
X137980957Y-88075271D01*
X137991871Y-88080769D01*
X138008783Y-88085022D01*
X138034367Y-88088180D01*
X138071299Y-88090392D01*
X138122254Y-88091806D01*
X138189906Y-88092572D01*
X138276931Y-88092838D01*
X138296606Y-88092845D01*
X138385089Y-88092787D01*
X138453773Y-88092467D01*
X138505436Y-88091667D01*
X138542855Y-88090167D01*
X138568810Y-88087749D01*
X138586078Y-88084194D01*
X138597438Y-88079282D01*
X138605668Y-88072795D01*
X138610183Y-88068138D01*
X138616979Y-88059889D01*
X138622288Y-88049669D01*
X138626294Y-88034800D01*
X138629179Y-88012602D01*
X138631126Y-87980393D01*
X138632319Y-87935496D01*
X138632939Y-87875228D01*
X138633171Y-87796911D01*
X138633200Y-87730994D01*
X138633129Y-87638628D01*
X138632792Y-87566117D01*
X138632002Y-87510737D01*
X138630574Y-87469765D01*
X138628321Y-87440478D01*
X138625057Y-87420153D01*
X138620596Y-87406066D01*
X138614752Y-87395495D01*
X138609803Y-87388811D01*
X138586406Y-87359067D01*
X138296226Y-87359067D01*
X138199657Y-87359260D01*
G37*
X138199657Y-87359260D02*
X138123299Y-87360174D01*
X138064783Y-87362311D01*
X138021745Y-87366175D01*
X137991817Y-87372267D01*
X137972632Y-87381090D01*
X137961824Y-87393146D01*
X137957027Y-87408939D01*
X137955873Y-87428970D01*
X137955867Y-87431335D01*
X137956869Y-87453992D01*
X137961604Y-87471503D01*
X137972667Y-87484574D01*
X137992652Y-87493913D01*
X138024154Y-87500227D01*
X138069768Y-87504222D01*
X138132087Y-87506606D01*
X138213707Y-87508086D01*
X138238723Y-87508414D01*
X138480800Y-87511467D01*
X138484186Y-87576378D01*
X138487571Y-87641289D01*
X138319424Y-87641289D01*
X138253734Y-87641531D01*
X138206828Y-87642556D01*
X138174917Y-87644811D01*
X138154209Y-87648742D01*
X138140916Y-87654798D01*
X138131245Y-87663424D01*
X138131183Y-87663493D01*
X138113644Y-87697112D01*
X138114278Y-87733448D01*
X138132686Y-87764423D01*
X138136329Y-87767607D01*
X138149259Y-87775812D01*
X138166976Y-87781521D01*
X138193430Y-87785162D01*
X138232568Y-87787167D01*
X138288338Y-87787964D01*
X138324006Y-87788045D01*
X138486445Y-87788045D01*
X138486445Y-87946089D01*
X138239839Y-87946089D01*
X138158420Y-87946231D01*
X138096590Y-87946814D01*
X138051363Y-87948068D01*
X138019752Y-87950227D01*
X137998769Y-87953523D01*
X137985427Y-87958189D01*
X137976739Y-87964457D01*
X137974550Y-87966733D01*
X137958386Y-87998280D01*
X137957203Y-88034168D01*
X137970464Y-88065285D01*
X137980957Y-88075271D01*
X137991871Y-88080769D01*
X138008783Y-88085022D01*
X138034367Y-88088180D01*
X138071299Y-88090392D01*
X138122254Y-88091806D01*
X138189906Y-88092572D01*
X138276931Y-88092838D01*
X138296606Y-88092845D01*
X138385089Y-88092787D01*
X138453773Y-88092467D01*
X138505436Y-88091667D01*
X138542855Y-88090167D01*
X138568810Y-88087749D01*
X138586078Y-88084194D01*
X138597438Y-88079282D01*
X138605668Y-88072795D01*
X138610183Y-88068138D01*
X138616979Y-88059889D01*
X138622288Y-88049669D01*
X138626294Y-88034800D01*
X138629179Y-88012602D01*
X138631126Y-87980393D01*
X138632319Y-87935496D01*
X138632939Y-87875228D01*
X138633171Y-87796911D01*
X138633200Y-87730994D01*
X138633129Y-87638628D01*
X138632792Y-87566117D01*
X138632002Y-87510737D01*
X138630574Y-87469765D01*
X138628321Y-87440478D01*
X138625057Y-87420153D01*
X138620596Y-87406066D01*
X138614752Y-87395495D01*
X138609803Y-87388811D01*
X138586406Y-87359067D01*
X138296226Y-87359067D01*
X138199657Y-87359260D01*
G36*
X137411691Y-87359275D02*
G01*
X137282712Y-87363636D01*
X137173009Y-87376861D01*
X137080774Y-87399741D01*
X137004198Y-87433070D01*
X136941473Y-87477638D01*
X136890788Y-87534236D01*
X136850337Y-87603658D01*
X136849541Y-87605351D01*
X136825399Y-87667483D01*
X136816797Y-87722509D01*
X136823769Y-87777887D01*
X136846346Y-87841073D01*
X136850628Y-87850689D01*
X136879828Y-87906966D01*
X136912644Y-87950451D01*
X136954998Y-87987417D01*
X137012810Y-88024135D01*
X137016169Y-88026052D01*
X137066496Y-88050227D01*
X137123379Y-88068282D01*
X137190473Y-88080839D01*
X137271435Y-88088522D01*
X137369918Y-88091953D01*
X137404714Y-88092251D01*
X137570406Y-88092845D01*
X137593803Y-88063100D01*
X137600743Y-88053319D01*
X137606158Y-88041897D01*
X137610235Y-88026095D01*
X137613163Y-88003175D01*
X137615133Y-87970396D01*
X137615775Y-87946089D01*
X137459156Y-87946089D01*
X137365274Y-87946089D01*
X137310336Y-87944483D01*
X137253940Y-87940255D01*
X137207655Y-87934292D01*
X137204861Y-87933790D01*
X137122652Y-87911736D01*
X137058886Y-87878600D01*
X137011548Y-87832847D01*
X136978618Y-87772939D01*
X136972892Y-87757061D01*
X136967279Y-87732333D01*
X136969709Y-87707902D01*
X136981533Y-87675400D01*
X136988660Y-87659434D01*
X137012000Y-87617006D01*
X137040120Y-87587240D01*
X137071060Y-87566511D01*
X137133034Y-87539537D01*
X137212349Y-87519998D01*
X137304747Y-87508746D01*
X137371667Y-87506270D01*
X137459156Y-87505822D01*
X137459156Y-87946089D01*
X137615775Y-87946089D01*
X137616332Y-87925021D01*
X137616950Y-87864311D01*
X137617175Y-87785526D01*
X137617200Y-87723920D01*
X137617200Y-87414485D01*
X137589491Y-87386776D01*
X137577194Y-87375544D01*
X137563897Y-87367853D01*
X137545328Y-87363040D01*
X137517214Y-87360446D01*
X137475283Y-87359410D01*
X137415263Y-87359270D01*
X137411691Y-87359275D01*
G37*
X137411691Y-87359275D02*
X137282712Y-87363636D01*
X137173009Y-87376861D01*
X137080774Y-87399741D01*
X137004198Y-87433070D01*
X136941473Y-87477638D01*
X136890788Y-87534236D01*
X136850337Y-87603658D01*
X136849541Y-87605351D01*
X136825399Y-87667483D01*
X136816797Y-87722509D01*
X136823769Y-87777887D01*
X136846346Y-87841073D01*
X136850628Y-87850689D01*
X136879828Y-87906966D01*
X136912644Y-87950451D01*
X136954998Y-87987417D01*
X137012810Y-88024135D01*
X137016169Y-88026052D01*
X137066496Y-88050227D01*
X137123379Y-88068282D01*
X137190473Y-88080839D01*
X137271435Y-88088522D01*
X137369918Y-88091953D01*
X137404714Y-88092251D01*
X137570406Y-88092845D01*
X137593803Y-88063100D01*
X137600743Y-88053319D01*
X137606158Y-88041897D01*
X137610235Y-88026095D01*
X137613163Y-88003175D01*
X137615133Y-87970396D01*
X137615775Y-87946089D01*
X137459156Y-87946089D01*
X137365274Y-87946089D01*
X137310336Y-87944483D01*
X137253940Y-87940255D01*
X137207655Y-87934292D01*
X137204861Y-87933790D01*
X137122652Y-87911736D01*
X137058886Y-87878600D01*
X137011548Y-87832847D01*
X136978618Y-87772939D01*
X136972892Y-87757061D01*
X136967279Y-87732333D01*
X136969709Y-87707902D01*
X136981533Y-87675400D01*
X136988660Y-87659434D01*
X137012000Y-87617006D01*
X137040120Y-87587240D01*
X137071060Y-87566511D01*
X137133034Y-87539537D01*
X137212349Y-87519998D01*
X137304747Y-87508746D01*
X137371667Y-87506270D01*
X137459156Y-87505822D01*
X137459156Y-87946089D01*
X137615775Y-87946089D01*
X137616332Y-87925021D01*
X137616950Y-87864311D01*
X137617175Y-87785526D01*
X137617200Y-87723920D01*
X137617200Y-87414485D01*
X137589491Y-87386776D01*
X137577194Y-87375544D01*
X137563897Y-87367853D01*
X137545328Y-87363040D01*
X137517214Y-87360446D01*
X137475283Y-87359410D01*
X137415263Y-87359270D01*
X137411691Y-87359275D01*
G36*
X134685335Y-87361034D02*
G01*
X134665745Y-87368035D01*
X134664990Y-87368377D01*
X134638387Y-87388678D01*
X134623730Y-87409561D01*
X134620862Y-87419352D01*
X134621004Y-87432361D01*
X134625039Y-87450895D01*
X134633854Y-87477257D01*
X134648331Y-87513752D01*
X134669355Y-87562687D01*
X134697812Y-87626365D01*
X134734585Y-87707093D01*
X134754825Y-87751216D01*
X134791375Y-87829985D01*
X134825685Y-87902423D01*
X134856448Y-87965880D01*
X134882352Y-88017708D01*
X134902090Y-88055259D01*
X134914350Y-88075884D01*
X134916776Y-88078733D01*
X134947817Y-88091302D01*
X134982879Y-88089619D01*
X135011000Y-88074332D01*
X135012146Y-88073089D01*
X135023332Y-88056154D01*
X135042096Y-88023170D01*
X135066125Y-87978380D01*
X135093103Y-87926032D01*
X135102799Y-87906742D01*
X135175986Y-87760150D01*
X135255760Y-87919393D01*
X135284233Y-87974415D01*
X135310650Y-88022132D01*
X135332852Y-88058893D01*
X135348681Y-88081044D01*
X135354046Y-88085741D01*
X135395743Y-88092102D01*
X135430151Y-88078733D01*
X135440272Y-88064446D01*
X135457786Y-88032692D01*
X135481265Y-87986597D01*
X135509280Y-87929285D01*
X135540401Y-87863880D01*
X135573201Y-87793507D01*
X135606250Y-87721291D01*
X135638119Y-87650355D01*
X135667381Y-87583825D01*
X135692605Y-87524826D01*
X135712364Y-87476481D01*
X135725228Y-87441915D01*
X135729769Y-87424253D01*
X135729723Y-87423613D01*
X135718674Y-87401388D01*
X135696590Y-87378753D01*
X135695290Y-87377768D01*
X135668147Y-87362425D01*
X135643042Y-87362574D01*
X135633632Y-87365466D01*
X135622166Y-87371718D01*
X135609990Y-87384014D01*
X135595643Y-87404908D01*
X135577664Y-87436949D01*
X135554593Y-87482688D01*
X135524970Y-87544677D01*
X135498255Y-87601898D01*
X135467520Y-87668226D01*
X135439979Y-87727874D01*
X135417062Y-87777725D01*
X135400202Y-87814664D01*
X135390827Y-87835573D01*
X135389460Y-87838845D01*
X135383311Y-87833497D01*
X135369178Y-87811109D01*
X135348943Y-87774946D01*
X135324485Y-87728277D01*
X135314752Y-87709022D01*
X135281783Y-87644004D01*
X135256357Y-87596654D01*
X135236388Y-87564219D01*
X135219790Y-87543946D01*
X135204476Y-87533082D01*
X135188360Y-87528875D01*
X135177857Y-87528400D01*
X135159330Y-87530042D01*
X135143096Y-87536831D01*
X135126965Y-87551566D01*
X135108749Y-87577044D01*
X135086261Y-87616061D01*
X135057311Y-87671414D01*
X135041338Y-87702903D01*
X135015430Y-87753087D01*
X134992833Y-87794704D01*
X134975542Y-87824242D01*
X134965550Y-87838189D01*
X134964191Y-87838770D01*
X134957739Y-87827793D01*
X134943292Y-87799290D01*
X134922297Y-87756244D01*
X134896203Y-87701638D01*
X134866454Y-87638454D01*
X134851820Y-87607071D01*
X134813750Y-87526078D01*
X134783095Y-87463756D01*
X134758263Y-87418071D01*
X134737663Y-87386989D01*
X134719702Y-87368478D01*
X134702790Y-87360504D01*
X134685335Y-87361034D01*
G37*
X134685335Y-87361034D02*
X134665745Y-87368035D01*
X134664990Y-87368377D01*
X134638387Y-87388678D01*
X134623730Y-87409561D01*
X134620862Y-87419352D01*
X134621004Y-87432361D01*
X134625039Y-87450895D01*
X134633854Y-87477257D01*
X134648331Y-87513752D01*
X134669355Y-87562687D01*
X134697812Y-87626365D01*
X134734585Y-87707093D01*
X134754825Y-87751216D01*
X134791375Y-87829985D01*
X134825685Y-87902423D01*
X134856448Y-87965880D01*
X134882352Y-88017708D01*
X134902090Y-88055259D01*
X134914350Y-88075884D01*
X134916776Y-88078733D01*
X134947817Y-88091302D01*
X134982879Y-88089619D01*
X135011000Y-88074332D01*
X135012146Y-88073089D01*
X135023332Y-88056154D01*
X135042096Y-88023170D01*
X135066125Y-87978380D01*
X135093103Y-87926032D01*
X135102799Y-87906742D01*
X135175986Y-87760150D01*
X135255760Y-87919393D01*
X135284233Y-87974415D01*
X135310650Y-88022132D01*
X135332852Y-88058893D01*
X135348681Y-88081044D01*
X135354046Y-88085741D01*
X135395743Y-88092102D01*
X135430151Y-88078733D01*
X135440272Y-88064446D01*
X135457786Y-88032692D01*
X135481265Y-87986597D01*
X135509280Y-87929285D01*
X135540401Y-87863880D01*
X135573201Y-87793507D01*
X135606250Y-87721291D01*
X135638119Y-87650355D01*
X135667381Y-87583825D01*
X135692605Y-87524826D01*
X135712364Y-87476481D01*
X135725228Y-87441915D01*
X135729769Y-87424253D01*
X135729723Y-87423613D01*
X135718674Y-87401388D01*
X135696590Y-87378753D01*
X135695290Y-87377768D01*
X135668147Y-87362425D01*
X135643042Y-87362574D01*
X135633632Y-87365466D01*
X135622166Y-87371718D01*
X135609990Y-87384014D01*
X135595643Y-87404908D01*
X135577664Y-87436949D01*
X135554593Y-87482688D01*
X135524970Y-87544677D01*
X135498255Y-87601898D01*
X135467520Y-87668226D01*
X135439979Y-87727874D01*
X135417062Y-87777725D01*
X135400202Y-87814664D01*
X135390827Y-87835573D01*
X135389460Y-87838845D01*
X135383311Y-87833497D01*
X135369178Y-87811109D01*
X135348943Y-87774946D01*
X135324485Y-87728277D01*
X135314752Y-87709022D01*
X135281783Y-87644004D01*
X135256357Y-87596654D01*
X135236388Y-87564219D01*
X135219790Y-87543946D01*
X135204476Y-87533082D01*
X135188360Y-87528875D01*
X135177857Y-87528400D01*
X135159330Y-87530042D01*
X135143096Y-87536831D01*
X135126965Y-87551566D01*
X135108749Y-87577044D01*
X135086261Y-87616061D01*
X135057311Y-87671414D01*
X135041338Y-87702903D01*
X135015430Y-87753087D01*
X134992833Y-87794704D01*
X134975542Y-87824242D01*
X134965550Y-87838189D01*
X134964191Y-87838770D01*
X134957739Y-87827793D01*
X134943292Y-87799290D01*
X134922297Y-87756244D01*
X134896203Y-87701638D01*
X134866454Y-87638454D01*
X134851820Y-87607071D01*
X134813750Y-87526078D01*
X134783095Y-87463756D01*
X134758263Y-87418071D01*
X134737663Y-87386989D01*
X134719702Y-87368478D01*
X134702790Y-87360504D01*
X134685335Y-87361034D01*
G36*
X134241386Y-87365877D02*
G01*
X134217673Y-87380647D01*
X134191022Y-87402227D01*
X134191022Y-87723773D01*
X134191107Y-87817830D01*
X134191471Y-87891932D01*
X134192276Y-87948704D01*
X134193687Y-87990768D01*
X134195867Y-88020748D01*
X134198979Y-88041267D01*
X134203186Y-88054949D01*
X134208652Y-88064416D01*
X134212528Y-88069082D01*
X134243966Y-88089575D01*
X134279767Y-88088739D01*
X134311127Y-88071264D01*
X134337778Y-88049684D01*
X134337778Y-87402227D01*
X134311127Y-87380647D01*
X134285406Y-87364949D01*
X134264400Y-87359067D01*
X134241386Y-87365877D01*
G37*
X134241386Y-87365877D02*
X134217673Y-87380647D01*
X134191022Y-87402227D01*
X134191022Y-87723773D01*
X134191107Y-87817830D01*
X134191471Y-87891932D01*
X134192276Y-87948704D01*
X134193687Y-87990768D01*
X134195867Y-88020748D01*
X134198979Y-88041267D01*
X134203186Y-88054949D01*
X134208652Y-88064416D01*
X134212528Y-88069082D01*
X134243966Y-88089575D01*
X134279767Y-88088739D01*
X134311127Y-88071264D01*
X134337778Y-88049684D01*
X134337778Y-87402227D01*
X134311127Y-87380647D01*
X134285406Y-87364949D01*
X134264400Y-87359067D01*
X134241386Y-87365877D01*
G36*
X133466935Y-87359163D02*
G01*
X133388228Y-87359542D01*
X133327137Y-87360333D01*
X133281183Y-87361670D01*
X133247886Y-87363683D01*
X133224764Y-87366506D01*
X133209338Y-87370269D01*
X133199129Y-87375105D01*
X133194187Y-87378822D01*
X133168543Y-87411358D01*
X133165441Y-87445138D01*
X133181289Y-87475826D01*
X133191652Y-87488089D01*
X133202804Y-87496450D01*
X133218965Y-87501657D01*
X133244358Y-87504457D01*
X133283202Y-87505596D01*
X133339720Y-87505821D01*
X133350820Y-87505822D01*
X133496756Y-87505822D01*
X133496756Y-87776756D01*
X133496852Y-87862154D01*
X133497289Y-87927864D01*
X133498288Y-87976774D01*
X133500072Y-88011773D01*
X133502863Y-88035749D01*
X133506883Y-88051593D01*
X133512355Y-88062191D01*
X133519334Y-88070267D01*
X133552266Y-88090112D01*
X133586646Y-88088548D01*
X133617824Y-88065906D01*
X133620114Y-88063100D01*
X133627571Y-88052492D01*
X133633253Y-88040081D01*
X133637399Y-88022850D01*
X133640250Y-87997784D01*
X133642046Y-87961867D01*
X133643028Y-87912083D01*
X133643436Y-87845417D01*
X133643511Y-87769589D01*
X133643511Y-87505822D01*
X133782873Y-87505822D01*
X133842678Y-87505418D01*
X133884082Y-87503840D01*
X133911252Y-87500547D01*
X133928354Y-87494992D01*
X133939557Y-87486631D01*
X133940917Y-87485178D01*
X133957275Y-87451939D01*
X133955828Y-87414362D01*
X133937022Y-87381645D01*
X133929750Y-87375298D01*
X133920373Y-87370266D01*
X133906391Y-87366396D01*
X133885304Y-87363537D01*
X133854611Y-87361535D01*
X133811811Y-87360239D01*
X133754405Y-87359498D01*
X133679890Y-87359158D01*
X133585767Y-87359068D01*
X133565740Y-87359067D01*
X133466935Y-87359163D01*
G37*
X133466935Y-87359163D02*
X133388228Y-87359542D01*
X133327137Y-87360333D01*
X133281183Y-87361670D01*
X133247886Y-87363683D01*
X133224764Y-87366506D01*
X133209338Y-87370269D01*
X133199129Y-87375105D01*
X133194187Y-87378822D01*
X133168543Y-87411358D01*
X133165441Y-87445138D01*
X133181289Y-87475826D01*
X133191652Y-87488089D01*
X133202804Y-87496450D01*
X133218965Y-87501657D01*
X133244358Y-87504457D01*
X133283202Y-87505596D01*
X133339720Y-87505821D01*
X133350820Y-87505822D01*
X133496756Y-87505822D01*
X133496756Y-87776756D01*
X133496852Y-87862154D01*
X133497289Y-87927864D01*
X133498288Y-87976774D01*
X133500072Y-88011773D01*
X133502863Y-88035749D01*
X133506883Y-88051593D01*
X133512355Y-88062191D01*
X133519334Y-88070267D01*
X133552266Y-88090112D01*
X133586646Y-88088548D01*
X133617824Y-88065906D01*
X133620114Y-88063100D01*
X133627571Y-88052492D01*
X133633253Y-88040081D01*
X133637399Y-88022850D01*
X133640250Y-87997784D01*
X133642046Y-87961867D01*
X133643028Y-87912083D01*
X133643436Y-87845417D01*
X133643511Y-87769589D01*
X133643511Y-87505822D01*
X133782873Y-87505822D01*
X133842678Y-87505418D01*
X133884082Y-87503840D01*
X133911252Y-87500547D01*
X133928354Y-87494992D01*
X133939557Y-87486631D01*
X133940917Y-87485178D01*
X133957275Y-87451939D01*
X133955828Y-87414362D01*
X133937022Y-87381645D01*
X133929750Y-87375298D01*
X133920373Y-87370266D01*
X133906391Y-87366396D01*
X133885304Y-87363537D01*
X133854611Y-87361535D01*
X133811811Y-87360239D01*
X133754405Y-87359498D01*
X133679890Y-87359158D01*
X133585767Y-87359068D01*
X133565740Y-87359067D01*
X133466935Y-87359163D01*
G36*
X132201177Y-87364533D02*
G01*
X132169798Y-87386776D01*
X132142089Y-87414485D01*
X132142089Y-87723920D01*
X132142162Y-87815799D01*
X132142505Y-87887840D01*
X132143308Y-87942780D01*
X132144759Y-87983360D01*
X132147048Y-88012317D01*
X132150364Y-88032391D01*
X132154895Y-88046321D01*
X132160831Y-88056845D01*
X132165486Y-88063100D01*
X132196217Y-88087673D01*
X132231504Y-88090341D01*
X132263755Y-88075271D01*
X132274412Y-88066374D01*
X132281536Y-88054557D01*
X132285833Y-88035526D01*
X132288009Y-88004992D01*
X132288772Y-87958662D01*
X132288845Y-87922871D01*
X132288845Y-87788045D01*
X132785556Y-87788045D01*
X132785556Y-87910700D01*
X132786069Y-87966787D01*
X132788124Y-88005333D01*
X132792492Y-88031361D01*
X132799944Y-88049897D01*
X132808953Y-88063100D01*
X132839856Y-88087604D01*
X132874804Y-88090506D01*
X132908262Y-88073089D01*
X132917396Y-88063959D01*
X132923848Y-88051855D01*
X132928103Y-88033001D01*
X132930648Y-88003620D01*
X132931971Y-87959937D01*
X132932557Y-87898175D01*
X132932625Y-87884000D01*
X132933109Y-87767631D01*
X132933359Y-87671727D01*
X132933277Y-87594177D01*
X132932769Y-87532869D01*
X132931738Y-87485690D01*
X132930087Y-87450530D01*
X132927721Y-87425276D01*
X132924543Y-87407817D01*
X132920456Y-87396041D01*
X132915366Y-87387835D01*
X132909734Y-87381645D01*
X132877872Y-87361844D01*
X132844643Y-87364533D01*
X132813265Y-87386776D01*
X132800567Y-87401126D01*
X132792474Y-87416978D01*
X132787958Y-87439554D01*
X132785994Y-87474078D01*
X132785556Y-87525776D01*
X132785556Y-87641289D01*
X132288845Y-87641289D01*
X132288845Y-87522756D01*
X132288338Y-87468148D01*
X132286302Y-87431275D01*
X132281965Y-87407307D01*
X132274553Y-87391415D01*
X132266267Y-87381645D01*
X132234406Y-87361844D01*
X132201177Y-87364533D01*
G37*
X132201177Y-87364533D02*
X132169798Y-87386776D01*
X132142089Y-87414485D01*
X132142089Y-87723920D01*
X132142162Y-87815799D01*
X132142505Y-87887840D01*
X132143308Y-87942780D01*
X132144759Y-87983360D01*
X132147048Y-88012317D01*
X132150364Y-88032391D01*
X132154895Y-88046321D01*
X132160831Y-88056845D01*
X132165486Y-88063100D01*
X132196217Y-88087673D01*
X132231504Y-88090341D01*
X132263755Y-88075271D01*
X132274412Y-88066374D01*
X132281536Y-88054557D01*
X132285833Y-88035526D01*
X132288009Y-88004992D01*
X132288772Y-87958662D01*
X132288845Y-87922871D01*
X132288845Y-87788045D01*
X132785556Y-87788045D01*
X132785556Y-87910700D01*
X132786069Y-87966787D01*
X132788124Y-88005333D01*
X132792492Y-88031361D01*
X132799944Y-88049897D01*
X132808953Y-88063100D01*
X132839856Y-88087604D01*
X132874804Y-88090506D01*
X132908262Y-88073089D01*
X132917396Y-88063959D01*
X132923848Y-88051855D01*
X132928103Y-88033001D01*
X132930648Y-88003620D01*
X132931971Y-87959937D01*
X132932557Y-87898175D01*
X132932625Y-87884000D01*
X132933109Y-87767631D01*
X132933359Y-87671727D01*
X132933277Y-87594177D01*
X132932769Y-87532869D01*
X132931738Y-87485690D01*
X132930087Y-87450530D01*
X132927721Y-87425276D01*
X132924543Y-87407817D01*
X132920456Y-87396041D01*
X132915366Y-87387835D01*
X132909734Y-87381645D01*
X132877872Y-87361844D01*
X132844643Y-87364533D01*
X132813265Y-87386776D01*
X132800567Y-87401126D01*
X132792474Y-87416978D01*
X132787958Y-87439554D01*
X132785994Y-87474078D01*
X132785556Y-87525776D01*
X132785556Y-87641289D01*
X132288845Y-87641289D01*
X132288845Y-87522756D01*
X132288338Y-87468148D01*
X132286302Y-87431275D01*
X132281965Y-87407307D01*
X132274553Y-87391415D01*
X132266267Y-87381645D01*
X132234406Y-87361844D01*
X132201177Y-87364533D01*
%TO.C,LOGO1*%
G36*
X135156386Y-70417731D02*
G01*
X135072565Y-70862355D01*
X134763280Y-70989853D01*
X134453994Y-71117351D01*
X134082954Y-70865046D01*
X133979043Y-70794796D01*
X133885113Y-70732072D01*
X133805548Y-70679738D01*
X133744730Y-70640657D01*
X133707043Y-70617693D01*
X133696779Y-70612742D01*
X133678290Y-70625476D01*
X133638780Y-70660682D01*
X133582678Y-70713862D01*
X133514413Y-70780518D01*
X133438414Y-70856154D01*
X133359108Y-70936272D01*
X133280925Y-71016374D01*
X133208293Y-71091964D01*
X133145641Y-71158545D01*
X133097397Y-71211618D01*
X133067990Y-71246687D01*
X133060959Y-71258423D01*
X133071077Y-71280060D01*
X133099441Y-71327462D01*
X133143071Y-71395993D01*
X133198982Y-71481015D01*
X133264194Y-71577893D01*
X133301981Y-71633150D01*
X133370857Y-71734048D01*
X133432060Y-71825099D01*
X133482622Y-71901770D01*
X133519572Y-71959528D01*
X133539942Y-71993843D01*
X133543003Y-72001054D01*
X133536064Y-72021548D01*
X133517149Y-72069313D01*
X133489113Y-72137632D01*
X133454809Y-72219789D01*
X133417091Y-72309070D01*
X133378813Y-72398758D01*
X133342830Y-72482138D01*
X133311994Y-72552494D01*
X133289161Y-72603110D01*
X133277183Y-72627271D01*
X133276476Y-72628222D01*
X133257669Y-72632836D01*
X133207582Y-72643128D01*
X133131407Y-72658087D01*
X133034335Y-72676701D01*
X132921557Y-72697959D01*
X132855758Y-72710218D01*
X132735250Y-72733162D01*
X132626403Y-72754995D01*
X132534724Y-72774522D01*
X132465719Y-72790548D01*
X132424896Y-72801879D01*
X132416689Y-72805474D01*
X132408652Y-72829806D01*
X132402167Y-72884759D01*
X132397230Y-72963908D01*
X132393836Y-73060826D01*
X132391982Y-73169087D01*
X132391662Y-73282265D01*
X132392873Y-73393935D01*
X132395610Y-73497668D01*
X132399869Y-73587041D01*
X132405645Y-73655626D01*
X132412933Y-73696997D01*
X132417305Y-73705610D01*
X132443436Y-73715933D01*
X132498807Y-73730692D01*
X132576093Y-73748152D01*
X132667970Y-73766580D01*
X132700042Y-73772541D01*
X132854676Y-73800866D01*
X132976825Y-73823676D01*
X133070527Y-73841880D01*
X133139816Y-73856383D01*
X133188729Y-73868092D01*
X133221303Y-73877915D01*
X133241572Y-73886756D01*
X133253574Y-73895524D01*
X133255253Y-73897257D01*
X133272016Y-73925171D01*
X133297586Y-73979495D01*
X133329412Y-74053577D01*
X133364940Y-74140765D01*
X133401617Y-74234408D01*
X133436889Y-74327852D01*
X133468204Y-74414447D01*
X133493007Y-74487540D01*
X133508746Y-74540478D01*
X133512868Y-74566611D01*
X133512524Y-74567526D01*
X133498559Y-74588886D01*
X133466878Y-74635884D01*
X133420809Y-74703627D01*
X133363682Y-74787223D01*
X133298827Y-74881782D01*
X133280357Y-74908654D01*
X133214501Y-75006075D01*
X133156550Y-75094963D01*
X133109662Y-75170212D01*
X133076993Y-75226720D01*
X133061700Y-75259381D01*
X133060959Y-75263393D01*
X133073808Y-75284484D01*
X133109312Y-75326264D01*
X133162907Y-75384245D01*
X133230029Y-75453935D01*
X133306113Y-75530845D01*
X133386596Y-75610483D01*
X133466913Y-75688361D01*
X133542501Y-75759986D01*
X133608795Y-75820870D01*
X133661231Y-75866521D01*
X133695245Y-75892450D01*
X133704655Y-75896683D01*
X133726557Y-75886712D01*
X133771400Y-75859820D01*
X133831879Y-75820536D01*
X133878411Y-75788917D01*
X133962725Y-75730898D01*
X134062574Y-75662584D01*
X134162727Y-75594379D01*
X134216573Y-75557875D01*
X134398829Y-75434600D01*
X134551819Y-75517320D01*
X134621518Y-75553559D01*
X134680786Y-75581726D01*
X134720889Y-75597791D01*
X134731097Y-75600026D01*
X134743371Y-75583522D01*
X134767587Y-75536882D01*
X134801937Y-75464409D01*
X134844612Y-75370406D01*
X134893806Y-75259174D01*
X134947710Y-75135015D01*
X135004516Y-75002232D01*
X135062418Y-74865127D01*
X135119607Y-74728002D01*
X135174276Y-74595158D01*
X135224616Y-74470898D01*
X135268820Y-74359525D01*
X135305081Y-74265339D01*
X135331591Y-74192644D01*
X135346542Y-74145741D01*
X135348946Y-74129633D01*
X135329889Y-74109086D01*
X135288164Y-74075733D01*
X135232494Y-74036502D01*
X135227822Y-74033399D01*
X135083936Y-73918223D01*
X134967917Y-73783853D01*
X134880770Y-73634584D01*
X134823501Y-73474713D01*
X134797114Y-73308537D01*
X134802615Y-73140352D01*
X134841010Y-72974455D01*
X134913305Y-72815142D01*
X134934574Y-72780287D01*
X135045204Y-72639537D01*
X135175898Y-72526514D01*
X135322136Y-72441803D01*
X135479392Y-72385994D01*
X135643143Y-72359674D01*
X135808867Y-72363430D01*
X135972038Y-72397850D01*
X136128135Y-72463523D01*
X136272633Y-72561035D01*
X136317331Y-72600613D01*
X136431088Y-72724503D01*
X136513982Y-72854924D01*
X136570844Y-73001115D01*
X136602513Y-73145888D01*
X136610331Y-73308660D01*
X136584262Y-73472240D01*
X136526955Y-73631098D01*
X136441056Y-73779706D01*
X136329214Y-73912535D01*
X136194077Y-74024056D01*
X136176317Y-74035811D01*
X136120050Y-74074308D01*
X136077277Y-74107663D01*
X136056828Y-74128960D01*
X136056531Y-74129633D01*
X136060921Y-74152671D01*
X136078324Y-74204957D01*
X136106932Y-74282190D01*
X136144935Y-74380068D01*
X136190526Y-74494291D01*
X136241897Y-74620558D01*
X136297238Y-74754567D01*
X136354742Y-74892018D01*
X136412599Y-75028608D01*
X136469002Y-75160037D01*
X136522142Y-75282005D01*
X136570210Y-75390209D01*
X136611399Y-75480349D01*
X136643899Y-75548123D01*
X136665903Y-75589230D01*
X136674764Y-75600026D01*
X136701840Y-75591619D01*
X136752503Y-75569072D01*
X136818017Y-75536413D01*
X136854041Y-75517320D01*
X137007032Y-75434600D01*
X137189288Y-75557875D01*
X137282325Y-75621028D01*
X137384185Y-75690527D01*
X137479638Y-75755965D01*
X137527450Y-75788917D01*
X137594695Y-75834073D01*
X137651636Y-75869857D01*
X137690846Y-75891738D01*
X137703581Y-75896363D01*
X137722117Y-75883885D01*
X137763141Y-75849052D01*
X137822675Y-75795478D01*
X137896742Y-75726783D01*
X137981365Y-75646581D01*
X138034885Y-75595086D01*
X138128519Y-75503086D01*
X138209441Y-75420799D01*
X138274377Y-75351745D01*
X138320058Y-75299444D01*
X138343211Y-75267416D01*
X138345432Y-75260916D01*
X138335124Y-75236194D01*
X138306639Y-75186205D01*
X138263137Y-75116012D01*
X138207777Y-75030675D01*
X138143720Y-74935256D01*
X138125503Y-74908654D01*
X138059127Y-74811967D01*
X137999578Y-74724917D01*
X137950184Y-74652395D01*
X137914275Y-74599293D01*
X137895181Y-74570503D01*
X137893336Y-74567526D01*
X137896095Y-74544582D01*
X137910738Y-74494136D01*
X137934713Y-74422841D01*
X137965466Y-74337347D01*
X138000444Y-74244307D01*
X138037093Y-74150374D01*
X138072861Y-74062199D01*
X138105194Y-73986434D01*
X138131538Y-73929731D01*
X138149342Y-73898743D01*
X138150607Y-73897257D01*
X138161494Y-73888401D01*
X138179882Y-73879643D01*
X138209806Y-73870077D01*
X138255303Y-73858796D01*
X138320409Y-73844893D01*
X138409161Y-73827463D01*
X138525593Y-73805598D01*
X138673742Y-73778391D01*
X138705818Y-73772541D01*
X138800886Y-73754174D01*
X138883765Y-73736205D01*
X138947130Y-73720369D01*
X138983658Y-73708400D01*
X138988556Y-73705610D01*
X138996627Y-73680872D01*
X139003187Y-73625590D01*
X139008233Y-73546189D01*
X139011759Y-73449096D01*
X139013761Y-73340738D01*
X139014236Y-73227540D01*
X139013177Y-73115928D01*
X139010582Y-73012329D01*
X139006446Y-72923168D01*
X139000763Y-72854872D01*
X138993531Y-72813866D01*
X138989171Y-72805474D01*
X138964898Y-72797008D01*
X138909626Y-72783235D01*
X138828862Y-72765350D01*
X138728112Y-72744548D01*
X138612883Y-72722023D01*
X138550102Y-72710218D01*
X138430987Y-72687951D01*
X138324765Y-72667779D01*
X138236627Y-72650715D01*
X138171766Y-72637769D01*
X138135374Y-72629955D01*
X138129384Y-72628222D01*
X138119261Y-72608690D01*
X138097862Y-72561643D01*
X138068039Y-72493803D01*
X138032645Y-72411891D01*
X137994532Y-72322628D01*
X137956553Y-72232735D01*
X137921560Y-72148935D01*
X137892406Y-72077947D01*
X137871943Y-72026494D01*
X137863023Y-72001297D01*
X137862857Y-72000196D01*
X137872969Y-71980319D01*
X137901317Y-71934577D01*
X137944923Y-71867517D01*
X138000806Y-71783684D01*
X138065987Y-71687626D01*
X138103879Y-71632450D01*
X138172925Y-71531281D01*
X138234250Y-71439430D01*
X138284863Y-71361544D01*
X138321771Y-71302269D01*
X138341982Y-71266251D01*
X138344901Y-71258177D01*
X138332353Y-71239384D01*
X138297663Y-71199257D01*
X138245263Y-71142293D01*
X138179584Y-71072985D01*
X138105056Y-70995831D01*
X138026113Y-70915325D01*
X137947183Y-70835963D01*
X137872700Y-70762240D01*
X137807094Y-70698652D01*
X137754796Y-70649694D01*
X137720239Y-70619861D01*
X137708678Y-70612742D01*
X137689854Y-70622753D01*
X137644831Y-70650878D01*
X137577987Y-70694254D01*
X137493699Y-70750018D01*
X137396344Y-70815306D01*
X137322907Y-70865046D01*
X136951867Y-71117351D01*
X136333295Y-70862355D01*
X136249475Y-70417731D01*
X136165654Y-69973107D01*
X135240206Y-69973107D01*
X135156386Y-70417731D01*
G37*
X135156386Y-70417731D02*
X135072565Y-70862355D01*
X134763280Y-70989853D01*
X134453994Y-71117351D01*
X134082954Y-70865046D01*
X133979043Y-70794796D01*
X133885113Y-70732072D01*
X133805548Y-70679738D01*
X133744730Y-70640657D01*
X133707043Y-70617693D01*
X133696779Y-70612742D01*
X133678290Y-70625476D01*
X133638780Y-70660682D01*
X133582678Y-70713862D01*
X133514413Y-70780518D01*
X133438414Y-70856154D01*
X133359108Y-70936272D01*
X133280925Y-71016374D01*
X133208293Y-71091964D01*
X133145641Y-71158545D01*
X133097397Y-71211618D01*
X133067990Y-71246687D01*
X133060959Y-71258423D01*
X133071077Y-71280060D01*
X133099441Y-71327462D01*
X133143071Y-71395993D01*
X133198982Y-71481015D01*
X133264194Y-71577893D01*
X133301981Y-71633150D01*
X133370857Y-71734048D01*
X133432060Y-71825099D01*
X133482622Y-71901770D01*
X133519572Y-71959528D01*
X133539942Y-71993843D01*
X133543003Y-72001054D01*
X133536064Y-72021548D01*
X133517149Y-72069313D01*
X133489113Y-72137632D01*
X133454809Y-72219789D01*
X133417091Y-72309070D01*
X133378813Y-72398758D01*
X133342830Y-72482138D01*
X133311994Y-72552494D01*
X133289161Y-72603110D01*
X133277183Y-72627271D01*
X133276476Y-72628222D01*
X133257669Y-72632836D01*
X133207582Y-72643128D01*
X133131407Y-72658087D01*
X133034335Y-72676701D01*
X132921557Y-72697959D01*
X132855758Y-72710218D01*
X132735250Y-72733162D01*
X132626403Y-72754995D01*
X132534724Y-72774522D01*
X132465719Y-72790548D01*
X132424896Y-72801879D01*
X132416689Y-72805474D01*
X132408652Y-72829806D01*
X132402167Y-72884759D01*
X132397230Y-72963908D01*
X132393836Y-73060826D01*
X132391982Y-73169087D01*
X132391662Y-73282265D01*
X132392873Y-73393935D01*
X132395610Y-73497668D01*
X132399869Y-73587041D01*
X132405645Y-73655626D01*
X132412933Y-73696997D01*
X132417305Y-73705610D01*
X132443436Y-73715933D01*
X132498807Y-73730692D01*
X132576093Y-73748152D01*
X132667970Y-73766580D01*
X132700042Y-73772541D01*
X132854676Y-73800866D01*
X132976825Y-73823676D01*
X133070527Y-73841880D01*
X133139816Y-73856383D01*
X133188729Y-73868092D01*
X133221303Y-73877915D01*
X133241572Y-73886756D01*
X133253574Y-73895524D01*
X133255253Y-73897257D01*
X133272016Y-73925171D01*
X133297586Y-73979495D01*
X133329412Y-74053577D01*
X133364940Y-74140765D01*
X133401617Y-74234408D01*
X133436889Y-74327852D01*
X133468204Y-74414447D01*
X133493007Y-74487540D01*
X133508746Y-74540478D01*
X133512868Y-74566611D01*
X133512524Y-74567526D01*
X133498559Y-74588886D01*
X133466878Y-74635884D01*
X133420809Y-74703627D01*
X133363682Y-74787223D01*
X133298827Y-74881782D01*
X133280357Y-74908654D01*
X133214501Y-75006075D01*
X133156550Y-75094963D01*
X133109662Y-75170212D01*
X133076993Y-75226720D01*
X133061700Y-75259381D01*
X133060959Y-75263393D01*
X133073808Y-75284484D01*
X133109312Y-75326264D01*
X133162907Y-75384245D01*
X133230029Y-75453935D01*
X133306113Y-75530845D01*
X133386596Y-75610483D01*
X133466913Y-75688361D01*
X133542501Y-75759986D01*
X133608795Y-75820870D01*
X133661231Y-75866521D01*
X133695245Y-75892450D01*
X133704655Y-75896683D01*
X133726557Y-75886712D01*
X133771400Y-75859820D01*
X133831879Y-75820536D01*
X133878411Y-75788917D01*
X133962725Y-75730898D01*
X134062574Y-75662584D01*
X134162727Y-75594379D01*
X134216573Y-75557875D01*
X134398829Y-75434600D01*
X134551819Y-75517320D01*
X134621518Y-75553559D01*
X134680786Y-75581726D01*
X134720889Y-75597791D01*
X134731097Y-75600026D01*
X134743371Y-75583522D01*
X134767587Y-75536882D01*
X134801937Y-75464409D01*
X134844612Y-75370406D01*
X134893806Y-75259174D01*
X134947710Y-75135015D01*
X135004516Y-75002232D01*
X135062418Y-74865127D01*
X135119607Y-74728002D01*
X135174276Y-74595158D01*
X135224616Y-74470898D01*
X135268820Y-74359525D01*
X135305081Y-74265339D01*
X135331591Y-74192644D01*
X135346542Y-74145741D01*
X135348946Y-74129633D01*
X135329889Y-74109086D01*
X135288164Y-74075733D01*
X135232494Y-74036502D01*
X135227822Y-74033399D01*
X135083936Y-73918223D01*
X134967917Y-73783853D01*
X134880770Y-73634584D01*
X134823501Y-73474713D01*
X134797114Y-73308537D01*
X134802615Y-73140352D01*
X134841010Y-72974455D01*
X134913305Y-72815142D01*
X134934574Y-72780287D01*
X135045204Y-72639537D01*
X135175898Y-72526514D01*
X135322136Y-72441803D01*
X135479392Y-72385994D01*
X135643143Y-72359674D01*
X135808867Y-72363430D01*
X135972038Y-72397850D01*
X136128135Y-72463523D01*
X136272633Y-72561035D01*
X136317331Y-72600613D01*
X136431088Y-72724503D01*
X136513982Y-72854924D01*
X136570844Y-73001115D01*
X136602513Y-73145888D01*
X136610331Y-73308660D01*
X136584262Y-73472240D01*
X136526955Y-73631098D01*
X136441056Y-73779706D01*
X136329214Y-73912535D01*
X136194077Y-74024056D01*
X136176317Y-74035811D01*
X136120050Y-74074308D01*
X136077277Y-74107663D01*
X136056828Y-74128960D01*
X136056531Y-74129633D01*
X136060921Y-74152671D01*
X136078324Y-74204957D01*
X136106932Y-74282190D01*
X136144935Y-74380068D01*
X136190526Y-74494291D01*
X136241897Y-74620558D01*
X136297238Y-74754567D01*
X136354742Y-74892018D01*
X136412599Y-75028608D01*
X136469002Y-75160037D01*
X136522142Y-75282005D01*
X136570210Y-75390209D01*
X136611399Y-75480349D01*
X136643899Y-75548123D01*
X136665903Y-75589230D01*
X136674764Y-75600026D01*
X136701840Y-75591619D01*
X136752503Y-75569072D01*
X136818017Y-75536413D01*
X136854041Y-75517320D01*
X137007032Y-75434600D01*
X137189288Y-75557875D01*
X137282325Y-75621028D01*
X137384185Y-75690527D01*
X137479638Y-75755965D01*
X137527450Y-75788917D01*
X137594695Y-75834073D01*
X137651636Y-75869857D01*
X137690846Y-75891738D01*
X137703581Y-75896363D01*
X137722117Y-75883885D01*
X137763141Y-75849052D01*
X137822675Y-75795478D01*
X137896742Y-75726783D01*
X137981365Y-75646581D01*
X138034885Y-75595086D01*
X138128519Y-75503086D01*
X138209441Y-75420799D01*
X138274377Y-75351745D01*
X138320058Y-75299444D01*
X138343211Y-75267416D01*
X138345432Y-75260916D01*
X138335124Y-75236194D01*
X138306639Y-75186205D01*
X138263137Y-75116012D01*
X138207777Y-75030675D01*
X138143720Y-74935256D01*
X138125503Y-74908654D01*
X138059127Y-74811967D01*
X137999578Y-74724917D01*
X137950184Y-74652395D01*
X137914275Y-74599293D01*
X137895181Y-74570503D01*
X137893336Y-74567526D01*
X137896095Y-74544582D01*
X137910738Y-74494136D01*
X137934713Y-74422841D01*
X137965466Y-74337347D01*
X138000444Y-74244307D01*
X138037093Y-74150374D01*
X138072861Y-74062199D01*
X138105194Y-73986434D01*
X138131538Y-73929731D01*
X138149342Y-73898743D01*
X138150607Y-73897257D01*
X138161494Y-73888401D01*
X138179882Y-73879643D01*
X138209806Y-73870077D01*
X138255303Y-73858796D01*
X138320409Y-73844893D01*
X138409161Y-73827463D01*
X138525593Y-73805598D01*
X138673742Y-73778391D01*
X138705818Y-73772541D01*
X138800886Y-73754174D01*
X138883765Y-73736205D01*
X138947130Y-73720369D01*
X138983658Y-73708400D01*
X138988556Y-73705610D01*
X138996627Y-73680872D01*
X139003187Y-73625590D01*
X139008233Y-73546189D01*
X139011759Y-73449096D01*
X139013761Y-73340738D01*
X139014236Y-73227540D01*
X139013177Y-73115928D01*
X139010582Y-73012329D01*
X139006446Y-72923168D01*
X139000763Y-72854872D01*
X138993531Y-72813866D01*
X138989171Y-72805474D01*
X138964898Y-72797008D01*
X138909626Y-72783235D01*
X138828862Y-72765350D01*
X138728112Y-72744548D01*
X138612883Y-72722023D01*
X138550102Y-72710218D01*
X138430987Y-72687951D01*
X138324765Y-72667779D01*
X138236627Y-72650715D01*
X138171766Y-72637769D01*
X138135374Y-72629955D01*
X138129384Y-72628222D01*
X138119261Y-72608690D01*
X138097862Y-72561643D01*
X138068039Y-72493803D01*
X138032645Y-72411891D01*
X137994532Y-72322628D01*
X137956553Y-72232735D01*
X137921560Y-72148935D01*
X137892406Y-72077947D01*
X137871943Y-72026494D01*
X137863023Y-72001297D01*
X137862857Y-72000196D01*
X137872969Y-71980319D01*
X137901317Y-71934577D01*
X137944923Y-71867517D01*
X138000806Y-71783684D01*
X138065987Y-71687626D01*
X138103879Y-71632450D01*
X138172925Y-71531281D01*
X138234250Y-71439430D01*
X138284863Y-71361544D01*
X138321771Y-71302269D01*
X138341982Y-71266251D01*
X138344901Y-71258177D01*
X138332353Y-71239384D01*
X138297663Y-71199257D01*
X138245263Y-71142293D01*
X138179584Y-71072985D01*
X138105056Y-70995831D01*
X138026113Y-70915325D01*
X137947183Y-70835963D01*
X137872700Y-70762240D01*
X137807094Y-70698652D01*
X137754796Y-70649694D01*
X137720239Y-70619861D01*
X137708678Y-70612742D01*
X137689854Y-70622753D01*
X137644831Y-70650878D01*
X137577987Y-70694254D01*
X137493699Y-70750018D01*
X137396344Y-70815306D01*
X137322907Y-70865046D01*
X136951867Y-71117351D01*
X136333295Y-70862355D01*
X136249475Y-70417731D01*
X136165654Y-69973107D01*
X135240206Y-69973107D01*
X135156386Y-70417731D01*
%TD*%
M02*
