%TF.GenerationSoftware,KiCad,Pcbnew,5.1.6-c6e7f7d~87~ubuntu18.04.1*%
%TF.CreationDate,2020-09-21T10:39:31-07:00*%
%TF.ProjectId,feather-power-supply-sw-smd,66656174-6865-4722-9d70-6f7765722d73,rev?*%
%TF.SameCoordinates,Original*%
%TF.FileFunction,Legend,Bot*%
%TF.FilePolarity,Positive*%
%FSLAX46Y46*%
G04 Gerber Fmt 4.6, Leading zero omitted, Abs format (unit mm)*
G04 Created by KiCad (PCBNEW 5.1.6-c6e7f7d~87~ubuntu18.04.1) date 2020-09-21 10:39:31*
%MOMM*%
%LPD*%
G01*
G04 APERTURE LIST*
%ADD10C,0.010000*%
G04 APERTURE END LIST*
D10*
%TO.C,REF\u002A\u002A*%
G36*
X133979177Y-87364533D02*
G01*
X133947798Y-87386776D01*
X133920089Y-87414485D01*
X133920089Y-87723920D01*
X133920162Y-87815799D01*
X133920505Y-87887840D01*
X133921308Y-87942780D01*
X133922759Y-87983360D01*
X133925048Y-88012317D01*
X133928364Y-88032391D01*
X133932895Y-88046321D01*
X133938831Y-88056845D01*
X133943486Y-88063100D01*
X133974217Y-88087673D01*
X134009504Y-88090341D01*
X134041755Y-88075271D01*
X134052412Y-88066374D01*
X134059536Y-88054557D01*
X134063833Y-88035526D01*
X134066009Y-88004992D01*
X134066772Y-87958662D01*
X134066845Y-87922871D01*
X134066845Y-87788045D01*
X134563556Y-87788045D01*
X134563556Y-87910700D01*
X134564069Y-87966787D01*
X134566124Y-88005333D01*
X134570492Y-88031361D01*
X134577944Y-88049897D01*
X134586953Y-88063100D01*
X134617856Y-88087604D01*
X134652804Y-88090506D01*
X134686262Y-88073089D01*
X134695396Y-88063959D01*
X134701848Y-88051855D01*
X134706103Y-88033001D01*
X134708648Y-88003620D01*
X134709971Y-87959937D01*
X134710557Y-87898175D01*
X134710625Y-87884000D01*
X134711109Y-87767631D01*
X134711359Y-87671727D01*
X134711277Y-87594177D01*
X134710769Y-87532869D01*
X134709738Y-87485690D01*
X134708087Y-87450530D01*
X134705721Y-87425276D01*
X134702543Y-87407817D01*
X134698456Y-87396041D01*
X134693366Y-87387835D01*
X134687734Y-87381645D01*
X134655872Y-87361844D01*
X134622643Y-87364533D01*
X134591265Y-87386776D01*
X134578567Y-87401126D01*
X134570474Y-87416978D01*
X134565958Y-87439554D01*
X134563994Y-87474078D01*
X134563556Y-87525776D01*
X134563556Y-87641289D01*
X134066845Y-87641289D01*
X134066845Y-87522756D01*
X134066338Y-87468148D01*
X134064302Y-87431275D01*
X134059965Y-87407307D01*
X134052553Y-87391415D01*
X134044267Y-87381645D01*
X134012406Y-87361844D01*
X133979177Y-87364533D01*
G37*
X133979177Y-87364533D02*
X133947798Y-87386776D01*
X133920089Y-87414485D01*
X133920089Y-87723920D01*
X133920162Y-87815799D01*
X133920505Y-87887840D01*
X133921308Y-87942780D01*
X133922759Y-87983360D01*
X133925048Y-88012317D01*
X133928364Y-88032391D01*
X133932895Y-88046321D01*
X133938831Y-88056845D01*
X133943486Y-88063100D01*
X133974217Y-88087673D01*
X134009504Y-88090341D01*
X134041755Y-88075271D01*
X134052412Y-88066374D01*
X134059536Y-88054557D01*
X134063833Y-88035526D01*
X134066009Y-88004992D01*
X134066772Y-87958662D01*
X134066845Y-87922871D01*
X134066845Y-87788045D01*
X134563556Y-87788045D01*
X134563556Y-87910700D01*
X134564069Y-87966787D01*
X134566124Y-88005333D01*
X134570492Y-88031361D01*
X134577944Y-88049897D01*
X134586953Y-88063100D01*
X134617856Y-88087604D01*
X134652804Y-88090506D01*
X134686262Y-88073089D01*
X134695396Y-88063959D01*
X134701848Y-88051855D01*
X134706103Y-88033001D01*
X134708648Y-88003620D01*
X134709971Y-87959937D01*
X134710557Y-87898175D01*
X134710625Y-87884000D01*
X134711109Y-87767631D01*
X134711359Y-87671727D01*
X134711277Y-87594177D01*
X134710769Y-87532869D01*
X134709738Y-87485690D01*
X134708087Y-87450530D01*
X134705721Y-87425276D01*
X134702543Y-87407817D01*
X134698456Y-87396041D01*
X134693366Y-87387835D01*
X134687734Y-87381645D01*
X134655872Y-87361844D01*
X134622643Y-87364533D01*
X134591265Y-87386776D01*
X134578567Y-87401126D01*
X134570474Y-87416978D01*
X134565958Y-87439554D01*
X134563994Y-87474078D01*
X134563556Y-87525776D01*
X134563556Y-87641289D01*
X134066845Y-87641289D01*
X134066845Y-87522756D01*
X134066338Y-87468148D01*
X134064302Y-87431275D01*
X134059965Y-87407307D01*
X134052553Y-87391415D01*
X134044267Y-87381645D01*
X134012406Y-87361844D01*
X133979177Y-87364533D01*
G36*
X135244935Y-87359163D02*
G01*
X135166228Y-87359542D01*
X135105137Y-87360333D01*
X135059183Y-87361670D01*
X135025886Y-87363683D01*
X135002764Y-87366506D01*
X134987338Y-87370269D01*
X134977129Y-87375105D01*
X134972187Y-87378822D01*
X134946543Y-87411358D01*
X134943441Y-87445138D01*
X134959289Y-87475826D01*
X134969652Y-87488089D01*
X134980804Y-87496450D01*
X134996965Y-87501657D01*
X135022358Y-87504457D01*
X135061202Y-87505596D01*
X135117720Y-87505821D01*
X135128820Y-87505822D01*
X135274756Y-87505822D01*
X135274756Y-87776756D01*
X135274852Y-87862154D01*
X135275289Y-87927864D01*
X135276288Y-87976774D01*
X135278072Y-88011773D01*
X135280863Y-88035749D01*
X135284883Y-88051593D01*
X135290355Y-88062191D01*
X135297334Y-88070267D01*
X135330266Y-88090112D01*
X135364646Y-88088548D01*
X135395824Y-88065906D01*
X135398114Y-88063100D01*
X135405571Y-88052492D01*
X135411253Y-88040081D01*
X135415399Y-88022850D01*
X135418250Y-87997784D01*
X135420046Y-87961867D01*
X135421028Y-87912083D01*
X135421436Y-87845417D01*
X135421511Y-87769589D01*
X135421511Y-87505822D01*
X135560873Y-87505822D01*
X135620678Y-87505418D01*
X135662082Y-87503840D01*
X135689252Y-87500547D01*
X135706354Y-87494992D01*
X135717557Y-87486631D01*
X135718917Y-87485178D01*
X135735275Y-87451939D01*
X135733828Y-87414362D01*
X135715022Y-87381645D01*
X135707750Y-87375298D01*
X135698373Y-87370266D01*
X135684391Y-87366396D01*
X135663304Y-87363537D01*
X135632611Y-87361535D01*
X135589811Y-87360239D01*
X135532405Y-87359498D01*
X135457890Y-87359158D01*
X135363767Y-87359068D01*
X135343740Y-87359067D01*
X135244935Y-87359163D01*
G37*
X135244935Y-87359163D02*
X135166228Y-87359542D01*
X135105137Y-87360333D01*
X135059183Y-87361670D01*
X135025886Y-87363683D01*
X135002764Y-87366506D01*
X134987338Y-87370269D01*
X134977129Y-87375105D01*
X134972187Y-87378822D01*
X134946543Y-87411358D01*
X134943441Y-87445138D01*
X134959289Y-87475826D01*
X134969652Y-87488089D01*
X134980804Y-87496450D01*
X134996965Y-87501657D01*
X135022358Y-87504457D01*
X135061202Y-87505596D01*
X135117720Y-87505821D01*
X135128820Y-87505822D01*
X135274756Y-87505822D01*
X135274756Y-87776756D01*
X135274852Y-87862154D01*
X135275289Y-87927864D01*
X135276288Y-87976774D01*
X135278072Y-88011773D01*
X135280863Y-88035749D01*
X135284883Y-88051593D01*
X135290355Y-88062191D01*
X135297334Y-88070267D01*
X135330266Y-88090112D01*
X135364646Y-88088548D01*
X135395824Y-88065906D01*
X135398114Y-88063100D01*
X135405571Y-88052492D01*
X135411253Y-88040081D01*
X135415399Y-88022850D01*
X135418250Y-87997784D01*
X135420046Y-87961867D01*
X135421028Y-87912083D01*
X135421436Y-87845417D01*
X135421511Y-87769589D01*
X135421511Y-87505822D01*
X135560873Y-87505822D01*
X135620678Y-87505418D01*
X135662082Y-87503840D01*
X135689252Y-87500547D01*
X135706354Y-87494992D01*
X135717557Y-87486631D01*
X135718917Y-87485178D01*
X135735275Y-87451939D01*
X135733828Y-87414362D01*
X135715022Y-87381645D01*
X135707750Y-87375298D01*
X135698373Y-87370266D01*
X135684391Y-87366396D01*
X135663304Y-87363537D01*
X135632611Y-87361535D01*
X135589811Y-87360239D01*
X135532405Y-87359498D01*
X135457890Y-87359158D01*
X135363767Y-87359068D01*
X135343740Y-87359067D01*
X135244935Y-87359163D01*
G36*
X136019386Y-87365877D02*
G01*
X135995673Y-87380647D01*
X135969022Y-87402227D01*
X135969022Y-87723773D01*
X135969107Y-87817830D01*
X135969471Y-87891932D01*
X135970276Y-87948704D01*
X135971687Y-87990768D01*
X135973867Y-88020748D01*
X135976979Y-88041267D01*
X135981186Y-88054949D01*
X135986652Y-88064416D01*
X135990528Y-88069082D01*
X136021966Y-88089575D01*
X136057767Y-88088739D01*
X136089127Y-88071264D01*
X136115778Y-88049684D01*
X136115778Y-87402227D01*
X136089127Y-87380647D01*
X136063406Y-87364949D01*
X136042400Y-87359067D01*
X136019386Y-87365877D01*
G37*
X136019386Y-87365877D02*
X135995673Y-87380647D01*
X135969022Y-87402227D01*
X135969022Y-87723773D01*
X135969107Y-87817830D01*
X135969471Y-87891932D01*
X135970276Y-87948704D01*
X135971687Y-87990768D01*
X135973867Y-88020748D01*
X135976979Y-88041267D01*
X135981186Y-88054949D01*
X135986652Y-88064416D01*
X135990528Y-88069082D01*
X136021966Y-88089575D01*
X136057767Y-88088739D01*
X136089127Y-88071264D01*
X136115778Y-88049684D01*
X136115778Y-87402227D01*
X136089127Y-87380647D01*
X136063406Y-87364949D01*
X136042400Y-87359067D01*
X136019386Y-87365877D01*
G36*
X136463335Y-87361034D02*
G01*
X136443745Y-87368035D01*
X136442990Y-87368377D01*
X136416387Y-87388678D01*
X136401730Y-87409561D01*
X136398862Y-87419352D01*
X136399004Y-87432361D01*
X136403039Y-87450895D01*
X136411854Y-87477257D01*
X136426331Y-87513752D01*
X136447355Y-87562687D01*
X136475812Y-87626365D01*
X136512585Y-87707093D01*
X136532825Y-87751216D01*
X136569375Y-87829985D01*
X136603685Y-87902423D01*
X136634448Y-87965880D01*
X136660352Y-88017708D01*
X136680090Y-88055259D01*
X136692350Y-88075884D01*
X136694776Y-88078733D01*
X136725817Y-88091302D01*
X136760879Y-88089619D01*
X136789000Y-88074332D01*
X136790146Y-88073089D01*
X136801332Y-88056154D01*
X136820096Y-88023170D01*
X136844125Y-87978380D01*
X136871103Y-87926032D01*
X136880799Y-87906742D01*
X136953986Y-87760150D01*
X137033760Y-87919393D01*
X137062233Y-87974415D01*
X137088650Y-88022132D01*
X137110852Y-88058893D01*
X137126681Y-88081044D01*
X137132046Y-88085741D01*
X137173743Y-88092102D01*
X137208151Y-88078733D01*
X137218272Y-88064446D01*
X137235786Y-88032692D01*
X137259265Y-87986597D01*
X137287280Y-87929285D01*
X137318401Y-87863880D01*
X137351201Y-87793507D01*
X137384250Y-87721291D01*
X137416119Y-87650355D01*
X137445381Y-87583825D01*
X137470605Y-87524826D01*
X137490364Y-87476481D01*
X137503228Y-87441915D01*
X137507769Y-87424253D01*
X137507723Y-87423613D01*
X137496674Y-87401388D01*
X137474590Y-87378753D01*
X137473290Y-87377768D01*
X137446147Y-87362425D01*
X137421042Y-87362574D01*
X137411632Y-87365466D01*
X137400166Y-87371718D01*
X137387990Y-87384014D01*
X137373643Y-87404908D01*
X137355664Y-87436949D01*
X137332593Y-87482688D01*
X137302970Y-87544677D01*
X137276255Y-87601898D01*
X137245520Y-87668226D01*
X137217979Y-87727874D01*
X137195062Y-87777725D01*
X137178202Y-87814664D01*
X137168827Y-87835573D01*
X137167460Y-87838845D01*
X137161311Y-87833497D01*
X137147178Y-87811109D01*
X137126943Y-87774946D01*
X137102485Y-87728277D01*
X137092752Y-87709022D01*
X137059783Y-87644004D01*
X137034357Y-87596654D01*
X137014388Y-87564219D01*
X136997790Y-87543946D01*
X136982476Y-87533082D01*
X136966360Y-87528875D01*
X136955857Y-87528400D01*
X136937330Y-87530042D01*
X136921096Y-87536831D01*
X136904965Y-87551566D01*
X136886749Y-87577044D01*
X136864261Y-87616061D01*
X136835311Y-87671414D01*
X136819338Y-87702903D01*
X136793430Y-87753087D01*
X136770833Y-87794704D01*
X136753542Y-87824242D01*
X136743550Y-87838189D01*
X136742191Y-87838770D01*
X136735739Y-87827793D01*
X136721292Y-87799290D01*
X136700297Y-87756244D01*
X136674203Y-87701638D01*
X136644454Y-87638454D01*
X136629820Y-87607071D01*
X136591750Y-87526078D01*
X136561095Y-87463756D01*
X136536263Y-87418071D01*
X136515663Y-87386989D01*
X136497702Y-87368478D01*
X136480790Y-87360504D01*
X136463335Y-87361034D01*
G37*
X136463335Y-87361034D02*
X136443745Y-87368035D01*
X136442990Y-87368377D01*
X136416387Y-87388678D01*
X136401730Y-87409561D01*
X136398862Y-87419352D01*
X136399004Y-87432361D01*
X136403039Y-87450895D01*
X136411854Y-87477257D01*
X136426331Y-87513752D01*
X136447355Y-87562687D01*
X136475812Y-87626365D01*
X136512585Y-87707093D01*
X136532825Y-87751216D01*
X136569375Y-87829985D01*
X136603685Y-87902423D01*
X136634448Y-87965880D01*
X136660352Y-88017708D01*
X136680090Y-88055259D01*
X136692350Y-88075884D01*
X136694776Y-88078733D01*
X136725817Y-88091302D01*
X136760879Y-88089619D01*
X136789000Y-88074332D01*
X136790146Y-88073089D01*
X136801332Y-88056154D01*
X136820096Y-88023170D01*
X136844125Y-87978380D01*
X136871103Y-87926032D01*
X136880799Y-87906742D01*
X136953986Y-87760150D01*
X137033760Y-87919393D01*
X137062233Y-87974415D01*
X137088650Y-88022132D01*
X137110852Y-88058893D01*
X137126681Y-88081044D01*
X137132046Y-88085741D01*
X137173743Y-88092102D01*
X137208151Y-88078733D01*
X137218272Y-88064446D01*
X137235786Y-88032692D01*
X137259265Y-87986597D01*
X137287280Y-87929285D01*
X137318401Y-87863880D01*
X137351201Y-87793507D01*
X137384250Y-87721291D01*
X137416119Y-87650355D01*
X137445381Y-87583825D01*
X137470605Y-87524826D01*
X137490364Y-87476481D01*
X137503228Y-87441915D01*
X137507769Y-87424253D01*
X137507723Y-87423613D01*
X137496674Y-87401388D01*
X137474590Y-87378753D01*
X137473290Y-87377768D01*
X137446147Y-87362425D01*
X137421042Y-87362574D01*
X137411632Y-87365466D01*
X137400166Y-87371718D01*
X137387990Y-87384014D01*
X137373643Y-87404908D01*
X137355664Y-87436949D01*
X137332593Y-87482688D01*
X137302970Y-87544677D01*
X137276255Y-87601898D01*
X137245520Y-87668226D01*
X137217979Y-87727874D01*
X137195062Y-87777725D01*
X137178202Y-87814664D01*
X137168827Y-87835573D01*
X137167460Y-87838845D01*
X137161311Y-87833497D01*
X137147178Y-87811109D01*
X137126943Y-87774946D01*
X137102485Y-87728277D01*
X137092752Y-87709022D01*
X137059783Y-87644004D01*
X137034357Y-87596654D01*
X137014388Y-87564219D01*
X136997790Y-87543946D01*
X136982476Y-87533082D01*
X136966360Y-87528875D01*
X136955857Y-87528400D01*
X136937330Y-87530042D01*
X136921096Y-87536831D01*
X136904965Y-87551566D01*
X136886749Y-87577044D01*
X136864261Y-87616061D01*
X136835311Y-87671414D01*
X136819338Y-87702903D01*
X136793430Y-87753087D01*
X136770833Y-87794704D01*
X136753542Y-87824242D01*
X136743550Y-87838189D01*
X136742191Y-87838770D01*
X136735739Y-87827793D01*
X136721292Y-87799290D01*
X136700297Y-87756244D01*
X136674203Y-87701638D01*
X136644454Y-87638454D01*
X136629820Y-87607071D01*
X136591750Y-87526078D01*
X136561095Y-87463756D01*
X136536263Y-87418071D01*
X136515663Y-87386989D01*
X136497702Y-87368478D01*
X136480790Y-87360504D01*
X136463335Y-87361034D01*
G36*
X139189691Y-87359275D02*
G01*
X139060712Y-87363636D01*
X138951009Y-87376861D01*
X138858774Y-87399741D01*
X138782198Y-87433070D01*
X138719473Y-87477638D01*
X138668788Y-87534236D01*
X138628337Y-87603658D01*
X138627541Y-87605351D01*
X138603399Y-87667483D01*
X138594797Y-87722509D01*
X138601769Y-87777887D01*
X138624346Y-87841073D01*
X138628628Y-87850689D01*
X138657828Y-87906966D01*
X138690644Y-87950451D01*
X138732998Y-87987417D01*
X138790810Y-88024135D01*
X138794169Y-88026052D01*
X138844496Y-88050227D01*
X138901379Y-88068282D01*
X138968473Y-88080839D01*
X139049435Y-88088522D01*
X139147918Y-88091953D01*
X139182714Y-88092251D01*
X139348406Y-88092845D01*
X139371803Y-88063100D01*
X139378743Y-88053319D01*
X139384158Y-88041897D01*
X139388235Y-88026095D01*
X139391163Y-88003175D01*
X139393133Y-87970396D01*
X139393775Y-87946089D01*
X139237156Y-87946089D01*
X139143274Y-87946089D01*
X139088336Y-87944483D01*
X139031940Y-87940255D01*
X138985655Y-87934292D01*
X138982861Y-87933790D01*
X138900652Y-87911736D01*
X138836886Y-87878600D01*
X138789548Y-87832847D01*
X138756618Y-87772939D01*
X138750892Y-87757061D01*
X138745279Y-87732333D01*
X138747709Y-87707902D01*
X138759533Y-87675400D01*
X138766660Y-87659434D01*
X138790000Y-87617006D01*
X138818120Y-87587240D01*
X138849060Y-87566511D01*
X138911034Y-87539537D01*
X138990349Y-87519998D01*
X139082747Y-87508746D01*
X139149667Y-87506270D01*
X139237156Y-87505822D01*
X139237156Y-87946089D01*
X139393775Y-87946089D01*
X139394332Y-87925021D01*
X139394950Y-87864311D01*
X139395175Y-87785526D01*
X139395200Y-87723920D01*
X139395200Y-87414485D01*
X139367491Y-87386776D01*
X139355194Y-87375544D01*
X139341897Y-87367853D01*
X139323328Y-87363040D01*
X139295214Y-87360446D01*
X139253283Y-87359410D01*
X139193263Y-87359270D01*
X139189691Y-87359275D01*
G37*
X139189691Y-87359275D02*
X139060712Y-87363636D01*
X138951009Y-87376861D01*
X138858774Y-87399741D01*
X138782198Y-87433070D01*
X138719473Y-87477638D01*
X138668788Y-87534236D01*
X138628337Y-87603658D01*
X138627541Y-87605351D01*
X138603399Y-87667483D01*
X138594797Y-87722509D01*
X138601769Y-87777887D01*
X138624346Y-87841073D01*
X138628628Y-87850689D01*
X138657828Y-87906966D01*
X138690644Y-87950451D01*
X138732998Y-87987417D01*
X138790810Y-88024135D01*
X138794169Y-88026052D01*
X138844496Y-88050227D01*
X138901379Y-88068282D01*
X138968473Y-88080839D01*
X139049435Y-88088522D01*
X139147918Y-88091953D01*
X139182714Y-88092251D01*
X139348406Y-88092845D01*
X139371803Y-88063100D01*
X139378743Y-88053319D01*
X139384158Y-88041897D01*
X139388235Y-88026095D01*
X139391163Y-88003175D01*
X139393133Y-87970396D01*
X139393775Y-87946089D01*
X139237156Y-87946089D01*
X139143274Y-87946089D01*
X139088336Y-87944483D01*
X139031940Y-87940255D01*
X138985655Y-87934292D01*
X138982861Y-87933790D01*
X138900652Y-87911736D01*
X138836886Y-87878600D01*
X138789548Y-87832847D01*
X138756618Y-87772939D01*
X138750892Y-87757061D01*
X138745279Y-87732333D01*
X138747709Y-87707902D01*
X138759533Y-87675400D01*
X138766660Y-87659434D01*
X138790000Y-87617006D01*
X138818120Y-87587240D01*
X138849060Y-87566511D01*
X138911034Y-87539537D01*
X138990349Y-87519998D01*
X139082747Y-87508746D01*
X139149667Y-87506270D01*
X139237156Y-87505822D01*
X139237156Y-87946089D01*
X139393775Y-87946089D01*
X139394332Y-87925021D01*
X139394950Y-87864311D01*
X139395175Y-87785526D01*
X139395200Y-87723920D01*
X139395200Y-87414485D01*
X139367491Y-87386776D01*
X139355194Y-87375544D01*
X139341897Y-87367853D01*
X139323328Y-87363040D01*
X139295214Y-87360446D01*
X139253283Y-87359410D01*
X139193263Y-87359270D01*
X139189691Y-87359275D01*
G36*
X139977657Y-87359260D02*
G01*
X139901299Y-87360174D01*
X139842783Y-87362311D01*
X139799745Y-87366175D01*
X139769817Y-87372267D01*
X139750632Y-87381090D01*
X139739824Y-87393146D01*
X139735027Y-87408939D01*
X139733873Y-87428970D01*
X139733867Y-87431335D01*
X139734869Y-87453992D01*
X139739604Y-87471503D01*
X139750667Y-87484574D01*
X139770652Y-87493913D01*
X139802154Y-87500227D01*
X139847768Y-87504222D01*
X139910087Y-87506606D01*
X139991707Y-87508086D01*
X140016723Y-87508414D01*
X140258800Y-87511467D01*
X140262186Y-87576378D01*
X140265571Y-87641289D01*
X140097424Y-87641289D01*
X140031734Y-87641531D01*
X139984828Y-87642556D01*
X139952917Y-87644811D01*
X139932209Y-87648742D01*
X139918916Y-87654798D01*
X139909245Y-87663424D01*
X139909183Y-87663493D01*
X139891644Y-87697112D01*
X139892278Y-87733448D01*
X139910686Y-87764423D01*
X139914329Y-87767607D01*
X139927259Y-87775812D01*
X139944976Y-87781521D01*
X139971430Y-87785162D01*
X140010568Y-87787167D01*
X140066338Y-87787964D01*
X140102006Y-87788045D01*
X140264445Y-87788045D01*
X140264445Y-87946089D01*
X140017839Y-87946089D01*
X139936420Y-87946231D01*
X139874590Y-87946814D01*
X139829363Y-87948068D01*
X139797752Y-87950227D01*
X139776769Y-87953523D01*
X139763427Y-87958189D01*
X139754739Y-87964457D01*
X139752550Y-87966733D01*
X139736386Y-87998280D01*
X139735203Y-88034168D01*
X139748464Y-88065285D01*
X139758957Y-88075271D01*
X139769871Y-88080769D01*
X139786783Y-88085022D01*
X139812367Y-88088180D01*
X139849299Y-88090392D01*
X139900254Y-88091806D01*
X139967906Y-88092572D01*
X140054931Y-88092838D01*
X140074606Y-88092845D01*
X140163089Y-88092787D01*
X140231773Y-88092467D01*
X140283436Y-88091667D01*
X140320855Y-88090167D01*
X140346810Y-88087749D01*
X140364078Y-88084194D01*
X140375438Y-88079282D01*
X140383668Y-88072795D01*
X140388183Y-88068138D01*
X140394979Y-88059889D01*
X140400288Y-88049669D01*
X140404294Y-88034800D01*
X140407179Y-88012602D01*
X140409126Y-87980393D01*
X140410319Y-87935496D01*
X140410939Y-87875228D01*
X140411171Y-87796911D01*
X140411200Y-87730994D01*
X140411129Y-87638628D01*
X140410792Y-87566117D01*
X140410002Y-87510737D01*
X140408574Y-87469765D01*
X140406321Y-87440478D01*
X140403057Y-87420153D01*
X140398596Y-87406066D01*
X140392752Y-87395495D01*
X140387803Y-87388811D01*
X140364406Y-87359067D01*
X140074226Y-87359067D01*
X139977657Y-87359260D01*
G37*
X139977657Y-87359260D02*
X139901299Y-87360174D01*
X139842783Y-87362311D01*
X139799745Y-87366175D01*
X139769817Y-87372267D01*
X139750632Y-87381090D01*
X139739824Y-87393146D01*
X139735027Y-87408939D01*
X139733873Y-87428970D01*
X139733867Y-87431335D01*
X139734869Y-87453992D01*
X139739604Y-87471503D01*
X139750667Y-87484574D01*
X139770652Y-87493913D01*
X139802154Y-87500227D01*
X139847768Y-87504222D01*
X139910087Y-87506606D01*
X139991707Y-87508086D01*
X140016723Y-87508414D01*
X140258800Y-87511467D01*
X140262186Y-87576378D01*
X140265571Y-87641289D01*
X140097424Y-87641289D01*
X140031734Y-87641531D01*
X139984828Y-87642556D01*
X139952917Y-87644811D01*
X139932209Y-87648742D01*
X139918916Y-87654798D01*
X139909245Y-87663424D01*
X139909183Y-87663493D01*
X139891644Y-87697112D01*
X139892278Y-87733448D01*
X139910686Y-87764423D01*
X139914329Y-87767607D01*
X139927259Y-87775812D01*
X139944976Y-87781521D01*
X139971430Y-87785162D01*
X140010568Y-87787167D01*
X140066338Y-87787964D01*
X140102006Y-87788045D01*
X140264445Y-87788045D01*
X140264445Y-87946089D01*
X140017839Y-87946089D01*
X139936420Y-87946231D01*
X139874590Y-87946814D01*
X139829363Y-87948068D01*
X139797752Y-87950227D01*
X139776769Y-87953523D01*
X139763427Y-87958189D01*
X139754739Y-87964457D01*
X139752550Y-87966733D01*
X139736386Y-87998280D01*
X139735203Y-88034168D01*
X139748464Y-88065285D01*
X139758957Y-88075271D01*
X139769871Y-88080769D01*
X139786783Y-88085022D01*
X139812367Y-88088180D01*
X139849299Y-88090392D01*
X139900254Y-88091806D01*
X139967906Y-88092572D01*
X140054931Y-88092838D01*
X140074606Y-88092845D01*
X140163089Y-88092787D01*
X140231773Y-88092467D01*
X140283436Y-88091667D01*
X140320855Y-88090167D01*
X140346810Y-88087749D01*
X140364078Y-88084194D01*
X140375438Y-88079282D01*
X140383668Y-88072795D01*
X140388183Y-88068138D01*
X140394979Y-88059889D01*
X140400288Y-88049669D01*
X140404294Y-88034800D01*
X140407179Y-88012602D01*
X140409126Y-87980393D01*
X140410319Y-87935496D01*
X140410939Y-87875228D01*
X140411171Y-87796911D01*
X140411200Y-87730994D01*
X140411129Y-87638628D01*
X140410792Y-87566117D01*
X140410002Y-87510737D01*
X140408574Y-87469765D01*
X140406321Y-87440478D01*
X140403057Y-87420153D01*
X140398596Y-87406066D01*
X140392752Y-87395495D01*
X140387803Y-87388811D01*
X140364406Y-87359067D01*
X140074226Y-87359067D01*
X139977657Y-87359260D01*
G36*
X141508114Y-87363448D02*
G01*
X141484548Y-87377273D01*
X141453735Y-87399881D01*
X141414078Y-87432338D01*
X141363980Y-87475708D01*
X141301843Y-87531058D01*
X141226072Y-87599451D01*
X141139334Y-87678084D01*
X140958711Y-87841878D01*
X140953067Y-87622029D01*
X140951029Y-87546351D01*
X140949063Y-87489994D01*
X140946734Y-87449706D01*
X140943606Y-87422235D01*
X140939245Y-87404329D01*
X140933216Y-87392737D01*
X140925084Y-87384208D01*
X140920772Y-87380623D01*
X140886241Y-87361670D01*
X140853383Y-87364441D01*
X140827318Y-87380633D01*
X140800667Y-87402199D01*
X140797352Y-87717151D01*
X140796435Y-87809779D01*
X140795968Y-87882544D01*
X140796113Y-87938161D01*
X140797032Y-87979342D01*
X140798887Y-88008803D01*
X140801839Y-88029255D01*
X140806050Y-88043413D01*
X140811682Y-88053991D01*
X140817927Y-88062474D01*
X140831439Y-88078207D01*
X140844883Y-88088636D01*
X140860124Y-88092639D01*
X140879026Y-88089094D01*
X140903455Y-88076879D01*
X140935273Y-88054871D01*
X140976348Y-88021949D01*
X141028542Y-87976991D01*
X141093722Y-87918875D01*
X141167556Y-87852099D01*
X141432845Y-87611458D01*
X141438489Y-87830589D01*
X141440531Y-87906128D01*
X141442502Y-87962354D01*
X141444839Y-88002524D01*
X141447981Y-88029896D01*
X141452364Y-88047728D01*
X141458424Y-88059279D01*
X141466600Y-88067807D01*
X141470784Y-88071282D01*
X141507765Y-88090372D01*
X141542708Y-88087493D01*
X141573136Y-88063100D01*
X141580097Y-88053286D01*
X141585523Y-88041826D01*
X141589603Y-88025968D01*
X141592529Y-88002963D01*
X141594492Y-87970062D01*
X141595683Y-87924516D01*
X141596292Y-87863573D01*
X141596511Y-87784486D01*
X141596534Y-87725956D01*
X141596460Y-87634407D01*
X141596113Y-87562687D01*
X141595301Y-87508045D01*
X141593833Y-87467732D01*
X141591519Y-87438998D01*
X141588167Y-87419093D01*
X141583588Y-87405268D01*
X141577589Y-87394772D01*
X141573136Y-87388811D01*
X141561850Y-87374691D01*
X141551301Y-87364029D01*
X141539893Y-87357892D01*
X141526030Y-87357343D01*
X141508114Y-87363448D01*
G37*
X141508114Y-87363448D02*
X141484548Y-87377273D01*
X141453735Y-87399881D01*
X141414078Y-87432338D01*
X141363980Y-87475708D01*
X141301843Y-87531058D01*
X141226072Y-87599451D01*
X141139334Y-87678084D01*
X140958711Y-87841878D01*
X140953067Y-87622029D01*
X140951029Y-87546351D01*
X140949063Y-87489994D01*
X140946734Y-87449706D01*
X140943606Y-87422235D01*
X140939245Y-87404329D01*
X140933216Y-87392737D01*
X140925084Y-87384208D01*
X140920772Y-87380623D01*
X140886241Y-87361670D01*
X140853383Y-87364441D01*
X140827318Y-87380633D01*
X140800667Y-87402199D01*
X140797352Y-87717151D01*
X140796435Y-87809779D01*
X140795968Y-87882544D01*
X140796113Y-87938161D01*
X140797032Y-87979342D01*
X140798887Y-88008803D01*
X140801839Y-88029255D01*
X140806050Y-88043413D01*
X140811682Y-88053991D01*
X140817927Y-88062474D01*
X140831439Y-88078207D01*
X140844883Y-88088636D01*
X140860124Y-88092639D01*
X140879026Y-88089094D01*
X140903455Y-88076879D01*
X140935273Y-88054871D01*
X140976348Y-88021949D01*
X141028542Y-87976991D01*
X141093722Y-87918875D01*
X141167556Y-87852099D01*
X141432845Y-87611458D01*
X141438489Y-87830589D01*
X141440531Y-87906128D01*
X141442502Y-87962354D01*
X141444839Y-88002524D01*
X141447981Y-88029896D01*
X141452364Y-88047728D01*
X141458424Y-88059279D01*
X141466600Y-88067807D01*
X141470784Y-88071282D01*
X141507765Y-88090372D01*
X141542708Y-88087493D01*
X141573136Y-88063100D01*
X141580097Y-88053286D01*
X141585523Y-88041826D01*
X141589603Y-88025968D01*
X141592529Y-88002963D01*
X141594492Y-87970062D01*
X141595683Y-87924516D01*
X141596292Y-87863573D01*
X141596511Y-87784486D01*
X141596534Y-87725956D01*
X141596460Y-87634407D01*
X141596113Y-87562687D01*
X141595301Y-87508045D01*
X141593833Y-87467732D01*
X141591519Y-87438998D01*
X141588167Y-87419093D01*
X141583588Y-87405268D01*
X141577589Y-87394772D01*
X141573136Y-87388811D01*
X141561850Y-87374691D01*
X141551301Y-87364029D01*
X141539893Y-87357892D01*
X141526030Y-87357343D01*
X141508114Y-87363448D01*
G36*
X142158081Y-87364599D02*
G01*
X142089565Y-87376095D01*
X142036943Y-87393967D01*
X142002708Y-87417499D01*
X141993379Y-87430924D01*
X141983893Y-87462148D01*
X141990277Y-87490395D01*
X142010430Y-87517182D01*
X142041745Y-87529713D01*
X142087183Y-87528696D01*
X142122326Y-87521906D01*
X142200419Y-87508971D01*
X142280226Y-87507742D01*
X142369555Y-87518241D01*
X142394229Y-87522690D01*
X142477291Y-87546108D01*
X142542273Y-87580945D01*
X142588461Y-87626604D01*
X142615145Y-87682494D01*
X142620663Y-87711388D01*
X142617051Y-87770012D01*
X142593729Y-87821879D01*
X142552824Y-87865978D01*
X142496459Y-87901299D01*
X142426760Y-87926829D01*
X142345852Y-87941559D01*
X142255860Y-87944478D01*
X142158910Y-87934575D01*
X142153436Y-87933641D01*
X142114875Y-87926459D01*
X142093494Y-87919521D01*
X142084227Y-87909227D01*
X142082006Y-87891976D01*
X142081956Y-87882841D01*
X142081956Y-87844489D01*
X142150431Y-87844489D01*
X142210900Y-87840347D01*
X142252165Y-87827147D01*
X142276175Y-87803730D01*
X142284877Y-87768936D01*
X142284983Y-87764394D01*
X142279892Y-87734654D01*
X142262433Y-87713419D01*
X142229939Y-87699366D01*
X142179743Y-87691173D01*
X142131123Y-87688161D01*
X142060456Y-87686433D01*
X142009198Y-87689070D01*
X141974239Y-87698800D01*
X141952470Y-87718353D01*
X141940780Y-87750456D01*
X141936060Y-87797838D01*
X141935200Y-87860071D01*
X141936609Y-87929535D01*
X141940848Y-87976786D01*
X141947936Y-88002012D01*
X141949311Y-88003988D01*
X141988228Y-88035508D01*
X142045286Y-88060470D01*
X142116869Y-88078340D01*
X142199358Y-88088586D01*
X142289139Y-88090673D01*
X142382592Y-88084068D01*
X142437556Y-88075956D01*
X142523766Y-88051554D01*
X142603892Y-88011662D01*
X142670977Y-87959887D01*
X142681173Y-87949539D01*
X142714302Y-87906035D01*
X142744194Y-87852118D01*
X142767357Y-87795592D01*
X142780298Y-87744259D01*
X142781858Y-87724544D01*
X142775218Y-87683419D01*
X142757568Y-87632252D01*
X142732297Y-87578394D01*
X142702789Y-87529195D01*
X142676719Y-87496334D01*
X142615765Y-87447452D01*
X142536969Y-87408545D01*
X142443157Y-87380494D01*
X142337150Y-87364179D01*
X142240000Y-87360192D01*
X142158081Y-87364599D01*
G37*
X142158081Y-87364599D02*
X142089565Y-87376095D01*
X142036943Y-87393967D01*
X142002708Y-87417499D01*
X141993379Y-87430924D01*
X141983893Y-87462148D01*
X141990277Y-87490395D01*
X142010430Y-87517182D01*
X142041745Y-87529713D01*
X142087183Y-87528696D01*
X142122326Y-87521906D01*
X142200419Y-87508971D01*
X142280226Y-87507742D01*
X142369555Y-87518241D01*
X142394229Y-87522690D01*
X142477291Y-87546108D01*
X142542273Y-87580945D01*
X142588461Y-87626604D01*
X142615145Y-87682494D01*
X142620663Y-87711388D01*
X142617051Y-87770012D01*
X142593729Y-87821879D01*
X142552824Y-87865978D01*
X142496459Y-87901299D01*
X142426760Y-87926829D01*
X142345852Y-87941559D01*
X142255860Y-87944478D01*
X142158910Y-87934575D01*
X142153436Y-87933641D01*
X142114875Y-87926459D01*
X142093494Y-87919521D01*
X142084227Y-87909227D01*
X142082006Y-87891976D01*
X142081956Y-87882841D01*
X142081956Y-87844489D01*
X142150431Y-87844489D01*
X142210900Y-87840347D01*
X142252165Y-87827147D01*
X142276175Y-87803730D01*
X142284877Y-87768936D01*
X142284983Y-87764394D01*
X142279892Y-87734654D01*
X142262433Y-87713419D01*
X142229939Y-87699366D01*
X142179743Y-87691173D01*
X142131123Y-87688161D01*
X142060456Y-87686433D01*
X142009198Y-87689070D01*
X141974239Y-87698800D01*
X141952470Y-87718353D01*
X141940780Y-87750456D01*
X141936060Y-87797838D01*
X141935200Y-87860071D01*
X141936609Y-87929535D01*
X141940848Y-87976786D01*
X141947936Y-88002012D01*
X141949311Y-88003988D01*
X141988228Y-88035508D01*
X142045286Y-88060470D01*
X142116869Y-88078340D01*
X142199358Y-88088586D01*
X142289139Y-88090673D01*
X142382592Y-88084068D01*
X142437556Y-88075956D01*
X142523766Y-88051554D01*
X142603892Y-88011662D01*
X142670977Y-87959887D01*
X142681173Y-87949539D01*
X142714302Y-87906035D01*
X142744194Y-87852118D01*
X142767357Y-87795592D01*
X142780298Y-87744259D01*
X142781858Y-87724544D01*
X142775218Y-87683419D01*
X142757568Y-87632252D01*
X142732297Y-87578394D01*
X142702789Y-87529195D01*
X142676719Y-87496334D01*
X142615765Y-87447452D01*
X142536969Y-87408545D01*
X142443157Y-87380494D01*
X142337150Y-87364179D01*
X142240000Y-87360192D01*
X142158081Y-87364599D01*
G36*
X143131822Y-87381645D02*
G01*
X143125242Y-87389218D01*
X143120079Y-87398987D01*
X143116164Y-87413571D01*
X143113324Y-87435585D01*
X143111387Y-87467648D01*
X143110183Y-87512375D01*
X143109539Y-87572385D01*
X143109284Y-87650294D01*
X143109245Y-87725956D01*
X143109314Y-87819802D01*
X143109638Y-87893689D01*
X143110386Y-87950232D01*
X143111732Y-87992049D01*
X143113846Y-88021757D01*
X143116900Y-88041973D01*
X143121066Y-88055314D01*
X143126516Y-88064398D01*
X143131822Y-88070267D01*
X143164826Y-88089947D01*
X143199991Y-88088181D01*
X143231455Y-88066717D01*
X143238684Y-88058337D01*
X143244334Y-88048614D01*
X143248599Y-88034861D01*
X143251673Y-88014389D01*
X143253752Y-87984512D01*
X143255030Y-87942541D01*
X143255701Y-87885789D01*
X143255959Y-87811567D01*
X143256000Y-87727537D01*
X143256000Y-87414485D01*
X143228291Y-87386776D01*
X143194137Y-87363463D01*
X143161006Y-87362623D01*
X143131822Y-87381645D01*
G37*
X143131822Y-87381645D02*
X143125242Y-87389218D01*
X143120079Y-87398987D01*
X143116164Y-87413571D01*
X143113324Y-87435585D01*
X143111387Y-87467648D01*
X143110183Y-87512375D01*
X143109539Y-87572385D01*
X143109284Y-87650294D01*
X143109245Y-87725956D01*
X143109314Y-87819802D01*
X143109638Y-87893689D01*
X143110386Y-87950232D01*
X143111732Y-87992049D01*
X143113846Y-88021757D01*
X143116900Y-88041973D01*
X143121066Y-88055314D01*
X143126516Y-88064398D01*
X143131822Y-88070267D01*
X143164826Y-88089947D01*
X143199991Y-88088181D01*
X143231455Y-88066717D01*
X143238684Y-88058337D01*
X143244334Y-88048614D01*
X143248599Y-88034861D01*
X143251673Y-88014389D01*
X143253752Y-87984512D01*
X143255030Y-87942541D01*
X143255701Y-87885789D01*
X143255959Y-87811567D01*
X143256000Y-87727537D01*
X143256000Y-87414485D01*
X143228291Y-87386776D01*
X143194137Y-87363463D01*
X143161006Y-87362623D01*
X143131822Y-87381645D01*
G36*
X143899703Y-87360351D02*
G01*
X143824888Y-87365581D01*
X143755306Y-87373750D01*
X143695002Y-87384550D01*
X143648020Y-87397673D01*
X143618406Y-87412813D01*
X143613860Y-87417269D01*
X143598054Y-87451850D01*
X143602847Y-87487351D01*
X143627364Y-87517725D01*
X143628534Y-87518596D01*
X143642954Y-87527954D01*
X143658008Y-87532876D01*
X143679005Y-87533473D01*
X143711257Y-87529861D01*
X143760073Y-87522154D01*
X143764000Y-87521505D01*
X143836739Y-87512569D01*
X143915217Y-87508161D01*
X143993927Y-87508119D01*
X144067361Y-87512279D01*
X144130011Y-87520479D01*
X144176370Y-87532557D01*
X144179416Y-87533771D01*
X144213048Y-87552615D01*
X144224864Y-87571685D01*
X144215614Y-87590439D01*
X144186047Y-87608337D01*
X144136911Y-87624837D01*
X144068957Y-87639396D01*
X144023645Y-87646406D01*
X143929456Y-87659889D01*
X143854544Y-87672214D01*
X143795717Y-87684449D01*
X143749785Y-87697661D01*
X143713555Y-87712917D01*
X143683838Y-87731285D01*
X143657442Y-87753831D01*
X143636230Y-87775971D01*
X143611065Y-87806819D01*
X143598681Y-87833345D01*
X143594808Y-87866026D01*
X143594667Y-87877995D01*
X143597576Y-87917712D01*
X143609202Y-87947259D01*
X143629323Y-87973486D01*
X143670216Y-88013576D01*
X143715817Y-88044149D01*
X143769513Y-88066203D01*
X143834692Y-88080735D01*
X143914744Y-88088741D01*
X144013057Y-88091218D01*
X144029289Y-88091177D01*
X144094849Y-88089818D01*
X144159866Y-88086730D01*
X144217252Y-88082356D01*
X144259922Y-88077140D01*
X144263372Y-88076541D01*
X144305796Y-88066491D01*
X144341780Y-88053796D01*
X144362150Y-88042190D01*
X144381107Y-88011572D01*
X144382427Y-87975918D01*
X144366085Y-87944144D01*
X144362429Y-87940551D01*
X144347315Y-87929876D01*
X144328415Y-87925276D01*
X144299162Y-87926059D01*
X144263651Y-87930127D01*
X144223970Y-87933762D01*
X144168345Y-87936828D01*
X144103406Y-87939053D01*
X144035785Y-87940164D01*
X144018000Y-87940237D01*
X143950128Y-87939964D01*
X143900454Y-87938646D01*
X143864610Y-87935827D01*
X143838224Y-87931050D01*
X143816926Y-87923857D01*
X143804126Y-87917867D01*
X143776000Y-87901233D01*
X143758068Y-87886168D01*
X143755447Y-87881897D01*
X143760976Y-87864263D01*
X143787260Y-87847192D01*
X143832478Y-87831458D01*
X143894808Y-87817838D01*
X143913171Y-87814804D01*
X144009090Y-87799738D01*
X144085641Y-87787146D01*
X144145780Y-87776111D01*
X144192460Y-87765720D01*
X144228637Y-87755056D01*
X144257265Y-87743205D01*
X144281298Y-87729251D01*
X144303692Y-87712281D01*
X144327402Y-87691378D01*
X144335380Y-87684049D01*
X144363353Y-87656699D01*
X144378160Y-87635029D01*
X144383952Y-87610232D01*
X144384889Y-87578983D01*
X144374575Y-87517705D01*
X144343752Y-87465640D01*
X144292595Y-87422958D01*
X144221283Y-87389825D01*
X144170400Y-87374964D01*
X144115100Y-87365366D01*
X144048853Y-87359936D01*
X143975706Y-87358367D01*
X143899703Y-87360351D01*
G37*
X143899703Y-87360351D02*
X143824888Y-87365581D01*
X143755306Y-87373750D01*
X143695002Y-87384550D01*
X143648020Y-87397673D01*
X143618406Y-87412813D01*
X143613860Y-87417269D01*
X143598054Y-87451850D01*
X143602847Y-87487351D01*
X143627364Y-87517725D01*
X143628534Y-87518596D01*
X143642954Y-87527954D01*
X143658008Y-87532876D01*
X143679005Y-87533473D01*
X143711257Y-87529861D01*
X143760073Y-87522154D01*
X143764000Y-87521505D01*
X143836739Y-87512569D01*
X143915217Y-87508161D01*
X143993927Y-87508119D01*
X144067361Y-87512279D01*
X144130011Y-87520479D01*
X144176370Y-87532557D01*
X144179416Y-87533771D01*
X144213048Y-87552615D01*
X144224864Y-87571685D01*
X144215614Y-87590439D01*
X144186047Y-87608337D01*
X144136911Y-87624837D01*
X144068957Y-87639396D01*
X144023645Y-87646406D01*
X143929456Y-87659889D01*
X143854544Y-87672214D01*
X143795717Y-87684449D01*
X143749785Y-87697661D01*
X143713555Y-87712917D01*
X143683838Y-87731285D01*
X143657442Y-87753831D01*
X143636230Y-87775971D01*
X143611065Y-87806819D01*
X143598681Y-87833345D01*
X143594808Y-87866026D01*
X143594667Y-87877995D01*
X143597576Y-87917712D01*
X143609202Y-87947259D01*
X143629323Y-87973486D01*
X143670216Y-88013576D01*
X143715817Y-88044149D01*
X143769513Y-88066203D01*
X143834692Y-88080735D01*
X143914744Y-88088741D01*
X144013057Y-88091218D01*
X144029289Y-88091177D01*
X144094849Y-88089818D01*
X144159866Y-88086730D01*
X144217252Y-88082356D01*
X144259922Y-88077140D01*
X144263372Y-88076541D01*
X144305796Y-88066491D01*
X144341780Y-88053796D01*
X144362150Y-88042190D01*
X144381107Y-88011572D01*
X144382427Y-87975918D01*
X144366085Y-87944144D01*
X144362429Y-87940551D01*
X144347315Y-87929876D01*
X144328415Y-87925276D01*
X144299162Y-87926059D01*
X144263651Y-87930127D01*
X144223970Y-87933762D01*
X144168345Y-87936828D01*
X144103406Y-87939053D01*
X144035785Y-87940164D01*
X144018000Y-87940237D01*
X143950128Y-87939964D01*
X143900454Y-87938646D01*
X143864610Y-87935827D01*
X143838224Y-87931050D01*
X143816926Y-87923857D01*
X143804126Y-87917867D01*
X143776000Y-87901233D01*
X143758068Y-87886168D01*
X143755447Y-87881897D01*
X143760976Y-87864263D01*
X143787260Y-87847192D01*
X143832478Y-87831458D01*
X143894808Y-87817838D01*
X143913171Y-87814804D01*
X144009090Y-87799738D01*
X144085641Y-87787146D01*
X144145780Y-87776111D01*
X144192460Y-87765720D01*
X144228637Y-87755056D01*
X144257265Y-87743205D01*
X144281298Y-87729251D01*
X144303692Y-87712281D01*
X144327402Y-87691378D01*
X144335380Y-87684049D01*
X144363353Y-87656699D01*
X144378160Y-87635029D01*
X144383952Y-87610232D01*
X144384889Y-87578983D01*
X144374575Y-87517705D01*
X144343752Y-87465640D01*
X144292595Y-87422958D01*
X144221283Y-87389825D01*
X144170400Y-87374964D01*
X144115100Y-87365366D01*
X144048853Y-87359936D01*
X143975706Y-87358367D01*
X143899703Y-87360351D01*
G36*
X144920794Y-87359146D02*
G01*
X144851386Y-87359518D01*
X144798997Y-87360385D01*
X144760847Y-87361946D01*
X144734159Y-87364403D01*
X144716153Y-87367957D01*
X144704049Y-87372810D01*
X144695069Y-87379161D01*
X144691818Y-87382084D01*
X144672043Y-87413142D01*
X144668482Y-87448828D01*
X144681491Y-87480510D01*
X144687506Y-87486913D01*
X144697235Y-87493121D01*
X144712901Y-87497910D01*
X144737408Y-87501514D01*
X144773661Y-87504164D01*
X144824565Y-87506095D01*
X144893026Y-87507539D01*
X144955617Y-87508418D01*
X145203334Y-87511467D01*
X145206719Y-87576378D01*
X145210105Y-87641289D01*
X145041958Y-87641289D01*
X144968959Y-87641919D01*
X144915517Y-87644553D01*
X144878628Y-87650309D01*
X144855288Y-87660304D01*
X144842494Y-87675656D01*
X144837242Y-87697482D01*
X144836445Y-87717738D01*
X144838923Y-87742592D01*
X144848277Y-87760906D01*
X144867383Y-87773637D01*
X144899118Y-87781741D01*
X144946359Y-87786176D01*
X145011983Y-87787899D01*
X145047801Y-87788045D01*
X145208978Y-87788045D01*
X145208978Y-87946089D01*
X144960622Y-87946089D01*
X144879213Y-87946202D01*
X144817342Y-87946712D01*
X144771968Y-87947870D01*
X144740054Y-87949930D01*
X144718559Y-87953146D01*
X144704443Y-87957772D01*
X144694668Y-87964059D01*
X144689689Y-87968667D01*
X144672610Y-87995560D01*
X144667111Y-88019467D01*
X144674963Y-88048667D01*
X144689689Y-88070267D01*
X144697546Y-88077066D01*
X144707688Y-88082346D01*
X144722844Y-88086298D01*
X144745741Y-88089113D01*
X144779109Y-88090982D01*
X144825675Y-88092098D01*
X144888167Y-88092651D01*
X144969314Y-88092833D01*
X145011422Y-88092845D01*
X145101598Y-88092765D01*
X145171924Y-88092398D01*
X145225129Y-88091552D01*
X145263940Y-88090036D01*
X145291087Y-88087659D01*
X145309298Y-88084229D01*
X145321300Y-88079554D01*
X145329822Y-88073444D01*
X145333156Y-88070267D01*
X145339755Y-88062670D01*
X145344927Y-88052870D01*
X145348846Y-88038239D01*
X145351684Y-88016152D01*
X145353615Y-87983982D01*
X145354812Y-87939103D01*
X145355448Y-87878889D01*
X145355697Y-87800713D01*
X145355734Y-87727923D01*
X145355700Y-87634707D01*
X145355465Y-87561431D01*
X145354830Y-87505458D01*
X145353594Y-87464151D01*
X145351556Y-87434872D01*
X145348517Y-87414984D01*
X145344277Y-87401850D01*
X145338635Y-87392832D01*
X145331391Y-87385293D01*
X145329606Y-87383612D01*
X145320945Y-87376172D01*
X145310882Y-87370409D01*
X145296625Y-87366112D01*
X145275383Y-87363064D01*
X145244364Y-87361051D01*
X145200777Y-87359860D01*
X145141831Y-87359275D01*
X145064734Y-87359083D01*
X145010001Y-87359067D01*
X144920794Y-87359146D01*
G37*
X144920794Y-87359146D02*
X144851386Y-87359518D01*
X144798997Y-87360385D01*
X144760847Y-87361946D01*
X144734159Y-87364403D01*
X144716153Y-87367957D01*
X144704049Y-87372810D01*
X144695069Y-87379161D01*
X144691818Y-87382084D01*
X144672043Y-87413142D01*
X144668482Y-87448828D01*
X144681491Y-87480510D01*
X144687506Y-87486913D01*
X144697235Y-87493121D01*
X144712901Y-87497910D01*
X144737408Y-87501514D01*
X144773661Y-87504164D01*
X144824565Y-87506095D01*
X144893026Y-87507539D01*
X144955617Y-87508418D01*
X145203334Y-87511467D01*
X145206719Y-87576378D01*
X145210105Y-87641289D01*
X145041958Y-87641289D01*
X144968959Y-87641919D01*
X144915517Y-87644553D01*
X144878628Y-87650309D01*
X144855288Y-87660304D01*
X144842494Y-87675656D01*
X144837242Y-87697482D01*
X144836445Y-87717738D01*
X144838923Y-87742592D01*
X144848277Y-87760906D01*
X144867383Y-87773637D01*
X144899118Y-87781741D01*
X144946359Y-87786176D01*
X145011983Y-87787899D01*
X145047801Y-87788045D01*
X145208978Y-87788045D01*
X145208978Y-87946089D01*
X144960622Y-87946089D01*
X144879213Y-87946202D01*
X144817342Y-87946712D01*
X144771968Y-87947870D01*
X144740054Y-87949930D01*
X144718559Y-87953146D01*
X144704443Y-87957772D01*
X144694668Y-87964059D01*
X144689689Y-87968667D01*
X144672610Y-87995560D01*
X144667111Y-88019467D01*
X144674963Y-88048667D01*
X144689689Y-88070267D01*
X144697546Y-88077066D01*
X144707688Y-88082346D01*
X144722844Y-88086298D01*
X144745741Y-88089113D01*
X144779109Y-88090982D01*
X144825675Y-88092098D01*
X144888167Y-88092651D01*
X144969314Y-88092833D01*
X145011422Y-88092845D01*
X145101598Y-88092765D01*
X145171924Y-88092398D01*
X145225129Y-88091552D01*
X145263940Y-88090036D01*
X145291087Y-88087659D01*
X145309298Y-88084229D01*
X145321300Y-88079554D01*
X145329822Y-88073444D01*
X145333156Y-88070267D01*
X145339755Y-88062670D01*
X145344927Y-88052870D01*
X145348846Y-88038239D01*
X145351684Y-88016152D01*
X145353615Y-87983982D01*
X145354812Y-87939103D01*
X145355448Y-87878889D01*
X145355697Y-87800713D01*
X145355734Y-87727923D01*
X145355700Y-87634707D01*
X145355465Y-87561431D01*
X145354830Y-87505458D01*
X145353594Y-87464151D01*
X145351556Y-87434872D01*
X145348517Y-87414984D01*
X145344277Y-87401850D01*
X145338635Y-87392832D01*
X145331391Y-87385293D01*
X145329606Y-87383612D01*
X145320945Y-87376172D01*
X145310882Y-87370409D01*
X145296625Y-87366112D01*
X145275383Y-87363064D01*
X145244364Y-87361051D01*
X145200777Y-87359860D01*
X145141831Y-87359275D01*
X145064734Y-87359083D01*
X145010001Y-87359067D01*
X144920794Y-87359146D01*
G36*
X146329371Y-87359066D02*
G01*
X146289889Y-87359467D01*
X146174200Y-87362259D01*
X146077311Y-87370550D01*
X145995919Y-87385232D01*
X145926723Y-87407193D01*
X145866420Y-87437322D01*
X145811708Y-87476510D01*
X145792167Y-87493532D01*
X145759750Y-87533363D01*
X145730520Y-87587413D01*
X145707991Y-87647323D01*
X145695679Y-87704739D01*
X145694400Y-87725956D01*
X145702417Y-87784769D01*
X145723899Y-87849013D01*
X145754999Y-87909821D01*
X145791866Y-87958330D01*
X145797854Y-87964182D01*
X145848579Y-88005321D01*
X145904125Y-88037435D01*
X145967696Y-88061365D01*
X146042494Y-88077953D01*
X146131722Y-88088041D01*
X146238582Y-88092469D01*
X146287528Y-88092845D01*
X146349762Y-88092545D01*
X146393528Y-88091292D01*
X146422931Y-88088554D01*
X146442079Y-88083801D01*
X146455077Y-88076501D01*
X146462045Y-88070267D01*
X146468626Y-88062694D01*
X146473788Y-88052924D01*
X146477703Y-88038340D01*
X146480543Y-88016326D01*
X146482480Y-87984264D01*
X146483684Y-87939536D01*
X146484328Y-87879526D01*
X146484583Y-87801617D01*
X146484622Y-87725956D01*
X146484870Y-87625041D01*
X146484817Y-87544427D01*
X146483857Y-87505822D01*
X146337867Y-87505822D01*
X146337867Y-87946089D01*
X146244734Y-87946004D01*
X146188693Y-87944396D01*
X146129999Y-87940256D01*
X146081028Y-87934464D01*
X146079538Y-87934226D01*
X146000392Y-87915090D01*
X145939002Y-87885287D01*
X145892305Y-87842878D01*
X145862635Y-87796961D01*
X145844353Y-87746026D01*
X145845771Y-87698200D01*
X145866988Y-87646933D01*
X145908489Y-87593899D01*
X145965998Y-87554600D01*
X146040750Y-87528331D01*
X146090708Y-87519035D01*
X146147416Y-87512507D01*
X146207519Y-87507782D01*
X146258639Y-87505817D01*
X146261667Y-87505808D01*
X146337867Y-87505822D01*
X146483857Y-87505822D01*
X146483260Y-87481851D01*
X146478998Y-87435055D01*
X146470830Y-87401778D01*
X146457556Y-87379759D01*
X146437974Y-87366739D01*
X146410883Y-87360457D01*
X146375082Y-87358653D01*
X146329371Y-87359066D01*
G37*
X146329371Y-87359066D02*
X146289889Y-87359467D01*
X146174200Y-87362259D01*
X146077311Y-87370550D01*
X145995919Y-87385232D01*
X145926723Y-87407193D01*
X145866420Y-87437322D01*
X145811708Y-87476510D01*
X145792167Y-87493532D01*
X145759750Y-87533363D01*
X145730520Y-87587413D01*
X145707991Y-87647323D01*
X145695679Y-87704739D01*
X145694400Y-87725956D01*
X145702417Y-87784769D01*
X145723899Y-87849013D01*
X145754999Y-87909821D01*
X145791866Y-87958330D01*
X145797854Y-87964182D01*
X145848579Y-88005321D01*
X145904125Y-88037435D01*
X145967696Y-88061365D01*
X146042494Y-88077953D01*
X146131722Y-88088041D01*
X146238582Y-88092469D01*
X146287528Y-88092845D01*
X146349762Y-88092545D01*
X146393528Y-88091292D01*
X146422931Y-88088554D01*
X146442079Y-88083801D01*
X146455077Y-88076501D01*
X146462045Y-88070267D01*
X146468626Y-88062694D01*
X146473788Y-88052924D01*
X146477703Y-88038340D01*
X146480543Y-88016326D01*
X146482480Y-87984264D01*
X146483684Y-87939536D01*
X146484328Y-87879526D01*
X146484583Y-87801617D01*
X146484622Y-87725956D01*
X146484870Y-87625041D01*
X146484817Y-87544427D01*
X146483857Y-87505822D01*
X146337867Y-87505822D01*
X146337867Y-87946089D01*
X146244734Y-87946004D01*
X146188693Y-87944396D01*
X146129999Y-87940256D01*
X146081028Y-87934464D01*
X146079538Y-87934226D01*
X146000392Y-87915090D01*
X145939002Y-87885287D01*
X145892305Y-87842878D01*
X145862635Y-87796961D01*
X145844353Y-87746026D01*
X145845771Y-87698200D01*
X145866988Y-87646933D01*
X145908489Y-87593899D01*
X145965998Y-87554600D01*
X146040750Y-87528331D01*
X146090708Y-87519035D01*
X146147416Y-87512507D01*
X146207519Y-87507782D01*
X146258639Y-87505817D01*
X146261667Y-87505808D01*
X146337867Y-87505822D01*
X146483857Y-87505822D01*
X146483260Y-87481851D01*
X146478998Y-87435055D01*
X146470830Y-87401778D01*
X146457556Y-87379759D01*
X146437974Y-87366739D01*
X146410883Y-87360457D01*
X146375082Y-87358653D01*
X146329371Y-87359066D01*
G36*
X142481043Y-82116571D02*
G01*
X142384768Y-82140809D01*
X142298184Y-82183641D01*
X142223373Y-82243419D01*
X142162418Y-82318494D01*
X142117399Y-82407220D01*
X142091136Y-82503530D01*
X142085286Y-82600795D01*
X142100140Y-82694654D01*
X142133840Y-82782511D01*
X142184528Y-82861770D01*
X142250345Y-82929836D01*
X142329434Y-82984112D01*
X142419934Y-83022002D01*
X142471200Y-83034426D01*
X142515698Y-83041947D01*
X142549999Y-83044919D01*
X142582960Y-83043094D01*
X142623434Y-83036225D01*
X142656531Y-83029250D01*
X142749947Y-82997741D01*
X142833619Y-82946617D01*
X142905665Y-82877429D01*
X142964200Y-82791728D01*
X142978148Y-82764489D01*
X142994586Y-82728122D01*
X143004894Y-82697582D01*
X143010460Y-82665450D01*
X143012669Y-82624307D01*
X143012948Y-82578222D01*
X143008861Y-82493865D01*
X142995446Y-82424586D01*
X142970256Y-82363961D01*
X142930846Y-82305567D01*
X142892298Y-82261302D01*
X142820406Y-82195484D01*
X142745313Y-82150053D01*
X142662562Y-82122850D01*
X142584928Y-82112576D01*
X142481043Y-82116571D01*
G37*
X142481043Y-82116571D02*
X142384768Y-82140809D01*
X142298184Y-82183641D01*
X142223373Y-82243419D01*
X142162418Y-82318494D01*
X142117399Y-82407220D01*
X142091136Y-82503530D01*
X142085286Y-82600795D01*
X142100140Y-82694654D01*
X142133840Y-82782511D01*
X142184528Y-82861770D01*
X142250345Y-82929836D01*
X142329434Y-82984112D01*
X142419934Y-83022002D01*
X142471200Y-83034426D01*
X142515698Y-83041947D01*
X142549999Y-83044919D01*
X142582960Y-83043094D01*
X142623434Y-83036225D01*
X142656531Y-83029250D01*
X142749947Y-82997741D01*
X142833619Y-82946617D01*
X142905665Y-82877429D01*
X142964200Y-82791728D01*
X142978148Y-82764489D01*
X142994586Y-82728122D01*
X143004894Y-82697582D01*
X143010460Y-82665450D01*
X143012669Y-82624307D01*
X143012948Y-82578222D01*
X143008861Y-82493865D01*
X142995446Y-82424586D01*
X142970256Y-82363961D01*
X142930846Y-82305567D01*
X142892298Y-82261302D01*
X142820406Y-82195484D01*
X142745313Y-82150053D01*
X142662562Y-82122850D01*
X142584928Y-82112576D01*
X142481043Y-82116571D01*
G36*
X134021493Y-84562245D02*
G01*
X134021474Y-84796662D01*
X134021448Y-85009603D01*
X134021375Y-85202168D01*
X134021218Y-85375459D01*
X134020936Y-85530576D01*
X134020491Y-85668620D01*
X134019844Y-85790692D01*
X134018955Y-85897894D01*
X134017787Y-85991326D01*
X134016299Y-86072090D01*
X134014454Y-86141286D01*
X134012211Y-86200015D01*
X134009531Y-86249379D01*
X134006377Y-86290478D01*
X134002708Y-86324413D01*
X133998487Y-86352286D01*
X133993673Y-86375198D01*
X133988227Y-86394249D01*
X133982112Y-86410540D01*
X133975288Y-86425173D01*
X133967715Y-86439249D01*
X133959355Y-86453868D01*
X133954161Y-86462974D01*
X133919896Y-86523689D01*
X134778045Y-86523689D01*
X134778045Y-86427733D01*
X134778776Y-86384370D01*
X134780728Y-86351205D01*
X134783537Y-86333424D01*
X134784779Y-86331778D01*
X134796201Y-86338662D01*
X134818916Y-86356505D01*
X134841615Y-86375879D01*
X134896200Y-86416614D01*
X134965679Y-86457617D01*
X135042730Y-86495123D01*
X135120035Y-86525364D01*
X135150887Y-86535012D01*
X135219384Y-86549578D01*
X135302236Y-86559539D01*
X135391629Y-86564583D01*
X135479752Y-86564396D01*
X135558793Y-86558666D01*
X135596489Y-86552858D01*
X135734586Y-86514797D01*
X135861887Y-86457073D01*
X135977708Y-86380211D01*
X136081363Y-86284739D01*
X136172167Y-86171179D01*
X136238969Y-86060381D01*
X136293836Y-85943625D01*
X136335837Y-85824276D01*
X136365833Y-85698283D01*
X136384689Y-85561594D01*
X136393268Y-85410158D01*
X136393994Y-85332711D01*
X136391900Y-85275934D01*
X135562783Y-85275934D01*
X135562576Y-85369002D01*
X135559663Y-85456692D01*
X135554000Y-85533772D01*
X135545545Y-85595009D01*
X135542962Y-85607350D01*
X135511160Y-85714633D01*
X135469502Y-85801658D01*
X135417637Y-85868642D01*
X135355219Y-85915805D01*
X135281900Y-85943365D01*
X135197331Y-85951541D01*
X135101165Y-85940551D01*
X135037689Y-85924829D01*
X134988546Y-85906639D01*
X134934417Y-85880791D01*
X134893756Y-85857089D01*
X134823200Y-85810721D01*
X134823200Y-84660530D01*
X134890608Y-84616962D01*
X134969133Y-84576040D01*
X135053319Y-84549389D01*
X135138443Y-84537465D01*
X135219784Y-84540722D01*
X135292620Y-84559615D01*
X135324574Y-84575184D01*
X135382499Y-84618181D01*
X135431456Y-84674953D01*
X135472610Y-84747575D01*
X135507126Y-84838121D01*
X135536167Y-84948666D01*
X135537448Y-84954533D01*
X135547619Y-85016788D01*
X135555261Y-85094594D01*
X135560330Y-85182720D01*
X135562783Y-85275934D01*
X136391900Y-85275934D01*
X136386143Y-85119895D01*
X136364198Y-84924059D01*
X136328214Y-84745332D01*
X136278241Y-84583845D01*
X136214332Y-84439726D01*
X136136538Y-84313106D01*
X136044911Y-84204115D01*
X135939503Y-84112883D01*
X135894338Y-84081932D01*
X135793389Y-84025785D01*
X135690099Y-83986174D01*
X135580011Y-83962014D01*
X135458670Y-83952219D01*
X135366164Y-83953265D01*
X135236510Y-83964231D01*
X135123916Y-83986046D01*
X135025125Y-84019714D01*
X134936879Y-84066236D01*
X134888014Y-84100448D01*
X134858647Y-84122362D01*
X134836957Y-84137333D01*
X134828747Y-84141733D01*
X134827132Y-84130904D01*
X134825841Y-84100251D01*
X134824862Y-84052526D01*
X134824183Y-83990479D01*
X134823790Y-83916862D01*
X134823670Y-83834427D01*
X134823812Y-83745925D01*
X134824203Y-83654107D01*
X134824829Y-83561724D01*
X134825680Y-83471528D01*
X134826740Y-83386271D01*
X134827999Y-83308703D01*
X134829444Y-83241576D01*
X134831062Y-83187641D01*
X134832839Y-83149650D01*
X134833331Y-83142667D01*
X134840908Y-83072251D01*
X134852469Y-83017102D01*
X134870208Y-82969981D01*
X134896318Y-82923647D01*
X134902585Y-82914067D01*
X134927017Y-82877378D01*
X134021689Y-82877378D01*
X134021493Y-84562245D01*
G37*
X134021493Y-84562245D02*
X134021474Y-84796662D01*
X134021448Y-85009603D01*
X134021375Y-85202168D01*
X134021218Y-85375459D01*
X134020936Y-85530576D01*
X134020491Y-85668620D01*
X134019844Y-85790692D01*
X134018955Y-85897894D01*
X134017787Y-85991326D01*
X134016299Y-86072090D01*
X134014454Y-86141286D01*
X134012211Y-86200015D01*
X134009531Y-86249379D01*
X134006377Y-86290478D01*
X134002708Y-86324413D01*
X133998487Y-86352286D01*
X133993673Y-86375198D01*
X133988227Y-86394249D01*
X133982112Y-86410540D01*
X133975288Y-86425173D01*
X133967715Y-86439249D01*
X133959355Y-86453868D01*
X133954161Y-86462974D01*
X133919896Y-86523689D01*
X134778045Y-86523689D01*
X134778045Y-86427733D01*
X134778776Y-86384370D01*
X134780728Y-86351205D01*
X134783537Y-86333424D01*
X134784779Y-86331778D01*
X134796201Y-86338662D01*
X134818916Y-86356505D01*
X134841615Y-86375879D01*
X134896200Y-86416614D01*
X134965679Y-86457617D01*
X135042730Y-86495123D01*
X135120035Y-86525364D01*
X135150887Y-86535012D01*
X135219384Y-86549578D01*
X135302236Y-86559539D01*
X135391629Y-86564583D01*
X135479752Y-86564396D01*
X135558793Y-86558666D01*
X135596489Y-86552858D01*
X135734586Y-86514797D01*
X135861887Y-86457073D01*
X135977708Y-86380211D01*
X136081363Y-86284739D01*
X136172167Y-86171179D01*
X136238969Y-86060381D01*
X136293836Y-85943625D01*
X136335837Y-85824276D01*
X136365833Y-85698283D01*
X136384689Y-85561594D01*
X136393268Y-85410158D01*
X136393994Y-85332711D01*
X136391900Y-85275934D01*
X135562783Y-85275934D01*
X135562576Y-85369002D01*
X135559663Y-85456692D01*
X135554000Y-85533772D01*
X135545545Y-85595009D01*
X135542962Y-85607350D01*
X135511160Y-85714633D01*
X135469502Y-85801658D01*
X135417637Y-85868642D01*
X135355219Y-85915805D01*
X135281900Y-85943365D01*
X135197331Y-85951541D01*
X135101165Y-85940551D01*
X135037689Y-85924829D01*
X134988546Y-85906639D01*
X134934417Y-85880791D01*
X134893756Y-85857089D01*
X134823200Y-85810721D01*
X134823200Y-84660530D01*
X134890608Y-84616962D01*
X134969133Y-84576040D01*
X135053319Y-84549389D01*
X135138443Y-84537465D01*
X135219784Y-84540722D01*
X135292620Y-84559615D01*
X135324574Y-84575184D01*
X135382499Y-84618181D01*
X135431456Y-84674953D01*
X135472610Y-84747575D01*
X135507126Y-84838121D01*
X135536167Y-84948666D01*
X135537448Y-84954533D01*
X135547619Y-85016788D01*
X135555261Y-85094594D01*
X135560330Y-85182720D01*
X135562783Y-85275934D01*
X136391900Y-85275934D01*
X136386143Y-85119895D01*
X136364198Y-84924059D01*
X136328214Y-84745332D01*
X136278241Y-84583845D01*
X136214332Y-84439726D01*
X136136538Y-84313106D01*
X136044911Y-84204115D01*
X135939503Y-84112883D01*
X135894338Y-84081932D01*
X135793389Y-84025785D01*
X135690099Y-83986174D01*
X135580011Y-83962014D01*
X135458670Y-83952219D01*
X135366164Y-83953265D01*
X135236510Y-83964231D01*
X135123916Y-83986046D01*
X135025125Y-84019714D01*
X134936879Y-84066236D01*
X134888014Y-84100448D01*
X134858647Y-84122362D01*
X134836957Y-84137333D01*
X134828747Y-84141733D01*
X134827132Y-84130904D01*
X134825841Y-84100251D01*
X134824862Y-84052526D01*
X134824183Y-83990479D01*
X134823790Y-83916862D01*
X134823670Y-83834427D01*
X134823812Y-83745925D01*
X134824203Y-83654107D01*
X134824829Y-83561724D01*
X134825680Y-83471528D01*
X134826740Y-83386271D01*
X134827999Y-83308703D01*
X134829444Y-83241576D01*
X134831062Y-83187641D01*
X134832839Y-83149650D01*
X134833331Y-83142667D01*
X134840908Y-83072251D01*
X134852469Y-83017102D01*
X134870208Y-82969981D01*
X134896318Y-82923647D01*
X134902585Y-82914067D01*
X134927017Y-82877378D01*
X134021689Y-82877378D01*
X134021493Y-84562245D01*
G36*
X137534426Y-83956552D02*
G01*
X137382508Y-83976567D01*
X137247244Y-84010202D01*
X137127761Y-84057725D01*
X137023185Y-84119405D01*
X136945576Y-84182965D01*
X136876735Y-84257099D01*
X136822994Y-84336871D01*
X136780090Y-84429091D01*
X136764616Y-84472161D01*
X136751756Y-84511142D01*
X136740554Y-84547289D01*
X136730880Y-84582434D01*
X136722604Y-84618410D01*
X136715597Y-84657050D01*
X136709728Y-84700185D01*
X136704869Y-84749649D01*
X136700890Y-84807273D01*
X136697660Y-84874891D01*
X136695051Y-84954334D01*
X136692933Y-85047436D01*
X136691176Y-85156027D01*
X136689651Y-85281942D01*
X136688228Y-85427012D01*
X136686975Y-85569778D01*
X136685649Y-85725968D01*
X136684444Y-85861239D01*
X136683234Y-85977246D01*
X136681894Y-86075645D01*
X136680300Y-86158093D01*
X136678325Y-86226246D01*
X136675844Y-86281760D01*
X136672731Y-86326292D01*
X136668862Y-86361498D01*
X136664111Y-86389034D01*
X136658352Y-86410556D01*
X136651461Y-86427722D01*
X136643311Y-86442186D01*
X136633777Y-86455606D01*
X136622734Y-86469638D01*
X136618434Y-86475071D01*
X136602614Y-86497910D01*
X136595578Y-86513463D01*
X136595556Y-86513922D01*
X136606433Y-86516121D01*
X136637418Y-86518147D01*
X136686043Y-86519942D01*
X136749837Y-86521451D01*
X136826331Y-86522616D01*
X136913056Y-86523380D01*
X137007543Y-86523686D01*
X137018450Y-86523689D01*
X137441343Y-86523689D01*
X137444605Y-86427622D01*
X137447867Y-86331556D01*
X137509956Y-86382543D01*
X137607286Y-86450057D01*
X137717187Y-86504749D01*
X137803651Y-86534978D01*
X137872722Y-86549666D01*
X137956075Y-86559659D01*
X138045841Y-86564646D01*
X138134155Y-86564313D01*
X138213149Y-86558351D01*
X138249378Y-86552638D01*
X138389397Y-86514776D01*
X138515822Y-86459932D01*
X138627740Y-86388924D01*
X138724238Y-86302568D01*
X138804400Y-86201679D01*
X138867313Y-86087076D01*
X138911688Y-85960984D01*
X138924022Y-85904401D01*
X138931632Y-85842202D01*
X138935261Y-85767363D01*
X138935755Y-85733467D01*
X138935690Y-85730282D01*
X138175752Y-85730282D01*
X138166459Y-85805333D01*
X138138272Y-85869160D01*
X138089803Y-85924798D01*
X138084746Y-85929211D01*
X138036452Y-85964037D01*
X137984743Y-85986620D01*
X137924011Y-85998540D01*
X137848648Y-86001383D01*
X137830541Y-86000978D01*
X137776722Y-85998325D01*
X137736692Y-85992909D01*
X137701676Y-85982745D01*
X137662897Y-85965850D01*
X137652255Y-85960672D01*
X137591604Y-85924844D01*
X137544785Y-85882212D01*
X137532048Y-85866973D01*
X137487378Y-85810462D01*
X137487378Y-85614586D01*
X137487914Y-85535939D01*
X137489604Y-85477988D01*
X137492572Y-85438875D01*
X137496943Y-85416741D01*
X137501028Y-85410274D01*
X137516953Y-85407111D01*
X137550736Y-85404488D01*
X137597660Y-85402655D01*
X137653007Y-85401857D01*
X137661894Y-85401842D01*
X137782670Y-85407096D01*
X137885340Y-85423263D01*
X137971894Y-85450961D01*
X138044319Y-85490808D01*
X138099249Y-85537758D01*
X138143796Y-85595645D01*
X138168520Y-85658693D01*
X138175752Y-85730282D01*
X138935690Y-85730282D01*
X138933822Y-85639712D01*
X138925478Y-85560812D01*
X138909232Y-85489590D01*
X138883595Y-85418864D01*
X138859599Y-85366493D01*
X138800980Y-85271196D01*
X138722883Y-85183170D01*
X138627685Y-85104017D01*
X138517762Y-85035340D01*
X138395490Y-84978741D01*
X138263245Y-84935821D01*
X138198578Y-84920882D01*
X138062396Y-84898777D01*
X137913951Y-84884194D01*
X137762495Y-84877813D01*
X137635936Y-84879445D01*
X137474050Y-84886224D01*
X137481470Y-84827245D01*
X137500762Y-84728092D01*
X137531896Y-84647372D01*
X137575731Y-84584466D01*
X137633129Y-84538756D01*
X137704952Y-84509622D01*
X137792059Y-84496447D01*
X137895314Y-84498611D01*
X137933289Y-84502612D01*
X138074480Y-84527780D01*
X138211293Y-84568814D01*
X138305822Y-84606815D01*
X138350982Y-84626190D01*
X138389415Y-84641760D01*
X138415766Y-84651405D01*
X138423454Y-84653452D01*
X138433198Y-84644374D01*
X138449917Y-84615405D01*
X138473768Y-84566217D01*
X138504907Y-84496484D01*
X138543493Y-84405879D01*
X138550090Y-84390089D01*
X138580147Y-84317772D01*
X138607126Y-84252425D01*
X138629864Y-84196906D01*
X138647194Y-84154072D01*
X138657952Y-84126781D01*
X138661059Y-84117942D01*
X138651060Y-84113187D01*
X138624783Y-84107910D01*
X138596511Y-84104231D01*
X138566354Y-84099474D01*
X138518567Y-84090028D01*
X138457388Y-84076820D01*
X138387054Y-84060776D01*
X138311806Y-84042820D01*
X138283245Y-84035797D01*
X138178184Y-84010209D01*
X138090520Y-83990147D01*
X138015932Y-83974969D01*
X137950097Y-83964035D01*
X137888693Y-83956704D01*
X137827398Y-83952335D01*
X137761890Y-83950287D01*
X137703872Y-83949889D01*
X137534426Y-83956552D01*
G37*
X137534426Y-83956552D02*
X137382508Y-83976567D01*
X137247244Y-84010202D01*
X137127761Y-84057725D01*
X137023185Y-84119405D01*
X136945576Y-84182965D01*
X136876735Y-84257099D01*
X136822994Y-84336871D01*
X136780090Y-84429091D01*
X136764616Y-84472161D01*
X136751756Y-84511142D01*
X136740554Y-84547289D01*
X136730880Y-84582434D01*
X136722604Y-84618410D01*
X136715597Y-84657050D01*
X136709728Y-84700185D01*
X136704869Y-84749649D01*
X136700890Y-84807273D01*
X136697660Y-84874891D01*
X136695051Y-84954334D01*
X136692933Y-85047436D01*
X136691176Y-85156027D01*
X136689651Y-85281942D01*
X136688228Y-85427012D01*
X136686975Y-85569778D01*
X136685649Y-85725968D01*
X136684444Y-85861239D01*
X136683234Y-85977246D01*
X136681894Y-86075645D01*
X136680300Y-86158093D01*
X136678325Y-86226246D01*
X136675844Y-86281760D01*
X136672731Y-86326292D01*
X136668862Y-86361498D01*
X136664111Y-86389034D01*
X136658352Y-86410556D01*
X136651461Y-86427722D01*
X136643311Y-86442186D01*
X136633777Y-86455606D01*
X136622734Y-86469638D01*
X136618434Y-86475071D01*
X136602614Y-86497910D01*
X136595578Y-86513463D01*
X136595556Y-86513922D01*
X136606433Y-86516121D01*
X136637418Y-86518147D01*
X136686043Y-86519942D01*
X136749837Y-86521451D01*
X136826331Y-86522616D01*
X136913056Y-86523380D01*
X137007543Y-86523686D01*
X137018450Y-86523689D01*
X137441343Y-86523689D01*
X137444605Y-86427622D01*
X137447867Y-86331556D01*
X137509956Y-86382543D01*
X137607286Y-86450057D01*
X137717187Y-86504749D01*
X137803651Y-86534978D01*
X137872722Y-86549666D01*
X137956075Y-86559659D01*
X138045841Y-86564646D01*
X138134155Y-86564313D01*
X138213149Y-86558351D01*
X138249378Y-86552638D01*
X138389397Y-86514776D01*
X138515822Y-86459932D01*
X138627740Y-86388924D01*
X138724238Y-86302568D01*
X138804400Y-86201679D01*
X138867313Y-86087076D01*
X138911688Y-85960984D01*
X138924022Y-85904401D01*
X138931632Y-85842202D01*
X138935261Y-85767363D01*
X138935755Y-85733467D01*
X138935690Y-85730282D01*
X138175752Y-85730282D01*
X138166459Y-85805333D01*
X138138272Y-85869160D01*
X138089803Y-85924798D01*
X138084746Y-85929211D01*
X138036452Y-85964037D01*
X137984743Y-85986620D01*
X137924011Y-85998540D01*
X137848648Y-86001383D01*
X137830541Y-86000978D01*
X137776722Y-85998325D01*
X137736692Y-85992909D01*
X137701676Y-85982745D01*
X137662897Y-85965850D01*
X137652255Y-85960672D01*
X137591604Y-85924844D01*
X137544785Y-85882212D01*
X137532048Y-85866973D01*
X137487378Y-85810462D01*
X137487378Y-85614586D01*
X137487914Y-85535939D01*
X137489604Y-85477988D01*
X137492572Y-85438875D01*
X137496943Y-85416741D01*
X137501028Y-85410274D01*
X137516953Y-85407111D01*
X137550736Y-85404488D01*
X137597660Y-85402655D01*
X137653007Y-85401857D01*
X137661894Y-85401842D01*
X137782670Y-85407096D01*
X137885340Y-85423263D01*
X137971894Y-85450961D01*
X138044319Y-85490808D01*
X138099249Y-85537758D01*
X138143796Y-85595645D01*
X138168520Y-85658693D01*
X138175752Y-85730282D01*
X138935690Y-85730282D01*
X138933822Y-85639712D01*
X138925478Y-85560812D01*
X138909232Y-85489590D01*
X138883595Y-85418864D01*
X138859599Y-85366493D01*
X138800980Y-85271196D01*
X138722883Y-85183170D01*
X138627685Y-85104017D01*
X138517762Y-85035340D01*
X138395490Y-84978741D01*
X138263245Y-84935821D01*
X138198578Y-84920882D01*
X138062396Y-84898777D01*
X137913951Y-84884194D01*
X137762495Y-84877813D01*
X137635936Y-84879445D01*
X137474050Y-84886224D01*
X137481470Y-84827245D01*
X137500762Y-84728092D01*
X137531896Y-84647372D01*
X137575731Y-84584466D01*
X137633129Y-84538756D01*
X137704952Y-84509622D01*
X137792059Y-84496447D01*
X137895314Y-84498611D01*
X137933289Y-84502612D01*
X138074480Y-84527780D01*
X138211293Y-84568814D01*
X138305822Y-84606815D01*
X138350982Y-84626190D01*
X138389415Y-84641760D01*
X138415766Y-84651405D01*
X138423454Y-84653452D01*
X138433198Y-84644374D01*
X138449917Y-84615405D01*
X138473768Y-84566217D01*
X138504907Y-84496484D01*
X138543493Y-84405879D01*
X138550090Y-84390089D01*
X138580147Y-84317772D01*
X138607126Y-84252425D01*
X138629864Y-84196906D01*
X138647194Y-84154072D01*
X138657952Y-84126781D01*
X138661059Y-84117942D01*
X138651060Y-84113187D01*
X138624783Y-84107910D01*
X138596511Y-84104231D01*
X138566354Y-84099474D01*
X138518567Y-84090028D01*
X138457388Y-84076820D01*
X138387054Y-84060776D01*
X138311806Y-84042820D01*
X138283245Y-84035797D01*
X138178184Y-84010209D01*
X138090520Y-83990147D01*
X138015932Y-83974969D01*
X137950097Y-83964035D01*
X137888693Y-83956704D01*
X137827398Y-83952335D01*
X137761890Y-83950287D01*
X137703872Y-83949889D01*
X137534426Y-83956552D01*
G36*
X139879571Y-83039071D02*
G01*
X139719430Y-83060245D01*
X139555490Y-83100385D01*
X139385687Y-83159889D01*
X139207957Y-83239154D01*
X139196690Y-83244699D01*
X139138995Y-83272725D01*
X139087448Y-83296802D01*
X139045809Y-83315249D01*
X139017838Y-83326386D01*
X139008267Y-83328933D01*
X138989050Y-83333941D01*
X138984439Y-83338147D01*
X138989542Y-83348580D01*
X139005582Y-83374868D01*
X139030712Y-83414257D01*
X139063086Y-83463991D01*
X139100857Y-83521315D01*
X139142178Y-83583476D01*
X139185202Y-83647718D01*
X139228083Y-83711285D01*
X139268974Y-83771425D01*
X139306029Y-83825380D01*
X139337400Y-83870397D01*
X139361241Y-83903721D01*
X139375706Y-83922597D01*
X139377691Y-83924787D01*
X139387809Y-83920138D01*
X139410150Y-83902962D01*
X139440720Y-83876440D01*
X139456464Y-83861964D01*
X139552953Y-83786682D01*
X139659664Y-83731241D01*
X139775168Y-83696141D01*
X139898038Y-83681880D01*
X139967439Y-83683051D01*
X140088577Y-83700212D01*
X140197795Y-83736094D01*
X140295418Y-83790959D01*
X140381772Y-83865070D01*
X140457185Y-83958688D01*
X140521982Y-84072076D01*
X140559399Y-84158667D01*
X140603252Y-84294366D01*
X140635572Y-84441850D01*
X140656443Y-84597314D01*
X140665949Y-84756956D01*
X140664173Y-84916973D01*
X140651197Y-85073561D01*
X140627106Y-85222918D01*
X140591982Y-85361240D01*
X140545908Y-85484724D01*
X140529627Y-85518978D01*
X140461380Y-85633064D01*
X140380921Y-85729557D01*
X140289430Y-85807670D01*
X140188089Y-85866617D01*
X140078080Y-85905612D01*
X139960585Y-85923868D01*
X139919117Y-85925211D01*
X139797559Y-85914290D01*
X139677122Y-85881474D01*
X139559334Y-85827439D01*
X139445723Y-85752865D01*
X139354315Y-85674539D01*
X139307785Y-85630008D01*
X139126517Y-85927271D01*
X139081420Y-86001433D01*
X139040181Y-86069646D01*
X139004265Y-86129459D01*
X138975134Y-86178420D01*
X138954250Y-86214079D01*
X138943076Y-86233984D01*
X138941625Y-86237079D01*
X138949854Y-86246718D01*
X138975433Y-86263999D01*
X139015127Y-86287283D01*
X139065703Y-86314934D01*
X139123926Y-86345315D01*
X139186563Y-86376790D01*
X139250379Y-86407722D01*
X139312140Y-86436473D01*
X139368612Y-86461408D01*
X139416562Y-86480889D01*
X139440014Y-86489318D01*
X139573779Y-86527133D01*
X139711673Y-86552136D01*
X139859378Y-86565140D01*
X139986167Y-86567468D01*
X140054122Y-86566373D01*
X140119723Y-86564275D01*
X140177153Y-86561434D01*
X140220597Y-86558106D01*
X140234702Y-86556422D01*
X140373716Y-86527587D01*
X140515243Y-86482468D01*
X140652725Y-86423750D01*
X140779606Y-86354120D01*
X140857111Y-86301441D01*
X140984519Y-86193239D01*
X141102822Y-86066671D01*
X141209828Y-85924866D01*
X141303348Y-85770951D01*
X141381190Y-85608053D01*
X141425044Y-85490756D01*
X141475292Y-85307128D01*
X141508791Y-85112581D01*
X141525551Y-84911325D01*
X141525584Y-84707568D01*
X141508899Y-84505521D01*
X141475507Y-84309392D01*
X141425420Y-84123391D01*
X141421603Y-84111803D01*
X141358719Y-83949750D01*
X141281972Y-83801832D01*
X141188758Y-83663865D01*
X141076473Y-83531661D01*
X141032608Y-83486399D01*
X140896466Y-83362457D01*
X140756509Y-83259915D01*
X140610589Y-83177656D01*
X140456558Y-83114564D01*
X140292268Y-83069523D01*
X140196711Y-83052033D01*
X140037977Y-83036466D01*
X139879571Y-83039071D01*
G37*
X139879571Y-83039071D02*
X139719430Y-83060245D01*
X139555490Y-83100385D01*
X139385687Y-83159889D01*
X139207957Y-83239154D01*
X139196690Y-83244699D01*
X139138995Y-83272725D01*
X139087448Y-83296802D01*
X139045809Y-83315249D01*
X139017838Y-83326386D01*
X139008267Y-83328933D01*
X138989050Y-83333941D01*
X138984439Y-83338147D01*
X138989542Y-83348580D01*
X139005582Y-83374868D01*
X139030712Y-83414257D01*
X139063086Y-83463991D01*
X139100857Y-83521315D01*
X139142178Y-83583476D01*
X139185202Y-83647718D01*
X139228083Y-83711285D01*
X139268974Y-83771425D01*
X139306029Y-83825380D01*
X139337400Y-83870397D01*
X139361241Y-83903721D01*
X139375706Y-83922597D01*
X139377691Y-83924787D01*
X139387809Y-83920138D01*
X139410150Y-83902962D01*
X139440720Y-83876440D01*
X139456464Y-83861964D01*
X139552953Y-83786682D01*
X139659664Y-83731241D01*
X139775168Y-83696141D01*
X139898038Y-83681880D01*
X139967439Y-83683051D01*
X140088577Y-83700212D01*
X140197795Y-83736094D01*
X140295418Y-83790959D01*
X140381772Y-83865070D01*
X140457185Y-83958688D01*
X140521982Y-84072076D01*
X140559399Y-84158667D01*
X140603252Y-84294366D01*
X140635572Y-84441850D01*
X140656443Y-84597314D01*
X140665949Y-84756956D01*
X140664173Y-84916973D01*
X140651197Y-85073561D01*
X140627106Y-85222918D01*
X140591982Y-85361240D01*
X140545908Y-85484724D01*
X140529627Y-85518978D01*
X140461380Y-85633064D01*
X140380921Y-85729557D01*
X140289430Y-85807670D01*
X140188089Y-85866617D01*
X140078080Y-85905612D01*
X139960585Y-85923868D01*
X139919117Y-85925211D01*
X139797559Y-85914290D01*
X139677122Y-85881474D01*
X139559334Y-85827439D01*
X139445723Y-85752865D01*
X139354315Y-85674539D01*
X139307785Y-85630008D01*
X139126517Y-85927271D01*
X139081420Y-86001433D01*
X139040181Y-86069646D01*
X139004265Y-86129459D01*
X138975134Y-86178420D01*
X138954250Y-86214079D01*
X138943076Y-86233984D01*
X138941625Y-86237079D01*
X138949854Y-86246718D01*
X138975433Y-86263999D01*
X139015127Y-86287283D01*
X139065703Y-86314934D01*
X139123926Y-86345315D01*
X139186563Y-86376790D01*
X139250379Y-86407722D01*
X139312140Y-86436473D01*
X139368612Y-86461408D01*
X139416562Y-86480889D01*
X139440014Y-86489318D01*
X139573779Y-86527133D01*
X139711673Y-86552136D01*
X139859378Y-86565140D01*
X139986167Y-86567468D01*
X140054122Y-86566373D01*
X140119723Y-86564275D01*
X140177153Y-86561434D01*
X140220597Y-86558106D01*
X140234702Y-86556422D01*
X140373716Y-86527587D01*
X140515243Y-86482468D01*
X140652725Y-86423750D01*
X140779606Y-86354120D01*
X140857111Y-86301441D01*
X140984519Y-86193239D01*
X141102822Y-86066671D01*
X141209828Y-85924866D01*
X141303348Y-85770951D01*
X141381190Y-85608053D01*
X141425044Y-85490756D01*
X141475292Y-85307128D01*
X141508791Y-85112581D01*
X141525551Y-84911325D01*
X141525584Y-84707568D01*
X141508899Y-84505521D01*
X141475507Y-84309392D01*
X141425420Y-84123391D01*
X141421603Y-84111803D01*
X141358719Y-83949750D01*
X141281972Y-83801832D01*
X141188758Y-83663865D01*
X141076473Y-83531661D01*
X141032608Y-83486399D01*
X140896466Y-83362457D01*
X140756509Y-83259915D01*
X140610589Y-83177656D01*
X140456558Y-83114564D01*
X140292268Y-83069523D01*
X140196711Y-83052033D01*
X140037977Y-83036466D01*
X139879571Y-83039071D01*
G36*
X143154400Y-82579054D02*
G01*
X143143535Y-82692993D01*
X143111918Y-82800616D01*
X143061015Y-82899615D01*
X142992293Y-82987684D01*
X142907219Y-83062516D01*
X142810232Y-83120384D01*
X142703964Y-83160005D01*
X142596950Y-83178573D01*
X142491300Y-83177434D01*
X142389125Y-83157930D01*
X142292534Y-83121406D01*
X142203638Y-83069205D01*
X142124546Y-83002673D01*
X142057369Y-82923152D01*
X142004217Y-82831987D01*
X141967199Y-82730523D01*
X141948427Y-82620102D01*
X141946489Y-82570206D01*
X141946489Y-82482267D01*
X141894560Y-82482267D01*
X141858253Y-82485111D01*
X141831355Y-82496911D01*
X141804249Y-82520649D01*
X141765867Y-82559031D01*
X141765867Y-84750602D01*
X141765876Y-85012739D01*
X141765908Y-85253241D01*
X141765972Y-85473048D01*
X141766076Y-85673101D01*
X141766227Y-85854344D01*
X141766434Y-86017716D01*
X141766706Y-86164160D01*
X141767050Y-86294617D01*
X141767474Y-86410029D01*
X141767987Y-86511338D01*
X141768597Y-86599484D01*
X141769312Y-86675410D01*
X141770140Y-86740057D01*
X141771089Y-86794367D01*
X141772167Y-86839280D01*
X141773383Y-86875740D01*
X141774745Y-86904687D01*
X141776261Y-86927063D01*
X141777938Y-86943809D01*
X141779786Y-86955868D01*
X141781813Y-86964180D01*
X141784025Y-86969687D01*
X141785108Y-86971537D01*
X141789271Y-86978549D01*
X141792805Y-86984996D01*
X141796635Y-86990900D01*
X141801682Y-86996286D01*
X141808871Y-87001178D01*
X141819123Y-87005598D01*
X141833364Y-87009572D01*
X141852514Y-87013121D01*
X141877499Y-87016270D01*
X141909240Y-87019042D01*
X141948662Y-87021461D01*
X141996686Y-87023551D01*
X142054237Y-87025335D01*
X142122237Y-87026837D01*
X142201610Y-87028080D01*
X142293279Y-87029089D01*
X142398166Y-87029885D01*
X142517196Y-87030494D01*
X142651290Y-87030939D01*
X142801373Y-87031243D01*
X142968367Y-87031430D01*
X143153196Y-87031524D01*
X143356783Y-87031548D01*
X143580050Y-87031525D01*
X143823922Y-87031480D01*
X144089321Y-87031437D01*
X144127704Y-87031432D01*
X144394682Y-87031389D01*
X144640002Y-87031318D01*
X144864583Y-87031213D01*
X145069345Y-87031066D01*
X145255206Y-87030869D01*
X145423088Y-87030616D01*
X145573908Y-87030300D01*
X145708587Y-87029913D01*
X145828044Y-87029447D01*
X145933199Y-87028897D01*
X146024971Y-87028253D01*
X146104279Y-87027511D01*
X146172043Y-87026661D01*
X146229182Y-87025697D01*
X146276617Y-87024611D01*
X146315266Y-87023397D01*
X146346049Y-87022047D01*
X146369885Y-87020555D01*
X146387694Y-87018911D01*
X146400395Y-87017111D01*
X146408908Y-87015145D01*
X146413266Y-87013477D01*
X146421728Y-87009906D01*
X146429497Y-87007270D01*
X146436602Y-87004634D01*
X146443073Y-87001062D01*
X146448939Y-86995621D01*
X146454229Y-86987375D01*
X146458974Y-86975390D01*
X146463202Y-86958731D01*
X146466943Y-86936463D01*
X146470227Y-86907652D01*
X146473083Y-86871363D01*
X146475540Y-86826661D01*
X146477629Y-86772611D01*
X146479378Y-86708279D01*
X146480817Y-86632730D01*
X146481976Y-86545030D01*
X146482883Y-86444243D01*
X146483569Y-86329434D01*
X146484063Y-86199670D01*
X146484395Y-86054015D01*
X146484593Y-85891535D01*
X146484687Y-85711295D01*
X146484708Y-85512360D01*
X146484685Y-85293796D01*
X146484646Y-85054668D01*
X146484622Y-84794040D01*
X146484622Y-84751889D01*
X146484636Y-84488992D01*
X146484661Y-84247732D01*
X146484671Y-84027165D01*
X146484642Y-83826352D01*
X146484548Y-83644349D01*
X146484362Y-83480216D01*
X146484059Y-83333011D01*
X146483614Y-83201792D01*
X146483034Y-83091867D01*
X146180197Y-83091867D01*
X146140407Y-83149711D01*
X146129236Y-83165479D01*
X146119166Y-83179441D01*
X146110138Y-83192784D01*
X146102097Y-83206693D01*
X146094986Y-83222356D01*
X146088747Y-83240958D01*
X146083325Y-83263686D01*
X146078662Y-83291727D01*
X146074701Y-83326267D01*
X146071385Y-83368492D01*
X146068659Y-83419589D01*
X146066464Y-83480744D01*
X146064745Y-83553144D01*
X146063444Y-83637975D01*
X146062505Y-83736422D01*
X146061870Y-83849674D01*
X146061484Y-83978916D01*
X146061288Y-84125334D01*
X146061227Y-84290116D01*
X146061243Y-84474447D01*
X146061280Y-84679513D01*
X146061289Y-84802133D01*
X146061265Y-85019082D01*
X146061231Y-85214642D01*
X146061243Y-85389999D01*
X146061358Y-85546341D01*
X146061630Y-85684857D01*
X146062118Y-85806734D01*
X146062876Y-85913160D01*
X146063962Y-86005322D01*
X146065431Y-86084409D01*
X146067340Y-86151608D01*
X146069744Y-86208107D01*
X146072701Y-86255093D01*
X146076266Y-86293755D01*
X146080495Y-86325280D01*
X146085446Y-86350855D01*
X146091173Y-86371670D01*
X146097733Y-86388911D01*
X146105183Y-86403765D01*
X146113579Y-86417422D01*
X146122976Y-86431069D01*
X146133432Y-86445893D01*
X146139523Y-86454783D01*
X146178296Y-86512400D01*
X145646732Y-86512400D01*
X145523483Y-86512365D01*
X145420987Y-86512215D01*
X145337420Y-86511878D01*
X145270956Y-86511286D01*
X145219771Y-86510367D01*
X145182041Y-86509051D01*
X145155940Y-86507269D01*
X145139644Y-86504951D01*
X145131328Y-86502026D01*
X145129168Y-86498424D01*
X145131339Y-86494075D01*
X145132535Y-86492645D01*
X145157685Y-86455573D01*
X145183583Y-86402772D01*
X145207192Y-86340770D01*
X145215461Y-86314357D01*
X145220078Y-86296416D01*
X145223979Y-86275355D01*
X145227248Y-86249089D01*
X145229966Y-86215532D01*
X145232215Y-86172599D01*
X145234077Y-86118204D01*
X145235636Y-86050262D01*
X145236972Y-85966688D01*
X145238169Y-85865395D01*
X145239308Y-85744300D01*
X145239685Y-85699600D01*
X145240702Y-85574449D01*
X145241460Y-85470082D01*
X145241903Y-85384707D01*
X145241970Y-85316533D01*
X145241605Y-85263765D01*
X145240748Y-85224614D01*
X145239341Y-85197285D01*
X145237325Y-85179986D01*
X145234643Y-85170926D01*
X145231236Y-85168312D01*
X145227044Y-85170351D01*
X145222571Y-85174667D01*
X145212216Y-85187602D01*
X145190158Y-85216676D01*
X145157957Y-85259759D01*
X145117174Y-85314718D01*
X145069370Y-85379423D01*
X145016105Y-85451742D01*
X144958940Y-85529544D01*
X144899437Y-85610698D01*
X144839155Y-85693072D01*
X144779655Y-85774536D01*
X144722498Y-85852957D01*
X144669245Y-85926204D01*
X144621457Y-85992147D01*
X144580693Y-86048654D01*
X144548516Y-86093593D01*
X144526485Y-86124834D01*
X144521917Y-86131466D01*
X144498996Y-86168369D01*
X144472188Y-86216359D01*
X144446789Y-86265897D01*
X144443568Y-86272577D01*
X144421890Y-86320772D01*
X144409304Y-86358334D01*
X144403574Y-86394160D01*
X144402456Y-86436200D01*
X144403090Y-86512400D01*
X143248651Y-86512400D01*
X143339815Y-86418669D01*
X143386612Y-86368775D01*
X143436899Y-86312295D01*
X143482944Y-86258026D01*
X143503369Y-86232673D01*
X143533807Y-86193128D01*
X143573862Y-86139916D01*
X143622361Y-86074667D01*
X143678135Y-85999011D01*
X143740011Y-85914577D01*
X143806819Y-85822994D01*
X143877387Y-85725892D01*
X143950545Y-85624901D01*
X144025121Y-85521650D01*
X144099944Y-85417768D01*
X144173843Y-85314885D01*
X144245646Y-85214631D01*
X144314184Y-85118636D01*
X144378284Y-85028527D01*
X144436775Y-84945936D01*
X144488486Y-84872492D01*
X144532247Y-84809824D01*
X144566885Y-84759561D01*
X144591230Y-84723334D01*
X144604111Y-84702771D01*
X144605869Y-84698668D01*
X144597910Y-84687342D01*
X144577115Y-84660162D01*
X144544847Y-84618829D01*
X144502470Y-84565044D01*
X144451347Y-84500506D01*
X144392841Y-84426918D01*
X144328314Y-84345978D01*
X144259131Y-84259388D01*
X144186653Y-84168848D01*
X144112246Y-84076060D01*
X144052517Y-84001702D01*
X143041511Y-84001702D01*
X143035602Y-84014659D01*
X143021272Y-84036908D01*
X143020225Y-84038391D01*
X143001438Y-84068544D01*
X142981791Y-84105375D01*
X142977892Y-84113511D01*
X142974356Y-84121940D01*
X142971230Y-84132059D01*
X142968486Y-84145260D01*
X142966092Y-84162938D01*
X142964019Y-84186484D01*
X142962235Y-84217293D01*
X142960712Y-84256757D01*
X142959419Y-84306269D01*
X142958326Y-84367223D01*
X142957403Y-84441011D01*
X142956619Y-84529028D01*
X142955945Y-84632665D01*
X142955350Y-84753316D01*
X142954805Y-84892374D01*
X142954279Y-85051232D01*
X142953745Y-85230089D01*
X142953206Y-85415207D01*
X142952772Y-85579145D01*
X142952509Y-85723303D01*
X142952484Y-85849079D01*
X142952765Y-85957871D01*
X142953419Y-86051077D01*
X142954514Y-86130097D01*
X142956118Y-86196328D01*
X142958297Y-86251170D01*
X142961119Y-86296021D01*
X142964651Y-86332278D01*
X142968961Y-86361341D01*
X142974117Y-86384609D01*
X142980185Y-86403479D01*
X142987233Y-86419351D01*
X142995329Y-86433622D01*
X143004540Y-86447691D01*
X143013040Y-86460158D01*
X143030176Y-86486452D01*
X143040322Y-86504037D01*
X143041511Y-86507257D01*
X143030604Y-86508334D01*
X142999411Y-86509335D01*
X142950223Y-86510235D01*
X142885333Y-86511010D01*
X142807030Y-86511637D01*
X142717607Y-86512091D01*
X142619356Y-86512349D01*
X142550445Y-86512400D01*
X142445452Y-86512180D01*
X142348610Y-86511548D01*
X142262107Y-86510549D01*
X142188132Y-86509227D01*
X142128874Y-86507626D01*
X142086520Y-86505791D01*
X142063260Y-86503765D01*
X142059378Y-86502493D01*
X142067076Y-86487591D01*
X142075074Y-86479560D01*
X142088246Y-86462434D01*
X142105485Y-86432183D01*
X142117407Y-86407622D01*
X142144045Y-86348711D01*
X142147120Y-85171845D01*
X142150195Y-83994978D01*
X142595853Y-83994978D01*
X142693670Y-83995142D01*
X142784064Y-83995611D01*
X142864630Y-83996347D01*
X142932962Y-83997316D01*
X142986656Y-83998480D01*
X143023305Y-83999803D01*
X143040504Y-84001249D01*
X143041511Y-84001702D01*
X144052517Y-84001702D01*
X144037270Y-83982722D01*
X143963090Y-83890537D01*
X143891069Y-83801204D01*
X143822569Y-83716424D01*
X143758955Y-83637898D01*
X143701588Y-83567326D01*
X143651833Y-83506409D01*
X143611052Y-83456847D01*
X143593888Y-83436178D01*
X143507596Y-83335516D01*
X143430997Y-83252259D01*
X143362183Y-83184438D01*
X143299248Y-83130089D01*
X143289867Y-83122722D01*
X143250356Y-83092117D01*
X144382116Y-83091867D01*
X144376827Y-83139844D01*
X144380130Y-83197188D01*
X144401661Y-83265463D01*
X144441635Y-83345212D01*
X144486943Y-83417495D01*
X144503161Y-83440140D01*
X144531214Y-83477696D01*
X144569430Y-83528021D01*
X144616137Y-83588973D01*
X144669661Y-83658411D01*
X144728331Y-83734194D01*
X144790475Y-83814180D01*
X144854421Y-83896228D01*
X144918495Y-83978196D01*
X144981027Y-84057943D01*
X145040343Y-84133327D01*
X145094771Y-84202207D01*
X145142639Y-84262442D01*
X145182275Y-84311889D01*
X145212006Y-84348408D01*
X145230161Y-84369858D01*
X145233220Y-84373156D01*
X145236079Y-84365149D01*
X145238293Y-84334855D01*
X145239857Y-84282556D01*
X145240767Y-84208531D01*
X145241020Y-84113063D01*
X145240613Y-83996434D01*
X145239704Y-83876445D01*
X145238382Y-83744333D01*
X145236857Y-83632594D01*
X145234881Y-83539025D01*
X145232206Y-83461419D01*
X145228582Y-83397574D01*
X145223761Y-83345283D01*
X145217494Y-83302344D01*
X145209532Y-83266551D01*
X145199627Y-83235700D01*
X145187531Y-83207586D01*
X145172993Y-83180005D01*
X145158311Y-83154966D01*
X145120314Y-83091867D01*
X146180197Y-83091867D01*
X146483034Y-83091867D01*
X146483001Y-83085617D01*
X146482195Y-82983544D01*
X146481170Y-82894633D01*
X146479900Y-82817941D01*
X146478360Y-82752527D01*
X146476524Y-82697449D01*
X146474367Y-82651765D01*
X146471863Y-82614534D01*
X146468987Y-82584813D01*
X146465713Y-82561662D01*
X146462015Y-82544139D01*
X146457869Y-82531301D01*
X146453247Y-82522208D01*
X146448126Y-82515918D01*
X146442478Y-82511488D01*
X146436279Y-82507978D01*
X146429504Y-82504445D01*
X146423508Y-82500876D01*
X146418275Y-82498300D01*
X146410099Y-82495972D01*
X146397886Y-82493878D01*
X146380541Y-82492007D01*
X146356969Y-82490347D01*
X146326077Y-82488884D01*
X146286768Y-82487608D01*
X146237950Y-82486504D01*
X146178527Y-82485561D01*
X146107404Y-82484767D01*
X146023488Y-82484109D01*
X145925683Y-82483575D01*
X145812894Y-82483153D01*
X145684029Y-82482829D01*
X145537991Y-82482592D01*
X145373686Y-82482430D01*
X145190020Y-82482330D01*
X144985897Y-82482280D01*
X144774753Y-82482267D01*
X143154400Y-82482267D01*
X143154400Y-82579054D01*
G37*
X143154400Y-82579054D02*
X143143535Y-82692993D01*
X143111918Y-82800616D01*
X143061015Y-82899615D01*
X142992293Y-82987684D01*
X142907219Y-83062516D01*
X142810232Y-83120384D01*
X142703964Y-83160005D01*
X142596950Y-83178573D01*
X142491300Y-83177434D01*
X142389125Y-83157930D01*
X142292534Y-83121406D01*
X142203638Y-83069205D01*
X142124546Y-83002673D01*
X142057369Y-82923152D01*
X142004217Y-82831987D01*
X141967199Y-82730523D01*
X141948427Y-82620102D01*
X141946489Y-82570206D01*
X141946489Y-82482267D01*
X141894560Y-82482267D01*
X141858253Y-82485111D01*
X141831355Y-82496911D01*
X141804249Y-82520649D01*
X141765867Y-82559031D01*
X141765867Y-84750602D01*
X141765876Y-85012739D01*
X141765908Y-85253241D01*
X141765972Y-85473048D01*
X141766076Y-85673101D01*
X141766227Y-85854344D01*
X141766434Y-86017716D01*
X141766706Y-86164160D01*
X141767050Y-86294617D01*
X141767474Y-86410029D01*
X141767987Y-86511338D01*
X141768597Y-86599484D01*
X141769312Y-86675410D01*
X141770140Y-86740057D01*
X141771089Y-86794367D01*
X141772167Y-86839280D01*
X141773383Y-86875740D01*
X141774745Y-86904687D01*
X141776261Y-86927063D01*
X141777938Y-86943809D01*
X141779786Y-86955868D01*
X141781813Y-86964180D01*
X141784025Y-86969687D01*
X141785108Y-86971537D01*
X141789271Y-86978549D01*
X141792805Y-86984996D01*
X141796635Y-86990900D01*
X141801682Y-86996286D01*
X141808871Y-87001178D01*
X141819123Y-87005598D01*
X141833364Y-87009572D01*
X141852514Y-87013121D01*
X141877499Y-87016270D01*
X141909240Y-87019042D01*
X141948662Y-87021461D01*
X141996686Y-87023551D01*
X142054237Y-87025335D01*
X142122237Y-87026837D01*
X142201610Y-87028080D01*
X142293279Y-87029089D01*
X142398166Y-87029885D01*
X142517196Y-87030494D01*
X142651290Y-87030939D01*
X142801373Y-87031243D01*
X142968367Y-87031430D01*
X143153196Y-87031524D01*
X143356783Y-87031548D01*
X143580050Y-87031525D01*
X143823922Y-87031480D01*
X144089321Y-87031437D01*
X144127704Y-87031432D01*
X144394682Y-87031389D01*
X144640002Y-87031318D01*
X144864583Y-87031213D01*
X145069345Y-87031066D01*
X145255206Y-87030869D01*
X145423088Y-87030616D01*
X145573908Y-87030300D01*
X145708587Y-87029913D01*
X145828044Y-87029447D01*
X145933199Y-87028897D01*
X146024971Y-87028253D01*
X146104279Y-87027511D01*
X146172043Y-87026661D01*
X146229182Y-87025697D01*
X146276617Y-87024611D01*
X146315266Y-87023397D01*
X146346049Y-87022047D01*
X146369885Y-87020555D01*
X146387694Y-87018911D01*
X146400395Y-87017111D01*
X146408908Y-87015145D01*
X146413266Y-87013477D01*
X146421728Y-87009906D01*
X146429497Y-87007270D01*
X146436602Y-87004634D01*
X146443073Y-87001062D01*
X146448939Y-86995621D01*
X146454229Y-86987375D01*
X146458974Y-86975390D01*
X146463202Y-86958731D01*
X146466943Y-86936463D01*
X146470227Y-86907652D01*
X146473083Y-86871363D01*
X146475540Y-86826661D01*
X146477629Y-86772611D01*
X146479378Y-86708279D01*
X146480817Y-86632730D01*
X146481976Y-86545030D01*
X146482883Y-86444243D01*
X146483569Y-86329434D01*
X146484063Y-86199670D01*
X146484395Y-86054015D01*
X146484593Y-85891535D01*
X146484687Y-85711295D01*
X146484708Y-85512360D01*
X146484685Y-85293796D01*
X146484646Y-85054668D01*
X146484622Y-84794040D01*
X146484622Y-84751889D01*
X146484636Y-84488992D01*
X146484661Y-84247732D01*
X146484671Y-84027165D01*
X146484642Y-83826352D01*
X146484548Y-83644349D01*
X146484362Y-83480216D01*
X146484059Y-83333011D01*
X146483614Y-83201792D01*
X146483034Y-83091867D01*
X146180197Y-83091867D01*
X146140407Y-83149711D01*
X146129236Y-83165479D01*
X146119166Y-83179441D01*
X146110138Y-83192784D01*
X146102097Y-83206693D01*
X146094986Y-83222356D01*
X146088747Y-83240958D01*
X146083325Y-83263686D01*
X146078662Y-83291727D01*
X146074701Y-83326267D01*
X146071385Y-83368492D01*
X146068659Y-83419589D01*
X146066464Y-83480744D01*
X146064745Y-83553144D01*
X146063444Y-83637975D01*
X146062505Y-83736422D01*
X146061870Y-83849674D01*
X146061484Y-83978916D01*
X146061288Y-84125334D01*
X146061227Y-84290116D01*
X146061243Y-84474447D01*
X146061280Y-84679513D01*
X146061289Y-84802133D01*
X146061265Y-85019082D01*
X146061231Y-85214642D01*
X146061243Y-85389999D01*
X146061358Y-85546341D01*
X146061630Y-85684857D01*
X146062118Y-85806734D01*
X146062876Y-85913160D01*
X146063962Y-86005322D01*
X146065431Y-86084409D01*
X146067340Y-86151608D01*
X146069744Y-86208107D01*
X146072701Y-86255093D01*
X146076266Y-86293755D01*
X146080495Y-86325280D01*
X146085446Y-86350855D01*
X146091173Y-86371670D01*
X146097733Y-86388911D01*
X146105183Y-86403765D01*
X146113579Y-86417422D01*
X146122976Y-86431069D01*
X146133432Y-86445893D01*
X146139523Y-86454783D01*
X146178296Y-86512400D01*
X145646732Y-86512400D01*
X145523483Y-86512365D01*
X145420987Y-86512215D01*
X145337420Y-86511878D01*
X145270956Y-86511286D01*
X145219771Y-86510367D01*
X145182041Y-86509051D01*
X145155940Y-86507269D01*
X145139644Y-86504951D01*
X145131328Y-86502026D01*
X145129168Y-86498424D01*
X145131339Y-86494075D01*
X145132535Y-86492645D01*
X145157685Y-86455573D01*
X145183583Y-86402772D01*
X145207192Y-86340770D01*
X145215461Y-86314357D01*
X145220078Y-86296416D01*
X145223979Y-86275355D01*
X145227248Y-86249089D01*
X145229966Y-86215532D01*
X145232215Y-86172599D01*
X145234077Y-86118204D01*
X145235636Y-86050262D01*
X145236972Y-85966688D01*
X145238169Y-85865395D01*
X145239308Y-85744300D01*
X145239685Y-85699600D01*
X145240702Y-85574449D01*
X145241460Y-85470082D01*
X145241903Y-85384707D01*
X145241970Y-85316533D01*
X145241605Y-85263765D01*
X145240748Y-85224614D01*
X145239341Y-85197285D01*
X145237325Y-85179986D01*
X145234643Y-85170926D01*
X145231236Y-85168312D01*
X145227044Y-85170351D01*
X145222571Y-85174667D01*
X145212216Y-85187602D01*
X145190158Y-85216676D01*
X145157957Y-85259759D01*
X145117174Y-85314718D01*
X145069370Y-85379423D01*
X145016105Y-85451742D01*
X144958940Y-85529544D01*
X144899437Y-85610698D01*
X144839155Y-85693072D01*
X144779655Y-85774536D01*
X144722498Y-85852957D01*
X144669245Y-85926204D01*
X144621457Y-85992147D01*
X144580693Y-86048654D01*
X144548516Y-86093593D01*
X144526485Y-86124834D01*
X144521917Y-86131466D01*
X144498996Y-86168369D01*
X144472188Y-86216359D01*
X144446789Y-86265897D01*
X144443568Y-86272577D01*
X144421890Y-86320772D01*
X144409304Y-86358334D01*
X144403574Y-86394160D01*
X144402456Y-86436200D01*
X144403090Y-86512400D01*
X143248651Y-86512400D01*
X143339815Y-86418669D01*
X143386612Y-86368775D01*
X143436899Y-86312295D01*
X143482944Y-86258026D01*
X143503369Y-86232673D01*
X143533807Y-86193128D01*
X143573862Y-86139916D01*
X143622361Y-86074667D01*
X143678135Y-85999011D01*
X143740011Y-85914577D01*
X143806819Y-85822994D01*
X143877387Y-85725892D01*
X143950545Y-85624901D01*
X144025121Y-85521650D01*
X144099944Y-85417768D01*
X144173843Y-85314885D01*
X144245646Y-85214631D01*
X144314184Y-85118636D01*
X144378284Y-85028527D01*
X144436775Y-84945936D01*
X144488486Y-84872492D01*
X144532247Y-84809824D01*
X144566885Y-84759561D01*
X144591230Y-84723334D01*
X144604111Y-84702771D01*
X144605869Y-84698668D01*
X144597910Y-84687342D01*
X144577115Y-84660162D01*
X144544847Y-84618829D01*
X144502470Y-84565044D01*
X144451347Y-84500506D01*
X144392841Y-84426918D01*
X144328314Y-84345978D01*
X144259131Y-84259388D01*
X144186653Y-84168848D01*
X144112246Y-84076060D01*
X144052517Y-84001702D01*
X143041511Y-84001702D01*
X143035602Y-84014659D01*
X143021272Y-84036908D01*
X143020225Y-84038391D01*
X143001438Y-84068544D01*
X142981791Y-84105375D01*
X142977892Y-84113511D01*
X142974356Y-84121940D01*
X142971230Y-84132059D01*
X142968486Y-84145260D01*
X142966092Y-84162938D01*
X142964019Y-84186484D01*
X142962235Y-84217293D01*
X142960712Y-84256757D01*
X142959419Y-84306269D01*
X142958326Y-84367223D01*
X142957403Y-84441011D01*
X142956619Y-84529028D01*
X142955945Y-84632665D01*
X142955350Y-84753316D01*
X142954805Y-84892374D01*
X142954279Y-85051232D01*
X142953745Y-85230089D01*
X142953206Y-85415207D01*
X142952772Y-85579145D01*
X142952509Y-85723303D01*
X142952484Y-85849079D01*
X142952765Y-85957871D01*
X142953419Y-86051077D01*
X142954514Y-86130097D01*
X142956118Y-86196328D01*
X142958297Y-86251170D01*
X142961119Y-86296021D01*
X142964651Y-86332278D01*
X142968961Y-86361341D01*
X142974117Y-86384609D01*
X142980185Y-86403479D01*
X142987233Y-86419351D01*
X142995329Y-86433622D01*
X143004540Y-86447691D01*
X143013040Y-86460158D01*
X143030176Y-86486452D01*
X143040322Y-86504037D01*
X143041511Y-86507257D01*
X143030604Y-86508334D01*
X142999411Y-86509335D01*
X142950223Y-86510235D01*
X142885333Y-86511010D01*
X142807030Y-86511637D01*
X142717607Y-86512091D01*
X142619356Y-86512349D01*
X142550445Y-86512400D01*
X142445452Y-86512180D01*
X142348610Y-86511548D01*
X142262107Y-86510549D01*
X142188132Y-86509227D01*
X142128874Y-86507626D01*
X142086520Y-86505791D01*
X142063260Y-86503765D01*
X142059378Y-86502493D01*
X142067076Y-86487591D01*
X142075074Y-86479560D01*
X142088246Y-86462434D01*
X142105485Y-86432183D01*
X142117407Y-86407622D01*
X142144045Y-86348711D01*
X142147120Y-85171845D01*
X142150195Y-83994978D01*
X142595853Y-83994978D01*
X142693670Y-83995142D01*
X142784064Y-83995611D01*
X142864630Y-83996347D01*
X142932962Y-83997316D01*
X142986656Y-83998480D01*
X143023305Y-83999803D01*
X143040504Y-84001249D01*
X143041511Y-84001702D01*
X144052517Y-84001702D01*
X144037270Y-83982722D01*
X143963090Y-83890537D01*
X143891069Y-83801204D01*
X143822569Y-83716424D01*
X143758955Y-83637898D01*
X143701588Y-83567326D01*
X143651833Y-83506409D01*
X143611052Y-83456847D01*
X143593888Y-83436178D01*
X143507596Y-83335516D01*
X143430997Y-83252259D01*
X143362183Y-83184438D01*
X143299248Y-83130089D01*
X143289867Y-83122722D01*
X143250356Y-83092117D01*
X144382116Y-83091867D01*
X144376827Y-83139844D01*
X144380130Y-83197188D01*
X144401661Y-83265463D01*
X144441635Y-83345212D01*
X144486943Y-83417495D01*
X144503161Y-83440140D01*
X144531214Y-83477696D01*
X144569430Y-83528021D01*
X144616137Y-83588973D01*
X144669661Y-83658411D01*
X144728331Y-83734194D01*
X144790475Y-83814180D01*
X144854421Y-83896228D01*
X144918495Y-83978196D01*
X144981027Y-84057943D01*
X145040343Y-84133327D01*
X145094771Y-84202207D01*
X145142639Y-84262442D01*
X145182275Y-84311889D01*
X145212006Y-84348408D01*
X145230161Y-84369858D01*
X145233220Y-84373156D01*
X145236079Y-84365149D01*
X145238293Y-84334855D01*
X145239857Y-84282556D01*
X145240767Y-84208531D01*
X145241020Y-84113063D01*
X145240613Y-83996434D01*
X145239704Y-83876445D01*
X145238382Y-83744333D01*
X145236857Y-83632594D01*
X145234881Y-83539025D01*
X145232206Y-83461419D01*
X145228582Y-83397574D01*
X145223761Y-83345283D01*
X145217494Y-83302344D01*
X145209532Y-83266551D01*
X145199627Y-83235700D01*
X145187531Y-83207586D01*
X145172993Y-83180005D01*
X145158311Y-83154966D01*
X145120314Y-83091867D01*
X146180197Y-83091867D01*
X146483034Y-83091867D01*
X146483001Y-83085617D01*
X146482195Y-82983544D01*
X146481170Y-82894633D01*
X146479900Y-82817941D01*
X146478360Y-82752527D01*
X146476524Y-82697449D01*
X146474367Y-82651765D01*
X146471863Y-82614534D01*
X146468987Y-82584813D01*
X146465713Y-82561662D01*
X146462015Y-82544139D01*
X146457869Y-82531301D01*
X146453247Y-82522208D01*
X146448126Y-82515918D01*
X146442478Y-82511488D01*
X146436279Y-82507978D01*
X146429504Y-82504445D01*
X146423508Y-82500876D01*
X146418275Y-82498300D01*
X146410099Y-82495972D01*
X146397886Y-82493878D01*
X146380541Y-82492007D01*
X146356969Y-82490347D01*
X146326077Y-82488884D01*
X146286768Y-82487608D01*
X146237950Y-82486504D01*
X146178527Y-82485561D01*
X146107404Y-82484767D01*
X146023488Y-82484109D01*
X145925683Y-82483575D01*
X145812894Y-82483153D01*
X145684029Y-82482829D01*
X145537991Y-82482592D01*
X145373686Y-82482430D01*
X145190020Y-82482330D01*
X144985897Y-82482280D01*
X144774753Y-82482267D01*
X143154400Y-82482267D01*
X143154400Y-82579054D01*
%TO.C,LOGO1*%
G36*
X135156386Y-70417731D02*
G01*
X135072565Y-70862355D01*
X134763280Y-70989853D01*
X134453994Y-71117351D01*
X134082954Y-70865046D01*
X133979043Y-70794796D01*
X133885113Y-70732072D01*
X133805548Y-70679738D01*
X133744730Y-70640657D01*
X133707043Y-70617693D01*
X133696779Y-70612742D01*
X133678290Y-70625476D01*
X133638780Y-70660682D01*
X133582678Y-70713862D01*
X133514413Y-70780518D01*
X133438414Y-70856154D01*
X133359108Y-70936272D01*
X133280925Y-71016374D01*
X133208293Y-71091964D01*
X133145641Y-71158545D01*
X133097397Y-71211618D01*
X133067990Y-71246687D01*
X133060959Y-71258423D01*
X133071077Y-71280060D01*
X133099441Y-71327462D01*
X133143071Y-71395993D01*
X133198982Y-71481015D01*
X133264194Y-71577893D01*
X133301981Y-71633150D01*
X133370857Y-71734048D01*
X133432060Y-71825099D01*
X133482622Y-71901770D01*
X133519572Y-71959528D01*
X133539942Y-71993843D01*
X133543003Y-72001054D01*
X133536064Y-72021548D01*
X133517149Y-72069313D01*
X133489113Y-72137632D01*
X133454809Y-72219789D01*
X133417091Y-72309070D01*
X133378813Y-72398758D01*
X133342830Y-72482138D01*
X133311994Y-72552494D01*
X133289161Y-72603110D01*
X133277183Y-72627271D01*
X133276476Y-72628222D01*
X133257669Y-72632836D01*
X133207582Y-72643128D01*
X133131407Y-72658087D01*
X133034335Y-72676701D01*
X132921557Y-72697959D01*
X132855758Y-72710218D01*
X132735250Y-72733162D01*
X132626403Y-72754995D01*
X132534724Y-72774522D01*
X132465719Y-72790548D01*
X132424896Y-72801879D01*
X132416689Y-72805474D01*
X132408652Y-72829806D01*
X132402167Y-72884759D01*
X132397230Y-72963908D01*
X132393836Y-73060826D01*
X132391982Y-73169087D01*
X132391662Y-73282265D01*
X132392873Y-73393935D01*
X132395610Y-73497668D01*
X132399869Y-73587041D01*
X132405645Y-73655626D01*
X132412933Y-73696997D01*
X132417305Y-73705610D01*
X132443436Y-73715933D01*
X132498807Y-73730692D01*
X132576093Y-73748152D01*
X132667970Y-73766580D01*
X132700042Y-73772541D01*
X132854676Y-73800866D01*
X132976825Y-73823676D01*
X133070527Y-73841880D01*
X133139816Y-73856383D01*
X133188729Y-73868092D01*
X133221303Y-73877915D01*
X133241572Y-73886756D01*
X133253574Y-73895524D01*
X133255253Y-73897257D01*
X133272016Y-73925171D01*
X133297586Y-73979495D01*
X133329412Y-74053577D01*
X133364940Y-74140765D01*
X133401617Y-74234408D01*
X133436889Y-74327852D01*
X133468204Y-74414447D01*
X133493007Y-74487540D01*
X133508746Y-74540478D01*
X133512868Y-74566611D01*
X133512524Y-74567526D01*
X133498559Y-74588886D01*
X133466878Y-74635884D01*
X133420809Y-74703627D01*
X133363682Y-74787223D01*
X133298827Y-74881782D01*
X133280357Y-74908654D01*
X133214501Y-75006075D01*
X133156550Y-75094963D01*
X133109662Y-75170212D01*
X133076993Y-75226720D01*
X133061700Y-75259381D01*
X133060959Y-75263393D01*
X133073808Y-75284484D01*
X133109312Y-75326264D01*
X133162907Y-75384245D01*
X133230029Y-75453935D01*
X133306113Y-75530845D01*
X133386596Y-75610483D01*
X133466913Y-75688361D01*
X133542501Y-75759986D01*
X133608795Y-75820870D01*
X133661231Y-75866521D01*
X133695245Y-75892450D01*
X133704655Y-75896683D01*
X133726557Y-75886712D01*
X133771400Y-75859820D01*
X133831879Y-75820536D01*
X133878411Y-75788917D01*
X133962725Y-75730898D01*
X134062574Y-75662584D01*
X134162727Y-75594379D01*
X134216573Y-75557875D01*
X134398829Y-75434600D01*
X134551819Y-75517320D01*
X134621518Y-75553559D01*
X134680786Y-75581726D01*
X134720889Y-75597791D01*
X134731097Y-75600026D01*
X134743371Y-75583522D01*
X134767587Y-75536882D01*
X134801937Y-75464409D01*
X134844612Y-75370406D01*
X134893806Y-75259174D01*
X134947710Y-75135015D01*
X135004516Y-75002232D01*
X135062418Y-74865127D01*
X135119607Y-74728002D01*
X135174276Y-74595158D01*
X135224616Y-74470898D01*
X135268820Y-74359525D01*
X135305081Y-74265339D01*
X135331591Y-74192644D01*
X135346542Y-74145741D01*
X135348946Y-74129633D01*
X135329889Y-74109086D01*
X135288164Y-74075733D01*
X135232494Y-74036502D01*
X135227822Y-74033399D01*
X135083936Y-73918223D01*
X134967917Y-73783853D01*
X134880770Y-73634584D01*
X134823501Y-73474713D01*
X134797114Y-73308537D01*
X134802615Y-73140352D01*
X134841010Y-72974455D01*
X134913305Y-72815142D01*
X134934574Y-72780287D01*
X135045204Y-72639537D01*
X135175898Y-72526514D01*
X135322136Y-72441803D01*
X135479392Y-72385994D01*
X135643143Y-72359674D01*
X135808867Y-72363430D01*
X135972038Y-72397850D01*
X136128135Y-72463523D01*
X136272633Y-72561035D01*
X136317331Y-72600613D01*
X136431088Y-72724503D01*
X136513982Y-72854924D01*
X136570844Y-73001115D01*
X136602513Y-73145888D01*
X136610331Y-73308660D01*
X136584262Y-73472240D01*
X136526955Y-73631098D01*
X136441056Y-73779706D01*
X136329214Y-73912535D01*
X136194077Y-74024056D01*
X136176317Y-74035811D01*
X136120050Y-74074308D01*
X136077277Y-74107663D01*
X136056828Y-74128960D01*
X136056531Y-74129633D01*
X136060921Y-74152671D01*
X136078324Y-74204957D01*
X136106932Y-74282190D01*
X136144935Y-74380068D01*
X136190526Y-74494291D01*
X136241897Y-74620558D01*
X136297238Y-74754567D01*
X136354742Y-74892018D01*
X136412599Y-75028608D01*
X136469002Y-75160037D01*
X136522142Y-75282005D01*
X136570210Y-75390209D01*
X136611399Y-75480349D01*
X136643899Y-75548123D01*
X136665903Y-75589230D01*
X136674764Y-75600026D01*
X136701840Y-75591619D01*
X136752503Y-75569072D01*
X136818017Y-75536413D01*
X136854041Y-75517320D01*
X137007032Y-75434600D01*
X137189288Y-75557875D01*
X137282325Y-75621028D01*
X137384185Y-75690527D01*
X137479638Y-75755965D01*
X137527450Y-75788917D01*
X137594695Y-75834073D01*
X137651636Y-75869857D01*
X137690846Y-75891738D01*
X137703581Y-75896363D01*
X137722117Y-75883885D01*
X137763141Y-75849052D01*
X137822675Y-75795478D01*
X137896742Y-75726783D01*
X137981365Y-75646581D01*
X138034885Y-75595086D01*
X138128519Y-75503086D01*
X138209441Y-75420799D01*
X138274377Y-75351745D01*
X138320058Y-75299444D01*
X138343211Y-75267416D01*
X138345432Y-75260916D01*
X138335124Y-75236194D01*
X138306639Y-75186205D01*
X138263137Y-75116012D01*
X138207777Y-75030675D01*
X138143720Y-74935256D01*
X138125503Y-74908654D01*
X138059127Y-74811967D01*
X137999578Y-74724917D01*
X137950184Y-74652395D01*
X137914275Y-74599293D01*
X137895181Y-74570503D01*
X137893336Y-74567526D01*
X137896095Y-74544582D01*
X137910738Y-74494136D01*
X137934713Y-74422841D01*
X137965466Y-74337347D01*
X138000444Y-74244307D01*
X138037093Y-74150374D01*
X138072861Y-74062199D01*
X138105194Y-73986434D01*
X138131538Y-73929731D01*
X138149342Y-73898743D01*
X138150607Y-73897257D01*
X138161494Y-73888401D01*
X138179882Y-73879643D01*
X138209806Y-73870077D01*
X138255303Y-73858796D01*
X138320409Y-73844893D01*
X138409161Y-73827463D01*
X138525593Y-73805598D01*
X138673742Y-73778391D01*
X138705818Y-73772541D01*
X138800886Y-73754174D01*
X138883765Y-73736205D01*
X138947130Y-73720369D01*
X138983658Y-73708400D01*
X138988556Y-73705610D01*
X138996627Y-73680872D01*
X139003187Y-73625590D01*
X139008233Y-73546189D01*
X139011759Y-73449096D01*
X139013761Y-73340738D01*
X139014236Y-73227540D01*
X139013177Y-73115928D01*
X139010582Y-73012329D01*
X139006446Y-72923168D01*
X139000763Y-72854872D01*
X138993531Y-72813866D01*
X138989171Y-72805474D01*
X138964898Y-72797008D01*
X138909626Y-72783235D01*
X138828862Y-72765350D01*
X138728112Y-72744548D01*
X138612883Y-72722023D01*
X138550102Y-72710218D01*
X138430987Y-72687951D01*
X138324765Y-72667779D01*
X138236627Y-72650715D01*
X138171766Y-72637769D01*
X138135374Y-72629955D01*
X138129384Y-72628222D01*
X138119261Y-72608690D01*
X138097862Y-72561643D01*
X138068039Y-72493803D01*
X138032645Y-72411891D01*
X137994532Y-72322628D01*
X137956553Y-72232735D01*
X137921560Y-72148935D01*
X137892406Y-72077947D01*
X137871943Y-72026494D01*
X137863023Y-72001297D01*
X137862857Y-72000196D01*
X137872969Y-71980319D01*
X137901317Y-71934577D01*
X137944923Y-71867517D01*
X138000806Y-71783684D01*
X138065987Y-71687626D01*
X138103879Y-71632450D01*
X138172925Y-71531281D01*
X138234250Y-71439430D01*
X138284863Y-71361544D01*
X138321771Y-71302269D01*
X138341982Y-71266251D01*
X138344901Y-71258177D01*
X138332353Y-71239384D01*
X138297663Y-71199257D01*
X138245263Y-71142293D01*
X138179584Y-71072985D01*
X138105056Y-70995831D01*
X138026113Y-70915325D01*
X137947183Y-70835963D01*
X137872700Y-70762240D01*
X137807094Y-70698652D01*
X137754796Y-70649694D01*
X137720239Y-70619861D01*
X137708678Y-70612742D01*
X137689854Y-70622753D01*
X137644831Y-70650878D01*
X137577987Y-70694254D01*
X137493699Y-70750018D01*
X137396344Y-70815306D01*
X137322907Y-70865046D01*
X136951867Y-71117351D01*
X136333295Y-70862355D01*
X136249475Y-70417731D01*
X136165654Y-69973107D01*
X135240206Y-69973107D01*
X135156386Y-70417731D01*
G37*
X135156386Y-70417731D02*
X135072565Y-70862355D01*
X134763280Y-70989853D01*
X134453994Y-71117351D01*
X134082954Y-70865046D01*
X133979043Y-70794796D01*
X133885113Y-70732072D01*
X133805548Y-70679738D01*
X133744730Y-70640657D01*
X133707043Y-70617693D01*
X133696779Y-70612742D01*
X133678290Y-70625476D01*
X133638780Y-70660682D01*
X133582678Y-70713862D01*
X133514413Y-70780518D01*
X133438414Y-70856154D01*
X133359108Y-70936272D01*
X133280925Y-71016374D01*
X133208293Y-71091964D01*
X133145641Y-71158545D01*
X133097397Y-71211618D01*
X133067990Y-71246687D01*
X133060959Y-71258423D01*
X133071077Y-71280060D01*
X133099441Y-71327462D01*
X133143071Y-71395993D01*
X133198982Y-71481015D01*
X133264194Y-71577893D01*
X133301981Y-71633150D01*
X133370857Y-71734048D01*
X133432060Y-71825099D01*
X133482622Y-71901770D01*
X133519572Y-71959528D01*
X133539942Y-71993843D01*
X133543003Y-72001054D01*
X133536064Y-72021548D01*
X133517149Y-72069313D01*
X133489113Y-72137632D01*
X133454809Y-72219789D01*
X133417091Y-72309070D01*
X133378813Y-72398758D01*
X133342830Y-72482138D01*
X133311994Y-72552494D01*
X133289161Y-72603110D01*
X133277183Y-72627271D01*
X133276476Y-72628222D01*
X133257669Y-72632836D01*
X133207582Y-72643128D01*
X133131407Y-72658087D01*
X133034335Y-72676701D01*
X132921557Y-72697959D01*
X132855758Y-72710218D01*
X132735250Y-72733162D01*
X132626403Y-72754995D01*
X132534724Y-72774522D01*
X132465719Y-72790548D01*
X132424896Y-72801879D01*
X132416689Y-72805474D01*
X132408652Y-72829806D01*
X132402167Y-72884759D01*
X132397230Y-72963908D01*
X132393836Y-73060826D01*
X132391982Y-73169087D01*
X132391662Y-73282265D01*
X132392873Y-73393935D01*
X132395610Y-73497668D01*
X132399869Y-73587041D01*
X132405645Y-73655626D01*
X132412933Y-73696997D01*
X132417305Y-73705610D01*
X132443436Y-73715933D01*
X132498807Y-73730692D01*
X132576093Y-73748152D01*
X132667970Y-73766580D01*
X132700042Y-73772541D01*
X132854676Y-73800866D01*
X132976825Y-73823676D01*
X133070527Y-73841880D01*
X133139816Y-73856383D01*
X133188729Y-73868092D01*
X133221303Y-73877915D01*
X133241572Y-73886756D01*
X133253574Y-73895524D01*
X133255253Y-73897257D01*
X133272016Y-73925171D01*
X133297586Y-73979495D01*
X133329412Y-74053577D01*
X133364940Y-74140765D01*
X133401617Y-74234408D01*
X133436889Y-74327852D01*
X133468204Y-74414447D01*
X133493007Y-74487540D01*
X133508746Y-74540478D01*
X133512868Y-74566611D01*
X133512524Y-74567526D01*
X133498559Y-74588886D01*
X133466878Y-74635884D01*
X133420809Y-74703627D01*
X133363682Y-74787223D01*
X133298827Y-74881782D01*
X133280357Y-74908654D01*
X133214501Y-75006075D01*
X133156550Y-75094963D01*
X133109662Y-75170212D01*
X133076993Y-75226720D01*
X133061700Y-75259381D01*
X133060959Y-75263393D01*
X133073808Y-75284484D01*
X133109312Y-75326264D01*
X133162907Y-75384245D01*
X133230029Y-75453935D01*
X133306113Y-75530845D01*
X133386596Y-75610483D01*
X133466913Y-75688361D01*
X133542501Y-75759986D01*
X133608795Y-75820870D01*
X133661231Y-75866521D01*
X133695245Y-75892450D01*
X133704655Y-75896683D01*
X133726557Y-75886712D01*
X133771400Y-75859820D01*
X133831879Y-75820536D01*
X133878411Y-75788917D01*
X133962725Y-75730898D01*
X134062574Y-75662584D01*
X134162727Y-75594379D01*
X134216573Y-75557875D01*
X134398829Y-75434600D01*
X134551819Y-75517320D01*
X134621518Y-75553559D01*
X134680786Y-75581726D01*
X134720889Y-75597791D01*
X134731097Y-75600026D01*
X134743371Y-75583522D01*
X134767587Y-75536882D01*
X134801937Y-75464409D01*
X134844612Y-75370406D01*
X134893806Y-75259174D01*
X134947710Y-75135015D01*
X135004516Y-75002232D01*
X135062418Y-74865127D01*
X135119607Y-74728002D01*
X135174276Y-74595158D01*
X135224616Y-74470898D01*
X135268820Y-74359525D01*
X135305081Y-74265339D01*
X135331591Y-74192644D01*
X135346542Y-74145741D01*
X135348946Y-74129633D01*
X135329889Y-74109086D01*
X135288164Y-74075733D01*
X135232494Y-74036502D01*
X135227822Y-74033399D01*
X135083936Y-73918223D01*
X134967917Y-73783853D01*
X134880770Y-73634584D01*
X134823501Y-73474713D01*
X134797114Y-73308537D01*
X134802615Y-73140352D01*
X134841010Y-72974455D01*
X134913305Y-72815142D01*
X134934574Y-72780287D01*
X135045204Y-72639537D01*
X135175898Y-72526514D01*
X135322136Y-72441803D01*
X135479392Y-72385994D01*
X135643143Y-72359674D01*
X135808867Y-72363430D01*
X135972038Y-72397850D01*
X136128135Y-72463523D01*
X136272633Y-72561035D01*
X136317331Y-72600613D01*
X136431088Y-72724503D01*
X136513982Y-72854924D01*
X136570844Y-73001115D01*
X136602513Y-73145888D01*
X136610331Y-73308660D01*
X136584262Y-73472240D01*
X136526955Y-73631098D01*
X136441056Y-73779706D01*
X136329214Y-73912535D01*
X136194077Y-74024056D01*
X136176317Y-74035811D01*
X136120050Y-74074308D01*
X136077277Y-74107663D01*
X136056828Y-74128960D01*
X136056531Y-74129633D01*
X136060921Y-74152671D01*
X136078324Y-74204957D01*
X136106932Y-74282190D01*
X136144935Y-74380068D01*
X136190526Y-74494291D01*
X136241897Y-74620558D01*
X136297238Y-74754567D01*
X136354742Y-74892018D01*
X136412599Y-75028608D01*
X136469002Y-75160037D01*
X136522142Y-75282005D01*
X136570210Y-75390209D01*
X136611399Y-75480349D01*
X136643899Y-75548123D01*
X136665903Y-75589230D01*
X136674764Y-75600026D01*
X136701840Y-75591619D01*
X136752503Y-75569072D01*
X136818017Y-75536413D01*
X136854041Y-75517320D01*
X137007032Y-75434600D01*
X137189288Y-75557875D01*
X137282325Y-75621028D01*
X137384185Y-75690527D01*
X137479638Y-75755965D01*
X137527450Y-75788917D01*
X137594695Y-75834073D01*
X137651636Y-75869857D01*
X137690846Y-75891738D01*
X137703581Y-75896363D01*
X137722117Y-75883885D01*
X137763141Y-75849052D01*
X137822675Y-75795478D01*
X137896742Y-75726783D01*
X137981365Y-75646581D01*
X138034885Y-75595086D01*
X138128519Y-75503086D01*
X138209441Y-75420799D01*
X138274377Y-75351745D01*
X138320058Y-75299444D01*
X138343211Y-75267416D01*
X138345432Y-75260916D01*
X138335124Y-75236194D01*
X138306639Y-75186205D01*
X138263137Y-75116012D01*
X138207777Y-75030675D01*
X138143720Y-74935256D01*
X138125503Y-74908654D01*
X138059127Y-74811967D01*
X137999578Y-74724917D01*
X137950184Y-74652395D01*
X137914275Y-74599293D01*
X137895181Y-74570503D01*
X137893336Y-74567526D01*
X137896095Y-74544582D01*
X137910738Y-74494136D01*
X137934713Y-74422841D01*
X137965466Y-74337347D01*
X138000444Y-74244307D01*
X138037093Y-74150374D01*
X138072861Y-74062199D01*
X138105194Y-73986434D01*
X138131538Y-73929731D01*
X138149342Y-73898743D01*
X138150607Y-73897257D01*
X138161494Y-73888401D01*
X138179882Y-73879643D01*
X138209806Y-73870077D01*
X138255303Y-73858796D01*
X138320409Y-73844893D01*
X138409161Y-73827463D01*
X138525593Y-73805598D01*
X138673742Y-73778391D01*
X138705818Y-73772541D01*
X138800886Y-73754174D01*
X138883765Y-73736205D01*
X138947130Y-73720369D01*
X138983658Y-73708400D01*
X138988556Y-73705610D01*
X138996627Y-73680872D01*
X139003187Y-73625590D01*
X139008233Y-73546189D01*
X139011759Y-73449096D01*
X139013761Y-73340738D01*
X139014236Y-73227540D01*
X139013177Y-73115928D01*
X139010582Y-73012329D01*
X139006446Y-72923168D01*
X139000763Y-72854872D01*
X138993531Y-72813866D01*
X138989171Y-72805474D01*
X138964898Y-72797008D01*
X138909626Y-72783235D01*
X138828862Y-72765350D01*
X138728112Y-72744548D01*
X138612883Y-72722023D01*
X138550102Y-72710218D01*
X138430987Y-72687951D01*
X138324765Y-72667779D01*
X138236627Y-72650715D01*
X138171766Y-72637769D01*
X138135374Y-72629955D01*
X138129384Y-72628222D01*
X138119261Y-72608690D01*
X138097862Y-72561643D01*
X138068039Y-72493803D01*
X138032645Y-72411891D01*
X137994532Y-72322628D01*
X137956553Y-72232735D01*
X137921560Y-72148935D01*
X137892406Y-72077947D01*
X137871943Y-72026494D01*
X137863023Y-72001297D01*
X137862857Y-72000196D01*
X137872969Y-71980319D01*
X137901317Y-71934577D01*
X137944923Y-71867517D01*
X138000806Y-71783684D01*
X138065987Y-71687626D01*
X138103879Y-71632450D01*
X138172925Y-71531281D01*
X138234250Y-71439430D01*
X138284863Y-71361544D01*
X138321771Y-71302269D01*
X138341982Y-71266251D01*
X138344901Y-71258177D01*
X138332353Y-71239384D01*
X138297663Y-71199257D01*
X138245263Y-71142293D01*
X138179584Y-71072985D01*
X138105056Y-70995831D01*
X138026113Y-70915325D01*
X137947183Y-70835963D01*
X137872700Y-70762240D01*
X137807094Y-70698652D01*
X137754796Y-70649694D01*
X137720239Y-70619861D01*
X137708678Y-70612742D01*
X137689854Y-70622753D01*
X137644831Y-70650878D01*
X137577987Y-70694254D01*
X137493699Y-70750018D01*
X137396344Y-70815306D01*
X137322907Y-70865046D01*
X136951867Y-71117351D01*
X136333295Y-70862355D01*
X136249475Y-70417731D01*
X136165654Y-69973107D01*
X135240206Y-69973107D01*
X135156386Y-70417731D01*
%TD*%
M02*
