M48
; DRILL file {KiCad 5.1.6-c6e7f7d~87~ubuntu18.04.1} date Mon Oct  5 22:19:10 2020
; FORMAT={-:-/ absolute / inch / decimal}
; #@! TF.CreationDate,2020-10-05T22:19:10-07:00
; #@! TF.GenerationSoftware,Kicad,Pcbnew,5.1.6-c6e7f7d~87~ubuntu18.04.1
FMAT,2
INCH
T1C0.0130
T2C0.0394
T3C0.0512
T4C0.0984
T5C0.1063
%
G90
G05
T1
X5.15Y-2.95
X5.1525Y-2.85
X5.22Y-3.52
X5.22Y-3.58
X5.22Y-3.74
X5.22Y-3.8
X5.22Y-3.86
X5.22Y-3.92
X5.22Y-3.98
X5.22Y-4.04
X5.22Y-4.1
X5.22Y-4.28
X5.27Y-3.18
X5.28Y-3.52
X5.28Y-3.58
X5.28Y-3.74
X5.28Y-4.04
X5.28Y-4.1
X5.28Y-4.28
X5.3Y-2.362
X5.34Y-3.02
X5.34Y-3.05
X5.34Y-3.52
X5.34Y-3.58
X5.34Y-3.74
X5.34Y-4.04
X5.34Y-4.1
X5.34Y-4.28
X5.35Y-3.97
X5.3513Y-2.362
X5.38Y-3.2
X5.39Y-3.45
X5.4Y-3.52
X5.4Y-3.58
X5.4Y-3.74
X5.4025Y-2.362
X5.439Y-3.509
X5.4538Y-2.362
X5.46Y-3.58
X5.46Y-3.74
X5.4759Y-4.28
X5.48Y-3.12
X5.48Y-3.08
X5.505Y-2.362
X5.5149Y-3.1617
X5.52Y-3.58
X5.52Y-3.74
X5.54Y-4.28
X5.55Y-3.13
X5.5562Y-2.362
X5.58Y-3.58
X5.58Y-3.74
X5.6Y-3.0
X5.6Y-3.06
X5.6Y-3.13
X5.6075Y-2.362
X5.64Y-3.58
X5.64Y-3.64
X5.64Y-3.7
X5.65Y-3.0
X5.65Y-3.06
X5.65Y-3.13
X5.6587Y-2.362
X5.66Y-4.04
X5.66Y-4.1
X5.66Y-4.28
X5.71Y-2.362
X5.72Y-3.0
X5.72Y-3.06
X5.72Y-3.76
X5.72Y-4.04
X5.72Y-4.1
X5.72Y-4.28
X5.73Y-3.13
X5.75Y-3.39
X5.78Y-2.94
X5.78Y-3.0
X5.78Y-3.06
X5.78Y-3.13
X5.78Y-3.7
X5.78Y-3.76
X5.78Y-3.92
X5.78Y-4.04
X5.78Y-4.1
X5.78Y-4.28
X5.9Y-2.58
X5.9Y-2.66
X5.9Y-2.74
X5.9Y-2.82
X5.9Y-2.9
T2
X5.35Y-3.895
X5.45Y-3.895
X5.55Y-3.895
X5.65Y-3.895
X5.101Y-2.598
X5.101Y-2.698
X5.101Y-2.798
X5.101Y-2.898
X5.101Y-2.998
X5.101Y-3.098
X5.101Y-3.198
X5.101Y-3.298
X5.101Y-3.398
X5.101Y-3.498
X5.101Y-3.598
X5.101Y-3.698
X5.101Y-3.798
X5.101Y-3.898
X5.101Y-3.998
X5.101Y-4.098
X5.9Y-3.0
X5.9Y-3.1
X5.9Y-3.2
X5.9Y-3.3
X5.9Y-3.4
X5.9Y-3.5
X5.9Y-3.6
X5.9Y-3.7
X5.9Y-3.8
X5.9Y-3.9
X5.9Y-4.0
X5.9Y-4.1
T3
X5.4006Y-2.545
X5.5975Y-2.545
T4
X5.15Y-2.429
X5.851Y-2.428
T5
X5.851Y-4.213
X5.15Y-4.213
T0
M30
