%TF.GenerationSoftware,KiCad,Pcbnew,5.1.6-c6e7f7d~87~ubuntu18.04.1*%
%TF.CreationDate,2020-09-06T00:00:26-07:00*%
%TF.ProjectId,feather-power-supply-sw-smd,66656174-6865-4722-9d70-6f7765722d73,rev?*%
%TF.SameCoordinates,Original*%
%TF.FileFunction,Soldermask,Bot*%
%TF.FilePolarity,Negative*%
%FSLAX46Y46*%
G04 Gerber Fmt 4.6, Leading zero omitted, Abs format (unit mm)*
G04 Created by KiCad (PCBNEW 5.1.6-c6e7f7d~87~ubuntu18.04.1) date 2020-09-06 00:00:26*
%MOMM*%
%LPD*%
G01*
G04 APERTURE LIST*
%ADD10C,0.150000*%
%ADD11C,2.801600*%
%ADD12C,5.101600*%
%ADD13R,2.701600X2.701600*%
%ADD14C,2.701600*%
%ADD15O,1.801600X1.801600*%
%ADD16R,1.801600X1.801600*%
G04 APERTURE END LIST*
D10*
X131475080Y-110361980D02*
X131564366Y-111076266D01*
X131629842Y-111219123D01*
X131736985Y-111314361D01*
X131885794Y-111361980D01*
X131981032Y-111361980D01*
X130725080Y-110838171D02*
X131058413Y-110838171D01*
X131123889Y-111361980D02*
X130998889Y-110361980D01*
X130522699Y-110361980D01*
X130308413Y-111314361D02*
X130171508Y-111361980D01*
X129933413Y-111361980D01*
X129832223Y-111314361D01*
X129778651Y-111266742D01*
X129719127Y-111171504D01*
X129707223Y-111076266D01*
X129742937Y-110981028D01*
X129784604Y-110933409D01*
X129873889Y-110885790D01*
X130058413Y-110838171D01*
X130147699Y-110790552D01*
X130189366Y-110742933D01*
X130225080Y-110647695D01*
X130213175Y-110552457D01*
X130153651Y-110457219D01*
X130100080Y-110409600D01*
X129998889Y-110361980D01*
X129760794Y-110361980D01*
X129623889Y-110409600D01*
X128885794Y-111361980D02*
X128820318Y-110838171D01*
X128856032Y-110742933D01*
X128945318Y-110695314D01*
X129135794Y-110695314D01*
X129236985Y-110742933D01*
X128879842Y-111314361D02*
X128981032Y-111361980D01*
X129219127Y-111361980D01*
X129308413Y-111314361D01*
X129344127Y-111219123D01*
X129332223Y-111123885D01*
X129272699Y-111028647D01*
X129171508Y-110981028D01*
X128933413Y-110981028D01*
X128832223Y-110933409D01*
X128409604Y-111361980D02*
X128326270Y-110695314D01*
X128350080Y-110885790D02*
X128290556Y-110790552D01*
X128236985Y-110742933D01*
X128135794Y-110695314D01*
X128040556Y-110695314D01*
X127361985Y-111361980D02*
X127296508Y-110838171D01*
X127332223Y-110742933D01*
X127421508Y-110695314D01*
X127611985Y-110695314D01*
X127713175Y-110742933D01*
X127356032Y-111314361D02*
X127457223Y-111361980D01*
X127695318Y-111361980D01*
X127784604Y-111314361D01*
X127820318Y-111219123D01*
X127808413Y-111123885D01*
X127748889Y-111028647D01*
X127647699Y-110981028D01*
X127409604Y-110981028D01*
X127308413Y-110933409D01*
X126451270Y-111314361D02*
X126552461Y-111361980D01*
X126742937Y-111361980D01*
X126832223Y-111314361D01*
X126873889Y-111266742D01*
X126909604Y-111171504D01*
X126873889Y-110885790D01*
X126814366Y-110790552D01*
X126760794Y-110742933D01*
X126659604Y-110695314D01*
X126469127Y-110695314D01*
X126379842Y-110742933D01*
X125641747Y-111314361D02*
X125742937Y-111361980D01*
X125933413Y-111361980D01*
X126022699Y-111314361D01*
X126058413Y-111219123D01*
X126010794Y-110838171D01*
X125951270Y-110742933D01*
X125850080Y-110695314D01*
X125659604Y-110695314D01*
X125570318Y-110742933D01*
X125534604Y-110838171D01*
X125546508Y-110933409D01*
X126034604Y-111028647D01*
X125088175Y-110695314D02*
X125171508Y-111361980D01*
X125100080Y-110790552D02*
X125046508Y-110742933D01*
X124945318Y-110695314D01*
X124802461Y-110695314D01*
X124713175Y-110742933D01*
X124677461Y-110838171D01*
X124742937Y-111361980D01*
X124123889Y-111361980D02*
X124213175Y-111314361D01*
X124254842Y-111266742D01*
X124290556Y-111171504D01*
X124254842Y-110885790D01*
X124195318Y-110790552D01*
X124141747Y-110742933D01*
X124040556Y-110695314D01*
X123897699Y-110695314D01*
X123808413Y-110742933D01*
X123766747Y-110790552D01*
X123731032Y-110885790D01*
X123766747Y-111171504D01*
X123826270Y-111266742D01*
X123879842Y-111314361D01*
X123981032Y-111361980D01*
X124123889Y-111361980D01*
X130689366Y-112011980D02*
X130594127Y-112011980D01*
X130504842Y-112059600D01*
X130463175Y-112107219D01*
X130427461Y-112202457D01*
X130403651Y-112392933D01*
X130433413Y-112631028D01*
X130504842Y-112821504D01*
X130564366Y-112916742D01*
X130617937Y-112964361D01*
X130719127Y-113011980D01*
X130814366Y-113011980D01*
X130903651Y-112964361D01*
X130945318Y-112916742D01*
X130981032Y-112821504D01*
X131004842Y-112631028D01*
X130975080Y-112392933D01*
X130903651Y-112202457D01*
X130844127Y-112107219D01*
X130790556Y-112059600D01*
X130689366Y-112011980D01*
X130004842Y-113011980D02*
X129814366Y-113011980D01*
X129713175Y-112964361D01*
X129659604Y-112916742D01*
X129546508Y-112773885D01*
X129475080Y-112583409D01*
X129427461Y-112202457D01*
X129463175Y-112107219D01*
X129504842Y-112059600D01*
X129594127Y-112011980D01*
X129784604Y-112011980D01*
X129885794Y-112059600D01*
X129939366Y-112107219D01*
X129998889Y-112202457D01*
X130028651Y-112440552D01*
X129992937Y-112535790D01*
X129951270Y-112583409D01*
X129861985Y-112631028D01*
X129671508Y-112631028D01*
X129570318Y-112583409D01*
X129516747Y-112535790D01*
X129457223Y-112440552D01*
X128254842Y-111964361D02*
X129272699Y-113250076D01*
X127986985Y-112107219D02*
X127933413Y-112059600D01*
X127832223Y-112011980D01*
X127594127Y-112011980D01*
X127504842Y-112059600D01*
X127463175Y-112107219D01*
X127427461Y-112202457D01*
X127439366Y-112297695D01*
X127504842Y-112440552D01*
X128147699Y-113011980D01*
X127528651Y-113011980D01*
X126784604Y-112011980D02*
X126689366Y-112011980D01*
X126600080Y-112059600D01*
X126558413Y-112107219D01*
X126522699Y-112202457D01*
X126498889Y-112392933D01*
X126528651Y-112631028D01*
X126600080Y-112821504D01*
X126659604Y-112916742D01*
X126713175Y-112964361D01*
X126814366Y-113011980D01*
X126909604Y-113011980D01*
X126998889Y-112964361D01*
X127040556Y-112916742D01*
X127076270Y-112821504D01*
X127100080Y-112631028D01*
X127070318Y-112392933D01*
X126998889Y-112202457D01*
X126939366Y-112107219D01*
X126885794Y-112059600D01*
X126784604Y-112011980D01*
X126082223Y-112107219D02*
X126028651Y-112059600D01*
X125927461Y-112011980D01*
X125689366Y-112011980D01*
X125600080Y-112059600D01*
X125558413Y-112107219D01*
X125522699Y-112202457D01*
X125534604Y-112297695D01*
X125600080Y-112440552D01*
X126242937Y-113011980D01*
X125623889Y-113011980D01*
X124879842Y-112011980D02*
X124784604Y-112011980D01*
X124695318Y-112059600D01*
X124653651Y-112107219D01*
X124617937Y-112202457D01*
X124594127Y-112392933D01*
X124623889Y-112631028D01*
X124695318Y-112821504D01*
X124754842Y-112916742D01*
X124808413Y-112964361D01*
X124909604Y-113011980D01*
X125004842Y-113011980D01*
X125094127Y-112964361D01*
X125135794Y-112916742D01*
X125171508Y-112821504D01*
X125195318Y-112631028D01*
X125165556Y-112392933D01*
X125094127Y-112202457D01*
X125034604Y-112107219D01*
X124981032Y-112059600D01*
X124879842Y-112011980D01*
D11*
%TO.C,H3*%
X136906000Y-111760000D03*
%TD*%
D12*
%TO.C,H2*%
X136906000Y-66421000D03*
%TD*%
%TO.C,H1*%
X119100600Y-66446400D03*
%TD*%
D11*
%TO.C,H4*%
X119100600Y-111760000D03*
%TD*%
D13*
%TO.C,J1*%
X130467100Y-70116700D03*
D14*
X125467100Y-70116700D03*
%TD*%
D15*
%TO.C,J3*%
X117856000Y-108839000D03*
X117856000Y-106299000D03*
X117856000Y-103759000D03*
X117856000Y-101219000D03*
X117856000Y-98679000D03*
X117856000Y-96139000D03*
X117856000Y-93599000D03*
X117856000Y-91059000D03*
X117856000Y-88519000D03*
X117856000Y-85979000D03*
X117856000Y-83439000D03*
X117856000Y-80899000D03*
X117856000Y-78359000D03*
X117856000Y-75819000D03*
X117856000Y-73279000D03*
D16*
X117856000Y-70739000D03*
%TD*%
%TO.C,J2*%
X138176000Y-70739000D03*
D15*
X138176000Y-73279000D03*
X138176000Y-75819000D03*
X138176000Y-78359000D03*
X138176000Y-80899000D03*
X138176000Y-83439000D03*
X138176000Y-85979000D03*
X138176000Y-88519000D03*
X138176000Y-91059000D03*
X138176000Y-93599000D03*
X138176000Y-96139000D03*
X138176000Y-98679000D03*
%TD*%
M02*
