%TF.GenerationSoftware,KiCad,Pcbnew,5.1.6-c6e7f7d~87~ubuntu18.04.1*%
%TF.CreationDate,2020-09-01T21:17:15-07:00*%
%TF.ProjectId,feather-power-supply-sw-smd,66656174-6865-4722-9d70-6f7765722d73,rev?*%
%TF.SameCoordinates,Original*%
%TF.FileFunction,Copper,L2,Bot*%
%TF.FilePolarity,Positive*%
%FSLAX46Y46*%
G04 Gerber Fmt 4.6, Leading zero omitted, Abs format (unit mm)*
G04 Created by KiCad (PCBNEW 5.1.6-c6e7f7d~87~ubuntu18.04.1) date 2020-09-01 21:17:15*
%MOMM*%
%LPD*%
G01*
G04 APERTURE LIST*
%TA.AperFunction,ComponentPad*%
%ADD10C,5.000000*%
%TD*%
%TA.AperFunction,ComponentPad*%
%ADD11R,2.600000X2.600000*%
%TD*%
%TA.AperFunction,ComponentPad*%
%ADD12C,2.600000*%
%TD*%
%TA.AperFunction,ComponentPad*%
%ADD13O,1.700000X1.700000*%
%TD*%
%TA.AperFunction,ComponentPad*%
%ADD14R,1.700000X1.700000*%
%TD*%
%TA.AperFunction,ViaPad*%
%ADD15C,0.685800*%
%TD*%
%TA.AperFunction,Conductor*%
%ADD16C,0.254000*%
%TD*%
G04 APERTURE END LIST*
D10*
%TO.P,H2,1*%
%TO.N,GND*%
X136906000Y-66421000D03*
%TD*%
%TO.P,H1,1*%
%TO.N,GND*%
X119100600Y-66446400D03*
%TD*%
D11*
%TO.P,J1,1*%
%TO.N,/BATT+*%
X130467100Y-70116700D03*
D12*
%TO.P,J1,2*%
%TO.N,GND*%
X125467100Y-70116700D03*
%TD*%
D13*
%TO.P,J3,16*%
%TO.N,Net-(J3-Pad16)*%
X117856000Y-108839000D03*
%TO.P,J3,15*%
%TO.N,Net-(J3-Pad15)*%
X117856000Y-106299000D03*
%TO.P,J3,14*%
%TO.N,Net-(J3-Pad14)*%
X117856000Y-103759000D03*
%TO.P,J3,13*%
%TO.N,Net-(J3-Pad13)*%
X117856000Y-101219000D03*
%TO.P,J3,12*%
%TO.N,Net-(J3-Pad12)*%
X117856000Y-98679000D03*
%TO.P,J3,11*%
%TO.N,Net-(J3-Pad11)*%
X117856000Y-96139000D03*
%TO.P,J3,10*%
%TO.N,Net-(J3-Pad10)*%
X117856000Y-93599000D03*
%TO.P,J3,9*%
%TO.N,Net-(J3-Pad9)*%
X117856000Y-91059000D03*
%TO.P,J3,8*%
%TO.N,Net-(J3-Pad8)*%
X117856000Y-88519000D03*
%TO.P,J3,7*%
%TO.N,Net-(J3-Pad7)*%
X117856000Y-85979000D03*
%TO.P,J3,6*%
%TO.N,A1*%
X117856000Y-83439000D03*
%TO.P,J3,5*%
%TO.N,Net-(J3-Pad5)*%
X117856000Y-80899000D03*
%TO.P,J3,4*%
%TO.N,GND*%
X117856000Y-78359000D03*
%TO.P,J3,3*%
%TO.N,Net-(J3-Pad3)*%
X117856000Y-75819000D03*
%TO.P,J3,2*%
%TO.N,Net-(J3-Pad2)*%
X117856000Y-73279000D03*
D14*
%TO.P,J3,1*%
%TO.N,Net-(J3-Pad1)*%
X117856000Y-70739000D03*
%TD*%
%TO.P,J2,1*%
%TO.N,Net-(J2-Pad1)*%
X138176000Y-70739000D03*
D13*
%TO.P,J2,2*%
%TO.N,Net-(J2-Pad2)*%
X138176000Y-73279000D03*
%TO.P,J2,3*%
%TO.N,Net-(J2-Pad3)*%
X138176000Y-75819000D03*
%TO.P,J2,4*%
%TO.N,VUSB*%
X138176000Y-78359000D03*
%TO.P,J2,5*%
%TO.N,Net-(J2-Pad5)*%
X138176000Y-80899000D03*
%TO.P,J2,6*%
%TO.N,Net-(J2-Pad6)*%
X138176000Y-83439000D03*
%TO.P,J2,7*%
%TO.N,Net-(J2-Pad7)*%
X138176000Y-85979000D03*
%TO.P,J2,8*%
%TO.N,Net-(J2-Pad8)*%
X138176000Y-88519000D03*
%TO.P,J2,9*%
%TO.N,Net-(J2-Pad9)*%
X138176000Y-91059000D03*
%TO.P,J2,10*%
%TO.N,Net-(J2-Pad10)*%
X138176000Y-93599000D03*
%TO.P,J2,11*%
%TO.N,Net-(J2-Pad11)*%
X138176000Y-96139000D03*
%TO.P,J2,12*%
%TO.N,Net-(J2-Pad12)*%
X138176000Y-98679000D03*
%TD*%
D15*
%TO.N,GND*%
X121881900Y-73914000D03*
X129501900Y-87096600D03*
X129501900Y-87960200D03*
X129501900Y-88798400D03*
X134277100Y-93383100D03*
X135166100Y-93383100D03*
X128625600Y-93662500D03*
X133032500Y-91897200D03*
X122961400Y-64744600D03*
X124231400Y-64744600D03*
X126771400Y-64744600D03*
X125501400Y-64744600D03*
X130835400Y-64744600D03*
X132105400Y-64744600D03*
X129565400Y-64744600D03*
X133375400Y-64744600D03*
X128270000Y-64744600D03*
X120091200Y-89611200D03*
X120827800Y-89611200D03*
X121640600Y-89585800D03*
X123520200Y-90957400D03*
X124358400Y-90957400D03*
X123571000Y-81889600D03*
X130429000Y-81026000D03*
X130429000Y-81915000D03*
X130302000Y-77597000D03*
X130302000Y-78486000D03*
%TD*%
D16*
%TO.N,GND*%
G36*
X134284882Y-64673627D02*
G01*
X133994351Y-65218557D01*
X133815713Y-65809696D01*
X133755832Y-66424328D01*
X133817010Y-67038831D01*
X133996897Y-67629592D01*
X134284882Y-68168373D01*
X134702852Y-68444543D01*
X136726395Y-66421000D01*
X136712253Y-66406858D01*
X136891858Y-66227253D01*
X136906000Y-66241395D01*
X136920143Y-66227253D01*
X137099748Y-66406858D01*
X137085605Y-66421000D01*
X137099748Y-66435143D01*
X136920143Y-66614748D01*
X136906000Y-66600605D01*
X134882457Y-68624148D01*
X135158627Y-69042118D01*
X135703557Y-69332649D01*
X136294696Y-69511287D01*
X136782473Y-69558809D01*
X136736498Y-69644820D01*
X136700188Y-69764518D01*
X136687928Y-69889000D01*
X136687928Y-71589000D01*
X136700188Y-71713482D01*
X136736498Y-71833180D01*
X136795463Y-71943494D01*
X136874815Y-72040185D01*
X136971506Y-72119537D01*
X137081820Y-72178502D01*
X137154380Y-72200513D01*
X137022525Y-72332368D01*
X136860010Y-72575589D01*
X136748068Y-72845842D01*
X136691000Y-73132740D01*
X136691000Y-73425260D01*
X136748068Y-73712158D01*
X136860010Y-73982411D01*
X137022525Y-74225632D01*
X137229368Y-74432475D01*
X137403760Y-74549000D01*
X137229368Y-74665525D01*
X137022525Y-74872368D01*
X136860010Y-75115589D01*
X136748068Y-75385842D01*
X136691000Y-75672740D01*
X136691000Y-75965260D01*
X136748068Y-76252158D01*
X136860010Y-76522411D01*
X137022525Y-76765632D01*
X137229368Y-76972475D01*
X137403760Y-77089000D01*
X137229368Y-77205525D01*
X137022525Y-77412368D01*
X136860010Y-77655589D01*
X136748068Y-77925842D01*
X136691000Y-78212740D01*
X136691000Y-78505260D01*
X136748068Y-78792158D01*
X136860010Y-79062411D01*
X137022525Y-79305632D01*
X137229368Y-79512475D01*
X137403760Y-79629000D01*
X137229368Y-79745525D01*
X137022525Y-79952368D01*
X136860010Y-80195589D01*
X136748068Y-80465842D01*
X136691000Y-80752740D01*
X136691000Y-81045260D01*
X136748068Y-81332158D01*
X136860010Y-81602411D01*
X137022525Y-81845632D01*
X137229368Y-82052475D01*
X137403760Y-82169000D01*
X137229368Y-82285525D01*
X137022525Y-82492368D01*
X136860010Y-82735589D01*
X136748068Y-83005842D01*
X136691000Y-83292740D01*
X136691000Y-83585260D01*
X136748068Y-83872158D01*
X136860010Y-84142411D01*
X137022525Y-84385632D01*
X137229368Y-84592475D01*
X137403760Y-84709000D01*
X137229368Y-84825525D01*
X137022525Y-85032368D01*
X136860010Y-85275589D01*
X136748068Y-85545842D01*
X136691000Y-85832740D01*
X136691000Y-86125260D01*
X136748068Y-86412158D01*
X136860010Y-86682411D01*
X137022525Y-86925632D01*
X137229368Y-87132475D01*
X137403760Y-87249000D01*
X137229368Y-87365525D01*
X137022525Y-87572368D01*
X136860010Y-87815589D01*
X136748068Y-88085842D01*
X136691000Y-88372740D01*
X136691000Y-88665260D01*
X136748068Y-88952158D01*
X136860010Y-89222411D01*
X137022525Y-89465632D01*
X137229368Y-89672475D01*
X137403760Y-89789000D01*
X137229368Y-89905525D01*
X137022525Y-90112368D01*
X136860010Y-90355589D01*
X136748068Y-90625842D01*
X136691000Y-90912740D01*
X136691000Y-91205260D01*
X136748068Y-91492158D01*
X136860010Y-91762411D01*
X137022525Y-92005632D01*
X137229368Y-92212475D01*
X137403760Y-92329000D01*
X137229368Y-92445525D01*
X137022525Y-92652368D01*
X136860010Y-92895589D01*
X136748068Y-93165842D01*
X136691000Y-93452740D01*
X136691000Y-93745260D01*
X136748068Y-94032158D01*
X136860010Y-94302411D01*
X137022525Y-94545632D01*
X137229368Y-94752475D01*
X137403760Y-94869000D01*
X137229368Y-94985525D01*
X137022525Y-95192368D01*
X136860010Y-95435589D01*
X136748068Y-95705842D01*
X136691000Y-95992740D01*
X136691000Y-96285260D01*
X136748068Y-96572158D01*
X136860010Y-96842411D01*
X137022525Y-97085632D01*
X137229368Y-97292475D01*
X137403760Y-97409000D01*
X137229368Y-97525525D01*
X137022525Y-97732368D01*
X136860010Y-97975589D01*
X136748068Y-98245842D01*
X136691000Y-98532740D01*
X136691000Y-98825260D01*
X136748068Y-99112158D01*
X136860010Y-99382411D01*
X137022525Y-99625632D01*
X137229368Y-99832475D01*
X137472589Y-99994990D01*
X137742842Y-100106932D01*
X138029740Y-100164000D01*
X138322260Y-100164000D01*
X138609158Y-100106932D01*
X138786001Y-100033682D01*
X138786001Y-111111668D01*
X138665085Y-110819750D01*
X138447851Y-110494636D01*
X138171364Y-110218149D01*
X137846250Y-110000915D01*
X137485003Y-109851282D01*
X137101505Y-109775000D01*
X136710495Y-109775000D01*
X136326997Y-109851282D01*
X135965750Y-110000915D01*
X135640636Y-110218149D01*
X135364149Y-110494636D01*
X135146915Y-110819750D01*
X134997282Y-111180997D01*
X134921000Y-111564495D01*
X134921000Y-111955505D01*
X134997282Y-112339003D01*
X135146915Y-112700250D01*
X135364149Y-113025364D01*
X135640636Y-113301851D01*
X135965750Y-113519085D01*
X136326997Y-113668718D01*
X136710495Y-113745000D01*
X137101505Y-113745000D01*
X137485003Y-113668718D01*
X137836982Y-113522924D01*
X137731581Y-113610119D01*
X137322162Y-113831491D01*
X136877535Y-113969126D01*
X136383990Y-114021000D01*
X119412278Y-114021000D01*
X118966118Y-113977254D01*
X118568001Y-113857055D01*
X118200815Y-113661819D01*
X117878539Y-113398977D01*
X117620763Y-113087378D01*
X117835236Y-113301851D01*
X118160350Y-113519085D01*
X118521597Y-113668718D01*
X118905095Y-113745000D01*
X119296105Y-113745000D01*
X119679603Y-113668718D01*
X120040850Y-113519085D01*
X120365964Y-113301851D01*
X120642451Y-113025364D01*
X120859685Y-112700250D01*
X121009318Y-112339003D01*
X121085600Y-111955505D01*
X121085600Y-111564495D01*
X121009318Y-111180997D01*
X120859685Y-110819750D01*
X120642451Y-110494636D01*
X120365964Y-110218149D01*
X120040850Y-110000915D01*
X119679603Y-109851282D01*
X119296105Y-109775000D01*
X119016579Y-109775000D01*
X119171990Y-109542411D01*
X119283932Y-109272158D01*
X119341000Y-108985260D01*
X119341000Y-108692740D01*
X119283932Y-108405842D01*
X119171990Y-108135589D01*
X119009475Y-107892368D01*
X118802632Y-107685525D01*
X118628240Y-107569000D01*
X118802632Y-107452475D01*
X119009475Y-107245632D01*
X119171990Y-107002411D01*
X119283932Y-106732158D01*
X119341000Y-106445260D01*
X119341000Y-106152740D01*
X119283932Y-105865842D01*
X119171990Y-105595589D01*
X119009475Y-105352368D01*
X118802632Y-105145525D01*
X118628240Y-105029000D01*
X118802632Y-104912475D01*
X119009475Y-104705632D01*
X119171990Y-104462411D01*
X119283932Y-104192158D01*
X119341000Y-103905260D01*
X119341000Y-103612740D01*
X119283932Y-103325842D01*
X119171990Y-103055589D01*
X119009475Y-102812368D01*
X118802632Y-102605525D01*
X118628240Y-102489000D01*
X118802632Y-102372475D01*
X119009475Y-102165632D01*
X119171990Y-101922411D01*
X119283932Y-101652158D01*
X119341000Y-101365260D01*
X119341000Y-101072740D01*
X119283932Y-100785842D01*
X119171990Y-100515589D01*
X119009475Y-100272368D01*
X118802632Y-100065525D01*
X118628240Y-99949000D01*
X118802632Y-99832475D01*
X119009475Y-99625632D01*
X119171990Y-99382411D01*
X119283932Y-99112158D01*
X119341000Y-98825260D01*
X119341000Y-98532740D01*
X119283932Y-98245842D01*
X119171990Y-97975589D01*
X119009475Y-97732368D01*
X118802632Y-97525525D01*
X118628240Y-97409000D01*
X118802632Y-97292475D01*
X119009475Y-97085632D01*
X119171990Y-96842411D01*
X119283932Y-96572158D01*
X119341000Y-96285260D01*
X119341000Y-95992740D01*
X119283932Y-95705842D01*
X119171990Y-95435589D01*
X119009475Y-95192368D01*
X118802632Y-94985525D01*
X118628240Y-94869000D01*
X118802632Y-94752475D01*
X119009475Y-94545632D01*
X119171990Y-94302411D01*
X119283932Y-94032158D01*
X119341000Y-93745260D01*
X119341000Y-93452740D01*
X119283932Y-93165842D01*
X119171990Y-92895589D01*
X119009475Y-92652368D01*
X118802632Y-92445525D01*
X118628240Y-92329000D01*
X118802632Y-92212475D01*
X119009475Y-92005632D01*
X119171990Y-91762411D01*
X119283932Y-91492158D01*
X119341000Y-91205260D01*
X119341000Y-90912740D01*
X119283932Y-90625842D01*
X119171990Y-90355589D01*
X119009475Y-90112368D01*
X118802632Y-89905525D01*
X118628240Y-89789000D01*
X118802632Y-89672475D01*
X119009475Y-89465632D01*
X119171990Y-89222411D01*
X119283932Y-88952158D01*
X119341000Y-88665260D01*
X119341000Y-88372740D01*
X119283932Y-88085842D01*
X119171990Y-87815589D01*
X119009475Y-87572368D01*
X118802632Y-87365525D01*
X118628240Y-87249000D01*
X118802632Y-87132475D01*
X119009475Y-86925632D01*
X119171990Y-86682411D01*
X119283932Y-86412158D01*
X119341000Y-86125260D01*
X119341000Y-85832740D01*
X119283932Y-85545842D01*
X119171990Y-85275589D01*
X119009475Y-85032368D01*
X118802632Y-84825525D01*
X118628240Y-84709000D01*
X118802632Y-84592475D01*
X119009475Y-84385632D01*
X119171990Y-84142411D01*
X119283932Y-83872158D01*
X119341000Y-83585260D01*
X119341000Y-83292740D01*
X119283932Y-83005842D01*
X119171990Y-82735589D01*
X119009475Y-82492368D01*
X118802632Y-82285525D01*
X118628240Y-82169000D01*
X118802632Y-82052475D01*
X119009475Y-81845632D01*
X119171990Y-81602411D01*
X119283932Y-81332158D01*
X119341000Y-81045260D01*
X119341000Y-80752740D01*
X119283932Y-80465842D01*
X119171990Y-80195589D01*
X119009475Y-79952368D01*
X118802632Y-79745525D01*
X118620466Y-79623805D01*
X118737355Y-79554178D01*
X118953588Y-79359269D01*
X119127641Y-79125920D01*
X119252825Y-78863099D01*
X119297476Y-78715890D01*
X119176155Y-78486000D01*
X117983000Y-78486000D01*
X117983000Y-78506000D01*
X117729000Y-78506000D01*
X117729000Y-78486000D01*
X117709000Y-78486000D01*
X117709000Y-78232000D01*
X117729000Y-78232000D01*
X117729000Y-78212000D01*
X117983000Y-78212000D01*
X117983000Y-78232000D01*
X119176155Y-78232000D01*
X119297476Y-78002110D01*
X119252825Y-77854901D01*
X119127641Y-77592080D01*
X118953588Y-77358731D01*
X118737355Y-77163822D01*
X118620466Y-77094195D01*
X118802632Y-76972475D01*
X119009475Y-76765632D01*
X119171990Y-76522411D01*
X119283932Y-76252158D01*
X119341000Y-75965260D01*
X119341000Y-75672740D01*
X119283932Y-75385842D01*
X119171990Y-75115589D01*
X119009475Y-74872368D01*
X118802632Y-74665525D01*
X118628240Y-74549000D01*
X118802632Y-74432475D01*
X119009475Y-74225632D01*
X119171990Y-73982411D01*
X119283932Y-73712158D01*
X119341000Y-73425260D01*
X119341000Y-73132740D01*
X119283932Y-72845842D01*
X119171990Y-72575589D01*
X119009475Y-72332368D01*
X118877620Y-72200513D01*
X118950180Y-72178502D01*
X119060494Y-72119537D01*
X119157185Y-72040185D01*
X119236537Y-71943494D01*
X119295502Y-71833180D01*
X119331812Y-71713482D01*
X119344072Y-71589000D01*
X119344072Y-71465924D01*
X124297481Y-71465924D01*
X124429417Y-71761012D01*
X124770145Y-71931859D01*
X125137657Y-72032950D01*
X125517829Y-72060401D01*
X125896051Y-72013157D01*
X126257790Y-71893033D01*
X126504783Y-71761012D01*
X126636719Y-71465924D01*
X125467100Y-70296305D01*
X124297481Y-71465924D01*
X119344072Y-71465924D01*
X119344072Y-70167429D01*
X123523399Y-70167429D01*
X123570643Y-70545651D01*
X123690767Y-70907390D01*
X123822788Y-71154383D01*
X124117876Y-71286319D01*
X125287495Y-70116700D01*
X125646705Y-70116700D01*
X126816324Y-71286319D01*
X127111412Y-71154383D01*
X127282259Y-70813655D01*
X127383350Y-70446143D01*
X127410801Y-70065971D01*
X127363557Y-69687749D01*
X127243433Y-69326010D01*
X127111412Y-69079017D01*
X126816324Y-68947081D01*
X125646705Y-70116700D01*
X125287495Y-70116700D01*
X124117876Y-68947081D01*
X123822788Y-69079017D01*
X123651941Y-69419745D01*
X123550850Y-69787257D01*
X123523399Y-70167429D01*
X119344072Y-70167429D01*
X119344072Y-69889000D01*
X119331812Y-69764518D01*
X119295502Y-69644820D01*
X119261334Y-69580897D01*
X119718431Y-69535390D01*
X120309192Y-69355503D01*
X120847973Y-69067518D01*
X121046223Y-68767476D01*
X124297481Y-68767476D01*
X125467100Y-69937095D01*
X126587495Y-68816700D01*
X128529028Y-68816700D01*
X128529028Y-71416700D01*
X128541288Y-71541182D01*
X128577598Y-71660880D01*
X128636563Y-71771194D01*
X128715915Y-71867885D01*
X128812606Y-71947237D01*
X128922920Y-72006202D01*
X129042618Y-72042512D01*
X129167100Y-72054772D01*
X131767100Y-72054772D01*
X131891582Y-72042512D01*
X132011280Y-72006202D01*
X132121594Y-71947237D01*
X132218285Y-71867885D01*
X132297637Y-71771194D01*
X132356602Y-71660880D01*
X132392912Y-71541182D01*
X132405172Y-71416700D01*
X132405172Y-68816700D01*
X132392912Y-68692218D01*
X132356602Y-68572520D01*
X132297637Y-68462206D01*
X132218285Y-68365515D01*
X132121594Y-68286163D01*
X132011280Y-68227198D01*
X131891582Y-68190888D01*
X131767100Y-68178628D01*
X129167100Y-68178628D01*
X129042618Y-68190888D01*
X128922920Y-68227198D01*
X128812606Y-68286163D01*
X128715915Y-68365515D01*
X128636563Y-68462206D01*
X128577598Y-68572520D01*
X128541288Y-68692218D01*
X128529028Y-68816700D01*
X126587495Y-68816700D01*
X126636719Y-68767476D01*
X126504783Y-68472388D01*
X126164055Y-68301541D01*
X125796543Y-68200450D01*
X125416371Y-68172999D01*
X125038149Y-68220243D01*
X124676410Y-68340367D01*
X124429417Y-68472388D01*
X124297481Y-68767476D01*
X121046223Y-68767476D01*
X121124143Y-68649548D01*
X119100600Y-66626005D01*
X119086458Y-66640148D01*
X118906853Y-66460543D01*
X118920995Y-66446400D01*
X118906853Y-66432258D01*
X119086458Y-66252653D01*
X119100600Y-66266795D01*
X119114743Y-66252653D01*
X119294348Y-66432258D01*
X119280205Y-66446400D01*
X121303748Y-68469943D01*
X121721718Y-68193773D01*
X122012249Y-67648843D01*
X122190887Y-67057704D01*
X122250768Y-66443072D01*
X122189590Y-65828569D01*
X122009703Y-65237808D01*
X121721718Y-64699027D01*
X121482552Y-64541000D01*
X134485607Y-64541000D01*
X134284882Y-64673627D01*
G37*
X134284882Y-64673627D02*
X133994351Y-65218557D01*
X133815713Y-65809696D01*
X133755832Y-66424328D01*
X133817010Y-67038831D01*
X133996897Y-67629592D01*
X134284882Y-68168373D01*
X134702852Y-68444543D01*
X136726395Y-66421000D01*
X136712253Y-66406858D01*
X136891858Y-66227253D01*
X136906000Y-66241395D01*
X136920143Y-66227253D01*
X137099748Y-66406858D01*
X137085605Y-66421000D01*
X137099748Y-66435143D01*
X136920143Y-66614748D01*
X136906000Y-66600605D01*
X134882457Y-68624148D01*
X135158627Y-69042118D01*
X135703557Y-69332649D01*
X136294696Y-69511287D01*
X136782473Y-69558809D01*
X136736498Y-69644820D01*
X136700188Y-69764518D01*
X136687928Y-69889000D01*
X136687928Y-71589000D01*
X136700188Y-71713482D01*
X136736498Y-71833180D01*
X136795463Y-71943494D01*
X136874815Y-72040185D01*
X136971506Y-72119537D01*
X137081820Y-72178502D01*
X137154380Y-72200513D01*
X137022525Y-72332368D01*
X136860010Y-72575589D01*
X136748068Y-72845842D01*
X136691000Y-73132740D01*
X136691000Y-73425260D01*
X136748068Y-73712158D01*
X136860010Y-73982411D01*
X137022525Y-74225632D01*
X137229368Y-74432475D01*
X137403760Y-74549000D01*
X137229368Y-74665525D01*
X137022525Y-74872368D01*
X136860010Y-75115589D01*
X136748068Y-75385842D01*
X136691000Y-75672740D01*
X136691000Y-75965260D01*
X136748068Y-76252158D01*
X136860010Y-76522411D01*
X137022525Y-76765632D01*
X137229368Y-76972475D01*
X137403760Y-77089000D01*
X137229368Y-77205525D01*
X137022525Y-77412368D01*
X136860010Y-77655589D01*
X136748068Y-77925842D01*
X136691000Y-78212740D01*
X136691000Y-78505260D01*
X136748068Y-78792158D01*
X136860010Y-79062411D01*
X137022525Y-79305632D01*
X137229368Y-79512475D01*
X137403760Y-79629000D01*
X137229368Y-79745525D01*
X137022525Y-79952368D01*
X136860010Y-80195589D01*
X136748068Y-80465842D01*
X136691000Y-80752740D01*
X136691000Y-81045260D01*
X136748068Y-81332158D01*
X136860010Y-81602411D01*
X137022525Y-81845632D01*
X137229368Y-82052475D01*
X137403760Y-82169000D01*
X137229368Y-82285525D01*
X137022525Y-82492368D01*
X136860010Y-82735589D01*
X136748068Y-83005842D01*
X136691000Y-83292740D01*
X136691000Y-83585260D01*
X136748068Y-83872158D01*
X136860010Y-84142411D01*
X137022525Y-84385632D01*
X137229368Y-84592475D01*
X137403760Y-84709000D01*
X137229368Y-84825525D01*
X137022525Y-85032368D01*
X136860010Y-85275589D01*
X136748068Y-85545842D01*
X136691000Y-85832740D01*
X136691000Y-86125260D01*
X136748068Y-86412158D01*
X136860010Y-86682411D01*
X137022525Y-86925632D01*
X137229368Y-87132475D01*
X137403760Y-87249000D01*
X137229368Y-87365525D01*
X137022525Y-87572368D01*
X136860010Y-87815589D01*
X136748068Y-88085842D01*
X136691000Y-88372740D01*
X136691000Y-88665260D01*
X136748068Y-88952158D01*
X136860010Y-89222411D01*
X137022525Y-89465632D01*
X137229368Y-89672475D01*
X137403760Y-89789000D01*
X137229368Y-89905525D01*
X137022525Y-90112368D01*
X136860010Y-90355589D01*
X136748068Y-90625842D01*
X136691000Y-90912740D01*
X136691000Y-91205260D01*
X136748068Y-91492158D01*
X136860010Y-91762411D01*
X137022525Y-92005632D01*
X137229368Y-92212475D01*
X137403760Y-92329000D01*
X137229368Y-92445525D01*
X137022525Y-92652368D01*
X136860010Y-92895589D01*
X136748068Y-93165842D01*
X136691000Y-93452740D01*
X136691000Y-93745260D01*
X136748068Y-94032158D01*
X136860010Y-94302411D01*
X137022525Y-94545632D01*
X137229368Y-94752475D01*
X137403760Y-94869000D01*
X137229368Y-94985525D01*
X137022525Y-95192368D01*
X136860010Y-95435589D01*
X136748068Y-95705842D01*
X136691000Y-95992740D01*
X136691000Y-96285260D01*
X136748068Y-96572158D01*
X136860010Y-96842411D01*
X137022525Y-97085632D01*
X137229368Y-97292475D01*
X137403760Y-97409000D01*
X137229368Y-97525525D01*
X137022525Y-97732368D01*
X136860010Y-97975589D01*
X136748068Y-98245842D01*
X136691000Y-98532740D01*
X136691000Y-98825260D01*
X136748068Y-99112158D01*
X136860010Y-99382411D01*
X137022525Y-99625632D01*
X137229368Y-99832475D01*
X137472589Y-99994990D01*
X137742842Y-100106932D01*
X138029740Y-100164000D01*
X138322260Y-100164000D01*
X138609158Y-100106932D01*
X138786001Y-100033682D01*
X138786001Y-111111668D01*
X138665085Y-110819750D01*
X138447851Y-110494636D01*
X138171364Y-110218149D01*
X137846250Y-110000915D01*
X137485003Y-109851282D01*
X137101505Y-109775000D01*
X136710495Y-109775000D01*
X136326997Y-109851282D01*
X135965750Y-110000915D01*
X135640636Y-110218149D01*
X135364149Y-110494636D01*
X135146915Y-110819750D01*
X134997282Y-111180997D01*
X134921000Y-111564495D01*
X134921000Y-111955505D01*
X134997282Y-112339003D01*
X135146915Y-112700250D01*
X135364149Y-113025364D01*
X135640636Y-113301851D01*
X135965750Y-113519085D01*
X136326997Y-113668718D01*
X136710495Y-113745000D01*
X137101505Y-113745000D01*
X137485003Y-113668718D01*
X137836982Y-113522924D01*
X137731581Y-113610119D01*
X137322162Y-113831491D01*
X136877535Y-113969126D01*
X136383990Y-114021000D01*
X119412278Y-114021000D01*
X118966118Y-113977254D01*
X118568001Y-113857055D01*
X118200815Y-113661819D01*
X117878539Y-113398977D01*
X117620763Y-113087378D01*
X117835236Y-113301851D01*
X118160350Y-113519085D01*
X118521597Y-113668718D01*
X118905095Y-113745000D01*
X119296105Y-113745000D01*
X119679603Y-113668718D01*
X120040850Y-113519085D01*
X120365964Y-113301851D01*
X120642451Y-113025364D01*
X120859685Y-112700250D01*
X121009318Y-112339003D01*
X121085600Y-111955505D01*
X121085600Y-111564495D01*
X121009318Y-111180997D01*
X120859685Y-110819750D01*
X120642451Y-110494636D01*
X120365964Y-110218149D01*
X120040850Y-110000915D01*
X119679603Y-109851282D01*
X119296105Y-109775000D01*
X119016579Y-109775000D01*
X119171990Y-109542411D01*
X119283932Y-109272158D01*
X119341000Y-108985260D01*
X119341000Y-108692740D01*
X119283932Y-108405842D01*
X119171990Y-108135589D01*
X119009475Y-107892368D01*
X118802632Y-107685525D01*
X118628240Y-107569000D01*
X118802632Y-107452475D01*
X119009475Y-107245632D01*
X119171990Y-107002411D01*
X119283932Y-106732158D01*
X119341000Y-106445260D01*
X119341000Y-106152740D01*
X119283932Y-105865842D01*
X119171990Y-105595589D01*
X119009475Y-105352368D01*
X118802632Y-105145525D01*
X118628240Y-105029000D01*
X118802632Y-104912475D01*
X119009475Y-104705632D01*
X119171990Y-104462411D01*
X119283932Y-104192158D01*
X119341000Y-103905260D01*
X119341000Y-103612740D01*
X119283932Y-103325842D01*
X119171990Y-103055589D01*
X119009475Y-102812368D01*
X118802632Y-102605525D01*
X118628240Y-102489000D01*
X118802632Y-102372475D01*
X119009475Y-102165632D01*
X119171990Y-101922411D01*
X119283932Y-101652158D01*
X119341000Y-101365260D01*
X119341000Y-101072740D01*
X119283932Y-100785842D01*
X119171990Y-100515589D01*
X119009475Y-100272368D01*
X118802632Y-100065525D01*
X118628240Y-99949000D01*
X118802632Y-99832475D01*
X119009475Y-99625632D01*
X119171990Y-99382411D01*
X119283932Y-99112158D01*
X119341000Y-98825260D01*
X119341000Y-98532740D01*
X119283932Y-98245842D01*
X119171990Y-97975589D01*
X119009475Y-97732368D01*
X118802632Y-97525525D01*
X118628240Y-97409000D01*
X118802632Y-97292475D01*
X119009475Y-97085632D01*
X119171990Y-96842411D01*
X119283932Y-96572158D01*
X119341000Y-96285260D01*
X119341000Y-95992740D01*
X119283932Y-95705842D01*
X119171990Y-95435589D01*
X119009475Y-95192368D01*
X118802632Y-94985525D01*
X118628240Y-94869000D01*
X118802632Y-94752475D01*
X119009475Y-94545632D01*
X119171990Y-94302411D01*
X119283932Y-94032158D01*
X119341000Y-93745260D01*
X119341000Y-93452740D01*
X119283932Y-93165842D01*
X119171990Y-92895589D01*
X119009475Y-92652368D01*
X118802632Y-92445525D01*
X118628240Y-92329000D01*
X118802632Y-92212475D01*
X119009475Y-92005632D01*
X119171990Y-91762411D01*
X119283932Y-91492158D01*
X119341000Y-91205260D01*
X119341000Y-90912740D01*
X119283932Y-90625842D01*
X119171990Y-90355589D01*
X119009475Y-90112368D01*
X118802632Y-89905525D01*
X118628240Y-89789000D01*
X118802632Y-89672475D01*
X119009475Y-89465632D01*
X119171990Y-89222411D01*
X119283932Y-88952158D01*
X119341000Y-88665260D01*
X119341000Y-88372740D01*
X119283932Y-88085842D01*
X119171990Y-87815589D01*
X119009475Y-87572368D01*
X118802632Y-87365525D01*
X118628240Y-87249000D01*
X118802632Y-87132475D01*
X119009475Y-86925632D01*
X119171990Y-86682411D01*
X119283932Y-86412158D01*
X119341000Y-86125260D01*
X119341000Y-85832740D01*
X119283932Y-85545842D01*
X119171990Y-85275589D01*
X119009475Y-85032368D01*
X118802632Y-84825525D01*
X118628240Y-84709000D01*
X118802632Y-84592475D01*
X119009475Y-84385632D01*
X119171990Y-84142411D01*
X119283932Y-83872158D01*
X119341000Y-83585260D01*
X119341000Y-83292740D01*
X119283932Y-83005842D01*
X119171990Y-82735589D01*
X119009475Y-82492368D01*
X118802632Y-82285525D01*
X118628240Y-82169000D01*
X118802632Y-82052475D01*
X119009475Y-81845632D01*
X119171990Y-81602411D01*
X119283932Y-81332158D01*
X119341000Y-81045260D01*
X119341000Y-80752740D01*
X119283932Y-80465842D01*
X119171990Y-80195589D01*
X119009475Y-79952368D01*
X118802632Y-79745525D01*
X118620466Y-79623805D01*
X118737355Y-79554178D01*
X118953588Y-79359269D01*
X119127641Y-79125920D01*
X119252825Y-78863099D01*
X119297476Y-78715890D01*
X119176155Y-78486000D01*
X117983000Y-78486000D01*
X117983000Y-78506000D01*
X117729000Y-78506000D01*
X117729000Y-78486000D01*
X117709000Y-78486000D01*
X117709000Y-78232000D01*
X117729000Y-78232000D01*
X117729000Y-78212000D01*
X117983000Y-78212000D01*
X117983000Y-78232000D01*
X119176155Y-78232000D01*
X119297476Y-78002110D01*
X119252825Y-77854901D01*
X119127641Y-77592080D01*
X118953588Y-77358731D01*
X118737355Y-77163822D01*
X118620466Y-77094195D01*
X118802632Y-76972475D01*
X119009475Y-76765632D01*
X119171990Y-76522411D01*
X119283932Y-76252158D01*
X119341000Y-75965260D01*
X119341000Y-75672740D01*
X119283932Y-75385842D01*
X119171990Y-75115589D01*
X119009475Y-74872368D01*
X118802632Y-74665525D01*
X118628240Y-74549000D01*
X118802632Y-74432475D01*
X119009475Y-74225632D01*
X119171990Y-73982411D01*
X119283932Y-73712158D01*
X119341000Y-73425260D01*
X119341000Y-73132740D01*
X119283932Y-72845842D01*
X119171990Y-72575589D01*
X119009475Y-72332368D01*
X118877620Y-72200513D01*
X118950180Y-72178502D01*
X119060494Y-72119537D01*
X119157185Y-72040185D01*
X119236537Y-71943494D01*
X119295502Y-71833180D01*
X119331812Y-71713482D01*
X119344072Y-71589000D01*
X119344072Y-71465924D01*
X124297481Y-71465924D01*
X124429417Y-71761012D01*
X124770145Y-71931859D01*
X125137657Y-72032950D01*
X125517829Y-72060401D01*
X125896051Y-72013157D01*
X126257790Y-71893033D01*
X126504783Y-71761012D01*
X126636719Y-71465924D01*
X125467100Y-70296305D01*
X124297481Y-71465924D01*
X119344072Y-71465924D01*
X119344072Y-70167429D01*
X123523399Y-70167429D01*
X123570643Y-70545651D01*
X123690767Y-70907390D01*
X123822788Y-71154383D01*
X124117876Y-71286319D01*
X125287495Y-70116700D01*
X125646705Y-70116700D01*
X126816324Y-71286319D01*
X127111412Y-71154383D01*
X127282259Y-70813655D01*
X127383350Y-70446143D01*
X127410801Y-70065971D01*
X127363557Y-69687749D01*
X127243433Y-69326010D01*
X127111412Y-69079017D01*
X126816324Y-68947081D01*
X125646705Y-70116700D01*
X125287495Y-70116700D01*
X124117876Y-68947081D01*
X123822788Y-69079017D01*
X123651941Y-69419745D01*
X123550850Y-69787257D01*
X123523399Y-70167429D01*
X119344072Y-70167429D01*
X119344072Y-69889000D01*
X119331812Y-69764518D01*
X119295502Y-69644820D01*
X119261334Y-69580897D01*
X119718431Y-69535390D01*
X120309192Y-69355503D01*
X120847973Y-69067518D01*
X121046223Y-68767476D01*
X124297481Y-68767476D01*
X125467100Y-69937095D01*
X126587495Y-68816700D01*
X128529028Y-68816700D01*
X128529028Y-71416700D01*
X128541288Y-71541182D01*
X128577598Y-71660880D01*
X128636563Y-71771194D01*
X128715915Y-71867885D01*
X128812606Y-71947237D01*
X128922920Y-72006202D01*
X129042618Y-72042512D01*
X129167100Y-72054772D01*
X131767100Y-72054772D01*
X131891582Y-72042512D01*
X132011280Y-72006202D01*
X132121594Y-71947237D01*
X132218285Y-71867885D01*
X132297637Y-71771194D01*
X132356602Y-71660880D01*
X132392912Y-71541182D01*
X132405172Y-71416700D01*
X132405172Y-68816700D01*
X132392912Y-68692218D01*
X132356602Y-68572520D01*
X132297637Y-68462206D01*
X132218285Y-68365515D01*
X132121594Y-68286163D01*
X132011280Y-68227198D01*
X131891582Y-68190888D01*
X131767100Y-68178628D01*
X129167100Y-68178628D01*
X129042618Y-68190888D01*
X128922920Y-68227198D01*
X128812606Y-68286163D01*
X128715915Y-68365515D01*
X128636563Y-68462206D01*
X128577598Y-68572520D01*
X128541288Y-68692218D01*
X128529028Y-68816700D01*
X126587495Y-68816700D01*
X126636719Y-68767476D01*
X126504783Y-68472388D01*
X126164055Y-68301541D01*
X125796543Y-68200450D01*
X125416371Y-68172999D01*
X125038149Y-68220243D01*
X124676410Y-68340367D01*
X124429417Y-68472388D01*
X124297481Y-68767476D01*
X121046223Y-68767476D01*
X121124143Y-68649548D01*
X119100600Y-66626005D01*
X119086458Y-66640148D01*
X118906853Y-66460543D01*
X118920995Y-66446400D01*
X118906853Y-66432258D01*
X119086458Y-66252653D01*
X119100600Y-66266795D01*
X119114743Y-66252653D01*
X119294348Y-66432258D01*
X119280205Y-66446400D01*
X121303748Y-68469943D01*
X121721718Y-68193773D01*
X122012249Y-67648843D01*
X122190887Y-67057704D01*
X122250768Y-66443072D01*
X122189590Y-65828569D01*
X122009703Y-65237808D01*
X121721718Y-64699027D01*
X121482552Y-64541000D01*
X134485607Y-64541000D01*
X134284882Y-64673627D01*
%TD*%
M02*
