%TF.GenerationSoftware,KiCad,Pcbnew,5.1.6-c6e7f7d~87~ubuntu18.04.1*%
%TF.CreationDate,2020-10-24T12:36:29-07:00*%
%TF.ProjectId,feather-power-supply-sw-smd,66656174-6865-4722-9d70-6f7765722d73,rev?*%
%TF.SameCoordinates,Original*%
%TF.FileFunction,Legend,Top*%
%TF.FilePolarity,Positive*%
%FSLAX46Y46*%
G04 Gerber Fmt 4.6, Leading zero omitted, Abs format (unit mm)*
G04 Created by KiCad (PCBNEW 5.1.6-c6e7f7d~87~ubuntu18.04.1) date 2020-10-24 12:36:29*
%MOMM*%
%LPD*%
G01*
G04 APERTURE LIST*
%ADD10C,0.300000*%
%ADD11C,0.127000*%
%ADD12C,0.125000*%
%ADD13C,0.150000*%
%ADD14C,0.120000*%
%ADD15C,0.100000*%
G04 APERTURE END LIST*
D10*
X133266571Y-67476571D02*
X133266571Y-68333714D01*
X133266571Y-67905142D02*
X131766571Y-67905142D01*
X131980857Y-68048000D01*
X132123714Y-68190857D01*
X132195142Y-68333714D01*
X131909428Y-66905142D02*
X131838000Y-66833714D01*
X131766571Y-66690857D01*
X131766571Y-66333714D01*
X131838000Y-66190857D01*
X131909428Y-66119428D01*
X132052285Y-66048000D01*
X132195142Y-66048000D01*
X132409428Y-66119428D01*
X133266571Y-66976571D01*
X133266571Y-66048000D01*
X131766571Y-65619428D02*
X133266571Y-65119428D01*
X131766571Y-64619428D01*
D11*
X135055428Y-96266000D02*
X134982857Y-96229714D01*
X134874000Y-96229714D01*
X134765142Y-96266000D01*
X134692571Y-96338571D01*
X134656285Y-96411142D01*
X134620000Y-96556285D01*
X134620000Y-96665142D01*
X134656285Y-96810285D01*
X134692571Y-96882857D01*
X134765142Y-96955428D01*
X134874000Y-96991714D01*
X134946571Y-96991714D01*
X135055428Y-96955428D01*
X135091714Y-96919142D01*
X135091714Y-96665142D01*
X134946571Y-96665142D01*
X135418285Y-96991714D02*
X135418285Y-96229714D01*
X135853714Y-96991714D01*
X135853714Y-96229714D01*
X136216571Y-96991714D02*
X136216571Y-96229714D01*
X136398000Y-96229714D01*
X136506857Y-96266000D01*
X136579428Y-96338571D01*
X136615714Y-96411142D01*
X136652000Y-96556285D01*
X136652000Y-96665142D01*
X136615714Y-96810285D01*
X136579428Y-96882857D01*
X136506857Y-96955428D01*
X136398000Y-96991714D01*
X136216571Y-96991714D01*
X137196285Y-96701428D02*
X137776857Y-96701428D01*
X137486571Y-96991714D02*
X137486571Y-96411142D01*
X138502571Y-96229714D02*
X138139714Y-96229714D01*
X138103428Y-96592571D01*
X138139714Y-96556285D01*
X138212285Y-96520000D01*
X138393714Y-96520000D01*
X138466285Y-96556285D01*
X138502571Y-96592571D01*
X138538857Y-96665142D01*
X138538857Y-96846571D01*
X138502571Y-96919142D01*
X138466285Y-96955428D01*
X138393714Y-96991714D01*
X138212285Y-96991714D01*
X138139714Y-96955428D01*
X138103428Y-96919142D01*
X138756571Y-96229714D02*
X139010571Y-96991714D01*
X139264571Y-96229714D01*
X140062857Y-96955428D02*
X140171714Y-96991714D01*
X140353142Y-96991714D01*
X140425714Y-96955428D01*
X140462000Y-96919142D01*
X140498285Y-96846571D01*
X140498285Y-96774000D01*
X140462000Y-96701428D01*
X140425714Y-96665142D01*
X140353142Y-96628857D01*
X140208000Y-96592571D01*
X140135428Y-96556285D01*
X140099142Y-96520000D01*
X140062857Y-96447428D01*
X140062857Y-96374857D01*
X140099142Y-96302285D01*
X140135428Y-96266000D01*
X140208000Y-96229714D01*
X140389428Y-96229714D01*
X140498285Y-96266000D01*
X141260285Y-96919142D02*
X141224000Y-96955428D01*
X141115142Y-96991714D01*
X141042571Y-96991714D01*
X140933714Y-96955428D01*
X140861142Y-96882857D01*
X140824857Y-96810285D01*
X140788571Y-96665142D01*
X140788571Y-96556285D01*
X140824857Y-96411142D01*
X140861142Y-96338571D01*
X140933714Y-96266000D01*
X141042571Y-96229714D01*
X141115142Y-96229714D01*
X141224000Y-96266000D01*
X141260285Y-96302285D01*
X141949714Y-96991714D02*
X141586857Y-96991714D01*
X141586857Y-96229714D01*
X142838714Y-96955428D02*
X142947571Y-96991714D01*
X143129000Y-96991714D01*
X143201571Y-96955428D01*
X143237857Y-96919142D01*
X143274142Y-96846571D01*
X143274142Y-96774000D01*
X143237857Y-96701428D01*
X143201571Y-96665142D01*
X143129000Y-96628857D01*
X142983857Y-96592571D01*
X142911285Y-96556285D01*
X142875000Y-96520000D01*
X142838714Y-96447428D01*
X142838714Y-96374857D01*
X142875000Y-96302285D01*
X142911285Y-96266000D01*
X142983857Y-96229714D01*
X143165285Y-96229714D01*
X143274142Y-96266000D01*
X143600714Y-96991714D02*
X143600714Y-96229714D01*
X143782142Y-96229714D01*
X143891000Y-96266000D01*
X143963571Y-96338571D01*
X143999857Y-96411142D01*
X144036142Y-96556285D01*
X144036142Y-96665142D01*
X143999857Y-96810285D01*
X143963571Y-96882857D01*
X143891000Y-96955428D01*
X143782142Y-96991714D01*
X143600714Y-96991714D01*
X144326428Y-96774000D02*
X144689285Y-96774000D01*
X144253857Y-96991714D02*
X144507857Y-96229714D01*
X144761857Y-96991714D01*
D12*
X136670142Y-103178428D02*
X136779000Y-103214714D01*
X136960428Y-103214714D01*
X137033000Y-103178428D01*
X137069285Y-103142142D01*
X137105571Y-103069571D01*
X137105571Y-102997000D01*
X137069285Y-102924428D01*
X137033000Y-102888142D01*
X136960428Y-102851857D01*
X136815285Y-102815571D01*
X136742714Y-102779285D01*
X136706428Y-102743000D01*
X136670142Y-102670428D01*
X136670142Y-102597857D01*
X136706428Y-102525285D01*
X136742714Y-102489000D01*
X136815285Y-102452714D01*
X136996714Y-102452714D01*
X137105571Y-102489000D01*
X137323285Y-102452714D02*
X137758714Y-102452714D01*
X137541000Y-103214714D02*
X137541000Y-102452714D01*
X138012714Y-102815571D02*
X138266714Y-102815571D01*
X138375571Y-103214714D02*
X138012714Y-103214714D01*
X138012714Y-102452714D01*
X138375571Y-102452714D01*
X138702142Y-103214714D02*
X138702142Y-102452714D01*
X138956142Y-102997000D01*
X139210142Y-102452714D01*
X139210142Y-103214714D01*
X139573000Y-103214714D02*
X139573000Y-102452714D01*
X139827000Y-102997000D01*
X140081000Y-102452714D01*
X140081000Y-103214714D01*
X140407571Y-102997000D02*
X140770428Y-102997000D01*
X140335000Y-103214714D02*
X140589000Y-102452714D01*
X140843000Y-103214714D01*
X142185571Y-103287285D02*
X142113000Y-103251000D01*
X142040428Y-103178428D01*
X141931571Y-103069571D01*
X141859000Y-103033285D01*
X141786428Y-103033285D01*
X141822714Y-103214714D02*
X141750142Y-103178428D01*
X141677571Y-103105857D01*
X141641285Y-102960714D01*
X141641285Y-102706714D01*
X141677571Y-102561571D01*
X141750142Y-102489000D01*
X141822714Y-102452714D01*
X141967857Y-102452714D01*
X142040428Y-102489000D01*
X142113000Y-102561571D01*
X142149285Y-102706714D01*
X142149285Y-102960714D01*
X142113000Y-103105857D01*
X142040428Y-103178428D01*
X141967857Y-103214714D01*
X141822714Y-103214714D01*
X142367000Y-102452714D02*
X142802428Y-102452714D01*
X142584714Y-103214714D02*
X142584714Y-102452714D01*
D13*
X133069919Y-92067571D02*
X132736586Y-92067571D01*
X132671110Y-92591380D02*
X132796110Y-91591380D01*
X133272300Y-91591380D01*
X133915157Y-92543761D02*
X133813967Y-92591380D01*
X133623491Y-92591380D01*
X133534205Y-92543761D01*
X133498491Y-92448523D01*
X133546110Y-92067571D01*
X133605633Y-91972333D01*
X133706824Y-91924714D01*
X133897300Y-91924714D01*
X133986586Y-91972333D01*
X134022300Y-92067571D01*
X134010395Y-92162809D01*
X133522300Y-92258047D01*
X134813967Y-92591380D02*
X134879443Y-92067571D01*
X134843729Y-91972333D01*
X134754443Y-91924714D01*
X134563967Y-91924714D01*
X134462776Y-91972333D01*
X134819919Y-92543761D02*
X134718729Y-92591380D01*
X134480633Y-92591380D01*
X134391348Y-92543761D01*
X134355633Y-92448523D01*
X134367538Y-92353285D01*
X134427062Y-92258047D01*
X134528252Y-92210428D01*
X134766348Y-92210428D01*
X134867538Y-92162809D01*
X135230633Y-91924714D02*
X135611586Y-91924714D01*
X135415157Y-91591380D02*
X135308014Y-92448523D01*
X135343729Y-92543761D01*
X135433014Y-92591380D01*
X135528252Y-92591380D01*
X135861586Y-92591380D02*
X135986586Y-91591380D01*
X136290157Y-92591380D02*
X136355633Y-92067571D01*
X136319919Y-91972333D01*
X136230633Y-91924714D01*
X136087776Y-91924714D01*
X135986586Y-91972333D01*
X135933014Y-92019952D01*
X137153252Y-92543761D02*
X137052062Y-92591380D01*
X136861586Y-92591380D01*
X136772300Y-92543761D01*
X136736586Y-92448523D01*
X136784205Y-92067571D01*
X136843729Y-91972333D01*
X136944919Y-91924714D01*
X137135395Y-91924714D01*
X137224681Y-91972333D01*
X137260395Y-92067571D01*
X137248491Y-92162809D01*
X136760395Y-92258047D01*
X137623491Y-92591380D02*
X137706824Y-91924714D01*
X137683014Y-92115190D02*
X137742538Y-92019952D01*
X137796110Y-91972333D01*
X137897300Y-91924714D01*
X137992538Y-91924714D01*
X138272300Y-91591380D02*
X138385395Y-92591380D01*
X138665157Y-91877095D01*
X138766348Y-92591380D01*
X139129443Y-91591380D01*
X139385395Y-92591380D02*
X139468729Y-91924714D01*
X139510395Y-91591380D02*
X139456824Y-91639000D01*
X139498491Y-91686619D01*
X139552062Y-91639000D01*
X139510395Y-91591380D01*
X139498491Y-91686619D01*
X139944919Y-91924714D02*
X139861586Y-92591380D01*
X139933014Y-92019952D02*
X139986586Y-91972333D01*
X140087776Y-91924714D01*
X140230633Y-91924714D01*
X140319919Y-91972333D01*
X140355633Y-92067571D01*
X140290157Y-92591380D01*
X141278252Y-91924714D02*
X141177062Y-92734238D01*
X141117538Y-92829476D01*
X141063967Y-92877095D01*
X140962776Y-92924714D01*
X140819919Y-92924714D01*
X140730633Y-92877095D01*
X141200872Y-92543761D02*
X141099681Y-92591380D01*
X140909205Y-92591380D01*
X140819919Y-92543761D01*
X140778252Y-92496142D01*
X140742538Y-92400904D01*
X140778252Y-92115190D01*
X140837776Y-92019952D01*
X140891348Y-91972333D01*
X140992538Y-91924714D01*
X141183014Y-91924714D01*
X141272300Y-91972333D01*
X132034205Y-94193761D02*
X132171110Y-94241380D01*
X132409205Y-94241380D01*
X132510395Y-94193761D01*
X132563967Y-94146142D01*
X132623491Y-94050904D01*
X132635395Y-93955666D01*
X132599681Y-93860428D01*
X132558014Y-93812809D01*
X132468729Y-93765190D01*
X132284205Y-93717571D01*
X132194919Y-93669952D01*
X132153252Y-93622333D01*
X132117538Y-93527095D01*
X132129443Y-93431857D01*
X132188967Y-93336619D01*
X132242538Y-93289000D01*
X132343729Y-93241380D01*
X132581824Y-93241380D01*
X132718729Y-93289000D01*
X133016348Y-93574714D02*
X133123491Y-94241380D01*
X133373491Y-93765190D01*
X133504443Y-94241380D01*
X133778252Y-93574714D01*
X134075872Y-94241380D02*
X134159205Y-93574714D01*
X134200872Y-93241380D02*
X134147300Y-93289000D01*
X134188967Y-93336619D01*
X134242538Y-93289000D01*
X134200872Y-93241380D01*
X134188967Y-93336619D01*
X134492538Y-93574714D02*
X134873491Y-93574714D01*
X134677062Y-93241380D02*
X134569919Y-94098523D01*
X134605633Y-94193761D01*
X134694919Y-94241380D01*
X134790157Y-94241380D01*
X135558014Y-94193761D02*
X135456824Y-94241380D01*
X135266348Y-94241380D01*
X135177062Y-94193761D01*
X135135395Y-94146142D01*
X135099681Y-94050904D01*
X135135395Y-93765190D01*
X135194919Y-93669952D01*
X135248491Y-93622333D01*
X135349681Y-93574714D01*
X135540157Y-93574714D01*
X135629443Y-93622333D01*
X135980633Y-94241380D02*
X136105633Y-93241380D01*
X136409205Y-94241380D02*
X136474681Y-93717571D01*
X136438967Y-93622333D01*
X136349681Y-93574714D01*
X136206824Y-93574714D01*
X136105633Y-93622333D01*
X136052062Y-93669952D01*
X137272300Y-94193761D02*
X137171110Y-94241380D01*
X136980633Y-94241380D01*
X136891348Y-94193761D01*
X136855633Y-94098523D01*
X136903252Y-93717571D01*
X136962776Y-93622333D01*
X137063967Y-93574714D01*
X137254443Y-93574714D01*
X137343729Y-93622333D01*
X137379443Y-93717571D01*
X137367538Y-93812809D01*
X136879443Y-93908047D01*
X137742538Y-94241380D02*
X137825872Y-93574714D01*
X137802062Y-93765190D02*
X137861586Y-93669952D01*
X137915157Y-93622333D01*
X138016348Y-93574714D01*
X138111586Y-93574714D01*
X139111586Y-93574714D02*
X139266348Y-94241380D01*
X139587776Y-93574714D01*
X139950872Y-93336619D02*
X140004443Y-93289000D01*
X140105633Y-93241380D01*
X140343729Y-93241380D01*
X140433014Y-93289000D01*
X140474681Y-93336619D01*
X140510395Y-93431857D01*
X140498491Y-93527095D01*
X140433014Y-93669952D01*
X139790157Y-94241380D01*
X140409205Y-94241380D01*
X140849681Y-94146142D02*
X140891348Y-94193761D01*
X140837776Y-94241380D01*
X140796110Y-94193761D01*
X140849681Y-94146142D01*
X140837776Y-94241380D01*
X141629443Y-93241380D02*
X141724681Y-93241380D01*
X141813967Y-93289000D01*
X141855633Y-93336619D01*
X141891348Y-93431857D01*
X141915157Y-93622333D01*
X141885395Y-93860428D01*
X141813967Y-94050904D01*
X141754443Y-94146142D01*
X141700872Y-94193761D01*
X141599681Y-94241380D01*
X141504443Y-94241380D01*
X141415157Y-94193761D01*
X141373491Y-94146142D01*
X141337776Y-94050904D01*
X141313967Y-93860428D01*
X141343729Y-93622333D01*
X141415157Y-93431857D01*
X141474681Y-93336619D01*
X141528252Y-93289000D01*
X141629443Y-93241380D01*
D14*
X137693400Y-80746600D02*
G75*
G03*
X137693400Y-80746600I-254000J0D01*
G01*
D10*
X146062000Y-67690857D02*
X145990571Y-67833714D01*
X145990571Y-68048000D01*
X146062000Y-68262285D01*
X146204857Y-68405142D01*
X146347714Y-68476571D01*
X146633428Y-68548000D01*
X146847714Y-68548000D01*
X147133428Y-68476571D01*
X147276285Y-68405142D01*
X147419142Y-68262285D01*
X147490571Y-68048000D01*
X147490571Y-67905142D01*
X147419142Y-67690857D01*
X147347714Y-67619428D01*
X146847714Y-67619428D01*
X146847714Y-67905142D01*
X147490571Y-66976571D02*
X145990571Y-66976571D01*
X147490571Y-66119428D01*
X145990571Y-66119428D01*
X147490571Y-65405142D02*
X145990571Y-65405142D01*
X145990571Y-65048000D01*
X146062000Y-64833714D01*
X146204857Y-64690857D01*
X146347714Y-64619428D01*
X146633428Y-64548000D01*
X146847714Y-64548000D01*
X147133428Y-64619428D01*
X147276285Y-64690857D01*
X147419142Y-64833714D01*
X147490571Y-65048000D01*
X147490571Y-65405142D01*
D14*
%TO.C,J4*%
X137760000Y-109365000D02*
X141640000Y-109365000D01*
X142810000Y-104895000D02*
X141760000Y-104895000D01*
X142810000Y-107395000D02*
X142810000Y-104895000D01*
X137640000Y-104895000D02*
X137640000Y-103905000D01*
X136590000Y-104895000D02*
X137640000Y-104895000D01*
X136590000Y-107395000D02*
X136590000Y-104895000D01*
%TO.C,Q1*%
X138384400Y-72544400D02*
X137454400Y-72544400D01*
X135224400Y-72544400D02*
X136154400Y-72544400D01*
X135224400Y-72544400D02*
X135224400Y-74704400D01*
X138384400Y-72544400D02*
X138384400Y-74004400D01*
%TO.C,L1*%
X139452600Y-89980800D02*
X140352600Y-89980800D01*
X139452600Y-89980800D02*
X139452600Y-89080800D01*
X143452600Y-85380800D02*
X142552600Y-85380800D01*
X143452600Y-85380800D02*
X143452600Y-86280800D01*
X143452600Y-89980800D02*
X142552600Y-89980800D01*
X143452600Y-89980800D02*
X143452600Y-89080800D01*
X139452600Y-85380800D02*
X140352600Y-85380800D01*
X139452600Y-85380800D02*
X139452600Y-86280800D01*
%TO.C,R5*%
X145878733Y-87632000D02*
X146221267Y-87632000D01*
X145878733Y-86612000D02*
X146221267Y-86612000D01*
%TO.C,D2*%
X144165000Y-90064000D02*
X147050000Y-90064000D01*
X144165000Y-88244000D02*
X144165000Y-90064000D01*
X147050000Y-88244000D02*
X144165000Y-88244000D01*
%TO.C,J5*%
X134560000Y-100263000D02*
X134560000Y-98933000D01*
X135890000Y-100263000D02*
X134560000Y-100263000D01*
X137160000Y-100263000D02*
X137160000Y-97603000D01*
X137160000Y-97603000D02*
X144840000Y-97603000D01*
X137160000Y-100263000D02*
X144840000Y-100263000D01*
X144840000Y-100263000D02*
X144840000Y-97603000D01*
%TO.C,J1*%
X144976500Y-59743000D02*
X144476500Y-59743000D01*
X144976500Y-60483000D02*
X144976500Y-59743000D01*
X138403500Y-63620000D02*
X138450500Y-63574000D01*
X136106500Y-65918000D02*
X136141500Y-65882000D01*
X138210500Y-63404000D02*
X138245500Y-63369000D01*
X135901500Y-65712000D02*
X135948500Y-65666000D01*
X134616500Y-69904000D02*
X134616500Y-59983000D01*
X144736500Y-69904000D02*
X144736500Y-59983000D01*
X144736500Y-59983000D02*
X134616500Y-59983000D01*
X144736500Y-69904000D02*
X134616500Y-69904000D01*
X144736500Y-66944000D02*
X134616500Y-66944000D01*
X144736500Y-62043000D02*
X134616500Y-62043000D01*
X144736500Y-60543000D02*
X134616500Y-60543000D01*
X138856500Y-64643000D02*
G75*
G03*
X138856500Y-64643000I-1680000J0D01*
G01*
X141493182Y-63108244D02*
G75*
G02*
X142176500Y-62963000I683318J-1534756D01*
G01*
X140641074Y-65326042D02*
G75*
G02*
X140641500Y-63959000I1535426J683042D01*
G01*
X142859542Y-66178426D02*
G75*
G02*
X141492500Y-66178000I-683042J1535426D01*
G01*
X143711926Y-63959958D02*
G75*
G02*
X143711500Y-65327000I-1535426J-683042D01*
G01*
X142147695Y-62962747D02*
G75*
G02*
X142860500Y-63108000I28805J-1680253D01*
G01*
%TO.C,F1*%
X143383031Y-71213400D02*
X140842969Y-71213400D01*
X143383031Y-74633400D02*
X140842969Y-74633400D01*
%TO.C,C5*%
X144311200Y-83406064D02*
X144311200Y-82201936D01*
X141591200Y-83406064D02*
X141591200Y-82201936D01*
%TO.C,C9*%
X133178733Y-77573600D02*
X133521267Y-77573600D01*
X133178733Y-76553600D02*
X133521267Y-76553600D01*
%TO.C,C6*%
X144893200Y-83406064D02*
X144893200Y-82201936D01*
X147613200Y-83406064D02*
X147613200Y-82201936D01*
%TO.C,JP1*%
X134750000Y-71632800D02*
X134750000Y-72232800D01*
X132650000Y-70932800D02*
X134050000Y-70932800D01*
X131950000Y-72232800D02*
X131950000Y-71632800D01*
X134050000Y-72932800D02*
X132650000Y-72932800D01*
X134750000Y-72232800D02*
G75*
G02*
X134050000Y-72932800I-700000J0D01*
G01*
X134050000Y-70932800D02*
G75*
G02*
X134750000Y-71632800I0J-700000D01*
G01*
X131950000Y-71632800D02*
G75*
G02*
X132650000Y-70932800I700000J0D01*
G01*
X132650000Y-72932800D02*
G75*
G02*
X131950000Y-72232800I0J700000D01*
G01*
%TO.C,R4*%
X133178733Y-76049600D02*
X133521267Y-76049600D01*
X133178733Y-75029600D02*
X133521267Y-75029600D01*
%TO.C,C2*%
X138335936Y-77567200D02*
X139540064Y-77567200D01*
X138335936Y-75747200D02*
X139540064Y-75747200D01*
%TO.C,R2*%
X131925600Y-83267733D02*
X131925600Y-83610267D01*
X132945600Y-83267733D02*
X132945600Y-83610267D01*
%TO.C,D1*%
X139106400Y-85258000D02*
X139106400Y-81408000D01*
X141106400Y-85258000D02*
X141106400Y-81408000D01*
X139106400Y-85258000D02*
X141106400Y-85258000D01*
D15*
%TO.C,U1*%
X133544000Y-83684800D02*
X133544000Y-83384800D01*
X133844000Y-83684800D02*
X133544000Y-83684800D01*
X138744000Y-83684800D02*
X138744000Y-83384800D01*
X138444000Y-83684800D02*
X138744000Y-83684800D01*
X133544000Y-79484800D02*
X133544000Y-79784800D01*
X133844000Y-79484800D02*
X133544000Y-79484800D01*
X138444000Y-79684800D02*
X138444000Y-78884800D01*
X138744000Y-79984800D02*
X138444000Y-79684800D01*
X138744000Y-80384800D02*
X138744000Y-79984800D01*
D14*
%TO.C,R1*%
X134791267Y-85596000D02*
X134448733Y-85596000D01*
X134791267Y-86616000D02*
X134448733Y-86616000D01*
%TO.C,C8*%
X131900200Y-79762533D02*
X131900200Y-80105067D01*
X132920200Y-79762533D02*
X132920200Y-80105067D01*
%TO.C,C7*%
X134448733Y-88140000D02*
X134791267Y-88140000D01*
X134448733Y-87120000D02*
X134791267Y-87120000D01*
%TO.C,C1*%
X138660600Y-87191667D02*
X138660600Y-86849133D01*
X137640600Y-87191667D02*
X137640600Y-86849133D01*
%TO.C,J3*%
X128235400Y-105419200D02*
X130895400Y-105419200D01*
X128235400Y-67259200D02*
X128235400Y-105419200D01*
X130895400Y-67259200D02*
X130895400Y-105419200D01*
X128235400Y-67259200D02*
X130895400Y-67259200D01*
X128235400Y-65989200D02*
X128235400Y-64659200D01*
X128235400Y-64659200D02*
X129565400Y-64659200D01*
%TO.C,R3*%
X133178733Y-74525600D02*
X133521267Y-74525600D01*
X133178733Y-73505600D02*
X133521267Y-73505600D01*
%TO.C,J2*%
X148530000Y-74870000D02*
X149860000Y-74870000D01*
X148530000Y-76200000D02*
X148530000Y-74870000D01*
X148530000Y-77470000D02*
X151190000Y-77470000D01*
X151190000Y-77470000D02*
X151190000Y-105470000D01*
X148530000Y-77470000D02*
X148530000Y-105470000D01*
X148530000Y-105470000D02*
X151190000Y-105470000D01*
%TO.C,J4*%
D13*
X136318666Y-103592380D02*
X136318666Y-104306666D01*
X136271047Y-104449523D01*
X136175809Y-104544761D01*
X136032952Y-104592380D01*
X135937714Y-104592380D01*
X137223428Y-103925714D02*
X137223428Y-104592380D01*
X136985333Y-103544761D02*
X136747238Y-104259047D01*
X137366285Y-104259047D01*
%TO.C,D2*%
D11*
X144758228Y-90514714D02*
X144395371Y-90514714D01*
X144359085Y-90877571D01*
X144395371Y-90841285D01*
X144467942Y-90805000D01*
X144649371Y-90805000D01*
X144721942Y-90841285D01*
X144758228Y-90877571D01*
X144794514Y-90950142D01*
X144794514Y-91131571D01*
X144758228Y-91204142D01*
X144721942Y-91240428D01*
X144649371Y-91276714D01*
X144467942Y-91276714D01*
X144395371Y-91240428D01*
X144359085Y-91204142D01*
X145012228Y-90514714D02*
X145266228Y-91276714D01*
X145520228Y-90514714D01*
X145592800Y-91349285D02*
X146173371Y-91349285D01*
X146499942Y-90514714D02*
X146645085Y-90514714D01*
X146717657Y-90551000D01*
X146790228Y-90623571D01*
X146826514Y-90768714D01*
X146826514Y-91022714D01*
X146790228Y-91167857D01*
X146717657Y-91240428D01*
X146645085Y-91276714D01*
X146499942Y-91276714D01*
X146427371Y-91240428D01*
X146354800Y-91167857D01*
X146318514Y-91022714D01*
X146318514Y-90768714D01*
X146354800Y-90623571D01*
X146427371Y-90551000D01*
X146499942Y-90514714D01*
X147153085Y-91276714D02*
X147153085Y-90514714D01*
X147588514Y-91276714D02*
X147261942Y-90841285D01*
X147588514Y-90514714D02*
X147153085Y-90950142D01*
%TO.C,J1*%
D13*
X145767466Y-70470780D02*
X145767466Y-71185066D01*
X145719847Y-71327923D01*
X145624609Y-71423161D01*
X145481752Y-71470780D01*
X145386514Y-71470780D01*
X146767466Y-71470780D02*
X146196038Y-71470780D01*
X146481752Y-71470780D02*
X146481752Y-70470780D01*
X146386514Y-70613638D01*
X146291276Y-70708876D01*
X146196038Y-70756495D01*
%TO.C,JP1*%
X131754666Y-69556380D02*
X131754666Y-70270666D01*
X131707047Y-70413523D01*
X131611809Y-70508761D01*
X131468952Y-70556380D01*
X131373714Y-70556380D01*
X132230857Y-70556380D02*
X132230857Y-69556380D01*
X132611809Y-69556380D01*
X132707047Y-69604000D01*
X132754666Y-69651619D01*
X132802285Y-69746857D01*
X132802285Y-69889714D01*
X132754666Y-69984952D01*
X132707047Y-70032571D01*
X132611809Y-70080190D01*
X132230857Y-70080190D01*
X133754666Y-70556380D02*
X133183238Y-70556380D01*
X133468952Y-70556380D02*
X133468952Y-69556380D01*
X133373714Y-69699238D01*
X133278476Y-69794476D01*
X133183238Y-69842095D01*
%TD*%
M02*
