%TF.GenerationSoftware,KiCad,Pcbnew,5.1.6-c6e7f7d~87~ubuntu18.04.1*%
%TF.CreationDate,2020-09-16T17:40:28-07:00*%
%TF.ProjectId,feather-power-supply-sw-smd,66656174-6865-4722-9d70-6f7765722d73,rev?*%
%TF.SameCoordinates,Original*%
%TF.FileFunction,Copper,L2,Bot*%
%TF.FilePolarity,Positive*%
%FSLAX46Y46*%
G04 Gerber Fmt 4.6, Leading zero omitted, Abs format (unit mm)*
G04 Created by KiCad (PCBNEW 5.1.6-c6e7f7d~87~ubuntu18.04.1) date 2020-09-16 17:40:28*
%MOMM*%
%LPD*%
G01*
G04 APERTURE LIST*
%TA.AperFunction,ComponentPad*%
%ADD10C,1.600000*%
%TD*%
%TA.AperFunction,ComponentPad*%
%ADD11O,1.700000X1.700000*%
%TD*%
%TA.AperFunction,ComponentPad*%
%ADD12R,1.700000X1.700000*%
%TD*%
%TA.AperFunction,ComponentPad*%
%ADD13R,2.600000X2.600000*%
%TD*%
%TA.AperFunction,ComponentPad*%
%ADD14C,2.600000*%
%TD*%
%TA.AperFunction,ComponentPad*%
%ADD15C,5.000000*%
%TD*%
%TA.AperFunction,ViaPad*%
%ADD16C,0.685800*%
%TD*%
%TA.AperFunction,Conductor*%
%ADD17C,0.609600*%
%TD*%
%TA.AperFunction,Conductor*%
%ADD18C,0.254000*%
%TD*%
G04 APERTURE END LIST*
D10*
%TO.P,REF\u002A\u002A,18*%
%TO.N,N/C*%
X137414000Y-91440000D03*
%TO.P,REF\u002A\u002A,17*%
X139954000Y-91440000D03*
%TO.P,REF\u002A\u002A,20*%
X132334000Y-91414600D03*
%TO.P,REF\u002A\u002A,19*%
X134874000Y-91440000D03*
%TO.P,REF\u002A\u002A,16*%
X142494000Y-91440000D03*
%TO.P,REF\u002A\u002A,12*%
X139954000Y-93980000D03*
%TO.P,REF\u002A\u002A,15*%
X132334000Y-93980000D03*
%TO.P,REF\u002A\u002A,11*%
X142494000Y-93980000D03*
%TO.P,REF\u002A\u002A,14*%
X134874000Y-93980000D03*
%TO.P,REF\u002A\u002A,13*%
X137414000Y-93980000D03*
%TO.P,REF\u002A\u002A,9*%
X134874000Y-96520000D03*
%TO.P,REF\u002A\u002A,10*%
X132334000Y-96520000D03*
%TO.P,REF\u002A\u002A,7*%
X139954000Y-96520000D03*
%TO.P,REF\u002A\u002A,8*%
X137414000Y-96520000D03*
%TO.P,REF\u002A\u002A,6*%
X142494000Y-96520000D03*
%TO.P,REF\u002A\u002A,1*%
X142494000Y-99060000D03*
%TO.P,REF\u002A\u002A,3*%
X137414000Y-99060000D03*
%TO.P,REF\u002A\u002A,4*%
X134874000Y-99060000D03*
%TO.P,REF\u002A\u002A,5*%
X132334000Y-99060000D03*
%TO.P,REF\u002A\u002A,2*%
X139954000Y-99060000D03*
%TD*%
D11*
%TO.P,J5,4*%
%TO.N,/SDA*%
X134874000Y-104063800D03*
%TO.P,J5,3*%
%TO.N,/SCL*%
X137414000Y-104063800D03*
%TO.P,J5,2*%
%TO.N,VUSB*%
X139954000Y-104063800D03*
D12*
%TO.P,J5,1*%
%TO.N,GND*%
X142494000Y-104063800D03*
%TD*%
D13*
%TO.P,J1,1*%
%TO.N,Net-(F1-Pad1)*%
X142176500Y-65366900D03*
D14*
%TO.P,J1,2*%
%TO.N,GND*%
X137176500Y-65366900D03*
%TD*%
D15*
%TO.P,H2,1*%
%TO.N,GND*%
X148615400Y-61671200D03*
%TD*%
%TO.P,H1,1*%
%TO.N,GND*%
X130810000Y-61696600D03*
%TD*%
D11*
%TO.P,J3,16*%
%TO.N,Net-(J3-Pad16)*%
X129565400Y-104089200D03*
%TO.P,J3,15*%
%TO.N,Net-(J3-Pad15)*%
X129565400Y-101549200D03*
%TO.P,J3,14*%
%TO.N,Net-(J3-Pad14)*%
X129565400Y-99009200D03*
%TO.P,J3,13*%
%TO.N,Net-(J3-Pad13)*%
X129565400Y-96469200D03*
%TO.P,J3,12*%
%TO.N,Net-(J3-Pad12)*%
X129565400Y-93929200D03*
%TO.P,J3,11*%
%TO.N,Net-(J3-Pad11)*%
X129565400Y-91389200D03*
%TO.P,J3,10*%
%TO.N,Net-(J3-Pad10)*%
X129565400Y-88849200D03*
%TO.P,J3,9*%
%TO.N,Net-(J3-Pad9)*%
X129565400Y-86309200D03*
%TO.P,J3,8*%
%TO.N,Net-(J3-Pad8)*%
X129565400Y-83769200D03*
%TO.P,J3,7*%
%TO.N,Net-(J3-Pad7)*%
X129565400Y-81229200D03*
%TO.P,J3,6*%
%TO.N,/A1*%
X129565400Y-78689200D03*
%TO.P,J3,5*%
%TO.N,Net-(J3-Pad5)*%
X129565400Y-76149200D03*
%TO.P,J3,4*%
%TO.N,GND*%
X129565400Y-73609200D03*
%TO.P,J3,3*%
%TO.N,Net-(J3-Pad3)*%
X129565400Y-71069200D03*
%TO.P,J3,2*%
%TO.N,Net-(J3-Pad2)*%
X129565400Y-68529200D03*
D12*
%TO.P,J3,1*%
%TO.N,Net-(J3-Pad1)*%
X129565400Y-65989200D03*
%TD*%
%TO.P,J2,1*%
%TO.N,Net-(J2-Pad1)*%
X149885400Y-65989200D03*
D11*
%TO.P,J2,2*%
%TO.N,+3V3*%
X149885400Y-68529200D03*
%TO.P,J2,3*%
%TO.N,Net-(J2-Pad3)*%
X149885400Y-71069200D03*
%TO.P,J2,4*%
%TO.N,VUSB*%
X149885400Y-73609200D03*
%TO.P,J2,5*%
%TO.N,Net-(J2-Pad5)*%
X149885400Y-76149200D03*
%TO.P,J2,6*%
%TO.N,Net-(J2-Pad6)*%
X149885400Y-78689200D03*
%TO.P,J2,7*%
%TO.N,Net-(J2-Pad7)*%
X149885400Y-81229200D03*
%TO.P,J2,8*%
%TO.N,Net-(J2-Pad8)*%
X149885400Y-83769200D03*
%TO.P,J2,9*%
%TO.N,Net-(J2-Pad9)*%
X149885400Y-86309200D03*
%TO.P,J2,10*%
%TO.N,Net-(J2-Pad10)*%
X149885400Y-88849200D03*
%TO.P,J2,11*%
%TO.N,/SCL*%
X149885400Y-91389200D03*
%TO.P,J2,12*%
%TO.N,/SDA*%
X149885400Y-93929200D03*
%TD*%
D16*
%TO.N,VUSB*%
X147828012Y-100330000D03*
%TO.N,GND*%
X133591300Y-69164200D03*
X145986500Y-88633300D03*
X146875500Y-88633300D03*
X134620000Y-59994800D03*
X135921750Y-59994800D03*
X138525250Y-59994800D03*
X137223500Y-59994800D03*
X142430500Y-59994800D03*
X143732250Y-59994800D03*
X141128750Y-59994800D03*
X145034000Y-59994800D03*
X139827000Y-59994800D03*
X131800600Y-84861400D03*
X132537200Y-84861400D03*
X135229600Y-86207600D03*
X136067800Y-86207600D03*
X142138400Y-76276200D03*
X142138400Y-77165200D03*
X142011400Y-72847200D03*
X142011400Y-73736200D03*
X146685000Y-96215200D03*
X139088090Y-109016800D03*
X144084962Y-109016800D03*
X135340436Y-109016800D03*
X142835744Y-109016800D03*
X134091218Y-109016800D03*
X137838872Y-109016800D03*
X136589654Y-109016800D03*
X141586526Y-109016800D03*
X140337308Y-109016800D03*
X145334180Y-109016800D03*
X133629400Y-80010000D03*
X141211300Y-84048600D03*
X141211300Y-83210400D03*
X139979400Y-78435200D03*
X140411200Y-83210400D03*
X132842000Y-109016800D03*
X146583400Y-109004100D03*
X141478000Y-69900800D03*
X143976436Y-69900800D03*
X140101780Y-75006200D03*
X142011400Y-75006200D03*
X142011400Y-71501000D03*
X140101780Y-71501000D03*
X140335000Y-89789000D03*
X144526000Y-86487000D03*
X144780000Y-94996000D03*
X144272000Y-101854000D03*
%TD*%
D17*
%TO.N,VUSB*%
X147828012Y-75666588D02*
X147828012Y-100330000D01*
X149885400Y-73609200D02*
X147828012Y-75666588D01*
%TD*%
D18*
%TO.N,GND*%
G36*
X145994282Y-59923827D02*
G01*
X145703751Y-60468757D01*
X145525113Y-61059896D01*
X145465232Y-61674528D01*
X145526410Y-62289031D01*
X145706297Y-62879792D01*
X145994282Y-63418573D01*
X146412252Y-63694743D01*
X148435795Y-61671200D01*
X148421653Y-61657058D01*
X148601258Y-61477453D01*
X148615400Y-61491595D01*
X148629543Y-61477453D01*
X148809148Y-61657058D01*
X148795005Y-61671200D01*
X148809148Y-61685343D01*
X148629543Y-61864948D01*
X148615400Y-61850805D01*
X146591857Y-63874348D01*
X146868027Y-64292318D01*
X147412957Y-64582849D01*
X148004096Y-64761487D01*
X148491873Y-64809009D01*
X148445898Y-64895020D01*
X148409588Y-65014718D01*
X148397328Y-65139200D01*
X148397328Y-66839200D01*
X148409588Y-66963682D01*
X148445898Y-67083380D01*
X148504863Y-67193694D01*
X148584215Y-67290385D01*
X148680906Y-67369737D01*
X148791220Y-67428702D01*
X148863780Y-67450713D01*
X148731925Y-67582568D01*
X148569410Y-67825789D01*
X148457468Y-68096042D01*
X148400400Y-68382940D01*
X148400400Y-68675460D01*
X148457468Y-68962358D01*
X148569410Y-69232611D01*
X148731925Y-69475832D01*
X148938768Y-69682675D01*
X149113160Y-69799200D01*
X148938768Y-69915725D01*
X148731925Y-70122568D01*
X148569410Y-70365789D01*
X148457468Y-70636042D01*
X148400400Y-70922940D01*
X148400400Y-71215460D01*
X148457468Y-71502358D01*
X148569410Y-71772611D01*
X148731925Y-72015832D01*
X148938768Y-72222675D01*
X149113160Y-72339200D01*
X148938768Y-72455725D01*
X148731925Y-72662568D01*
X148569410Y-72905789D01*
X148457468Y-73176042D01*
X148400400Y-73462940D01*
X148400400Y-73755460D01*
X148402003Y-73763520D01*
X147196127Y-74969397D01*
X147160258Y-74998834D01*
X147042816Y-75141937D01*
X146955549Y-75305203D01*
X146901810Y-75482356D01*
X146888212Y-75620422D01*
X146888212Y-75620431D01*
X146883666Y-75666588D01*
X146888212Y-75712745D01*
X146888213Y-100043499D01*
X146887692Y-100044757D01*
X146850112Y-100233685D01*
X146850112Y-100426315D01*
X146887692Y-100615243D01*
X146961408Y-100793210D01*
X147068427Y-100953375D01*
X147204637Y-101089585D01*
X147364802Y-101196604D01*
X147542769Y-101270320D01*
X147731697Y-101307900D01*
X147924327Y-101307900D01*
X148113255Y-101270320D01*
X148291222Y-101196604D01*
X148451387Y-101089585D01*
X148587597Y-100953375D01*
X148694616Y-100793210D01*
X148768332Y-100615243D01*
X148805912Y-100426315D01*
X148805912Y-100233685D01*
X148768332Y-100044757D01*
X148767812Y-100043502D01*
X148767812Y-94911719D01*
X148938768Y-95082675D01*
X149181989Y-95245190D01*
X149452242Y-95357132D01*
X149739140Y-95414200D01*
X150031660Y-95414200D01*
X150318558Y-95357132D01*
X150495401Y-95283882D01*
X150495401Y-106361868D01*
X150374485Y-106069950D01*
X150157251Y-105744836D01*
X149880764Y-105468349D01*
X149555650Y-105251115D01*
X149194403Y-105101482D01*
X148810905Y-105025200D01*
X148419895Y-105025200D01*
X148036397Y-105101482D01*
X147675150Y-105251115D01*
X147350036Y-105468349D01*
X147073549Y-105744836D01*
X146856315Y-106069950D01*
X146706682Y-106431197D01*
X146630400Y-106814695D01*
X146630400Y-107205705D01*
X146706682Y-107589203D01*
X146856315Y-107950450D01*
X147073549Y-108275564D01*
X147350036Y-108552051D01*
X147675150Y-108769285D01*
X148036397Y-108918918D01*
X148419895Y-108995200D01*
X148810905Y-108995200D01*
X149194403Y-108918918D01*
X149546382Y-108773124D01*
X149440981Y-108860319D01*
X149031562Y-109081691D01*
X148586935Y-109219326D01*
X148093390Y-109271200D01*
X131121678Y-109271200D01*
X130675518Y-109227454D01*
X130277401Y-109107255D01*
X129910215Y-108912019D01*
X129587939Y-108649177D01*
X129330163Y-108337578D01*
X129544636Y-108552051D01*
X129869750Y-108769285D01*
X130230997Y-108918918D01*
X130614495Y-108995200D01*
X131005505Y-108995200D01*
X131389003Y-108918918D01*
X131750250Y-108769285D01*
X132075364Y-108552051D01*
X132351851Y-108275564D01*
X132569085Y-107950450D01*
X132718718Y-107589203D01*
X132795000Y-107205705D01*
X132795000Y-106814695D01*
X132718718Y-106431197D01*
X132569085Y-106069950D01*
X132351851Y-105744836D01*
X132075364Y-105468349D01*
X131750250Y-105251115D01*
X131389003Y-105101482D01*
X131005505Y-105025200D01*
X130725979Y-105025200D01*
X130881390Y-104792611D01*
X130993332Y-104522358D01*
X131050400Y-104235460D01*
X131050400Y-103942940D01*
X131045348Y-103917540D01*
X133389000Y-103917540D01*
X133389000Y-104210060D01*
X133446068Y-104496958D01*
X133558010Y-104767211D01*
X133720525Y-105010432D01*
X133927368Y-105217275D01*
X134170589Y-105379790D01*
X134440842Y-105491732D01*
X134727740Y-105548800D01*
X135020260Y-105548800D01*
X135307158Y-105491732D01*
X135577411Y-105379790D01*
X135820632Y-105217275D01*
X136027475Y-105010432D01*
X136144000Y-104836040D01*
X136260525Y-105010432D01*
X136467368Y-105217275D01*
X136710589Y-105379790D01*
X136980842Y-105491732D01*
X137267740Y-105548800D01*
X137560260Y-105548800D01*
X137847158Y-105491732D01*
X138117411Y-105379790D01*
X138360632Y-105217275D01*
X138567475Y-105010432D01*
X138684000Y-104836040D01*
X138800525Y-105010432D01*
X139007368Y-105217275D01*
X139250589Y-105379790D01*
X139520842Y-105491732D01*
X139807740Y-105548800D01*
X140100260Y-105548800D01*
X140387158Y-105491732D01*
X140657411Y-105379790D01*
X140900632Y-105217275D01*
X141032487Y-105085420D01*
X141054498Y-105157980D01*
X141113463Y-105268294D01*
X141192815Y-105364985D01*
X141289506Y-105444337D01*
X141399820Y-105503302D01*
X141519518Y-105539612D01*
X141644000Y-105551872D01*
X142208250Y-105548800D01*
X142367000Y-105390050D01*
X142367000Y-104190800D01*
X142621000Y-104190800D01*
X142621000Y-105390050D01*
X142779750Y-105548800D01*
X143344000Y-105551872D01*
X143468482Y-105539612D01*
X143588180Y-105503302D01*
X143698494Y-105444337D01*
X143795185Y-105364985D01*
X143874537Y-105268294D01*
X143933502Y-105157980D01*
X143969812Y-105038282D01*
X143982072Y-104913800D01*
X143979000Y-104349550D01*
X143820250Y-104190800D01*
X142621000Y-104190800D01*
X142367000Y-104190800D01*
X142347000Y-104190800D01*
X142347000Y-103936800D01*
X142367000Y-103936800D01*
X142367000Y-102737550D01*
X142621000Y-102737550D01*
X142621000Y-103936800D01*
X143820250Y-103936800D01*
X143979000Y-103778050D01*
X143982072Y-103213800D01*
X143969812Y-103089318D01*
X143933502Y-102969620D01*
X143874537Y-102859306D01*
X143795185Y-102762615D01*
X143698494Y-102683263D01*
X143588180Y-102624298D01*
X143468482Y-102587988D01*
X143344000Y-102575728D01*
X142779750Y-102578800D01*
X142621000Y-102737550D01*
X142367000Y-102737550D01*
X142208250Y-102578800D01*
X141644000Y-102575728D01*
X141519518Y-102587988D01*
X141399820Y-102624298D01*
X141289506Y-102683263D01*
X141192815Y-102762615D01*
X141113463Y-102859306D01*
X141054498Y-102969620D01*
X141032487Y-103042180D01*
X140900632Y-102910325D01*
X140657411Y-102747810D01*
X140387158Y-102635868D01*
X140100260Y-102578800D01*
X139807740Y-102578800D01*
X139520842Y-102635868D01*
X139250589Y-102747810D01*
X139007368Y-102910325D01*
X138800525Y-103117168D01*
X138684000Y-103291560D01*
X138567475Y-103117168D01*
X138360632Y-102910325D01*
X138117411Y-102747810D01*
X137847158Y-102635868D01*
X137560260Y-102578800D01*
X137267740Y-102578800D01*
X136980842Y-102635868D01*
X136710589Y-102747810D01*
X136467368Y-102910325D01*
X136260525Y-103117168D01*
X136144000Y-103291560D01*
X136027475Y-103117168D01*
X135820632Y-102910325D01*
X135577411Y-102747810D01*
X135307158Y-102635868D01*
X135020260Y-102578800D01*
X134727740Y-102578800D01*
X134440842Y-102635868D01*
X134170589Y-102747810D01*
X133927368Y-102910325D01*
X133720525Y-103117168D01*
X133558010Y-103360389D01*
X133446068Y-103630642D01*
X133389000Y-103917540D01*
X131045348Y-103917540D01*
X130993332Y-103656042D01*
X130881390Y-103385789D01*
X130718875Y-103142568D01*
X130512032Y-102935725D01*
X130337640Y-102819200D01*
X130512032Y-102702675D01*
X130718875Y-102495832D01*
X130881390Y-102252611D01*
X130993332Y-101982358D01*
X131050400Y-101695460D01*
X131050400Y-101402940D01*
X130993332Y-101116042D01*
X130881390Y-100845789D01*
X130718875Y-100602568D01*
X130512032Y-100395725D01*
X130337640Y-100279200D01*
X130512032Y-100162675D01*
X130718875Y-99955832D01*
X130881390Y-99712611D01*
X130966239Y-99507767D01*
X131062320Y-99739727D01*
X131219363Y-99974759D01*
X131419241Y-100174637D01*
X131654273Y-100331680D01*
X131915426Y-100439853D01*
X132192665Y-100495000D01*
X132475335Y-100495000D01*
X132752574Y-100439853D01*
X133013727Y-100331680D01*
X133248759Y-100174637D01*
X133448637Y-99974759D01*
X133604000Y-99742241D01*
X133759363Y-99974759D01*
X133959241Y-100174637D01*
X134194273Y-100331680D01*
X134455426Y-100439853D01*
X134732665Y-100495000D01*
X135015335Y-100495000D01*
X135292574Y-100439853D01*
X135553727Y-100331680D01*
X135788759Y-100174637D01*
X135988637Y-99974759D01*
X136144000Y-99742241D01*
X136299363Y-99974759D01*
X136499241Y-100174637D01*
X136734273Y-100331680D01*
X136995426Y-100439853D01*
X137272665Y-100495000D01*
X137555335Y-100495000D01*
X137832574Y-100439853D01*
X138093727Y-100331680D01*
X138328759Y-100174637D01*
X138528637Y-99974759D01*
X138684000Y-99742241D01*
X138839363Y-99974759D01*
X139039241Y-100174637D01*
X139274273Y-100331680D01*
X139535426Y-100439853D01*
X139812665Y-100495000D01*
X140095335Y-100495000D01*
X140372574Y-100439853D01*
X140633727Y-100331680D01*
X140868759Y-100174637D01*
X141068637Y-99974759D01*
X141224000Y-99742241D01*
X141379363Y-99974759D01*
X141579241Y-100174637D01*
X141814273Y-100331680D01*
X142075426Y-100439853D01*
X142352665Y-100495000D01*
X142635335Y-100495000D01*
X142912574Y-100439853D01*
X143173727Y-100331680D01*
X143408759Y-100174637D01*
X143608637Y-99974759D01*
X143765680Y-99739727D01*
X143873853Y-99478574D01*
X143929000Y-99201335D01*
X143929000Y-98918665D01*
X143873853Y-98641426D01*
X143765680Y-98380273D01*
X143608637Y-98145241D01*
X143408759Y-97945363D01*
X143176241Y-97790000D01*
X143408759Y-97634637D01*
X143608637Y-97434759D01*
X143765680Y-97199727D01*
X143873853Y-96938574D01*
X143929000Y-96661335D01*
X143929000Y-96378665D01*
X143873853Y-96101426D01*
X143765680Y-95840273D01*
X143608637Y-95605241D01*
X143408759Y-95405363D01*
X143176241Y-95250000D01*
X143408759Y-95094637D01*
X143608637Y-94894759D01*
X143765680Y-94659727D01*
X143873853Y-94398574D01*
X143929000Y-94121335D01*
X143929000Y-93838665D01*
X143873853Y-93561426D01*
X143765680Y-93300273D01*
X143608637Y-93065241D01*
X143408759Y-92865363D01*
X143176241Y-92710000D01*
X143408759Y-92554637D01*
X143608637Y-92354759D01*
X143765680Y-92119727D01*
X143873853Y-91858574D01*
X143929000Y-91581335D01*
X143929000Y-91298665D01*
X143873853Y-91021426D01*
X143765680Y-90760273D01*
X143608637Y-90525241D01*
X143408759Y-90325363D01*
X143173727Y-90168320D01*
X142912574Y-90060147D01*
X142635335Y-90005000D01*
X142352665Y-90005000D01*
X142075426Y-90060147D01*
X141814273Y-90168320D01*
X141579241Y-90325363D01*
X141379363Y-90525241D01*
X141224000Y-90757759D01*
X141068637Y-90525241D01*
X140868759Y-90325363D01*
X140633727Y-90168320D01*
X140372574Y-90060147D01*
X140095335Y-90005000D01*
X139812665Y-90005000D01*
X139535426Y-90060147D01*
X139274273Y-90168320D01*
X139039241Y-90325363D01*
X138839363Y-90525241D01*
X138684000Y-90757759D01*
X138528637Y-90525241D01*
X138328759Y-90325363D01*
X138093727Y-90168320D01*
X137832574Y-90060147D01*
X137555335Y-90005000D01*
X137272665Y-90005000D01*
X136995426Y-90060147D01*
X136734273Y-90168320D01*
X136499241Y-90325363D01*
X136299363Y-90525241D01*
X136144000Y-90757759D01*
X135988637Y-90525241D01*
X135788759Y-90325363D01*
X135553727Y-90168320D01*
X135292574Y-90060147D01*
X135015335Y-90005000D01*
X134732665Y-90005000D01*
X134455426Y-90060147D01*
X134194273Y-90168320D01*
X133959241Y-90325363D01*
X133759363Y-90525241D01*
X133610889Y-90747449D01*
X133605680Y-90734873D01*
X133448637Y-90499841D01*
X133248759Y-90299963D01*
X133013727Y-90142920D01*
X132752574Y-90034747D01*
X132475335Y-89979600D01*
X132192665Y-89979600D01*
X131915426Y-90034747D01*
X131654273Y-90142920D01*
X131419241Y-90299963D01*
X131219363Y-90499841D01*
X131062320Y-90734873D01*
X130982020Y-90928733D01*
X130881390Y-90685789D01*
X130718875Y-90442568D01*
X130512032Y-90235725D01*
X130337640Y-90119200D01*
X130512032Y-90002675D01*
X130718875Y-89795832D01*
X130881390Y-89552611D01*
X130993332Y-89282358D01*
X131050400Y-88995460D01*
X131050400Y-88702940D01*
X130993332Y-88416042D01*
X130881390Y-88145789D01*
X130718875Y-87902568D01*
X130512032Y-87695725D01*
X130337640Y-87579200D01*
X130512032Y-87462675D01*
X130718875Y-87255832D01*
X130881390Y-87012611D01*
X130993332Y-86742358D01*
X131050400Y-86455460D01*
X131050400Y-86162940D01*
X130993332Y-85876042D01*
X130881390Y-85605789D01*
X130718875Y-85362568D01*
X130512032Y-85155725D01*
X130337640Y-85039200D01*
X130512032Y-84922675D01*
X130718875Y-84715832D01*
X130881390Y-84472611D01*
X130993332Y-84202358D01*
X131050400Y-83915460D01*
X131050400Y-83622940D01*
X130993332Y-83336042D01*
X130881390Y-83065789D01*
X130718875Y-82822568D01*
X130512032Y-82615725D01*
X130337640Y-82499200D01*
X130512032Y-82382675D01*
X130718875Y-82175832D01*
X130881390Y-81932611D01*
X130993332Y-81662358D01*
X131050400Y-81375460D01*
X131050400Y-81082940D01*
X130993332Y-80796042D01*
X130881390Y-80525789D01*
X130718875Y-80282568D01*
X130512032Y-80075725D01*
X130337640Y-79959200D01*
X130512032Y-79842675D01*
X130718875Y-79635832D01*
X130881390Y-79392611D01*
X130993332Y-79122358D01*
X131050400Y-78835460D01*
X131050400Y-78542940D01*
X130993332Y-78256042D01*
X130881390Y-77985789D01*
X130718875Y-77742568D01*
X130512032Y-77535725D01*
X130337640Y-77419200D01*
X130512032Y-77302675D01*
X130718875Y-77095832D01*
X130881390Y-76852611D01*
X130993332Y-76582358D01*
X131050400Y-76295460D01*
X131050400Y-76002940D01*
X130993332Y-75716042D01*
X130881390Y-75445789D01*
X130718875Y-75202568D01*
X130512032Y-74995725D01*
X130329866Y-74874005D01*
X130446755Y-74804378D01*
X130662988Y-74609469D01*
X130837041Y-74376120D01*
X130962225Y-74113299D01*
X131006876Y-73966090D01*
X130885555Y-73736200D01*
X129692400Y-73736200D01*
X129692400Y-73756200D01*
X129438400Y-73756200D01*
X129438400Y-73736200D01*
X129418400Y-73736200D01*
X129418400Y-73482200D01*
X129438400Y-73482200D01*
X129438400Y-73462200D01*
X129692400Y-73462200D01*
X129692400Y-73482200D01*
X130885555Y-73482200D01*
X131006876Y-73252310D01*
X130962225Y-73105101D01*
X130837041Y-72842280D01*
X130662988Y-72608931D01*
X130446755Y-72414022D01*
X130329866Y-72344395D01*
X130512032Y-72222675D01*
X130718875Y-72015832D01*
X130881390Y-71772611D01*
X130993332Y-71502358D01*
X131050400Y-71215460D01*
X131050400Y-70922940D01*
X130993332Y-70636042D01*
X130881390Y-70365789D01*
X130718875Y-70122568D01*
X130512032Y-69915725D01*
X130337640Y-69799200D01*
X130512032Y-69682675D01*
X130718875Y-69475832D01*
X130881390Y-69232611D01*
X130993332Y-68962358D01*
X131050400Y-68675460D01*
X131050400Y-68382940D01*
X130993332Y-68096042D01*
X130881390Y-67825789D01*
X130718875Y-67582568D01*
X130587020Y-67450713D01*
X130659580Y-67428702D01*
X130769894Y-67369737D01*
X130866585Y-67290385D01*
X130945937Y-67193694D01*
X131004902Y-67083380D01*
X131041212Y-66963682D01*
X131053472Y-66839200D01*
X131053472Y-66716124D01*
X136006881Y-66716124D01*
X136138817Y-67011212D01*
X136479545Y-67182059D01*
X136847057Y-67283150D01*
X137227229Y-67310601D01*
X137605451Y-67263357D01*
X137967190Y-67143233D01*
X138214183Y-67011212D01*
X138346119Y-66716124D01*
X137176500Y-65546505D01*
X136006881Y-66716124D01*
X131053472Y-66716124D01*
X131053472Y-65417629D01*
X135232799Y-65417629D01*
X135280043Y-65795851D01*
X135400167Y-66157590D01*
X135532188Y-66404583D01*
X135827276Y-66536519D01*
X136996895Y-65366900D01*
X137356105Y-65366900D01*
X138525724Y-66536519D01*
X138820812Y-66404583D01*
X138991659Y-66063855D01*
X139092750Y-65696343D01*
X139120201Y-65316171D01*
X139072957Y-64937949D01*
X138952833Y-64576210D01*
X138820812Y-64329217D01*
X138525724Y-64197281D01*
X137356105Y-65366900D01*
X136996895Y-65366900D01*
X135827276Y-64197281D01*
X135532188Y-64329217D01*
X135361341Y-64669945D01*
X135260250Y-65037457D01*
X135232799Y-65417629D01*
X131053472Y-65417629D01*
X131053472Y-65139200D01*
X131041212Y-65014718D01*
X131004902Y-64895020D01*
X130970734Y-64831097D01*
X131427831Y-64785590D01*
X132018592Y-64605703D01*
X132557373Y-64317718D01*
X132755623Y-64017676D01*
X136006881Y-64017676D01*
X137176500Y-65187295D01*
X138296895Y-64066900D01*
X140238428Y-64066900D01*
X140238428Y-66666900D01*
X140250688Y-66791382D01*
X140286998Y-66911080D01*
X140345963Y-67021394D01*
X140425315Y-67118085D01*
X140522006Y-67197437D01*
X140632320Y-67256402D01*
X140752018Y-67292712D01*
X140876500Y-67304972D01*
X143476500Y-67304972D01*
X143600982Y-67292712D01*
X143720680Y-67256402D01*
X143830994Y-67197437D01*
X143927685Y-67118085D01*
X144007037Y-67021394D01*
X144066002Y-66911080D01*
X144102312Y-66791382D01*
X144114572Y-66666900D01*
X144114572Y-64066900D01*
X144102312Y-63942418D01*
X144066002Y-63822720D01*
X144007037Y-63712406D01*
X143927685Y-63615715D01*
X143830994Y-63536363D01*
X143720680Y-63477398D01*
X143600982Y-63441088D01*
X143476500Y-63428828D01*
X140876500Y-63428828D01*
X140752018Y-63441088D01*
X140632320Y-63477398D01*
X140522006Y-63536363D01*
X140425315Y-63615715D01*
X140345963Y-63712406D01*
X140286998Y-63822720D01*
X140250688Y-63942418D01*
X140238428Y-64066900D01*
X138296895Y-64066900D01*
X138346119Y-64017676D01*
X138214183Y-63722588D01*
X137873455Y-63551741D01*
X137505943Y-63450650D01*
X137125771Y-63423199D01*
X136747549Y-63470443D01*
X136385810Y-63590567D01*
X136138817Y-63722588D01*
X136006881Y-64017676D01*
X132755623Y-64017676D01*
X132833543Y-63899748D01*
X130810000Y-61876205D01*
X130795858Y-61890348D01*
X130616253Y-61710743D01*
X130630395Y-61696600D01*
X130616253Y-61682458D01*
X130795858Y-61502853D01*
X130810000Y-61516995D01*
X130824143Y-61502853D01*
X131003748Y-61682458D01*
X130989605Y-61696600D01*
X133013148Y-63720143D01*
X133431118Y-63443973D01*
X133721649Y-62899043D01*
X133900287Y-62307904D01*
X133960168Y-61693272D01*
X133898990Y-61078769D01*
X133719103Y-60488008D01*
X133431118Y-59949227D01*
X133191952Y-59791200D01*
X146195007Y-59791200D01*
X145994282Y-59923827D01*
G37*
X145994282Y-59923827D02*
X145703751Y-60468757D01*
X145525113Y-61059896D01*
X145465232Y-61674528D01*
X145526410Y-62289031D01*
X145706297Y-62879792D01*
X145994282Y-63418573D01*
X146412252Y-63694743D01*
X148435795Y-61671200D01*
X148421653Y-61657058D01*
X148601258Y-61477453D01*
X148615400Y-61491595D01*
X148629543Y-61477453D01*
X148809148Y-61657058D01*
X148795005Y-61671200D01*
X148809148Y-61685343D01*
X148629543Y-61864948D01*
X148615400Y-61850805D01*
X146591857Y-63874348D01*
X146868027Y-64292318D01*
X147412957Y-64582849D01*
X148004096Y-64761487D01*
X148491873Y-64809009D01*
X148445898Y-64895020D01*
X148409588Y-65014718D01*
X148397328Y-65139200D01*
X148397328Y-66839200D01*
X148409588Y-66963682D01*
X148445898Y-67083380D01*
X148504863Y-67193694D01*
X148584215Y-67290385D01*
X148680906Y-67369737D01*
X148791220Y-67428702D01*
X148863780Y-67450713D01*
X148731925Y-67582568D01*
X148569410Y-67825789D01*
X148457468Y-68096042D01*
X148400400Y-68382940D01*
X148400400Y-68675460D01*
X148457468Y-68962358D01*
X148569410Y-69232611D01*
X148731925Y-69475832D01*
X148938768Y-69682675D01*
X149113160Y-69799200D01*
X148938768Y-69915725D01*
X148731925Y-70122568D01*
X148569410Y-70365789D01*
X148457468Y-70636042D01*
X148400400Y-70922940D01*
X148400400Y-71215460D01*
X148457468Y-71502358D01*
X148569410Y-71772611D01*
X148731925Y-72015832D01*
X148938768Y-72222675D01*
X149113160Y-72339200D01*
X148938768Y-72455725D01*
X148731925Y-72662568D01*
X148569410Y-72905789D01*
X148457468Y-73176042D01*
X148400400Y-73462940D01*
X148400400Y-73755460D01*
X148402003Y-73763520D01*
X147196127Y-74969397D01*
X147160258Y-74998834D01*
X147042816Y-75141937D01*
X146955549Y-75305203D01*
X146901810Y-75482356D01*
X146888212Y-75620422D01*
X146888212Y-75620431D01*
X146883666Y-75666588D01*
X146888212Y-75712745D01*
X146888213Y-100043499D01*
X146887692Y-100044757D01*
X146850112Y-100233685D01*
X146850112Y-100426315D01*
X146887692Y-100615243D01*
X146961408Y-100793210D01*
X147068427Y-100953375D01*
X147204637Y-101089585D01*
X147364802Y-101196604D01*
X147542769Y-101270320D01*
X147731697Y-101307900D01*
X147924327Y-101307900D01*
X148113255Y-101270320D01*
X148291222Y-101196604D01*
X148451387Y-101089585D01*
X148587597Y-100953375D01*
X148694616Y-100793210D01*
X148768332Y-100615243D01*
X148805912Y-100426315D01*
X148805912Y-100233685D01*
X148768332Y-100044757D01*
X148767812Y-100043502D01*
X148767812Y-94911719D01*
X148938768Y-95082675D01*
X149181989Y-95245190D01*
X149452242Y-95357132D01*
X149739140Y-95414200D01*
X150031660Y-95414200D01*
X150318558Y-95357132D01*
X150495401Y-95283882D01*
X150495401Y-106361868D01*
X150374485Y-106069950D01*
X150157251Y-105744836D01*
X149880764Y-105468349D01*
X149555650Y-105251115D01*
X149194403Y-105101482D01*
X148810905Y-105025200D01*
X148419895Y-105025200D01*
X148036397Y-105101482D01*
X147675150Y-105251115D01*
X147350036Y-105468349D01*
X147073549Y-105744836D01*
X146856315Y-106069950D01*
X146706682Y-106431197D01*
X146630400Y-106814695D01*
X146630400Y-107205705D01*
X146706682Y-107589203D01*
X146856315Y-107950450D01*
X147073549Y-108275564D01*
X147350036Y-108552051D01*
X147675150Y-108769285D01*
X148036397Y-108918918D01*
X148419895Y-108995200D01*
X148810905Y-108995200D01*
X149194403Y-108918918D01*
X149546382Y-108773124D01*
X149440981Y-108860319D01*
X149031562Y-109081691D01*
X148586935Y-109219326D01*
X148093390Y-109271200D01*
X131121678Y-109271200D01*
X130675518Y-109227454D01*
X130277401Y-109107255D01*
X129910215Y-108912019D01*
X129587939Y-108649177D01*
X129330163Y-108337578D01*
X129544636Y-108552051D01*
X129869750Y-108769285D01*
X130230997Y-108918918D01*
X130614495Y-108995200D01*
X131005505Y-108995200D01*
X131389003Y-108918918D01*
X131750250Y-108769285D01*
X132075364Y-108552051D01*
X132351851Y-108275564D01*
X132569085Y-107950450D01*
X132718718Y-107589203D01*
X132795000Y-107205705D01*
X132795000Y-106814695D01*
X132718718Y-106431197D01*
X132569085Y-106069950D01*
X132351851Y-105744836D01*
X132075364Y-105468349D01*
X131750250Y-105251115D01*
X131389003Y-105101482D01*
X131005505Y-105025200D01*
X130725979Y-105025200D01*
X130881390Y-104792611D01*
X130993332Y-104522358D01*
X131050400Y-104235460D01*
X131050400Y-103942940D01*
X131045348Y-103917540D01*
X133389000Y-103917540D01*
X133389000Y-104210060D01*
X133446068Y-104496958D01*
X133558010Y-104767211D01*
X133720525Y-105010432D01*
X133927368Y-105217275D01*
X134170589Y-105379790D01*
X134440842Y-105491732D01*
X134727740Y-105548800D01*
X135020260Y-105548800D01*
X135307158Y-105491732D01*
X135577411Y-105379790D01*
X135820632Y-105217275D01*
X136027475Y-105010432D01*
X136144000Y-104836040D01*
X136260525Y-105010432D01*
X136467368Y-105217275D01*
X136710589Y-105379790D01*
X136980842Y-105491732D01*
X137267740Y-105548800D01*
X137560260Y-105548800D01*
X137847158Y-105491732D01*
X138117411Y-105379790D01*
X138360632Y-105217275D01*
X138567475Y-105010432D01*
X138684000Y-104836040D01*
X138800525Y-105010432D01*
X139007368Y-105217275D01*
X139250589Y-105379790D01*
X139520842Y-105491732D01*
X139807740Y-105548800D01*
X140100260Y-105548800D01*
X140387158Y-105491732D01*
X140657411Y-105379790D01*
X140900632Y-105217275D01*
X141032487Y-105085420D01*
X141054498Y-105157980D01*
X141113463Y-105268294D01*
X141192815Y-105364985D01*
X141289506Y-105444337D01*
X141399820Y-105503302D01*
X141519518Y-105539612D01*
X141644000Y-105551872D01*
X142208250Y-105548800D01*
X142367000Y-105390050D01*
X142367000Y-104190800D01*
X142621000Y-104190800D01*
X142621000Y-105390050D01*
X142779750Y-105548800D01*
X143344000Y-105551872D01*
X143468482Y-105539612D01*
X143588180Y-105503302D01*
X143698494Y-105444337D01*
X143795185Y-105364985D01*
X143874537Y-105268294D01*
X143933502Y-105157980D01*
X143969812Y-105038282D01*
X143982072Y-104913800D01*
X143979000Y-104349550D01*
X143820250Y-104190800D01*
X142621000Y-104190800D01*
X142367000Y-104190800D01*
X142347000Y-104190800D01*
X142347000Y-103936800D01*
X142367000Y-103936800D01*
X142367000Y-102737550D01*
X142621000Y-102737550D01*
X142621000Y-103936800D01*
X143820250Y-103936800D01*
X143979000Y-103778050D01*
X143982072Y-103213800D01*
X143969812Y-103089318D01*
X143933502Y-102969620D01*
X143874537Y-102859306D01*
X143795185Y-102762615D01*
X143698494Y-102683263D01*
X143588180Y-102624298D01*
X143468482Y-102587988D01*
X143344000Y-102575728D01*
X142779750Y-102578800D01*
X142621000Y-102737550D01*
X142367000Y-102737550D01*
X142208250Y-102578800D01*
X141644000Y-102575728D01*
X141519518Y-102587988D01*
X141399820Y-102624298D01*
X141289506Y-102683263D01*
X141192815Y-102762615D01*
X141113463Y-102859306D01*
X141054498Y-102969620D01*
X141032487Y-103042180D01*
X140900632Y-102910325D01*
X140657411Y-102747810D01*
X140387158Y-102635868D01*
X140100260Y-102578800D01*
X139807740Y-102578800D01*
X139520842Y-102635868D01*
X139250589Y-102747810D01*
X139007368Y-102910325D01*
X138800525Y-103117168D01*
X138684000Y-103291560D01*
X138567475Y-103117168D01*
X138360632Y-102910325D01*
X138117411Y-102747810D01*
X137847158Y-102635868D01*
X137560260Y-102578800D01*
X137267740Y-102578800D01*
X136980842Y-102635868D01*
X136710589Y-102747810D01*
X136467368Y-102910325D01*
X136260525Y-103117168D01*
X136144000Y-103291560D01*
X136027475Y-103117168D01*
X135820632Y-102910325D01*
X135577411Y-102747810D01*
X135307158Y-102635868D01*
X135020260Y-102578800D01*
X134727740Y-102578800D01*
X134440842Y-102635868D01*
X134170589Y-102747810D01*
X133927368Y-102910325D01*
X133720525Y-103117168D01*
X133558010Y-103360389D01*
X133446068Y-103630642D01*
X133389000Y-103917540D01*
X131045348Y-103917540D01*
X130993332Y-103656042D01*
X130881390Y-103385789D01*
X130718875Y-103142568D01*
X130512032Y-102935725D01*
X130337640Y-102819200D01*
X130512032Y-102702675D01*
X130718875Y-102495832D01*
X130881390Y-102252611D01*
X130993332Y-101982358D01*
X131050400Y-101695460D01*
X131050400Y-101402940D01*
X130993332Y-101116042D01*
X130881390Y-100845789D01*
X130718875Y-100602568D01*
X130512032Y-100395725D01*
X130337640Y-100279200D01*
X130512032Y-100162675D01*
X130718875Y-99955832D01*
X130881390Y-99712611D01*
X130966239Y-99507767D01*
X131062320Y-99739727D01*
X131219363Y-99974759D01*
X131419241Y-100174637D01*
X131654273Y-100331680D01*
X131915426Y-100439853D01*
X132192665Y-100495000D01*
X132475335Y-100495000D01*
X132752574Y-100439853D01*
X133013727Y-100331680D01*
X133248759Y-100174637D01*
X133448637Y-99974759D01*
X133604000Y-99742241D01*
X133759363Y-99974759D01*
X133959241Y-100174637D01*
X134194273Y-100331680D01*
X134455426Y-100439853D01*
X134732665Y-100495000D01*
X135015335Y-100495000D01*
X135292574Y-100439853D01*
X135553727Y-100331680D01*
X135788759Y-100174637D01*
X135988637Y-99974759D01*
X136144000Y-99742241D01*
X136299363Y-99974759D01*
X136499241Y-100174637D01*
X136734273Y-100331680D01*
X136995426Y-100439853D01*
X137272665Y-100495000D01*
X137555335Y-100495000D01*
X137832574Y-100439853D01*
X138093727Y-100331680D01*
X138328759Y-100174637D01*
X138528637Y-99974759D01*
X138684000Y-99742241D01*
X138839363Y-99974759D01*
X139039241Y-100174637D01*
X139274273Y-100331680D01*
X139535426Y-100439853D01*
X139812665Y-100495000D01*
X140095335Y-100495000D01*
X140372574Y-100439853D01*
X140633727Y-100331680D01*
X140868759Y-100174637D01*
X141068637Y-99974759D01*
X141224000Y-99742241D01*
X141379363Y-99974759D01*
X141579241Y-100174637D01*
X141814273Y-100331680D01*
X142075426Y-100439853D01*
X142352665Y-100495000D01*
X142635335Y-100495000D01*
X142912574Y-100439853D01*
X143173727Y-100331680D01*
X143408759Y-100174637D01*
X143608637Y-99974759D01*
X143765680Y-99739727D01*
X143873853Y-99478574D01*
X143929000Y-99201335D01*
X143929000Y-98918665D01*
X143873853Y-98641426D01*
X143765680Y-98380273D01*
X143608637Y-98145241D01*
X143408759Y-97945363D01*
X143176241Y-97790000D01*
X143408759Y-97634637D01*
X143608637Y-97434759D01*
X143765680Y-97199727D01*
X143873853Y-96938574D01*
X143929000Y-96661335D01*
X143929000Y-96378665D01*
X143873853Y-96101426D01*
X143765680Y-95840273D01*
X143608637Y-95605241D01*
X143408759Y-95405363D01*
X143176241Y-95250000D01*
X143408759Y-95094637D01*
X143608637Y-94894759D01*
X143765680Y-94659727D01*
X143873853Y-94398574D01*
X143929000Y-94121335D01*
X143929000Y-93838665D01*
X143873853Y-93561426D01*
X143765680Y-93300273D01*
X143608637Y-93065241D01*
X143408759Y-92865363D01*
X143176241Y-92710000D01*
X143408759Y-92554637D01*
X143608637Y-92354759D01*
X143765680Y-92119727D01*
X143873853Y-91858574D01*
X143929000Y-91581335D01*
X143929000Y-91298665D01*
X143873853Y-91021426D01*
X143765680Y-90760273D01*
X143608637Y-90525241D01*
X143408759Y-90325363D01*
X143173727Y-90168320D01*
X142912574Y-90060147D01*
X142635335Y-90005000D01*
X142352665Y-90005000D01*
X142075426Y-90060147D01*
X141814273Y-90168320D01*
X141579241Y-90325363D01*
X141379363Y-90525241D01*
X141224000Y-90757759D01*
X141068637Y-90525241D01*
X140868759Y-90325363D01*
X140633727Y-90168320D01*
X140372574Y-90060147D01*
X140095335Y-90005000D01*
X139812665Y-90005000D01*
X139535426Y-90060147D01*
X139274273Y-90168320D01*
X139039241Y-90325363D01*
X138839363Y-90525241D01*
X138684000Y-90757759D01*
X138528637Y-90525241D01*
X138328759Y-90325363D01*
X138093727Y-90168320D01*
X137832574Y-90060147D01*
X137555335Y-90005000D01*
X137272665Y-90005000D01*
X136995426Y-90060147D01*
X136734273Y-90168320D01*
X136499241Y-90325363D01*
X136299363Y-90525241D01*
X136144000Y-90757759D01*
X135988637Y-90525241D01*
X135788759Y-90325363D01*
X135553727Y-90168320D01*
X135292574Y-90060147D01*
X135015335Y-90005000D01*
X134732665Y-90005000D01*
X134455426Y-90060147D01*
X134194273Y-90168320D01*
X133959241Y-90325363D01*
X133759363Y-90525241D01*
X133610889Y-90747449D01*
X133605680Y-90734873D01*
X133448637Y-90499841D01*
X133248759Y-90299963D01*
X133013727Y-90142920D01*
X132752574Y-90034747D01*
X132475335Y-89979600D01*
X132192665Y-89979600D01*
X131915426Y-90034747D01*
X131654273Y-90142920D01*
X131419241Y-90299963D01*
X131219363Y-90499841D01*
X131062320Y-90734873D01*
X130982020Y-90928733D01*
X130881390Y-90685789D01*
X130718875Y-90442568D01*
X130512032Y-90235725D01*
X130337640Y-90119200D01*
X130512032Y-90002675D01*
X130718875Y-89795832D01*
X130881390Y-89552611D01*
X130993332Y-89282358D01*
X131050400Y-88995460D01*
X131050400Y-88702940D01*
X130993332Y-88416042D01*
X130881390Y-88145789D01*
X130718875Y-87902568D01*
X130512032Y-87695725D01*
X130337640Y-87579200D01*
X130512032Y-87462675D01*
X130718875Y-87255832D01*
X130881390Y-87012611D01*
X130993332Y-86742358D01*
X131050400Y-86455460D01*
X131050400Y-86162940D01*
X130993332Y-85876042D01*
X130881390Y-85605789D01*
X130718875Y-85362568D01*
X130512032Y-85155725D01*
X130337640Y-85039200D01*
X130512032Y-84922675D01*
X130718875Y-84715832D01*
X130881390Y-84472611D01*
X130993332Y-84202358D01*
X131050400Y-83915460D01*
X131050400Y-83622940D01*
X130993332Y-83336042D01*
X130881390Y-83065789D01*
X130718875Y-82822568D01*
X130512032Y-82615725D01*
X130337640Y-82499200D01*
X130512032Y-82382675D01*
X130718875Y-82175832D01*
X130881390Y-81932611D01*
X130993332Y-81662358D01*
X131050400Y-81375460D01*
X131050400Y-81082940D01*
X130993332Y-80796042D01*
X130881390Y-80525789D01*
X130718875Y-80282568D01*
X130512032Y-80075725D01*
X130337640Y-79959200D01*
X130512032Y-79842675D01*
X130718875Y-79635832D01*
X130881390Y-79392611D01*
X130993332Y-79122358D01*
X131050400Y-78835460D01*
X131050400Y-78542940D01*
X130993332Y-78256042D01*
X130881390Y-77985789D01*
X130718875Y-77742568D01*
X130512032Y-77535725D01*
X130337640Y-77419200D01*
X130512032Y-77302675D01*
X130718875Y-77095832D01*
X130881390Y-76852611D01*
X130993332Y-76582358D01*
X131050400Y-76295460D01*
X131050400Y-76002940D01*
X130993332Y-75716042D01*
X130881390Y-75445789D01*
X130718875Y-75202568D01*
X130512032Y-74995725D01*
X130329866Y-74874005D01*
X130446755Y-74804378D01*
X130662988Y-74609469D01*
X130837041Y-74376120D01*
X130962225Y-74113299D01*
X131006876Y-73966090D01*
X130885555Y-73736200D01*
X129692400Y-73736200D01*
X129692400Y-73756200D01*
X129438400Y-73756200D01*
X129438400Y-73736200D01*
X129418400Y-73736200D01*
X129418400Y-73482200D01*
X129438400Y-73482200D01*
X129438400Y-73462200D01*
X129692400Y-73462200D01*
X129692400Y-73482200D01*
X130885555Y-73482200D01*
X131006876Y-73252310D01*
X130962225Y-73105101D01*
X130837041Y-72842280D01*
X130662988Y-72608931D01*
X130446755Y-72414022D01*
X130329866Y-72344395D01*
X130512032Y-72222675D01*
X130718875Y-72015832D01*
X130881390Y-71772611D01*
X130993332Y-71502358D01*
X131050400Y-71215460D01*
X131050400Y-70922940D01*
X130993332Y-70636042D01*
X130881390Y-70365789D01*
X130718875Y-70122568D01*
X130512032Y-69915725D01*
X130337640Y-69799200D01*
X130512032Y-69682675D01*
X130718875Y-69475832D01*
X130881390Y-69232611D01*
X130993332Y-68962358D01*
X131050400Y-68675460D01*
X131050400Y-68382940D01*
X130993332Y-68096042D01*
X130881390Y-67825789D01*
X130718875Y-67582568D01*
X130587020Y-67450713D01*
X130659580Y-67428702D01*
X130769894Y-67369737D01*
X130866585Y-67290385D01*
X130945937Y-67193694D01*
X131004902Y-67083380D01*
X131041212Y-66963682D01*
X131053472Y-66839200D01*
X131053472Y-66716124D01*
X136006881Y-66716124D01*
X136138817Y-67011212D01*
X136479545Y-67182059D01*
X136847057Y-67283150D01*
X137227229Y-67310601D01*
X137605451Y-67263357D01*
X137967190Y-67143233D01*
X138214183Y-67011212D01*
X138346119Y-66716124D01*
X137176500Y-65546505D01*
X136006881Y-66716124D01*
X131053472Y-66716124D01*
X131053472Y-65417629D01*
X135232799Y-65417629D01*
X135280043Y-65795851D01*
X135400167Y-66157590D01*
X135532188Y-66404583D01*
X135827276Y-66536519D01*
X136996895Y-65366900D01*
X137356105Y-65366900D01*
X138525724Y-66536519D01*
X138820812Y-66404583D01*
X138991659Y-66063855D01*
X139092750Y-65696343D01*
X139120201Y-65316171D01*
X139072957Y-64937949D01*
X138952833Y-64576210D01*
X138820812Y-64329217D01*
X138525724Y-64197281D01*
X137356105Y-65366900D01*
X136996895Y-65366900D01*
X135827276Y-64197281D01*
X135532188Y-64329217D01*
X135361341Y-64669945D01*
X135260250Y-65037457D01*
X135232799Y-65417629D01*
X131053472Y-65417629D01*
X131053472Y-65139200D01*
X131041212Y-65014718D01*
X131004902Y-64895020D01*
X130970734Y-64831097D01*
X131427831Y-64785590D01*
X132018592Y-64605703D01*
X132557373Y-64317718D01*
X132755623Y-64017676D01*
X136006881Y-64017676D01*
X137176500Y-65187295D01*
X138296895Y-64066900D01*
X140238428Y-64066900D01*
X140238428Y-66666900D01*
X140250688Y-66791382D01*
X140286998Y-66911080D01*
X140345963Y-67021394D01*
X140425315Y-67118085D01*
X140522006Y-67197437D01*
X140632320Y-67256402D01*
X140752018Y-67292712D01*
X140876500Y-67304972D01*
X143476500Y-67304972D01*
X143600982Y-67292712D01*
X143720680Y-67256402D01*
X143830994Y-67197437D01*
X143927685Y-67118085D01*
X144007037Y-67021394D01*
X144066002Y-66911080D01*
X144102312Y-66791382D01*
X144114572Y-66666900D01*
X144114572Y-64066900D01*
X144102312Y-63942418D01*
X144066002Y-63822720D01*
X144007037Y-63712406D01*
X143927685Y-63615715D01*
X143830994Y-63536363D01*
X143720680Y-63477398D01*
X143600982Y-63441088D01*
X143476500Y-63428828D01*
X140876500Y-63428828D01*
X140752018Y-63441088D01*
X140632320Y-63477398D01*
X140522006Y-63536363D01*
X140425315Y-63615715D01*
X140345963Y-63712406D01*
X140286998Y-63822720D01*
X140250688Y-63942418D01*
X140238428Y-64066900D01*
X138296895Y-64066900D01*
X138346119Y-64017676D01*
X138214183Y-63722588D01*
X137873455Y-63551741D01*
X137505943Y-63450650D01*
X137125771Y-63423199D01*
X136747549Y-63470443D01*
X136385810Y-63590567D01*
X136138817Y-63722588D01*
X136006881Y-64017676D01*
X132755623Y-64017676D01*
X132833543Y-63899748D01*
X130810000Y-61876205D01*
X130795858Y-61890348D01*
X130616253Y-61710743D01*
X130630395Y-61696600D01*
X130616253Y-61682458D01*
X130795858Y-61502853D01*
X130810000Y-61516995D01*
X130824143Y-61502853D01*
X131003748Y-61682458D01*
X130989605Y-61696600D01*
X133013148Y-63720143D01*
X133431118Y-63443973D01*
X133721649Y-62899043D01*
X133900287Y-62307904D01*
X133960168Y-61693272D01*
X133898990Y-61078769D01*
X133719103Y-60488008D01*
X133431118Y-59949227D01*
X133191952Y-59791200D01*
X146195007Y-59791200D01*
X145994282Y-59923827D01*
%TD*%
M02*
