M48
; DRILL file {KiCad 5.1.6-c6e7f7d~87~ubuntu18.04.1} date Mon Sep 21 12:52:14 2020
; FORMAT={-:-/ absolute / inch / decimal}
; #@! TF.CreationDate,2020-09-21T12:52:14-07:00
; #@! TF.GenerationSoftware,Kicad,Pcbnew,5.1.6-c6e7f7d~87~ubuntu18.04.1
FMAT,2
INCH
T1C0.0130
T2C0.0394
T3C0.0512
T4C0.0984
T5C0.1063
%
G90
G05
T1
X5.18Y-3.54
X5.18Y-3.61
X5.18Y-3.67
X5.18Y-3.73
X5.18Y-3.79
X5.18Y-3.85
X5.18Y-3.91
X5.18Y-3.98
X5.225Y-2.74
X5.23Y-4.292
X5.27Y-3.18
X5.27Y-3.54
X5.27Y-3.61
X5.27Y-3.67
X5.27Y-3.73
X5.27Y-3.79
X5.27Y-3.85
X5.27Y-3.91
X5.27Y-3.98
X5.2792Y-4.292
X5.3Y-2.362
X5.3284Y-4.292
X5.33Y-2.67
X5.33Y-2.73
X5.34Y-2.99
X5.34Y-3.02
X5.34Y-3.05
X5.3513Y-2.362
X5.37Y-3.54
X5.37Y-3.61
X5.37Y-3.67
X5.37Y-3.73
X5.37Y-3.79
X5.37Y-3.85
X5.37Y-3.91
X5.37Y-3.98
X5.3775Y-4.292
X5.38Y-2.67
X5.38Y-2.73
X5.38Y-3.2
X5.39Y-3.45
X5.4025Y-2.362
X5.4267Y-4.292
X5.43Y-2.67
X5.43Y-2.73
X5.439Y-3.509
X5.4538Y-2.362
X5.47Y-3.61
X5.47Y-3.67
X5.47Y-3.73
X5.47Y-3.79
X5.47Y-3.85
X5.47Y-3.91
X5.4759Y-4.292
X5.48Y-3.12
X5.48Y-2.67
X5.48Y-2.73
X5.48Y-3.08
X5.505Y-2.362
X5.5149Y-3.1617
X5.5251Y-4.292
X5.53Y-2.67
X5.53Y-2.73
X5.55Y-3.13
X5.5562Y-2.362
X5.57Y-3.61
X5.57Y-3.67
X5.57Y-3.73
X5.57Y-3.79
X5.57Y-3.85
X5.57Y-3.91
X5.5743Y-4.292
X5.58Y-2.67
X5.58Y-2.73
X5.6Y-3.0
X5.6Y-3.06
X5.6Y-3.13
X5.6075Y-2.362
X5.6235Y-4.292
X5.65Y-3.0
X5.65Y-3.06
X5.65Y-3.13
X5.6587Y-2.362
X5.66Y-3.61
X5.66Y-3.67
X5.66Y-3.73
X5.66Y-3.79
X5.66Y-3.85
X5.6726Y-4.292
X5.68Y-4.01
X5.71Y-2.362
X5.71Y-3.56
X5.7218Y-4.292
X5.73Y-3.13
X5.76Y-3.61
X5.76Y-3.67
X5.76Y-3.73
X5.771Y-4.2915
X5.78Y-3.13
X5.79Y-2.79
X5.79Y-2.84
X5.82Y-2.97
X5.82Y-3.95
X5.84Y-3.56
T2
X5.31Y-4.097
X5.41Y-4.097
X5.51Y-4.097
X5.61Y-4.097
X5.101Y-2.598
X5.101Y-2.698
X5.101Y-2.798
X5.101Y-2.898
X5.101Y-2.998
X5.101Y-3.098
X5.101Y-3.198
X5.101Y-3.298
X5.101Y-3.398
X5.101Y-3.498
X5.101Y-3.598
X5.101Y-3.698
X5.101Y-3.798
X5.101Y-3.898
X5.101Y-3.998
X5.101Y-4.098
X5.901Y-2.598
X5.901Y-2.698
X5.901Y-2.798
X5.901Y-2.898
X5.901Y-2.998
X5.901Y-3.098
X5.901Y-3.198
X5.901Y-3.298
X5.901Y-3.398
X5.901Y-3.498
X5.901Y-3.598
X5.901Y-3.698
T3
X5.4006Y-2.545
X5.5975Y-2.545
T4
X5.851Y-2.428
X5.15Y-2.429
T5
X5.851Y-4.213
X5.15Y-4.213
T0
M30
