%TF.GenerationSoftware,KiCad,Pcbnew,5.1.6-c6e7f7d~87~ubuntu18.04.1*%
%TF.CreationDate,2020-10-24T12:34:53-07:00*%
%TF.ProjectId,feather-power-supply-sw-smd,66656174-6865-4722-9d70-6f7765722d73,rev?*%
%TF.SameCoordinates,Original*%
%TF.FileFunction,Legend,Bot*%
%TF.FilePolarity,Positive*%
%FSLAX46Y46*%
G04 Gerber Fmt 4.6, Leading zero omitted, Abs format (unit mm)*
G04 Created by KiCad (PCBNEW 5.1.6-c6e7f7d~87~ubuntu18.04.1) date 2020-10-24 12:34:53*
%MOMM*%
%LPD*%
G01*
G04 APERTURE LIST*
%ADD10C,0.010000*%
G04 APERTURE END LIST*
D10*
%TO.C,LOGO1*%
G36*
X135156386Y-70417731D02*
G01*
X135072565Y-70862355D01*
X134763280Y-70989853D01*
X134453994Y-71117351D01*
X134082954Y-70865046D01*
X133979043Y-70794796D01*
X133885113Y-70732072D01*
X133805548Y-70679738D01*
X133744730Y-70640657D01*
X133707043Y-70617693D01*
X133696779Y-70612742D01*
X133678290Y-70625476D01*
X133638780Y-70660682D01*
X133582678Y-70713862D01*
X133514413Y-70780518D01*
X133438414Y-70856154D01*
X133359108Y-70936272D01*
X133280925Y-71016374D01*
X133208293Y-71091964D01*
X133145641Y-71158545D01*
X133097397Y-71211618D01*
X133067990Y-71246687D01*
X133060959Y-71258423D01*
X133071077Y-71280060D01*
X133099441Y-71327462D01*
X133143071Y-71395993D01*
X133198982Y-71481015D01*
X133264194Y-71577893D01*
X133301981Y-71633150D01*
X133370857Y-71734048D01*
X133432060Y-71825099D01*
X133482622Y-71901770D01*
X133519572Y-71959528D01*
X133539942Y-71993843D01*
X133543003Y-72001054D01*
X133536064Y-72021548D01*
X133517149Y-72069313D01*
X133489113Y-72137632D01*
X133454809Y-72219789D01*
X133417091Y-72309070D01*
X133378813Y-72398758D01*
X133342830Y-72482138D01*
X133311994Y-72552494D01*
X133289161Y-72603110D01*
X133277183Y-72627271D01*
X133276476Y-72628222D01*
X133257669Y-72632836D01*
X133207582Y-72643128D01*
X133131407Y-72658087D01*
X133034335Y-72676701D01*
X132921557Y-72697959D01*
X132855758Y-72710218D01*
X132735250Y-72733162D01*
X132626403Y-72754995D01*
X132534724Y-72774522D01*
X132465719Y-72790548D01*
X132424896Y-72801879D01*
X132416689Y-72805474D01*
X132408652Y-72829806D01*
X132402167Y-72884759D01*
X132397230Y-72963908D01*
X132393836Y-73060826D01*
X132391982Y-73169087D01*
X132391662Y-73282265D01*
X132392873Y-73393935D01*
X132395610Y-73497668D01*
X132399869Y-73587041D01*
X132405645Y-73655626D01*
X132412933Y-73696997D01*
X132417305Y-73705610D01*
X132443436Y-73715933D01*
X132498807Y-73730692D01*
X132576093Y-73748152D01*
X132667970Y-73766580D01*
X132700042Y-73772541D01*
X132854676Y-73800866D01*
X132976825Y-73823676D01*
X133070527Y-73841880D01*
X133139816Y-73856383D01*
X133188729Y-73868092D01*
X133221303Y-73877915D01*
X133241572Y-73886756D01*
X133253574Y-73895524D01*
X133255253Y-73897257D01*
X133272016Y-73925171D01*
X133297586Y-73979495D01*
X133329412Y-74053577D01*
X133364940Y-74140765D01*
X133401617Y-74234408D01*
X133436889Y-74327852D01*
X133468204Y-74414447D01*
X133493007Y-74487540D01*
X133508746Y-74540478D01*
X133512868Y-74566611D01*
X133512524Y-74567526D01*
X133498559Y-74588886D01*
X133466878Y-74635884D01*
X133420809Y-74703627D01*
X133363682Y-74787223D01*
X133298827Y-74881782D01*
X133280357Y-74908654D01*
X133214501Y-75006075D01*
X133156550Y-75094963D01*
X133109662Y-75170212D01*
X133076993Y-75226720D01*
X133061700Y-75259381D01*
X133060959Y-75263393D01*
X133073808Y-75284484D01*
X133109312Y-75326264D01*
X133162907Y-75384245D01*
X133230029Y-75453935D01*
X133306113Y-75530845D01*
X133386596Y-75610483D01*
X133466913Y-75688361D01*
X133542501Y-75759986D01*
X133608795Y-75820870D01*
X133661231Y-75866521D01*
X133695245Y-75892450D01*
X133704655Y-75896683D01*
X133726557Y-75886712D01*
X133771400Y-75859820D01*
X133831879Y-75820536D01*
X133878411Y-75788917D01*
X133962725Y-75730898D01*
X134062574Y-75662584D01*
X134162727Y-75594379D01*
X134216573Y-75557875D01*
X134398829Y-75434600D01*
X134551819Y-75517320D01*
X134621518Y-75553559D01*
X134680786Y-75581726D01*
X134720889Y-75597791D01*
X134731097Y-75600026D01*
X134743371Y-75583522D01*
X134767587Y-75536882D01*
X134801937Y-75464409D01*
X134844612Y-75370406D01*
X134893806Y-75259174D01*
X134947710Y-75135015D01*
X135004516Y-75002232D01*
X135062418Y-74865127D01*
X135119607Y-74728002D01*
X135174276Y-74595158D01*
X135224616Y-74470898D01*
X135268820Y-74359525D01*
X135305081Y-74265339D01*
X135331591Y-74192644D01*
X135346542Y-74145741D01*
X135348946Y-74129633D01*
X135329889Y-74109086D01*
X135288164Y-74075733D01*
X135232494Y-74036502D01*
X135227822Y-74033399D01*
X135083936Y-73918223D01*
X134967917Y-73783853D01*
X134880770Y-73634584D01*
X134823501Y-73474713D01*
X134797114Y-73308537D01*
X134802615Y-73140352D01*
X134841010Y-72974455D01*
X134913305Y-72815142D01*
X134934574Y-72780287D01*
X135045204Y-72639537D01*
X135175898Y-72526514D01*
X135322136Y-72441803D01*
X135479392Y-72385994D01*
X135643143Y-72359674D01*
X135808867Y-72363430D01*
X135972038Y-72397850D01*
X136128135Y-72463523D01*
X136272633Y-72561035D01*
X136317331Y-72600613D01*
X136431088Y-72724503D01*
X136513982Y-72854924D01*
X136570844Y-73001115D01*
X136602513Y-73145888D01*
X136610331Y-73308660D01*
X136584262Y-73472240D01*
X136526955Y-73631098D01*
X136441056Y-73779706D01*
X136329214Y-73912535D01*
X136194077Y-74024056D01*
X136176317Y-74035811D01*
X136120050Y-74074308D01*
X136077277Y-74107663D01*
X136056828Y-74128960D01*
X136056531Y-74129633D01*
X136060921Y-74152671D01*
X136078324Y-74204957D01*
X136106932Y-74282190D01*
X136144935Y-74380068D01*
X136190526Y-74494291D01*
X136241897Y-74620558D01*
X136297238Y-74754567D01*
X136354742Y-74892018D01*
X136412599Y-75028608D01*
X136469002Y-75160037D01*
X136522142Y-75282005D01*
X136570210Y-75390209D01*
X136611399Y-75480349D01*
X136643899Y-75548123D01*
X136665903Y-75589230D01*
X136674764Y-75600026D01*
X136701840Y-75591619D01*
X136752503Y-75569072D01*
X136818017Y-75536413D01*
X136854041Y-75517320D01*
X137007032Y-75434600D01*
X137189288Y-75557875D01*
X137282325Y-75621028D01*
X137384185Y-75690527D01*
X137479638Y-75755965D01*
X137527450Y-75788917D01*
X137594695Y-75834073D01*
X137651636Y-75869857D01*
X137690846Y-75891738D01*
X137703581Y-75896363D01*
X137722117Y-75883885D01*
X137763141Y-75849052D01*
X137822675Y-75795478D01*
X137896742Y-75726783D01*
X137981365Y-75646581D01*
X138034885Y-75595086D01*
X138128519Y-75503086D01*
X138209441Y-75420799D01*
X138274377Y-75351745D01*
X138320058Y-75299444D01*
X138343211Y-75267416D01*
X138345432Y-75260916D01*
X138335124Y-75236194D01*
X138306639Y-75186205D01*
X138263137Y-75116012D01*
X138207777Y-75030675D01*
X138143720Y-74935256D01*
X138125503Y-74908654D01*
X138059127Y-74811967D01*
X137999578Y-74724917D01*
X137950184Y-74652395D01*
X137914275Y-74599293D01*
X137895181Y-74570503D01*
X137893336Y-74567526D01*
X137896095Y-74544582D01*
X137910738Y-74494136D01*
X137934713Y-74422841D01*
X137965466Y-74337347D01*
X138000444Y-74244307D01*
X138037093Y-74150374D01*
X138072861Y-74062199D01*
X138105194Y-73986434D01*
X138131538Y-73929731D01*
X138149342Y-73898743D01*
X138150607Y-73897257D01*
X138161494Y-73888401D01*
X138179882Y-73879643D01*
X138209806Y-73870077D01*
X138255303Y-73858796D01*
X138320409Y-73844893D01*
X138409161Y-73827463D01*
X138525593Y-73805598D01*
X138673742Y-73778391D01*
X138705818Y-73772541D01*
X138800886Y-73754174D01*
X138883765Y-73736205D01*
X138947130Y-73720369D01*
X138983658Y-73708400D01*
X138988556Y-73705610D01*
X138996627Y-73680872D01*
X139003187Y-73625590D01*
X139008233Y-73546189D01*
X139011759Y-73449096D01*
X139013761Y-73340738D01*
X139014236Y-73227540D01*
X139013177Y-73115928D01*
X139010582Y-73012329D01*
X139006446Y-72923168D01*
X139000763Y-72854872D01*
X138993531Y-72813866D01*
X138989171Y-72805474D01*
X138964898Y-72797008D01*
X138909626Y-72783235D01*
X138828862Y-72765350D01*
X138728112Y-72744548D01*
X138612883Y-72722023D01*
X138550102Y-72710218D01*
X138430987Y-72687951D01*
X138324765Y-72667779D01*
X138236627Y-72650715D01*
X138171766Y-72637769D01*
X138135374Y-72629955D01*
X138129384Y-72628222D01*
X138119261Y-72608690D01*
X138097862Y-72561643D01*
X138068039Y-72493803D01*
X138032645Y-72411891D01*
X137994532Y-72322628D01*
X137956553Y-72232735D01*
X137921560Y-72148935D01*
X137892406Y-72077947D01*
X137871943Y-72026494D01*
X137863023Y-72001297D01*
X137862857Y-72000196D01*
X137872969Y-71980319D01*
X137901317Y-71934577D01*
X137944923Y-71867517D01*
X138000806Y-71783684D01*
X138065987Y-71687626D01*
X138103879Y-71632450D01*
X138172925Y-71531281D01*
X138234250Y-71439430D01*
X138284863Y-71361544D01*
X138321771Y-71302269D01*
X138341982Y-71266251D01*
X138344901Y-71258177D01*
X138332353Y-71239384D01*
X138297663Y-71199257D01*
X138245263Y-71142293D01*
X138179584Y-71072985D01*
X138105056Y-70995831D01*
X138026113Y-70915325D01*
X137947183Y-70835963D01*
X137872700Y-70762240D01*
X137807094Y-70698652D01*
X137754796Y-70649694D01*
X137720239Y-70619861D01*
X137708678Y-70612742D01*
X137689854Y-70622753D01*
X137644831Y-70650878D01*
X137577987Y-70694254D01*
X137493699Y-70750018D01*
X137396344Y-70815306D01*
X137322907Y-70865046D01*
X136951867Y-71117351D01*
X136333295Y-70862355D01*
X136249475Y-70417731D01*
X136165654Y-69973107D01*
X135240206Y-69973107D01*
X135156386Y-70417731D01*
G37*
X135156386Y-70417731D02*
X135072565Y-70862355D01*
X134763280Y-70989853D01*
X134453994Y-71117351D01*
X134082954Y-70865046D01*
X133979043Y-70794796D01*
X133885113Y-70732072D01*
X133805548Y-70679738D01*
X133744730Y-70640657D01*
X133707043Y-70617693D01*
X133696779Y-70612742D01*
X133678290Y-70625476D01*
X133638780Y-70660682D01*
X133582678Y-70713862D01*
X133514413Y-70780518D01*
X133438414Y-70856154D01*
X133359108Y-70936272D01*
X133280925Y-71016374D01*
X133208293Y-71091964D01*
X133145641Y-71158545D01*
X133097397Y-71211618D01*
X133067990Y-71246687D01*
X133060959Y-71258423D01*
X133071077Y-71280060D01*
X133099441Y-71327462D01*
X133143071Y-71395993D01*
X133198982Y-71481015D01*
X133264194Y-71577893D01*
X133301981Y-71633150D01*
X133370857Y-71734048D01*
X133432060Y-71825099D01*
X133482622Y-71901770D01*
X133519572Y-71959528D01*
X133539942Y-71993843D01*
X133543003Y-72001054D01*
X133536064Y-72021548D01*
X133517149Y-72069313D01*
X133489113Y-72137632D01*
X133454809Y-72219789D01*
X133417091Y-72309070D01*
X133378813Y-72398758D01*
X133342830Y-72482138D01*
X133311994Y-72552494D01*
X133289161Y-72603110D01*
X133277183Y-72627271D01*
X133276476Y-72628222D01*
X133257669Y-72632836D01*
X133207582Y-72643128D01*
X133131407Y-72658087D01*
X133034335Y-72676701D01*
X132921557Y-72697959D01*
X132855758Y-72710218D01*
X132735250Y-72733162D01*
X132626403Y-72754995D01*
X132534724Y-72774522D01*
X132465719Y-72790548D01*
X132424896Y-72801879D01*
X132416689Y-72805474D01*
X132408652Y-72829806D01*
X132402167Y-72884759D01*
X132397230Y-72963908D01*
X132393836Y-73060826D01*
X132391982Y-73169087D01*
X132391662Y-73282265D01*
X132392873Y-73393935D01*
X132395610Y-73497668D01*
X132399869Y-73587041D01*
X132405645Y-73655626D01*
X132412933Y-73696997D01*
X132417305Y-73705610D01*
X132443436Y-73715933D01*
X132498807Y-73730692D01*
X132576093Y-73748152D01*
X132667970Y-73766580D01*
X132700042Y-73772541D01*
X132854676Y-73800866D01*
X132976825Y-73823676D01*
X133070527Y-73841880D01*
X133139816Y-73856383D01*
X133188729Y-73868092D01*
X133221303Y-73877915D01*
X133241572Y-73886756D01*
X133253574Y-73895524D01*
X133255253Y-73897257D01*
X133272016Y-73925171D01*
X133297586Y-73979495D01*
X133329412Y-74053577D01*
X133364940Y-74140765D01*
X133401617Y-74234408D01*
X133436889Y-74327852D01*
X133468204Y-74414447D01*
X133493007Y-74487540D01*
X133508746Y-74540478D01*
X133512868Y-74566611D01*
X133512524Y-74567526D01*
X133498559Y-74588886D01*
X133466878Y-74635884D01*
X133420809Y-74703627D01*
X133363682Y-74787223D01*
X133298827Y-74881782D01*
X133280357Y-74908654D01*
X133214501Y-75006075D01*
X133156550Y-75094963D01*
X133109662Y-75170212D01*
X133076993Y-75226720D01*
X133061700Y-75259381D01*
X133060959Y-75263393D01*
X133073808Y-75284484D01*
X133109312Y-75326264D01*
X133162907Y-75384245D01*
X133230029Y-75453935D01*
X133306113Y-75530845D01*
X133386596Y-75610483D01*
X133466913Y-75688361D01*
X133542501Y-75759986D01*
X133608795Y-75820870D01*
X133661231Y-75866521D01*
X133695245Y-75892450D01*
X133704655Y-75896683D01*
X133726557Y-75886712D01*
X133771400Y-75859820D01*
X133831879Y-75820536D01*
X133878411Y-75788917D01*
X133962725Y-75730898D01*
X134062574Y-75662584D01*
X134162727Y-75594379D01*
X134216573Y-75557875D01*
X134398829Y-75434600D01*
X134551819Y-75517320D01*
X134621518Y-75553559D01*
X134680786Y-75581726D01*
X134720889Y-75597791D01*
X134731097Y-75600026D01*
X134743371Y-75583522D01*
X134767587Y-75536882D01*
X134801937Y-75464409D01*
X134844612Y-75370406D01*
X134893806Y-75259174D01*
X134947710Y-75135015D01*
X135004516Y-75002232D01*
X135062418Y-74865127D01*
X135119607Y-74728002D01*
X135174276Y-74595158D01*
X135224616Y-74470898D01*
X135268820Y-74359525D01*
X135305081Y-74265339D01*
X135331591Y-74192644D01*
X135346542Y-74145741D01*
X135348946Y-74129633D01*
X135329889Y-74109086D01*
X135288164Y-74075733D01*
X135232494Y-74036502D01*
X135227822Y-74033399D01*
X135083936Y-73918223D01*
X134967917Y-73783853D01*
X134880770Y-73634584D01*
X134823501Y-73474713D01*
X134797114Y-73308537D01*
X134802615Y-73140352D01*
X134841010Y-72974455D01*
X134913305Y-72815142D01*
X134934574Y-72780287D01*
X135045204Y-72639537D01*
X135175898Y-72526514D01*
X135322136Y-72441803D01*
X135479392Y-72385994D01*
X135643143Y-72359674D01*
X135808867Y-72363430D01*
X135972038Y-72397850D01*
X136128135Y-72463523D01*
X136272633Y-72561035D01*
X136317331Y-72600613D01*
X136431088Y-72724503D01*
X136513982Y-72854924D01*
X136570844Y-73001115D01*
X136602513Y-73145888D01*
X136610331Y-73308660D01*
X136584262Y-73472240D01*
X136526955Y-73631098D01*
X136441056Y-73779706D01*
X136329214Y-73912535D01*
X136194077Y-74024056D01*
X136176317Y-74035811D01*
X136120050Y-74074308D01*
X136077277Y-74107663D01*
X136056828Y-74128960D01*
X136056531Y-74129633D01*
X136060921Y-74152671D01*
X136078324Y-74204957D01*
X136106932Y-74282190D01*
X136144935Y-74380068D01*
X136190526Y-74494291D01*
X136241897Y-74620558D01*
X136297238Y-74754567D01*
X136354742Y-74892018D01*
X136412599Y-75028608D01*
X136469002Y-75160037D01*
X136522142Y-75282005D01*
X136570210Y-75390209D01*
X136611399Y-75480349D01*
X136643899Y-75548123D01*
X136665903Y-75589230D01*
X136674764Y-75600026D01*
X136701840Y-75591619D01*
X136752503Y-75569072D01*
X136818017Y-75536413D01*
X136854041Y-75517320D01*
X137007032Y-75434600D01*
X137189288Y-75557875D01*
X137282325Y-75621028D01*
X137384185Y-75690527D01*
X137479638Y-75755965D01*
X137527450Y-75788917D01*
X137594695Y-75834073D01*
X137651636Y-75869857D01*
X137690846Y-75891738D01*
X137703581Y-75896363D01*
X137722117Y-75883885D01*
X137763141Y-75849052D01*
X137822675Y-75795478D01*
X137896742Y-75726783D01*
X137981365Y-75646581D01*
X138034885Y-75595086D01*
X138128519Y-75503086D01*
X138209441Y-75420799D01*
X138274377Y-75351745D01*
X138320058Y-75299444D01*
X138343211Y-75267416D01*
X138345432Y-75260916D01*
X138335124Y-75236194D01*
X138306639Y-75186205D01*
X138263137Y-75116012D01*
X138207777Y-75030675D01*
X138143720Y-74935256D01*
X138125503Y-74908654D01*
X138059127Y-74811967D01*
X137999578Y-74724917D01*
X137950184Y-74652395D01*
X137914275Y-74599293D01*
X137895181Y-74570503D01*
X137893336Y-74567526D01*
X137896095Y-74544582D01*
X137910738Y-74494136D01*
X137934713Y-74422841D01*
X137965466Y-74337347D01*
X138000444Y-74244307D01*
X138037093Y-74150374D01*
X138072861Y-74062199D01*
X138105194Y-73986434D01*
X138131538Y-73929731D01*
X138149342Y-73898743D01*
X138150607Y-73897257D01*
X138161494Y-73888401D01*
X138179882Y-73879643D01*
X138209806Y-73870077D01*
X138255303Y-73858796D01*
X138320409Y-73844893D01*
X138409161Y-73827463D01*
X138525593Y-73805598D01*
X138673742Y-73778391D01*
X138705818Y-73772541D01*
X138800886Y-73754174D01*
X138883765Y-73736205D01*
X138947130Y-73720369D01*
X138983658Y-73708400D01*
X138988556Y-73705610D01*
X138996627Y-73680872D01*
X139003187Y-73625590D01*
X139008233Y-73546189D01*
X139011759Y-73449096D01*
X139013761Y-73340738D01*
X139014236Y-73227540D01*
X139013177Y-73115928D01*
X139010582Y-73012329D01*
X139006446Y-72923168D01*
X139000763Y-72854872D01*
X138993531Y-72813866D01*
X138989171Y-72805474D01*
X138964898Y-72797008D01*
X138909626Y-72783235D01*
X138828862Y-72765350D01*
X138728112Y-72744548D01*
X138612883Y-72722023D01*
X138550102Y-72710218D01*
X138430987Y-72687951D01*
X138324765Y-72667779D01*
X138236627Y-72650715D01*
X138171766Y-72637769D01*
X138135374Y-72629955D01*
X138129384Y-72628222D01*
X138119261Y-72608690D01*
X138097862Y-72561643D01*
X138068039Y-72493803D01*
X138032645Y-72411891D01*
X137994532Y-72322628D01*
X137956553Y-72232735D01*
X137921560Y-72148935D01*
X137892406Y-72077947D01*
X137871943Y-72026494D01*
X137863023Y-72001297D01*
X137862857Y-72000196D01*
X137872969Y-71980319D01*
X137901317Y-71934577D01*
X137944923Y-71867517D01*
X138000806Y-71783684D01*
X138065987Y-71687626D01*
X138103879Y-71632450D01*
X138172925Y-71531281D01*
X138234250Y-71439430D01*
X138284863Y-71361544D01*
X138321771Y-71302269D01*
X138341982Y-71266251D01*
X138344901Y-71258177D01*
X138332353Y-71239384D01*
X138297663Y-71199257D01*
X138245263Y-71142293D01*
X138179584Y-71072985D01*
X138105056Y-70995831D01*
X138026113Y-70915325D01*
X137947183Y-70835963D01*
X137872700Y-70762240D01*
X137807094Y-70698652D01*
X137754796Y-70649694D01*
X137720239Y-70619861D01*
X137708678Y-70612742D01*
X137689854Y-70622753D01*
X137644831Y-70650878D01*
X137577987Y-70694254D01*
X137493699Y-70750018D01*
X137396344Y-70815306D01*
X137322907Y-70865046D01*
X136951867Y-71117351D01*
X136333295Y-70862355D01*
X136249475Y-70417731D01*
X136165654Y-69973107D01*
X135240206Y-69973107D01*
X135156386Y-70417731D01*
%TD*%
M02*
