%TF.GenerationSoftware,KiCad,Pcbnew,5.1.6-c6e7f7d~87~ubuntu18.04.1*%
%TF.CreationDate,2020-09-06T00:00:26-07:00*%
%TF.ProjectId,feather-power-supply-sw-smd,66656174-6865-4722-9d70-6f7765722d73,rev?*%
%TF.SameCoordinates,Original*%
%TF.FileFunction,Copper,L1,Top*%
%TF.FilePolarity,Positive*%
%FSLAX46Y46*%
G04 Gerber Fmt 4.6, Leading zero omitted, Abs format (unit mm)*
G04 Created by KiCad (PCBNEW 5.1.6-c6e7f7d~87~ubuntu18.04.1) date 2020-09-06 00:00:26*
%MOMM*%
%LPD*%
G01*
G04 APERTURE LIST*
%TA.AperFunction,EtchedComponent*%
%ADD10C,0.100000*%
%TD*%
%TA.AperFunction,ComponentPad*%
%ADD11C,5.000000*%
%TD*%
%TA.AperFunction,SMDPad,CuDef*%
%ADD12R,1.000000X4.400000*%
%TD*%
%TA.AperFunction,SMDPad,CuDef*%
%ADD13C,0.100000*%
%TD*%
%TA.AperFunction,SMDPad,CuDef*%
%ADD14R,1.100000X1.100000*%
%TD*%
%TA.AperFunction,SMDPad,CuDef*%
%ADD15R,2.000000X0.600000*%
%TD*%
%TA.AperFunction,ComponentPad*%
%ADD16R,2.600000X2.600000*%
%TD*%
%TA.AperFunction,ComponentPad*%
%ADD17C,2.600000*%
%TD*%
%TA.AperFunction,ComponentPad*%
%ADD18O,1.700000X1.700000*%
%TD*%
%TA.AperFunction,ComponentPad*%
%ADD19R,1.700000X1.700000*%
%TD*%
%TA.AperFunction,ViaPad*%
%ADD20C,0.685800*%
%TD*%
%TA.AperFunction,Conductor*%
%ADD21C,1.219200*%
%TD*%
%TA.AperFunction,Conductor*%
%ADD22C,0.762000*%
%TD*%
%TA.AperFunction,Conductor*%
%ADD23C,0.304800*%
%TD*%
%TA.AperFunction,Conductor*%
%ADD24C,0.609600*%
%TD*%
%TA.AperFunction,Conductor*%
%ADD25C,0.254000*%
%TD*%
G04 APERTURE END LIST*
D10*
%TO.C,JP1*%
G36*
X124514800Y-79103500D02*
G01*
X125014800Y-79103500D01*
X125014800Y-78503500D01*
X124514800Y-78503500D01*
X124514800Y-79103500D01*
G37*
%TD*%
%TO.P,J4,MP*%
%TO.N,N/C*%
%TA.AperFunction,SMDPad,CuDef*%
G36*
G01*
X138542001Y-102448000D02*
X137241999Y-102448000D01*
G75*
G02*
X136992000Y-102198001I0J249999D01*
G01*
X136992000Y-101497999D01*
G75*
G02*
X137241999Y-101248000I249999J0D01*
G01*
X138542001Y-101248000D01*
G75*
G02*
X138792000Y-101497999I0J-249999D01*
G01*
X138792000Y-102198001D01*
G75*
G02*
X138542001Y-102448000I-249999J0D01*
G01*
G37*
%TD.AperFunction*%
%TA.AperFunction,SMDPad,CuDef*%
G36*
G01*
X138542001Y-108048000D02*
X137241999Y-108048000D01*
G75*
G02*
X136992000Y-107798001I0J249999D01*
G01*
X136992000Y-107097999D01*
G75*
G02*
X137241999Y-106848000I249999J0D01*
G01*
X138542001Y-106848000D01*
G75*
G02*
X138792000Y-107097999I0J-249999D01*
G01*
X138792000Y-107798001D01*
G75*
G02*
X138542001Y-108048000I-249999J0D01*
G01*
G37*
%TD.AperFunction*%
%TO.P,J4,4*%
%TO.N,/SDA*%
%TA.AperFunction,SMDPad,CuDef*%
G36*
G01*
X134642000Y-103448000D02*
X133392000Y-103448000D01*
G75*
G02*
X133242000Y-103298000I0J150000D01*
G01*
X133242000Y-102998000D01*
G75*
G02*
X133392000Y-102848000I150000J0D01*
G01*
X134642000Y-102848000D01*
G75*
G02*
X134792000Y-102998000I0J-150000D01*
G01*
X134792000Y-103298000D01*
G75*
G02*
X134642000Y-103448000I-150000J0D01*
G01*
G37*
%TD.AperFunction*%
%TO.P,J4,3*%
%TO.N,/SCL*%
%TA.AperFunction,SMDPad,CuDef*%
G36*
G01*
X134642000Y-104448000D02*
X133392000Y-104448000D01*
G75*
G02*
X133242000Y-104298000I0J150000D01*
G01*
X133242000Y-103998000D01*
G75*
G02*
X133392000Y-103848000I150000J0D01*
G01*
X134642000Y-103848000D01*
G75*
G02*
X134792000Y-103998000I0J-150000D01*
G01*
X134792000Y-104298000D01*
G75*
G02*
X134642000Y-104448000I-150000J0D01*
G01*
G37*
%TD.AperFunction*%
%TO.P,J4,2*%
%TO.N,VUSB*%
%TA.AperFunction,SMDPad,CuDef*%
G36*
G01*
X134642000Y-105448000D02*
X133392000Y-105448000D01*
G75*
G02*
X133242000Y-105298000I0J150000D01*
G01*
X133242000Y-104998000D01*
G75*
G02*
X133392000Y-104848000I150000J0D01*
G01*
X134642000Y-104848000D01*
G75*
G02*
X134792000Y-104998000I0J-150000D01*
G01*
X134792000Y-105298000D01*
G75*
G02*
X134642000Y-105448000I-150000J0D01*
G01*
G37*
%TD.AperFunction*%
%TO.P,J4,1*%
%TO.N,GND*%
%TA.AperFunction,SMDPad,CuDef*%
G36*
G01*
X134642000Y-106448000D02*
X133392000Y-106448000D01*
G75*
G02*
X133242000Y-106298000I0J150000D01*
G01*
X133242000Y-105998000D01*
G75*
G02*
X133392000Y-105848000I150000J0D01*
G01*
X134642000Y-105848000D01*
G75*
G02*
X134792000Y-105998000I0J-150000D01*
G01*
X134792000Y-106298000D01*
G75*
G02*
X134642000Y-106448000I-150000J0D01*
G01*
G37*
%TD.AperFunction*%
%TD*%
D11*
%TO.P,H2,1*%
%TO.N,GND*%
X136906000Y-66421000D03*
%TD*%
%TO.P,H1,1*%
%TO.N,GND*%
X119100600Y-66446400D03*
%TD*%
D12*
%TO.P,L1,2*%
%TO.N,VUSB*%
X136045800Y-85496400D03*
%TO.P,L1,1*%
%TO.N,Net-(C1-Pad2)*%
X133295800Y-85496400D03*
%TD*%
%TO.P,C4,2*%
%TO.N,GND*%
%TA.AperFunction,SMDPad,CuDef*%
G36*
G01*
X132702000Y-80408200D02*
X132702000Y-82558200D01*
G75*
G02*
X132452000Y-82808200I-250000J0D01*
G01*
X131527000Y-82808200D01*
G75*
G02*
X131277000Y-82558200I0J250000D01*
G01*
X131277000Y-80408200D01*
G75*
G02*
X131527000Y-80158200I250000J0D01*
G01*
X132452000Y-80158200D01*
G75*
G02*
X132702000Y-80408200I0J-250000D01*
G01*
G37*
%TD.AperFunction*%
%TO.P,C4,1*%
%TO.N,VUSB*%
%TA.AperFunction,SMDPad,CuDef*%
G36*
G01*
X135677000Y-80408200D02*
X135677000Y-82558200D01*
G75*
G02*
X135427000Y-82808200I-250000J0D01*
G01*
X134502000Y-82808200D01*
G75*
G02*
X134252000Y-82558200I0J250000D01*
G01*
X134252000Y-80408200D01*
G75*
G02*
X134502000Y-80158200I250000J0D01*
G01*
X135427000Y-80158200D01*
G75*
G02*
X135677000Y-80408200I0J-250000D01*
G01*
G37*
%TD.AperFunction*%
%TD*%
%TO.P,C9,2*%
%TO.N,GND*%
%TA.AperFunction,SMDPad,CuDef*%
G36*
G01*
X121736600Y-81568300D02*
X121736600Y-81093300D01*
G75*
G02*
X121974100Y-80855800I237500J0D01*
G01*
X122549100Y-80855800D01*
G75*
G02*
X122786600Y-81093300I0J-237500D01*
G01*
X122786600Y-81568300D01*
G75*
G02*
X122549100Y-81805800I-237500J0D01*
G01*
X121974100Y-81805800D01*
G75*
G02*
X121736600Y-81568300I0J237500D01*
G01*
G37*
%TD.AperFunction*%
%TO.P,C9,1*%
%TO.N,/A1*%
%TA.AperFunction,SMDPad,CuDef*%
G36*
G01*
X119986600Y-81568300D02*
X119986600Y-81093300D01*
G75*
G02*
X120224100Y-80855800I237500J0D01*
G01*
X120799100Y-80855800D01*
G75*
G02*
X121036600Y-81093300I0J-237500D01*
G01*
X121036600Y-81568300D01*
G75*
G02*
X120799100Y-81805800I-237500J0D01*
G01*
X120224100Y-81805800D01*
G75*
G02*
X119986600Y-81568300I0J237500D01*
G01*
G37*
%TD.AperFunction*%
%TD*%
%TO.P,C6,2*%
%TO.N,GND*%
%TA.AperFunction,SMDPad,CuDef*%
G36*
G01*
X132702000Y-77169700D02*
X132702000Y-79319700D01*
G75*
G02*
X132452000Y-79569700I-250000J0D01*
G01*
X131527000Y-79569700D01*
G75*
G02*
X131277000Y-79319700I0J250000D01*
G01*
X131277000Y-77169700D01*
G75*
G02*
X131527000Y-76919700I250000J0D01*
G01*
X132452000Y-76919700D01*
G75*
G02*
X132702000Y-77169700I0J-250000D01*
G01*
G37*
%TD.AperFunction*%
%TO.P,C6,1*%
%TO.N,VUSB*%
%TA.AperFunction,SMDPad,CuDef*%
G36*
G01*
X135677000Y-77169700D02*
X135677000Y-79319700D01*
G75*
G02*
X135427000Y-79569700I-250000J0D01*
G01*
X134502000Y-79569700D01*
G75*
G02*
X134252000Y-79319700I0J250000D01*
G01*
X134252000Y-77169700D01*
G75*
G02*
X134502000Y-76919700I250000J0D01*
G01*
X135427000Y-76919700D01*
G75*
G02*
X135677000Y-77169700I0J-250000D01*
G01*
G37*
%TD.AperFunction*%
%TD*%
%TA.AperFunction,SMDPad,CuDef*%
D13*
%TO.P,JP1,1*%
%TO.N,/BATT+*%
G36*
X124914800Y-78053500D02*
G01*
X125414800Y-78053500D01*
X125414800Y-78054102D01*
X125439334Y-78054102D01*
X125488165Y-78058912D01*
X125536290Y-78068484D01*
X125583245Y-78082728D01*
X125628578Y-78101505D01*
X125671851Y-78124636D01*
X125712650Y-78151896D01*
X125750579Y-78183024D01*
X125785276Y-78217721D01*
X125816404Y-78255650D01*
X125843664Y-78296449D01*
X125866795Y-78339722D01*
X125885572Y-78385055D01*
X125899816Y-78432010D01*
X125909388Y-78480135D01*
X125914198Y-78528966D01*
X125914198Y-78553500D01*
X125914800Y-78553500D01*
X125914800Y-79053500D01*
X125914198Y-79053500D01*
X125914198Y-79078034D01*
X125909388Y-79126865D01*
X125899816Y-79174990D01*
X125885572Y-79221945D01*
X125866795Y-79267278D01*
X125843664Y-79310551D01*
X125816404Y-79351350D01*
X125785276Y-79389279D01*
X125750579Y-79423976D01*
X125712650Y-79455104D01*
X125671851Y-79482364D01*
X125628578Y-79505495D01*
X125583245Y-79524272D01*
X125536290Y-79538516D01*
X125488165Y-79548088D01*
X125439334Y-79552898D01*
X125414800Y-79552898D01*
X125414800Y-79553500D01*
X124914800Y-79553500D01*
X124914800Y-78053500D01*
G37*
%TD.AperFunction*%
%TA.AperFunction,SMDPad,CuDef*%
%TO.P,JP1,2*%
%TO.N,Net-(JP1-Pad2)*%
G36*
X124114800Y-79552898D02*
G01*
X124090266Y-79552898D01*
X124041435Y-79548088D01*
X123993310Y-79538516D01*
X123946355Y-79524272D01*
X123901022Y-79505495D01*
X123857749Y-79482364D01*
X123816950Y-79455104D01*
X123779021Y-79423976D01*
X123744324Y-79389279D01*
X123713196Y-79351350D01*
X123685936Y-79310551D01*
X123662805Y-79267278D01*
X123644028Y-79221945D01*
X123629784Y-79174990D01*
X123620212Y-79126865D01*
X123615402Y-79078034D01*
X123615402Y-79053500D01*
X123614800Y-79053500D01*
X123614800Y-78553500D01*
X123615402Y-78553500D01*
X123615402Y-78528966D01*
X123620212Y-78480135D01*
X123629784Y-78432010D01*
X123644028Y-78385055D01*
X123662805Y-78339722D01*
X123685936Y-78296449D01*
X123713196Y-78255650D01*
X123744324Y-78217721D01*
X123779021Y-78183024D01*
X123816950Y-78151896D01*
X123857749Y-78124636D01*
X123901022Y-78101505D01*
X123946355Y-78082728D01*
X123993310Y-78068484D01*
X124041435Y-78058912D01*
X124090266Y-78054102D01*
X124114800Y-78054102D01*
X124114800Y-78053500D01*
X124614800Y-78053500D01*
X124614800Y-79553500D01*
X124114800Y-79553500D01*
X124114800Y-79552898D01*
G37*
%TD.AperFunction*%
%TD*%
%TO.P,R2,2*%
%TO.N,GND*%
%TA.AperFunction,SMDPad,CuDef*%
G36*
G01*
X121736600Y-80044300D02*
X121736600Y-79569300D01*
G75*
G02*
X121974100Y-79331800I237500J0D01*
G01*
X122549100Y-79331800D01*
G75*
G02*
X122786600Y-79569300I0J-237500D01*
G01*
X122786600Y-80044300D01*
G75*
G02*
X122549100Y-80281800I-237500J0D01*
G01*
X121974100Y-80281800D01*
G75*
G02*
X121736600Y-80044300I0J237500D01*
G01*
G37*
%TD.AperFunction*%
%TO.P,R2,1*%
%TO.N,/A1*%
%TA.AperFunction,SMDPad,CuDef*%
G36*
G01*
X119986600Y-80044300D02*
X119986600Y-79569300D01*
G75*
G02*
X120224100Y-79331800I237500J0D01*
G01*
X120799100Y-79331800D01*
G75*
G02*
X121036600Y-79569300I0J-237500D01*
G01*
X121036600Y-80044300D01*
G75*
G02*
X120799100Y-80281800I-237500J0D01*
G01*
X120224100Y-80281800D01*
G75*
G02*
X119986600Y-80044300I0J237500D01*
G01*
G37*
%TD.AperFunction*%
%TD*%
%TO.P,C7,2*%
%TO.N,GND*%
%TA.AperFunction,SMDPad,CuDef*%
G36*
G01*
X120222000Y-87827600D02*
X120697000Y-87827600D01*
G75*
G02*
X120934500Y-88065100I0J-237500D01*
G01*
X120934500Y-88640100D01*
G75*
G02*
X120697000Y-88877600I-237500J0D01*
G01*
X120222000Y-88877600D01*
G75*
G02*
X119984500Y-88640100I0J237500D01*
G01*
X119984500Y-88065100D01*
G75*
G02*
X120222000Y-87827600I237500J0D01*
G01*
G37*
%TD.AperFunction*%
%TO.P,C7,1*%
%TO.N,/BATT+*%
%TA.AperFunction,SMDPad,CuDef*%
G36*
G01*
X120222000Y-86077600D02*
X120697000Y-86077600D01*
G75*
G02*
X120934500Y-86315100I0J-237500D01*
G01*
X120934500Y-86890100D01*
G75*
G02*
X120697000Y-87127600I-237500J0D01*
G01*
X120222000Y-87127600D01*
G75*
G02*
X119984500Y-86890100I0J237500D01*
G01*
X119984500Y-86315100D01*
G75*
G02*
X120222000Y-86077600I237500J0D01*
G01*
G37*
%TD.AperFunction*%
%TD*%
%TO.P,C8,2*%
%TO.N,GND*%
%TA.AperFunction,SMDPad,CuDef*%
G36*
G01*
X121771400Y-87827600D02*
X122246400Y-87827600D01*
G75*
G02*
X122483900Y-88065100I0J-237500D01*
G01*
X122483900Y-88640100D01*
G75*
G02*
X122246400Y-88877600I-237500J0D01*
G01*
X121771400Y-88877600D01*
G75*
G02*
X121533900Y-88640100I0J237500D01*
G01*
X121533900Y-88065100D01*
G75*
G02*
X121771400Y-87827600I237500J0D01*
G01*
G37*
%TD.AperFunction*%
%TO.P,C8,1*%
%TO.N,/BATT+*%
%TA.AperFunction,SMDPad,CuDef*%
G36*
G01*
X121771400Y-86077600D02*
X122246400Y-86077600D01*
G75*
G02*
X122483900Y-86315100I0J-237500D01*
G01*
X122483900Y-86890100D01*
G75*
G02*
X122246400Y-87127600I-237500J0D01*
G01*
X121771400Y-87127600D01*
G75*
G02*
X121533900Y-86890100I0J237500D01*
G01*
X121533900Y-86315100D01*
G75*
G02*
X121771400Y-86077600I237500J0D01*
G01*
G37*
%TD.AperFunction*%
%TD*%
%TO.P,C2,2*%
%TO.N,GND*%
%TA.AperFunction,SMDPad,CuDef*%
G36*
G01*
X123339700Y-88862200D02*
X124589700Y-88862200D01*
G75*
G02*
X124839700Y-89112200I0J-250000D01*
G01*
X124839700Y-90037200D01*
G75*
G02*
X124589700Y-90287200I-250000J0D01*
G01*
X123339700Y-90287200D01*
G75*
G02*
X123089700Y-90037200I0J250000D01*
G01*
X123089700Y-89112200D01*
G75*
G02*
X123339700Y-88862200I250000J0D01*
G01*
G37*
%TD.AperFunction*%
%TO.P,C2,1*%
%TO.N,/BATT+*%
%TA.AperFunction,SMDPad,CuDef*%
G36*
G01*
X123339700Y-85887200D02*
X124589700Y-85887200D01*
G75*
G02*
X124839700Y-86137200I0J-250000D01*
G01*
X124839700Y-87062200D01*
G75*
G02*
X124589700Y-87312200I-250000J0D01*
G01*
X123339700Y-87312200D01*
G75*
G02*
X123089700Y-87062200I0J250000D01*
G01*
X123089700Y-86137200D01*
G75*
G02*
X123339700Y-85887200I250000J0D01*
G01*
G37*
%TD.AperFunction*%
%TD*%
%TO.P,R4,2*%
%TO.N,GND*%
%TA.AperFunction,SMDPad,CuDef*%
G36*
G01*
X127232400Y-93136200D02*
X127707400Y-93136200D01*
G75*
G02*
X127944900Y-93373700I0J-237500D01*
G01*
X127944900Y-93948700D01*
G75*
G02*
X127707400Y-94186200I-237500J0D01*
G01*
X127232400Y-94186200D01*
G75*
G02*
X126994900Y-93948700I0J237500D01*
G01*
X126994900Y-93373700D01*
G75*
G02*
X127232400Y-93136200I237500J0D01*
G01*
G37*
%TD.AperFunction*%
%TO.P,R4,1*%
%TO.N,/ROSC*%
%TA.AperFunction,SMDPad,CuDef*%
G36*
G01*
X127232400Y-91386200D02*
X127707400Y-91386200D01*
G75*
G02*
X127944900Y-91623700I0J-237500D01*
G01*
X127944900Y-92198700D01*
G75*
G02*
X127707400Y-92436200I-237500J0D01*
G01*
X127232400Y-92436200D01*
G75*
G02*
X126994900Y-92198700I0J237500D01*
G01*
X126994900Y-91623700D01*
G75*
G02*
X127232400Y-91386200I237500J0D01*
G01*
G37*
%TD.AperFunction*%
%TD*%
D14*
%TO.P,D1,2*%
%TO.N,GND*%
X134658100Y-91633500D03*
%TO.P,D1,1*%
%TO.N,Net-(C1-Pad2)*%
X134658100Y-88833500D03*
%TD*%
D15*
%TO.P,U1,3*%
%TO.N,/ROSC*%
X126442300Y-88950800D03*
%TO.P,U1,8*%
%TO.N,Net-(C1-Pad2)*%
X131342300Y-86410800D03*
%TO.P,U1,7*%
%TO.N,GND*%
X131342300Y-87680800D03*
%TO.P,U1,6*%
%TO.N,Net-(R3-Pad1)*%
X131342300Y-88950800D03*
%TO.P,U1,5*%
%TO.N,Net-(C1-Pad2)*%
X131342300Y-90220800D03*
%TO.P,U1,4*%
%TO.N,Net-(C5-Pad1)*%
X126442300Y-90220800D03*
%TO.P,U1,2*%
%TO.N,/BATT+*%
X126442300Y-87680800D03*
%TO.P,U1,1*%
%TO.N,Net-(C1-Pad1)*%
X126442300Y-86410800D03*
%TD*%
%TO.P,R3,2*%
%TO.N,Net-(C3-Pad1)*%
%TA.AperFunction,SMDPad,CuDef*%
G36*
G01*
X130077200Y-93136200D02*
X130552200Y-93136200D01*
G75*
G02*
X130789700Y-93373700I0J-237500D01*
G01*
X130789700Y-93948700D01*
G75*
G02*
X130552200Y-94186200I-237500J0D01*
G01*
X130077200Y-94186200D01*
G75*
G02*
X129839700Y-93948700I0J237500D01*
G01*
X129839700Y-93373700D01*
G75*
G02*
X130077200Y-93136200I237500J0D01*
G01*
G37*
%TD.AperFunction*%
%TO.P,R3,1*%
%TO.N,Net-(R3-Pad1)*%
%TA.AperFunction,SMDPad,CuDef*%
G36*
G01*
X130077200Y-91386200D02*
X130552200Y-91386200D01*
G75*
G02*
X130789700Y-91623700I0J-237500D01*
G01*
X130789700Y-92198700D01*
G75*
G02*
X130552200Y-92436200I-237500J0D01*
G01*
X130077200Y-92436200D01*
G75*
G02*
X129839700Y-92198700I0J237500D01*
G01*
X129839700Y-91623700D01*
G75*
G02*
X130077200Y-91386200I237500J0D01*
G01*
G37*
%TD.AperFunction*%
%TD*%
%TO.P,C5,2*%
%TO.N,GND*%
%TA.AperFunction,SMDPad,CuDef*%
G36*
G01*
X125683000Y-93136200D02*
X126158000Y-93136200D01*
G75*
G02*
X126395500Y-93373700I0J-237500D01*
G01*
X126395500Y-93948700D01*
G75*
G02*
X126158000Y-94186200I-237500J0D01*
G01*
X125683000Y-94186200D01*
G75*
G02*
X125445500Y-93948700I0J237500D01*
G01*
X125445500Y-93373700D01*
G75*
G02*
X125683000Y-93136200I237500J0D01*
G01*
G37*
%TD.AperFunction*%
%TO.P,C5,1*%
%TO.N,Net-(C5-Pad1)*%
%TA.AperFunction,SMDPad,CuDef*%
G36*
G01*
X125683000Y-91386200D02*
X126158000Y-91386200D01*
G75*
G02*
X126395500Y-91623700I0J-237500D01*
G01*
X126395500Y-92198700D01*
G75*
G02*
X126158000Y-92436200I-237500J0D01*
G01*
X125683000Y-92436200D01*
G75*
G02*
X125445500Y-92198700I0J237500D01*
G01*
X125445500Y-91623700D01*
G75*
G02*
X125683000Y-91386200I237500J0D01*
G01*
G37*
%TD.AperFunction*%
%TD*%
%TO.P,C3,2*%
%TO.N,GND*%
%TA.AperFunction,SMDPad,CuDef*%
G36*
G01*
X132101600Y-92436200D02*
X131626600Y-92436200D01*
G75*
G02*
X131389100Y-92198700I0J237500D01*
G01*
X131389100Y-91623700D01*
G75*
G02*
X131626600Y-91386200I237500J0D01*
G01*
X132101600Y-91386200D01*
G75*
G02*
X132339100Y-91623700I0J-237500D01*
G01*
X132339100Y-92198700D01*
G75*
G02*
X132101600Y-92436200I-237500J0D01*
G01*
G37*
%TD.AperFunction*%
%TO.P,C3,1*%
%TO.N,Net-(C3-Pad1)*%
%TA.AperFunction,SMDPad,CuDef*%
G36*
G01*
X132101600Y-94186200D02*
X131626600Y-94186200D01*
G75*
G02*
X131389100Y-93948700I0J237500D01*
G01*
X131389100Y-93373700D01*
G75*
G02*
X131626600Y-93136200I237500J0D01*
G01*
X132101600Y-93136200D01*
G75*
G02*
X132339100Y-93373700I0J-237500D01*
G01*
X132339100Y-93948700D01*
G75*
G02*
X132101600Y-94186200I-237500J0D01*
G01*
G37*
%TD.AperFunction*%
%TD*%
%TO.P,C1,2*%
%TO.N,Net-(C1-Pad2)*%
%TA.AperFunction,SMDPad,CuDef*%
G36*
G01*
X131172700Y-84946500D02*
X131172700Y-84471500D01*
G75*
G02*
X131410200Y-84234000I237500J0D01*
G01*
X131985200Y-84234000D01*
G75*
G02*
X132222700Y-84471500I0J-237500D01*
G01*
X132222700Y-84946500D01*
G75*
G02*
X131985200Y-85184000I-237500J0D01*
G01*
X131410200Y-85184000D01*
G75*
G02*
X131172700Y-84946500I0J237500D01*
G01*
G37*
%TD.AperFunction*%
%TO.P,C1,1*%
%TO.N,Net-(C1-Pad1)*%
%TA.AperFunction,SMDPad,CuDef*%
G36*
G01*
X129422700Y-84946500D02*
X129422700Y-84471500D01*
G75*
G02*
X129660200Y-84234000I237500J0D01*
G01*
X130235200Y-84234000D01*
G75*
G02*
X130472700Y-84471500I0J-237500D01*
G01*
X130472700Y-84946500D01*
G75*
G02*
X130235200Y-85184000I-237500J0D01*
G01*
X129660200Y-85184000D01*
G75*
G02*
X129422700Y-84946500I0J237500D01*
G01*
G37*
%TD.AperFunction*%
%TD*%
D16*
%TO.P,J1,1*%
%TO.N,/BATT+*%
X130467100Y-70116700D03*
D17*
%TO.P,J1,2*%
%TO.N,GND*%
X125467100Y-70116700D03*
%TD*%
D18*
%TO.P,J3,16*%
%TO.N,Net-(J3-Pad16)*%
X117856000Y-108839000D03*
%TO.P,J3,15*%
%TO.N,Net-(J3-Pad15)*%
X117856000Y-106299000D03*
%TO.P,J3,14*%
%TO.N,Net-(J3-Pad14)*%
X117856000Y-103759000D03*
%TO.P,J3,13*%
%TO.N,Net-(J3-Pad13)*%
X117856000Y-101219000D03*
%TO.P,J3,12*%
%TO.N,Net-(J3-Pad12)*%
X117856000Y-98679000D03*
%TO.P,J3,11*%
%TO.N,Net-(J3-Pad11)*%
X117856000Y-96139000D03*
%TO.P,J3,10*%
%TO.N,Net-(J3-Pad10)*%
X117856000Y-93599000D03*
%TO.P,J3,9*%
%TO.N,Net-(J3-Pad9)*%
X117856000Y-91059000D03*
%TO.P,J3,8*%
%TO.N,Net-(J3-Pad8)*%
X117856000Y-88519000D03*
%TO.P,J3,7*%
%TO.N,Net-(J3-Pad7)*%
X117856000Y-85979000D03*
%TO.P,J3,6*%
%TO.N,/A1*%
X117856000Y-83439000D03*
%TO.P,J3,5*%
%TO.N,Net-(J3-Pad5)*%
X117856000Y-80899000D03*
%TO.P,J3,4*%
%TO.N,GND*%
X117856000Y-78359000D03*
%TO.P,J3,3*%
%TO.N,Net-(J3-Pad3)*%
X117856000Y-75819000D03*
%TO.P,J3,2*%
%TO.N,Net-(J3-Pad2)*%
X117856000Y-73279000D03*
D19*
%TO.P,J3,1*%
%TO.N,Net-(J3-Pad1)*%
X117856000Y-70739000D03*
%TD*%
%TO.P,R1,2*%
%TO.N,Net-(JP1-Pad2)*%
%TA.AperFunction,SMDPad,CuDef*%
G36*
G01*
X121736600Y-78520300D02*
X121736600Y-78045300D01*
G75*
G02*
X121974100Y-77807800I237500J0D01*
G01*
X122549100Y-77807800D01*
G75*
G02*
X122786600Y-78045300I0J-237500D01*
G01*
X122786600Y-78520300D01*
G75*
G02*
X122549100Y-78757800I-237500J0D01*
G01*
X121974100Y-78757800D01*
G75*
G02*
X121736600Y-78520300I0J237500D01*
G01*
G37*
%TD.AperFunction*%
%TO.P,R1,1*%
%TO.N,/A1*%
%TA.AperFunction,SMDPad,CuDef*%
G36*
G01*
X119986600Y-78520300D02*
X119986600Y-78045300D01*
G75*
G02*
X120224100Y-77807800I237500J0D01*
G01*
X120799100Y-77807800D01*
G75*
G02*
X121036600Y-78045300I0J-237500D01*
G01*
X121036600Y-78520300D01*
G75*
G02*
X120799100Y-78757800I-237500J0D01*
G01*
X120224100Y-78757800D01*
G75*
G02*
X119986600Y-78520300I0J237500D01*
G01*
G37*
%TD.AperFunction*%
%TD*%
%TO.P,J2,1*%
%TO.N,Net-(J2-Pad1)*%
X138176000Y-70739000D03*
D18*
%TO.P,J2,2*%
%TO.N,+3V3*%
X138176000Y-73279000D03*
%TO.P,J2,3*%
%TO.N,Net-(J2-Pad3)*%
X138176000Y-75819000D03*
%TO.P,J2,4*%
%TO.N,VUSB*%
X138176000Y-78359000D03*
%TO.P,J2,5*%
%TO.N,Net-(J2-Pad5)*%
X138176000Y-80899000D03*
%TO.P,J2,6*%
%TO.N,Net-(J2-Pad6)*%
X138176000Y-83439000D03*
%TO.P,J2,7*%
%TO.N,Net-(J2-Pad7)*%
X138176000Y-85979000D03*
%TO.P,J2,8*%
%TO.N,Net-(J2-Pad8)*%
X138176000Y-88519000D03*
%TO.P,J2,9*%
%TO.N,Net-(J2-Pad9)*%
X138176000Y-91059000D03*
%TO.P,J2,10*%
%TO.N,Net-(J2-Pad10)*%
X138176000Y-93599000D03*
%TO.P,J2,11*%
%TO.N,/SCL*%
X138176000Y-96139000D03*
%TO.P,J2,12*%
%TO.N,/SDA*%
X138176000Y-98679000D03*
%TD*%
D20*
%TO.N,GND*%
X121881900Y-73914000D03*
X129501900Y-87096600D03*
X129501900Y-87960200D03*
X129501900Y-88798400D03*
X134277100Y-93383100D03*
X135166100Y-93383100D03*
X128625600Y-93662500D03*
X133032500Y-91897200D03*
X122961400Y-64744600D03*
X124231400Y-64744600D03*
X126771400Y-64744600D03*
X125501400Y-64744600D03*
X130835400Y-64744600D03*
X132105400Y-64744600D03*
X129565400Y-64744600D03*
X133375400Y-64744600D03*
X128270000Y-64744600D03*
X120091200Y-89611200D03*
X120827800Y-89611200D03*
X121640600Y-89585800D03*
X123520200Y-90957400D03*
X124358400Y-90957400D03*
X123571000Y-81889600D03*
X130429000Y-81026000D03*
X130429000Y-81915000D03*
X130302000Y-77597000D03*
X130302000Y-78486000D03*
%TO.N,VUSB*%
X135636000Y-105156000D03*
%TO.N,GND*%
X134975600Y-100965000D03*
X127330200Y-113766600D03*
X132562600Y-113766600D03*
X123418600Y-113766600D03*
X131292600Y-113766600D03*
X122148600Y-113766600D03*
X125958600Y-113766600D03*
X124688600Y-113766600D03*
X130022600Y-113766600D03*
X128752600Y-113766600D03*
X133731000Y-113766600D03*
%TD*%
D21*
%TO.N,VUSB*%
X134964500Y-81483200D02*
X134964500Y-78244700D01*
X135078800Y-78359000D02*
X134964500Y-78244700D01*
X138176000Y-78359000D02*
X135078800Y-78359000D01*
X134964500Y-81483200D02*
X135929700Y-82448400D01*
X135929700Y-85380300D02*
X136045800Y-85496400D01*
X135929700Y-82448400D02*
X135929700Y-85380300D01*
D22*
%TO.N,GND*%
X130086100Y-87680800D02*
X129501900Y-87096600D01*
X131342300Y-87680800D02*
X130086100Y-87680800D01*
X129781300Y-87680800D02*
X129501900Y-87960200D01*
X131342300Y-87680800D02*
X129781300Y-87680800D01*
X129501900Y-87759200D02*
X129501900Y-88798400D01*
X129580300Y-87680800D02*
X129501900Y-87759200D01*
X131342300Y-87680800D02*
X129580300Y-87680800D01*
X127471200Y-93662500D02*
X127469900Y-93661200D01*
X128625600Y-93662500D02*
X127471200Y-93662500D01*
X131878100Y-91897200D02*
X131864100Y-91911200D01*
X133032500Y-91897200D02*
X131878100Y-91897200D01*
D21*
X123964700Y-89574700D02*
X123231000Y-89574700D01*
D22*
X125920500Y-93661200D02*
X127469900Y-93661200D01*
D21*
X120459500Y-88352600D02*
X122008900Y-88352600D01*
D22*
X120459500Y-89242900D02*
X120091200Y-89611200D01*
X120459500Y-89242900D02*
X120827800Y-89611200D01*
X120459500Y-88352600D02*
X120459500Y-89242900D01*
X120459500Y-88352600D02*
X120459500Y-88404700D01*
X122352450Y-88873950D02*
X122530250Y-88873950D01*
X121640600Y-89585800D02*
X122352450Y-88873950D01*
D21*
X123231000Y-89574700D02*
X122530250Y-88873950D01*
X122530250Y-88873950D02*
X122008900Y-88352600D01*
D22*
X122008900Y-88557100D02*
X121310400Y-89255600D01*
X122008900Y-88352600D02*
X122008900Y-88557100D01*
X120459500Y-88404700D02*
X121310400Y-89255600D01*
X121310400Y-89255600D02*
X121640600Y-89585800D01*
X123964700Y-90512900D02*
X123520200Y-90957400D01*
X123964700Y-89574700D02*
X123964700Y-90512900D01*
X123964700Y-90563700D02*
X124358400Y-90957400D01*
X123964700Y-89574700D02*
X123964700Y-90563700D01*
D21*
X131989500Y-78244700D02*
X131989500Y-81483200D01*
D23*
X122261600Y-79806800D02*
X122261600Y-81330800D01*
X122261600Y-81330800D02*
X122261600Y-81443800D01*
X123012200Y-81330800D02*
X123571000Y-81889600D01*
X122261600Y-81330800D02*
X123012200Y-81330800D01*
D22*
X134658100Y-93002100D02*
X134277100Y-93383100D01*
X134658100Y-91633500D02*
X134658100Y-93002100D01*
X134658100Y-92875100D02*
X135166100Y-93383100D01*
X134658100Y-91633500D02*
X134658100Y-92875100D01*
X131989500Y-81483200D02*
X131775200Y-81483200D01*
X131318000Y-81026000D02*
X130429000Y-81026000D01*
X131775200Y-81483200D02*
X131318000Y-81026000D01*
X131989500Y-81483200D02*
X131989500Y-81751500D01*
X131826000Y-81915000D02*
X130429000Y-81915000D01*
X131989500Y-81751500D02*
X131826000Y-81915000D01*
X131989500Y-81483200D02*
X130606800Y-81483200D01*
X131940300Y-78244700D02*
X131989500Y-78244700D01*
X131699000Y-78486000D02*
X130302000Y-78486000D01*
X131648200Y-78054200D02*
X131191000Y-77597000D01*
X131862500Y-78054200D02*
X131648200Y-78054200D01*
X131862500Y-78054200D02*
X131862500Y-78322500D01*
X131862500Y-78054200D02*
X130479800Y-78054200D01*
X131862500Y-78322500D02*
X131699000Y-78486000D01*
X131191000Y-77597000D02*
X130302000Y-77597000D01*
D24*
%TO.N,VUSB*%
X135628000Y-105148000D02*
X135636000Y-105156000D01*
X134017000Y-105148000D02*
X135628000Y-105148000D01*
D23*
%TO.N,Net-(C1-Pad2)*%
X131697700Y-86055400D02*
X131342300Y-86410800D01*
X131697700Y-84709000D02*
X131697700Y-86055400D01*
D21*
X132381400Y-86410800D02*
X133295800Y-85496400D01*
X131342300Y-86410800D02*
X132381400Y-86410800D01*
X133295800Y-87471200D02*
X134658100Y-88833500D01*
X133295800Y-85496400D02*
X133295800Y-87471200D01*
D23*
X134034400Y-88833500D02*
X134658100Y-88833500D01*
X132647100Y-90220800D02*
X134034400Y-88833500D01*
X131342300Y-90220800D02*
X132647100Y-90220800D01*
D21*
X133295800Y-83912300D02*
X133295800Y-85496400D01*
D23*
%TO.N,Net-(C1-Pad1)*%
X128245900Y-86410800D02*
X126442300Y-86410800D01*
X129947700Y-84709000D02*
X128245900Y-86410800D01*
D21*
%TO.N,/BATT+*%
X126442300Y-87680800D02*
X125045800Y-87680800D01*
X125045800Y-87680800D02*
X123964700Y-86599700D01*
X123964700Y-86599700D02*
X120462400Y-86599700D01*
X128346200Y-72186800D02*
X130416300Y-70116700D01*
X130416300Y-70116700D02*
X130467100Y-70116700D01*
X123964700Y-86599700D02*
X124675901Y-85888499D01*
X124675901Y-85888499D02*
X124675901Y-82589597D01*
X128346200Y-78919298D02*
X128346200Y-72186800D01*
D23*
X125414800Y-78803500D02*
X126542800Y-78803500D01*
D21*
X124675901Y-82589597D02*
X127502399Y-79763099D01*
D23*
X126542800Y-78803500D02*
X127502399Y-79763099D01*
D21*
X127502399Y-79763099D02*
X128346200Y-78919298D01*
D23*
%TO.N,Net-(C3-Pad1)*%
X130289300Y-93661200D02*
X131864100Y-93661200D01*
%TO.N,Net-(C5-Pad1)*%
X126442300Y-91389400D02*
X125920500Y-91911200D01*
X126442300Y-90220800D02*
X126442300Y-91389400D01*
%TO.N,Net-(R3-Pad1)*%
X130037499Y-91633999D02*
X130314700Y-91911200D01*
X130037499Y-89555601D02*
X130037499Y-91633999D01*
X130642300Y-88950800D02*
X130037499Y-89555601D01*
X131342300Y-88950800D02*
X130642300Y-88950800D01*
%TO.N,/ROSC*%
X127747101Y-91633999D02*
X127469900Y-91911200D01*
X127747101Y-89555601D02*
X127747101Y-91633999D01*
X127142300Y-88950800D02*
X127747101Y-89555601D01*
X126442300Y-88950800D02*
X127142300Y-88950800D01*
%TO.N,Net-(JP1-Pad2)*%
X124114800Y-78803500D02*
X123581400Y-78270100D01*
X122274300Y-78270100D02*
X122261600Y-78282800D01*
X123581400Y-78270100D02*
X122274300Y-78270100D01*
%TO.N,/A1*%
X120511600Y-78282800D02*
X120511600Y-79806800D01*
X120511600Y-79806800D02*
X120511600Y-81330800D01*
X120511600Y-81330800D02*
X120511600Y-82104200D01*
X119176800Y-83439000D02*
X117856000Y-83439000D01*
X120511600Y-82104200D02*
X119176800Y-83439000D01*
%TO.N,/SCL*%
X133154800Y-104148000D02*
X134017000Y-104148000D01*
X132937190Y-101377810D02*
X132937190Y-103930390D01*
X132937190Y-103930390D02*
X133154800Y-104148000D01*
X138176000Y-96139000D02*
X132937190Y-101377810D01*
%TO.N,/SDA*%
X138176000Y-98679000D02*
X136169400Y-100685600D01*
X136169400Y-100685600D02*
X136169400Y-102463600D01*
X135485000Y-103148000D02*
X134017000Y-103148000D01*
X136169400Y-102463600D02*
X135485000Y-103148000D01*
%TD*%
D25*
%TO.N,GND*%
G36*
X129704228Y-86110800D02*
G01*
X129704228Y-86710800D01*
X129716488Y-86835282D01*
X129752798Y-86954980D01*
X129801343Y-87045800D01*
X129752798Y-87136620D01*
X129716488Y-87256318D01*
X129704228Y-87380800D01*
X129707300Y-87395050D01*
X129866050Y-87553800D01*
X130840464Y-87553800D01*
X130863708Y-87566224D01*
X131098316Y-87637392D01*
X131281157Y-87655400D01*
X131489300Y-87655400D01*
X131489300Y-87807800D01*
X131469300Y-87807800D01*
X131469300Y-87827800D01*
X131215300Y-87827800D01*
X131215300Y-87807800D01*
X129866050Y-87807800D01*
X129707300Y-87966550D01*
X129704228Y-87980800D01*
X129716488Y-88105282D01*
X129752798Y-88224980D01*
X129801343Y-88315800D01*
X129752798Y-88406620D01*
X129716488Y-88526318D01*
X129704228Y-88650800D01*
X129704228Y-88775322D01*
X129508076Y-88971474D01*
X129478030Y-88996132D01*
X129379633Y-89116030D01*
X129306517Y-89252819D01*
X129261493Y-89401245D01*
X129250099Y-89516929D01*
X129250099Y-89516938D01*
X129246291Y-89555601D01*
X129250099Y-89594264D01*
X129250100Y-91348555D01*
X129218452Y-91452884D01*
X129201628Y-91623700D01*
X129201628Y-92198700D01*
X129218452Y-92369516D01*
X129268277Y-92533767D01*
X129349188Y-92685142D01*
X129432125Y-92786200D01*
X129349188Y-92887258D01*
X129268277Y-93038633D01*
X129218452Y-93202884D01*
X129201628Y-93373700D01*
X129201628Y-93948700D01*
X129218452Y-94119516D01*
X129268277Y-94283767D01*
X129349188Y-94435142D01*
X129458077Y-94567823D01*
X129590758Y-94676712D01*
X129742133Y-94757623D01*
X129906384Y-94807448D01*
X130077200Y-94824272D01*
X130552200Y-94824272D01*
X130723016Y-94807448D01*
X130887267Y-94757623D01*
X131038642Y-94676712D01*
X131089400Y-94635056D01*
X131140158Y-94676712D01*
X131291533Y-94757623D01*
X131455784Y-94807448D01*
X131626600Y-94824272D01*
X132101600Y-94824272D01*
X132272416Y-94807448D01*
X132436667Y-94757623D01*
X132588042Y-94676712D01*
X132720723Y-94567823D01*
X132829612Y-94435142D01*
X132910523Y-94283767D01*
X132960348Y-94119516D01*
X132977172Y-93948700D01*
X132977172Y-93373700D01*
X132960348Y-93202884D01*
X132910523Y-93038633D01*
X132829612Y-92887258D01*
X132810001Y-92863361D01*
X132869637Y-92790694D01*
X132928602Y-92680380D01*
X132964912Y-92560682D01*
X132977172Y-92436200D01*
X132974100Y-92196950D01*
X132960650Y-92183500D01*
X133470028Y-92183500D01*
X133482288Y-92307982D01*
X133518598Y-92427680D01*
X133577563Y-92537994D01*
X133656915Y-92634685D01*
X133753606Y-92714037D01*
X133863920Y-92773002D01*
X133983618Y-92809312D01*
X134108100Y-92821572D01*
X134372350Y-92818500D01*
X134531100Y-92659750D01*
X134531100Y-91760500D01*
X134785100Y-91760500D01*
X134785100Y-92659750D01*
X134943850Y-92818500D01*
X135208100Y-92821572D01*
X135332582Y-92809312D01*
X135452280Y-92773002D01*
X135562594Y-92714037D01*
X135659285Y-92634685D01*
X135738637Y-92537994D01*
X135797602Y-92427680D01*
X135833912Y-92307982D01*
X135846172Y-92183500D01*
X135843100Y-91919250D01*
X135684350Y-91760500D01*
X134785100Y-91760500D01*
X134531100Y-91760500D01*
X133631850Y-91760500D01*
X133473100Y-91919250D01*
X133470028Y-92183500D01*
X132960650Y-92183500D01*
X132815350Y-92038200D01*
X131991100Y-92038200D01*
X131991100Y-92058200D01*
X131737100Y-92058200D01*
X131737100Y-92038200D01*
X131717100Y-92038200D01*
X131717100Y-91784200D01*
X131737100Y-91784200D01*
X131737100Y-91764200D01*
X131991100Y-91764200D01*
X131991100Y-91784200D01*
X132815350Y-91784200D01*
X132974100Y-91625450D01*
X132977172Y-91386200D01*
X132964912Y-91261718D01*
X132928602Y-91142020D01*
X132897322Y-91083500D01*
X133470028Y-91083500D01*
X133473100Y-91347750D01*
X133631850Y-91506500D01*
X134531100Y-91506500D01*
X134531100Y-90607250D01*
X134785100Y-90607250D01*
X134785100Y-91506500D01*
X135684350Y-91506500D01*
X135843100Y-91347750D01*
X135846172Y-91083500D01*
X135833912Y-90959018D01*
X135797602Y-90839320D01*
X135738637Y-90729006D01*
X135659285Y-90632315D01*
X135562594Y-90552963D01*
X135452280Y-90493998D01*
X135332582Y-90457688D01*
X135208100Y-90445428D01*
X134943850Y-90448500D01*
X134785100Y-90607250D01*
X134531100Y-90607250D01*
X134372350Y-90448500D01*
X134108100Y-90445428D01*
X133983618Y-90457688D01*
X133863920Y-90493998D01*
X133753606Y-90552963D01*
X133656915Y-90632315D01*
X133577563Y-90729006D01*
X133518598Y-90839320D01*
X133482288Y-90959018D01*
X133470028Y-91083500D01*
X132897322Y-91083500D01*
X132869637Y-91031706D01*
X132833114Y-90987203D01*
X132949883Y-90951782D01*
X133086672Y-90878666D01*
X133206569Y-90780269D01*
X133231227Y-90750223D01*
X133974811Y-90006640D01*
X133983618Y-90009312D01*
X134108100Y-90021572D01*
X134287136Y-90021572D01*
X134414115Y-90060091D01*
X134658099Y-90084121D01*
X134902084Y-90060091D01*
X135029063Y-90021572D01*
X135208100Y-90021572D01*
X135332582Y-90009312D01*
X135452280Y-89973002D01*
X135562594Y-89914037D01*
X135659285Y-89834685D01*
X135738637Y-89737994D01*
X135797602Y-89627680D01*
X135833912Y-89507982D01*
X135846172Y-89383500D01*
X135846172Y-89204463D01*
X135884691Y-89077484D01*
X135908721Y-88833499D01*
X135884691Y-88589515D01*
X135846172Y-88462536D01*
X135846172Y-88334472D01*
X136545800Y-88334472D01*
X136670282Y-88322212D01*
X136703027Y-88312279D01*
X136691000Y-88372740D01*
X136691000Y-88665260D01*
X136748068Y-88952158D01*
X136860010Y-89222411D01*
X137022525Y-89465632D01*
X137229368Y-89672475D01*
X137403760Y-89789000D01*
X137229368Y-89905525D01*
X137022525Y-90112368D01*
X136860010Y-90355589D01*
X136748068Y-90625842D01*
X136691000Y-90912740D01*
X136691000Y-91205260D01*
X136748068Y-91492158D01*
X136860010Y-91762411D01*
X137022525Y-92005632D01*
X137229368Y-92212475D01*
X137403760Y-92329000D01*
X137229368Y-92445525D01*
X137022525Y-92652368D01*
X136860010Y-92895589D01*
X136748068Y-93165842D01*
X136691000Y-93452740D01*
X136691000Y-93745260D01*
X136748068Y-94032158D01*
X136860010Y-94302411D01*
X137022525Y-94545632D01*
X137229368Y-94752475D01*
X137403760Y-94869000D01*
X137229368Y-94985525D01*
X137022525Y-95192368D01*
X136860010Y-95435589D01*
X136748068Y-95705842D01*
X136691000Y-95992740D01*
X136691000Y-96285260D01*
X136728361Y-96473087D01*
X132407768Y-100793682D01*
X132377721Y-100818341D01*
X132279324Y-100938239D01*
X132206208Y-101075028D01*
X132161184Y-101223454D01*
X132149790Y-101339138D01*
X132149790Y-101339147D01*
X132145982Y-101377810D01*
X132149790Y-101416473D01*
X132149791Y-103891717D01*
X132145982Y-103930390D01*
X132161185Y-104084747D01*
X132206208Y-104233172D01*
X132236261Y-104289396D01*
X132279325Y-104369962D01*
X132377722Y-104489859D01*
X132407763Y-104514513D01*
X132570672Y-104677422D01*
X132595331Y-104707469D01*
X132647561Y-104750333D01*
X132619071Y-104844255D01*
X132603928Y-104998000D01*
X132603928Y-105298000D01*
X132619071Y-105451745D01*
X132660602Y-105588658D01*
X132652498Y-105603820D01*
X132616188Y-105723518D01*
X132603928Y-105848000D01*
X132607000Y-105862250D01*
X132765750Y-106021000D01*
X133080907Y-106021000D01*
X133090418Y-106026084D01*
X133238255Y-106070929D01*
X133392000Y-106086072D01*
X133953288Y-106086072D01*
X133970833Y-106087800D01*
X135330188Y-106087800D01*
X135350757Y-106096320D01*
X135539685Y-106133900D01*
X135732315Y-106133900D01*
X135921243Y-106096320D01*
X136099210Y-106022604D01*
X136259375Y-105915585D01*
X136395585Y-105779375D01*
X136502604Y-105619210D01*
X136576320Y-105441243D01*
X136613900Y-105252315D01*
X136613900Y-105059685D01*
X136576320Y-104870757D01*
X136502604Y-104692790D01*
X136395585Y-104532625D01*
X136259375Y-104396415D01*
X136099210Y-104289396D01*
X135921243Y-104215680D01*
X135732315Y-104178100D01*
X135539685Y-104178100D01*
X135430072Y-104199903D01*
X135430072Y-103998000D01*
X135423906Y-103935400D01*
X135446337Y-103935400D01*
X135485000Y-103939208D01*
X135523663Y-103935400D01*
X135523673Y-103935400D01*
X135639357Y-103924006D01*
X135787783Y-103878982D01*
X135924572Y-103805866D01*
X136044469Y-103707469D01*
X136069127Y-103677423D01*
X136698827Y-103047724D01*
X136728869Y-103023069D01*
X136777235Y-102964135D01*
X136784326Y-102955494D01*
X136902149Y-103018472D01*
X137068745Y-103069008D01*
X137241999Y-103086072D01*
X138542001Y-103086072D01*
X138715255Y-103069008D01*
X138786001Y-103047548D01*
X138786001Y-106248452D01*
X138715255Y-106226992D01*
X138542001Y-106209928D01*
X137241999Y-106209928D01*
X137068745Y-106226992D01*
X136902149Y-106277528D01*
X136748613Y-106359595D01*
X136614038Y-106470038D01*
X136503595Y-106604613D01*
X136421528Y-106758149D01*
X136370992Y-106924745D01*
X136353928Y-107097999D01*
X136353928Y-107798001D01*
X136370992Y-107971255D01*
X136421528Y-108137851D01*
X136503595Y-108291387D01*
X136614038Y-108425962D01*
X136748613Y-108536405D01*
X136902149Y-108618472D01*
X137068745Y-108669008D01*
X137241999Y-108686072D01*
X138542001Y-108686072D01*
X138715255Y-108669008D01*
X138786001Y-108647548D01*
X138786001Y-111111668D01*
X138665085Y-110819750D01*
X138447851Y-110494636D01*
X138171364Y-110218149D01*
X137846250Y-110000915D01*
X137485003Y-109851282D01*
X137101505Y-109775000D01*
X136710495Y-109775000D01*
X136326997Y-109851282D01*
X135965750Y-110000915D01*
X135640636Y-110218149D01*
X135364149Y-110494636D01*
X135146915Y-110819750D01*
X134997282Y-111180997D01*
X134921000Y-111564495D01*
X134921000Y-111955505D01*
X134997282Y-112339003D01*
X135146915Y-112700250D01*
X135364149Y-113025364D01*
X135640636Y-113301851D01*
X135965750Y-113519085D01*
X136326997Y-113668718D01*
X136710495Y-113745000D01*
X137101505Y-113745000D01*
X137485003Y-113668718D01*
X137836982Y-113522924D01*
X137731581Y-113610119D01*
X137322162Y-113831491D01*
X136877535Y-113969126D01*
X136383990Y-114021000D01*
X119412278Y-114021000D01*
X118966118Y-113977254D01*
X118568001Y-113857055D01*
X118200815Y-113661819D01*
X117878539Y-113398977D01*
X117620763Y-113087378D01*
X117835236Y-113301851D01*
X118160350Y-113519085D01*
X118521597Y-113668718D01*
X118905095Y-113745000D01*
X119296105Y-113745000D01*
X119679603Y-113668718D01*
X120040850Y-113519085D01*
X120365964Y-113301851D01*
X120642451Y-113025364D01*
X120859685Y-112700250D01*
X121009318Y-112339003D01*
X121085600Y-111955505D01*
X121085600Y-111564495D01*
X121009318Y-111180997D01*
X120859685Y-110819750D01*
X120642451Y-110494636D01*
X120365964Y-110218149D01*
X120040850Y-110000915D01*
X119679603Y-109851282D01*
X119296105Y-109775000D01*
X119016579Y-109775000D01*
X119171990Y-109542411D01*
X119283932Y-109272158D01*
X119341000Y-108985260D01*
X119341000Y-108692740D01*
X119283932Y-108405842D01*
X119171990Y-108135589D01*
X119009475Y-107892368D01*
X118802632Y-107685525D01*
X118628240Y-107569000D01*
X118802632Y-107452475D01*
X119009475Y-107245632D01*
X119171990Y-107002411D01*
X119283932Y-106732158D01*
X119340454Y-106448000D01*
X132603928Y-106448000D01*
X132616188Y-106572482D01*
X132652498Y-106692180D01*
X132711463Y-106802494D01*
X132790815Y-106899185D01*
X132887506Y-106978537D01*
X132997820Y-107037502D01*
X133117518Y-107073812D01*
X133242000Y-107086072D01*
X133731250Y-107083000D01*
X133890000Y-106924250D01*
X133890000Y-106275000D01*
X134144000Y-106275000D01*
X134144000Y-106924250D01*
X134302750Y-107083000D01*
X134792000Y-107086072D01*
X134916482Y-107073812D01*
X135036180Y-107037502D01*
X135146494Y-106978537D01*
X135243185Y-106899185D01*
X135322537Y-106802494D01*
X135381502Y-106692180D01*
X135417812Y-106572482D01*
X135430072Y-106448000D01*
X135427000Y-106433750D01*
X135268250Y-106275000D01*
X134144000Y-106275000D01*
X133890000Y-106275000D01*
X132765750Y-106275000D01*
X132607000Y-106433750D01*
X132603928Y-106448000D01*
X119340454Y-106448000D01*
X119341000Y-106445260D01*
X119341000Y-106152740D01*
X119283932Y-105865842D01*
X119171990Y-105595589D01*
X119009475Y-105352368D01*
X118802632Y-105145525D01*
X118628240Y-105029000D01*
X118802632Y-104912475D01*
X119009475Y-104705632D01*
X119171990Y-104462411D01*
X119283932Y-104192158D01*
X119341000Y-103905260D01*
X119341000Y-103612740D01*
X119283932Y-103325842D01*
X119171990Y-103055589D01*
X119009475Y-102812368D01*
X118802632Y-102605525D01*
X118628240Y-102489000D01*
X118802632Y-102372475D01*
X119009475Y-102165632D01*
X119171990Y-101922411D01*
X119283932Y-101652158D01*
X119341000Y-101365260D01*
X119341000Y-101072740D01*
X119283932Y-100785842D01*
X119171990Y-100515589D01*
X119009475Y-100272368D01*
X118802632Y-100065525D01*
X118628240Y-99949000D01*
X118802632Y-99832475D01*
X119009475Y-99625632D01*
X119171990Y-99382411D01*
X119283932Y-99112158D01*
X119341000Y-98825260D01*
X119341000Y-98532740D01*
X119283932Y-98245842D01*
X119171990Y-97975589D01*
X119009475Y-97732368D01*
X118802632Y-97525525D01*
X118628240Y-97409000D01*
X118802632Y-97292475D01*
X119009475Y-97085632D01*
X119171990Y-96842411D01*
X119283932Y-96572158D01*
X119341000Y-96285260D01*
X119341000Y-95992740D01*
X119283932Y-95705842D01*
X119171990Y-95435589D01*
X119009475Y-95192368D01*
X118802632Y-94985525D01*
X118628240Y-94869000D01*
X118802632Y-94752475D01*
X119009475Y-94545632D01*
X119171990Y-94302411D01*
X119220125Y-94186200D01*
X124807428Y-94186200D01*
X124819688Y-94310682D01*
X124855998Y-94430380D01*
X124914963Y-94540694D01*
X124994315Y-94637385D01*
X125091006Y-94716737D01*
X125201320Y-94775702D01*
X125321018Y-94812012D01*
X125445500Y-94824272D01*
X125634750Y-94821200D01*
X125793500Y-94662450D01*
X125793500Y-93788200D01*
X126047500Y-93788200D01*
X126047500Y-94662450D01*
X126206250Y-94821200D01*
X126395500Y-94824272D01*
X126519982Y-94812012D01*
X126639680Y-94775702D01*
X126695200Y-94746025D01*
X126750720Y-94775702D01*
X126870418Y-94812012D01*
X126994900Y-94824272D01*
X127184150Y-94821200D01*
X127342900Y-94662450D01*
X127342900Y-93788200D01*
X127596900Y-93788200D01*
X127596900Y-94662450D01*
X127755650Y-94821200D01*
X127944900Y-94824272D01*
X128069382Y-94812012D01*
X128189080Y-94775702D01*
X128299394Y-94716737D01*
X128396085Y-94637385D01*
X128475437Y-94540694D01*
X128534402Y-94430380D01*
X128570712Y-94310682D01*
X128582972Y-94186200D01*
X128579900Y-93946950D01*
X128421150Y-93788200D01*
X127596900Y-93788200D01*
X127342900Y-93788200D01*
X126047500Y-93788200D01*
X125793500Y-93788200D01*
X124969250Y-93788200D01*
X124810500Y-93946950D01*
X124807428Y-94186200D01*
X119220125Y-94186200D01*
X119283932Y-94032158D01*
X119341000Y-93745260D01*
X119341000Y-93452740D01*
X119283932Y-93165842D01*
X119171990Y-92895589D01*
X119009475Y-92652368D01*
X118802632Y-92445525D01*
X118628240Y-92329000D01*
X118802632Y-92212475D01*
X119009475Y-92005632D01*
X119171990Y-91762411D01*
X119283932Y-91492158D01*
X119341000Y-91205260D01*
X119341000Y-90912740D01*
X119283932Y-90625842D01*
X119171990Y-90355589D01*
X119126294Y-90287200D01*
X122451628Y-90287200D01*
X122463888Y-90411682D01*
X122500198Y-90531380D01*
X122559163Y-90641694D01*
X122638515Y-90738385D01*
X122735206Y-90817737D01*
X122845520Y-90876702D01*
X122965218Y-90913012D01*
X123089700Y-90925272D01*
X123678950Y-90922200D01*
X123837700Y-90763450D01*
X123837700Y-89701700D01*
X122613450Y-89701700D01*
X122454700Y-89860450D01*
X122451628Y-90287200D01*
X119126294Y-90287200D01*
X119009475Y-90112368D01*
X118802632Y-89905525D01*
X118628240Y-89789000D01*
X118802632Y-89672475D01*
X119009475Y-89465632D01*
X119171990Y-89222411D01*
X119283932Y-88952158D01*
X119298762Y-88877600D01*
X119346428Y-88877600D01*
X119358688Y-89002082D01*
X119394998Y-89121780D01*
X119453963Y-89232094D01*
X119533315Y-89328785D01*
X119630006Y-89408137D01*
X119740320Y-89467102D01*
X119860018Y-89503412D01*
X119984500Y-89515672D01*
X120173750Y-89512600D01*
X120332500Y-89353850D01*
X120332500Y-88479600D01*
X120586500Y-88479600D01*
X120586500Y-89353850D01*
X120745250Y-89512600D01*
X120934500Y-89515672D01*
X121058982Y-89503412D01*
X121178680Y-89467102D01*
X121234200Y-89437425D01*
X121289720Y-89467102D01*
X121409418Y-89503412D01*
X121533900Y-89515672D01*
X121723150Y-89512600D01*
X121881900Y-89353850D01*
X121881900Y-88479600D01*
X120586500Y-88479600D01*
X120332500Y-88479600D01*
X119508250Y-88479600D01*
X119349500Y-88638350D01*
X119346428Y-88877600D01*
X119298762Y-88877600D01*
X119341000Y-88665260D01*
X119341000Y-88372740D01*
X119283932Y-88085842D01*
X119171990Y-87815589D01*
X119009475Y-87572368D01*
X118802632Y-87365525D01*
X118628240Y-87249000D01*
X118802632Y-87132475D01*
X119009475Y-86925632D01*
X119171990Y-86682411D01*
X119213503Y-86582191D01*
X119211778Y-86599700D01*
X119235808Y-86843684D01*
X119306976Y-87078292D01*
X119422546Y-87294508D01*
X119511540Y-87402948D01*
X119453963Y-87473106D01*
X119394998Y-87583420D01*
X119358688Y-87703118D01*
X119346428Y-87827600D01*
X119349500Y-88066850D01*
X119508250Y-88225600D01*
X120332500Y-88225600D01*
X120332500Y-88205600D01*
X120586500Y-88205600D01*
X120586500Y-88225600D01*
X121881900Y-88225600D01*
X121881900Y-88205600D01*
X122135900Y-88205600D01*
X122135900Y-88225600D01*
X122155900Y-88225600D01*
X122155900Y-88479600D01*
X122135900Y-88479600D01*
X122135900Y-89353850D01*
X122294650Y-89512600D01*
X122483900Y-89515672D01*
X122608382Y-89503412D01*
X122728080Y-89467102D01*
X122764378Y-89447700D01*
X123837700Y-89447700D01*
X123837700Y-89427700D01*
X124091700Y-89427700D01*
X124091700Y-89447700D01*
X124111700Y-89447700D01*
X124111700Y-89701700D01*
X124091700Y-89701700D01*
X124091700Y-90763450D01*
X124250450Y-90922200D01*
X124839700Y-90925272D01*
X124944322Y-90914968D01*
X124991115Y-90971985D01*
X125050576Y-91020784D01*
X124954988Y-91137258D01*
X124874077Y-91288633D01*
X124824252Y-91452884D01*
X124807428Y-91623700D01*
X124807428Y-92198700D01*
X124824252Y-92369516D01*
X124874077Y-92533767D01*
X124954988Y-92685142D01*
X124974599Y-92709039D01*
X124914963Y-92781706D01*
X124855998Y-92892020D01*
X124819688Y-93011718D01*
X124807428Y-93136200D01*
X124810500Y-93375450D01*
X124969250Y-93534200D01*
X125793500Y-93534200D01*
X125793500Y-93514200D01*
X126047500Y-93514200D01*
X126047500Y-93534200D01*
X127342900Y-93534200D01*
X127342900Y-93514200D01*
X127596900Y-93514200D01*
X127596900Y-93534200D01*
X128421150Y-93534200D01*
X128579900Y-93375450D01*
X128582972Y-93136200D01*
X128570712Y-93011718D01*
X128534402Y-92892020D01*
X128475437Y-92781706D01*
X128415801Y-92709039D01*
X128435412Y-92685142D01*
X128516323Y-92533767D01*
X128566148Y-92369516D01*
X128582972Y-92198700D01*
X128582972Y-91623700D01*
X128566148Y-91452884D01*
X128534501Y-91348558D01*
X128534501Y-89594266D01*
X128538309Y-89555601D01*
X128534501Y-89516935D01*
X128534501Y-89516928D01*
X128523107Y-89401244D01*
X128519810Y-89390373D01*
X128478083Y-89252818D01*
X128404967Y-89116028D01*
X128331222Y-89026171D01*
X128306570Y-88996132D01*
X128276530Y-88971479D01*
X128080372Y-88775321D01*
X128080372Y-88650800D01*
X128068112Y-88526318D01*
X128031802Y-88406620D01*
X127983257Y-88315800D01*
X128031802Y-88224980D01*
X128068112Y-88105282D01*
X128080372Y-87980800D01*
X128080372Y-87380800D01*
X128068112Y-87256318D01*
X128050482Y-87198200D01*
X128207237Y-87198200D01*
X128245900Y-87202008D01*
X128284563Y-87198200D01*
X128284573Y-87198200D01*
X128400257Y-87186806D01*
X128548683Y-87141782D01*
X128685472Y-87068666D01*
X128805369Y-86970269D01*
X128830027Y-86940223D01*
X129709120Y-86061131D01*
X129704228Y-86110800D01*
G37*
X129704228Y-86110800D02*
X129704228Y-86710800D01*
X129716488Y-86835282D01*
X129752798Y-86954980D01*
X129801343Y-87045800D01*
X129752798Y-87136620D01*
X129716488Y-87256318D01*
X129704228Y-87380800D01*
X129707300Y-87395050D01*
X129866050Y-87553800D01*
X130840464Y-87553800D01*
X130863708Y-87566224D01*
X131098316Y-87637392D01*
X131281157Y-87655400D01*
X131489300Y-87655400D01*
X131489300Y-87807800D01*
X131469300Y-87807800D01*
X131469300Y-87827800D01*
X131215300Y-87827800D01*
X131215300Y-87807800D01*
X129866050Y-87807800D01*
X129707300Y-87966550D01*
X129704228Y-87980800D01*
X129716488Y-88105282D01*
X129752798Y-88224980D01*
X129801343Y-88315800D01*
X129752798Y-88406620D01*
X129716488Y-88526318D01*
X129704228Y-88650800D01*
X129704228Y-88775322D01*
X129508076Y-88971474D01*
X129478030Y-88996132D01*
X129379633Y-89116030D01*
X129306517Y-89252819D01*
X129261493Y-89401245D01*
X129250099Y-89516929D01*
X129250099Y-89516938D01*
X129246291Y-89555601D01*
X129250099Y-89594264D01*
X129250100Y-91348555D01*
X129218452Y-91452884D01*
X129201628Y-91623700D01*
X129201628Y-92198700D01*
X129218452Y-92369516D01*
X129268277Y-92533767D01*
X129349188Y-92685142D01*
X129432125Y-92786200D01*
X129349188Y-92887258D01*
X129268277Y-93038633D01*
X129218452Y-93202884D01*
X129201628Y-93373700D01*
X129201628Y-93948700D01*
X129218452Y-94119516D01*
X129268277Y-94283767D01*
X129349188Y-94435142D01*
X129458077Y-94567823D01*
X129590758Y-94676712D01*
X129742133Y-94757623D01*
X129906384Y-94807448D01*
X130077200Y-94824272D01*
X130552200Y-94824272D01*
X130723016Y-94807448D01*
X130887267Y-94757623D01*
X131038642Y-94676712D01*
X131089400Y-94635056D01*
X131140158Y-94676712D01*
X131291533Y-94757623D01*
X131455784Y-94807448D01*
X131626600Y-94824272D01*
X132101600Y-94824272D01*
X132272416Y-94807448D01*
X132436667Y-94757623D01*
X132588042Y-94676712D01*
X132720723Y-94567823D01*
X132829612Y-94435142D01*
X132910523Y-94283767D01*
X132960348Y-94119516D01*
X132977172Y-93948700D01*
X132977172Y-93373700D01*
X132960348Y-93202884D01*
X132910523Y-93038633D01*
X132829612Y-92887258D01*
X132810001Y-92863361D01*
X132869637Y-92790694D01*
X132928602Y-92680380D01*
X132964912Y-92560682D01*
X132977172Y-92436200D01*
X132974100Y-92196950D01*
X132960650Y-92183500D01*
X133470028Y-92183500D01*
X133482288Y-92307982D01*
X133518598Y-92427680D01*
X133577563Y-92537994D01*
X133656915Y-92634685D01*
X133753606Y-92714037D01*
X133863920Y-92773002D01*
X133983618Y-92809312D01*
X134108100Y-92821572D01*
X134372350Y-92818500D01*
X134531100Y-92659750D01*
X134531100Y-91760500D01*
X134785100Y-91760500D01*
X134785100Y-92659750D01*
X134943850Y-92818500D01*
X135208100Y-92821572D01*
X135332582Y-92809312D01*
X135452280Y-92773002D01*
X135562594Y-92714037D01*
X135659285Y-92634685D01*
X135738637Y-92537994D01*
X135797602Y-92427680D01*
X135833912Y-92307982D01*
X135846172Y-92183500D01*
X135843100Y-91919250D01*
X135684350Y-91760500D01*
X134785100Y-91760500D01*
X134531100Y-91760500D01*
X133631850Y-91760500D01*
X133473100Y-91919250D01*
X133470028Y-92183500D01*
X132960650Y-92183500D01*
X132815350Y-92038200D01*
X131991100Y-92038200D01*
X131991100Y-92058200D01*
X131737100Y-92058200D01*
X131737100Y-92038200D01*
X131717100Y-92038200D01*
X131717100Y-91784200D01*
X131737100Y-91784200D01*
X131737100Y-91764200D01*
X131991100Y-91764200D01*
X131991100Y-91784200D01*
X132815350Y-91784200D01*
X132974100Y-91625450D01*
X132977172Y-91386200D01*
X132964912Y-91261718D01*
X132928602Y-91142020D01*
X132897322Y-91083500D01*
X133470028Y-91083500D01*
X133473100Y-91347750D01*
X133631850Y-91506500D01*
X134531100Y-91506500D01*
X134531100Y-90607250D01*
X134785100Y-90607250D01*
X134785100Y-91506500D01*
X135684350Y-91506500D01*
X135843100Y-91347750D01*
X135846172Y-91083500D01*
X135833912Y-90959018D01*
X135797602Y-90839320D01*
X135738637Y-90729006D01*
X135659285Y-90632315D01*
X135562594Y-90552963D01*
X135452280Y-90493998D01*
X135332582Y-90457688D01*
X135208100Y-90445428D01*
X134943850Y-90448500D01*
X134785100Y-90607250D01*
X134531100Y-90607250D01*
X134372350Y-90448500D01*
X134108100Y-90445428D01*
X133983618Y-90457688D01*
X133863920Y-90493998D01*
X133753606Y-90552963D01*
X133656915Y-90632315D01*
X133577563Y-90729006D01*
X133518598Y-90839320D01*
X133482288Y-90959018D01*
X133470028Y-91083500D01*
X132897322Y-91083500D01*
X132869637Y-91031706D01*
X132833114Y-90987203D01*
X132949883Y-90951782D01*
X133086672Y-90878666D01*
X133206569Y-90780269D01*
X133231227Y-90750223D01*
X133974811Y-90006640D01*
X133983618Y-90009312D01*
X134108100Y-90021572D01*
X134287136Y-90021572D01*
X134414115Y-90060091D01*
X134658099Y-90084121D01*
X134902084Y-90060091D01*
X135029063Y-90021572D01*
X135208100Y-90021572D01*
X135332582Y-90009312D01*
X135452280Y-89973002D01*
X135562594Y-89914037D01*
X135659285Y-89834685D01*
X135738637Y-89737994D01*
X135797602Y-89627680D01*
X135833912Y-89507982D01*
X135846172Y-89383500D01*
X135846172Y-89204463D01*
X135884691Y-89077484D01*
X135908721Y-88833499D01*
X135884691Y-88589515D01*
X135846172Y-88462536D01*
X135846172Y-88334472D01*
X136545800Y-88334472D01*
X136670282Y-88322212D01*
X136703027Y-88312279D01*
X136691000Y-88372740D01*
X136691000Y-88665260D01*
X136748068Y-88952158D01*
X136860010Y-89222411D01*
X137022525Y-89465632D01*
X137229368Y-89672475D01*
X137403760Y-89789000D01*
X137229368Y-89905525D01*
X137022525Y-90112368D01*
X136860010Y-90355589D01*
X136748068Y-90625842D01*
X136691000Y-90912740D01*
X136691000Y-91205260D01*
X136748068Y-91492158D01*
X136860010Y-91762411D01*
X137022525Y-92005632D01*
X137229368Y-92212475D01*
X137403760Y-92329000D01*
X137229368Y-92445525D01*
X137022525Y-92652368D01*
X136860010Y-92895589D01*
X136748068Y-93165842D01*
X136691000Y-93452740D01*
X136691000Y-93745260D01*
X136748068Y-94032158D01*
X136860010Y-94302411D01*
X137022525Y-94545632D01*
X137229368Y-94752475D01*
X137403760Y-94869000D01*
X137229368Y-94985525D01*
X137022525Y-95192368D01*
X136860010Y-95435589D01*
X136748068Y-95705842D01*
X136691000Y-95992740D01*
X136691000Y-96285260D01*
X136728361Y-96473087D01*
X132407768Y-100793682D01*
X132377721Y-100818341D01*
X132279324Y-100938239D01*
X132206208Y-101075028D01*
X132161184Y-101223454D01*
X132149790Y-101339138D01*
X132149790Y-101339147D01*
X132145982Y-101377810D01*
X132149790Y-101416473D01*
X132149791Y-103891717D01*
X132145982Y-103930390D01*
X132161185Y-104084747D01*
X132206208Y-104233172D01*
X132236261Y-104289396D01*
X132279325Y-104369962D01*
X132377722Y-104489859D01*
X132407763Y-104514513D01*
X132570672Y-104677422D01*
X132595331Y-104707469D01*
X132647561Y-104750333D01*
X132619071Y-104844255D01*
X132603928Y-104998000D01*
X132603928Y-105298000D01*
X132619071Y-105451745D01*
X132660602Y-105588658D01*
X132652498Y-105603820D01*
X132616188Y-105723518D01*
X132603928Y-105848000D01*
X132607000Y-105862250D01*
X132765750Y-106021000D01*
X133080907Y-106021000D01*
X133090418Y-106026084D01*
X133238255Y-106070929D01*
X133392000Y-106086072D01*
X133953288Y-106086072D01*
X133970833Y-106087800D01*
X135330188Y-106087800D01*
X135350757Y-106096320D01*
X135539685Y-106133900D01*
X135732315Y-106133900D01*
X135921243Y-106096320D01*
X136099210Y-106022604D01*
X136259375Y-105915585D01*
X136395585Y-105779375D01*
X136502604Y-105619210D01*
X136576320Y-105441243D01*
X136613900Y-105252315D01*
X136613900Y-105059685D01*
X136576320Y-104870757D01*
X136502604Y-104692790D01*
X136395585Y-104532625D01*
X136259375Y-104396415D01*
X136099210Y-104289396D01*
X135921243Y-104215680D01*
X135732315Y-104178100D01*
X135539685Y-104178100D01*
X135430072Y-104199903D01*
X135430072Y-103998000D01*
X135423906Y-103935400D01*
X135446337Y-103935400D01*
X135485000Y-103939208D01*
X135523663Y-103935400D01*
X135523673Y-103935400D01*
X135639357Y-103924006D01*
X135787783Y-103878982D01*
X135924572Y-103805866D01*
X136044469Y-103707469D01*
X136069127Y-103677423D01*
X136698827Y-103047724D01*
X136728869Y-103023069D01*
X136777235Y-102964135D01*
X136784326Y-102955494D01*
X136902149Y-103018472D01*
X137068745Y-103069008D01*
X137241999Y-103086072D01*
X138542001Y-103086072D01*
X138715255Y-103069008D01*
X138786001Y-103047548D01*
X138786001Y-106248452D01*
X138715255Y-106226992D01*
X138542001Y-106209928D01*
X137241999Y-106209928D01*
X137068745Y-106226992D01*
X136902149Y-106277528D01*
X136748613Y-106359595D01*
X136614038Y-106470038D01*
X136503595Y-106604613D01*
X136421528Y-106758149D01*
X136370992Y-106924745D01*
X136353928Y-107097999D01*
X136353928Y-107798001D01*
X136370992Y-107971255D01*
X136421528Y-108137851D01*
X136503595Y-108291387D01*
X136614038Y-108425962D01*
X136748613Y-108536405D01*
X136902149Y-108618472D01*
X137068745Y-108669008D01*
X137241999Y-108686072D01*
X138542001Y-108686072D01*
X138715255Y-108669008D01*
X138786001Y-108647548D01*
X138786001Y-111111668D01*
X138665085Y-110819750D01*
X138447851Y-110494636D01*
X138171364Y-110218149D01*
X137846250Y-110000915D01*
X137485003Y-109851282D01*
X137101505Y-109775000D01*
X136710495Y-109775000D01*
X136326997Y-109851282D01*
X135965750Y-110000915D01*
X135640636Y-110218149D01*
X135364149Y-110494636D01*
X135146915Y-110819750D01*
X134997282Y-111180997D01*
X134921000Y-111564495D01*
X134921000Y-111955505D01*
X134997282Y-112339003D01*
X135146915Y-112700250D01*
X135364149Y-113025364D01*
X135640636Y-113301851D01*
X135965750Y-113519085D01*
X136326997Y-113668718D01*
X136710495Y-113745000D01*
X137101505Y-113745000D01*
X137485003Y-113668718D01*
X137836982Y-113522924D01*
X137731581Y-113610119D01*
X137322162Y-113831491D01*
X136877535Y-113969126D01*
X136383990Y-114021000D01*
X119412278Y-114021000D01*
X118966118Y-113977254D01*
X118568001Y-113857055D01*
X118200815Y-113661819D01*
X117878539Y-113398977D01*
X117620763Y-113087378D01*
X117835236Y-113301851D01*
X118160350Y-113519085D01*
X118521597Y-113668718D01*
X118905095Y-113745000D01*
X119296105Y-113745000D01*
X119679603Y-113668718D01*
X120040850Y-113519085D01*
X120365964Y-113301851D01*
X120642451Y-113025364D01*
X120859685Y-112700250D01*
X121009318Y-112339003D01*
X121085600Y-111955505D01*
X121085600Y-111564495D01*
X121009318Y-111180997D01*
X120859685Y-110819750D01*
X120642451Y-110494636D01*
X120365964Y-110218149D01*
X120040850Y-110000915D01*
X119679603Y-109851282D01*
X119296105Y-109775000D01*
X119016579Y-109775000D01*
X119171990Y-109542411D01*
X119283932Y-109272158D01*
X119341000Y-108985260D01*
X119341000Y-108692740D01*
X119283932Y-108405842D01*
X119171990Y-108135589D01*
X119009475Y-107892368D01*
X118802632Y-107685525D01*
X118628240Y-107569000D01*
X118802632Y-107452475D01*
X119009475Y-107245632D01*
X119171990Y-107002411D01*
X119283932Y-106732158D01*
X119340454Y-106448000D01*
X132603928Y-106448000D01*
X132616188Y-106572482D01*
X132652498Y-106692180D01*
X132711463Y-106802494D01*
X132790815Y-106899185D01*
X132887506Y-106978537D01*
X132997820Y-107037502D01*
X133117518Y-107073812D01*
X133242000Y-107086072D01*
X133731250Y-107083000D01*
X133890000Y-106924250D01*
X133890000Y-106275000D01*
X134144000Y-106275000D01*
X134144000Y-106924250D01*
X134302750Y-107083000D01*
X134792000Y-107086072D01*
X134916482Y-107073812D01*
X135036180Y-107037502D01*
X135146494Y-106978537D01*
X135243185Y-106899185D01*
X135322537Y-106802494D01*
X135381502Y-106692180D01*
X135417812Y-106572482D01*
X135430072Y-106448000D01*
X135427000Y-106433750D01*
X135268250Y-106275000D01*
X134144000Y-106275000D01*
X133890000Y-106275000D01*
X132765750Y-106275000D01*
X132607000Y-106433750D01*
X132603928Y-106448000D01*
X119340454Y-106448000D01*
X119341000Y-106445260D01*
X119341000Y-106152740D01*
X119283932Y-105865842D01*
X119171990Y-105595589D01*
X119009475Y-105352368D01*
X118802632Y-105145525D01*
X118628240Y-105029000D01*
X118802632Y-104912475D01*
X119009475Y-104705632D01*
X119171990Y-104462411D01*
X119283932Y-104192158D01*
X119341000Y-103905260D01*
X119341000Y-103612740D01*
X119283932Y-103325842D01*
X119171990Y-103055589D01*
X119009475Y-102812368D01*
X118802632Y-102605525D01*
X118628240Y-102489000D01*
X118802632Y-102372475D01*
X119009475Y-102165632D01*
X119171990Y-101922411D01*
X119283932Y-101652158D01*
X119341000Y-101365260D01*
X119341000Y-101072740D01*
X119283932Y-100785842D01*
X119171990Y-100515589D01*
X119009475Y-100272368D01*
X118802632Y-100065525D01*
X118628240Y-99949000D01*
X118802632Y-99832475D01*
X119009475Y-99625632D01*
X119171990Y-99382411D01*
X119283932Y-99112158D01*
X119341000Y-98825260D01*
X119341000Y-98532740D01*
X119283932Y-98245842D01*
X119171990Y-97975589D01*
X119009475Y-97732368D01*
X118802632Y-97525525D01*
X118628240Y-97409000D01*
X118802632Y-97292475D01*
X119009475Y-97085632D01*
X119171990Y-96842411D01*
X119283932Y-96572158D01*
X119341000Y-96285260D01*
X119341000Y-95992740D01*
X119283932Y-95705842D01*
X119171990Y-95435589D01*
X119009475Y-95192368D01*
X118802632Y-94985525D01*
X118628240Y-94869000D01*
X118802632Y-94752475D01*
X119009475Y-94545632D01*
X119171990Y-94302411D01*
X119220125Y-94186200D01*
X124807428Y-94186200D01*
X124819688Y-94310682D01*
X124855998Y-94430380D01*
X124914963Y-94540694D01*
X124994315Y-94637385D01*
X125091006Y-94716737D01*
X125201320Y-94775702D01*
X125321018Y-94812012D01*
X125445500Y-94824272D01*
X125634750Y-94821200D01*
X125793500Y-94662450D01*
X125793500Y-93788200D01*
X126047500Y-93788200D01*
X126047500Y-94662450D01*
X126206250Y-94821200D01*
X126395500Y-94824272D01*
X126519982Y-94812012D01*
X126639680Y-94775702D01*
X126695200Y-94746025D01*
X126750720Y-94775702D01*
X126870418Y-94812012D01*
X126994900Y-94824272D01*
X127184150Y-94821200D01*
X127342900Y-94662450D01*
X127342900Y-93788200D01*
X127596900Y-93788200D01*
X127596900Y-94662450D01*
X127755650Y-94821200D01*
X127944900Y-94824272D01*
X128069382Y-94812012D01*
X128189080Y-94775702D01*
X128299394Y-94716737D01*
X128396085Y-94637385D01*
X128475437Y-94540694D01*
X128534402Y-94430380D01*
X128570712Y-94310682D01*
X128582972Y-94186200D01*
X128579900Y-93946950D01*
X128421150Y-93788200D01*
X127596900Y-93788200D01*
X127342900Y-93788200D01*
X126047500Y-93788200D01*
X125793500Y-93788200D01*
X124969250Y-93788200D01*
X124810500Y-93946950D01*
X124807428Y-94186200D01*
X119220125Y-94186200D01*
X119283932Y-94032158D01*
X119341000Y-93745260D01*
X119341000Y-93452740D01*
X119283932Y-93165842D01*
X119171990Y-92895589D01*
X119009475Y-92652368D01*
X118802632Y-92445525D01*
X118628240Y-92329000D01*
X118802632Y-92212475D01*
X119009475Y-92005632D01*
X119171990Y-91762411D01*
X119283932Y-91492158D01*
X119341000Y-91205260D01*
X119341000Y-90912740D01*
X119283932Y-90625842D01*
X119171990Y-90355589D01*
X119126294Y-90287200D01*
X122451628Y-90287200D01*
X122463888Y-90411682D01*
X122500198Y-90531380D01*
X122559163Y-90641694D01*
X122638515Y-90738385D01*
X122735206Y-90817737D01*
X122845520Y-90876702D01*
X122965218Y-90913012D01*
X123089700Y-90925272D01*
X123678950Y-90922200D01*
X123837700Y-90763450D01*
X123837700Y-89701700D01*
X122613450Y-89701700D01*
X122454700Y-89860450D01*
X122451628Y-90287200D01*
X119126294Y-90287200D01*
X119009475Y-90112368D01*
X118802632Y-89905525D01*
X118628240Y-89789000D01*
X118802632Y-89672475D01*
X119009475Y-89465632D01*
X119171990Y-89222411D01*
X119283932Y-88952158D01*
X119298762Y-88877600D01*
X119346428Y-88877600D01*
X119358688Y-89002082D01*
X119394998Y-89121780D01*
X119453963Y-89232094D01*
X119533315Y-89328785D01*
X119630006Y-89408137D01*
X119740320Y-89467102D01*
X119860018Y-89503412D01*
X119984500Y-89515672D01*
X120173750Y-89512600D01*
X120332500Y-89353850D01*
X120332500Y-88479600D01*
X120586500Y-88479600D01*
X120586500Y-89353850D01*
X120745250Y-89512600D01*
X120934500Y-89515672D01*
X121058982Y-89503412D01*
X121178680Y-89467102D01*
X121234200Y-89437425D01*
X121289720Y-89467102D01*
X121409418Y-89503412D01*
X121533900Y-89515672D01*
X121723150Y-89512600D01*
X121881900Y-89353850D01*
X121881900Y-88479600D01*
X120586500Y-88479600D01*
X120332500Y-88479600D01*
X119508250Y-88479600D01*
X119349500Y-88638350D01*
X119346428Y-88877600D01*
X119298762Y-88877600D01*
X119341000Y-88665260D01*
X119341000Y-88372740D01*
X119283932Y-88085842D01*
X119171990Y-87815589D01*
X119009475Y-87572368D01*
X118802632Y-87365525D01*
X118628240Y-87249000D01*
X118802632Y-87132475D01*
X119009475Y-86925632D01*
X119171990Y-86682411D01*
X119213503Y-86582191D01*
X119211778Y-86599700D01*
X119235808Y-86843684D01*
X119306976Y-87078292D01*
X119422546Y-87294508D01*
X119511540Y-87402948D01*
X119453963Y-87473106D01*
X119394998Y-87583420D01*
X119358688Y-87703118D01*
X119346428Y-87827600D01*
X119349500Y-88066850D01*
X119508250Y-88225600D01*
X120332500Y-88225600D01*
X120332500Y-88205600D01*
X120586500Y-88205600D01*
X120586500Y-88225600D01*
X121881900Y-88225600D01*
X121881900Y-88205600D01*
X122135900Y-88205600D01*
X122135900Y-88225600D01*
X122155900Y-88225600D01*
X122155900Y-88479600D01*
X122135900Y-88479600D01*
X122135900Y-89353850D01*
X122294650Y-89512600D01*
X122483900Y-89515672D01*
X122608382Y-89503412D01*
X122728080Y-89467102D01*
X122764378Y-89447700D01*
X123837700Y-89447700D01*
X123837700Y-89427700D01*
X124091700Y-89427700D01*
X124091700Y-89447700D01*
X124111700Y-89447700D01*
X124111700Y-89701700D01*
X124091700Y-89701700D01*
X124091700Y-90763450D01*
X124250450Y-90922200D01*
X124839700Y-90925272D01*
X124944322Y-90914968D01*
X124991115Y-90971985D01*
X125050576Y-91020784D01*
X124954988Y-91137258D01*
X124874077Y-91288633D01*
X124824252Y-91452884D01*
X124807428Y-91623700D01*
X124807428Y-92198700D01*
X124824252Y-92369516D01*
X124874077Y-92533767D01*
X124954988Y-92685142D01*
X124974599Y-92709039D01*
X124914963Y-92781706D01*
X124855998Y-92892020D01*
X124819688Y-93011718D01*
X124807428Y-93136200D01*
X124810500Y-93375450D01*
X124969250Y-93534200D01*
X125793500Y-93534200D01*
X125793500Y-93514200D01*
X126047500Y-93514200D01*
X126047500Y-93534200D01*
X127342900Y-93534200D01*
X127342900Y-93514200D01*
X127596900Y-93514200D01*
X127596900Y-93534200D01*
X128421150Y-93534200D01*
X128579900Y-93375450D01*
X128582972Y-93136200D01*
X128570712Y-93011718D01*
X128534402Y-92892020D01*
X128475437Y-92781706D01*
X128415801Y-92709039D01*
X128435412Y-92685142D01*
X128516323Y-92533767D01*
X128566148Y-92369516D01*
X128582972Y-92198700D01*
X128582972Y-91623700D01*
X128566148Y-91452884D01*
X128534501Y-91348558D01*
X128534501Y-89594266D01*
X128538309Y-89555601D01*
X128534501Y-89516935D01*
X128534501Y-89516928D01*
X128523107Y-89401244D01*
X128519810Y-89390373D01*
X128478083Y-89252818D01*
X128404967Y-89116028D01*
X128331222Y-89026171D01*
X128306570Y-88996132D01*
X128276530Y-88971479D01*
X128080372Y-88775321D01*
X128080372Y-88650800D01*
X128068112Y-88526318D01*
X128031802Y-88406620D01*
X127983257Y-88315800D01*
X128031802Y-88224980D01*
X128068112Y-88105282D01*
X128080372Y-87980800D01*
X128080372Y-87380800D01*
X128068112Y-87256318D01*
X128050482Y-87198200D01*
X128207237Y-87198200D01*
X128245900Y-87202008D01*
X128284563Y-87198200D01*
X128284573Y-87198200D01*
X128400257Y-87186806D01*
X128548683Y-87141782D01*
X128685472Y-87068666D01*
X128805369Y-86970269D01*
X128830027Y-86940223D01*
X129709120Y-86061131D01*
X129704228Y-86110800D01*
G36*
X136691000Y-98825260D02*
G01*
X136728362Y-99013088D01*
X135639978Y-100101472D01*
X135609931Y-100126131D01*
X135511534Y-100246029D01*
X135438418Y-100382818D01*
X135393394Y-100531244D01*
X135382000Y-100646928D01*
X135382000Y-100646937D01*
X135378192Y-100685600D01*
X135382000Y-100724263D01*
X135382001Y-102137449D01*
X135158850Y-102360600D01*
X135101589Y-102360600D01*
X135079829Y-102342742D01*
X134943582Y-102269916D01*
X134795745Y-102225071D01*
X134642000Y-102209928D01*
X133724590Y-102209928D01*
X133724590Y-101703960D01*
X136691000Y-98737551D01*
X136691000Y-98825260D01*
G37*
X136691000Y-98825260D02*
X136728362Y-99013088D01*
X135639978Y-100101472D01*
X135609931Y-100126131D01*
X135511534Y-100246029D01*
X135438418Y-100382818D01*
X135393394Y-100531244D01*
X135382000Y-100646928D01*
X135382000Y-100646937D01*
X135378192Y-100685600D01*
X135382000Y-100724263D01*
X135382001Y-102137449D01*
X135158850Y-102360600D01*
X135101589Y-102360600D01*
X135079829Y-102342742D01*
X134943582Y-102269916D01*
X134795745Y-102225071D01*
X134642000Y-102209928D01*
X133724590Y-102209928D01*
X133724590Y-101703960D01*
X136691000Y-98737551D01*
X136691000Y-98825260D01*
G36*
X122388600Y-79679800D02*
G01*
X122408600Y-79679800D01*
X122408600Y-79933800D01*
X122388600Y-79933800D01*
X122388600Y-81203800D01*
X123262850Y-81203800D01*
X123421600Y-81045050D01*
X123424672Y-80855800D01*
X123412412Y-80731318D01*
X123376102Y-80611620D01*
X123353214Y-80568800D01*
X123376102Y-80525980D01*
X123412412Y-80406282D01*
X123424672Y-80281800D01*
X123421600Y-80092550D01*
X123262852Y-79933802D01*
X123398341Y-79933802D01*
X123443109Y-79970542D01*
X123524608Y-80024998D01*
X123634925Y-80083964D01*
X123725481Y-80121473D01*
X123845177Y-80157782D01*
X123941310Y-80176904D01*
X124065791Y-80189164D01*
X124090350Y-80189164D01*
X124114800Y-80191572D01*
X124614800Y-80191572D01*
X124739282Y-80179312D01*
X124764800Y-80171571D01*
X124790318Y-80179312D01*
X124914800Y-80191572D01*
X125313796Y-80191572D01*
X123839069Y-81666300D01*
X123791579Y-81705274D01*
X123752605Y-81752764D01*
X123752602Y-81752767D01*
X123636047Y-81894789D01*
X123520478Y-82111005D01*
X123449310Y-82345613D01*
X123425280Y-82589597D01*
X123431302Y-82650740D01*
X123431301Y-85249128D01*
X123339700Y-85249128D01*
X123166446Y-85266192D01*
X122999850Y-85316728D01*
X122928061Y-85355100D01*
X120401257Y-85355100D01*
X120218416Y-85373108D01*
X119983808Y-85444276D01*
X119767592Y-85559846D01*
X119578077Y-85715377D01*
X119422546Y-85904892D01*
X119341000Y-86057454D01*
X119341000Y-85832740D01*
X119283932Y-85545842D01*
X119171990Y-85275589D01*
X119009475Y-85032368D01*
X118802632Y-84825525D01*
X118628240Y-84709000D01*
X118802632Y-84592475D01*
X119009475Y-84385632D01*
X119115870Y-84226400D01*
X119138137Y-84226400D01*
X119176800Y-84230208D01*
X119215463Y-84226400D01*
X119215473Y-84226400D01*
X119331157Y-84215006D01*
X119479583Y-84169982D01*
X119616372Y-84096866D01*
X119736269Y-83998469D01*
X119760927Y-83968423D01*
X121041033Y-82688319D01*
X121071069Y-82663669D01*
X121169466Y-82543772D01*
X121242582Y-82406983D01*
X121274336Y-82302301D01*
X121285542Y-82296312D01*
X121309439Y-82276701D01*
X121382106Y-82336337D01*
X121492420Y-82395302D01*
X121612118Y-82431612D01*
X121736600Y-82443872D01*
X121975850Y-82440800D01*
X122134600Y-82282050D01*
X122134600Y-81457800D01*
X122388600Y-81457800D01*
X122388600Y-82282050D01*
X122547350Y-82440800D01*
X122786600Y-82443872D01*
X122911082Y-82431612D01*
X123030780Y-82395302D01*
X123141094Y-82336337D01*
X123237785Y-82256985D01*
X123317137Y-82160294D01*
X123376102Y-82049980D01*
X123412412Y-81930282D01*
X123424672Y-81805800D01*
X123421600Y-81616550D01*
X123262850Y-81457800D01*
X122388600Y-81457800D01*
X122134600Y-81457800D01*
X122114600Y-81457800D01*
X122114600Y-81203800D01*
X122134600Y-81203800D01*
X122134600Y-79933800D01*
X122114600Y-79933800D01*
X122114600Y-79679800D01*
X122134600Y-79679800D01*
X122134600Y-79659800D01*
X122388600Y-79659800D01*
X122388600Y-79679800D01*
G37*
X122388600Y-79679800D02*
X122408600Y-79679800D01*
X122408600Y-79933800D01*
X122388600Y-79933800D01*
X122388600Y-81203800D01*
X123262850Y-81203800D01*
X123421600Y-81045050D01*
X123424672Y-80855800D01*
X123412412Y-80731318D01*
X123376102Y-80611620D01*
X123353214Y-80568800D01*
X123376102Y-80525980D01*
X123412412Y-80406282D01*
X123424672Y-80281800D01*
X123421600Y-80092550D01*
X123262852Y-79933802D01*
X123398341Y-79933802D01*
X123443109Y-79970542D01*
X123524608Y-80024998D01*
X123634925Y-80083964D01*
X123725481Y-80121473D01*
X123845177Y-80157782D01*
X123941310Y-80176904D01*
X124065791Y-80189164D01*
X124090350Y-80189164D01*
X124114800Y-80191572D01*
X124614800Y-80191572D01*
X124739282Y-80179312D01*
X124764800Y-80171571D01*
X124790318Y-80179312D01*
X124914800Y-80191572D01*
X125313796Y-80191572D01*
X123839069Y-81666300D01*
X123791579Y-81705274D01*
X123752605Y-81752764D01*
X123752602Y-81752767D01*
X123636047Y-81894789D01*
X123520478Y-82111005D01*
X123449310Y-82345613D01*
X123425280Y-82589597D01*
X123431302Y-82650740D01*
X123431301Y-85249128D01*
X123339700Y-85249128D01*
X123166446Y-85266192D01*
X122999850Y-85316728D01*
X122928061Y-85355100D01*
X120401257Y-85355100D01*
X120218416Y-85373108D01*
X119983808Y-85444276D01*
X119767592Y-85559846D01*
X119578077Y-85715377D01*
X119422546Y-85904892D01*
X119341000Y-86057454D01*
X119341000Y-85832740D01*
X119283932Y-85545842D01*
X119171990Y-85275589D01*
X119009475Y-85032368D01*
X118802632Y-84825525D01*
X118628240Y-84709000D01*
X118802632Y-84592475D01*
X119009475Y-84385632D01*
X119115870Y-84226400D01*
X119138137Y-84226400D01*
X119176800Y-84230208D01*
X119215463Y-84226400D01*
X119215473Y-84226400D01*
X119331157Y-84215006D01*
X119479583Y-84169982D01*
X119616372Y-84096866D01*
X119736269Y-83998469D01*
X119760927Y-83968423D01*
X121041033Y-82688319D01*
X121071069Y-82663669D01*
X121169466Y-82543772D01*
X121242582Y-82406983D01*
X121274336Y-82302301D01*
X121285542Y-82296312D01*
X121309439Y-82276701D01*
X121382106Y-82336337D01*
X121492420Y-82395302D01*
X121612118Y-82431612D01*
X121736600Y-82443872D01*
X121975850Y-82440800D01*
X122134600Y-82282050D01*
X122134600Y-81457800D01*
X122388600Y-81457800D01*
X122388600Y-82282050D01*
X122547350Y-82440800D01*
X122786600Y-82443872D01*
X122911082Y-82431612D01*
X123030780Y-82395302D01*
X123141094Y-82336337D01*
X123237785Y-82256985D01*
X123317137Y-82160294D01*
X123376102Y-82049980D01*
X123412412Y-81930282D01*
X123424672Y-81805800D01*
X123421600Y-81616550D01*
X123262850Y-81457800D01*
X122388600Y-81457800D01*
X122134600Y-81457800D01*
X122114600Y-81457800D01*
X122114600Y-81203800D01*
X122134600Y-81203800D01*
X122134600Y-79933800D01*
X122114600Y-79933800D01*
X122114600Y-79679800D01*
X122134600Y-79679800D01*
X122134600Y-79659800D01*
X122388600Y-79659800D01*
X122388600Y-79679800D01*
G36*
X134284882Y-64673627D02*
G01*
X133994351Y-65218557D01*
X133815713Y-65809696D01*
X133755832Y-66424328D01*
X133817010Y-67038831D01*
X133996897Y-67629592D01*
X134284882Y-68168373D01*
X134702852Y-68444543D01*
X136726395Y-66421000D01*
X136712253Y-66406858D01*
X136891858Y-66227253D01*
X136906000Y-66241395D01*
X136920143Y-66227253D01*
X137099748Y-66406858D01*
X137085605Y-66421000D01*
X137099748Y-66435143D01*
X136920143Y-66614748D01*
X136906000Y-66600605D01*
X134882457Y-68624148D01*
X135158627Y-69042118D01*
X135703557Y-69332649D01*
X136294696Y-69511287D01*
X136782473Y-69558809D01*
X136736498Y-69644820D01*
X136700188Y-69764518D01*
X136687928Y-69889000D01*
X136687928Y-71589000D01*
X136700188Y-71713482D01*
X136736498Y-71833180D01*
X136795463Y-71943494D01*
X136874815Y-72040185D01*
X136971506Y-72119537D01*
X137081820Y-72178502D01*
X137154380Y-72200513D01*
X137022525Y-72332368D01*
X136860010Y-72575589D01*
X136748068Y-72845842D01*
X136691000Y-73132740D01*
X136691000Y-73425260D01*
X136748068Y-73712158D01*
X136860010Y-73982411D01*
X137022525Y-74225632D01*
X137229368Y-74432475D01*
X137403760Y-74549000D01*
X137229368Y-74665525D01*
X137022525Y-74872368D01*
X136860010Y-75115589D01*
X136748068Y-75385842D01*
X136691000Y-75672740D01*
X136691000Y-75965260D01*
X136748068Y-76252158D01*
X136860010Y-76522411D01*
X137022525Y-76765632D01*
X137229368Y-76972475D01*
X137403760Y-77089000D01*
X137365746Y-77114400D01*
X136309625Y-77114400D01*
X136298008Y-76996446D01*
X136247472Y-76829850D01*
X136165405Y-76676314D01*
X136054962Y-76541738D01*
X135920386Y-76431295D01*
X135766850Y-76349228D01*
X135600254Y-76298692D01*
X135427000Y-76281628D01*
X134502000Y-76281628D01*
X134328746Y-76298692D01*
X134162150Y-76349228D01*
X134008614Y-76431295D01*
X133874038Y-76541738D01*
X133763595Y-76676314D01*
X133681528Y-76829850D01*
X133630992Y-76996446D01*
X133613928Y-77169700D01*
X133613928Y-79319700D01*
X133630992Y-79492954D01*
X133681528Y-79659550D01*
X133719901Y-79731340D01*
X133719900Y-79996560D01*
X133681528Y-80068350D01*
X133630992Y-80234946D01*
X133613928Y-80408200D01*
X133613928Y-82558200D01*
X133623790Y-82658328D01*
X133339629Y-82658328D01*
X133337000Y-81768950D01*
X133178250Y-81610200D01*
X132116500Y-81610200D01*
X132116500Y-83284450D01*
X132157728Y-83325678D01*
X132157728Y-83401246D01*
X132140376Y-83433709D01*
X132088093Y-83606062D01*
X131985200Y-83595928D01*
X131410200Y-83595928D01*
X131239384Y-83612752D01*
X131075133Y-83662577D01*
X130923758Y-83743488D01*
X130822700Y-83826425D01*
X130721642Y-83743488D01*
X130570267Y-83662577D01*
X130406016Y-83612752D01*
X130235200Y-83595928D01*
X129660200Y-83595928D01*
X129489384Y-83612752D01*
X129325133Y-83662577D01*
X129173758Y-83743488D01*
X129041077Y-83852377D01*
X128932188Y-83985058D01*
X128851277Y-84136433D01*
X128801452Y-84300684D01*
X128784628Y-84471500D01*
X128784628Y-84758521D01*
X127919750Y-85623400D01*
X127849357Y-85623400D01*
X127796794Y-85580263D01*
X127686480Y-85521298D01*
X127566782Y-85484988D01*
X127442300Y-85472728D01*
X125920501Y-85472728D01*
X125920501Y-83105126D01*
X126217427Y-82808200D01*
X130638928Y-82808200D01*
X130651188Y-82932682D01*
X130687498Y-83052380D01*
X130746463Y-83162694D01*
X130825815Y-83259385D01*
X130922506Y-83338737D01*
X131032820Y-83397702D01*
X131152518Y-83434012D01*
X131277000Y-83446272D01*
X131703750Y-83443200D01*
X131862500Y-83284450D01*
X131862500Y-81610200D01*
X130800750Y-81610200D01*
X130642000Y-81768950D01*
X130638928Y-82808200D01*
X126217427Y-82808200D01*
X128425698Y-80599930D01*
X128425702Y-80599925D01*
X129183033Y-79842595D01*
X129230523Y-79803621D01*
X129269499Y-79756129D01*
X129386054Y-79614107D01*
X129409789Y-79569700D01*
X130638928Y-79569700D01*
X130651188Y-79694182D01*
X130687498Y-79813880D01*
X130714261Y-79863950D01*
X130687498Y-79914020D01*
X130651188Y-80033718D01*
X130638928Y-80158200D01*
X130642000Y-81197450D01*
X130800750Y-81356200D01*
X131862500Y-81356200D01*
X131862500Y-78371700D01*
X132116500Y-78371700D01*
X132116500Y-81356200D01*
X133178250Y-81356200D01*
X133337000Y-81197450D01*
X133340072Y-80158200D01*
X133327812Y-80033718D01*
X133291502Y-79914020D01*
X133264739Y-79863950D01*
X133291502Y-79813880D01*
X133327812Y-79694182D01*
X133340072Y-79569700D01*
X133337000Y-78530450D01*
X133178250Y-78371700D01*
X132116500Y-78371700D01*
X131862500Y-78371700D01*
X130800750Y-78371700D01*
X130642000Y-78530450D01*
X130638928Y-79569700D01*
X129409789Y-79569700D01*
X129467695Y-79461366D01*
X129501624Y-79397890D01*
X129572792Y-79163282D01*
X129590800Y-78980441D01*
X129590800Y-78980431D01*
X129596821Y-78919298D01*
X129590800Y-78858165D01*
X129590800Y-76919700D01*
X130638928Y-76919700D01*
X130642000Y-77958950D01*
X130800750Y-78117700D01*
X131862500Y-78117700D01*
X131862500Y-76443450D01*
X132116500Y-76443450D01*
X132116500Y-78117700D01*
X133178250Y-78117700D01*
X133337000Y-77958950D01*
X133340072Y-76919700D01*
X133327812Y-76795218D01*
X133291502Y-76675520D01*
X133232537Y-76565206D01*
X133153185Y-76468515D01*
X133056494Y-76389163D01*
X132946180Y-76330198D01*
X132826482Y-76293888D01*
X132702000Y-76281628D01*
X132275250Y-76284700D01*
X132116500Y-76443450D01*
X131862500Y-76443450D01*
X131703750Y-76284700D01*
X131277000Y-76281628D01*
X131152518Y-76293888D01*
X131032820Y-76330198D01*
X130922506Y-76389163D01*
X130825815Y-76468515D01*
X130746463Y-76565206D01*
X130687498Y-76675520D01*
X130651188Y-76795218D01*
X130638928Y-76919700D01*
X129590800Y-76919700D01*
X129590800Y-72702329D01*
X130238357Y-72054772D01*
X131767100Y-72054772D01*
X131891582Y-72042512D01*
X132011280Y-72006202D01*
X132121594Y-71947237D01*
X132218285Y-71867885D01*
X132297637Y-71771194D01*
X132356602Y-71660880D01*
X132392912Y-71541182D01*
X132405172Y-71416700D01*
X132405172Y-68816700D01*
X132392912Y-68692218D01*
X132356602Y-68572520D01*
X132297637Y-68462206D01*
X132218285Y-68365515D01*
X132121594Y-68286163D01*
X132011280Y-68227198D01*
X131891582Y-68190888D01*
X131767100Y-68178628D01*
X129167100Y-68178628D01*
X129042618Y-68190888D01*
X128922920Y-68227198D01*
X128812606Y-68286163D01*
X128715915Y-68365515D01*
X128636563Y-68462206D01*
X128577598Y-68572520D01*
X128541288Y-68692218D01*
X128529028Y-68816700D01*
X128529028Y-70243842D01*
X127509368Y-71263503D01*
X127461878Y-71302477D01*
X127422904Y-71349967D01*
X127422901Y-71349970D01*
X127306346Y-71491992D01*
X127190777Y-71708208D01*
X127119609Y-71942816D01*
X127095579Y-72186800D01*
X127101601Y-72247943D01*
X127101600Y-78243482D01*
X126982372Y-78145634D01*
X126845583Y-78072518D01*
X126697157Y-78027494D01*
X126581473Y-78016100D01*
X126581463Y-78016100D01*
X126542800Y-78012292D01*
X126504137Y-78016100D01*
X126414516Y-78016100D01*
X126386298Y-77963308D01*
X126331842Y-77881809D01*
X126252490Y-77785118D01*
X126183182Y-77715810D01*
X126086491Y-77636458D01*
X126004992Y-77582002D01*
X125894675Y-77523036D01*
X125804119Y-77485527D01*
X125684423Y-77449218D01*
X125588290Y-77430096D01*
X125463809Y-77417836D01*
X125439250Y-77417836D01*
X125414800Y-77415428D01*
X124914800Y-77415428D01*
X124790318Y-77427688D01*
X124764800Y-77435429D01*
X124739282Y-77427688D01*
X124614800Y-77415428D01*
X124114800Y-77415428D01*
X124090350Y-77417836D01*
X124065791Y-77417836D01*
X123941310Y-77430096D01*
X123845177Y-77449218D01*
X123725481Y-77485527D01*
X123710746Y-77491631D01*
X123620073Y-77482700D01*
X123620063Y-77482700D01*
X123581400Y-77478892D01*
X123542737Y-77482700D01*
X123214610Y-77482700D01*
X123168223Y-77426177D01*
X123035542Y-77317288D01*
X122884167Y-77236377D01*
X122719916Y-77186552D01*
X122549100Y-77169728D01*
X121974100Y-77169728D01*
X121803284Y-77186552D01*
X121639033Y-77236377D01*
X121487658Y-77317288D01*
X121386600Y-77400225D01*
X121285542Y-77317288D01*
X121134167Y-77236377D01*
X120969916Y-77186552D01*
X120799100Y-77169728D01*
X120224100Y-77169728D01*
X120053284Y-77186552D01*
X119889033Y-77236377D01*
X119737658Y-77317288D01*
X119604977Y-77426177D01*
X119496088Y-77558858D01*
X119415177Y-77710233D01*
X119365352Y-77874484D01*
X119348528Y-78045300D01*
X119348528Y-78520300D01*
X119365352Y-78691116D01*
X119415177Y-78855367D01*
X119496088Y-79006742D01*
X119527322Y-79044800D01*
X119496088Y-79082858D01*
X119415177Y-79234233D01*
X119365352Y-79398484D01*
X119348528Y-79569300D01*
X119348528Y-80044300D01*
X119365352Y-80215116D01*
X119415177Y-80379367D01*
X119496088Y-80530742D01*
X119527322Y-80568800D01*
X119496088Y-80606858D01*
X119415177Y-80758233D01*
X119365352Y-80922484D01*
X119348528Y-81093300D01*
X119348528Y-81568300D01*
X119365352Y-81739116D01*
X119415177Y-81903367D01*
X119479166Y-82023083D01*
X119009638Y-82492612D01*
X119009475Y-82492368D01*
X118802632Y-82285525D01*
X118628240Y-82169000D01*
X118802632Y-82052475D01*
X119009475Y-81845632D01*
X119171990Y-81602411D01*
X119283932Y-81332158D01*
X119341000Y-81045260D01*
X119341000Y-80752740D01*
X119283932Y-80465842D01*
X119171990Y-80195589D01*
X119009475Y-79952368D01*
X118802632Y-79745525D01*
X118620466Y-79623805D01*
X118737355Y-79554178D01*
X118953588Y-79359269D01*
X119127641Y-79125920D01*
X119252825Y-78863099D01*
X119297476Y-78715890D01*
X119176155Y-78486000D01*
X117983000Y-78486000D01*
X117983000Y-78506000D01*
X117729000Y-78506000D01*
X117729000Y-78486000D01*
X117709000Y-78486000D01*
X117709000Y-78232000D01*
X117729000Y-78232000D01*
X117729000Y-78212000D01*
X117983000Y-78212000D01*
X117983000Y-78232000D01*
X119176155Y-78232000D01*
X119297476Y-78002110D01*
X119252825Y-77854901D01*
X119127641Y-77592080D01*
X118953588Y-77358731D01*
X118737355Y-77163822D01*
X118620466Y-77094195D01*
X118802632Y-76972475D01*
X119009475Y-76765632D01*
X119171990Y-76522411D01*
X119283932Y-76252158D01*
X119341000Y-75965260D01*
X119341000Y-75672740D01*
X119283932Y-75385842D01*
X119171990Y-75115589D01*
X119009475Y-74872368D01*
X118802632Y-74665525D01*
X118628240Y-74549000D01*
X118802632Y-74432475D01*
X119009475Y-74225632D01*
X119171990Y-73982411D01*
X119283932Y-73712158D01*
X119341000Y-73425260D01*
X119341000Y-73132740D01*
X119283932Y-72845842D01*
X119171990Y-72575589D01*
X119009475Y-72332368D01*
X118877620Y-72200513D01*
X118950180Y-72178502D01*
X119060494Y-72119537D01*
X119157185Y-72040185D01*
X119236537Y-71943494D01*
X119295502Y-71833180D01*
X119331812Y-71713482D01*
X119344072Y-71589000D01*
X119344072Y-71465924D01*
X124297481Y-71465924D01*
X124429417Y-71761012D01*
X124770145Y-71931859D01*
X125137657Y-72032950D01*
X125517829Y-72060401D01*
X125896051Y-72013157D01*
X126257790Y-71893033D01*
X126504783Y-71761012D01*
X126636719Y-71465924D01*
X125467100Y-70296305D01*
X124297481Y-71465924D01*
X119344072Y-71465924D01*
X119344072Y-70167429D01*
X123523399Y-70167429D01*
X123570643Y-70545651D01*
X123690767Y-70907390D01*
X123822788Y-71154383D01*
X124117876Y-71286319D01*
X125287495Y-70116700D01*
X125646705Y-70116700D01*
X126816324Y-71286319D01*
X127111412Y-71154383D01*
X127282259Y-70813655D01*
X127383350Y-70446143D01*
X127410801Y-70065971D01*
X127363557Y-69687749D01*
X127243433Y-69326010D01*
X127111412Y-69079017D01*
X126816324Y-68947081D01*
X125646705Y-70116700D01*
X125287495Y-70116700D01*
X124117876Y-68947081D01*
X123822788Y-69079017D01*
X123651941Y-69419745D01*
X123550850Y-69787257D01*
X123523399Y-70167429D01*
X119344072Y-70167429D01*
X119344072Y-69889000D01*
X119331812Y-69764518D01*
X119295502Y-69644820D01*
X119261334Y-69580897D01*
X119718431Y-69535390D01*
X120309192Y-69355503D01*
X120847973Y-69067518D01*
X121046223Y-68767476D01*
X124297481Y-68767476D01*
X125467100Y-69937095D01*
X126636719Y-68767476D01*
X126504783Y-68472388D01*
X126164055Y-68301541D01*
X125796543Y-68200450D01*
X125416371Y-68172999D01*
X125038149Y-68220243D01*
X124676410Y-68340367D01*
X124429417Y-68472388D01*
X124297481Y-68767476D01*
X121046223Y-68767476D01*
X121124143Y-68649548D01*
X119100600Y-66626005D01*
X119086458Y-66640148D01*
X118906853Y-66460543D01*
X118920995Y-66446400D01*
X118906853Y-66432258D01*
X119086458Y-66252653D01*
X119100600Y-66266795D01*
X119114743Y-66252653D01*
X119294348Y-66432258D01*
X119280205Y-66446400D01*
X121303748Y-68469943D01*
X121721718Y-68193773D01*
X122012249Y-67648843D01*
X122190887Y-67057704D01*
X122250768Y-66443072D01*
X122189590Y-65828569D01*
X122009703Y-65237808D01*
X121721718Y-64699027D01*
X121482552Y-64541000D01*
X134485607Y-64541000D01*
X134284882Y-64673627D01*
G37*
X134284882Y-64673627D02*
X133994351Y-65218557D01*
X133815713Y-65809696D01*
X133755832Y-66424328D01*
X133817010Y-67038831D01*
X133996897Y-67629592D01*
X134284882Y-68168373D01*
X134702852Y-68444543D01*
X136726395Y-66421000D01*
X136712253Y-66406858D01*
X136891858Y-66227253D01*
X136906000Y-66241395D01*
X136920143Y-66227253D01*
X137099748Y-66406858D01*
X137085605Y-66421000D01*
X137099748Y-66435143D01*
X136920143Y-66614748D01*
X136906000Y-66600605D01*
X134882457Y-68624148D01*
X135158627Y-69042118D01*
X135703557Y-69332649D01*
X136294696Y-69511287D01*
X136782473Y-69558809D01*
X136736498Y-69644820D01*
X136700188Y-69764518D01*
X136687928Y-69889000D01*
X136687928Y-71589000D01*
X136700188Y-71713482D01*
X136736498Y-71833180D01*
X136795463Y-71943494D01*
X136874815Y-72040185D01*
X136971506Y-72119537D01*
X137081820Y-72178502D01*
X137154380Y-72200513D01*
X137022525Y-72332368D01*
X136860010Y-72575589D01*
X136748068Y-72845842D01*
X136691000Y-73132740D01*
X136691000Y-73425260D01*
X136748068Y-73712158D01*
X136860010Y-73982411D01*
X137022525Y-74225632D01*
X137229368Y-74432475D01*
X137403760Y-74549000D01*
X137229368Y-74665525D01*
X137022525Y-74872368D01*
X136860010Y-75115589D01*
X136748068Y-75385842D01*
X136691000Y-75672740D01*
X136691000Y-75965260D01*
X136748068Y-76252158D01*
X136860010Y-76522411D01*
X137022525Y-76765632D01*
X137229368Y-76972475D01*
X137403760Y-77089000D01*
X137365746Y-77114400D01*
X136309625Y-77114400D01*
X136298008Y-76996446D01*
X136247472Y-76829850D01*
X136165405Y-76676314D01*
X136054962Y-76541738D01*
X135920386Y-76431295D01*
X135766850Y-76349228D01*
X135600254Y-76298692D01*
X135427000Y-76281628D01*
X134502000Y-76281628D01*
X134328746Y-76298692D01*
X134162150Y-76349228D01*
X134008614Y-76431295D01*
X133874038Y-76541738D01*
X133763595Y-76676314D01*
X133681528Y-76829850D01*
X133630992Y-76996446D01*
X133613928Y-77169700D01*
X133613928Y-79319700D01*
X133630992Y-79492954D01*
X133681528Y-79659550D01*
X133719901Y-79731340D01*
X133719900Y-79996560D01*
X133681528Y-80068350D01*
X133630992Y-80234946D01*
X133613928Y-80408200D01*
X133613928Y-82558200D01*
X133623790Y-82658328D01*
X133339629Y-82658328D01*
X133337000Y-81768950D01*
X133178250Y-81610200D01*
X132116500Y-81610200D01*
X132116500Y-83284450D01*
X132157728Y-83325678D01*
X132157728Y-83401246D01*
X132140376Y-83433709D01*
X132088093Y-83606062D01*
X131985200Y-83595928D01*
X131410200Y-83595928D01*
X131239384Y-83612752D01*
X131075133Y-83662577D01*
X130923758Y-83743488D01*
X130822700Y-83826425D01*
X130721642Y-83743488D01*
X130570267Y-83662577D01*
X130406016Y-83612752D01*
X130235200Y-83595928D01*
X129660200Y-83595928D01*
X129489384Y-83612752D01*
X129325133Y-83662577D01*
X129173758Y-83743488D01*
X129041077Y-83852377D01*
X128932188Y-83985058D01*
X128851277Y-84136433D01*
X128801452Y-84300684D01*
X128784628Y-84471500D01*
X128784628Y-84758521D01*
X127919750Y-85623400D01*
X127849357Y-85623400D01*
X127796794Y-85580263D01*
X127686480Y-85521298D01*
X127566782Y-85484988D01*
X127442300Y-85472728D01*
X125920501Y-85472728D01*
X125920501Y-83105126D01*
X126217427Y-82808200D01*
X130638928Y-82808200D01*
X130651188Y-82932682D01*
X130687498Y-83052380D01*
X130746463Y-83162694D01*
X130825815Y-83259385D01*
X130922506Y-83338737D01*
X131032820Y-83397702D01*
X131152518Y-83434012D01*
X131277000Y-83446272D01*
X131703750Y-83443200D01*
X131862500Y-83284450D01*
X131862500Y-81610200D01*
X130800750Y-81610200D01*
X130642000Y-81768950D01*
X130638928Y-82808200D01*
X126217427Y-82808200D01*
X128425698Y-80599930D01*
X128425702Y-80599925D01*
X129183033Y-79842595D01*
X129230523Y-79803621D01*
X129269499Y-79756129D01*
X129386054Y-79614107D01*
X129409789Y-79569700D01*
X130638928Y-79569700D01*
X130651188Y-79694182D01*
X130687498Y-79813880D01*
X130714261Y-79863950D01*
X130687498Y-79914020D01*
X130651188Y-80033718D01*
X130638928Y-80158200D01*
X130642000Y-81197450D01*
X130800750Y-81356200D01*
X131862500Y-81356200D01*
X131862500Y-78371700D01*
X132116500Y-78371700D01*
X132116500Y-81356200D01*
X133178250Y-81356200D01*
X133337000Y-81197450D01*
X133340072Y-80158200D01*
X133327812Y-80033718D01*
X133291502Y-79914020D01*
X133264739Y-79863950D01*
X133291502Y-79813880D01*
X133327812Y-79694182D01*
X133340072Y-79569700D01*
X133337000Y-78530450D01*
X133178250Y-78371700D01*
X132116500Y-78371700D01*
X131862500Y-78371700D01*
X130800750Y-78371700D01*
X130642000Y-78530450D01*
X130638928Y-79569700D01*
X129409789Y-79569700D01*
X129467695Y-79461366D01*
X129501624Y-79397890D01*
X129572792Y-79163282D01*
X129590800Y-78980441D01*
X129590800Y-78980431D01*
X129596821Y-78919298D01*
X129590800Y-78858165D01*
X129590800Y-76919700D01*
X130638928Y-76919700D01*
X130642000Y-77958950D01*
X130800750Y-78117700D01*
X131862500Y-78117700D01*
X131862500Y-76443450D01*
X132116500Y-76443450D01*
X132116500Y-78117700D01*
X133178250Y-78117700D01*
X133337000Y-77958950D01*
X133340072Y-76919700D01*
X133327812Y-76795218D01*
X133291502Y-76675520D01*
X133232537Y-76565206D01*
X133153185Y-76468515D01*
X133056494Y-76389163D01*
X132946180Y-76330198D01*
X132826482Y-76293888D01*
X132702000Y-76281628D01*
X132275250Y-76284700D01*
X132116500Y-76443450D01*
X131862500Y-76443450D01*
X131703750Y-76284700D01*
X131277000Y-76281628D01*
X131152518Y-76293888D01*
X131032820Y-76330198D01*
X130922506Y-76389163D01*
X130825815Y-76468515D01*
X130746463Y-76565206D01*
X130687498Y-76675520D01*
X130651188Y-76795218D01*
X130638928Y-76919700D01*
X129590800Y-76919700D01*
X129590800Y-72702329D01*
X130238357Y-72054772D01*
X131767100Y-72054772D01*
X131891582Y-72042512D01*
X132011280Y-72006202D01*
X132121594Y-71947237D01*
X132218285Y-71867885D01*
X132297637Y-71771194D01*
X132356602Y-71660880D01*
X132392912Y-71541182D01*
X132405172Y-71416700D01*
X132405172Y-68816700D01*
X132392912Y-68692218D01*
X132356602Y-68572520D01*
X132297637Y-68462206D01*
X132218285Y-68365515D01*
X132121594Y-68286163D01*
X132011280Y-68227198D01*
X131891582Y-68190888D01*
X131767100Y-68178628D01*
X129167100Y-68178628D01*
X129042618Y-68190888D01*
X128922920Y-68227198D01*
X128812606Y-68286163D01*
X128715915Y-68365515D01*
X128636563Y-68462206D01*
X128577598Y-68572520D01*
X128541288Y-68692218D01*
X128529028Y-68816700D01*
X128529028Y-70243842D01*
X127509368Y-71263503D01*
X127461878Y-71302477D01*
X127422904Y-71349967D01*
X127422901Y-71349970D01*
X127306346Y-71491992D01*
X127190777Y-71708208D01*
X127119609Y-71942816D01*
X127095579Y-72186800D01*
X127101601Y-72247943D01*
X127101600Y-78243482D01*
X126982372Y-78145634D01*
X126845583Y-78072518D01*
X126697157Y-78027494D01*
X126581473Y-78016100D01*
X126581463Y-78016100D01*
X126542800Y-78012292D01*
X126504137Y-78016100D01*
X126414516Y-78016100D01*
X126386298Y-77963308D01*
X126331842Y-77881809D01*
X126252490Y-77785118D01*
X126183182Y-77715810D01*
X126086491Y-77636458D01*
X126004992Y-77582002D01*
X125894675Y-77523036D01*
X125804119Y-77485527D01*
X125684423Y-77449218D01*
X125588290Y-77430096D01*
X125463809Y-77417836D01*
X125439250Y-77417836D01*
X125414800Y-77415428D01*
X124914800Y-77415428D01*
X124790318Y-77427688D01*
X124764800Y-77435429D01*
X124739282Y-77427688D01*
X124614800Y-77415428D01*
X124114800Y-77415428D01*
X124090350Y-77417836D01*
X124065791Y-77417836D01*
X123941310Y-77430096D01*
X123845177Y-77449218D01*
X123725481Y-77485527D01*
X123710746Y-77491631D01*
X123620073Y-77482700D01*
X123620063Y-77482700D01*
X123581400Y-77478892D01*
X123542737Y-77482700D01*
X123214610Y-77482700D01*
X123168223Y-77426177D01*
X123035542Y-77317288D01*
X122884167Y-77236377D01*
X122719916Y-77186552D01*
X122549100Y-77169728D01*
X121974100Y-77169728D01*
X121803284Y-77186552D01*
X121639033Y-77236377D01*
X121487658Y-77317288D01*
X121386600Y-77400225D01*
X121285542Y-77317288D01*
X121134167Y-77236377D01*
X120969916Y-77186552D01*
X120799100Y-77169728D01*
X120224100Y-77169728D01*
X120053284Y-77186552D01*
X119889033Y-77236377D01*
X119737658Y-77317288D01*
X119604977Y-77426177D01*
X119496088Y-77558858D01*
X119415177Y-77710233D01*
X119365352Y-77874484D01*
X119348528Y-78045300D01*
X119348528Y-78520300D01*
X119365352Y-78691116D01*
X119415177Y-78855367D01*
X119496088Y-79006742D01*
X119527322Y-79044800D01*
X119496088Y-79082858D01*
X119415177Y-79234233D01*
X119365352Y-79398484D01*
X119348528Y-79569300D01*
X119348528Y-80044300D01*
X119365352Y-80215116D01*
X119415177Y-80379367D01*
X119496088Y-80530742D01*
X119527322Y-80568800D01*
X119496088Y-80606858D01*
X119415177Y-80758233D01*
X119365352Y-80922484D01*
X119348528Y-81093300D01*
X119348528Y-81568300D01*
X119365352Y-81739116D01*
X119415177Y-81903367D01*
X119479166Y-82023083D01*
X119009638Y-82492612D01*
X119009475Y-82492368D01*
X118802632Y-82285525D01*
X118628240Y-82169000D01*
X118802632Y-82052475D01*
X119009475Y-81845632D01*
X119171990Y-81602411D01*
X119283932Y-81332158D01*
X119341000Y-81045260D01*
X119341000Y-80752740D01*
X119283932Y-80465842D01*
X119171990Y-80195589D01*
X119009475Y-79952368D01*
X118802632Y-79745525D01*
X118620466Y-79623805D01*
X118737355Y-79554178D01*
X118953588Y-79359269D01*
X119127641Y-79125920D01*
X119252825Y-78863099D01*
X119297476Y-78715890D01*
X119176155Y-78486000D01*
X117983000Y-78486000D01*
X117983000Y-78506000D01*
X117729000Y-78506000D01*
X117729000Y-78486000D01*
X117709000Y-78486000D01*
X117709000Y-78232000D01*
X117729000Y-78232000D01*
X117729000Y-78212000D01*
X117983000Y-78212000D01*
X117983000Y-78232000D01*
X119176155Y-78232000D01*
X119297476Y-78002110D01*
X119252825Y-77854901D01*
X119127641Y-77592080D01*
X118953588Y-77358731D01*
X118737355Y-77163822D01*
X118620466Y-77094195D01*
X118802632Y-76972475D01*
X119009475Y-76765632D01*
X119171990Y-76522411D01*
X119283932Y-76252158D01*
X119341000Y-75965260D01*
X119341000Y-75672740D01*
X119283932Y-75385842D01*
X119171990Y-75115589D01*
X119009475Y-74872368D01*
X118802632Y-74665525D01*
X118628240Y-74549000D01*
X118802632Y-74432475D01*
X119009475Y-74225632D01*
X119171990Y-73982411D01*
X119283932Y-73712158D01*
X119341000Y-73425260D01*
X119341000Y-73132740D01*
X119283932Y-72845842D01*
X119171990Y-72575589D01*
X119009475Y-72332368D01*
X118877620Y-72200513D01*
X118950180Y-72178502D01*
X119060494Y-72119537D01*
X119157185Y-72040185D01*
X119236537Y-71943494D01*
X119295502Y-71833180D01*
X119331812Y-71713482D01*
X119344072Y-71589000D01*
X119344072Y-71465924D01*
X124297481Y-71465924D01*
X124429417Y-71761012D01*
X124770145Y-71931859D01*
X125137657Y-72032950D01*
X125517829Y-72060401D01*
X125896051Y-72013157D01*
X126257790Y-71893033D01*
X126504783Y-71761012D01*
X126636719Y-71465924D01*
X125467100Y-70296305D01*
X124297481Y-71465924D01*
X119344072Y-71465924D01*
X119344072Y-70167429D01*
X123523399Y-70167429D01*
X123570643Y-70545651D01*
X123690767Y-70907390D01*
X123822788Y-71154383D01*
X124117876Y-71286319D01*
X125287495Y-70116700D01*
X125646705Y-70116700D01*
X126816324Y-71286319D01*
X127111412Y-71154383D01*
X127282259Y-70813655D01*
X127383350Y-70446143D01*
X127410801Y-70065971D01*
X127363557Y-69687749D01*
X127243433Y-69326010D01*
X127111412Y-69079017D01*
X126816324Y-68947081D01*
X125646705Y-70116700D01*
X125287495Y-70116700D01*
X124117876Y-68947081D01*
X123822788Y-69079017D01*
X123651941Y-69419745D01*
X123550850Y-69787257D01*
X123523399Y-70167429D01*
X119344072Y-70167429D01*
X119344072Y-69889000D01*
X119331812Y-69764518D01*
X119295502Y-69644820D01*
X119261334Y-69580897D01*
X119718431Y-69535390D01*
X120309192Y-69355503D01*
X120847973Y-69067518D01*
X121046223Y-68767476D01*
X124297481Y-68767476D01*
X125467100Y-69937095D01*
X126636719Y-68767476D01*
X126504783Y-68472388D01*
X126164055Y-68301541D01*
X125796543Y-68200450D01*
X125416371Y-68172999D01*
X125038149Y-68220243D01*
X124676410Y-68340367D01*
X124429417Y-68472388D01*
X124297481Y-68767476D01*
X121046223Y-68767476D01*
X121124143Y-68649548D01*
X119100600Y-66626005D01*
X119086458Y-66640148D01*
X118906853Y-66460543D01*
X118920995Y-66446400D01*
X118906853Y-66432258D01*
X119086458Y-66252653D01*
X119100600Y-66266795D01*
X119114743Y-66252653D01*
X119294348Y-66432258D01*
X119280205Y-66446400D01*
X121303748Y-68469943D01*
X121721718Y-68193773D01*
X122012249Y-67648843D01*
X122190887Y-67057704D01*
X122250768Y-66443072D01*
X122189590Y-65828569D01*
X122009703Y-65237808D01*
X121721718Y-64699027D01*
X121482552Y-64541000D01*
X134485607Y-64541000D01*
X134284882Y-64673627D01*
%TD*%
M02*
