%TF.GenerationSoftware,KiCad,Pcbnew,5.1.6-c6e7f7d~87~ubuntu18.04.1*%
%TF.CreationDate,2020-10-25T11:27:02-07:00*%
%TF.ProjectId,feather-power-supply-sw-smd,66656174-6865-4722-9d70-6f7765722d73,rev?*%
%TF.SameCoordinates,Original*%
%TF.FileFunction,Soldermask,Bot*%
%TF.FilePolarity,Negative*%
%FSLAX46Y46*%
G04 Gerber Fmt 4.6, Leading zero omitted, Abs format (unit mm)*
G04 Created by KiCad (PCBNEW 5.1.6-c6e7f7d~87~ubuntu18.04.1) date 2020-10-25 11:27:02*
%MOMM*%
%LPD*%
G01*
G04 APERTURE LIST*
%ADD10C,0.150000*%
%ADD11C,2.801600*%
%ADD12O,1.801600X1.801600*%
%ADD13R,1.801600X1.801600*%
%ADD14R,2.701600X2.701600*%
%ADD15C,2.701600*%
%ADD16C,5.101600*%
G04 APERTURE END LIST*
D10*
X145273766Y-106021666D02*
X144797575Y-106021666D01*
X145404718Y-106307380D02*
X144946385Y-105307380D01*
X144738051Y-106307380D01*
X144321385Y-105640714D02*
X144404718Y-106307380D01*
X144333289Y-105735952D02*
X144279718Y-105688333D01*
X144178527Y-105640714D01*
X144035670Y-105640714D01*
X143946385Y-105688333D01*
X143910670Y-105783571D01*
X143976147Y-106307380D01*
X143071385Y-106307380D02*
X143005908Y-105783571D01*
X143041623Y-105688333D01*
X143130908Y-105640714D01*
X143321385Y-105640714D01*
X143422575Y-105688333D01*
X143065432Y-106259761D02*
X143166623Y-106307380D01*
X143404718Y-106307380D01*
X143494004Y-106259761D01*
X143529718Y-106164523D01*
X143517813Y-106069285D01*
X143458289Y-105974047D01*
X143357099Y-105926428D01*
X143119004Y-105926428D01*
X143017813Y-105878809D01*
X142511861Y-105640714D02*
X142636861Y-106640714D01*
X142517813Y-105688333D02*
X142416623Y-105640714D01*
X142226147Y-105640714D01*
X142136861Y-105688333D01*
X142095194Y-105735952D01*
X142059480Y-105831190D01*
X142095194Y-106116904D01*
X142154718Y-106212142D01*
X142208289Y-106259761D01*
X142309480Y-106307380D01*
X142499956Y-106307380D01*
X142589242Y-106259761D01*
X141547575Y-106307380D02*
X141636861Y-106259761D01*
X141678527Y-106212142D01*
X141714242Y-106116904D01*
X141678527Y-105831190D01*
X141619004Y-105735952D01*
X141565432Y-105688333D01*
X141464242Y-105640714D01*
X141321385Y-105640714D01*
X141232099Y-105688333D01*
X141190432Y-105735952D01*
X141154718Y-105831190D01*
X141190432Y-106116904D01*
X141249956Y-106212142D01*
X141303527Y-106259761D01*
X141404718Y-106307380D01*
X141547575Y-106307380D01*
X140827337Y-106259761D02*
X140738051Y-106307380D01*
X140547575Y-106307380D01*
X140446385Y-106259761D01*
X140386861Y-106164523D01*
X140380908Y-106116904D01*
X140416623Y-106021666D01*
X140505908Y-105974047D01*
X140648766Y-105974047D01*
X140738051Y-105926428D01*
X140773766Y-105831190D01*
X140767813Y-105783571D01*
X140708289Y-105688333D01*
X140607099Y-105640714D01*
X140464242Y-105640714D01*
X140374956Y-105688333D01*
X139255908Y-106259761D02*
X139119004Y-106307380D01*
X138880908Y-106307380D01*
X138779718Y-106259761D01*
X138726147Y-106212142D01*
X138666623Y-106116904D01*
X138654718Y-106021666D01*
X138690432Y-105926428D01*
X138732099Y-105878809D01*
X138821385Y-105831190D01*
X139005908Y-105783571D01*
X139095194Y-105735952D01*
X139136861Y-105688333D01*
X139172575Y-105593095D01*
X139160670Y-105497857D01*
X139101147Y-105402619D01*
X139047575Y-105355000D01*
X138946385Y-105307380D01*
X138708289Y-105307380D01*
X138571385Y-105355000D01*
X137874956Y-106259761D02*
X137976147Y-106307380D01*
X138166623Y-106307380D01*
X138255908Y-106259761D01*
X138291623Y-106164523D01*
X138244004Y-105783571D01*
X138184480Y-105688333D01*
X138083289Y-105640714D01*
X137892813Y-105640714D01*
X137803527Y-105688333D01*
X137767813Y-105783571D01*
X137779718Y-105878809D01*
X138267813Y-105974047D01*
X137321385Y-105640714D02*
X137404718Y-106307380D01*
X137333289Y-105735952D02*
X137279718Y-105688333D01*
X137178527Y-105640714D01*
X137035670Y-105640714D01*
X136946385Y-105688333D01*
X136910670Y-105783571D01*
X136976147Y-106307380D01*
X136541623Y-106259761D02*
X136452337Y-106307380D01*
X136261861Y-106307380D01*
X136160670Y-106259761D01*
X136101147Y-106164523D01*
X136095194Y-106116904D01*
X136130908Y-106021666D01*
X136220194Y-105974047D01*
X136363051Y-105974047D01*
X136452337Y-105926428D01*
X136488051Y-105831190D01*
X136482099Y-105783571D01*
X136422575Y-105688333D01*
X136321385Y-105640714D01*
X136178527Y-105640714D01*
X136089242Y-105688333D01*
X135690432Y-106307380D02*
X135607099Y-105640714D01*
X135565432Y-105307380D02*
X135619004Y-105355000D01*
X135577337Y-105402619D01*
X135523766Y-105355000D01*
X135565432Y-105307380D01*
X135577337Y-105402619D01*
X135130908Y-105640714D02*
X135214242Y-106307380D01*
X135142813Y-105735952D02*
X135089242Y-105688333D01*
X134988051Y-105640714D01*
X134845194Y-105640714D01*
X134755908Y-105688333D01*
X134720194Y-105783571D01*
X134785670Y-106307380D01*
X133797575Y-105640714D02*
X133898766Y-106450238D01*
X133958289Y-106545476D01*
X134011861Y-106593095D01*
X134113051Y-106640714D01*
X134255908Y-106640714D01*
X134345194Y-106593095D01*
X133874956Y-106259761D02*
X133976147Y-106307380D01*
X134166623Y-106307380D01*
X134255908Y-106259761D01*
X134297575Y-106212142D01*
X134333289Y-106116904D01*
X134297575Y-105831190D01*
X134238051Y-105735952D01*
X134184480Y-105688333D01*
X134083289Y-105640714D01*
X133892813Y-105640714D01*
X133803527Y-105688333D01*
X143119004Y-107957380D02*
X143053527Y-107433571D01*
X143089242Y-107338333D01*
X143178527Y-107290714D01*
X143369004Y-107290714D01*
X143470194Y-107338333D01*
X143113051Y-107909761D02*
X143214242Y-107957380D01*
X143452337Y-107957380D01*
X143541623Y-107909761D01*
X143577337Y-107814523D01*
X143565432Y-107719285D01*
X143505908Y-107624047D01*
X143404718Y-107576428D01*
X143166623Y-107576428D01*
X143065432Y-107528809D01*
X142559480Y-107290714D02*
X142642813Y-107957380D01*
X142571385Y-107385952D02*
X142517813Y-107338333D01*
X142416623Y-107290714D01*
X142273766Y-107290714D01*
X142184480Y-107338333D01*
X142148766Y-107433571D01*
X142214242Y-107957380D01*
X141309480Y-107957380D02*
X141184480Y-106957380D01*
X141303527Y-107909761D02*
X141404718Y-107957380D01*
X141595194Y-107957380D01*
X141684480Y-107909761D01*
X141726147Y-107862142D01*
X141761861Y-107766904D01*
X141726147Y-107481190D01*
X141666623Y-107385952D01*
X141613051Y-107338333D01*
X141511861Y-107290714D01*
X141321385Y-107290714D01*
X141232099Y-107338333D01*
X140071385Y-107957380D02*
X139946385Y-106957380D01*
X139708289Y-106957380D01*
X139571385Y-107005000D01*
X139488051Y-107100238D01*
X139452337Y-107195476D01*
X139428527Y-107385952D01*
X139446385Y-107528809D01*
X139517813Y-107719285D01*
X139577337Y-107814523D01*
X139684480Y-107909761D01*
X139833289Y-107957380D01*
X140071385Y-107957380D01*
X138684480Y-107909761D02*
X138785670Y-107957380D01*
X138976147Y-107957380D01*
X139065432Y-107909761D01*
X139101147Y-107814523D01*
X139053527Y-107433571D01*
X138994004Y-107338333D01*
X138892813Y-107290714D01*
X138702337Y-107290714D01*
X138613051Y-107338333D01*
X138577337Y-107433571D01*
X138589242Y-107528809D01*
X139077337Y-107624047D01*
X138255908Y-107909761D02*
X138166623Y-107957380D01*
X137976147Y-107957380D01*
X137874956Y-107909761D01*
X137815432Y-107814523D01*
X137809480Y-107766904D01*
X137845194Y-107671666D01*
X137934480Y-107624047D01*
X138077337Y-107624047D01*
X138166623Y-107576428D01*
X138202337Y-107481190D01*
X138196385Y-107433571D01*
X138136861Y-107338333D01*
X138035670Y-107290714D01*
X137892813Y-107290714D01*
X137803527Y-107338333D01*
X137404718Y-107957380D02*
X137321385Y-107290714D01*
X137279718Y-106957380D02*
X137333289Y-107005000D01*
X137291623Y-107052619D01*
X137238051Y-107005000D01*
X137279718Y-106957380D01*
X137291623Y-107052619D01*
X136416623Y-107290714D02*
X136517813Y-108100238D01*
X136577337Y-108195476D01*
X136630908Y-108243095D01*
X136732099Y-108290714D01*
X136874956Y-108290714D01*
X136964242Y-108243095D01*
X136494004Y-107909761D02*
X136595194Y-107957380D01*
X136785670Y-107957380D01*
X136874956Y-107909761D01*
X136916623Y-107862142D01*
X136952337Y-107766904D01*
X136916623Y-107481190D01*
X136857099Y-107385952D01*
X136803527Y-107338333D01*
X136702337Y-107290714D01*
X136511861Y-107290714D01*
X136422575Y-107338333D01*
X135940432Y-107290714D02*
X136023766Y-107957380D01*
X135952337Y-107385952D02*
X135898766Y-107338333D01*
X135797575Y-107290714D01*
X135654718Y-107290714D01*
X135565432Y-107338333D01*
X135529718Y-107433571D01*
X135595194Y-107957380D01*
D11*
%TO.C,H3*%
X148615400Y-107010200D03*
%TD*%
%TO.C,H4*%
X130810000Y-107010200D03*
%TD*%
D12*
%TO.C,J5*%
X143510000Y-98933000D03*
X140970000Y-98933000D03*
X138430000Y-98933000D03*
D13*
X135890000Y-98933000D03*
%TD*%
D14*
%TO.C,J1*%
X142176500Y-64643000D03*
D15*
X137176500Y-64643000D03*
%TD*%
D16*
%TO.C,H2*%
X148615400Y-61671200D03*
%TD*%
%TO.C,H1*%
X130810000Y-61696600D03*
%TD*%
D12*
%TO.C,J3*%
X129565400Y-104089200D03*
X129565400Y-101549200D03*
X129565400Y-99009200D03*
X129565400Y-96469200D03*
X129565400Y-93929200D03*
X129565400Y-91389200D03*
X129565400Y-88849200D03*
X129565400Y-86309200D03*
X129565400Y-83769200D03*
X129565400Y-81229200D03*
X129565400Y-78689200D03*
X129565400Y-76149200D03*
X129565400Y-73609200D03*
X129565400Y-71069200D03*
X129565400Y-68529200D03*
D13*
X129565400Y-65989200D03*
%TD*%
%TO.C,J2*%
X149860000Y-76200000D03*
D12*
X149860000Y-78740000D03*
X149860000Y-81280000D03*
X149860000Y-83820000D03*
X149860000Y-86360000D03*
X149860000Y-88900000D03*
X149860000Y-91440000D03*
X149860000Y-93980000D03*
X149860000Y-96520000D03*
X149860000Y-99060000D03*
X149860000Y-101600000D03*
X149860000Y-104140000D03*
%TD*%
M02*
