%TF.GenerationSoftware,KiCad,Pcbnew,5.1.6-c6e7f7d~87~ubuntu18.04.1*%
%TF.CreationDate,2020-09-21T14:55:41-07:00*%
%TF.ProjectId,feather-power-supply-sw-smd,66656174-6865-4722-9d70-6f7765722d73,rev?*%
%TF.SameCoordinates,Original*%
%TF.FileFunction,Copper,L2,Bot*%
%TF.FilePolarity,Positive*%
%FSLAX46Y46*%
G04 Gerber Fmt 4.6, Leading zero omitted, Abs format (unit mm)*
G04 Created by KiCad (PCBNEW 5.1.6-c6e7f7d~87~ubuntu18.04.1) date 2020-09-21 14:55:41*
%MOMM*%
%LPD*%
G01*
G04 APERTURE LIST*
%TA.AperFunction,ComponentPad*%
%ADD10O,1.700000X1.700000*%
%TD*%
%TA.AperFunction,ComponentPad*%
%ADD11R,1.700000X1.700000*%
%TD*%
%TA.AperFunction,ComponentPad*%
%ADD12R,2.600000X2.600000*%
%TD*%
%TA.AperFunction,ComponentPad*%
%ADD13C,2.600000*%
%TD*%
%TA.AperFunction,ComponentPad*%
%ADD14C,5.000000*%
%TD*%
%TA.AperFunction,ViaPad*%
%ADD15C,0.685800*%
%TD*%
%TA.AperFunction,Conductor*%
%ADD16C,0.304800*%
%TD*%
%TA.AperFunction,Conductor*%
%ADD17C,0.609600*%
%TD*%
%TA.AperFunction,Conductor*%
%ADD18C,0.254000*%
%TD*%
G04 APERTURE END LIST*
D10*
%TO.P,J5,4*%
%TO.N,/SDA*%
X134874000Y-104063800D03*
%TO.P,J5,3*%
%TO.N,/SCL*%
X137414000Y-104063800D03*
%TO.P,J5,2*%
%TO.N,+5V*%
X139954000Y-104063800D03*
D11*
%TO.P,J5,1*%
%TO.N,GND*%
X142494000Y-104063800D03*
%TD*%
D12*
%TO.P,J1,1*%
%TO.N,VCC*%
X142176500Y-64643000D03*
D13*
%TO.P,J1,2*%
%TO.N,GND*%
X137176500Y-64643000D03*
%TD*%
D14*
%TO.P,H2,1*%
%TO.N,GND*%
X148615400Y-61671200D03*
%TD*%
%TO.P,H1,1*%
%TO.N,GND*%
X130810000Y-61696600D03*
%TD*%
D10*
%TO.P,J3,16*%
%TO.N,Net-(J3-Pad16)*%
X129565400Y-104089200D03*
%TO.P,J3,15*%
%TO.N,Net-(J3-Pad15)*%
X129565400Y-101549200D03*
%TO.P,J3,14*%
%TO.N,Net-(J3-Pad14)*%
X129565400Y-99009200D03*
%TO.P,J3,13*%
%TO.N,Net-(J3-Pad13)*%
X129565400Y-96469200D03*
%TO.P,J3,12*%
%TO.N,Net-(J3-Pad12)*%
X129565400Y-93929200D03*
%TO.P,J3,11*%
%TO.N,Net-(J3-Pad11)*%
X129565400Y-91389200D03*
%TO.P,J3,10*%
%TO.N,Net-(J3-Pad10)*%
X129565400Y-88849200D03*
%TO.P,J3,9*%
%TO.N,Net-(J3-Pad9)*%
X129565400Y-86309200D03*
%TO.P,J3,8*%
%TO.N,Net-(J3-Pad8)*%
X129565400Y-83769200D03*
%TO.P,J3,7*%
%TO.N,Net-(J3-Pad7)*%
X129565400Y-81229200D03*
%TO.P,J3,6*%
%TO.N,/A1*%
X129565400Y-78689200D03*
%TO.P,J3,5*%
%TO.N,Net-(J3-Pad5)*%
X129565400Y-76149200D03*
%TO.P,J3,4*%
%TO.N,GND*%
X129565400Y-73609200D03*
%TO.P,J3,3*%
%TO.N,Net-(J3-Pad3)*%
X129565400Y-71069200D03*
%TO.P,J3,2*%
%TO.N,Net-(J3-Pad2)*%
X129565400Y-68529200D03*
D11*
%TO.P,J3,1*%
%TO.N,Net-(J3-Pad1)*%
X129565400Y-65989200D03*
%TD*%
%TO.P,J2,1*%
%TO.N,Net-(J2-Pad1)*%
X149885400Y-65989200D03*
D10*
%TO.P,J2,2*%
%TO.N,+3V3*%
X149885400Y-68529200D03*
%TO.P,J2,3*%
%TO.N,Net-(J2-Pad3)*%
X149885400Y-71069200D03*
%TO.P,J2,4*%
%TO.N,+5V*%
X149885400Y-73609200D03*
%TO.P,J2,5*%
%TO.N,Net-(J2-Pad5)*%
X149885400Y-76149200D03*
%TO.P,J2,6*%
%TO.N,Net-(J2-Pad6)*%
X149885400Y-78689200D03*
%TO.P,J2,7*%
%TO.N,Net-(J2-Pad7)*%
X149885400Y-81229200D03*
%TO.P,J2,8*%
%TO.N,Net-(J2-Pad8)*%
X149885400Y-83769200D03*
%TO.P,J2,9*%
%TO.N,Net-(J2-Pad9)*%
X149885400Y-86309200D03*
%TO.P,J2,10*%
%TO.N,Net-(J2-Pad10)*%
X149885400Y-88849200D03*
%TO.P,J2,11*%
%TO.N,/SCL*%
X149885400Y-91389200D03*
%TO.P,J2,12*%
%TO.N,/SDA*%
X149885400Y-93929200D03*
%TD*%
D15*
%TO.N,GND*%
X132715000Y-69596000D03*
X134620000Y-59994800D03*
X135921750Y-59994800D03*
X138525250Y-59994800D03*
X137223500Y-59994800D03*
X142430500Y-59994800D03*
X143732250Y-59994800D03*
X141128750Y-59994800D03*
X145034000Y-59994800D03*
X139827000Y-59994800D03*
X139088090Y-109016800D03*
X144084962Y-109016800D03*
X135340436Y-109016800D03*
X142835744Y-109016800D03*
X134091218Y-109016800D03*
X137838872Y-109016800D03*
X136589654Y-109016800D03*
X141586526Y-109016800D03*
X140337308Y-109016800D03*
X145334180Y-109016800D03*
X132842000Y-109016800D03*
X146583400Y-109004100D03*
X145034000Y-90424000D03*
X144272000Y-101854000D03*
X136906000Y-87630000D03*
X133858000Y-80772000D03*
X136652000Y-81280000D03*
X139192000Y-78232000D03*
X143510000Y-77724000D03*
X143510000Y-76200000D03*
X145542000Y-79502000D03*
X135636000Y-76708000D03*
X135636000Y-77470000D03*
X142240000Y-77724000D03*
X142240000Y-76200000D03*
X146812000Y-79502000D03*
X136652000Y-69342000D03*
X136652000Y-67818000D03*
X135382000Y-67818000D03*
X135382000Y-69342000D03*
X139192000Y-69342000D03*
X137922000Y-69342000D03*
X137922000Y-67818000D03*
X139192000Y-67818000D03*
X141732000Y-67818000D03*
X140462000Y-69342000D03*
X140462000Y-67818000D03*
X141732000Y-69342000D03*
X147066000Y-70866000D03*
X147066000Y-72136000D03*
X136398000Y-91694000D03*
X138938000Y-91694000D03*
X133858000Y-91694000D03*
X136398000Y-93218000D03*
X138938000Y-93218000D03*
X133858000Y-93218000D03*
X136398000Y-94742000D03*
X138938000Y-94742000D03*
X133858000Y-94742000D03*
X136398000Y-96266000D03*
X133858000Y-96266000D03*
X138938000Y-96266000D03*
X136398000Y-99314000D03*
X138938000Y-97790000D03*
X136398000Y-97790000D03*
X133858000Y-99314000D03*
X133858000Y-97790000D03*
X138938000Y-99314000D03*
X141478000Y-91694000D03*
X141478000Y-99314000D03*
X141478000Y-94742000D03*
X141478000Y-97790000D03*
X141478000Y-96266000D03*
X141478000Y-93218000D03*
X142240000Y-79502000D03*
X143510000Y-79502000D03*
X140078525Y-80306009D03*
X140970000Y-79502000D03*
X147828000Y-75438000D03*
X146304000Y-94742000D03*
X146304000Y-93218000D03*
X143764000Y-93218000D03*
X143764000Y-94742000D03*
X146304000Y-91694000D03*
X143764000Y-91694000D03*
X136398000Y-89916000D03*
X133858000Y-89916000D03*
X131572000Y-97790000D03*
X131572000Y-99314000D03*
X131572000Y-96266000D03*
X131572000Y-91694000D03*
X131572000Y-93218000D03*
X131572000Y-94742000D03*
X131572000Y-89916000D03*
X133858000Y-101092000D03*
X136398000Y-101092000D03*
X131572000Y-101092000D03*
X143764000Y-96266000D03*
X143764000Y-97790000D03*
X130873500Y-72390000D03*
X130810000Y-74930000D03*
X149758400Y-100279200D03*
%TO.N,Net-(C1-Pad1)*%
X138150600Y-89128600D03*
X139191994Y-79248000D03*
%TO.N,+5V*%
X147828012Y-100330000D03*
X148336000Y-90424000D03*
%TD*%
D16*
%TO.N,Net-(C1-Pad1)*%
X138150600Y-80289394D02*
X139191994Y-79248000D01*
X138150600Y-89128600D02*
X138150600Y-80289394D01*
D17*
%TO.N,+5V*%
X148336000Y-99822012D02*
X147828012Y-100330000D01*
X148336000Y-90424000D02*
X148336000Y-99822012D01*
%TD*%
D18*
%TO.N,GND*%
G36*
X146412250Y-59647658D02*
G01*
X145994282Y-59923827D01*
X145703751Y-60468757D01*
X145525113Y-61059896D01*
X145465232Y-61674528D01*
X145526410Y-62289031D01*
X145706297Y-62879792D01*
X145994282Y-63418573D01*
X146412252Y-63694743D01*
X148435795Y-61671200D01*
X148421653Y-61657058D01*
X148601258Y-61477453D01*
X148615400Y-61491595D01*
X150024590Y-60082405D01*
X150117717Y-60158357D01*
X150203796Y-60262409D01*
X148795005Y-61671200D01*
X148809148Y-61685343D01*
X148629543Y-61864948D01*
X148615400Y-61850805D01*
X146591857Y-63874348D01*
X146868027Y-64292318D01*
X147412957Y-64582849D01*
X148004096Y-64761487D01*
X148618728Y-64821368D01*
X148868264Y-64796525D01*
X148822704Y-64820878D01*
X148764689Y-64868489D01*
X148717078Y-64926504D01*
X148681699Y-64992692D01*
X148659913Y-65064511D01*
X148652557Y-65139200D01*
X148652557Y-66839200D01*
X148659913Y-66913889D01*
X148681699Y-66985708D01*
X148717078Y-67051896D01*
X148764689Y-67109911D01*
X148822704Y-67157522D01*
X148888892Y-67192901D01*
X148960711Y-67214687D01*
X149035400Y-67222043D01*
X150735400Y-67222043D01*
X150749400Y-67220664D01*
X150749400Y-67652303D01*
X150670117Y-67573020D01*
X150468497Y-67438302D01*
X150244469Y-67345507D01*
X150006643Y-67298200D01*
X149764157Y-67298200D01*
X149526331Y-67345507D01*
X149302303Y-67438302D01*
X149100683Y-67573020D01*
X148929220Y-67744483D01*
X148794502Y-67946103D01*
X148701707Y-68170131D01*
X148654400Y-68407957D01*
X148654400Y-68650443D01*
X148701707Y-68888269D01*
X148794502Y-69112297D01*
X148929220Y-69313917D01*
X149100683Y-69485380D01*
X149302303Y-69620098D01*
X149526331Y-69712893D01*
X149764157Y-69760200D01*
X150006643Y-69760200D01*
X150244469Y-69712893D01*
X150468497Y-69620098D01*
X150670117Y-69485380D01*
X150749400Y-69406097D01*
X150749400Y-70192303D01*
X150670117Y-70113020D01*
X150468497Y-69978302D01*
X150244469Y-69885507D01*
X150006643Y-69838200D01*
X149764157Y-69838200D01*
X149526331Y-69885507D01*
X149302303Y-69978302D01*
X149100683Y-70113020D01*
X148929220Y-70284483D01*
X148794502Y-70486103D01*
X148701707Y-70710131D01*
X148654400Y-70947957D01*
X148654400Y-71190443D01*
X148701707Y-71428269D01*
X148794502Y-71652297D01*
X148929220Y-71853917D01*
X149100683Y-72025380D01*
X149302303Y-72160098D01*
X149526331Y-72252893D01*
X149764157Y-72300200D01*
X150006643Y-72300200D01*
X150244469Y-72252893D01*
X150468497Y-72160098D01*
X150670117Y-72025380D01*
X150749400Y-71946097D01*
X150749400Y-72732303D01*
X150670117Y-72653020D01*
X150468497Y-72518302D01*
X150244469Y-72425507D01*
X150006643Y-72378200D01*
X149764157Y-72378200D01*
X149526331Y-72425507D01*
X149302303Y-72518302D01*
X149100683Y-72653020D01*
X148929220Y-72824483D01*
X148794502Y-73026103D01*
X148701707Y-73250131D01*
X148654400Y-73487957D01*
X148654400Y-73730443D01*
X148701707Y-73968269D01*
X148794502Y-74192297D01*
X148929220Y-74393917D01*
X149100683Y-74565380D01*
X149302303Y-74700098D01*
X149526331Y-74792893D01*
X149764157Y-74840200D01*
X150006643Y-74840200D01*
X150244469Y-74792893D01*
X150468497Y-74700098D01*
X150670117Y-74565380D01*
X150749400Y-74486097D01*
X150749400Y-75272303D01*
X150670117Y-75193020D01*
X150468497Y-75058302D01*
X150244469Y-74965507D01*
X150006643Y-74918200D01*
X149764157Y-74918200D01*
X149526331Y-74965507D01*
X149302303Y-75058302D01*
X149100683Y-75193020D01*
X148929220Y-75364483D01*
X148794502Y-75566103D01*
X148701707Y-75790131D01*
X148654400Y-76027957D01*
X148654400Y-76270443D01*
X148701707Y-76508269D01*
X148794502Y-76732297D01*
X148929220Y-76933917D01*
X149100683Y-77105380D01*
X149302303Y-77240098D01*
X149526331Y-77332893D01*
X149764157Y-77380200D01*
X150006643Y-77380200D01*
X150244469Y-77332893D01*
X150468497Y-77240098D01*
X150670117Y-77105380D01*
X150749400Y-77026097D01*
X150749400Y-77812303D01*
X150670117Y-77733020D01*
X150468497Y-77598302D01*
X150244469Y-77505507D01*
X150006643Y-77458200D01*
X149764157Y-77458200D01*
X149526331Y-77505507D01*
X149302303Y-77598302D01*
X149100683Y-77733020D01*
X148929220Y-77904483D01*
X148794502Y-78106103D01*
X148701707Y-78330131D01*
X148654400Y-78567957D01*
X148654400Y-78810443D01*
X148701707Y-79048269D01*
X148794502Y-79272297D01*
X148929220Y-79473917D01*
X149100683Y-79645380D01*
X149302303Y-79780098D01*
X149526331Y-79872893D01*
X149764157Y-79920200D01*
X150006643Y-79920200D01*
X150244469Y-79872893D01*
X150468497Y-79780098D01*
X150670117Y-79645380D01*
X150749400Y-79566097D01*
X150749400Y-80352303D01*
X150670117Y-80273020D01*
X150468497Y-80138302D01*
X150244469Y-80045507D01*
X150006643Y-79998200D01*
X149764157Y-79998200D01*
X149526331Y-80045507D01*
X149302303Y-80138302D01*
X149100683Y-80273020D01*
X148929220Y-80444483D01*
X148794502Y-80646103D01*
X148701707Y-80870131D01*
X148654400Y-81107957D01*
X148654400Y-81350443D01*
X148701707Y-81588269D01*
X148794502Y-81812297D01*
X148929220Y-82013917D01*
X149100683Y-82185380D01*
X149302303Y-82320098D01*
X149526331Y-82412893D01*
X149764157Y-82460200D01*
X150006643Y-82460200D01*
X150244469Y-82412893D01*
X150468497Y-82320098D01*
X150670117Y-82185380D01*
X150749400Y-82106097D01*
X150749400Y-82892303D01*
X150670117Y-82813020D01*
X150468497Y-82678302D01*
X150244469Y-82585507D01*
X150006643Y-82538200D01*
X149764157Y-82538200D01*
X149526331Y-82585507D01*
X149302303Y-82678302D01*
X149100683Y-82813020D01*
X148929220Y-82984483D01*
X148794502Y-83186103D01*
X148701707Y-83410131D01*
X148654400Y-83647957D01*
X148654400Y-83890443D01*
X148701707Y-84128269D01*
X148794502Y-84352297D01*
X148929220Y-84553917D01*
X149100683Y-84725380D01*
X149302303Y-84860098D01*
X149526331Y-84952893D01*
X149764157Y-85000200D01*
X150006643Y-85000200D01*
X150244469Y-84952893D01*
X150468497Y-84860098D01*
X150670117Y-84725380D01*
X150749401Y-84646096D01*
X150749401Y-85432304D01*
X150670117Y-85353020D01*
X150468497Y-85218302D01*
X150244469Y-85125507D01*
X150006643Y-85078200D01*
X149764157Y-85078200D01*
X149526331Y-85125507D01*
X149302303Y-85218302D01*
X149100683Y-85353020D01*
X148929220Y-85524483D01*
X148794502Y-85726103D01*
X148701707Y-85950131D01*
X148654400Y-86187957D01*
X148654400Y-86430443D01*
X148701707Y-86668269D01*
X148794502Y-86892297D01*
X148929220Y-87093917D01*
X149100683Y-87265380D01*
X149302303Y-87400098D01*
X149526331Y-87492893D01*
X149764157Y-87540200D01*
X150006643Y-87540200D01*
X150244469Y-87492893D01*
X150468497Y-87400098D01*
X150670117Y-87265380D01*
X150749401Y-87186096D01*
X150749401Y-87972304D01*
X150670117Y-87893020D01*
X150468497Y-87758302D01*
X150244469Y-87665507D01*
X150006643Y-87618200D01*
X149764157Y-87618200D01*
X149526331Y-87665507D01*
X149302303Y-87758302D01*
X149100683Y-87893020D01*
X148929220Y-88064483D01*
X148794502Y-88266103D01*
X148701707Y-88490131D01*
X148654400Y-88727957D01*
X148654400Y-88970443D01*
X148701707Y-89208269D01*
X148794502Y-89432297D01*
X148929220Y-89633917D01*
X149100683Y-89805380D01*
X149302303Y-89940098D01*
X149526331Y-90032893D01*
X149764157Y-90080200D01*
X150006643Y-90080200D01*
X150244469Y-90032893D01*
X150468497Y-89940098D01*
X150670117Y-89805380D01*
X150749401Y-89726096D01*
X150749401Y-90512304D01*
X150670117Y-90433020D01*
X150468497Y-90298302D01*
X150244469Y-90205507D01*
X150006643Y-90158200D01*
X149764157Y-90158200D01*
X149526331Y-90205507D01*
X149302303Y-90298302D01*
X149100683Y-90433020D01*
X149059900Y-90473803D01*
X149059900Y-90352702D01*
X149032081Y-90212846D01*
X148977512Y-90081105D01*
X148898290Y-89962540D01*
X148797460Y-89861710D01*
X148678895Y-89782488D01*
X148547154Y-89727919D01*
X148407298Y-89700100D01*
X148264702Y-89700100D01*
X148124846Y-89727919D01*
X147993105Y-89782488D01*
X147874540Y-89861710D01*
X147773710Y-89962540D01*
X147694488Y-90081105D01*
X147639919Y-90212846D01*
X147612100Y-90352702D01*
X147612100Y-90495298D01*
X147639919Y-90635154D01*
X147650200Y-90659975D01*
X147650201Y-99537944D01*
X147509938Y-99678207D01*
X147485117Y-99688488D01*
X147366552Y-99767710D01*
X147265722Y-99868540D01*
X147186500Y-99987105D01*
X147131931Y-100118846D01*
X147104112Y-100258702D01*
X147104112Y-100401298D01*
X147131931Y-100541154D01*
X147186500Y-100672895D01*
X147265722Y-100791460D01*
X147366552Y-100892290D01*
X147485117Y-100971512D01*
X147616858Y-101026081D01*
X147756714Y-101053900D01*
X147899310Y-101053900D01*
X148039166Y-101026081D01*
X148170907Y-100971512D01*
X148289472Y-100892290D01*
X148390302Y-100791460D01*
X148469524Y-100672895D01*
X148479805Y-100648074D01*
X148797109Y-100330770D01*
X148823280Y-100309292D01*
X148908981Y-100204865D01*
X148972662Y-100085726D01*
X148978559Y-100066286D01*
X149011877Y-99956453D01*
X149025118Y-99822012D01*
X149021800Y-99788323D01*
X149021800Y-94806497D01*
X149100683Y-94885380D01*
X149302303Y-95020098D01*
X149526331Y-95112893D01*
X149764157Y-95160200D01*
X150006643Y-95160200D01*
X150244469Y-95112893D01*
X150468497Y-95020098D01*
X150670117Y-94885380D01*
X150749401Y-94806096D01*
X150749401Y-106863336D01*
X150697174Y-107395986D01*
X150548250Y-107889248D01*
X150306354Y-108344185D01*
X149980702Y-108743475D01*
X149583699Y-109071904D01*
X149130464Y-109316967D01*
X148638258Y-109469330D01*
X148106700Y-109525200D01*
X131109253Y-109525200D01*
X130625948Y-109477812D01*
X130180147Y-109343216D01*
X129768979Y-109124594D01*
X129408105Y-108830273D01*
X129111273Y-108471465D01*
X128889785Y-108061833D01*
X128752082Y-107616985D01*
X128701400Y-107134780D01*
X128701400Y-106839711D01*
X129079000Y-106839711D01*
X129079000Y-107180689D01*
X129145521Y-107515114D01*
X129276007Y-107830136D01*
X129465444Y-108113648D01*
X129706552Y-108354756D01*
X129990064Y-108544193D01*
X130305086Y-108674679D01*
X130639511Y-108741200D01*
X130980489Y-108741200D01*
X131314914Y-108674679D01*
X131629936Y-108544193D01*
X131913448Y-108354756D01*
X132154556Y-108113648D01*
X132343993Y-107830136D01*
X132474479Y-107515114D01*
X132541000Y-107180689D01*
X132541000Y-106839711D01*
X146884400Y-106839711D01*
X146884400Y-107180689D01*
X146950921Y-107515114D01*
X147081407Y-107830136D01*
X147270844Y-108113648D01*
X147511952Y-108354756D01*
X147795464Y-108544193D01*
X148110486Y-108674679D01*
X148444911Y-108741200D01*
X148785889Y-108741200D01*
X149120314Y-108674679D01*
X149435336Y-108544193D01*
X149718848Y-108354756D01*
X149959956Y-108113648D01*
X150149393Y-107830136D01*
X150279879Y-107515114D01*
X150346400Y-107180689D01*
X150346400Y-106839711D01*
X150279879Y-106505286D01*
X150149393Y-106190264D01*
X149959956Y-105906752D01*
X149718848Y-105665644D01*
X149435336Y-105476207D01*
X149120314Y-105345721D01*
X148785889Y-105279200D01*
X148444911Y-105279200D01*
X148110486Y-105345721D01*
X147795464Y-105476207D01*
X147511952Y-105665644D01*
X147270844Y-105906752D01*
X147081407Y-106190264D01*
X146950921Y-106505286D01*
X146884400Y-106839711D01*
X132541000Y-106839711D01*
X132474479Y-106505286D01*
X132343993Y-106190264D01*
X132154556Y-105906752D01*
X131913448Y-105665644D01*
X131629936Y-105476207D01*
X131314914Y-105345721D01*
X130980489Y-105279200D01*
X130639511Y-105279200D01*
X130305086Y-105345721D01*
X129990064Y-105476207D01*
X129706552Y-105665644D01*
X129465444Y-105906752D01*
X129276007Y-106190264D01*
X129145521Y-106505286D01*
X129079000Y-106839711D01*
X128701400Y-106839711D01*
X128701400Y-104966097D01*
X128780683Y-105045380D01*
X128982303Y-105180098D01*
X129206331Y-105272893D01*
X129444157Y-105320200D01*
X129686643Y-105320200D01*
X129924469Y-105272893D01*
X130148497Y-105180098D01*
X130350117Y-105045380D01*
X130521580Y-104873917D01*
X130656298Y-104672297D01*
X130749093Y-104448269D01*
X130796400Y-104210443D01*
X130796400Y-103967957D01*
X130791348Y-103942557D01*
X133643000Y-103942557D01*
X133643000Y-104185043D01*
X133690307Y-104422869D01*
X133783102Y-104646897D01*
X133917820Y-104848517D01*
X134089283Y-105019980D01*
X134290903Y-105154698D01*
X134514931Y-105247493D01*
X134752757Y-105294800D01*
X134995243Y-105294800D01*
X135233069Y-105247493D01*
X135457097Y-105154698D01*
X135658717Y-105019980D01*
X135830180Y-104848517D01*
X135964898Y-104646897D01*
X136057693Y-104422869D01*
X136105000Y-104185043D01*
X136105000Y-103942557D01*
X136183000Y-103942557D01*
X136183000Y-104185043D01*
X136230307Y-104422869D01*
X136323102Y-104646897D01*
X136457820Y-104848517D01*
X136629283Y-105019980D01*
X136830903Y-105154698D01*
X137054931Y-105247493D01*
X137292757Y-105294800D01*
X137535243Y-105294800D01*
X137773069Y-105247493D01*
X137997097Y-105154698D01*
X138198717Y-105019980D01*
X138370180Y-104848517D01*
X138504898Y-104646897D01*
X138597693Y-104422869D01*
X138645000Y-104185043D01*
X138645000Y-103942557D01*
X138723000Y-103942557D01*
X138723000Y-104185043D01*
X138770307Y-104422869D01*
X138863102Y-104646897D01*
X138997820Y-104848517D01*
X139169283Y-105019980D01*
X139370903Y-105154698D01*
X139594931Y-105247493D01*
X139832757Y-105294800D01*
X140075243Y-105294800D01*
X140313069Y-105247493D01*
X140537097Y-105154698D01*
X140738717Y-105019980D01*
X140910180Y-104848517D01*
X141007073Y-104703506D01*
X141005928Y-104913800D01*
X141018188Y-105038282D01*
X141054498Y-105157980D01*
X141113463Y-105268294D01*
X141192815Y-105364985D01*
X141289506Y-105444337D01*
X141399820Y-105503302D01*
X141519518Y-105539612D01*
X141644000Y-105551872D01*
X142208250Y-105548800D01*
X142367000Y-105390050D01*
X142367000Y-104190800D01*
X142621000Y-104190800D01*
X142621000Y-105390050D01*
X142779750Y-105548800D01*
X143344000Y-105551872D01*
X143468482Y-105539612D01*
X143588180Y-105503302D01*
X143698494Y-105444337D01*
X143795185Y-105364985D01*
X143874537Y-105268294D01*
X143933502Y-105157980D01*
X143969812Y-105038282D01*
X143982072Y-104913800D01*
X143979000Y-104349550D01*
X143820250Y-104190800D01*
X142621000Y-104190800D01*
X142367000Y-104190800D01*
X142347000Y-104190800D01*
X142347000Y-103936800D01*
X142367000Y-103936800D01*
X142367000Y-102737550D01*
X142621000Y-102737550D01*
X142621000Y-103936800D01*
X143820250Y-103936800D01*
X143979000Y-103778050D01*
X143982072Y-103213800D01*
X143969812Y-103089318D01*
X143933502Y-102969620D01*
X143874537Y-102859306D01*
X143795185Y-102762615D01*
X143698494Y-102683263D01*
X143588180Y-102624298D01*
X143468482Y-102587988D01*
X143344000Y-102575728D01*
X142779750Y-102578800D01*
X142621000Y-102737550D01*
X142367000Y-102737550D01*
X142208250Y-102578800D01*
X141644000Y-102575728D01*
X141519518Y-102587988D01*
X141399820Y-102624298D01*
X141289506Y-102683263D01*
X141192815Y-102762615D01*
X141113463Y-102859306D01*
X141054498Y-102969620D01*
X141018188Y-103089318D01*
X141005928Y-103213800D01*
X141007073Y-103424094D01*
X140910180Y-103279083D01*
X140738717Y-103107620D01*
X140537097Y-102972902D01*
X140313069Y-102880107D01*
X140075243Y-102832800D01*
X139832757Y-102832800D01*
X139594931Y-102880107D01*
X139370903Y-102972902D01*
X139169283Y-103107620D01*
X138997820Y-103279083D01*
X138863102Y-103480703D01*
X138770307Y-103704731D01*
X138723000Y-103942557D01*
X138645000Y-103942557D01*
X138597693Y-103704731D01*
X138504898Y-103480703D01*
X138370180Y-103279083D01*
X138198717Y-103107620D01*
X137997097Y-102972902D01*
X137773069Y-102880107D01*
X137535243Y-102832800D01*
X137292757Y-102832800D01*
X137054931Y-102880107D01*
X136830903Y-102972902D01*
X136629283Y-103107620D01*
X136457820Y-103279083D01*
X136323102Y-103480703D01*
X136230307Y-103704731D01*
X136183000Y-103942557D01*
X136105000Y-103942557D01*
X136057693Y-103704731D01*
X135964898Y-103480703D01*
X135830180Y-103279083D01*
X135658717Y-103107620D01*
X135457097Y-102972902D01*
X135233069Y-102880107D01*
X134995243Y-102832800D01*
X134752757Y-102832800D01*
X134514931Y-102880107D01*
X134290903Y-102972902D01*
X134089283Y-103107620D01*
X133917820Y-103279083D01*
X133783102Y-103480703D01*
X133690307Y-103704731D01*
X133643000Y-103942557D01*
X130791348Y-103942557D01*
X130749093Y-103730131D01*
X130656298Y-103506103D01*
X130521580Y-103304483D01*
X130350117Y-103133020D01*
X130148497Y-102998302D01*
X129924469Y-102905507D01*
X129686643Y-102858200D01*
X129444157Y-102858200D01*
X129206331Y-102905507D01*
X128982303Y-102998302D01*
X128780683Y-103133020D01*
X128701400Y-103212303D01*
X128701400Y-102426097D01*
X128780683Y-102505380D01*
X128982303Y-102640098D01*
X129206331Y-102732893D01*
X129444157Y-102780200D01*
X129686643Y-102780200D01*
X129924469Y-102732893D01*
X130148497Y-102640098D01*
X130350117Y-102505380D01*
X130521580Y-102333917D01*
X130656298Y-102132297D01*
X130749093Y-101908269D01*
X130796400Y-101670443D01*
X130796400Y-101427957D01*
X130749093Y-101190131D01*
X130656298Y-100966103D01*
X130521580Y-100764483D01*
X130350117Y-100593020D01*
X130148497Y-100458302D01*
X129924469Y-100365507D01*
X129686643Y-100318200D01*
X129444157Y-100318200D01*
X129206331Y-100365507D01*
X128982303Y-100458302D01*
X128780683Y-100593020D01*
X128701400Y-100672303D01*
X128701400Y-99886097D01*
X128780683Y-99965380D01*
X128982303Y-100100098D01*
X129206331Y-100192893D01*
X129444157Y-100240200D01*
X129686643Y-100240200D01*
X129924469Y-100192893D01*
X130148497Y-100100098D01*
X130350117Y-99965380D01*
X130521580Y-99793917D01*
X130656298Y-99592297D01*
X130749093Y-99368269D01*
X130796400Y-99130443D01*
X130796400Y-98887957D01*
X130749093Y-98650131D01*
X130656298Y-98426103D01*
X130521580Y-98224483D01*
X130350117Y-98053020D01*
X130148497Y-97918302D01*
X129924469Y-97825507D01*
X129686643Y-97778200D01*
X129444157Y-97778200D01*
X129206331Y-97825507D01*
X128982303Y-97918302D01*
X128780683Y-98053020D01*
X128701400Y-98132303D01*
X128701400Y-97346097D01*
X128780683Y-97425380D01*
X128982303Y-97560098D01*
X129206331Y-97652893D01*
X129444157Y-97700200D01*
X129686643Y-97700200D01*
X129924469Y-97652893D01*
X130148497Y-97560098D01*
X130350117Y-97425380D01*
X130521580Y-97253917D01*
X130656298Y-97052297D01*
X130749093Y-96828269D01*
X130796400Y-96590443D01*
X130796400Y-96347957D01*
X130749093Y-96110131D01*
X130656298Y-95886103D01*
X130521580Y-95684483D01*
X130350117Y-95513020D01*
X130148497Y-95378302D01*
X129924469Y-95285507D01*
X129686643Y-95238200D01*
X129444157Y-95238200D01*
X129206331Y-95285507D01*
X128982303Y-95378302D01*
X128780683Y-95513020D01*
X128701400Y-95592303D01*
X128701400Y-94806097D01*
X128780683Y-94885380D01*
X128982303Y-95020098D01*
X129206331Y-95112893D01*
X129444157Y-95160200D01*
X129686643Y-95160200D01*
X129924469Y-95112893D01*
X130148497Y-95020098D01*
X130350117Y-94885380D01*
X130521580Y-94713917D01*
X130656298Y-94512297D01*
X130749093Y-94288269D01*
X130796400Y-94050443D01*
X130796400Y-93807957D01*
X130749093Y-93570131D01*
X130656298Y-93346103D01*
X130521580Y-93144483D01*
X130350117Y-92973020D01*
X130148497Y-92838302D01*
X129924469Y-92745507D01*
X129686643Y-92698200D01*
X129444157Y-92698200D01*
X129206331Y-92745507D01*
X128982303Y-92838302D01*
X128780683Y-92973020D01*
X128701400Y-93052303D01*
X128701400Y-92266097D01*
X128780683Y-92345380D01*
X128982303Y-92480098D01*
X129206331Y-92572893D01*
X129444157Y-92620200D01*
X129686643Y-92620200D01*
X129924469Y-92572893D01*
X130148497Y-92480098D01*
X130350117Y-92345380D01*
X130521580Y-92173917D01*
X130656298Y-91972297D01*
X130749093Y-91748269D01*
X130796400Y-91510443D01*
X130796400Y-91267957D01*
X130749093Y-91030131D01*
X130656298Y-90806103D01*
X130521580Y-90604483D01*
X130350117Y-90433020D01*
X130148497Y-90298302D01*
X129924469Y-90205507D01*
X129686643Y-90158200D01*
X129444157Y-90158200D01*
X129206331Y-90205507D01*
X128982303Y-90298302D01*
X128780683Y-90433020D01*
X128701400Y-90512303D01*
X128701400Y-89726097D01*
X128780683Y-89805380D01*
X128982303Y-89940098D01*
X129206331Y-90032893D01*
X129444157Y-90080200D01*
X129686643Y-90080200D01*
X129924469Y-90032893D01*
X130148497Y-89940098D01*
X130350117Y-89805380D01*
X130521580Y-89633917D01*
X130656298Y-89432297D01*
X130749093Y-89208269D01*
X130779122Y-89057302D01*
X137426700Y-89057302D01*
X137426700Y-89199898D01*
X137454519Y-89339754D01*
X137509088Y-89471495D01*
X137588310Y-89590060D01*
X137689140Y-89690890D01*
X137807705Y-89770112D01*
X137939446Y-89824681D01*
X138079302Y-89852500D01*
X138221898Y-89852500D01*
X138361754Y-89824681D01*
X138493495Y-89770112D01*
X138612060Y-89690890D01*
X138712890Y-89590060D01*
X138792112Y-89471495D01*
X138846681Y-89339754D01*
X138874500Y-89199898D01*
X138874500Y-89057302D01*
X138846681Y-88917446D01*
X138792112Y-88785705D01*
X138712890Y-88667140D01*
X138684000Y-88638250D01*
X138684000Y-80510335D01*
X139222435Y-79971900D01*
X139263292Y-79971900D01*
X139403148Y-79944081D01*
X139534889Y-79889512D01*
X139653454Y-79810290D01*
X139754284Y-79709460D01*
X139833506Y-79590895D01*
X139888075Y-79459154D01*
X139915894Y-79319298D01*
X139915894Y-79176702D01*
X139888075Y-79036846D01*
X139833506Y-78905105D01*
X139754284Y-78786540D01*
X139653454Y-78685710D01*
X139534889Y-78606488D01*
X139403148Y-78551919D01*
X139263292Y-78524100D01*
X139120696Y-78524100D01*
X138980840Y-78551919D01*
X138849099Y-78606488D01*
X138730534Y-78685710D01*
X138629704Y-78786540D01*
X138550482Y-78905105D01*
X138495913Y-79036846D01*
X138468094Y-79176702D01*
X138468094Y-79217559D01*
X137791950Y-79893703D01*
X137771606Y-79910399D01*
X137754910Y-79930743D01*
X137754907Y-79930746D01*
X137732274Y-79958325D01*
X137704950Y-79991619D01*
X137704949Y-79991621D01*
X137655419Y-80084284D01*
X137624919Y-80184830D01*
X137614621Y-80289394D01*
X137617201Y-80315591D01*
X137617200Y-88638250D01*
X137588310Y-88667140D01*
X137509088Y-88785705D01*
X137454519Y-88917446D01*
X137426700Y-89057302D01*
X130779122Y-89057302D01*
X130796400Y-88970443D01*
X130796400Y-88727957D01*
X130749093Y-88490131D01*
X130656298Y-88266103D01*
X130521580Y-88064483D01*
X130350117Y-87893020D01*
X130148497Y-87758302D01*
X129924469Y-87665507D01*
X129686643Y-87618200D01*
X129444157Y-87618200D01*
X129206331Y-87665507D01*
X128982303Y-87758302D01*
X128780683Y-87893020D01*
X128701400Y-87972303D01*
X128701400Y-87186097D01*
X128780683Y-87265380D01*
X128982303Y-87400098D01*
X129206331Y-87492893D01*
X129444157Y-87540200D01*
X129686643Y-87540200D01*
X129924469Y-87492893D01*
X130148497Y-87400098D01*
X130350117Y-87265380D01*
X130521580Y-87093917D01*
X130656298Y-86892297D01*
X130749093Y-86668269D01*
X130796400Y-86430443D01*
X130796400Y-86187957D01*
X130749093Y-85950131D01*
X130656298Y-85726103D01*
X130521580Y-85524483D01*
X130350117Y-85353020D01*
X130148497Y-85218302D01*
X129924469Y-85125507D01*
X129686643Y-85078200D01*
X129444157Y-85078200D01*
X129206331Y-85125507D01*
X128982303Y-85218302D01*
X128780683Y-85353020D01*
X128701400Y-85432303D01*
X128701400Y-84646097D01*
X128780683Y-84725380D01*
X128982303Y-84860098D01*
X129206331Y-84952893D01*
X129444157Y-85000200D01*
X129686643Y-85000200D01*
X129924469Y-84952893D01*
X130148497Y-84860098D01*
X130350117Y-84725380D01*
X130521580Y-84553917D01*
X130656298Y-84352297D01*
X130749093Y-84128269D01*
X130796400Y-83890443D01*
X130796400Y-83647957D01*
X130749093Y-83410131D01*
X130656298Y-83186103D01*
X130521580Y-82984483D01*
X130350117Y-82813020D01*
X130148497Y-82678302D01*
X129924469Y-82585507D01*
X129686643Y-82538200D01*
X129444157Y-82538200D01*
X129206331Y-82585507D01*
X128982303Y-82678302D01*
X128780683Y-82813020D01*
X128701400Y-82892303D01*
X128701400Y-82106097D01*
X128780683Y-82185380D01*
X128982303Y-82320098D01*
X129206331Y-82412893D01*
X129444157Y-82460200D01*
X129686643Y-82460200D01*
X129924469Y-82412893D01*
X130148497Y-82320098D01*
X130350117Y-82185380D01*
X130521580Y-82013917D01*
X130656298Y-81812297D01*
X130749093Y-81588269D01*
X130796400Y-81350443D01*
X130796400Y-81107957D01*
X130749093Y-80870131D01*
X130656298Y-80646103D01*
X130521580Y-80444483D01*
X130350117Y-80273020D01*
X130148497Y-80138302D01*
X129924469Y-80045507D01*
X129686643Y-79998200D01*
X129444157Y-79998200D01*
X129206331Y-80045507D01*
X128982303Y-80138302D01*
X128780683Y-80273020D01*
X128701400Y-80352303D01*
X128701400Y-79566097D01*
X128780683Y-79645380D01*
X128982303Y-79780098D01*
X129206331Y-79872893D01*
X129444157Y-79920200D01*
X129686643Y-79920200D01*
X129924469Y-79872893D01*
X130148497Y-79780098D01*
X130350117Y-79645380D01*
X130521580Y-79473917D01*
X130656298Y-79272297D01*
X130749093Y-79048269D01*
X130796400Y-78810443D01*
X130796400Y-78567957D01*
X130749093Y-78330131D01*
X130656298Y-78106103D01*
X130521580Y-77904483D01*
X130350117Y-77733020D01*
X130148497Y-77598302D01*
X129924469Y-77505507D01*
X129686643Y-77458200D01*
X129444157Y-77458200D01*
X129206331Y-77505507D01*
X128982303Y-77598302D01*
X128780683Y-77733020D01*
X128701400Y-77812303D01*
X128701400Y-77026097D01*
X128780683Y-77105380D01*
X128982303Y-77240098D01*
X129206331Y-77332893D01*
X129444157Y-77380200D01*
X129686643Y-77380200D01*
X129924469Y-77332893D01*
X130148497Y-77240098D01*
X130350117Y-77105380D01*
X130521580Y-76933917D01*
X130656298Y-76732297D01*
X130749093Y-76508269D01*
X130796400Y-76270443D01*
X130796400Y-76027957D01*
X130749093Y-75790131D01*
X130656298Y-75566103D01*
X130521580Y-75364483D01*
X130350117Y-75193020D01*
X130148497Y-75058302D01*
X130034232Y-75010972D01*
X130196652Y-74953357D01*
X130446755Y-74804378D01*
X130662988Y-74609469D01*
X130837041Y-74376120D01*
X130962225Y-74113299D01*
X131006876Y-73966090D01*
X130885555Y-73736200D01*
X129692400Y-73736200D01*
X129692400Y-73756200D01*
X129438400Y-73756200D01*
X129438400Y-73736200D01*
X129418400Y-73736200D01*
X129418400Y-73482200D01*
X129438400Y-73482200D01*
X129438400Y-73462200D01*
X129692400Y-73462200D01*
X129692400Y-73482200D01*
X130885555Y-73482200D01*
X131006876Y-73252310D01*
X130962225Y-73105101D01*
X130837041Y-72842280D01*
X130662988Y-72608931D01*
X130446755Y-72414022D01*
X130196652Y-72265043D01*
X130034232Y-72207428D01*
X130148497Y-72160098D01*
X130350117Y-72025380D01*
X130521580Y-71853917D01*
X130656298Y-71652297D01*
X130749093Y-71428269D01*
X130796400Y-71190443D01*
X130796400Y-70947957D01*
X130749093Y-70710131D01*
X130656298Y-70486103D01*
X130521580Y-70284483D01*
X130350117Y-70113020D01*
X130148497Y-69978302D01*
X129924469Y-69885507D01*
X129686643Y-69838200D01*
X129444157Y-69838200D01*
X129206331Y-69885507D01*
X128982303Y-69978302D01*
X128780683Y-70113020D01*
X128701400Y-70192303D01*
X128701400Y-69406097D01*
X128780683Y-69485380D01*
X128982303Y-69620098D01*
X129206331Y-69712893D01*
X129444157Y-69760200D01*
X129686643Y-69760200D01*
X129924469Y-69712893D01*
X130148497Y-69620098D01*
X130350117Y-69485380D01*
X130521580Y-69313917D01*
X130656298Y-69112297D01*
X130749093Y-68888269D01*
X130796400Y-68650443D01*
X130796400Y-68407957D01*
X130749093Y-68170131D01*
X130656298Y-67946103D01*
X130521580Y-67744483D01*
X130350117Y-67573020D01*
X130148497Y-67438302D01*
X129924469Y-67345507D01*
X129686643Y-67298200D01*
X129444157Y-67298200D01*
X129206331Y-67345507D01*
X128982303Y-67438302D01*
X128780683Y-67573020D01*
X128701400Y-67652303D01*
X128701400Y-67220664D01*
X128715400Y-67222043D01*
X130415400Y-67222043D01*
X130490089Y-67214687D01*
X130561908Y-67192901D01*
X130628096Y-67157522D01*
X130686111Y-67109911D01*
X130733722Y-67051896D01*
X130769101Y-66985708D01*
X130790887Y-66913889D01*
X130798243Y-66839200D01*
X130798243Y-65992224D01*
X136006881Y-65992224D01*
X136138817Y-66287312D01*
X136479545Y-66458159D01*
X136847057Y-66559250D01*
X137227229Y-66586701D01*
X137605451Y-66539457D01*
X137967190Y-66419333D01*
X138214183Y-66287312D01*
X138346119Y-65992224D01*
X137176500Y-64822605D01*
X136006881Y-65992224D01*
X130798243Y-65992224D01*
X130798243Y-65139200D01*
X130790887Y-65064511D01*
X130769101Y-64992692D01*
X130733722Y-64926504D01*
X130686111Y-64868489D01*
X130638941Y-64829778D01*
X130813328Y-64846768D01*
X131427831Y-64785590D01*
X131729508Y-64693729D01*
X135232799Y-64693729D01*
X135280043Y-65071951D01*
X135400167Y-65433690D01*
X135532188Y-65680683D01*
X135827276Y-65812619D01*
X136996895Y-64643000D01*
X137356105Y-64643000D01*
X138525724Y-65812619D01*
X138820812Y-65680683D01*
X138991659Y-65339955D01*
X139092750Y-64972443D01*
X139120201Y-64592271D01*
X139072957Y-64214049D01*
X138952833Y-63852310D01*
X138820812Y-63605317D01*
X138525724Y-63473381D01*
X137356105Y-64643000D01*
X136996895Y-64643000D01*
X135827276Y-63473381D01*
X135532188Y-63605317D01*
X135361341Y-63946045D01*
X135260250Y-64313557D01*
X135232799Y-64693729D01*
X131729508Y-64693729D01*
X132018592Y-64605703D01*
X132557373Y-64317718D01*
X132833543Y-63899748D01*
X130810000Y-61876205D01*
X130795858Y-61890348D01*
X130616253Y-61710743D01*
X130630395Y-61696600D01*
X130616253Y-61682458D01*
X130795858Y-61502853D01*
X130810000Y-61516995D01*
X130824143Y-61502853D01*
X131003748Y-61682458D01*
X130989605Y-61696600D01*
X133013148Y-63720143D01*
X133431118Y-63443973D01*
X133511195Y-63293776D01*
X136006881Y-63293776D01*
X137176500Y-64463395D01*
X138296895Y-63343000D01*
X140493657Y-63343000D01*
X140493657Y-65943000D01*
X140501013Y-66017689D01*
X140522799Y-66089508D01*
X140558178Y-66155696D01*
X140605789Y-66213711D01*
X140663804Y-66261322D01*
X140729992Y-66296701D01*
X140801811Y-66318487D01*
X140876500Y-66325843D01*
X143476500Y-66325843D01*
X143551189Y-66318487D01*
X143623008Y-66296701D01*
X143689196Y-66261322D01*
X143747211Y-66213711D01*
X143794822Y-66155696D01*
X143830201Y-66089508D01*
X143851987Y-66017689D01*
X143859343Y-65943000D01*
X143859343Y-63343000D01*
X143851987Y-63268311D01*
X143830201Y-63196492D01*
X143794822Y-63130304D01*
X143747211Y-63072289D01*
X143689196Y-63024678D01*
X143623008Y-62989299D01*
X143551189Y-62967513D01*
X143476500Y-62960157D01*
X140876500Y-62960157D01*
X140801811Y-62967513D01*
X140729992Y-62989299D01*
X140663804Y-63024678D01*
X140605789Y-63072289D01*
X140558178Y-63130304D01*
X140522799Y-63196492D01*
X140501013Y-63268311D01*
X140493657Y-63343000D01*
X138296895Y-63343000D01*
X138346119Y-63293776D01*
X138214183Y-62998688D01*
X137873455Y-62827841D01*
X137505943Y-62726750D01*
X137125771Y-62699299D01*
X136747549Y-62746543D01*
X136385810Y-62866667D01*
X136138817Y-62998688D01*
X136006881Y-63293776D01*
X133511195Y-63293776D01*
X133721649Y-62899043D01*
X133900287Y-62307904D01*
X133960168Y-61693272D01*
X133898990Y-61078769D01*
X133719103Y-60488008D01*
X133431118Y-59949227D01*
X133013150Y-59673058D01*
X133126875Y-59559333D01*
X133104742Y-59537200D01*
X146301792Y-59537200D01*
X146412250Y-59647658D01*
G37*
X146412250Y-59647658D02*
X145994282Y-59923827D01*
X145703751Y-60468757D01*
X145525113Y-61059896D01*
X145465232Y-61674528D01*
X145526410Y-62289031D01*
X145706297Y-62879792D01*
X145994282Y-63418573D01*
X146412252Y-63694743D01*
X148435795Y-61671200D01*
X148421653Y-61657058D01*
X148601258Y-61477453D01*
X148615400Y-61491595D01*
X150024590Y-60082405D01*
X150117717Y-60158357D01*
X150203796Y-60262409D01*
X148795005Y-61671200D01*
X148809148Y-61685343D01*
X148629543Y-61864948D01*
X148615400Y-61850805D01*
X146591857Y-63874348D01*
X146868027Y-64292318D01*
X147412957Y-64582849D01*
X148004096Y-64761487D01*
X148618728Y-64821368D01*
X148868264Y-64796525D01*
X148822704Y-64820878D01*
X148764689Y-64868489D01*
X148717078Y-64926504D01*
X148681699Y-64992692D01*
X148659913Y-65064511D01*
X148652557Y-65139200D01*
X148652557Y-66839200D01*
X148659913Y-66913889D01*
X148681699Y-66985708D01*
X148717078Y-67051896D01*
X148764689Y-67109911D01*
X148822704Y-67157522D01*
X148888892Y-67192901D01*
X148960711Y-67214687D01*
X149035400Y-67222043D01*
X150735400Y-67222043D01*
X150749400Y-67220664D01*
X150749400Y-67652303D01*
X150670117Y-67573020D01*
X150468497Y-67438302D01*
X150244469Y-67345507D01*
X150006643Y-67298200D01*
X149764157Y-67298200D01*
X149526331Y-67345507D01*
X149302303Y-67438302D01*
X149100683Y-67573020D01*
X148929220Y-67744483D01*
X148794502Y-67946103D01*
X148701707Y-68170131D01*
X148654400Y-68407957D01*
X148654400Y-68650443D01*
X148701707Y-68888269D01*
X148794502Y-69112297D01*
X148929220Y-69313917D01*
X149100683Y-69485380D01*
X149302303Y-69620098D01*
X149526331Y-69712893D01*
X149764157Y-69760200D01*
X150006643Y-69760200D01*
X150244469Y-69712893D01*
X150468497Y-69620098D01*
X150670117Y-69485380D01*
X150749400Y-69406097D01*
X150749400Y-70192303D01*
X150670117Y-70113020D01*
X150468497Y-69978302D01*
X150244469Y-69885507D01*
X150006643Y-69838200D01*
X149764157Y-69838200D01*
X149526331Y-69885507D01*
X149302303Y-69978302D01*
X149100683Y-70113020D01*
X148929220Y-70284483D01*
X148794502Y-70486103D01*
X148701707Y-70710131D01*
X148654400Y-70947957D01*
X148654400Y-71190443D01*
X148701707Y-71428269D01*
X148794502Y-71652297D01*
X148929220Y-71853917D01*
X149100683Y-72025380D01*
X149302303Y-72160098D01*
X149526331Y-72252893D01*
X149764157Y-72300200D01*
X150006643Y-72300200D01*
X150244469Y-72252893D01*
X150468497Y-72160098D01*
X150670117Y-72025380D01*
X150749400Y-71946097D01*
X150749400Y-72732303D01*
X150670117Y-72653020D01*
X150468497Y-72518302D01*
X150244469Y-72425507D01*
X150006643Y-72378200D01*
X149764157Y-72378200D01*
X149526331Y-72425507D01*
X149302303Y-72518302D01*
X149100683Y-72653020D01*
X148929220Y-72824483D01*
X148794502Y-73026103D01*
X148701707Y-73250131D01*
X148654400Y-73487957D01*
X148654400Y-73730443D01*
X148701707Y-73968269D01*
X148794502Y-74192297D01*
X148929220Y-74393917D01*
X149100683Y-74565380D01*
X149302303Y-74700098D01*
X149526331Y-74792893D01*
X149764157Y-74840200D01*
X150006643Y-74840200D01*
X150244469Y-74792893D01*
X150468497Y-74700098D01*
X150670117Y-74565380D01*
X150749400Y-74486097D01*
X150749400Y-75272303D01*
X150670117Y-75193020D01*
X150468497Y-75058302D01*
X150244469Y-74965507D01*
X150006643Y-74918200D01*
X149764157Y-74918200D01*
X149526331Y-74965507D01*
X149302303Y-75058302D01*
X149100683Y-75193020D01*
X148929220Y-75364483D01*
X148794502Y-75566103D01*
X148701707Y-75790131D01*
X148654400Y-76027957D01*
X148654400Y-76270443D01*
X148701707Y-76508269D01*
X148794502Y-76732297D01*
X148929220Y-76933917D01*
X149100683Y-77105380D01*
X149302303Y-77240098D01*
X149526331Y-77332893D01*
X149764157Y-77380200D01*
X150006643Y-77380200D01*
X150244469Y-77332893D01*
X150468497Y-77240098D01*
X150670117Y-77105380D01*
X150749400Y-77026097D01*
X150749400Y-77812303D01*
X150670117Y-77733020D01*
X150468497Y-77598302D01*
X150244469Y-77505507D01*
X150006643Y-77458200D01*
X149764157Y-77458200D01*
X149526331Y-77505507D01*
X149302303Y-77598302D01*
X149100683Y-77733020D01*
X148929220Y-77904483D01*
X148794502Y-78106103D01*
X148701707Y-78330131D01*
X148654400Y-78567957D01*
X148654400Y-78810443D01*
X148701707Y-79048269D01*
X148794502Y-79272297D01*
X148929220Y-79473917D01*
X149100683Y-79645380D01*
X149302303Y-79780098D01*
X149526331Y-79872893D01*
X149764157Y-79920200D01*
X150006643Y-79920200D01*
X150244469Y-79872893D01*
X150468497Y-79780098D01*
X150670117Y-79645380D01*
X150749400Y-79566097D01*
X150749400Y-80352303D01*
X150670117Y-80273020D01*
X150468497Y-80138302D01*
X150244469Y-80045507D01*
X150006643Y-79998200D01*
X149764157Y-79998200D01*
X149526331Y-80045507D01*
X149302303Y-80138302D01*
X149100683Y-80273020D01*
X148929220Y-80444483D01*
X148794502Y-80646103D01*
X148701707Y-80870131D01*
X148654400Y-81107957D01*
X148654400Y-81350443D01*
X148701707Y-81588269D01*
X148794502Y-81812297D01*
X148929220Y-82013917D01*
X149100683Y-82185380D01*
X149302303Y-82320098D01*
X149526331Y-82412893D01*
X149764157Y-82460200D01*
X150006643Y-82460200D01*
X150244469Y-82412893D01*
X150468497Y-82320098D01*
X150670117Y-82185380D01*
X150749400Y-82106097D01*
X150749400Y-82892303D01*
X150670117Y-82813020D01*
X150468497Y-82678302D01*
X150244469Y-82585507D01*
X150006643Y-82538200D01*
X149764157Y-82538200D01*
X149526331Y-82585507D01*
X149302303Y-82678302D01*
X149100683Y-82813020D01*
X148929220Y-82984483D01*
X148794502Y-83186103D01*
X148701707Y-83410131D01*
X148654400Y-83647957D01*
X148654400Y-83890443D01*
X148701707Y-84128269D01*
X148794502Y-84352297D01*
X148929220Y-84553917D01*
X149100683Y-84725380D01*
X149302303Y-84860098D01*
X149526331Y-84952893D01*
X149764157Y-85000200D01*
X150006643Y-85000200D01*
X150244469Y-84952893D01*
X150468497Y-84860098D01*
X150670117Y-84725380D01*
X150749401Y-84646096D01*
X150749401Y-85432304D01*
X150670117Y-85353020D01*
X150468497Y-85218302D01*
X150244469Y-85125507D01*
X150006643Y-85078200D01*
X149764157Y-85078200D01*
X149526331Y-85125507D01*
X149302303Y-85218302D01*
X149100683Y-85353020D01*
X148929220Y-85524483D01*
X148794502Y-85726103D01*
X148701707Y-85950131D01*
X148654400Y-86187957D01*
X148654400Y-86430443D01*
X148701707Y-86668269D01*
X148794502Y-86892297D01*
X148929220Y-87093917D01*
X149100683Y-87265380D01*
X149302303Y-87400098D01*
X149526331Y-87492893D01*
X149764157Y-87540200D01*
X150006643Y-87540200D01*
X150244469Y-87492893D01*
X150468497Y-87400098D01*
X150670117Y-87265380D01*
X150749401Y-87186096D01*
X150749401Y-87972304D01*
X150670117Y-87893020D01*
X150468497Y-87758302D01*
X150244469Y-87665507D01*
X150006643Y-87618200D01*
X149764157Y-87618200D01*
X149526331Y-87665507D01*
X149302303Y-87758302D01*
X149100683Y-87893020D01*
X148929220Y-88064483D01*
X148794502Y-88266103D01*
X148701707Y-88490131D01*
X148654400Y-88727957D01*
X148654400Y-88970443D01*
X148701707Y-89208269D01*
X148794502Y-89432297D01*
X148929220Y-89633917D01*
X149100683Y-89805380D01*
X149302303Y-89940098D01*
X149526331Y-90032893D01*
X149764157Y-90080200D01*
X150006643Y-90080200D01*
X150244469Y-90032893D01*
X150468497Y-89940098D01*
X150670117Y-89805380D01*
X150749401Y-89726096D01*
X150749401Y-90512304D01*
X150670117Y-90433020D01*
X150468497Y-90298302D01*
X150244469Y-90205507D01*
X150006643Y-90158200D01*
X149764157Y-90158200D01*
X149526331Y-90205507D01*
X149302303Y-90298302D01*
X149100683Y-90433020D01*
X149059900Y-90473803D01*
X149059900Y-90352702D01*
X149032081Y-90212846D01*
X148977512Y-90081105D01*
X148898290Y-89962540D01*
X148797460Y-89861710D01*
X148678895Y-89782488D01*
X148547154Y-89727919D01*
X148407298Y-89700100D01*
X148264702Y-89700100D01*
X148124846Y-89727919D01*
X147993105Y-89782488D01*
X147874540Y-89861710D01*
X147773710Y-89962540D01*
X147694488Y-90081105D01*
X147639919Y-90212846D01*
X147612100Y-90352702D01*
X147612100Y-90495298D01*
X147639919Y-90635154D01*
X147650200Y-90659975D01*
X147650201Y-99537944D01*
X147509938Y-99678207D01*
X147485117Y-99688488D01*
X147366552Y-99767710D01*
X147265722Y-99868540D01*
X147186500Y-99987105D01*
X147131931Y-100118846D01*
X147104112Y-100258702D01*
X147104112Y-100401298D01*
X147131931Y-100541154D01*
X147186500Y-100672895D01*
X147265722Y-100791460D01*
X147366552Y-100892290D01*
X147485117Y-100971512D01*
X147616858Y-101026081D01*
X147756714Y-101053900D01*
X147899310Y-101053900D01*
X148039166Y-101026081D01*
X148170907Y-100971512D01*
X148289472Y-100892290D01*
X148390302Y-100791460D01*
X148469524Y-100672895D01*
X148479805Y-100648074D01*
X148797109Y-100330770D01*
X148823280Y-100309292D01*
X148908981Y-100204865D01*
X148972662Y-100085726D01*
X148978559Y-100066286D01*
X149011877Y-99956453D01*
X149025118Y-99822012D01*
X149021800Y-99788323D01*
X149021800Y-94806497D01*
X149100683Y-94885380D01*
X149302303Y-95020098D01*
X149526331Y-95112893D01*
X149764157Y-95160200D01*
X150006643Y-95160200D01*
X150244469Y-95112893D01*
X150468497Y-95020098D01*
X150670117Y-94885380D01*
X150749401Y-94806096D01*
X150749401Y-106863336D01*
X150697174Y-107395986D01*
X150548250Y-107889248D01*
X150306354Y-108344185D01*
X149980702Y-108743475D01*
X149583699Y-109071904D01*
X149130464Y-109316967D01*
X148638258Y-109469330D01*
X148106700Y-109525200D01*
X131109253Y-109525200D01*
X130625948Y-109477812D01*
X130180147Y-109343216D01*
X129768979Y-109124594D01*
X129408105Y-108830273D01*
X129111273Y-108471465D01*
X128889785Y-108061833D01*
X128752082Y-107616985D01*
X128701400Y-107134780D01*
X128701400Y-106839711D01*
X129079000Y-106839711D01*
X129079000Y-107180689D01*
X129145521Y-107515114D01*
X129276007Y-107830136D01*
X129465444Y-108113648D01*
X129706552Y-108354756D01*
X129990064Y-108544193D01*
X130305086Y-108674679D01*
X130639511Y-108741200D01*
X130980489Y-108741200D01*
X131314914Y-108674679D01*
X131629936Y-108544193D01*
X131913448Y-108354756D01*
X132154556Y-108113648D01*
X132343993Y-107830136D01*
X132474479Y-107515114D01*
X132541000Y-107180689D01*
X132541000Y-106839711D01*
X146884400Y-106839711D01*
X146884400Y-107180689D01*
X146950921Y-107515114D01*
X147081407Y-107830136D01*
X147270844Y-108113648D01*
X147511952Y-108354756D01*
X147795464Y-108544193D01*
X148110486Y-108674679D01*
X148444911Y-108741200D01*
X148785889Y-108741200D01*
X149120314Y-108674679D01*
X149435336Y-108544193D01*
X149718848Y-108354756D01*
X149959956Y-108113648D01*
X150149393Y-107830136D01*
X150279879Y-107515114D01*
X150346400Y-107180689D01*
X150346400Y-106839711D01*
X150279879Y-106505286D01*
X150149393Y-106190264D01*
X149959956Y-105906752D01*
X149718848Y-105665644D01*
X149435336Y-105476207D01*
X149120314Y-105345721D01*
X148785889Y-105279200D01*
X148444911Y-105279200D01*
X148110486Y-105345721D01*
X147795464Y-105476207D01*
X147511952Y-105665644D01*
X147270844Y-105906752D01*
X147081407Y-106190264D01*
X146950921Y-106505286D01*
X146884400Y-106839711D01*
X132541000Y-106839711D01*
X132474479Y-106505286D01*
X132343993Y-106190264D01*
X132154556Y-105906752D01*
X131913448Y-105665644D01*
X131629936Y-105476207D01*
X131314914Y-105345721D01*
X130980489Y-105279200D01*
X130639511Y-105279200D01*
X130305086Y-105345721D01*
X129990064Y-105476207D01*
X129706552Y-105665644D01*
X129465444Y-105906752D01*
X129276007Y-106190264D01*
X129145521Y-106505286D01*
X129079000Y-106839711D01*
X128701400Y-106839711D01*
X128701400Y-104966097D01*
X128780683Y-105045380D01*
X128982303Y-105180098D01*
X129206331Y-105272893D01*
X129444157Y-105320200D01*
X129686643Y-105320200D01*
X129924469Y-105272893D01*
X130148497Y-105180098D01*
X130350117Y-105045380D01*
X130521580Y-104873917D01*
X130656298Y-104672297D01*
X130749093Y-104448269D01*
X130796400Y-104210443D01*
X130796400Y-103967957D01*
X130791348Y-103942557D01*
X133643000Y-103942557D01*
X133643000Y-104185043D01*
X133690307Y-104422869D01*
X133783102Y-104646897D01*
X133917820Y-104848517D01*
X134089283Y-105019980D01*
X134290903Y-105154698D01*
X134514931Y-105247493D01*
X134752757Y-105294800D01*
X134995243Y-105294800D01*
X135233069Y-105247493D01*
X135457097Y-105154698D01*
X135658717Y-105019980D01*
X135830180Y-104848517D01*
X135964898Y-104646897D01*
X136057693Y-104422869D01*
X136105000Y-104185043D01*
X136105000Y-103942557D01*
X136183000Y-103942557D01*
X136183000Y-104185043D01*
X136230307Y-104422869D01*
X136323102Y-104646897D01*
X136457820Y-104848517D01*
X136629283Y-105019980D01*
X136830903Y-105154698D01*
X137054931Y-105247493D01*
X137292757Y-105294800D01*
X137535243Y-105294800D01*
X137773069Y-105247493D01*
X137997097Y-105154698D01*
X138198717Y-105019980D01*
X138370180Y-104848517D01*
X138504898Y-104646897D01*
X138597693Y-104422869D01*
X138645000Y-104185043D01*
X138645000Y-103942557D01*
X138723000Y-103942557D01*
X138723000Y-104185043D01*
X138770307Y-104422869D01*
X138863102Y-104646897D01*
X138997820Y-104848517D01*
X139169283Y-105019980D01*
X139370903Y-105154698D01*
X139594931Y-105247493D01*
X139832757Y-105294800D01*
X140075243Y-105294800D01*
X140313069Y-105247493D01*
X140537097Y-105154698D01*
X140738717Y-105019980D01*
X140910180Y-104848517D01*
X141007073Y-104703506D01*
X141005928Y-104913800D01*
X141018188Y-105038282D01*
X141054498Y-105157980D01*
X141113463Y-105268294D01*
X141192815Y-105364985D01*
X141289506Y-105444337D01*
X141399820Y-105503302D01*
X141519518Y-105539612D01*
X141644000Y-105551872D01*
X142208250Y-105548800D01*
X142367000Y-105390050D01*
X142367000Y-104190800D01*
X142621000Y-104190800D01*
X142621000Y-105390050D01*
X142779750Y-105548800D01*
X143344000Y-105551872D01*
X143468482Y-105539612D01*
X143588180Y-105503302D01*
X143698494Y-105444337D01*
X143795185Y-105364985D01*
X143874537Y-105268294D01*
X143933502Y-105157980D01*
X143969812Y-105038282D01*
X143982072Y-104913800D01*
X143979000Y-104349550D01*
X143820250Y-104190800D01*
X142621000Y-104190800D01*
X142367000Y-104190800D01*
X142347000Y-104190800D01*
X142347000Y-103936800D01*
X142367000Y-103936800D01*
X142367000Y-102737550D01*
X142621000Y-102737550D01*
X142621000Y-103936800D01*
X143820250Y-103936800D01*
X143979000Y-103778050D01*
X143982072Y-103213800D01*
X143969812Y-103089318D01*
X143933502Y-102969620D01*
X143874537Y-102859306D01*
X143795185Y-102762615D01*
X143698494Y-102683263D01*
X143588180Y-102624298D01*
X143468482Y-102587988D01*
X143344000Y-102575728D01*
X142779750Y-102578800D01*
X142621000Y-102737550D01*
X142367000Y-102737550D01*
X142208250Y-102578800D01*
X141644000Y-102575728D01*
X141519518Y-102587988D01*
X141399820Y-102624298D01*
X141289506Y-102683263D01*
X141192815Y-102762615D01*
X141113463Y-102859306D01*
X141054498Y-102969620D01*
X141018188Y-103089318D01*
X141005928Y-103213800D01*
X141007073Y-103424094D01*
X140910180Y-103279083D01*
X140738717Y-103107620D01*
X140537097Y-102972902D01*
X140313069Y-102880107D01*
X140075243Y-102832800D01*
X139832757Y-102832800D01*
X139594931Y-102880107D01*
X139370903Y-102972902D01*
X139169283Y-103107620D01*
X138997820Y-103279083D01*
X138863102Y-103480703D01*
X138770307Y-103704731D01*
X138723000Y-103942557D01*
X138645000Y-103942557D01*
X138597693Y-103704731D01*
X138504898Y-103480703D01*
X138370180Y-103279083D01*
X138198717Y-103107620D01*
X137997097Y-102972902D01*
X137773069Y-102880107D01*
X137535243Y-102832800D01*
X137292757Y-102832800D01*
X137054931Y-102880107D01*
X136830903Y-102972902D01*
X136629283Y-103107620D01*
X136457820Y-103279083D01*
X136323102Y-103480703D01*
X136230307Y-103704731D01*
X136183000Y-103942557D01*
X136105000Y-103942557D01*
X136057693Y-103704731D01*
X135964898Y-103480703D01*
X135830180Y-103279083D01*
X135658717Y-103107620D01*
X135457097Y-102972902D01*
X135233069Y-102880107D01*
X134995243Y-102832800D01*
X134752757Y-102832800D01*
X134514931Y-102880107D01*
X134290903Y-102972902D01*
X134089283Y-103107620D01*
X133917820Y-103279083D01*
X133783102Y-103480703D01*
X133690307Y-103704731D01*
X133643000Y-103942557D01*
X130791348Y-103942557D01*
X130749093Y-103730131D01*
X130656298Y-103506103D01*
X130521580Y-103304483D01*
X130350117Y-103133020D01*
X130148497Y-102998302D01*
X129924469Y-102905507D01*
X129686643Y-102858200D01*
X129444157Y-102858200D01*
X129206331Y-102905507D01*
X128982303Y-102998302D01*
X128780683Y-103133020D01*
X128701400Y-103212303D01*
X128701400Y-102426097D01*
X128780683Y-102505380D01*
X128982303Y-102640098D01*
X129206331Y-102732893D01*
X129444157Y-102780200D01*
X129686643Y-102780200D01*
X129924469Y-102732893D01*
X130148497Y-102640098D01*
X130350117Y-102505380D01*
X130521580Y-102333917D01*
X130656298Y-102132297D01*
X130749093Y-101908269D01*
X130796400Y-101670443D01*
X130796400Y-101427957D01*
X130749093Y-101190131D01*
X130656298Y-100966103D01*
X130521580Y-100764483D01*
X130350117Y-100593020D01*
X130148497Y-100458302D01*
X129924469Y-100365507D01*
X129686643Y-100318200D01*
X129444157Y-100318200D01*
X129206331Y-100365507D01*
X128982303Y-100458302D01*
X128780683Y-100593020D01*
X128701400Y-100672303D01*
X128701400Y-99886097D01*
X128780683Y-99965380D01*
X128982303Y-100100098D01*
X129206331Y-100192893D01*
X129444157Y-100240200D01*
X129686643Y-100240200D01*
X129924469Y-100192893D01*
X130148497Y-100100098D01*
X130350117Y-99965380D01*
X130521580Y-99793917D01*
X130656298Y-99592297D01*
X130749093Y-99368269D01*
X130796400Y-99130443D01*
X130796400Y-98887957D01*
X130749093Y-98650131D01*
X130656298Y-98426103D01*
X130521580Y-98224483D01*
X130350117Y-98053020D01*
X130148497Y-97918302D01*
X129924469Y-97825507D01*
X129686643Y-97778200D01*
X129444157Y-97778200D01*
X129206331Y-97825507D01*
X128982303Y-97918302D01*
X128780683Y-98053020D01*
X128701400Y-98132303D01*
X128701400Y-97346097D01*
X128780683Y-97425380D01*
X128982303Y-97560098D01*
X129206331Y-97652893D01*
X129444157Y-97700200D01*
X129686643Y-97700200D01*
X129924469Y-97652893D01*
X130148497Y-97560098D01*
X130350117Y-97425380D01*
X130521580Y-97253917D01*
X130656298Y-97052297D01*
X130749093Y-96828269D01*
X130796400Y-96590443D01*
X130796400Y-96347957D01*
X130749093Y-96110131D01*
X130656298Y-95886103D01*
X130521580Y-95684483D01*
X130350117Y-95513020D01*
X130148497Y-95378302D01*
X129924469Y-95285507D01*
X129686643Y-95238200D01*
X129444157Y-95238200D01*
X129206331Y-95285507D01*
X128982303Y-95378302D01*
X128780683Y-95513020D01*
X128701400Y-95592303D01*
X128701400Y-94806097D01*
X128780683Y-94885380D01*
X128982303Y-95020098D01*
X129206331Y-95112893D01*
X129444157Y-95160200D01*
X129686643Y-95160200D01*
X129924469Y-95112893D01*
X130148497Y-95020098D01*
X130350117Y-94885380D01*
X130521580Y-94713917D01*
X130656298Y-94512297D01*
X130749093Y-94288269D01*
X130796400Y-94050443D01*
X130796400Y-93807957D01*
X130749093Y-93570131D01*
X130656298Y-93346103D01*
X130521580Y-93144483D01*
X130350117Y-92973020D01*
X130148497Y-92838302D01*
X129924469Y-92745507D01*
X129686643Y-92698200D01*
X129444157Y-92698200D01*
X129206331Y-92745507D01*
X128982303Y-92838302D01*
X128780683Y-92973020D01*
X128701400Y-93052303D01*
X128701400Y-92266097D01*
X128780683Y-92345380D01*
X128982303Y-92480098D01*
X129206331Y-92572893D01*
X129444157Y-92620200D01*
X129686643Y-92620200D01*
X129924469Y-92572893D01*
X130148497Y-92480098D01*
X130350117Y-92345380D01*
X130521580Y-92173917D01*
X130656298Y-91972297D01*
X130749093Y-91748269D01*
X130796400Y-91510443D01*
X130796400Y-91267957D01*
X130749093Y-91030131D01*
X130656298Y-90806103D01*
X130521580Y-90604483D01*
X130350117Y-90433020D01*
X130148497Y-90298302D01*
X129924469Y-90205507D01*
X129686643Y-90158200D01*
X129444157Y-90158200D01*
X129206331Y-90205507D01*
X128982303Y-90298302D01*
X128780683Y-90433020D01*
X128701400Y-90512303D01*
X128701400Y-89726097D01*
X128780683Y-89805380D01*
X128982303Y-89940098D01*
X129206331Y-90032893D01*
X129444157Y-90080200D01*
X129686643Y-90080200D01*
X129924469Y-90032893D01*
X130148497Y-89940098D01*
X130350117Y-89805380D01*
X130521580Y-89633917D01*
X130656298Y-89432297D01*
X130749093Y-89208269D01*
X130779122Y-89057302D01*
X137426700Y-89057302D01*
X137426700Y-89199898D01*
X137454519Y-89339754D01*
X137509088Y-89471495D01*
X137588310Y-89590060D01*
X137689140Y-89690890D01*
X137807705Y-89770112D01*
X137939446Y-89824681D01*
X138079302Y-89852500D01*
X138221898Y-89852500D01*
X138361754Y-89824681D01*
X138493495Y-89770112D01*
X138612060Y-89690890D01*
X138712890Y-89590060D01*
X138792112Y-89471495D01*
X138846681Y-89339754D01*
X138874500Y-89199898D01*
X138874500Y-89057302D01*
X138846681Y-88917446D01*
X138792112Y-88785705D01*
X138712890Y-88667140D01*
X138684000Y-88638250D01*
X138684000Y-80510335D01*
X139222435Y-79971900D01*
X139263292Y-79971900D01*
X139403148Y-79944081D01*
X139534889Y-79889512D01*
X139653454Y-79810290D01*
X139754284Y-79709460D01*
X139833506Y-79590895D01*
X139888075Y-79459154D01*
X139915894Y-79319298D01*
X139915894Y-79176702D01*
X139888075Y-79036846D01*
X139833506Y-78905105D01*
X139754284Y-78786540D01*
X139653454Y-78685710D01*
X139534889Y-78606488D01*
X139403148Y-78551919D01*
X139263292Y-78524100D01*
X139120696Y-78524100D01*
X138980840Y-78551919D01*
X138849099Y-78606488D01*
X138730534Y-78685710D01*
X138629704Y-78786540D01*
X138550482Y-78905105D01*
X138495913Y-79036846D01*
X138468094Y-79176702D01*
X138468094Y-79217559D01*
X137791950Y-79893703D01*
X137771606Y-79910399D01*
X137754910Y-79930743D01*
X137754907Y-79930746D01*
X137732274Y-79958325D01*
X137704950Y-79991619D01*
X137704949Y-79991621D01*
X137655419Y-80084284D01*
X137624919Y-80184830D01*
X137614621Y-80289394D01*
X137617201Y-80315591D01*
X137617200Y-88638250D01*
X137588310Y-88667140D01*
X137509088Y-88785705D01*
X137454519Y-88917446D01*
X137426700Y-89057302D01*
X130779122Y-89057302D01*
X130796400Y-88970443D01*
X130796400Y-88727957D01*
X130749093Y-88490131D01*
X130656298Y-88266103D01*
X130521580Y-88064483D01*
X130350117Y-87893020D01*
X130148497Y-87758302D01*
X129924469Y-87665507D01*
X129686643Y-87618200D01*
X129444157Y-87618200D01*
X129206331Y-87665507D01*
X128982303Y-87758302D01*
X128780683Y-87893020D01*
X128701400Y-87972303D01*
X128701400Y-87186097D01*
X128780683Y-87265380D01*
X128982303Y-87400098D01*
X129206331Y-87492893D01*
X129444157Y-87540200D01*
X129686643Y-87540200D01*
X129924469Y-87492893D01*
X130148497Y-87400098D01*
X130350117Y-87265380D01*
X130521580Y-87093917D01*
X130656298Y-86892297D01*
X130749093Y-86668269D01*
X130796400Y-86430443D01*
X130796400Y-86187957D01*
X130749093Y-85950131D01*
X130656298Y-85726103D01*
X130521580Y-85524483D01*
X130350117Y-85353020D01*
X130148497Y-85218302D01*
X129924469Y-85125507D01*
X129686643Y-85078200D01*
X129444157Y-85078200D01*
X129206331Y-85125507D01*
X128982303Y-85218302D01*
X128780683Y-85353020D01*
X128701400Y-85432303D01*
X128701400Y-84646097D01*
X128780683Y-84725380D01*
X128982303Y-84860098D01*
X129206331Y-84952893D01*
X129444157Y-85000200D01*
X129686643Y-85000200D01*
X129924469Y-84952893D01*
X130148497Y-84860098D01*
X130350117Y-84725380D01*
X130521580Y-84553917D01*
X130656298Y-84352297D01*
X130749093Y-84128269D01*
X130796400Y-83890443D01*
X130796400Y-83647957D01*
X130749093Y-83410131D01*
X130656298Y-83186103D01*
X130521580Y-82984483D01*
X130350117Y-82813020D01*
X130148497Y-82678302D01*
X129924469Y-82585507D01*
X129686643Y-82538200D01*
X129444157Y-82538200D01*
X129206331Y-82585507D01*
X128982303Y-82678302D01*
X128780683Y-82813020D01*
X128701400Y-82892303D01*
X128701400Y-82106097D01*
X128780683Y-82185380D01*
X128982303Y-82320098D01*
X129206331Y-82412893D01*
X129444157Y-82460200D01*
X129686643Y-82460200D01*
X129924469Y-82412893D01*
X130148497Y-82320098D01*
X130350117Y-82185380D01*
X130521580Y-82013917D01*
X130656298Y-81812297D01*
X130749093Y-81588269D01*
X130796400Y-81350443D01*
X130796400Y-81107957D01*
X130749093Y-80870131D01*
X130656298Y-80646103D01*
X130521580Y-80444483D01*
X130350117Y-80273020D01*
X130148497Y-80138302D01*
X129924469Y-80045507D01*
X129686643Y-79998200D01*
X129444157Y-79998200D01*
X129206331Y-80045507D01*
X128982303Y-80138302D01*
X128780683Y-80273020D01*
X128701400Y-80352303D01*
X128701400Y-79566097D01*
X128780683Y-79645380D01*
X128982303Y-79780098D01*
X129206331Y-79872893D01*
X129444157Y-79920200D01*
X129686643Y-79920200D01*
X129924469Y-79872893D01*
X130148497Y-79780098D01*
X130350117Y-79645380D01*
X130521580Y-79473917D01*
X130656298Y-79272297D01*
X130749093Y-79048269D01*
X130796400Y-78810443D01*
X130796400Y-78567957D01*
X130749093Y-78330131D01*
X130656298Y-78106103D01*
X130521580Y-77904483D01*
X130350117Y-77733020D01*
X130148497Y-77598302D01*
X129924469Y-77505507D01*
X129686643Y-77458200D01*
X129444157Y-77458200D01*
X129206331Y-77505507D01*
X128982303Y-77598302D01*
X128780683Y-77733020D01*
X128701400Y-77812303D01*
X128701400Y-77026097D01*
X128780683Y-77105380D01*
X128982303Y-77240098D01*
X129206331Y-77332893D01*
X129444157Y-77380200D01*
X129686643Y-77380200D01*
X129924469Y-77332893D01*
X130148497Y-77240098D01*
X130350117Y-77105380D01*
X130521580Y-76933917D01*
X130656298Y-76732297D01*
X130749093Y-76508269D01*
X130796400Y-76270443D01*
X130796400Y-76027957D01*
X130749093Y-75790131D01*
X130656298Y-75566103D01*
X130521580Y-75364483D01*
X130350117Y-75193020D01*
X130148497Y-75058302D01*
X130034232Y-75010972D01*
X130196652Y-74953357D01*
X130446755Y-74804378D01*
X130662988Y-74609469D01*
X130837041Y-74376120D01*
X130962225Y-74113299D01*
X131006876Y-73966090D01*
X130885555Y-73736200D01*
X129692400Y-73736200D01*
X129692400Y-73756200D01*
X129438400Y-73756200D01*
X129438400Y-73736200D01*
X129418400Y-73736200D01*
X129418400Y-73482200D01*
X129438400Y-73482200D01*
X129438400Y-73462200D01*
X129692400Y-73462200D01*
X129692400Y-73482200D01*
X130885555Y-73482200D01*
X131006876Y-73252310D01*
X130962225Y-73105101D01*
X130837041Y-72842280D01*
X130662988Y-72608931D01*
X130446755Y-72414022D01*
X130196652Y-72265043D01*
X130034232Y-72207428D01*
X130148497Y-72160098D01*
X130350117Y-72025380D01*
X130521580Y-71853917D01*
X130656298Y-71652297D01*
X130749093Y-71428269D01*
X130796400Y-71190443D01*
X130796400Y-70947957D01*
X130749093Y-70710131D01*
X130656298Y-70486103D01*
X130521580Y-70284483D01*
X130350117Y-70113020D01*
X130148497Y-69978302D01*
X129924469Y-69885507D01*
X129686643Y-69838200D01*
X129444157Y-69838200D01*
X129206331Y-69885507D01*
X128982303Y-69978302D01*
X128780683Y-70113020D01*
X128701400Y-70192303D01*
X128701400Y-69406097D01*
X128780683Y-69485380D01*
X128982303Y-69620098D01*
X129206331Y-69712893D01*
X129444157Y-69760200D01*
X129686643Y-69760200D01*
X129924469Y-69712893D01*
X130148497Y-69620098D01*
X130350117Y-69485380D01*
X130521580Y-69313917D01*
X130656298Y-69112297D01*
X130749093Y-68888269D01*
X130796400Y-68650443D01*
X130796400Y-68407957D01*
X130749093Y-68170131D01*
X130656298Y-67946103D01*
X130521580Y-67744483D01*
X130350117Y-67573020D01*
X130148497Y-67438302D01*
X129924469Y-67345507D01*
X129686643Y-67298200D01*
X129444157Y-67298200D01*
X129206331Y-67345507D01*
X128982303Y-67438302D01*
X128780683Y-67573020D01*
X128701400Y-67652303D01*
X128701400Y-67220664D01*
X128715400Y-67222043D01*
X130415400Y-67222043D01*
X130490089Y-67214687D01*
X130561908Y-67192901D01*
X130628096Y-67157522D01*
X130686111Y-67109911D01*
X130733722Y-67051896D01*
X130769101Y-66985708D01*
X130790887Y-66913889D01*
X130798243Y-66839200D01*
X130798243Y-65992224D01*
X136006881Y-65992224D01*
X136138817Y-66287312D01*
X136479545Y-66458159D01*
X136847057Y-66559250D01*
X137227229Y-66586701D01*
X137605451Y-66539457D01*
X137967190Y-66419333D01*
X138214183Y-66287312D01*
X138346119Y-65992224D01*
X137176500Y-64822605D01*
X136006881Y-65992224D01*
X130798243Y-65992224D01*
X130798243Y-65139200D01*
X130790887Y-65064511D01*
X130769101Y-64992692D01*
X130733722Y-64926504D01*
X130686111Y-64868489D01*
X130638941Y-64829778D01*
X130813328Y-64846768D01*
X131427831Y-64785590D01*
X131729508Y-64693729D01*
X135232799Y-64693729D01*
X135280043Y-65071951D01*
X135400167Y-65433690D01*
X135532188Y-65680683D01*
X135827276Y-65812619D01*
X136996895Y-64643000D01*
X137356105Y-64643000D01*
X138525724Y-65812619D01*
X138820812Y-65680683D01*
X138991659Y-65339955D01*
X139092750Y-64972443D01*
X139120201Y-64592271D01*
X139072957Y-64214049D01*
X138952833Y-63852310D01*
X138820812Y-63605317D01*
X138525724Y-63473381D01*
X137356105Y-64643000D01*
X136996895Y-64643000D01*
X135827276Y-63473381D01*
X135532188Y-63605317D01*
X135361341Y-63946045D01*
X135260250Y-64313557D01*
X135232799Y-64693729D01*
X131729508Y-64693729D01*
X132018592Y-64605703D01*
X132557373Y-64317718D01*
X132833543Y-63899748D01*
X130810000Y-61876205D01*
X130795858Y-61890348D01*
X130616253Y-61710743D01*
X130630395Y-61696600D01*
X130616253Y-61682458D01*
X130795858Y-61502853D01*
X130810000Y-61516995D01*
X130824143Y-61502853D01*
X131003748Y-61682458D01*
X130989605Y-61696600D01*
X133013148Y-63720143D01*
X133431118Y-63443973D01*
X133511195Y-63293776D01*
X136006881Y-63293776D01*
X137176500Y-64463395D01*
X138296895Y-63343000D01*
X140493657Y-63343000D01*
X140493657Y-65943000D01*
X140501013Y-66017689D01*
X140522799Y-66089508D01*
X140558178Y-66155696D01*
X140605789Y-66213711D01*
X140663804Y-66261322D01*
X140729992Y-66296701D01*
X140801811Y-66318487D01*
X140876500Y-66325843D01*
X143476500Y-66325843D01*
X143551189Y-66318487D01*
X143623008Y-66296701D01*
X143689196Y-66261322D01*
X143747211Y-66213711D01*
X143794822Y-66155696D01*
X143830201Y-66089508D01*
X143851987Y-66017689D01*
X143859343Y-65943000D01*
X143859343Y-63343000D01*
X143851987Y-63268311D01*
X143830201Y-63196492D01*
X143794822Y-63130304D01*
X143747211Y-63072289D01*
X143689196Y-63024678D01*
X143623008Y-62989299D01*
X143551189Y-62967513D01*
X143476500Y-62960157D01*
X140876500Y-62960157D01*
X140801811Y-62967513D01*
X140729992Y-62989299D01*
X140663804Y-63024678D01*
X140605789Y-63072289D01*
X140558178Y-63130304D01*
X140522799Y-63196492D01*
X140501013Y-63268311D01*
X140493657Y-63343000D01*
X138296895Y-63343000D01*
X138346119Y-63293776D01*
X138214183Y-62998688D01*
X137873455Y-62827841D01*
X137505943Y-62726750D01*
X137125771Y-62699299D01*
X136747549Y-62746543D01*
X136385810Y-62866667D01*
X136138817Y-62998688D01*
X136006881Y-63293776D01*
X133511195Y-63293776D01*
X133721649Y-62899043D01*
X133900287Y-62307904D01*
X133960168Y-61693272D01*
X133898990Y-61078769D01*
X133719103Y-60488008D01*
X133431118Y-59949227D01*
X133013150Y-59673058D01*
X133126875Y-59559333D01*
X133104742Y-59537200D01*
X146301792Y-59537200D01*
X146412250Y-59647658D01*
%TD*%
M02*
