M48
; DRILL file {KiCad 5.1.6-c6e7f7d~87~ubuntu18.04.1} date Wed Sep 16 17:40:27 2020
; FORMAT={-:-/ absolute / inch / decimal}
; #@! TF.CreationDate,2020-09-16T17:40:27-07:00
; #@! TF.GenerationSoftware,Kicad,Pcbnew,5.1.6-c6e7f7d~87~ubuntu18.04.1
FMAT,2
INCH
T1C0.0130
T2C0.0315
T3C0.0394
T4C0.0512
T5C0.0984
T6C0.1063
%
G90
G05
T1
X5.189Y-3.341
X5.218Y-3.341
X5.23Y-4.292
X5.2595Y-2.723
X5.261Y-3.15
X5.2792Y-4.292
X5.3Y-2.362
X5.324Y-3.394
X5.3284Y-4.292
X5.3513Y-2.362
X5.357Y-3.394
X5.3775Y-4.292
X5.4025Y-2.362
X5.4267Y-4.292
X5.4538Y-2.362
X5.4759Y-4.292
X5.505Y-2.362
X5.511Y-3.088
X5.5158Y-2.815
X5.5158Y-2.953
X5.525Y-3.535
X5.5251Y-4.292
X5.528Y-3.276
X5.5562Y-2.362
X5.5595Y-3.276
X5.5595Y-3.309
X5.57Y-2.752
X5.5743Y-4.292
X5.591Y-2.815
X5.591Y-2.868
X5.591Y-2.903
X5.591Y-2.953
X5.596Y-3.003
X5.596Y-3.038
X5.6075Y-2.362
X5.6235Y-4.292
X5.6587Y-2.362
X5.6684Y-2.752
X5.6726Y-4.292
X5.68Y-4.01
X5.69Y-3.405
X5.7Y-3.74
X5.71Y-2.362
X5.7218Y-4.292
X5.7475Y-3.4895
X5.771Y-4.2915
X5.775Y-3.788
X5.7825Y-3.4895
X5.82Y-3.95
T2
X5.21Y-3.599
X5.21Y-3.7
X5.21Y-3.8
X5.21Y-3.9
X5.31Y-3.6
X5.31Y-3.7
X5.31Y-3.8
X5.31Y-3.9
X5.41Y-3.6
X5.41Y-3.7
X5.41Y-3.8
X5.41Y-3.9
X5.51Y-3.6
X5.51Y-3.7
X5.51Y-3.8
X5.51Y-3.9
X5.61Y-3.6
X5.61Y-3.7
X5.61Y-3.8
X5.61Y-3.9
T3
X5.31Y-4.097
X5.41Y-4.097
X5.51Y-4.097
X5.61Y-4.097
X5.901Y-2.598
X5.901Y-2.698
X5.901Y-2.798
X5.901Y-2.898
X5.901Y-2.998
X5.901Y-3.098
X5.901Y-3.198
X5.901Y-3.298
X5.901Y-3.398
X5.901Y-3.498
X5.901Y-3.598
X5.901Y-3.698
X5.101Y-2.598
X5.101Y-2.698
X5.101Y-2.798
X5.101Y-2.898
X5.101Y-2.998
X5.101Y-3.098
X5.101Y-3.198
X5.101Y-3.298
X5.101Y-3.398
X5.101Y-3.498
X5.101Y-3.598
X5.101Y-3.698
X5.101Y-3.798
X5.101Y-3.898
X5.101Y-3.998
X5.101Y-4.098
T4
X5.4006Y-2.5735
X5.5975Y-2.5735
T5
X5.851Y-2.428
X5.15Y-2.429
T6
X5.851Y-4.213
X5.15Y-4.213
T0
M30
