%TF.GenerationSoftware,KiCad,Pcbnew,5.1.6-c6e7f7d~87~ubuntu18.04.1*%
%TF.CreationDate,2020-09-16T17:40:28-07:00*%
%TF.ProjectId,feather-power-supply-sw-smd,66656174-6865-4722-9d70-6f7765722d73,rev?*%
%TF.SameCoordinates,Original*%
%TF.FileFunction,Legend,Top*%
%TF.FilePolarity,Positive*%
%FSLAX46Y46*%
G04 Gerber Fmt 4.6, Leading zero omitted, Abs format (unit mm)*
G04 Created by KiCad (PCBNEW 5.1.6-c6e7f7d~87~ubuntu18.04.1) date 2020-09-16 17:40:28*
%MOMM*%
%LPD*%
G01*
G04 APERTURE LIST*
%ADD10C,0.127000*%
%ADD11C,0.125000*%
%ADD12C,0.150000*%
%ADD13C,0.120000*%
%ADD14C,0.300000*%
%ADD15C,0.100000*%
G04 APERTURE END LIST*
D10*
X142005352Y-101854000D02*
X141956971Y-101829809D01*
X141884400Y-101829809D01*
X141811828Y-101854000D01*
X141763447Y-101902380D01*
X141739257Y-101950761D01*
X141715066Y-102047523D01*
X141715066Y-102120095D01*
X141739257Y-102216857D01*
X141763447Y-102265238D01*
X141811828Y-102313619D01*
X141884400Y-102337809D01*
X141932780Y-102337809D01*
X142005352Y-102313619D01*
X142029542Y-102289428D01*
X142029542Y-102120095D01*
X141932780Y-102120095D01*
X142247257Y-102337809D02*
X142247257Y-101829809D01*
X142537542Y-102337809D01*
X142537542Y-101829809D01*
X142779447Y-102337809D02*
X142779447Y-101829809D01*
X142900400Y-101829809D01*
X142972971Y-101854000D01*
X143021352Y-101902380D01*
X143045542Y-101950761D01*
X143069733Y-102047523D01*
X143069733Y-102120095D01*
X143045542Y-102216857D01*
X143021352Y-102265238D01*
X142972971Y-102313619D01*
X142900400Y-102337809D01*
X142779447Y-102337809D01*
X138921066Y-101829809D02*
X139090400Y-102337809D01*
X139259733Y-101829809D01*
X139429066Y-101829809D02*
X139429066Y-102241047D01*
X139453257Y-102289428D01*
X139477447Y-102313619D01*
X139525828Y-102337809D01*
X139622590Y-102337809D01*
X139670971Y-102313619D01*
X139695161Y-102289428D01*
X139719352Y-102241047D01*
X139719352Y-101829809D01*
X139937066Y-102313619D02*
X140009638Y-102337809D01*
X140130590Y-102337809D01*
X140178971Y-102313619D01*
X140203161Y-102289428D01*
X140227352Y-102241047D01*
X140227352Y-102192666D01*
X140203161Y-102144285D01*
X140178971Y-102120095D01*
X140130590Y-102095904D01*
X140033828Y-102071714D01*
X139985447Y-102047523D01*
X139961257Y-102023333D01*
X139937066Y-101974952D01*
X139937066Y-101926571D01*
X139961257Y-101878190D01*
X139985447Y-101854000D01*
X140033828Y-101829809D01*
X140154780Y-101829809D01*
X140227352Y-101854000D01*
X140614400Y-102071714D02*
X140686971Y-102095904D01*
X140711161Y-102120095D01*
X140735352Y-102168476D01*
X140735352Y-102241047D01*
X140711161Y-102289428D01*
X140686971Y-102313619D01*
X140638590Y-102337809D01*
X140445066Y-102337809D01*
X140445066Y-101829809D01*
X140614400Y-101829809D01*
X140662780Y-101854000D01*
X140686971Y-101878190D01*
X140711161Y-101926571D01*
X140711161Y-101974952D01*
X140686971Y-102023333D01*
X140662780Y-102047523D01*
X140614400Y-102071714D01*
X140445066Y-102071714D01*
X136707638Y-102313619D02*
X136780209Y-102337809D01*
X136901161Y-102337809D01*
X136949542Y-102313619D01*
X136973733Y-102289428D01*
X136997923Y-102241047D01*
X136997923Y-102192666D01*
X136973733Y-102144285D01*
X136949542Y-102120095D01*
X136901161Y-102095904D01*
X136804400Y-102071714D01*
X136756019Y-102047523D01*
X136731828Y-102023333D01*
X136707638Y-101974952D01*
X136707638Y-101926571D01*
X136731828Y-101878190D01*
X136756019Y-101854000D01*
X136804400Y-101829809D01*
X136925352Y-101829809D01*
X136997923Y-101854000D01*
X137505923Y-102289428D02*
X137481733Y-102313619D01*
X137409161Y-102337809D01*
X137360780Y-102337809D01*
X137288209Y-102313619D01*
X137239828Y-102265238D01*
X137215638Y-102216857D01*
X137191447Y-102120095D01*
X137191447Y-102047523D01*
X137215638Y-101950761D01*
X137239828Y-101902380D01*
X137288209Y-101854000D01*
X137360780Y-101829809D01*
X137409161Y-101829809D01*
X137481733Y-101854000D01*
X137505923Y-101878190D01*
X137965542Y-102337809D02*
X137723638Y-102337809D01*
X137723638Y-101829809D01*
X134155542Y-102313619D02*
X134228114Y-102337809D01*
X134349066Y-102337809D01*
X134397447Y-102313619D01*
X134421638Y-102289428D01*
X134445828Y-102241047D01*
X134445828Y-102192666D01*
X134421638Y-102144285D01*
X134397447Y-102120095D01*
X134349066Y-102095904D01*
X134252304Y-102071714D01*
X134203923Y-102047523D01*
X134179733Y-102023333D01*
X134155542Y-101974952D01*
X134155542Y-101926571D01*
X134179733Y-101878190D01*
X134203923Y-101854000D01*
X134252304Y-101829809D01*
X134373257Y-101829809D01*
X134445828Y-101854000D01*
X134663542Y-102337809D02*
X134663542Y-101829809D01*
X134784495Y-101829809D01*
X134857066Y-101854000D01*
X134905447Y-101902380D01*
X134929638Y-101950761D01*
X134953828Y-102047523D01*
X134953828Y-102120095D01*
X134929638Y-102216857D01*
X134905447Y-102265238D01*
X134857066Y-102313619D01*
X134784495Y-102337809D01*
X134663542Y-102337809D01*
X135147352Y-102192666D02*
X135389257Y-102192666D01*
X135098971Y-102337809D02*
X135268304Y-101829809D01*
X135437638Y-102337809D01*
D11*
X144448571Y-101280142D02*
X144484285Y-101173000D01*
X144484285Y-100994428D01*
X144448571Y-100923000D01*
X144412857Y-100887285D01*
X144341428Y-100851571D01*
X144270000Y-100851571D01*
X144198571Y-100887285D01*
X144162857Y-100923000D01*
X144127142Y-100994428D01*
X144091428Y-101137285D01*
X144055714Y-101208714D01*
X144020000Y-101244428D01*
X143948571Y-101280142D01*
X143877142Y-101280142D01*
X143805714Y-101244428D01*
X143770000Y-101208714D01*
X143734285Y-101137285D01*
X143734285Y-100958714D01*
X143770000Y-100851571D01*
X143734285Y-100637285D02*
X143734285Y-100208714D01*
X144484285Y-100423000D02*
X143734285Y-100423000D01*
X144091428Y-99958714D02*
X144091428Y-99708714D01*
X144484285Y-99601571D02*
X144484285Y-99958714D01*
X143734285Y-99958714D01*
X143734285Y-99601571D01*
X144484285Y-99280142D02*
X143734285Y-99280142D01*
X144270000Y-99030142D01*
X143734285Y-98780142D01*
X144484285Y-98780142D01*
X144484285Y-98423000D02*
X143734285Y-98423000D01*
X144270000Y-98173000D01*
X143734285Y-97923000D01*
X144484285Y-97923000D01*
X144270000Y-97601571D02*
X144270000Y-97244428D01*
X144484285Y-97673000D02*
X143734285Y-97423000D01*
X144484285Y-97173000D01*
X144555714Y-95851571D02*
X144520000Y-95923000D01*
X144448571Y-95994428D01*
X144341428Y-96101571D01*
X144305714Y-96173000D01*
X144305714Y-96244428D01*
X144484285Y-96208714D02*
X144448571Y-96280142D01*
X144377142Y-96351571D01*
X144234285Y-96387285D01*
X143984285Y-96387285D01*
X143841428Y-96351571D01*
X143770000Y-96280142D01*
X143734285Y-96208714D01*
X143734285Y-96065857D01*
X143770000Y-95994428D01*
X143841428Y-95923000D01*
X143984285Y-95887285D01*
X144234285Y-95887285D01*
X144377142Y-95923000D01*
X144448571Y-95994428D01*
X144484285Y-96065857D01*
X144484285Y-96208714D01*
X143734285Y-95673000D02*
X143734285Y-95244428D01*
X144484285Y-95458714D02*
X143734285Y-95458714D01*
D12*
X135720628Y-106139171D02*
X135387295Y-106139171D01*
X135387295Y-106662980D02*
X135387295Y-105662980D01*
X135863485Y-105662980D01*
X136625390Y-106615361D02*
X136530152Y-106662980D01*
X136339676Y-106662980D01*
X136244438Y-106615361D01*
X136196819Y-106520123D01*
X136196819Y-106139171D01*
X136244438Y-106043933D01*
X136339676Y-105996314D01*
X136530152Y-105996314D01*
X136625390Y-106043933D01*
X136673009Y-106139171D01*
X136673009Y-106234409D01*
X136196819Y-106329647D01*
X137530152Y-106662980D02*
X137530152Y-106139171D01*
X137482533Y-106043933D01*
X137387295Y-105996314D01*
X137196819Y-105996314D01*
X137101580Y-106043933D01*
X137530152Y-106615361D02*
X137434914Y-106662980D01*
X137196819Y-106662980D01*
X137101580Y-106615361D01*
X137053961Y-106520123D01*
X137053961Y-106424885D01*
X137101580Y-106329647D01*
X137196819Y-106282028D01*
X137434914Y-106282028D01*
X137530152Y-106234409D01*
X137863485Y-105996314D02*
X138244438Y-105996314D01*
X138006342Y-105662980D02*
X138006342Y-106520123D01*
X138053961Y-106615361D01*
X138149200Y-106662980D01*
X138244438Y-106662980D01*
X138577771Y-106662980D02*
X138577771Y-105662980D01*
X139006342Y-106662980D02*
X139006342Y-106139171D01*
X138958723Y-106043933D01*
X138863485Y-105996314D01*
X138720628Y-105996314D01*
X138625390Y-106043933D01*
X138577771Y-106091552D01*
X139863485Y-106615361D02*
X139768247Y-106662980D01*
X139577771Y-106662980D01*
X139482533Y-106615361D01*
X139434914Y-106520123D01*
X139434914Y-106139171D01*
X139482533Y-106043933D01*
X139577771Y-105996314D01*
X139768247Y-105996314D01*
X139863485Y-106043933D01*
X139911104Y-106139171D01*
X139911104Y-106234409D01*
X139434914Y-106329647D01*
X140339676Y-106662980D02*
X140339676Y-105996314D01*
X140339676Y-106186790D02*
X140387295Y-106091552D01*
X140434914Y-106043933D01*
X140530152Y-105996314D01*
X140625390Y-105996314D01*
X140863485Y-105662980D02*
X141101580Y-106662980D01*
X141292057Y-105948695D01*
X141482533Y-106662980D01*
X141720628Y-105662980D01*
X142101580Y-106662980D02*
X142101580Y-105996314D01*
X142101580Y-105662980D02*
X142053961Y-105710600D01*
X142101580Y-105758219D01*
X142149200Y-105710600D01*
X142101580Y-105662980D01*
X142101580Y-105758219D01*
X142577771Y-105996314D02*
X142577771Y-106662980D01*
X142577771Y-106091552D02*
X142625390Y-106043933D01*
X142720628Y-105996314D01*
X142863485Y-105996314D01*
X142958723Y-106043933D01*
X143006342Y-106139171D01*
X143006342Y-106662980D01*
X143911104Y-105996314D02*
X143911104Y-106805838D01*
X143863485Y-106901076D01*
X143815866Y-106948695D01*
X143720628Y-106996314D01*
X143577771Y-106996314D01*
X143482533Y-106948695D01*
X143911104Y-106615361D02*
X143815866Y-106662980D01*
X143625390Y-106662980D01*
X143530152Y-106615361D01*
X143482533Y-106567742D01*
X143434914Y-106472504D01*
X143434914Y-106186790D01*
X143482533Y-106091552D01*
X143530152Y-106043933D01*
X143625390Y-105996314D01*
X143815866Y-105996314D01*
X143911104Y-106043933D01*
X134744438Y-108265361D02*
X134887295Y-108312980D01*
X135125390Y-108312980D01*
X135220628Y-108265361D01*
X135268247Y-108217742D01*
X135315866Y-108122504D01*
X135315866Y-108027266D01*
X135268247Y-107932028D01*
X135220628Y-107884409D01*
X135125390Y-107836790D01*
X134934914Y-107789171D01*
X134839676Y-107741552D01*
X134792057Y-107693933D01*
X134744438Y-107598695D01*
X134744438Y-107503457D01*
X134792057Y-107408219D01*
X134839676Y-107360600D01*
X134934914Y-107312980D01*
X135173009Y-107312980D01*
X135315866Y-107360600D01*
X135649200Y-107646314D02*
X135839676Y-108312980D01*
X136030152Y-107836790D01*
X136220628Y-108312980D01*
X136411104Y-107646314D01*
X136792057Y-108312980D02*
X136792057Y-107646314D01*
X136792057Y-107312980D02*
X136744438Y-107360600D01*
X136792057Y-107408219D01*
X136839676Y-107360600D01*
X136792057Y-107312980D01*
X136792057Y-107408219D01*
X137125390Y-107646314D02*
X137506342Y-107646314D01*
X137268247Y-107312980D02*
X137268247Y-108170123D01*
X137315866Y-108265361D01*
X137411104Y-108312980D01*
X137506342Y-108312980D01*
X138268247Y-108265361D02*
X138173009Y-108312980D01*
X137982533Y-108312980D01*
X137887295Y-108265361D01*
X137839676Y-108217742D01*
X137792057Y-108122504D01*
X137792057Y-107836790D01*
X137839676Y-107741552D01*
X137887295Y-107693933D01*
X137982533Y-107646314D01*
X138173009Y-107646314D01*
X138268247Y-107693933D01*
X138696819Y-108312980D02*
X138696819Y-107312980D01*
X139125390Y-108312980D02*
X139125390Y-107789171D01*
X139077771Y-107693933D01*
X138982533Y-107646314D01*
X138839676Y-107646314D01*
X138744438Y-107693933D01*
X138696819Y-107741552D01*
X139982533Y-108265361D02*
X139887295Y-108312980D01*
X139696819Y-108312980D01*
X139601580Y-108265361D01*
X139553961Y-108170123D01*
X139553961Y-107789171D01*
X139601580Y-107693933D01*
X139696819Y-107646314D01*
X139887295Y-107646314D01*
X139982533Y-107693933D01*
X140030152Y-107789171D01*
X140030152Y-107884409D01*
X139553961Y-107979647D01*
X140458723Y-108312980D02*
X140458723Y-107646314D01*
X140458723Y-107836790D02*
X140506342Y-107741552D01*
X140553961Y-107693933D01*
X140649200Y-107646314D01*
X140744438Y-107646314D01*
X141744438Y-107646314D02*
X141982533Y-108312980D01*
X142220628Y-107646314D01*
X143125390Y-108312980D02*
X142553961Y-108312980D01*
X142839676Y-108312980D02*
X142839676Y-107312980D01*
X142744438Y-107455838D01*
X142649200Y-107551076D01*
X142553961Y-107598695D01*
X143553961Y-108217742D02*
X143601580Y-108265361D01*
X143553961Y-108312980D01*
X143506342Y-108265361D01*
X143553961Y-108217742D01*
X143553961Y-108312980D01*
X144220628Y-107312980D02*
X144315866Y-107312980D01*
X144411104Y-107360600D01*
X144458723Y-107408219D01*
X144506342Y-107503457D01*
X144553961Y-107693933D01*
X144553961Y-107932028D01*
X144506342Y-108122504D01*
X144458723Y-108217742D01*
X144411104Y-108265361D01*
X144315866Y-108312980D01*
X144220628Y-108312980D01*
X144125390Y-108265361D01*
X144077771Y-108217742D01*
X144030152Y-108122504D01*
X143982533Y-107932028D01*
X143982533Y-107693933D01*
X144030152Y-107503457D01*
X144077771Y-107408219D01*
X144125390Y-107360600D01*
X144220628Y-107312980D01*
D13*
X137693400Y-80746600D02*
G75*
G03*
X137693400Y-80746600I-254000J0D01*
G01*
D14*
X132117400Y-67538457D02*
X132045971Y-67681314D01*
X132045971Y-67895600D01*
X132117400Y-68109885D01*
X132260257Y-68252742D01*
X132403114Y-68324171D01*
X132688828Y-68395600D01*
X132903114Y-68395600D01*
X133188828Y-68324171D01*
X133331685Y-68252742D01*
X133474542Y-68109885D01*
X133545971Y-67895600D01*
X133545971Y-67752742D01*
X133474542Y-67538457D01*
X133403114Y-67467028D01*
X132903114Y-67467028D01*
X132903114Y-67752742D01*
X133545971Y-66824171D02*
X132045971Y-66824171D01*
X133545971Y-65967028D01*
X132045971Y-65967028D01*
X133545971Y-65252742D02*
X132045971Y-65252742D01*
X132045971Y-64895600D01*
X132117400Y-64681314D01*
X132260257Y-64538457D01*
X132403114Y-64467028D01*
X132688828Y-64395600D01*
X132903114Y-64395600D01*
X133188828Y-64467028D01*
X133331685Y-64538457D01*
X133474542Y-64681314D01*
X133545971Y-64895600D01*
X133545971Y-65252742D01*
X146969942Y-69978257D02*
X146969942Y-68835400D01*
X147541371Y-69406828D02*
X146398514Y-69406828D01*
X147541371Y-67335400D02*
X147541371Y-68192542D01*
X147541371Y-67763971D02*
X146041371Y-67763971D01*
X146255657Y-67906828D01*
X146398514Y-68049685D01*
X146469942Y-68192542D01*
X146184228Y-66763971D02*
X146112800Y-66692542D01*
X146041371Y-66549685D01*
X146041371Y-66192542D01*
X146112800Y-66049685D01*
X146184228Y-65978257D01*
X146327085Y-65906828D01*
X146469942Y-65906828D01*
X146684228Y-65978257D01*
X147541371Y-66835400D01*
X147541371Y-65906828D01*
X146041371Y-65478257D02*
X147541371Y-64978257D01*
X146041371Y-64478257D01*
D13*
%TO.C,J4*%
X150411400Y-101838200D02*
X150411400Y-97958200D01*
X145941400Y-96788200D02*
X145941400Y-97838200D01*
X148441400Y-96788200D02*
X145941400Y-96788200D01*
X145941400Y-101958200D02*
X144951400Y-101958200D01*
X145941400Y-103008200D02*
X145941400Y-101958200D01*
X148441400Y-103008200D02*
X145941400Y-103008200D01*
%TO.C,R5*%
X147195000Y-92246267D02*
X147195000Y-91903733D01*
X146175000Y-92246267D02*
X146175000Y-91903733D01*
%TO.C,D2*%
X145690000Y-94341000D02*
X145690000Y-91456000D01*
X143870000Y-94341000D02*
X145690000Y-94341000D01*
X143870000Y-91456000D02*
X143870000Y-94341000D01*
%TO.C,J5*%
X143824000Y-102733800D02*
X143824000Y-104063800D01*
X142494000Y-102733800D02*
X143824000Y-102733800D01*
X141224000Y-102733800D02*
X141224000Y-105393800D01*
X141224000Y-105393800D02*
X133544000Y-105393800D01*
X141224000Y-102733800D02*
X133544000Y-102733800D01*
X133544000Y-102733800D02*
X133544000Y-105393800D01*
%TO.C,J1*%
X144976500Y-60466900D02*
X144476500Y-60466900D01*
X144976500Y-61206900D02*
X144976500Y-60466900D01*
X138403500Y-64343900D02*
X138450500Y-64297900D01*
X136106500Y-66641900D02*
X136141500Y-66605900D01*
X138210500Y-64127900D02*
X138245500Y-64092900D01*
X135901500Y-66435900D02*
X135948500Y-66389900D01*
X134616500Y-70627900D02*
X134616500Y-60706900D01*
X144736500Y-70627900D02*
X144736500Y-60706900D01*
X144736500Y-60706900D02*
X134616500Y-60706900D01*
X144736500Y-70627900D02*
X134616500Y-70627900D01*
X144736500Y-67667900D02*
X134616500Y-67667900D01*
X144736500Y-62766900D02*
X134616500Y-62766900D01*
X144736500Y-61266900D02*
X134616500Y-61266900D01*
X138856500Y-65366900D02*
G75*
G03*
X138856500Y-65366900I-1680000J0D01*
G01*
X141493182Y-63832144D02*
G75*
G02*
X142176500Y-63686900I683318J-1534756D01*
G01*
X140641074Y-66049942D02*
G75*
G02*
X140641500Y-64682900I1535426J683042D01*
G01*
X142859542Y-66902326D02*
G75*
G02*
X141492500Y-66901900I-683042J1535426D01*
G01*
X143711926Y-64683858D02*
G75*
G02*
X143711500Y-66050900I-1535426J-683042D01*
G01*
X142147695Y-63686647D02*
G75*
G02*
X142860500Y-63831900I28805J-1680253D01*
G01*
%TO.C,F1*%
X135373800Y-74447369D02*
X135373800Y-76987431D01*
X138793800Y-74447369D02*
X138793800Y-76987431D01*
%TO.C,L1*%
X144380200Y-83046600D02*
X145280200Y-83046600D01*
X144380200Y-83046600D02*
X144380200Y-82146600D01*
X148380200Y-78446600D02*
X147480200Y-78446600D01*
X148380200Y-78446600D02*
X148380200Y-79346600D01*
X148380200Y-83046600D02*
X147480200Y-83046600D01*
X148380200Y-83046600D02*
X148380200Y-82146600D01*
X144380200Y-78446600D02*
X145280200Y-78446600D01*
X144380200Y-78446600D02*
X144380200Y-79346600D01*
%TO.C,C5*%
X145788464Y-75373400D02*
X144584336Y-75373400D01*
X145788464Y-78093400D02*
X144584336Y-78093400D01*
%TO.C,C9*%
X132924733Y-79377000D02*
X133267267Y-79377000D01*
X132924733Y-78357000D02*
X133267267Y-78357000D01*
%TO.C,C6*%
X145788464Y-74854900D02*
X144584336Y-74854900D01*
X145788464Y-72134900D02*
X144584336Y-72134900D01*
%TO.C,JP1*%
X134658800Y-72140800D02*
X134658800Y-72740800D01*
X132558800Y-71440800D02*
X133958800Y-71440800D01*
X131858800Y-72740800D02*
X131858800Y-72140800D01*
X133958800Y-73440800D02*
X132558800Y-73440800D01*
X134658800Y-72740800D02*
G75*
G02*
X133958800Y-73440800I-700000J0D01*
G01*
X133958800Y-71440800D02*
G75*
G02*
X134658800Y-72140800I0J-700000D01*
G01*
X131858800Y-72140800D02*
G75*
G02*
X132558800Y-71440800I700000J0D01*
G01*
X132558800Y-73440800D02*
G75*
G02*
X131858800Y-72740800I0J700000D01*
G01*
%TO.C,R4*%
X132924733Y-77853000D02*
X133267267Y-77853000D01*
X132924733Y-76833000D02*
X133267267Y-76833000D01*
%TO.C,C3*%
X134241000Y-82556533D02*
X134241000Y-82899067D01*
X133221000Y-82556533D02*
X133221000Y-82899067D01*
%TO.C,C4*%
X132691600Y-82556533D02*
X132691600Y-82899067D01*
X131671600Y-82556533D02*
X131671600Y-82899067D01*
%TO.C,C2*%
X134764100Y-82735336D02*
X134764100Y-83939464D01*
X136584100Y-82735336D02*
X136584100Y-83939464D01*
%TO.C,R2*%
X138669300Y-87865133D02*
X138669300Y-88207667D01*
X139689300Y-87865133D02*
X139689300Y-88207667D01*
%TO.C,D1*%
X147367500Y-83283700D02*
X147367500Y-87133700D01*
X145367500Y-83283700D02*
X145367500Y-87133700D01*
X147367500Y-83283700D02*
X145367500Y-83283700D01*
D15*
%TO.C,U1*%
X142701700Y-86166000D02*
X142401700Y-86166000D01*
X142701700Y-85866000D02*
X142701700Y-86166000D01*
X142701700Y-80966000D02*
X142401700Y-80966000D01*
X142701700Y-81266000D02*
X142701700Y-80966000D01*
X138501700Y-86166000D02*
X138801700Y-86166000D01*
X138501700Y-85866000D02*
X138501700Y-86166000D01*
X138701700Y-81266000D02*
X137901700Y-81266000D01*
X139001700Y-80966000D02*
X138701700Y-81266000D01*
X139401700Y-80966000D02*
X139001700Y-80966000D01*
D13*
%TO.C,R1*%
X141514100Y-87865133D02*
X141514100Y-88207667D01*
X142534100Y-87865133D02*
X142534100Y-88207667D01*
%TO.C,C8*%
X137119900Y-87865133D02*
X137119900Y-88207667D01*
X138139900Y-87865133D02*
X138139900Y-88207667D01*
%TO.C,C7*%
X144083500Y-88207667D02*
X144083500Y-87865133D01*
X143063500Y-88207667D02*
X143063500Y-87865133D01*
%TO.C,C1*%
X142360833Y-80469200D02*
X142703367Y-80469200D01*
X142360833Y-79449200D02*
X142703367Y-79449200D01*
%TO.C,J3*%
X128235400Y-105419200D02*
X130895400Y-105419200D01*
X128235400Y-67259200D02*
X128235400Y-105419200D01*
X130895400Y-67259200D02*
X130895400Y-105419200D01*
X128235400Y-67259200D02*
X130895400Y-67259200D01*
X128235400Y-65989200D02*
X128235400Y-64659200D01*
X128235400Y-64659200D02*
X129565400Y-64659200D01*
%TO.C,R3*%
X132924733Y-76329000D02*
X133267267Y-76329000D01*
X132924733Y-75309000D02*
X133267267Y-75309000D01*
%TO.C,J2*%
X148555400Y-64659200D02*
X149885400Y-64659200D01*
X148555400Y-65989200D02*
X148555400Y-64659200D01*
X148555400Y-67259200D02*
X151215400Y-67259200D01*
X151215400Y-67259200D02*
X151215400Y-95259200D01*
X148555400Y-67259200D02*
X148555400Y-95259200D01*
X148555400Y-95259200D02*
X151215400Y-95259200D01*
%TO.C,J4*%
D12*
X146986666Y-103516180D02*
X146986666Y-104230466D01*
X146939047Y-104373323D01*
X146843809Y-104468561D01*
X146700952Y-104516180D01*
X146605714Y-104516180D01*
X147891428Y-103849514D02*
X147891428Y-104516180D01*
X147653333Y-103468561D02*
X147415238Y-104182847D01*
X148034285Y-104182847D01*
%TO.C,R5*%
X147264380Y-94908666D02*
X146788190Y-95242000D01*
X147264380Y-95480095D02*
X146264380Y-95480095D01*
X146264380Y-95099142D01*
X146312000Y-95003904D01*
X146359619Y-94956285D01*
X146454857Y-94908666D01*
X146597714Y-94908666D01*
X146692952Y-94956285D01*
X146740571Y-95003904D01*
X146788190Y-95099142D01*
X146788190Y-95480095D01*
X146264380Y-94003904D02*
X146264380Y-94480095D01*
X146740571Y-94527714D01*
X146692952Y-94480095D01*
X146645333Y-94384857D01*
X146645333Y-94146761D01*
X146692952Y-94051523D01*
X146740571Y-94003904D01*
X146835809Y-93956285D01*
X147073904Y-93956285D01*
X147169142Y-94003904D01*
X147216761Y-94051523D01*
X147264380Y-94146761D01*
X147264380Y-94384857D01*
X147216761Y-94480095D01*
X147169142Y-94527714D01*
%TO.C,D2*%
D10*
X143969619Y-89891809D02*
X143727714Y-89891809D01*
X143703523Y-90133714D01*
X143727714Y-90109523D01*
X143776095Y-90085333D01*
X143897047Y-90085333D01*
X143945428Y-90109523D01*
X143969619Y-90133714D01*
X143993809Y-90182095D01*
X143993809Y-90303047D01*
X143969619Y-90351428D01*
X143945428Y-90375619D01*
X143897047Y-90399809D01*
X143776095Y-90399809D01*
X143727714Y-90375619D01*
X143703523Y-90351428D01*
X144138952Y-89891809D02*
X144308285Y-90399809D01*
X144477619Y-89891809D01*
X145130761Y-89891809D02*
X145227523Y-89891809D01*
X145275904Y-89916000D01*
X145324285Y-89964380D01*
X145348476Y-90061142D01*
X145348476Y-90230476D01*
X145324285Y-90327238D01*
X145275904Y-90375619D01*
X145227523Y-90399809D01*
X145130761Y-90399809D01*
X145082380Y-90375619D01*
X145034000Y-90327238D01*
X145009809Y-90230476D01*
X145009809Y-90061142D01*
X145034000Y-89964380D01*
X145082380Y-89916000D01*
X145130761Y-89891809D01*
X145566190Y-90399809D02*
X145566190Y-89891809D01*
X145856476Y-90399809D02*
X145638761Y-90109523D01*
X145856476Y-89891809D02*
X145566190Y-90182095D01*
%TO.C,J1*%
D12*
X145767466Y-70445380D02*
X145767466Y-71159666D01*
X145719847Y-71302523D01*
X145624609Y-71397761D01*
X145481752Y-71445380D01*
X145386514Y-71445380D01*
X146767466Y-71445380D02*
X146196038Y-71445380D01*
X146481752Y-71445380D02*
X146481752Y-70445380D01*
X146386514Y-70588238D01*
X146291276Y-70683476D01*
X146196038Y-70731095D01*
%TO.C,F1*%
X136725066Y-71785171D02*
X136391733Y-71785171D01*
X136391733Y-72308980D02*
X136391733Y-71308980D01*
X136867923Y-71308980D01*
X137772685Y-72308980D02*
X137201257Y-72308980D01*
X137486971Y-72308980D02*
X137486971Y-71308980D01*
X137391733Y-71451838D01*
X137296495Y-71547076D01*
X137201257Y-71594695D01*
%TO.C,L1*%
X146819880Y-81205366D02*
X146819880Y-81681557D01*
X145819880Y-81681557D01*
X146819880Y-80348223D02*
X146819880Y-80919652D01*
X146819880Y-80633938D02*
X145819880Y-80633938D01*
X145962738Y-80729176D01*
X146057976Y-80824414D01*
X146105595Y-80919652D01*
%TO.C,C5*%
X140447733Y-77090542D02*
X140400114Y-77138161D01*
X140257257Y-77185780D01*
X140162019Y-77185780D01*
X140019161Y-77138161D01*
X139923923Y-77042923D01*
X139876304Y-76947685D01*
X139828685Y-76757209D01*
X139828685Y-76614352D01*
X139876304Y-76423876D01*
X139923923Y-76328638D01*
X140019161Y-76233400D01*
X140162019Y-76185780D01*
X140257257Y-76185780D01*
X140400114Y-76233400D01*
X140447733Y-76281019D01*
X141352495Y-76185780D02*
X140876304Y-76185780D01*
X140828685Y-76661971D01*
X140876304Y-76614352D01*
X140971542Y-76566733D01*
X141209638Y-76566733D01*
X141304876Y-76614352D01*
X141352495Y-76661971D01*
X141400114Y-76757209D01*
X141400114Y-76995304D01*
X141352495Y-77090542D01*
X141304876Y-77138161D01*
X141209638Y-77185780D01*
X140971542Y-77185780D01*
X140876304Y-77138161D01*
X140828685Y-77090542D01*
%TO.C,C9*%
X132141933Y-80722742D02*
X132094314Y-80770361D01*
X131951457Y-80817980D01*
X131856219Y-80817980D01*
X131713361Y-80770361D01*
X131618123Y-80675123D01*
X131570504Y-80579885D01*
X131522885Y-80389409D01*
X131522885Y-80246552D01*
X131570504Y-80056076D01*
X131618123Y-79960838D01*
X131713361Y-79865600D01*
X131856219Y-79817980D01*
X131951457Y-79817980D01*
X132094314Y-79865600D01*
X132141933Y-79913219D01*
X132618123Y-80817980D02*
X132808600Y-80817980D01*
X132903838Y-80770361D01*
X132951457Y-80722742D01*
X133046695Y-80579885D01*
X133094314Y-80389409D01*
X133094314Y-80008457D01*
X133046695Y-79913219D01*
X132999076Y-79865600D01*
X132903838Y-79817980D01*
X132713361Y-79817980D01*
X132618123Y-79865600D01*
X132570504Y-79913219D01*
X132522885Y-80008457D01*
X132522885Y-80246552D01*
X132570504Y-80341790D01*
X132618123Y-80389409D01*
X132713361Y-80437028D01*
X132903838Y-80437028D01*
X132999076Y-80389409D01*
X133046695Y-80341790D01*
X133094314Y-80246552D01*
%TO.C,C6*%
X140422333Y-73661542D02*
X140374714Y-73709161D01*
X140231857Y-73756780D01*
X140136619Y-73756780D01*
X139993761Y-73709161D01*
X139898523Y-73613923D01*
X139850904Y-73518685D01*
X139803285Y-73328209D01*
X139803285Y-73185352D01*
X139850904Y-72994876D01*
X139898523Y-72899638D01*
X139993761Y-72804400D01*
X140136619Y-72756780D01*
X140231857Y-72756780D01*
X140374714Y-72804400D01*
X140422333Y-72852019D01*
X141279476Y-72756780D02*
X141089000Y-72756780D01*
X140993761Y-72804400D01*
X140946142Y-72852019D01*
X140850904Y-72994876D01*
X140803285Y-73185352D01*
X140803285Y-73566304D01*
X140850904Y-73661542D01*
X140898523Y-73709161D01*
X140993761Y-73756780D01*
X141184238Y-73756780D01*
X141279476Y-73709161D01*
X141327095Y-73661542D01*
X141374714Y-73566304D01*
X141374714Y-73328209D01*
X141327095Y-73232971D01*
X141279476Y-73185352D01*
X141184238Y-73137733D01*
X140993761Y-73137733D01*
X140898523Y-73185352D01*
X140850904Y-73232971D01*
X140803285Y-73328209D01*
%TO.C,JP1*%
X131957866Y-69886580D02*
X131957866Y-70600866D01*
X131910247Y-70743723D01*
X131815009Y-70838961D01*
X131672152Y-70886580D01*
X131576914Y-70886580D01*
X132434057Y-70886580D02*
X132434057Y-69886580D01*
X132815009Y-69886580D01*
X132910247Y-69934200D01*
X132957866Y-69981819D01*
X133005485Y-70077057D01*
X133005485Y-70219914D01*
X132957866Y-70315152D01*
X132910247Y-70362771D01*
X132815009Y-70410390D01*
X132434057Y-70410390D01*
X133957866Y-70886580D02*
X133386438Y-70886580D01*
X133672152Y-70886580D02*
X133672152Y-69886580D01*
X133576914Y-70029438D01*
X133481676Y-70124676D01*
X133386438Y-70172295D01*
%TO.C,C3*%
X134088142Y-86679066D02*
X134135761Y-86726685D01*
X134183380Y-86869542D01*
X134183380Y-86964780D01*
X134135761Y-87107638D01*
X134040523Y-87202876D01*
X133945285Y-87250495D01*
X133754809Y-87298114D01*
X133611952Y-87298114D01*
X133421476Y-87250495D01*
X133326238Y-87202876D01*
X133231000Y-87107638D01*
X133183380Y-86964780D01*
X133183380Y-86869542D01*
X133231000Y-86726685D01*
X133278619Y-86679066D01*
X133183380Y-86345733D02*
X133183380Y-85726685D01*
X133564333Y-86060019D01*
X133564333Y-85917161D01*
X133611952Y-85821923D01*
X133659571Y-85774304D01*
X133754809Y-85726685D01*
X133992904Y-85726685D01*
X134088142Y-85774304D01*
X134135761Y-85821923D01*
X134183380Y-85917161D01*
X134183380Y-86202876D01*
X134135761Y-86298114D01*
X134088142Y-86345733D01*
%TO.C,C4*%
X132589542Y-86704466D02*
X132637161Y-86752085D01*
X132684780Y-86894942D01*
X132684780Y-86990180D01*
X132637161Y-87133038D01*
X132541923Y-87228276D01*
X132446685Y-87275895D01*
X132256209Y-87323514D01*
X132113352Y-87323514D01*
X131922876Y-87275895D01*
X131827638Y-87228276D01*
X131732400Y-87133038D01*
X131684780Y-86990180D01*
X131684780Y-86894942D01*
X131732400Y-86752085D01*
X131780019Y-86704466D01*
X132018114Y-85847323D02*
X132684780Y-85847323D01*
X131637161Y-86085419D02*
X132351447Y-86323514D01*
X132351447Y-85704466D01*
%TO.C,C2*%
X135469333Y-80646542D02*
X135421714Y-80694161D01*
X135278857Y-80741780D01*
X135183619Y-80741780D01*
X135040761Y-80694161D01*
X134945523Y-80598923D01*
X134897904Y-80503685D01*
X134850285Y-80313209D01*
X134850285Y-80170352D01*
X134897904Y-79979876D01*
X134945523Y-79884638D01*
X135040761Y-79789400D01*
X135183619Y-79741780D01*
X135278857Y-79741780D01*
X135421714Y-79789400D01*
X135469333Y-79837019D01*
X135850285Y-79837019D02*
X135897904Y-79789400D01*
X135993142Y-79741780D01*
X136231238Y-79741780D01*
X136326476Y-79789400D01*
X136374095Y-79837019D01*
X136421714Y-79932257D01*
X136421714Y-80027495D01*
X136374095Y-80170352D01*
X135802666Y-80741780D01*
X136421714Y-80741780D01*
%TO.C,R2*%
X136799580Y-88203066D02*
X136323390Y-88536400D01*
X136799580Y-88774495D02*
X135799580Y-88774495D01*
X135799580Y-88393542D01*
X135847200Y-88298304D01*
X135894819Y-88250685D01*
X135990057Y-88203066D01*
X136132914Y-88203066D01*
X136228152Y-88250685D01*
X136275771Y-88298304D01*
X136323390Y-88393542D01*
X136323390Y-88774495D01*
X135894819Y-87822114D02*
X135847200Y-87774495D01*
X135799580Y-87679257D01*
X135799580Y-87441161D01*
X135847200Y-87345923D01*
X135894819Y-87298304D01*
X135990057Y-87250685D01*
X136085295Y-87250685D01*
X136228152Y-87298304D01*
X136799580Y-87869733D01*
X136799580Y-87250685D01*
%TO.C,D1*%
X145692904Y-86050380D02*
X145692904Y-85050380D01*
X145931000Y-85050380D01*
X146073857Y-85098000D01*
X146169095Y-85193238D01*
X146216714Y-85288476D01*
X146264333Y-85478952D01*
X146264333Y-85621809D01*
X146216714Y-85812285D01*
X146169095Y-85907523D01*
X146073857Y-86002761D01*
X145931000Y-86050380D01*
X145692904Y-86050380D01*
X147216714Y-86050380D02*
X146645285Y-86050380D01*
X146931000Y-86050380D02*
X146931000Y-85050380D01*
X146835761Y-85193238D01*
X146740523Y-85288476D01*
X146645285Y-85336095D01*
%TO.C,U1*%
X138201495Y-79589380D02*
X138201495Y-80398904D01*
X138249114Y-80494142D01*
X138296733Y-80541761D01*
X138391971Y-80589380D01*
X138582447Y-80589380D01*
X138677685Y-80541761D01*
X138725304Y-80494142D01*
X138772923Y-80398904D01*
X138772923Y-79589380D01*
X139772923Y-80589380D02*
X139201495Y-80589380D01*
X139487209Y-80589380D02*
X139487209Y-79589380D01*
X139391971Y-79732238D01*
X139296733Y-79827476D01*
X139201495Y-79875095D01*
%TO.C,R1*%
X141193780Y-88203066D02*
X140717590Y-88536400D01*
X141193780Y-88774495D02*
X140193780Y-88774495D01*
X140193780Y-88393542D01*
X140241400Y-88298304D01*
X140289019Y-88250685D01*
X140384257Y-88203066D01*
X140527114Y-88203066D01*
X140622352Y-88250685D01*
X140669971Y-88298304D01*
X140717590Y-88393542D01*
X140717590Y-88774495D01*
X141193780Y-87250685D02*
X141193780Y-87822114D01*
X141193780Y-87536400D02*
X140193780Y-87536400D01*
X140336638Y-87631638D01*
X140431876Y-87726876D01*
X140479495Y-87822114D01*
%TO.C,C8*%
X135383542Y-88203066D02*
X135431161Y-88250685D01*
X135478780Y-88393542D01*
X135478780Y-88488780D01*
X135431161Y-88631638D01*
X135335923Y-88726876D01*
X135240685Y-88774495D01*
X135050209Y-88822114D01*
X134907352Y-88822114D01*
X134716876Y-88774495D01*
X134621638Y-88726876D01*
X134526400Y-88631638D01*
X134478780Y-88488780D01*
X134478780Y-88393542D01*
X134526400Y-88250685D01*
X134574019Y-88203066D01*
X134907352Y-87631638D02*
X134859733Y-87726876D01*
X134812114Y-87774495D01*
X134716876Y-87822114D01*
X134669257Y-87822114D01*
X134574019Y-87774495D01*
X134526400Y-87726876D01*
X134478780Y-87631638D01*
X134478780Y-87441161D01*
X134526400Y-87345923D01*
X134574019Y-87298304D01*
X134669257Y-87250685D01*
X134716876Y-87250685D01*
X134812114Y-87298304D01*
X134859733Y-87345923D01*
X134907352Y-87441161D01*
X134907352Y-87631638D01*
X134954971Y-87726876D01*
X135002590Y-87774495D01*
X135097828Y-87822114D01*
X135288304Y-87822114D01*
X135383542Y-87774495D01*
X135431161Y-87726876D01*
X135478780Y-87631638D01*
X135478780Y-87441161D01*
X135431161Y-87345923D01*
X135383542Y-87298304D01*
X135288304Y-87250685D01*
X135097828Y-87250685D01*
X135002590Y-87298304D01*
X134954971Y-87345923D01*
X134907352Y-87441161D01*
%TO.C,C7*%
X145264142Y-88304666D02*
X145311761Y-88352285D01*
X145359380Y-88495142D01*
X145359380Y-88590380D01*
X145311761Y-88733238D01*
X145216523Y-88828476D01*
X145121285Y-88876095D01*
X144930809Y-88923714D01*
X144787952Y-88923714D01*
X144597476Y-88876095D01*
X144502238Y-88828476D01*
X144407000Y-88733238D01*
X144359380Y-88590380D01*
X144359380Y-88495142D01*
X144407000Y-88352285D01*
X144454619Y-88304666D01*
X144359380Y-87971333D02*
X144359380Y-87304666D01*
X145359380Y-87733238D01*
%TO.C,C1*%
X141514533Y-78868542D02*
X141466914Y-78916161D01*
X141324057Y-78963780D01*
X141228819Y-78963780D01*
X141085961Y-78916161D01*
X140990723Y-78820923D01*
X140943104Y-78725685D01*
X140895485Y-78535209D01*
X140895485Y-78392352D01*
X140943104Y-78201876D01*
X140990723Y-78106638D01*
X141085961Y-78011400D01*
X141228819Y-77963780D01*
X141324057Y-77963780D01*
X141466914Y-78011400D01*
X141514533Y-78059019D01*
X142466914Y-78963780D02*
X141895485Y-78963780D01*
X142181200Y-78963780D02*
X142181200Y-77963780D01*
X142085961Y-78106638D01*
X141990723Y-78201876D01*
X141895485Y-78249495D01*
%TO.C,R3*%
X132218133Y-74874380D02*
X131884800Y-74398190D01*
X131646704Y-74874380D02*
X131646704Y-73874380D01*
X132027657Y-73874380D01*
X132122895Y-73922000D01*
X132170514Y-73969619D01*
X132218133Y-74064857D01*
X132218133Y-74207714D01*
X132170514Y-74302952D01*
X132122895Y-74350571D01*
X132027657Y-74398190D01*
X131646704Y-74398190D01*
X132551466Y-73874380D02*
X133170514Y-73874380D01*
X132837180Y-74255333D01*
X132980038Y-74255333D01*
X133075276Y-74302952D01*
X133122895Y-74350571D01*
X133170514Y-74445809D01*
X133170514Y-74683904D01*
X133122895Y-74779142D01*
X133075276Y-74826761D01*
X132980038Y-74874380D01*
X132694323Y-74874380D01*
X132599085Y-74826761D01*
X132551466Y-74779142D01*
%TD*%
M02*
