%TF.GenerationSoftware,KiCad,Pcbnew,5.1.6-c6e7f7d~87~ubuntu18.04.1*%
%TF.CreationDate,2020-09-16T17:40:28-07:00*%
%TF.ProjectId,feather-power-supply-sw-smd,66656174-6865-4722-9d70-6f7765722d73,rev?*%
%TF.SameCoordinates,Original*%
%TF.FileFunction,Copper,L1,Top*%
%TF.FilePolarity,Positive*%
%FSLAX46Y46*%
G04 Gerber Fmt 4.6, Leading zero omitted, Abs format (unit mm)*
G04 Created by KiCad (PCBNEW 5.1.6-c6e7f7d~87~ubuntu18.04.1) date 2020-09-16 17:40:28*
%MOMM*%
%LPD*%
G01*
G04 APERTURE LIST*
%TA.AperFunction,EtchedComponent*%
%ADD10C,0.100000*%
%TD*%
%TA.AperFunction,ComponentPad*%
%ADD11C,1.600000*%
%TD*%
%TA.AperFunction,ComponentPad*%
%ADD12O,1.700000X1.700000*%
%TD*%
%TA.AperFunction,ComponentPad*%
%ADD13R,1.700000X1.700000*%
%TD*%
%TA.AperFunction,ComponentPad*%
%ADD14R,2.600000X2.600000*%
%TD*%
%TA.AperFunction,ComponentPad*%
%ADD15C,2.600000*%
%TD*%
%TA.AperFunction,ComponentPad*%
%ADD16C,5.000000*%
%TD*%
%TA.AperFunction,SMDPad,CuDef*%
%ADD17R,1.000000X4.400000*%
%TD*%
%TA.AperFunction,SMDPad,CuDef*%
%ADD18C,0.100000*%
%TD*%
%TA.AperFunction,SMDPad,CuDef*%
%ADD19R,1.100000X1.100000*%
%TD*%
%TA.AperFunction,SMDPad,CuDef*%
%ADD20R,2.000000X0.600000*%
%TD*%
%TA.AperFunction,ViaPad*%
%ADD21C,0.685800*%
%TD*%
%TA.AperFunction,Conductor*%
%ADD22C,1.828800*%
%TD*%
%TA.AperFunction,Conductor*%
%ADD23C,0.609600*%
%TD*%
%TA.AperFunction,Conductor*%
%ADD24C,0.762000*%
%TD*%
%TA.AperFunction,Conductor*%
%ADD25C,0.304800*%
%TD*%
%TA.AperFunction,Conductor*%
%ADD26C,1.524000*%
%TD*%
%TA.AperFunction,Conductor*%
%ADD27C,0.254000*%
%TD*%
G04 APERTURE END LIST*
D10*
%TO.C,JP1*%
G36*
X133008800Y-72740800D02*
G01*
X133508800Y-72740800D01*
X133508800Y-72140800D01*
X133008800Y-72140800D01*
X133008800Y-72740800D01*
G37*
%TD*%
%TO.P,J4,MP*%
%TO.N,N/C*%
%TA.AperFunction,SMDPad,CuDef*%
G36*
G01*
X150251401Y-97698200D02*
X148951399Y-97698200D01*
G75*
G02*
X148701400Y-97448201I0J249999D01*
G01*
X148701400Y-96748199D01*
G75*
G02*
X148951399Y-96498200I249999J0D01*
G01*
X150251401Y-96498200D01*
G75*
G02*
X150501400Y-96748199I0J-249999D01*
G01*
X150501400Y-97448201D01*
G75*
G02*
X150251401Y-97698200I-249999J0D01*
G01*
G37*
%TD.AperFunction*%
%TA.AperFunction,SMDPad,CuDef*%
G36*
G01*
X150251401Y-103298200D02*
X148951399Y-103298200D01*
G75*
G02*
X148701400Y-103048201I0J249999D01*
G01*
X148701400Y-102348199D01*
G75*
G02*
X148951399Y-102098200I249999J0D01*
G01*
X150251401Y-102098200D01*
G75*
G02*
X150501400Y-102348199I0J-249999D01*
G01*
X150501400Y-103048201D01*
G75*
G02*
X150251401Y-103298200I-249999J0D01*
G01*
G37*
%TD.AperFunction*%
%TO.P,J4,4*%
%TO.N,/SDA*%
%TA.AperFunction,SMDPad,CuDef*%
G36*
G01*
X146351400Y-98698200D02*
X145101400Y-98698200D01*
G75*
G02*
X144951400Y-98548200I0J150000D01*
G01*
X144951400Y-98248200D01*
G75*
G02*
X145101400Y-98098200I150000J0D01*
G01*
X146351400Y-98098200D01*
G75*
G02*
X146501400Y-98248200I0J-150000D01*
G01*
X146501400Y-98548200D01*
G75*
G02*
X146351400Y-98698200I-150000J0D01*
G01*
G37*
%TD.AperFunction*%
%TO.P,J4,3*%
%TO.N,/SCL*%
%TA.AperFunction,SMDPad,CuDef*%
G36*
G01*
X146351400Y-99698200D02*
X145101400Y-99698200D01*
G75*
G02*
X144951400Y-99548200I0J150000D01*
G01*
X144951400Y-99248200D01*
G75*
G02*
X145101400Y-99098200I150000J0D01*
G01*
X146351400Y-99098200D01*
G75*
G02*
X146501400Y-99248200I0J-150000D01*
G01*
X146501400Y-99548200D01*
G75*
G02*
X146351400Y-99698200I-150000J0D01*
G01*
G37*
%TD.AperFunction*%
%TO.P,J4,2*%
%TO.N,VUSB*%
%TA.AperFunction,SMDPad,CuDef*%
G36*
G01*
X146351400Y-100698200D02*
X145101400Y-100698200D01*
G75*
G02*
X144951400Y-100548200I0J150000D01*
G01*
X144951400Y-100248200D01*
G75*
G02*
X145101400Y-100098200I150000J0D01*
G01*
X146351400Y-100098200D01*
G75*
G02*
X146501400Y-100248200I0J-150000D01*
G01*
X146501400Y-100548200D01*
G75*
G02*
X146351400Y-100698200I-150000J0D01*
G01*
G37*
%TD.AperFunction*%
%TO.P,J4,1*%
%TO.N,GND*%
%TA.AperFunction,SMDPad,CuDef*%
G36*
G01*
X146351400Y-101698200D02*
X145101400Y-101698200D01*
G75*
G02*
X144951400Y-101548200I0J150000D01*
G01*
X144951400Y-101248200D01*
G75*
G02*
X145101400Y-101098200I150000J0D01*
G01*
X146351400Y-101098200D01*
G75*
G02*
X146501400Y-101248200I0J-150000D01*
G01*
X146501400Y-101548200D01*
G75*
G02*
X146351400Y-101698200I-150000J0D01*
G01*
G37*
%TD.AperFunction*%
%TD*%
%TO.P,R5,2*%
%TO.N,Net-(D2-Pad2)*%
%TA.AperFunction,SMDPad,CuDef*%
G36*
G01*
X146922500Y-91725000D02*
X146447500Y-91725000D01*
G75*
G02*
X146210000Y-91487500I0J237500D01*
G01*
X146210000Y-90912500D01*
G75*
G02*
X146447500Y-90675000I237500J0D01*
G01*
X146922500Y-90675000D01*
G75*
G02*
X147160000Y-90912500I0J-237500D01*
G01*
X147160000Y-91487500D01*
G75*
G02*
X146922500Y-91725000I-237500J0D01*
G01*
G37*
%TD.AperFunction*%
%TO.P,R5,1*%
%TO.N,VUSB*%
%TA.AperFunction,SMDPad,CuDef*%
G36*
G01*
X146922500Y-93475000D02*
X146447500Y-93475000D01*
G75*
G02*
X146210000Y-93237500I0J237500D01*
G01*
X146210000Y-92662500D01*
G75*
G02*
X146447500Y-92425000I237500J0D01*
G01*
X146922500Y-92425000D01*
G75*
G02*
X147160000Y-92662500I0J-237500D01*
G01*
X147160000Y-93237500D01*
G75*
G02*
X146922500Y-93475000I-237500J0D01*
G01*
G37*
%TD.AperFunction*%
%TD*%
%TO.P,D2,2*%
%TO.N,Net-(D2-Pad2)*%
%TA.AperFunction,SMDPad,CuDef*%
G36*
G01*
X145180000Y-92156000D02*
X144380000Y-92156000D01*
G75*
G02*
X144130000Y-91906000I0J250000D01*
G01*
X144130000Y-91081000D01*
G75*
G02*
X144380000Y-90831000I250000J0D01*
G01*
X145180000Y-90831000D01*
G75*
G02*
X145430000Y-91081000I0J-250000D01*
G01*
X145430000Y-91906000D01*
G75*
G02*
X145180000Y-92156000I-250000J0D01*
G01*
G37*
%TD.AperFunction*%
%TO.P,D2,1*%
%TO.N,GND*%
%TA.AperFunction,SMDPad,CuDef*%
G36*
G01*
X145180000Y-94081000D02*
X144380000Y-94081000D01*
G75*
G02*
X144130000Y-93831000I0J250000D01*
G01*
X144130000Y-93006000D01*
G75*
G02*
X144380000Y-92756000I250000J0D01*
G01*
X145180000Y-92756000D01*
G75*
G02*
X145430000Y-93006000I0J-250000D01*
G01*
X145430000Y-93831000D01*
G75*
G02*
X145180000Y-94081000I-250000J0D01*
G01*
G37*
%TD.AperFunction*%
%TD*%
D11*
%TO.P,REF\u002A\u002A,18*%
%TO.N,N/C*%
X137414000Y-91440000D03*
%TO.P,REF\u002A\u002A,17*%
X139954000Y-91440000D03*
%TO.P,REF\u002A\u002A,20*%
X132334000Y-91414600D03*
%TO.P,REF\u002A\u002A,19*%
X134874000Y-91440000D03*
%TO.P,REF\u002A\u002A,16*%
X142494000Y-91440000D03*
%TO.P,REF\u002A\u002A,12*%
X139954000Y-93980000D03*
%TO.P,REF\u002A\u002A,15*%
X132334000Y-93980000D03*
%TO.P,REF\u002A\u002A,11*%
X142494000Y-93980000D03*
%TO.P,REF\u002A\u002A,14*%
X134874000Y-93980000D03*
%TO.P,REF\u002A\u002A,13*%
X137414000Y-93980000D03*
%TO.P,REF\u002A\u002A,9*%
X134874000Y-96520000D03*
%TO.P,REF\u002A\u002A,10*%
X132334000Y-96520000D03*
%TO.P,REF\u002A\u002A,7*%
X139954000Y-96520000D03*
%TO.P,REF\u002A\u002A,8*%
X137414000Y-96520000D03*
%TO.P,REF\u002A\u002A,6*%
X142494000Y-96520000D03*
%TO.P,REF\u002A\u002A,1*%
X142494000Y-99060000D03*
%TO.P,REF\u002A\u002A,3*%
X137414000Y-99060000D03*
%TO.P,REF\u002A\u002A,4*%
X134874000Y-99060000D03*
%TO.P,REF\u002A\u002A,5*%
X132334000Y-99060000D03*
%TO.P,REF\u002A\u002A,2*%
X139954000Y-99060000D03*
%TD*%
D12*
%TO.P,J5,4*%
%TO.N,/SDA*%
X134874000Y-104063800D03*
%TO.P,J5,3*%
%TO.N,/SCL*%
X137414000Y-104063800D03*
%TO.P,J5,2*%
%TO.N,VUSB*%
X139954000Y-104063800D03*
D13*
%TO.P,J5,1*%
%TO.N,GND*%
X142494000Y-104063800D03*
%TD*%
D14*
%TO.P,J1,1*%
%TO.N,Net-(F1-Pad1)*%
X142176500Y-65366900D03*
D15*
%TO.P,J1,2*%
%TO.N,GND*%
X137176500Y-65366900D03*
%TD*%
%TO.P,F1,2*%
%TO.N,/VIN*%
%TA.AperFunction,SMDPad,CuDef*%
G36*
G01*
X135683800Y-77142400D02*
X138483800Y-77142400D01*
G75*
G02*
X138733800Y-77392400I0J-250000D01*
G01*
X138733800Y-78367400D01*
G75*
G02*
X138483800Y-78617400I-250000J0D01*
G01*
X135683800Y-78617400D01*
G75*
G02*
X135433800Y-78367400I0J250000D01*
G01*
X135433800Y-77392400D01*
G75*
G02*
X135683800Y-77142400I250000J0D01*
G01*
G37*
%TD.AperFunction*%
%TO.P,F1,1*%
%TO.N,Net-(F1-Pad1)*%
%TA.AperFunction,SMDPad,CuDef*%
G36*
G01*
X135683800Y-72817400D02*
X138483800Y-72817400D01*
G75*
G02*
X138733800Y-73067400I0J-250000D01*
G01*
X138733800Y-74042400D01*
G75*
G02*
X138483800Y-74292400I-250000J0D01*
G01*
X135683800Y-74292400D01*
G75*
G02*
X135433800Y-74042400I0J250000D01*
G01*
X135433800Y-73067400D01*
G75*
G02*
X135683800Y-72817400I250000J0D01*
G01*
G37*
%TD.AperFunction*%
%TD*%
D16*
%TO.P,H2,1*%
%TO.N,GND*%
X148615400Y-61671200D03*
%TD*%
%TO.P,H1,1*%
%TO.N,GND*%
X130810000Y-61696600D03*
%TD*%
D17*
%TO.P,L1,2*%
%TO.N,VUSB*%
X147755200Y-80746600D03*
%TO.P,L1,1*%
%TO.N,Net-(C1-Pad2)*%
X145005200Y-80746600D03*
%TD*%
%TO.P,C5,2*%
%TO.N,GND*%
%TA.AperFunction,SMDPad,CuDef*%
G36*
G01*
X144411400Y-75658400D02*
X144411400Y-77808400D01*
G75*
G02*
X144161400Y-78058400I-250000J0D01*
G01*
X143236400Y-78058400D01*
G75*
G02*
X142986400Y-77808400I0J250000D01*
G01*
X142986400Y-75658400D01*
G75*
G02*
X143236400Y-75408400I250000J0D01*
G01*
X144161400Y-75408400D01*
G75*
G02*
X144411400Y-75658400I0J-250000D01*
G01*
G37*
%TD.AperFunction*%
%TO.P,C5,1*%
%TO.N,VUSB*%
%TA.AperFunction,SMDPad,CuDef*%
G36*
G01*
X147386400Y-75658400D02*
X147386400Y-77808400D01*
G75*
G02*
X147136400Y-78058400I-250000J0D01*
G01*
X146211400Y-78058400D01*
G75*
G02*
X145961400Y-77808400I0J250000D01*
G01*
X145961400Y-75658400D01*
G75*
G02*
X146211400Y-75408400I250000J0D01*
G01*
X147136400Y-75408400D01*
G75*
G02*
X147386400Y-75658400I0J-250000D01*
G01*
G37*
%TD.AperFunction*%
%TD*%
%TO.P,C9,2*%
%TO.N,GND*%
%TA.AperFunction,SMDPad,CuDef*%
G36*
G01*
X133446000Y-79104500D02*
X133446000Y-78629500D01*
G75*
G02*
X133683500Y-78392000I237500J0D01*
G01*
X134258500Y-78392000D01*
G75*
G02*
X134496000Y-78629500I0J-237500D01*
G01*
X134496000Y-79104500D01*
G75*
G02*
X134258500Y-79342000I-237500J0D01*
G01*
X133683500Y-79342000D01*
G75*
G02*
X133446000Y-79104500I0J237500D01*
G01*
G37*
%TD.AperFunction*%
%TO.P,C9,1*%
%TO.N,/A1*%
%TA.AperFunction,SMDPad,CuDef*%
G36*
G01*
X131696000Y-79104500D02*
X131696000Y-78629500D01*
G75*
G02*
X131933500Y-78392000I237500J0D01*
G01*
X132508500Y-78392000D01*
G75*
G02*
X132746000Y-78629500I0J-237500D01*
G01*
X132746000Y-79104500D01*
G75*
G02*
X132508500Y-79342000I-237500J0D01*
G01*
X131933500Y-79342000D01*
G75*
G02*
X131696000Y-79104500I0J237500D01*
G01*
G37*
%TD.AperFunction*%
%TD*%
%TO.P,C6,2*%
%TO.N,GND*%
%TA.AperFunction,SMDPad,CuDef*%
G36*
G01*
X144411400Y-72419900D02*
X144411400Y-74569900D01*
G75*
G02*
X144161400Y-74819900I-250000J0D01*
G01*
X143236400Y-74819900D01*
G75*
G02*
X142986400Y-74569900I0J250000D01*
G01*
X142986400Y-72419900D01*
G75*
G02*
X143236400Y-72169900I250000J0D01*
G01*
X144161400Y-72169900D01*
G75*
G02*
X144411400Y-72419900I0J-250000D01*
G01*
G37*
%TD.AperFunction*%
%TO.P,C6,1*%
%TO.N,VUSB*%
%TA.AperFunction,SMDPad,CuDef*%
G36*
G01*
X147386400Y-72419900D02*
X147386400Y-74569900D01*
G75*
G02*
X147136400Y-74819900I-250000J0D01*
G01*
X146211400Y-74819900D01*
G75*
G02*
X145961400Y-74569900I0J250000D01*
G01*
X145961400Y-72419900D01*
G75*
G02*
X146211400Y-72169900I250000J0D01*
G01*
X147136400Y-72169900D01*
G75*
G02*
X147386400Y-72419900I0J-250000D01*
G01*
G37*
%TD.AperFunction*%
%TD*%
%TA.AperFunction,SMDPad,CuDef*%
D18*
%TO.P,JP1,1*%
%TO.N,/VIN*%
G36*
X133408800Y-71690800D02*
G01*
X133908800Y-71690800D01*
X133908800Y-71691402D01*
X133933334Y-71691402D01*
X133982165Y-71696212D01*
X134030290Y-71705784D01*
X134077245Y-71720028D01*
X134122578Y-71738805D01*
X134165851Y-71761936D01*
X134206650Y-71789196D01*
X134244579Y-71820324D01*
X134279276Y-71855021D01*
X134310404Y-71892950D01*
X134337664Y-71933749D01*
X134360795Y-71977022D01*
X134379572Y-72022355D01*
X134393816Y-72069310D01*
X134403388Y-72117435D01*
X134408198Y-72166266D01*
X134408198Y-72190800D01*
X134408800Y-72190800D01*
X134408800Y-72690800D01*
X134408198Y-72690800D01*
X134408198Y-72715334D01*
X134403388Y-72764165D01*
X134393816Y-72812290D01*
X134379572Y-72859245D01*
X134360795Y-72904578D01*
X134337664Y-72947851D01*
X134310404Y-72988650D01*
X134279276Y-73026579D01*
X134244579Y-73061276D01*
X134206650Y-73092404D01*
X134165851Y-73119664D01*
X134122578Y-73142795D01*
X134077245Y-73161572D01*
X134030290Y-73175816D01*
X133982165Y-73185388D01*
X133933334Y-73190198D01*
X133908800Y-73190198D01*
X133908800Y-73190800D01*
X133408800Y-73190800D01*
X133408800Y-71690800D01*
G37*
%TD.AperFunction*%
%TA.AperFunction,SMDPad,CuDef*%
%TO.P,JP1,2*%
%TO.N,Net-(JP1-Pad2)*%
G36*
X132608800Y-73190198D02*
G01*
X132584266Y-73190198D01*
X132535435Y-73185388D01*
X132487310Y-73175816D01*
X132440355Y-73161572D01*
X132395022Y-73142795D01*
X132351749Y-73119664D01*
X132310950Y-73092404D01*
X132273021Y-73061276D01*
X132238324Y-73026579D01*
X132207196Y-72988650D01*
X132179936Y-72947851D01*
X132156805Y-72904578D01*
X132138028Y-72859245D01*
X132123784Y-72812290D01*
X132114212Y-72764165D01*
X132109402Y-72715334D01*
X132109402Y-72690800D01*
X132108800Y-72690800D01*
X132108800Y-72190800D01*
X132109402Y-72190800D01*
X132109402Y-72166266D01*
X132114212Y-72117435D01*
X132123784Y-72069310D01*
X132138028Y-72022355D01*
X132156805Y-71977022D01*
X132179936Y-71933749D01*
X132207196Y-71892950D01*
X132238324Y-71855021D01*
X132273021Y-71820324D01*
X132310950Y-71789196D01*
X132351749Y-71761936D01*
X132395022Y-71738805D01*
X132440355Y-71720028D01*
X132487310Y-71705784D01*
X132535435Y-71696212D01*
X132584266Y-71691402D01*
X132608800Y-71691402D01*
X132608800Y-71690800D01*
X133108800Y-71690800D01*
X133108800Y-73190800D01*
X132608800Y-73190800D01*
X132608800Y-73190198D01*
G37*
%TD.AperFunction*%
%TD*%
%TO.P,R4,2*%
%TO.N,GND*%
%TA.AperFunction,SMDPad,CuDef*%
G36*
G01*
X133446000Y-77580500D02*
X133446000Y-77105500D01*
G75*
G02*
X133683500Y-76868000I237500J0D01*
G01*
X134258500Y-76868000D01*
G75*
G02*
X134496000Y-77105500I0J-237500D01*
G01*
X134496000Y-77580500D01*
G75*
G02*
X134258500Y-77818000I-237500J0D01*
G01*
X133683500Y-77818000D01*
G75*
G02*
X133446000Y-77580500I0J237500D01*
G01*
G37*
%TD.AperFunction*%
%TO.P,R4,1*%
%TO.N,/A1*%
%TA.AperFunction,SMDPad,CuDef*%
G36*
G01*
X131696000Y-77580500D02*
X131696000Y-77105500D01*
G75*
G02*
X131933500Y-76868000I237500J0D01*
G01*
X132508500Y-76868000D01*
G75*
G02*
X132746000Y-77105500I0J-237500D01*
G01*
X132746000Y-77580500D01*
G75*
G02*
X132508500Y-77818000I-237500J0D01*
G01*
X131933500Y-77818000D01*
G75*
G02*
X131696000Y-77580500I0J237500D01*
G01*
G37*
%TD.AperFunction*%
%TD*%
%TO.P,C3,2*%
%TO.N,GND*%
%TA.AperFunction,SMDPad,CuDef*%
G36*
G01*
X133493500Y-83077800D02*
X133968500Y-83077800D01*
G75*
G02*
X134206000Y-83315300I0J-237500D01*
G01*
X134206000Y-83890300D01*
G75*
G02*
X133968500Y-84127800I-237500J0D01*
G01*
X133493500Y-84127800D01*
G75*
G02*
X133256000Y-83890300I0J237500D01*
G01*
X133256000Y-83315300D01*
G75*
G02*
X133493500Y-83077800I237500J0D01*
G01*
G37*
%TD.AperFunction*%
%TO.P,C3,1*%
%TO.N,/VIN*%
%TA.AperFunction,SMDPad,CuDef*%
G36*
G01*
X133493500Y-81327800D02*
X133968500Y-81327800D01*
G75*
G02*
X134206000Y-81565300I0J-237500D01*
G01*
X134206000Y-82140300D01*
G75*
G02*
X133968500Y-82377800I-237500J0D01*
G01*
X133493500Y-82377800D01*
G75*
G02*
X133256000Y-82140300I0J237500D01*
G01*
X133256000Y-81565300D01*
G75*
G02*
X133493500Y-81327800I237500J0D01*
G01*
G37*
%TD.AperFunction*%
%TD*%
%TO.P,C4,2*%
%TO.N,GND*%
%TA.AperFunction,SMDPad,CuDef*%
G36*
G01*
X131944100Y-83077800D02*
X132419100Y-83077800D01*
G75*
G02*
X132656600Y-83315300I0J-237500D01*
G01*
X132656600Y-83890300D01*
G75*
G02*
X132419100Y-84127800I-237500J0D01*
G01*
X131944100Y-84127800D01*
G75*
G02*
X131706600Y-83890300I0J237500D01*
G01*
X131706600Y-83315300D01*
G75*
G02*
X131944100Y-83077800I237500J0D01*
G01*
G37*
%TD.AperFunction*%
%TO.P,C4,1*%
%TO.N,/VIN*%
%TA.AperFunction,SMDPad,CuDef*%
G36*
G01*
X131944100Y-81327800D02*
X132419100Y-81327800D01*
G75*
G02*
X132656600Y-81565300I0J-237500D01*
G01*
X132656600Y-82140300D01*
G75*
G02*
X132419100Y-82377800I-237500J0D01*
G01*
X131944100Y-82377800D01*
G75*
G02*
X131706600Y-82140300I0J237500D01*
G01*
X131706600Y-81565300D01*
G75*
G02*
X131944100Y-81327800I237500J0D01*
G01*
G37*
%TD.AperFunction*%
%TD*%
%TO.P,C2,2*%
%TO.N,GND*%
%TA.AperFunction,SMDPad,CuDef*%
G36*
G01*
X135049100Y-84112400D02*
X136299100Y-84112400D01*
G75*
G02*
X136549100Y-84362400I0J-250000D01*
G01*
X136549100Y-85287400D01*
G75*
G02*
X136299100Y-85537400I-250000J0D01*
G01*
X135049100Y-85537400D01*
G75*
G02*
X134799100Y-85287400I0J250000D01*
G01*
X134799100Y-84362400D01*
G75*
G02*
X135049100Y-84112400I250000J0D01*
G01*
G37*
%TD.AperFunction*%
%TO.P,C2,1*%
%TO.N,/VIN*%
%TA.AperFunction,SMDPad,CuDef*%
G36*
G01*
X135049100Y-81137400D02*
X136299100Y-81137400D01*
G75*
G02*
X136549100Y-81387400I0J-250000D01*
G01*
X136549100Y-82312400D01*
G75*
G02*
X136299100Y-82562400I-250000J0D01*
G01*
X135049100Y-82562400D01*
G75*
G02*
X134799100Y-82312400I0J250000D01*
G01*
X134799100Y-81387400D01*
G75*
G02*
X135049100Y-81137400I250000J0D01*
G01*
G37*
%TD.AperFunction*%
%TD*%
%TO.P,R2,2*%
%TO.N,GND*%
%TA.AperFunction,SMDPad,CuDef*%
G36*
G01*
X138941800Y-88386400D02*
X139416800Y-88386400D01*
G75*
G02*
X139654300Y-88623900I0J-237500D01*
G01*
X139654300Y-89198900D01*
G75*
G02*
X139416800Y-89436400I-237500J0D01*
G01*
X138941800Y-89436400D01*
G75*
G02*
X138704300Y-89198900I0J237500D01*
G01*
X138704300Y-88623900D01*
G75*
G02*
X138941800Y-88386400I237500J0D01*
G01*
G37*
%TD.AperFunction*%
%TO.P,R2,1*%
%TO.N,/ROSC*%
%TA.AperFunction,SMDPad,CuDef*%
G36*
G01*
X138941800Y-86636400D02*
X139416800Y-86636400D01*
G75*
G02*
X139654300Y-86873900I0J-237500D01*
G01*
X139654300Y-87448900D01*
G75*
G02*
X139416800Y-87686400I-237500J0D01*
G01*
X138941800Y-87686400D01*
G75*
G02*
X138704300Y-87448900I0J237500D01*
G01*
X138704300Y-86873900D01*
G75*
G02*
X138941800Y-86636400I237500J0D01*
G01*
G37*
%TD.AperFunction*%
%TD*%
D19*
%TO.P,D1,2*%
%TO.N,GND*%
X146367500Y-86883700D03*
%TO.P,D1,1*%
%TO.N,Net-(C1-Pad2)*%
X146367500Y-84083700D03*
%TD*%
D20*
%TO.P,U1,3*%
%TO.N,/ROSC*%
X138151700Y-84201000D03*
%TO.P,U1,8*%
%TO.N,Net-(C1-Pad2)*%
X143051700Y-81661000D03*
%TO.P,U1,7*%
%TO.N,GND*%
X143051700Y-82931000D03*
%TO.P,U1,6*%
%TO.N,Net-(R1-Pad1)*%
X143051700Y-84201000D03*
%TO.P,U1,5*%
%TO.N,Net-(C1-Pad2)*%
X143051700Y-85471000D03*
%TO.P,U1,4*%
%TO.N,Net-(C8-Pad1)*%
X138151700Y-85471000D03*
%TO.P,U1,2*%
%TO.N,/VIN*%
X138151700Y-82931000D03*
%TO.P,U1,1*%
%TO.N,Net-(C1-Pad1)*%
X138151700Y-81661000D03*
%TD*%
%TO.P,R1,2*%
%TO.N,Net-(C7-Pad1)*%
%TA.AperFunction,SMDPad,CuDef*%
G36*
G01*
X141786600Y-88386400D02*
X142261600Y-88386400D01*
G75*
G02*
X142499100Y-88623900I0J-237500D01*
G01*
X142499100Y-89198900D01*
G75*
G02*
X142261600Y-89436400I-237500J0D01*
G01*
X141786600Y-89436400D01*
G75*
G02*
X141549100Y-89198900I0J237500D01*
G01*
X141549100Y-88623900D01*
G75*
G02*
X141786600Y-88386400I237500J0D01*
G01*
G37*
%TD.AperFunction*%
%TO.P,R1,1*%
%TO.N,Net-(R1-Pad1)*%
%TA.AperFunction,SMDPad,CuDef*%
G36*
G01*
X141786600Y-86636400D02*
X142261600Y-86636400D01*
G75*
G02*
X142499100Y-86873900I0J-237500D01*
G01*
X142499100Y-87448900D01*
G75*
G02*
X142261600Y-87686400I-237500J0D01*
G01*
X141786600Y-87686400D01*
G75*
G02*
X141549100Y-87448900I0J237500D01*
G01*
X141549100Y-86873900D01*
G75*
G02*
X141786600Y-86636400I237500J0D01*
G01*
G37*
%TD.AperFunction*%
%TD*%
%TO.P,C8,2*%
%TO.N,GND*%
%TA.AperFunction,SMDPad,CuDef*%
G36*
G01*
X137392400Y-88386400D02*
X137867400Y-88386400D01*
G75*
G02*
X138104900Y-88623900I0J-237500D01*
G01*
X138104900Y-89198900D01*
G75*
G02*
X137867400Y-89436400I-237500J0D01*
G01*
X137392400Y-89436400D01*
G75*
G02*
X137154900Y-89198900I0J237500D01*
G01*
X137154900Y-88623900D01*
G75*
G02*
X137392400Y-88386400I237500J0D01*
G01*
G37*
%TD.AperFunction*%
%TO.P,C8,1*%
%TO.N,Net-(C8-Pad1)*%
%TA.AperFunction,SMDPad,CuDef*%
G36*
G01*
X137392400Y-86636400D02*
X137867400Y-86636400D01*
G75*
G02*
X138104900Y-86873900I0J-237500D01*
G01*
X138104900Y-87448900D01*
G75*
G02*
X137867400Y-87686400I-237500J0D01*
G01*
X137392400Y-87686400D01*
G75*
G02*
X137154900Y-87448900I0J237500D01*
G01*
X137154900Y-86873900D01*
G75*
G02*
X137392400Y-86636400I237500J0D01*
G01*
G37*
%TD.AperFunction*%
%TD*%
%TO.P,C7,2*%
%TO.N,GND*%
%TA.AperFunction,SMDPad,CuDef*%
G36*
G01*
X143811000Y-87686400D02*
X143336000Y-87686400D01*
G75*
G02*
X143098500Y-87448900I0J237500D01*
G01*
X143098500Y-86873900D01*
G75*
G02*
X143336000Y-86636400I237500J0D01*
G01*
X143811000Y-86636400D01*
G75*
G02*
X144048500Y-86873900I0J-237500D01*
G01*
X144048500Y-87448900D01*
G75*
G02*
X143811000Y-87686400I-237500J0D01*
G01*
G37*
%TD.AperFunction*%
%TO.P,C7,1*%
%TO.N,Net-(C7-Pad1)*%
%TA.AperFunction,SMDPad,CuDef*%
G36*
G01*
X143811000Y-89436400D02*
X143336000Y-89436400D01*
G75*
G02*
X143098500Y-89198900I0J237500D01*
G01*
X143098500Y-88623900D01*
G75*
G02*
X143336000Y-88386400I237500J0D01*
G01*
X143811000Y-88386400D01*
G75*
G02*
X144048500Y-88623900I0J-237500D01*
G01*
X144048500Y-89198900D01*
G75*
G02*
X143811000Y-89436400I-237500J0D01*
G01*
G37*
%TD.AperFunction*%
%TD*%
%TO.P,C1,2*%
%TO.N,Net-(C1-Pad2)*%
%TA.AperFunction,SMDPad,CuDef*%
G36*
G01*
X142882100Y-80196700D02*
X142882100Y-79721700D01*
G75*
G02*
X143119600Y-79484200I237500J0D01*
G01*
X143694600Y-79484200D01*
G75*
G02*
X143932100Y-79721700I0J-237500D01*
G01*
X143932100Y-80196700D01*
G75*
G02*
X143694600Y-80434200I-237500J0D01*
G01*
X143119600Y-80434200D01*
G75*
G02*
X142882100Y-80196700I0J237500D01*
G01*
G37*
%TD.AperFunction*%
%TO.P,C1,1*%
%TO.N,Net-(C1-Pad1)*%
%TA.AperFunction,SMDPad,CuDef*%
G36*
G01*
X141132100Y-80196700D02*
X141132100Y-79721700D01*
G75*
G02*
X141369600Y-79484200I237500J0D01*
G01*
X141944600Y-79484200D01*
G75*
G02*
X142182100Y-79721700I0J-237500D01*
G01*
X142182100Y-80196700D01*
G75*
G02*
X141944600Y-80434200I-237500J0D01*
G01*
X141369600Y-80434200D01*
G75*
G02*
X141132100Y-80196700I0J237500D01*
G01*
G37*
%TD.AperFunction*%
%TD*%
D12*
%TO.P,J3,16*%
%TO.N,Net-(J3-Pad16)*%
X129565400Y-104089200D03*
%TO.P,J3,15*%
%TO.N,Net-(J3-Pad15)*%
X129565400Y-101549200D03*
%TO.P,J3,14*%
%TO.N,Net-(J3-Pad14)*%
X129565400Y-99009200D03*
%TO.P,J3,13*%
%TO.N,Net-(J3-Pad13)*%
X129565400Y-96469200D03*
%TO.P,J3,12*%
%TO.N,Net-(J3-Pad12)*%
X129565400Y-93929200D03*
%TO.P,J3,11*%
%TO.N,Net-(J3-Pad11)*%
X129565400Y-91389200D03*
%TO.P,J3,10*%
%TO.N,Net-(J3-Pad10)*%
X129565400Y-88849200D03*
%TO.P,J3,9*%
%TO.N,Net-(J3-Pad9)*%
X129565400Y-86309200D03*
%TO.P,J3,8*%
%TO.N,Net-(J3-Pad8)*%
X129565400Y-83769200D03*
%TO.P,J3,7*%
%TO.N,Net-(J3-Pad7)*%
X129565400Y-81229200D03*
%TO.P,J3,6*%
%TO.N,/A1*%
X129565400Y-78689200D03*
%TO.P,J3,5*%
%TO.N,Net-(J3-Pad5)*%
X129565400Y-76149200D03*
%TO.P,J3,4*%
%TO.N,GND*%
X129565400Y-73609200D03*
%TO.P,J3,3*%
%TO.N,Net-(J3-Pad3)*%
X129565400Y-71069200D03*
%TO.P,J3,2*%
%TO.N,Net-(J3-Pad2)*%
X129565400Y-68529200D03*
D13*
%TO.P,J3,1*%
%TO.N,Net-(J3-Pad1)*%
X129565400Y-65989200D03*
%TD*%
%TO.P,R3,2*%
%TO.N,Net-(JP1-Pad2)*%
%TA.AperFunction,SMDPad,CuDef*%
G36*
G01*
X133446000Y-76056500D02*
X133446000Y-75581500D01*
G75*
G02*
X133683500Y-75344000I237500J0D01*
G01*
X134258500Y-75344000D01*
G75*
G02*
X134496000Y-75581500I0J-237500D01*
G01*
X134496000Y-76056500D01*
G75*
G02*
X134258500Y-76294000I-237500J0D01*
G01*
X133683500Y-76294000D01*
G75*
G02*
X133446000Y-76056500I0J237500D01*
G01*
G37*
%TD.AperFunction*%
%TO.P,R3,1*%
%TO.N,/A1*%
%TA.AperFunction,SMDPad,CuDef*%
G36*
G01*
X131696000Y-76056500D02*
X131696000Y-75581500D01*
G75*
G02*
X131933500Y-75344000I237500J0D01*
G01*
X132508500Y-75344000D01*
G75*
G02*
X132746000Y-75581500I0J-237500D01*
G01*
X132746000Y-76056500D01*
G75*
G02*
X132508500Y-76294000I-237500J0D01*
G01*
X131933500Y-76294000D01*
G75*
G02*
X131696000Y-76056500I0J237500D01*
G01*
G37*
%TD.AperFunction*%
%TD*%
%TO.P,J2,1*%
%TO.N,Net-(J2-Pad1)*%
X149885400Y-65989200D03*
D12*
%TO.P,J2,2*%
%TO.N,+3V3*%
X149885400Y-68529200D03*
%TO.P,J2,3*%
%TO.N,Net-(J2-Pad3)*%
X149885400Y-71069200D03*
%TO.P,J2,4*%
%TO.N,VUSB*%
X149885400Y-73609200D03*
%TO.P,J2,5*%
%TO.N,Net-(J2-Pad5)*%
X149885400Y-76149200D03*
%TO.P,J2,6*%
%TO.N,Net-(J2-Pad6)*%
X149885400Y-78689200D03*
%TO.P,J2,7*%
%TO.N,Net-(J2-Pad7)*%
X149885400Y-81229200D03*
%TO.P,J2,8*%
%TO.N,Net-(J2-Pad8)*%
X149885400Y-83769200D03*
%TO.P,J2,9*%
%TO.N,Net-(J2-Pad9)*%
X149885400Y-86309200D03*
%TO.P,J2,10*%
%TO.N,Net-(J2-Pad10)*%
X149885400Y-88849200D03*
%TO.P,J2,11*%
%TO.N,/SCL*%
X149885400Y-91389200D03*
%TO.P,J2,12*%
%TO.N,/SDA*%
X149885400Y-93929200D03*
%TD*%
D21*
%TO.N,VUSB*%
X147828012Y-100330000D03*
%TO.N,GND*%
X133591300Y-69164200D03*
X145986500Y-88633300D03*
X146875500Y-88633300D03*
X134620000Y-59994800D03*
X135921750Y-59994800D03*
X138525250Y-59994800D03*
X137223500Y-59994800D03*
X142430500Y-59994800D03*
X143732250Y-59994800D03*
X141128750Y-59994800D03*
X145034000Y-59994800D03*
X139827000Y-59994800D03*
X131800600Y-84861400D03*
X132537200Y-84861400D03*
X135229600Y-86207600D03*
X136067800Y-86207600D03*
X142138400Y-76276200D03*
X142138400Y-77165200D03*
X142011400Y-72847200D03*
X142011400Y-73736200D03*
X146685000Y-96215200D03*
X139088090Y-109016800D03*
X144084962Y-109016800D03*
X135340436Y-109016800D03*
X142835744Y-109016800D03*
X134091218Y-109016800D03*
X137838872Y-109016800D03*
X136589654Y-109016800D03*
X141586526Y-109016800D03*
X140337308Y-109016800D03*
X145334180Y-109016800D03*
X133629400Y-80010000D03*
X141211300Y-84048600D03*
X141211300Y-83210400D03*
X139979400Y-78435200D03*
X140411200Y-83210400D03*
X132842000Y-109016800D03*
X146583400Y-109004100D03*
X141478000Y-69900800D03*
X143976436Y-69900800D03*
X140101780Y-75006200D03*
X142011400Y-75006200D03*
X142011400Y-71501000D03*
X140101780Y-71501000D03*
X140335000Y-89789000D03*
X144526000Y-86487000D03*
X144780000Y-94996000D03*
X144272000Y-101854000D03*
%TD*%
D22*
%TO.N,VUSB*%
X147755200Y-77814700D02*
X146673900Y-76733400D01*
X147755200Y-80746600D02*
X147755200Y-77814700D01*
X146673900Y-76733400D02*
X146673900Y-73494900D01*
X149771100Y-73494900D02*
X149885400Y-73609200D01*
X146673900Y-73494900D02*
X149771100Y-73494900D01*
D23*
X145726400Y-100398200D02*
X147759812Y-100398200D01*
X147759812Y-100398200D02*
X147828012Y-100330000D01*
D24*
X139954000Y-102616000D02*
X139954000Y-104063800D01*
X140970000Y-101600000D02*
X139954000Y-102616000D01*
X143002000Y-101600000D02*
X140970000Y-101600000D01*
X145726400Y-100398200D02*
X144203800Y-100398200D01*
X144203800Y-100398200D02*
X143002000Y-101600000D01*
D25*
X147828000Y-80819400D02*
X147755200Y-80746600D01*
X147828000Y-91948000D02*
X147828000Y-80819400D01*
X146685000Y-92950000D02*
X146826000Y-92950000D01*
X146826000Y-92950000D02*
X147828000Y-91948000D01*
D24*
%TO.N,GND*%
X137629900Y-88911400D02*
X139179300Y-88911400D01*
X132168900Y-84493100D02*
X131800600Y-84861400D01*
X132168900Y-84493100D02*
X132537200Y-84861400D01*
X132168900Y-83602800D02*
X132168900Y-84493100D01*
X132168900Y-83602800D02*
X132168900Y-83654900D01*
X133718300Y-83807300D02*
X133019800Y-84505800D01*
X133718300Y-83602800D02*
X133718300Y-83807300D01*
X132168900Y-83654900D02*
X133019800Y-84505800D01*
X135674100Y-85763100D02*
X135229600Y-86207600D01*
X135674100Y-84824900D02*
X135674100Y-85763100D01*
X135674100Y-85813900D02*
X136067800Y-86207600D01*
X135674100Y-84824900D02*
X135674100Y-85813900D01*
D25*
X133971000Y-77343000D02*
X133971000Y-78867000D01*
X133971000Y-78867000D02*
X133971000Y-78980000D01*
D24*
X146367500Y-88252300D02*
X145986500Y-88633300D01*
X146367500Y-86883700D02*
X146367500Y-88252300D01*
X146367500Y-88125300D02*
X146875500Y-88633300D01*
X146367500Y-86883700D02*
X146367500Y-88125300D01*
X143698900Y-76733400D02*
X143484600Y-76733400D01*
X143027400Y-76276200D02*
X142138400Y-76276200D01*
X143484600Y-76733400D02*
X143027400Y-76276200D01*
X143698900Y-76733400D02*
X143698900Y-77001700D01*
X143535400Y-77165200D02*
X142138400Y-77165200D01*
X143698900Y-77001700D02*
X143535400Y-77165200D01*
X143698900Y-76733400D02*
X142316200Y-76733400D01*
X143649700Y-73494900D02*
X143698900Y-73494900D01*
X143408400Y-73736200D02*
X142011400Y-73736200D01*
X143357600Y-73304400D02*
X142900400Y-72847200D01*
X143571900Y-73304400D02*
X143357600Y-73304400D01*
X143571900Y-73304400D02*
X143571900Y-73572700D01*
X143571900Y-73304400D02*
X142189200Y-73304400D01*
X143571900Y-73572700D02*
X143408400Y-73736200D01*
X142900400Y-72847200D02*
X142011400Y-72847200D01*
D25*
X133971000Y-79564200D02*
X133971000Y-78867000D01*
X133629400Y-80010000D02*
X133971000Y-79564200D01*
D26*
X134953100Y-84824900D02*
X133731000Y-83602800D01*
X135674100Y-84824900D02*
X134953100Y-84824900D01*
D24*
X141289700Y-82931000D02*
X141211300Y-83009400D01*
X143051700Y-82931000D02*
X141289700Y-82931000D01*
X141211300Y-83009400D02*
X141211300Y-84048600D01*
X143051700Y-82931000D02*
X141490700Y-82931000D01*
X141490700Y-82931000D02*
X141211300Y-83210400D01*
D26*
X133731000Y-83602800D02*
X132181600Y-83602800D01*
D22*
X143698900Y-73494900D02*
X143698900Y-76733400D01*
D24*
X141211300Y-83210400D02*
X140182600Y-83210400D01*
X139180600Y-88912700D02*
X139179300Y-88911400D01*
X140335000Y-89789000D02*
X139180600Y-88912700D01*
X143587500Y-87147400D02*
X143573500Y-87161400D01*
X144526000Y-86487000D02*
X143587500Y-87147400D01*
D25*
X144780000Y-93418500D02*
X144780000Y-94996000D01*
X144727800Y-101398200D02*
X144272000Y-101854000D01*
X145726400Y-101398200D02*
X144727800Y-101398200D01*
X142494000Y-103632000D02*
X144272000Y-101854000D01*
X142494000Y-104063800D02*
X142494000Y-103632000D01*
%TO.N,Net-(C1-Pad2)*%
X143407100Y-81305600D02*
X143051700Y-81661000D01*
X143407100Y-79959200D02*
X143407100Y-81305600D01*
X145743800Y-84083700D02*
X146367500Y-84083700D01*
X144356500Y-85471000D02*
X145743800Y-84083700D01*
X143051700Y-85471000D02*
X144356500Y-85471000D01*
D26*
X145005200Y-80746600D02*
X145005200Y-81029400D01*
X144399010Y-81635590D02*
X143051700Y-81635590D01*
X145005200Y-81029400D02*
X144399010Y-81635590D01*
X145005200Y-82721400D02*
X146367500Y-84083700D01*
X145005200Y-80746600D02*
X145005200Y-82721400D01*
D25*
%TO.N,Net-(C1-Pad1)*%
X139955300Y-81661000D02*
X138151700Y-81661000D01*
X141657100Y-79959200D02*
X139955300Y-81661000D01*
%TO.N,/ROSC*%
X139456501Y-86884199D02*
X139179300Y-87161400D01*
X139456501Y-84805801D02*
X139456501Y-86884199D01*
X138851700Y-84201000D02*
X139456501Y-84805801D01*
X138151700Y-84201000D02*
X138851700Y-84201000D01*
%TO.N,Net-(JP1-Pad2)*%
X132608800Y-74456800D02*
X133971000Y-75819000D01*
X132608800Y-72440800D02*
X132608800Y-74456800D01*
%TO.N,/A1*%
X132221000Y-75819000D02*
X132221000Y-77343000D01*
X132221000Y-77343000D02*
X132221000Y-78867000D01*
X129743200Y-78867000D02*
X129565400Y-78689200D01*
X132221000Y-78867000D02*
X129743200Y-78867000D01*
%TO.N,/SCL*%
X144864200Y-99398200D02*
X145726400Y-99398200D01*
X144646590Y-96628010D02*
X144646590Y-99180590D01*
X144646590Y-99180590D02*
X144864200Y-99398200D01*
X149885400Y-91389200D02*
X144646590Y-96628010D01*
X137414000Y-103251000D02*
X137414000Y-104063800D01*
X142859106Y-100330000D02*
X140335000Y-100330000D01*
X140335000Y-100330000D02*
X137414000Y-103251000D01*
X145726400Y-99398200D02*
X143790906Y-99398200D01*
X143790906Y-99398200D02*
X142859106Y-100330000D01*
%TO.N,/SDA*%
X147878800Y-97485200D02*
X146965800Y-98398200D01*
X149885400Y-93929200D02*
X147878800Y-95935800D01*
X146965800Y-98398200D02*
X145726400Y-98398200D01*
X147878800Y-95935800D02*
X147878800Y-97485200D01*
X136028801Y-105218601D02*
X134874000Y-104063800D01*
X143898009Y-105218601D02*
X136028801Y-105218601D01*
X148475713Y-100640897D02*
X143898009Y-105218601D01*
X148475713Y-100019103D02*
X148475713Y-100640897D01*
X146854810Y-98398200D02*
X148475713Y-100019103D01*
X145726400Y-98398200D02*
X146854810Y-98398200D01*
%TO.N,/VIN*%
X133908800Y-74018200D02*
X133908800Y-72440800D01*
X137007600Y-77117000D02*
X133908800Y-74018200D01*
X137007600Y-77854500D02*
X137007600Y-77117000D01*
D22*
X135674100Y-79289600D02*
X135674100Y-81849900D01*
X137083800Y-77879900D02*
X135674100Y-79289600D01*
D26*
X136755200Y-82931000D02*
X138151700Y-82931000D01*
X135674100Y-81849900D02*
X136755200Y-82931000D01*
X132184500Y-81849900D02*
X132181600Y-81852800D01*
X135674100Y-81849900D02*
X132184500Y-81849900D01*
D22*
%TO.N,Net-(F1-Pad1)*%
X142176500Y-65366900D02*
X142176500Y-66078100D01*
X137083800Y-71170800D02*
X137083800Y-73554900D01*
X142176500Y-66078100D02*
X137083800Y-71170800D01*
D25*
%TO.N,Net-(C7-Pad1)*%
X141998700Y-88911400D02*
X143573500Y-88911400D01*
%TO.N,Net-(C8-Pad1)*%
X138151700Y-86639600D02*
X137629900Y-87161400D01*
X138151700Y-85471000D02*
X138151700Y-86639600D01*
%TO.N,Net-(R1-Pad1)*%
X141746899Y-86884199D02*
X142024100Y-87161400D01*
X141746899Y-84805801D02*
X141746899Y-86884199D01*
X142351700Y-84201000D02*
X141746899Y-84805801D01*
X143051700Y-84201000D02*
X142351700Y-84201000D01*
%TO.N,Net-(D2-Pad2)*%
X144867500Y-91200000D02*
X144780000Y-91112500D01*
X146685000Y-91200000D02*
X144867500Y-91200000D01*
%TD*%
D27*
%TO.N,GND*%
G36*
X131062320Y-99739727D02*
G01*
X131219363Y-99974759D01*
X131419241Y-100174637D01*
X131654273Y-100331680D01*
X131915426Y-100439853D01*
X132192665Y-100495000D01*
X132475335Y-100495000D01*
X132752574Y-100439853D01*
X133013727Y-100331680D01*
X133248759Y-100174637D01*
X133448637Y-99974759D01*
X133604000Y-99742241D01*
X133759363Y-99974759D01*
X133959241Y-100174637D01*
X134194273Y-100331680D01*
X134455426Y-100439853D01*
X134732665Y-100495000D01*
X135015335Y-100495000D01*
X135292574Y-100439853D01*
X135553727Y-100331680D01*
X135788759Y-100174637D01*
X135988637Y-99974759D01*
X136144000Y-99742241D01*
X136299363Y-99974759D01*
X136499241Y-100174637D01*
X136734273Y-100331680D01*
X136995426Y-100439853D01*
X137272665Y-100495000D01*
X137555335Y-100495000D01*
X137832574Y-100439853D01*
X138093727Y-100331680D01*
X138328759Y-100174637D01*
X138528637Y-99974759D01*
X138684000Y-99742241D01*
X138839363Y-99974759D01*
X139039241Y-100174637D01*
X139241600Y-100309849D01*
X136884578Y-102666872D01*
X136862757Y-102684780D01*
X136710589Y-102747810D01*
X136467368Y-102910325D01*
X136260525Y-103117168D01*
X136144000Y-103291560D01*
X136027475Y-103117168D01*
X135820632Y-102910325D01*
X135577411Y-102747810D01*
X135307158Y-102635868D01*
X135020260Y-102578800D01*
X134727740Y-102578800D01*
X134440842Y-102635868D01*
X134170589Y-102747810D01*
X133927368Y-102910325D01*
X133720525Y-103117168D01*
X133558010Y-103360389D01*
X133446068Y-103630642D01*
X133389000Y-103917540D01*
X133389000Y-104210060D01*
X133446068Y-104496958D01*
X133558010Y-104767211D01*
X133720525Y-105010432D01*
X133927368Y-105217275D01*
X134170589Y-105379790D01*
X134440842Y-105491732D01*
X134727740Y-105548800D01*
X135020260Y-105548800D01*
X135208087Y-105511439D01*
X135444682Y-105748034D01*
X135469332Y-105778070D01*
X135499368Y-105802720D01*
X135499370Y-105802722D01*
X135562856Y-105854823D01*
X135589229Y-105876467D01*
X135726018Y-105949583D01*
X135874444Y-105994607D01*
X135990128Y-106006001D01*
X135990137Y-106006001D01*
X136028800Y-106009809D01*
X136067463Y-106006001D01*
X143859346Y-106006001D01*
X143898009Y-106009809D01*
X143936672Y-106006001D01*
X143936682Y-106006001D01*
X144052366Y-105994607D01*
X144200792Y-105949583D01*
X144337581Y-105876467D01*
X144457478Y-105778070D01*
X144482137Y-105748023D01*
X148091354Y-102138806D01*
X148080392Y-102174945D01*
X148063328Y-102348199D01*
X148063328Y-103048201D01*
X148080392Y-103221455D01*
X148130928Y-103388051D01*
X148212995Y-103541587D01*
X148323438Y-103676162D01*
X148458013Y-103786605D01*
X148611549Y-103868672D01*
X148778145Y-103919208D01*
X148951399Y-103936272D01*
X150251401Y-103936272D01*
X150424655Y-103919208D01*
X150495401Y-103897748D01*
X150495401Y-106361868D01*
X150374485Y-106069950D01*
X150157251Y-105744836D01*
X149880764Y-105468349D01*
X149555650Y-105251115D01*
X149194403Y-105101482D01*
X148810905Y-105025200D01*
X148419895Y-105025200D01*
X148036397Y-105101482D01*
X147675150Y-105251115D01*
X147350036Y-105468349D01*
X147073549Y-105744836D01*
X146856315Y-106069950D01*
X146706682Y-106431197D01*
X146630400Y-106814695D01*
X146630400Y-107205705D01*
X146706682Y-107589203D01*
X146856315Y-107950450D01*
X147073549Y-108275564D01*
X147350036Y-108552051D01*
X147675150Y-108769285D01*
X148036397Y-108918918D01*
X148419895Y-108995200D01*
X148810905Y-108995200D01*
X149194403Y-108918918D01*
X149546382Y-108773124D01*
X149440981Y-108860319D01*
X149031562Y-109081691D01*
X148586935Y-109219326D01*
X148093390Y-109271200D01*
X131121678Y-109271200D01*
X130675518Y-109227454D01*
X130277401Y-109107255D01*
X129910215Y-108912019D01*
X129587939Y-108649177D01*
X129330163Y-108337578D01*
X129544636Y-108552051D01*
X129869750Y-108769285D01*
X130230997Y-108918918D01*
X130614495Y-108995200D01*
X131005505Y-108995200D01*
X131389003Y-108918918D01*
X131750250Y-108769285D01*
X132075364Y-108552051D01*
X132351851Y-108275564D01*
X132569085Y-107950450D01*
X132718718Y-107589203D01*
X132795000Y-107205705D01*
X132795000Y-106814695D01*
X132718718Y-106431197D01*
X132569085Y-106069950D01*
X132351851Y-105744836D01*
X132075364Y-105468349D01*
X131750250Y-105251115D01*
X131389003Y-105101482D01*
X131005505Y-105025200D01*
X130725979Y-105025200D01*
X130881390Y-104792611D01*
X130993332Y-104522358D01*
X131050400Y-104235460D01*
X131050400Y-103942940D01*
X130993332Y-103656042D01*
X130881390Y-103385789D01*
X130718875Y-103142568D01*
X130512032Y-102935725D01*
X130337640Y-102819200D01*
X130512032Y-102702675D01*
X130718875Y-102495832D01*
X130881390Y-102252611D01*
X130993332Y-101982358D01*
X131050400Y-101695460D01*
X131050400Y-101402940D01*
X130993332Y-101116042D01*
X130881390Y-100845789D01*
X130718875Y-100602568D01*
X130512032Y-100395725D01*
X130337640Y-100279200D01*
X130512032Y-100162675D01*
X130718875Y-99955832D01*
X130881390Y-99712611D01*
X130966239Y-99507767D01*
X131062320Y-99739727D01*
G37*
X131062320Y-99739727D02*
X131219363Y-99974759D01*
X131419241Y-100174637D01*
X131654273Y-100331680D01*
X131915426Y-100439853D01*
X132192665Y-100495000D01*
X132475335Y-100495000D01*
X132752574Y-100439853D01*
X133013727Y-100331680D01*
X133248759Y-100174637D01*
X133448637Y-99974759D01*
X133604000Y-99742241D01*
X133759363Y-99974759D01*
X133959241Y-100174637D01*
X134194273Y-100331680D01*
X134455426Y-100439853D01*
X134732665Y-100495000D01*
X135015335Y-100495000D01*
X135292574Y-100439853D01*
X135553727Y-100331680D01*
X135788759Y-100174637D01*
X135988637Y-99974759D01*
X136144000Y-99742241D01*
X136299363Y-99974759D01*
X136499241Y-100174637D01*
X136734273Y-100331680D01*
X136995426Y-100439853D01*
X137272665Y-100495000D01*
X137555335Y-100495000D01*
X137832574Y-100439853D01*
X138093727Y-100331680D01*
X138328759Y-100174637D01*
X138528637Y-99974759D01*
X138684000Y-99742241D01*
X138839363Y-99974759D01*
X139039241Y-100174637D01*
X139241600Y-100309849D01*
X136884578Y-102666872D01*
X136862757Y-102684780D01*
X136710589Y-102747810D01*
X136467368Y-102910325D01*
X136260525Y-103117168D01*
X136144000Y-103291560D01*
X136027475Y-103117168D01*
X135820632Y-102910325D01*
X135577411Y-102747810D01*
X135307158Y-102635868D01*
X135020260Y-102578800D01*
X134727740Y-102578800D01*
X134440842Y-102635868D01*
X134170589Y-102747810D01*
X133927368Y-102910325D01*
X133720525Y-103117168D01*
X133558010Y-103360389D01*
X133446068Y-103630642D01*
X133389000Y-103917540D01*
X133389000Y-104210060D01*
X133446068Y-104496958D01*
X133558010Y-104767211D01*
X133720525Y-105010432D01*
X133927368Y-105217275D01*
X134170589Y-105379790D01*
X134440842Y-105491732D01*
X134727740Y-105548800D01*
X135020260Y-105548800D01*
X135208087Y-105511439D01*
X135444682Y-105748034D01*
X135469332Y-105778070D01*
X135499368Y-105802720D01*
X135499370Y-105802722D01*
X135562856Y-105854823D01*
X135589229Y-105876467D01*
X135726018Y-105949583D01*
X135874444Y-105994607D01*
X135990128Y-106006001D01*
X135990137Y-106006001D01*
X136028800Y-106009809D01*
X136067463Y-106006001D01*
X143859346Y-106006001D01*
X143898009Y-106009809D01*
X143936672Y-106006001D01*
X143936682Y-106006001D01*
X144052366Y-105994607D01*
X144200792Y-105949583D01*
X144337581Y-105876467D01*
X144457478Y-105778070D01*
X144482137Y-105748023D01*
X148091354Y-102138806D01*
X148080392Y-102174945D01*
X148063328Y-102348199D01*
X148063328Y-103048201D01*
X148080392Y-103221455D01*
X148130928Y-103388051D01*
X148212995Y-103541587D01*
X148323438Y-103676162D01*
X148458013Y-103786605D01*
X148611549Y-103868672D01*
X148778145Y-103919208D01*
X148951399Y-103936272D01*
X150251401Y-103936272D01*
X150424655Y-103919208D01*
X150495401Y-103897748D01*
X150495401Y-106361868D01*
X150374485Y-106069950D01*
X150157251Y-105744836D01*
X149880764Y-105468349D01*
X149555650Y-105251115D01*
X149194403Y-105101482D01*
X148810905Y-105025200D01*
X148419895Y-105025200D01*
X148036397Y-105101482D01*
X147675150Y-105251115D01*
X147350036Y-105468349D01*
X147073549Y-105744836D01*
X146856315Y-106069950D01*
X146706682Y-106431197D01*
X146630400Y-106814695D01*
X146630400Y-107205705D01*
X146706682Y-107589203D01*
X146856315Y-107950450D01*
X147073549Y-108275564D01*
X147350036Y-108552051D01*
X147675150Y-108769285D01*
X148036397Y-108918918D01*
X148419895Y-108995200D01*
X148810905Y-108995200D01*
X149194403Y-108918918D01*
X149546382Y-108773124D01*
X149440981Y-108860319D01*
X149031562Y-109081691D01*
X148586935Y-109219326D01*
X148093390Y-109271200D01*
X131121678Y-109271200D01*
X130675518Y-109227454D01*
X130277401Y-109107255D01*
X129910215Y-108912019D01*
X129587939Y-108649177D01*
X129330163Y-108337578D01*
X129544636Y-108552051D01*
X129869750Y-108769285D01*
X130230997Y-108918918D01*
X130614495Y-108995200D01*
X131005505Y-108995200D01*
X131389003Y-108918918D01*
X131750250Y-108769285D01*
X132075364Y-108552051D01*
X132351851Y-108275564D01*
X132569085Y-107950450D01*
X132718718Y-107589203D01*
X132795000Y-107205705D01*
X132795000Y-106814695D01*
X132718718Y-106431197D01*
X132569085Y-106069950D01*
X132351851Y-105744836D01*
X132075364Y-105468349D01*
X131750250Y-105251115D01*
X131389003Y-105101482D01*
X131005505Y-105025200D01*
X130725979Y-105025200D01*
X130881390Y-104792611D01*
X130993332Y-104522358D01*
X131050400Y-104235460D01*
X131050400Y-103942940D01*
X130993332Y-103656042D01*
X130881390Y-103385789D01*
X130718875Y-103142568D01*
X130512032Y-102935725D01*
X130337640Y-102819200D01*
X130512032Y-102702675D01*
X130718875Y-102495832D01*
X130881390Y-102252611D01*
X130993332Y-101982358D01*
X131050400Y-101695460D01*
X131050400Y-101402940D01*
X130993332Y-101116042D01*
X130881390Y-100845789D01*
X130718875Y-100602568D01*
X130512032Y-100395725D01*
X130337640Y-100279200D01*
X130512032Y-100162675D01*
X130718875Y-99955832D01*
X130881390Y-99712611D01*
X130966239Y-99507767D01*
X131062320Y-99739727D01*
G36*
X142621000Y-103936800D02*
G01*
X142641000Y-103936800D01*
X142641000Y-104190800D01*
X142621000Y-104190800D01*
X142621000Y-104210800D01*
X142367000Y-104210800D01*
X142367000Y-104190800D01*
X142347000Y-104190800D01*
X142347000Y-103936800D01*
X142367000Y-103936800D01*
X142367000Y-103916800D01*
X142621000Y-103916800D01*
X142621000Y-103936800D01*
G37*
X142621000Y-103936800D02*
X142641000Y-103936800D01*
X142641000Y-104190800D01*
X142621000Y-104190800D01*
X142621000Y-104210800D01*
X142367000Y-104210800D01*
X142367000Y-104190800D01*
X142347000Y-104190800D01*
X142347000Y-103936800D01*
X142367000Y-103936800D01*
X142367000Y-103916800D01*
X142621000Y-103916800D01*
X142621000Y-103936800D01*
G36*
X144325588Y-101822682D02*
G01*
X144361898Y-101942380D01*
X144420863Y-102052694D01*
X144500215Y-102149385D01*
X144596906Y-102228737D01*
X144707220Y-102287702D01*
X144826918Y-102324012D01*
X144951400Y-102336272D01*
X145440650Y-102333200D01*
X145599398Y-102174452D01*
X145599398Y-102333200D01*
X145669859Y-102333200D01*
X143979000Y-104024060D01*
X143979000Y-103936798D01*
X143820252Y-103936798D01*
X143979000Y-103778050D01*
X143982072Y-103213800D01*
X143969812Y-103089318D01*
X143933502Y-102969620D01*
X143874537Y-102859306D01*
X143795185Y-102762615D01*
X143698494Y-102683263D01*
X143588180Y-102624298D01*
X143468482Y-102587988D01*
X143344000Y-102575728D01*
X143284394Y-102576053D01*
X143392687Y-102543202D01*
X143569190Y-102448860D01*
X143723896Y-102321896D01*
X143755712Y-102283128D01*
X144315777Y-101723064D01*
X144325588Y-101822682D01*
G37*
X144325588Y-101822682D02*
X144361898Y-101942380D01*
X144420863Y-102052694D01*
X144500215Y-102149385D01*
X144596906Y-102228737D01*
X144707220Y-102287702D01*
X144826918Y-102324012D01*
X144951400Y-102336272D01*
X145440650Y-102333200D01*
X145599398Y-102174452D01*
X145599398Y-102333200D01*
X145669859Y-102333200D01*
X143979000Y-104024060D01*
X143979000Y-103936798D01*
X143820252Y-103936798D01*
X143979000Y-103778050D01*
X143982072Y-103213800D01*
X143969812Y-103089318D01*
X143933502Y-102969620D01*
X143874537Y-102859306D01*
X143795185Y-102762615D01*
X143698494Y-102683263D01*
X143588180Y-102624298D01*
X143468482Y-102587988D01*
X143344000Y-102575728D01*
X143284394Y-102576053D01*
X143392687Y-102543202D01*
X143569190Y-102448860D01*
X143723896Y-102321896D01*
X143755712Y-102283128D01*
X144315777Y-101723064D01*
X144325588Y-101822682D01*
G36*
X145873400Y-101525200D02*
G01*
X145853400Y-101525200D01*
X145853400Y-101545200D01*
X145599400Y-101545200D01*
X145599400Y-101525200D01*
X145579400Y-101525200D01*
X145579400Y-101414200D01*
X145776302Y-101414200D01*
X145873400Y-101404636D01*
X145873400Y-101525200D01*
G37*
X145873400Y-101525200D02*
X145853400Y-101525200D01*
X145853400Y-101545200D01*
X145599400Y-101545200D01*
X145599400Y-101525200D01*
X145579400Y-101525200D01*
X145579400Y-101414200D01*
X145776302Y-101414200D01*
X145873400Y-101404636D01*
X145873400Y-101525200D01*
G36*
X148400400Y-94075460D02*
G01*
X148437762Y-94263288D01*
X147349378Y-95351672D01*
X147319331Y-95376331D01*
X147220934Y-95496229D01*
X147147818Y-95633018D01*
X147102794Y-95781444D01*
X147091400Y-95897128D01*
X147091400Y-95897137D01*
X147087592Y-95935800D01*
X147091400Y-95974463D01*
X147091401Y-97159048D01*
X146703390Y-97547060D01*
X146652982Y-97520116D01*
X146505145Y-97475271D01*
X146351400Y-97460128D01*
X145433990Y-97460128D01*
X145433990Y-96954160D01*
X148400400Y-93987751D01*
X148400400Y-94075460D01*
G37*
X148400400Y-94075460D02*
X148437762Y-94263288D01*
X147349378Y-95351672D01*
X147319331Y-95376331D01*
X147220934Y-95496229D01*
X147147818Y-95633018D01*
X147102794Y-95781444D01*
X147091400Y-95897128D01*
X147091400Y-95897137D01*
X147087592Y-95935800D01*
X147091400Y-95974463D01*
X147091401Y-97159048D01*
X146703390Y-97547060D01*
X146652982Y-97520116D01*
X146505145Y-97475271D01*
X146351400Y-97460128D01*
X145433990Y-97460128D01*
X145433990Y-96954160D01*
X148400400Y-93987751D01*
X148400400Y-94075460D01*
G36*
X144907000Y-93291500D02*
G01*
X144927000Y-93291500D01*
X144927000Y-93545500D01*
X144907000Y-93545500D01*
X144907000Y-94557250D01*
X145065750Y-94716000D01*
X145430000Y-94719072D01*
X145443286Y-94717763D01*
X144117168Y-96043882D01*
X144087121Y-96068541D01*
X143988724Y-96188439D01*
X143917621Y-96321461D01*
X143873853Y-96101426D01*
X143765680Y-95840273D01*
X143608637Y-95605241D01*
X143408759Y-95405363D01*
X143176241Y-95250000D01*
X143408759Y-95094637D01*
X143608637Y-94894759D01*
X143765680Y-94659727D01*
X143783804Y-94615972D01*
X143885820Y-94670502D01*
X144005518Y-94706812D01*
X144130000Y-94719072D01*
X144494250Y-94716000D01*
X144653000Y-94557250D01*
X144653000Y-93545500D01*
X144633000Y-93545500D01*
X144633000Y-93291500D01*
X144653000Y-93291500D01*
X144653000Y-93271500D01*
X144907000Y-93271500D01*
X144907000Y-93291500D01*
G37*
X144907000Y-93291500D02*
X144927000Y-93291500D01*
X144927000Y-93545500D01*
X144907000Y-93545500D01*
X144907000Y-94557250D01*
X145065750Y-94716000D01*
X145430000Y-94719072D01*
X145443286Y-94717763D01*
X144117168Y-96043882D01*
X144087121Y-96068541D01*
X143988724Y-96188439D01*
X143917621Y-96321461D01*
X143873853Y-96101426D01*
X143765680Y-95840273D01*
X143608637Y-95605241D01*
X143408759Y-95405363D01*
X143176241Y-95250000D01*
X143408759Y-95094637D01*
X143608637Y-94894759D01*
X143765680Y-94659727D01*
X143783804Y-94615972D01*
X143885820Y-94670502D01*
X144005518Y-94706812D01*
X144130000Y-94719072D01*
X144494250Y-94716000D01*
X144653000Y-94557250D01*
X144653000Y-93545500D01*
X144633000Y-93545500D01*
X144633000Y-93291500D01*
X144653000Y-93291500D01*
X144653000Y-93271500D01*
X144907000Y-93271500D01*
X144907000Y-93291500D01*
G36*
X141413628Y-81361000D02*
G01*
X141413628Y-81961000D01*
X141425888Y-82085482D01*
X141462198Y-82205180D01*
X141510743Y-82296000D01*
X141462198Y-82386820D01*
X141425888Y-82506518D01*
X141413628Y-82631000D01*
X141416700Y-82645250D01*
X141575450Y-82804000D01*
X142274109Y-82804000D01*
X142514505Y-82932494D01*
X142777840Y-83012376D01*
X142983075Y-83032590D01*
X143198700Y-83032590D01*
X143198700Y-83058000D01*
X143178700Y-83058000D01*
X143178700Y-83078000D01*
X142924700Y-83078000D01*
X142924700Y-83058000D01*
X141575450Y-83058000D01*
X141416700Y-83216750D01*
X141413628Y-83231000D01*
X141425888Y-83355482D01*
X141462198Y-83475180D01*
X141510743Y-83566000D01*
X141462198Y-83656820D01*
X141425888Y-83776518D01*
X141413628Y-83901000D01*
X141413628Y-84025522D01*
X141217476Y-84221674D01*
X141187430Y-84246332D01*
X141089033Y-84366230D01*
X141015917Y-84503019D01*
X140970893Y-84651445D01*
X140959499Y-84767129D01*
X140959499Y-84767138D01*
X140955691Y-84805801D01*
X140959499Y-84844464D01*
X140959500Y-86598755D01*
X140927852Y-86703084D01*
X140911028Y-86873900D01*
X140911028Y-87448900D01*
X140927852Y-87619716D01*
X140977677Y-87783967D01*
X141058588Y-87935342D01*
X141141525Y-88036400D01*
X141058588Y-88137458D01*
X140977677Y-88288833D01*
X140927852Y-88453084D01*
X140911028Y-88623900D01*
X140911028Y-89198900D01*
X140927852Y-89369716D01*
X140977677Y-89533967D01*
X141058588Y-89685342D01*
X141167477Y-89818023D01*
X141300158Y-89926912D01*
X141451533Y-90007823D01*
X141615784Y-90057648D01*
X141786600Y-90074472D01*
X142040842Y-90074472D01*
X141814273Y-90168320D01*
X141579241Y-90325363D01*
X141379363Y-90525241D01*
X141224000Y-90757759D01*
X141068637Y-90525241D01*
X140868759Y-90325363D01*
X140633727Y-90168320D01*
X140372574Y-90060147D01*
X140095335Y-90005000D01*
X139937584Y-90005000D01*
X140008794Y-89966937D01*
X140105485Y-89887585D01*
X140184837Y-89790894D01*
X140243802Y-89680580D01*
X140280112Y-89560882D01*
X140292372Y-89436400D01*
X140289300Y-89197150D01*
X140130550Y-89038400D01*
X139306300Y-89038400D01*
X139306300Y-89912650D01*
X139465050Y-90071400D01*
X139506629Y-90072075D01*
X139274273Y-90168320D01*
X139039241Y-90325363D01*
X138839363Y-90525241D01*
X138684000Y-90757759D01*
X138528637Y-90525241D01*
X138328759Y-90325363D01*
X138093727Y-90168320D01*
X137832574Y-90060147D01*
X137756902Y-90045095D01*
X137756902Y-89912652D01*
X137915650Y-90071400D01*
X138104900Y-90074472D01*
X138229382Y-90062212D01*
X138349080Y-90025902D01*
X138404600Y-89996225D01*
X138460120Y-90025902D01*
X138579818Y-90062212D01*
X138704300Y-90074472D01*
X138893550Y-90071400D01*
X139052300Y-89912650D01*
X139052300Y-89038400D01*
X137756900Y-89038400D01*
X137756900Y-89058400D01*
X137502900Y-89058400D01*
X137502900Y-89038400D01*
X136678650Y-89038400D01*
X136519900Y-89197150D01*
X136516828Y-89436400D01*
X136529088Y-89560882D01*
X136565398Y-89680580D01*
X136624363Y-89790894D01*
X136703715Y-89887585D01*
X136800406Y-89966937D01*
X136910720Y-90025902D01*
X137012448Y-90056761D01*
X136995426Y-90060147D01*
X136734273Y-90168320D01*
X136499241Y-90325363D01*
X136299363Y-90525241D01*
X136144000Y-90757759D01*
X135988637Y-90525241D01*
X135788759Y-90325363D01*
X135553727Y-90168320D01*
X135292574Y-90060147D01*
X135015335Y-90005000D01*
X134732665Y-90005000D01*
X134455426Y-90060147D01*
X134194273Y-90168320D01*
X133959241Y-90325363D01*
X133759363Y-90525241D01*
X133610889Y-90747449D01*
X133605680Y-90734873D01*
X133448637Y-90499841D01*
X133248759Y-90299963D01*
X133013727Y-90142920D01*
X132752574Y-90034747D01*
X132475335Y-89979600D01*
X132192665Y-89979600D01*
X131915426Y-90034747D01*
X131654273Y-90142920D01*
X131419241Y-90299963D01*
X131219363Y-90499841D01*
X131062320Y-90734873D01*
X130982020Y-90928733D01*
X130881390Y-90685789D01*
X130718875Y-90442568D01*
X130512032Y-90235725D01*
X130337640Y-90119200D01*
X130512032Y-90002675D01*
X130718875Y-89795832D01*
X130881390Y-89552611D01*
X130993332Y-89282358D01*
X131050400Y-88995460D01*
X131050400Y-88702940D01*
X130993332Y-88416042D01*
X130881390Y-88145789D01*
X130718875Y-87902568D01*
X130512032Y-87695725D01*
X130337640Y-87579200D01*
X130512032Y-87462675D01*
X130718875Y-87255832D01*
X130881390Y-87012611D01*
X130993332Y-86742358D01*
X131050400Y-86455460D01*
X131050400Y-86162940D01*
X130993332Y-85876042D01*
X130881390Y-85605789D01*
X130835694Y-85537400D01*
X134161028Y-85537400D01*
X134173288Y-85661882D01*
X134209598Y-85781580D01*
X134268563Y-85891894D01*
X134347915Y-85988585D01*
X134444606Y-86067937D01*
X134554920Y-86126902D01*
X134674618Y-86163212D01*
X134799100Y-86175472D01*
X135388350Y-86172400D01*
X135547100Y-86013650D01*
X135547100Y-84951900D01*
X134322850Y-84951900D01*
X134164100Y-85110650D01*
X134161028Y-85537400D01*
X130835694Y-85537400D01*
X130718875Y-85362568D01*
X130512032Y-85155725D01*
X130337640Y-85039200D01*
X130512032Y-84922675D01*
X130718875Y-84715832D01*
X130881390Y-84472611D01*
X130993332Y-84202358D01*
X131008162Y-84127800D01*
X131068528Y-84127800D01*
X131080788Y-84252282D01*
X131117098Y-84371980D01*
X131176063Y-84482294D01*
X131255415Y-84578985D01*
X131352106Y-84658337D01*
X131462420Y-84717302D01*
X131582118Y-84753612D01*
X131706600Y-84765872D01*
X131895850Y-84762800D01*
X132054600Y-84604050D01*
X132054600Y-83729800D01*
X132308600Y-83729800D01*
X132308600Y-84604050D01*
X132467350Y-84762800D01*
X132656600Y-84765872D01*
X132781082Y-84753612D01*
X132900780Y-84717302D01*
X132956300Y-84687625D01*
X133011820Y-84717302D01*
X133131518Y-84753612D01*
X133256000Y-84765872D01*
X133445250Y-84762800D01*
X133604000Y-84604050D01*
X133604000Y-83729800D01*
X132308600Y-83729800D01*
X132054600Y-83729800D01*
X131230350Y-83729800D01*
X131071600Y-83888550D01*
X131068528Y-84127800D01*
X131008162Y-84127800D01*
X131050400Y-83915460D01*
X131050400Y-83622940D01*
X130993332Y-83336042D01*
X130881390Y-83065789D01*
X130718875Y-82822568D01*
X130512032Y-82615725D01*
X130337640Y-82499200D01*
X130512032Y-82382675D01*
X130718875Y-82175832D01*
X130797995Y-82057421D01*
X130804814Y-82126659D01*
X130884697Y-82389995D01*
X131014418Y-82632686D01*
X131141640Y-82787707D01*
X131117098Y-82833620D01*
X131080788Y-82953318D01*
X131068528Y-83077800D01*
X131071600Y-83317050D01*
X131230350Y-83475800D01*
X132054600Y-83475800D01*
X132054600Y-83455800D01*
X132308600Y-83455800D01*
X132308600Y-83475800D01*
X133604000Y-83475800D01*
X133604000Y-83455800D01*
X133858000Y-83455800D01*
X133858000Y-83475800D01*
X133878000Y-83475800D01*
X133878000Y-83729800D01*
X133858000Y-83729800D01*
X133858000Y-84604050D01*
X134016750Y-84762800D01*
X134206000Y-84765872D01*
X134330482Y-84753612D01*
X134450180Y-84717302D01*
X134486478Y-84697900D01*
X135547100Y-84697900D01*
X135547100Y-84677900D01*
X135801100Y-84677900D01*
X135801100Y-84697900D01*
X135821100Y-84697900D01*
X135821100Y-84951900D01*
X135801100Y-84951900D01*
X135801100Y-86013650D01*
X135959850Y-86172400D01*
X136549100Y-86175472D01*
X136653722Y-86165168D01*
X136700515Y-86222185D01*
X136759976Y-86270984D01*
X136664388Y-86387458D01*
X136583477Y-86538833D01*
X136533652Y-86703084D01*
X136516828Y-86873900D01*
X136516828Y-87448900D01*
X136533652Y-87619716D01*
X136583477Y-87783967D01*
X136664388Y-87935342D01*
X136683999Y-87959239D01*
X136624363Y-88031906D01*
X136565398Y-88142220D01*
X136529088Y-88261918D01*
X136516828Y-88386400D01*
X136519900Y-88625650D01*
X136678650Y-88784400D01*
X137502900Y-88784400D01*
X137502900Y-88764400D01*
X137756900Y-88764400D01*
X137756900Y-88784400D01*
X139052300Y-88784400D01*
X139052300Y-88764400D01*
X139306300Y-88764400D01*
X139306300Y-88784400D01*
X140130550Y-88784400D01*
X140289300Y-88625650D01*
X140292372Y-88386400D01*
X140280112Y-88261918D01*
X140243802Y-88142220D01*
X140184837Y-88031906D01*
X140125201Y-87959239D01*
X140144812Y-87935342D01*
X140225723Y-87783967D01*
X140275548Y-87619716D01*
X140292372Y-87448900D01*
X140292372Y-86873900D01*
X140275548Y-86703084D01*
X140243901Y-86598758D01*
X140243901Y-84844466D01*
X140247709Y-84805801D01*
X140243901Y-84767135D01*
X140243901Y-84767128D01*
X140232507Y-84651444D01*
X140229210Y-84640573D01*
X140187483Y-84503018D01*
X140114367Y-84366228D01*
X140040622Y-84276371D01*
X140015970Y-84246332D01*
X139985930Y-84221679D01*
X139789772Y-84025521D01*
X139789772Y-83901000D01*
X139777512Y-83776518D01*
X139741202Y-83656820D01*
X139692657Y-83566000D01*
X139741202Y-83475180D01*
X139777512Y-83355482D01*
X139789772Y-83231000D01*
X139789772Y-82631000D01*
X139777512Y-82506518D01*
X139759882Y-82448400D01*
X139916637Y-82448400D01*
X139955300Y-82452208D01*
X139993963Y-82448400D01*
X139993973Y-82448400D01*
X140109657Y-82437006D01*
X140258083Y-82391982D01*
X140394872Y-82318866D01*
X140514769Y-82220469D01*
X140539427Y-82190423D01*
X141418520Y-81311331D01*
X141413628Y-81361000D01*
G37*
X141413628Y-81361000D02*
X141413628Y-81961000D01*
X141425888Y-82085482D01*
X141462198Y-82205180D01*
X141510743Y-82296000D01*
X141462198Y-82386820D01*
X141425888Y-82506518D01*
X141413628Y-82631000D01*
X141416700Y-82645250D01*
X141575450Y-82804000D01*
X142274109Y-82804000D01*
X142514505Y-82932494D01*
X142777840Y-83012376D01*
X142983075Y-83032590D01*
X143198700Y-83032590D01*
X143198700Y-83058000D01*
X143178700Y-83058000D01*
X143178700Y-83078000D01*
X142924700Y-83078000D01*
X142924700Y-83058000D01*
X141575450Y-83058000D01*
X141416700Y-83216750D01*
X141413628Y-83231000D01*
X141425888Y-83355482D01*
X141462198Y-83475180D01*
X141510743Y-83566000D01*
X141462198Y-83656820D01*
X141425888Y-83776518D01*
X141413628Y-83901000D01*
X141413628Y-84025522D01*
X141217476Y-84221674D01*
X141187430Y-84246332D01*
X141089033Y-84366230D01*
X141015917Y-84503019D01*
X140970893Y-84651445D01*
X140959499Y-84767129D01*
X140959499Y-84767138D01*
X140955691Y-84805801D01*
X140959499Y-84844464D01*
X140959500Y-86598755D01*
X140927852Y-86703084D01*
X140911028Y-86873900D01*
X140911028Y-87448900D01*
X140927852Y-87619716D01*
X140977677Y-87783967D01*
X141058588Y-87935342D01*
X141141525Y-88036400D01*
X141058588Y-88137458D01*
X140977677Y-88288833D01*
X140927852Y-88453084D01*
X140911028Y-88623900D01*
X140911028Y-89198900D01*
X140927852Y-89369716D01*
X140977677Y-89533967D01*
X141058588Y-89685342D01*
X141167477Y-89818023D01*
X141300158Y-89926912D01*
X141451533Y-90007823D01*
X141615784Y-90057648D01*
X141786600Y-90074472D01*
X142040842Y-90074472D01*
X141814273Y-90168320D01*
X141579241Y-90325363D01*
X141379363Y-90525241D01*
X141224000Y-90757759D01*
X141068637Y-90525241D01*
X140868759Y-90325363D01*
X140633727Y-90168320D01*
X140372574Y-90060147D01*
X140095335Y-90005000D01*
X139937584Y-90005000D01*
X140008794Y-89966937D01*
X140105485Y-89887585D01*
X140184837Y-89790894D01*
X140243802Y-89680580D01*
X140280112Y-89560882D01*
X140292372Y-89436400D01*
X140289300Y-89197150D01*
X140130550Y-89038400D01*
X139306300Y-89038400D01*
X139306300Y-89912650D01*
X139465050Y-90071400D01*
X139506629Y-90072075D01*
X139274273Y-90168320D01*
X139039241Y-90325363D01*
X138839363Y-90525241D01*
X138684000Y-90757759D01*
X138528637Y-90525241D01*
X138328759Y-90325363D01*
X138093727Y-90168320D01*
X137832574Y-90060147D01*
X137756902Y-90045095D01*
X137756902Y-89912652D01*
X137915650Y-90071400D01*
X138104900Y-90074472D01*
X138229382Y-90062212D01*
X138349080Y-90025902D01*
X138404600Y-89996225D01*
X138460120Y-90025902D01*
X138579818Y-90062212D01*
X138704300Y-90074472D01*
X138893550Y-90071400D01*
X139052300Y-89912650D01*
X139052300Y-89038400D01*
X137756900Y-89038400D01*
X137756900Y-89058400D01*
X137502900Y-89058400D01*
X137502900Y-89038400D01*
X136678650Y-89038400D01*
X136519900Y-89197150D01*
X136516828Y-89436400D01*
X136529088Y-89560882D01*
X136565398Y-89680580D01*
X136624363Y-89790894D01*
X136703715Y-89887585D01*
X136800406Y-89966937D01*
X136910720Y-90025902D01*
X137012448Y-90056761D01*
X136995426Y-90060147D01*
X136734273Y-90168320D01*
X136499241Y-90325363D01*
X136299363Y-90525241D01*
X136144000Y-90757759D01*
X135988637Y-90525241D01*
X135788759Y-90325363D01*
X135553727Y-90168320D01*
X135292574Y-90060147D01*
X135015335Y-90005000D01*
X134732665Y-90005000D01*
X134455426Y-90060147D01*
X134194273Y-90168320D01*
X133959241Y-90325363D01*
X133759363Y-90525241D01*
X133610889Y-90747449D01*
X133605680Y-90734873D01*
X133448637Y-90499841D01*
X133248759Y-90299963D01*
X133013727Y-90142920D01*
X132752574Y-90034747D01*
X132475335Y-89979600D01*
X132192665Y-89979600D01*
X131915426Y-90034747D01*
X131654273Y-90142920D01*
X131419241Y-90299963D01*
X131219363Y-90499841D01*
X131062320Y-90734873D01*
X130982020Y-90928733D01*
X130881390Y-90685789D01*
X130718875Y-90442568D01*
X130512032Y-90235725D01*
X130337640Y-90119200D01*
X130512032Y-90002675D01*
X130718875Y-89795832D01*
X130881390Y-89552611D01*
X130993332Y-89282358D01*
X131050400Y-88995460D01*
X131050400Y-88702940D01*
X130993332Y-88416042D01*
X130881390Y-88145789D01*
X130718875Y-87902568D01*
X130512032Y-87695725D01*
X130337640Y-87579200D01*
X130512032Y-87462675D01*
X130718875Y-87255832D01*
X130881390Y-87012611D01*
X130993332Y-86742358D01*
X131050400Y-86455460D01*
X131050400Y-86162940D01*
X130993332Y-85876042D01*
X130881390Y-85605789D01*
X130835694Y-85537400D01*
X134161028Y-85537400D01*
X134173288Y-85661882D01*
X134209598Y-85781580D01*
X134268563Y-85891894D01*
X134347915Y-85988585D01*
X134444606Y-86067937D01*
X134554920Y-86126902D01*
X134674618Y-86163212D01*
X134799100Y-86175472D01*
X135388350Y-86172400D01*
X135547100Y-86013650D01*
X135547100Y-84951900D01*
X134322850Y-84951900D01*
X134164100Y-85110650D01*
X134161028Y-85537400D01*
X130835694Y-85537400D01*
X130718875Y-85362568D01*
X130512032Y-85155725D01*
X130337640Y-85039200D01*
X130512032Y-84922675D01*
X130718875Y-84715832D01*
X130881390Y-84472611D01*
X130993332Y-84202358D01*
X131008162Y-84127800D01*
X131068528Y-84127800D01*
X131080788Y-84252282D01*
X131117098Y-84371980D01*
X131176063Y-84482294D01*
X131255415Y-84578985D01*
X131352106Y-84658337D01*
X131462420Y-84717302D01*
X131582118Y-84753612D01*
X131706600Y-84765872D01*
X131895850Y-84762800D01*
X132054600Y-84604050D01*
X132054600Y-83729800D01*
X132308600Y-83729800D01*
X132308600Y-84604050D01*
X132467350Y-84762800D01*
X132656600Y-84765872D01*
X132781082Y-84753612D01*
X132900780Y-84717302D01*
X132956300Y-84687625D01*
X133011820Y-84717302D01*
X133131518Y-84753612D01*
X133256000Y-84765872D01*
X133445250Y-84762800D01*
X133604000Y-84604050D01*
X133604000Y-83729800D01*
X132308600Y-83729800D01*
X132054600Y-83729800D01*
X131230350Y-83729800D01*
X131071600Y-83888550D01*
X131068528Y-84127800D01*
X131008162Y-84127800D01*
X131050400Y-83915460D01*
X131050400Y-83622940D01*
X130993332Y-83336042D01*
X130881390Y-83065789D01*
X130718875Y-82822568D01*
X130512032Y-82615725D01*
X130337640Y-82499200D01*
X130512032Y-82382675D01*
X130718875Y-82175832D01*
X130797995Y-82057421D01*
X130804814Y-82126659D01*
X130884697Y-82389995D01*
X131014418Y-82632686D01*
X131141640Y-82787707D01*
X131117098Y-82833620D01*
X131080788Y-82953318D01*
X131068528Y-83077800D01*
X131071600Y-83317050D01*
X131230350Y-83475800D01*
X132054600Y-83475800D01*
X132054600Y-83455800D01*
X132308600Y-83455800D01*
X132308600Y-83475800D01*
X133604000Y-83475800D01*
X133604000Y-83455800D01*
X133858000Y-83455800D01*
X133858000Y-83475800D01*
X133878000Y-83475800D01*
X133878000Y-83729800D01*
X133858000Y-83729800D01*
X133858000Y-84604050D01*
X134016750Y-84762800D01*
X134206000Y-84765872D01*
X134330482Y-84753612D01*
X134450180Y-84717302D01*
X134486478Y-84697900D01*
X135547100Y-84697900D01*
X135547100Y-84677900D01*
X135801100Y-84677900D01*
X135801100Y-84697900D01*
X135821100Y-84697900D01*
X135821100Y-84951900D01*
X135801100Y-84951900D01*
X135801100Y-86013650D01*
X135959850Y-86172400D01*
X136549100Y-86175472D01*
X136653722Y-86165168D01*
X136700515Y-86222185D01*
X136759976Y-86270984D01*
X136664388Y-86387458D01*
X136583477Y-86538833D01*
X136533652Y-86703084D01*
X136516828Y-86873900D01*
X136516828Y-87448900D01*
X136533652Y-87619716D01*
X136583477Y-87783967D01*
X136664388Y-87935342D01*
X136683999Y-87959239D01*
X136624363Y-88031906D01*
X136565398Y-88142220D01*
X136529088Y-88261918D01*
X136516828Y-88386400D01*
X136519900Y-88625650D01*
X136678650Y-88784400D01*
X137502900Y-88784400D01*
X137502900Y-88764400D01*
X137756900Y-88764400D01*
X137756900Y-88784400D01*
X139052300Y-88784400D01*
X139052300Y-88764400D01*
X139306300Y-88764400D01*
X139306300Y-88784400D01*
X140130550Y-88784400D01*
X140289300Y-88625650D01*
X140292372Y-88386400D01*
X140280112Y-88261918D01*
X140243802Y-88142220D01*
X140184837Y-88031906D01*
X140125201Y-87959239D01*
X140144812Y-87935342D01*
X140225723Y-87783967D01*
X140275548Y-87619716D01*
X140292372Y-87448900D01*
X140292372Y-86873900D01*
X140275548Y-86703084D01*
X140243901Y-86598758D01*
X140243901Y-84844466D01*
X140247709Y-84805801D01*
X140243901Y-84767135D01*
X140243901Y-84767128D01*
X140232507Y-84651444D01*
X140229210Y-84640573D01*
X140187483Y-84503018D01*
X140114367Y-84366228D01*
X140040622Y-84276371D01*
X140015970Y-84246332D01*
X139985930Y-84221679D01*
X139789772Y-84025521D01*
X139789772Y-83901000D01*
X139777512Y-83776518D01*
X139741202Y-83656820D01*
X139692657Y-83566000D01*
X139741202Y-83475180D01*
X139777512Y-83355482D01*
X139789772Y-83231000D01*
X139789772Y-82631000D01*
X139777512Y-82506518D01*
X139759882Y-82448400D01*
X139916637Y-82448400D01*
X139955300Y-82452208D01*
X139993963Y-82448400D01*
X139993973Y-82448400D01*
X140109657Y-82437006D01*
X140258083Y-82391982D01*
X140394872Y-82318866D01*
X140514769Y-82220469D01*
X140539427Y-82190423D01*
X141418520Y-81311331D01*
X141413628Y-81361000D01*
G36*
X145830304Y-85380603D02*
G01*
X146093640Y-85460486D01*
X146367499Y-85487459D01*
X146641359Y-85460486D01*
X146904695Y-85380603D01*
X147040601Y-85307960D01*
X147040601Y-85707752D01*
X146917500Y-85695628D01*
X146653250Y-85698700D01*
X146494500Y-85857450D01*
X146494500Y-86756700D01*
X146514500Y-86756700D01*
X146514500Y-87010700D01*
X146494500Y-87010700D01*
X146494500Y-87909950D01*
X146653250Y-88068700D01*
X146917500Y-88071772D01*
X147040600Y-88059648D01*
X147040600Y-90048560D01*
X146922500Y-90036928D01*
X146447500Y-90036928D01*
X146276684Y-90053752D01*
X146112433Y-90103577D01*
X145961058Y-90184488D01*
X145828377Y-90293377D01*
X145741864Y-90398793D01*
X145673386Y-90342595D01*
X145519850Y-90260528D01*
X145353254Y-90209992D01*
X145180000Y-90192928D01*
X144380000Y-90192928D01*
X144206746Y-90209992D01*
X144040150Y-90260528D01*
X143886614Y-90342595D01*
X143752038Y-90453038D01*
X143646401Y-90581758D01*
X143608637Y-90525241D01*
X143408759Y-90325363D01*
X143173727Y-90168320D01*
X142912574Y-90060147D01*
X142635335Y-90005000D01*
X142601949Y-90005000D01*
X142748042Y-89926912D01*
X142798800Y-89885256D01*
X142849558Y-89926912D01*
X143000933Y-90007823D01*
X143165184Y-90057648D01*
X143336000Y-90074472D01*
X143811000Y-90074472D01*
X143981816Y-90057648D01*
X144146067Y-90007823D01*
X144297442Y-89926912D01*
X144430123Y-89818023D01*
X144539012Y-89685342D01*
X144619923Y-89533967D01*
X144669748Y-89369716D01*
X144686572Y-89198900D01*
X144686572Y-88623900D01*
X144669748Y-88453084D01*
X144619923Y-88288833D01*
X144539012Y-88137458D01*
X144519401Y-88113561D01*
X144579037Y-88040894D01*
X144638002Y-87930580D01*
X144674312Y-87810882D01*
X144686572Y-87686400D01*
X144683500Y-87447150D01*
X144670050Y-87433700D01*
X145179428Y-87433700D01*
X145191688Y-87558182D01*
X145227998Y-87677880D01*
X145286963Y-87788194D01*
X145366315Y-87884885D01*
X145463006Y-87964237D01*
X145573320Y-88023202D01*
X145693018Y-88059512D01*
X145817500Y-88071772D01*
X146081750Y-88068700D01*
X146240500Y-87909950D01*
X146240500Y-87010700D01*
X145341250Y-87010700D01*
X145182500Y-87169450D01*
X145179428Y-87433700D01*
X144670050Y-87433700D01*
X144524750Y-87288400D01*
X143700500Y-87288400D01*
X143700500Y-87308400D01*
X143446500Y-87308400D01*
X143446500Y-87288400D01*
X143426500Y-87288400D01*
X143426500Y-87034400D01*
X143446500Y-87034400D01*
X143446500Y-87014400D01*
X143700500Y-87014400D01*
X143700500Y-87034400D01*
X144524750Y-87034400D01*
X144683500Y-86875650D01*
X144686572Y-86636400D01*
X144674312Y-86511918D01*
X144638002Y-86392220D01*
X144606722Y-86333700D01*
X145179428Y-86333700D01*
X145182500Y-86597950D01*
X145341250Y-86756700D01*
X146240500Y-86756700D01*
X146240500Y-85857450D01*
X146081750Y-85698700D01*
X145817500Y-85695628D01*
X145693018Y-85707888D01*
X145573320Y-85744198D01*
X145463006Y-85803163D01*
X145366315Y-85882515D01*
X145286963Y-85979206D01*
X145227998Y-86089520D01*
X145191688Y-86209218D01*
X145179428Y-86333700D01*
X144606722Y-86333700D01*
X144579037Y-86281906D01*
X144542514Y-86237403D01*
X144659283Y-86201982D01*
X144796072Y-86128866D01*
X144915969Y-86030469D01*
X144940627Y-86000423D01*
X145654446Y-85286605D01*
X145830304Y-85380603D01*
G37*
X145830304Y-85380603D02*
X146093640Y-85460486D01*
X146367499Y-85487459D01*
X146641359Y-85460486D01*
X146904695Y-85380603D01*
X147040601Y-85307960D01*
X147040601Y-85707752D01*
X146917500Y-85695628D01*
X146653250Y-85698700D01*
X146494500Y-85857450D01*
X146494500Y-86756700D01*
X146514500Y-86756700D01*
X146514500Y-87010700D01*
X146494500Y-87010700D01*
X146494500Y-87909950D01*
X146653250Y-88068700D01*
X146917500Y-88071772D01*
X147040600Y-88059648D01*
X147040600Y-90048560D01*
X146922500Y-90036928D01*
X146447500Y-90036928D01*
X146276684Y-90053752D01*
X146112433Y-90103577D01*
X145961058Y-90184488D01*
X145828377Y-90293377D01*
X145741864Y-90398793D01*
X145673386Y-90342595D01*
X145519850Y-90260528D01*
X145353254Y-90209992D01*
X145180000Y-90192928D01*
X144380000Y-90192928D01*
X144206746Y-90209992D01*
X144040150Y-90260528D01*
X143886614Y-90342595D01*
X143752038Y-90453038D01*
X143646401Y-90581758D01*
X143608637Y-90525241D01*
X143408759Y-90325363D01*
X143173727Y-90168320D01*
X142912574Y-90060147D01*
X142635335Y-90005000D01*
X142601949Y-90005000D01*
X142748042Y-89926912D01*
X142798800Y-89885256D01*
X142849558Y-89926912D01*
X143000933Y-90007823D01*
X143165184Y-90057648D01*
X143336000Y-90074472D01*
X143811000Y-90074472D01*
X143981816Y-90057648D01*
X144146067Y-90007823D01*
X144297442Y-89926912D01*
X144430123Y-89818023D01*
X144539012Y-89685342D01*
X144619923Y-89533967D01*
X144669748Y-89369716D01*
X144686572Y-89198900D01*
X144686572Y-88623900D01*
X144669748Y-88453084D01*
X144619923Y-88288833D01*
X144539012Y-88137458D01*
X144519401Y-88113561D01*
X144579037Y-88040894D01*
X144638002Y-87930580D01*
X144674312Y-87810882D01*
X144686572Y-87686400D01*
X144683500Y-87447150D01*
X144670050Y-87433700D01*
X145179428Y-87433700D01*
X145191688Y-87558182D01*
X145227998Y-87677880D01*
X145286963Y-87788194D01*
X145366315Y-87884885D01*
X145463006Y-87964237D01*
X145573320Y-88023202D01*
X145693018Y-88059512D01*
X145817500Y-88071772D01*
X146081750Y-88068700D01*
X146240500Y-87909950D01*
X146240500Y-87010700D01*
X145341250Y-87010700D01*
X145182500Y-87169450D01*
X145179428Y-87433700D01*
X144670050Y-87433700D01*
X144524750Y-87288400D01*
X143700500Y-87288400D01*
X143700500Y-87308400D01*
X143446500Y-87308400D01*
X143446500Y-87288400D01*
X143426500Y-87288400D01*
X143426500Y-87034400D01*
X143446500Y-87034400D01*
X143446500Y-87014400D01*
X143700500Y-87014400D01*
X143700500Y-87034400D01*
X144524750Y-87034400D01*
X144683500Y-86875650D01*
X144686572Y-86636400D01*
X144674312Y-86511918D01*
X144638002Y-86392220D01*
X144606722Y-86333700D01*
X145179428Y-86333700D01*
X145182500Y-86597950D01*
X145341250Y-86756700D01*
X146240500Y-86756700D01*
X146240500Y-85857450D01*
X146081750Y-85698700D01*
X145817500Y-85695628D01*
X145693018Y-85707888D01*
X145573320Y-85744198D01*
X145463006Y-85803163D01*
X145366315Y-85882515D01*
X145286963Y-85979206D01*
X145227998Y-86089520D01*
X145191688Y-86209218D01*
X145179428Y-86333700D01*
X144606722Y-86333700D01*
X144579037Y-86281906D01*
X144542514Y-86237403D01*
X144659283Y-86201982D01*
X144796072Y-86128866D01*
X144915969Y-86030469D01*
X144940627Y-86000423D01*
X145654446Y-85286605D01*
X145830304Y-85380603D01*
G36*
X134098000Y-77216000D02*
G01*
X134118000Y-77216000D01*
X134118000Y-77470000D01*
X134098000Y-77470000D01*
X134098000Y-78740000D01*
X134118000Y-78740000D01*
X134118000Y-78994000D01*
X134098000Y-78994000D01*
X134098000Y-79818250D01*
X134124700Y-79844950D01*
X134124700Y-80452900D01*
X132253124Y-80452900D01*
X132184499Y-80446141D01*
X132115875Y-80452900D01*
X131910640Y-80473114D01*
X131647305Y-80552996D01*
X131404613Y-80682717D01*
X131191892Y-80857292D01*
X131148136Y-80910609D01*
X131145247Y-80913498D01*
X131041775Y-81039579D01*
X130993332Y-80796042D01*
X130881390Y-80525789D01*
X130718875Y-80282568D01*
X130512032Y-80075725D01*
X130337640Y-79959200D01*
X130512032Y-79842675D01*
X130700307Y-79654400D01*
X131257567Y-79654400D01*
X131314377Y-79723623D01*
X131447058Y-79832512D01*
X131598433Y-79913423D01*
X131762684Y-79963248D01*
X131933500Y-79980072D01*
X132508500Y-79980072D01*
X132679316Y-79963248D01*
X132843567Y-79913423D01*
X132994942Y-79832512D01*
X133018839Y-79812901D01*
X133091506Y-79872537D01*
X133201820Y-79931502D01*
X133321518Y-79967812D01*
X133446000Y-79980072D01*
X133685250Y-79977000D01*
X133844000Y-79818250D01*
X133844000Y-78994000D01*
X133824000Y-78994000D01*
X133824000Y-78740000D01*
X133844000Y-78740000D01*
X133844000Y-77470000D01*
X133824000Y-77470000D01*
X133824000Y-77216000D01*
X133844000Y-77216000D01*
X133844000Y-77196000D01*
X134098000Y-77196000D01*
X134098000Y-77216000D01*
G37*
X134098000Y-77216000D02*
X134118000Y-77216000D01*
X134118000Y-77470000D01*
X134098000Y-77470000D01*
X134098000Y-78740000D01*
X134118000Y-78740000D01*
X134118000Y-78994000D01*
X134098000Y-78994000D01*
X134098000Y-79818250D01*
X134124700Y-79844950D01*
X134124700Y-80452900D01*
X132253124Y-80452900D01*
X132184499Y-80446141D01*
X132115875Y-80452900D01*
X131910640Y-80473114D01*
X131647305Y-80552996D01*
X131404613Y-80682717D01*
X131191892Y-80857292D01*
X131148136Y-80910609D01*
X131145247Y-80913498D01*
X131041775Y-81039579D01*
X130993332Y-80796042D01*
X130881390Y-80525789D01*
X130718875Y-80282568D01*
X130512032Y-80075725D01*
X130337640Y-79959200D01*
X130512032Y-79842675D01*
X130700307Y-79654400D01*
X131257567Y-79654400D01*
X131314377Y-79723623D01*
X131447058Y-79832512D01*
X131598433Y-79913423D01*
X131762684Y-79963248D01*
X131933500Y-79980072D01*
X132508500Y-79980072D01*
X132679316Y-79963248D01*
X132843567Y-79913423D01*
X132994942Y-79832512D01*
X133018839Y-79812901D01*
X133091506Y-79872537D01*
X133201820Y-79931502D01*
X133321518Y-79967812D01*
X133446000Y-79980072D01*
X133685250Y-79977000D01*
X133844000Y-79818250D01*
X133844000Y-78994000D01*
X133824000Y-78994000D01*
X133824000Y-78740000D01*
X133844000Y-78740000D01*
X133844000Y-77470000D01*
X133824000Y-77470000D01*
X133824000Y-77216000D01*
X133844000Y-77216000D01*
X133844000Y-77196000D01*
X134098000Y-77196000D01*
X134098000Y-77216000D01*
G36*
X145994282Y-59923827D02*
G01*
X145703751Y-60468757D01*
X145525113Y-61059896D01*
X145465232Y-61674528D01*
X145526410Y-62289031D01*
X145706297Y-62879792D01*
X145994282Y-63418573D01*
X146412252Y-63694743D01*
X148435795Y-61671200D01*
X148421653Y-61657058D01*
X148601258Y-61477453D01*
X148615400Y-61491595D01*
X148629543Y-61477453D01*
X148809148Y-61657058D01*
X148795005Y-61671200D01*
X148809148Y-61685343D01*
X148629543Y-61864948D01*
X148615400Y-61850805D01*
X146591857Y-63874348D01*
X146868027Y-64292318D01*
X147412957Y-64582849D01*
X148004096Y-64761487D01*
X148491873Y-64809009D01*
X148445898Y-64895020D01*
X148409588Y-65014718D01*
X148397328Y-65139200D01*
X148397328Y-66839200D01*
X148409588Y-66963682D01*
X148445898Y-67083380D01*
X148504863Y-67193694D01*
X148584215Y-67290385D01*
X148680906Y-67369737D01*
X148791220Y-67428702D01*
X148863780Y-67450713D01*
X148731925Y-67582568D01*
X148569410Y-67825789D01*
X148457468Y-68096042D01*
X148400400Y-68382940D01*
X148400400Y-68675460D01*
X148457468Y-68962358D01*
X148569410Y-69232611D01*
X148731925Y-69475832D01*
X148938768Y-69682675D01*
X149113160Y-69799200D01*
X148938768Y-69915725D01*
X148731925Y-70122568D01*
X148569410Y-70365789D01*
X148457468Y-70636042D01*
X148400400Y-70922940D01*
X148400400Y-71215460D01*
X148457468Y-71502358D01*
X148569410Y-71772611D01*
X148684931Y-71945500D01*
X147884953Y-71945500D01*
X147874805Y-71926514D01*
X147764362Y-71791938D01*
X147629786Y-71681495D01*
X147476250Y-71599428D01*
X147309654Y-71548892D01*
X147136400Y-71531828D01*
X146211400Y-71531828D01*
X146038146Y-71548892D01*
X145871550Y-71599428D01*
X145718014Y-71681495D01*
X145583438Y-71791938D01*
X145472995Y-71926514D01*
X145390928Y-72080050D01*
X145340392Y-72246646D01*
X145323328Y-72419900D01*
X145323328Y-72734816D01*
X145235516Y-72899102D01*
X145146919Y-73191165D01*
X145117004Y-73494900D01*
X145124501Y-73571019D01*
X145124500Y-76657293D01*
X145117004Y-76733400D01*
X145124500Y-76809506D01*
X145124500Y-76809508D01*
X145146919Y-77037134D01*
X145235516Y-77329197D01*
X145323328Y-77493483D01*
X145323328Y-77808400D01*
X145333190Y-77908528D01*
X145049029Y-77908528D01*
X145046400Y-77019150D01*
X144887650Y-76860400D01*
X143825900Y-76860400D01*
X143825900Y-78534650D01*
X143867128Y-78575878D01*
X143867128Y-78863471D01*
X143865416Y-78862952D01*
X143694600Y-78846128D01*
X143119600Y-78846128D01*
X142948784Y-78862952D01*
X142784533Y-78912777D01*
X142633158Y-78993688D01*
X142532100Y-79076625D01*
X142431042Y-78993688D01*
X142279667Y-78912777D01*
X142115416Y-78862952D01*
X141944600Y-78846128D01*
X141369600Y-78846128D01*
X141198784Y-78862952D01*
X141034533Y-78912777D01*
X140883158Y-78993688D01*
X140750477Y-79102577D01*
X140641588Y-79235258D01*
X140560677Y-79386633D01*
X140510852Y-79550884D01*
X140494028Y-79721700D01*
X140494028Y-80008721D01*
X139629150Y-80873600D01*
X139558757Y-80873600D01*
X139506194Y-80830463D01*
X139395880Y-80771498D01*
X139276182Y-80735188D01*
X139151700Y-80722928D01*
X137223500Y-80722928D01*
X137223500Y-79931382D01*
X137899410Y-79255472D01*
X138483800Y-79255472D01*
X138657054Y-79238408D01*
X138823650Y-79187872D01*
X138977186Y-79105805D01*
X139111762Y-78995362D01*
X139222205Y-78860786D01*
X139304272Y-78707250D01*
X139354808Y-78540654D01*
X139371872Y-78367400D01*
X139371872Y-78058400D01*
X142348328Y-78058400D01*
X142360588Y-78182882D01*
X142396898Y-78302580D01*
X142455863Y-78412894D01*
X142535215Y-78509585D01*
X142631906Y-78588937D01*
X142742220Y-78647902D01*
X142861918Y-78684212D01*
X142986400Y-78696472D01*
X143413150Y-78693400D01*
X143571900Y-78534650D01*
X143571900Y-76860400D01*
X142510150Y-76860400D01*
X142351400Y-77019150D01*
X142348328Y-78058400D01*
X139371872Y-78058400D01*
X139371872Y-77392400D01*
X139354808Y-77219146D01*
X139304272Y-77052550D01*
X139222205Y-76899014D01*
X139111762Y-76764438D01*
X138977186Y-76653995D01*
X138823650Y-76571928D01*
X138657054Y-76521392D01*
X138483800Y-76504328D01*
X137797110Y-76504328D01*
X137679598Y-76441517D01*
X137387535Y-76352920D01*
X137353743Y-76349592D01*
X135934622Y-74930472D01*
X136370489Y-74930472D01*
X136488003Y-74993284D01*
X136780066Y-75081881D01*
X137083800Y-75111796D01*
X137387535Y-75081881D01*
X137679598Y-74993284D01*
X137797112Y-74930472D01*
X138483800Y-74930472D01*
X138657054Y-74913408D01*
X138823650Y-74862872D01*
X138904044Y-74819900D01*
X142348328Y-74819900D01*
X142360588Y-74944382D01*
X142396898Y-75064080D01*
X142423661Y-75114150D01*
X142396898Y-75164220D01*
X142360588Y-75283918D01*
X142348328Y-75408400D01*
X142351400Y-76447650D01*
X142510150Y-76606400D01*
X143571900Y-76606400D01*
X143571900Y-73621900D01*
X143825900Y-73621900D01*
X143825900Y-76606400D01*
X144887650Y-76606400D01*
X145046400Y-76447650D01*
X145049472Y-75408400D01*
X145037212Y-75283918D01*
X145000902Y-75164220D01*
X144974139Y-75114150D01*
X145000902Y-75064080D01*
X145037212Y-74944382D01*
X145049472Y-74819900D01*
X145046400Y-73780650D01*
X144887650Y-73621900D01*
X143825900Y-73621900D01*
X143571900Y-73621900D01*
X142510150Y-73621900D01*
X142351400Y-73780650D01*
X142348328Y-74819900D01*
X138904044Y-74819900D01*
X138977186Y-74780805D01*
X139111762Y-74670362D01*
X139222205Y-74535786D01*
X139304272Y-74382250D01*
X139354808Y-74215654D01*
X139371872Y-74042400D01*
X139371872Y-73067400D01*
X139354808Y-72894146D01*
X139304272Y-72727550D01*
X139222205Y-72574014D01*
X139111762Y-72439438D01*
X138977186Y-72328995D01*
X138823650Y-72246928D01*
X138657054Y-72196392D01*
X138633200Y-72194043D01*
X138633200Y-72169900D01*
X142348328Y-72169900D01*
X142351400Y-73209150D01*
X142510150Y-73367900D01*
X143571900Y-73367900D01*
X143571900Y-71693650D01*
X143825900Y-71693650D01*
X143825900Y-73367900D01*
X144887650Y-73367900D01*
X145046400Y-73209150D01*
X145049472Y-72169900D01*
X145037212Y-72045418D01*
X145000902Y-71925720D01*
X144941937Y-71815406D01*
X144862585Y-71718715D01*
X144765894Y-71639363D01*
X144655580Y-71580398D01*
X144535882Y-71544088D01*
X144411400Y-71531828D01*
X143984650Y-71534900D01*
X143825900Y-71693650D01*
X143571900Y-71693650D01*
X143413150Y-71534900D01*
X142986400Y-71531828D01*
X142861918Y-71544088D01*
X142742220Y-71580398D01*
X142631906Y-71639363D01*
X142535215Y-71718715D01*
X142455863Y-71815406D01*
X142396898Y-71925720D01*
X142360588Y-72045418D01*
X142348328Y-72169900D01*
X138633200Y-72169900D01*
X138633200Y-71812582D01*
X143140811Y-67304972D01*
X143476500Y-67304972D01*
X143600982Y-67292712D01*
X143720680Y-67256402D01*
X143830994Y-67197437D01*
X143927685Y-67118085D01*
X144007037Y-67021394D01*
X144066002Y-66911080D01*
X144102312Y-66791382D01*
X144114572Y-66666900D01*
X144114572Y-64066900D01*
X144102312Y-63942418D01*
X144066002Y-63822720D01*
X144007037Y-63712406D01*
X143927685Y-63615715D01*
X143830994Y-63536363D01*
X143720680Y-63477398D01*
X143600982Y-63441088D01*
X143476500Y-63428828D01*
X140876500Y-63428828D01*
X140752018Y-63441088D01*
X140632320Y-63477398D01*
X140522006Y-63536363D01*
X140425315Y-63615715D01*
X140345963Y-63712406D01*
X140286998Y-63822720D01*
X140250688Y-63942418D01*
X140238428Y-64066900D01*
X140238428Y-65824989D01*
X136042030Y-70021388D01*
X135982908Y-70069908D01*
X135789288Y-70305836D01*
X135645416Y-70575003D01*
X135556819Y-70867066D01*
X135535205Y-71086518D01*
X135526904Y-71170800D01*
X135534400Y-71246907D01*
X135534400Y-72194043D01*
X135510546Y-72196392D01*
X135343950Y-72246928D01*
X135190414Y-72328995D01*
X135055838Y-72439438D01*
X135046872Y-72450363D01*
X135046872Y-72190800D01*
X135044464Y-72166350D01*
X135044464Y-72141791D01*
X135032204Y-72017310D01*
X135013082Y-71921177D01*
X134976773Y-71801481D01*
X134939264Y-71710925D01*
X134880298Y-71600608D01*
X134825842Y-71519109D01*
X134746490Y-71422418D01*
X134677182Y-71353110D01*
X134580491Y-71273758D01*
X134498992Y-71219302D01*
X134388675Y-71160336D01*
X134298119Y-71122827D01*
X134178423Y-71086518D01*
X134082290Y-71067396D01*
X133957809Y-71055136D01*
X133933250Y-71055136D01*
X133908800Y-71052728D01*
X133408800Y-71052728D01*
X133284318Y-71064988D01*
X133258800Y-71072729D01*
X133233282Y-71064988D01*
X133108800Y-71052728D01*
X132608800Y-71052728D01*
X132584350Y-71055136D01*
X132559791Y-71055136D01*
X132435310Y-71067396D01*
X132339177Y-71086518D01*
X132219481Y-71122827D01*
X132128925Y-71160336D01*
X132018608Y-71219302D01*
X131937109Y-71273758D01*
X131840418Y-71353110D01*
X131771110Y-71422418D01*
X131691758Y-71519109D01*
X131637302Y-71600608D01*
X131578336Y-71710925D01*
X131540827Y-71801481D01*
X131504518Y-71921177D01*
X131485396Y-72017310D01*
X131473136Y-72141791D01*
X131473136Y-72166350D01*
X131470728Y-72190800D01*
X131470728Y-72690800D01*
X131473136Y-72715250D01*
X131473136Y-72739809D01*
X131485396Y-72864290D01*
X131504518Y-72960423D01*
X131540827Y-73080119D01*
X131578336Y-73170675D01*
X131637302Y-73280992D01*
X131691758Y-73362491D01*
X131771110Y-73459182D01*
X131821401Y-73509473D01*
X131821401Y-74418127D01*
X131817592Y-74456800D01*
X131832795Y-74611157D01*
X131863630Y-74712810D01*
X131762684Y-74722752D01*
X131598433Y-74772577D01*
X131447058Y-74853488D01*
X131314377Y-74962377D01*
X131205488Y-75095058D01*
X131124577Y-75246433D01*
X131074752Y-75410684D01*
X131057928Y-75581500D01*
X131057928Y-76056500D01*
X131074752Y-76227316D01*
X131124577Y-76391567D01*
X131205488Y-76542942D01*
X131236722Y-76581000D01*
X131205488Y-76619058D01*
X131124577Y-76770433D01*
X131074752Y-76934684D01*
X131057928Y-77105500D01*
X131057928Y-77580500D01*
X131074752Y-77751316D01*
X131124577Y-77915567D01*
X131205488Y-78066942D01*
X131215876Y-78079600D01*
X130920248Y-78079600D01*
X130881390Y-77985789D01*
X130718875Y-77742568D01*
X130512032Y-77535725D01*
X130337640Y-77419200D01*
X130512032Y-77302675D01*
X130718875Y-77095832D01*
X130881390Y-76852611D01*
X130993332Y-76582358D01*
X131050400Y-76295460D01*
X131050400Y-76002940D01*
X130993332Y-75716042D01*
X130881390Y-75445789D01*
X130718875Y-75202568D01*
X130512032Y-74995725D01*
X130329866Y-74874005D01*
X130446755Y-74804378D01*
X130662988Y-74609469D01*
X130837041Y-74376120D01*
X130962225Y-74113299D01*
X131006876Y-73966090D01*
X130885555Y-73736200D01*
X129692400Y-73736200D01*
X129692400Y-73756200D01*
X129438400Y-73756200D01*
X129438400Y-73736200D01*
X129418400Y-73736200D01*
X129418400Y-73482200D01*
X129438400Y-73482200D01*
X129438400Y-73462200D01*
X129692400Y-73462200D01*
X129692400Y-73482200D01*
X130885555Y-73482200D01*
X131006876Y-73252310D01*
X130962225Y-73105101D01*
X130837041Y-72842280D01*
X130662988Y-72608931D01*
X130446755Y-72414022D01*
X130329866Y-72344395D01*
X130512032Y-72222675D01*
X130718875Y-72015832D01*
X130881390Y-71772611D01*
X130993332Y-71502358D01*
X131050400Y-71215460D01*
X131050400Y-70922940D01*
X130993332Y-70636042D01*
X130881390Y-70365789D01*
X130718875Y-70122568D01*
X130512032Y-69915725D01*
X130337640Y-69799200D01*
X130512032Y-69682675D01*
X130718875Y-69475832D01*
X130881390Y-69232611D01*
X130993332Y-68962358D01*
X131050400Y-68675460D01*
X131050400Y-68382940D01*
X130993332Y-68096042D01*
X130881390Y-67825789D01*
X130718875Y-67582568D01*
X130587020Y-67450713D01*
X130659580Y-67428702D01*
X130769894Y-67369737D01*
X130866585Y-67290385D01*
X130945937Y-67193694D01*
X131004902Y-67083380D01*
X131041212Y-66963682D01*
X131053472Y-66839200D01*
X131053472Y-66716124D01*
X136006881Y-66716124D01*
X136138817Y-67011212D01*
X136479545Y-67182059D01*
X136847057Y-67283150D01*
X137227229Y-67310601D01*
X137605451Y-67263357D01*
X137967190Y-67143233D01*
X138214183Y-67011212D01*
X138346119Y-66716124D01*
X137176500Y-65546505D01*
X136006881Y-66716124D01*
X131053472Y-66716124D01*
X131053472Y-65417629D01*
X135232799Y-65417629D01*
X135280043Y-65795851D01*
X135400167Y-66157590D01*
X135532188Y-66404583D01*
X135827276Y-66536519D01*
X136996895Y-65366900D01*
X137356105Y-65366900D01*
X138525724Y-66536519D01*
X138820812Y-66404583D01*
X138991659Y-66063855D01*
X139092750Y-65696343D01*
X139120201Y-65316171D01*
X139072957Y-64937949D01*
X138952833Y-64576210D01*
X138820812Y-64329217D01*
X138525724Y-64197281D01*
X137356105Y-65366900D01*
X136996895Y-65366900D01*
X135827276Y-64197281D01*
X135532188Y-64329217D01*
X135361341Y-64669945D01*
X135260250Y-65037457D01*
X135232799Y-65417629D01*
X131053472Y-65417629D01*
X131053472Y-65139200D01*
X131041212Y-65014718D01*
X131004902Y-64895020D01*
X130970734Y-64831097D01*
X131427831Y-64785590D01*
X132018592Y-64605703D01*
X132557373Y-64317718D01*
X132755623Y-64017676D01*
X136006881Y-64017676D01*
X137176500Y-65187295D01*
X138346119Y-64017676D01*
X138214183Y-63722588D01*
X137873455Y-63551741D01*
X137505943Y-63450650D01*
X137125771Y-63423199D01*
X136747549Y-63470443D01*
X136385810Y-63590567D01*
X136138817Y-63722588D01*
X136006881Y-64017676D01*
X132755623Y-64017676D01*
X132833543Y-63899748D01*
X130810000Y-61876205D01*
X130795858Y-61890348D01*
X130616253Y-61710743D01*
X130630395Y-61696600D01*
X130616253Y-61682458D01*
X130795858Y-61502853D01*
X130810000Y-61516995D01*
X130824143Y-61502853D01*
X131003748Y-61682458D01*
X130989605Y-61696600D01*
X133013148Y-63720143D01*
X133431118Y-63443973D01*
X133721649Y-62899043D01*
X133900287Y-62307904D01*
X133960168Y-61693272D01*
X133898990Y-61078769D01*
X133719103Y-60488008D01*
X133431118Y-59949227D01*
X133191952Y-59791200D01*
X146195007Y-59791200D01*
X145994282Y-59923827D01*
G37*
X145994282Y-59923827D02*
X145703751Y-60468757D01*
X145525113Y-61059896D01*
X145465232Y-61674528D01*
X145526410Y-62289031D01*
X145706297Y-62879792D01*
X145994282Y-63418573D01*
X146412252Y-63694743D01*
X148435795Y-61671200D01*
X148421653Y-61657058D01*
X148601258Y-61477453D01*
X148615400Y-61491595D01*
X148629543Y-61477453D01*
X148809148Y-61657058D01*
X148795005Y-61671200D01*
X148809148Y-61685343D01*
X148629543Y-61864948D01*
X148615400Y-61850805D01*
X146591857Y-63874348D01*
X146868027Y-64292318D01*
X147412957Y-64582849D01*
X148004096Y-64761487D01*
X148491873Y-64809009D01*
X148445898Y-64895020D01*
X148409588Y-65014718D01*
X148397328Y-65139200D01*
X148397328Y-66839200D01*
X148409588Y-66963682D01*
X148445898Y-67083380D01*
X148504863Y-67193694D01*
X148584215Y-67290385D01*
X148680906Y-67369737D01*
X148791220Y-67428702D01*
X148863780Y-67450713D01*
X148731925Y-67582568D01*
X148569410Y-67825789D01*
X148457468Y-68096042D01*
X148400400Y-68382940D01*
X148400400Y-68675460D01*
X148457468Y-68962358D01*
X148569410Y-69232611D01*
X148731925Y-69475832D01*
X148938768Y-69682675D01*
X149113160Y-69799200D01*
X148938768Y-69915725D01*
X148731925Y-70122568D01*
X148569410Y-70365789D01*
X148457468Y-70636042D01*
X148400400Y-70922940D01*
X148400400Y-71215460D01*
X148457468Y-71502358D01*
X148569410Y-71772611D01*
X148684931Y-71945500D01*
X147884953Y-71945500D01*
X147874805Y-71926514D01*
X147764362Y-71791938D01*
X147629786Y-71681495D01*
X147476250Y-71599428D01*
X147309654Y-71548892D01*
X147136400Y-71531828D01*
X146211400Y-71531828D01*
X146038146Y-71548892D01*
X145871550Y-71599428D01*
X145718014Y-71681495D01*
X145583438Y-71791938D01*
X145472995Y-71926514D01*
X145390928Y-72080050D01*
X145340392Y-72246646D01*
X145323328Y-72419900D01*
X145323328Y-72734816D01*
X145235516Y-72899102D01*
X145146919Y-73191165D01*
X145117004Y-73494900D01*
X145124501Y-73571019D01*
X145124500Y-76657293D01*
X145117004Y-76733400D01*
X145124500Y-76809506D01*
X145124500Y-76809508D01*
X145146919Y-77037134D01*
X145235516Y-77329197D01*
X145323328Y-77493483D01*
X145323328Y-77808400D01*
X145333190Y-77908528D01*
X145049029Y-77908528D01*
X145046400Y-77019150D01*
X144887650Y-76860400D01*
X143825900Y-76860400D01*
X143825900Y-78534650D01*
X143867128Y-78575878D01*
X143867128Y-78863471D01*
X143865416Y-78862952D01*
X143694600Y-78846128D01*
X143119600Y-78846128D01*
X142948784Y-78862952D01*
X142784533Y-78912777D01*
X142633158Y-78993688D01*
X142532100Y-79076625D01*
X142431042Y-78993688D01*
X142279667Y-78912777D01*
X142115416Y-78862952D01*
X141944600Y-78846128D01*
X141369600Y-78846128D01*
X141198784Y-78862952D01*
X141034533Y-78912777D01*
X140883158Y-78993688D01*
X140750477Y-79102577D01*
X140641588Y-79235258D01*
X140560677Y-79386633D01*
X140510852Y-79550884D01*
X140494028Y-79721700D01*
X140494028Y-80008721D01*
X139629150Y-80873600D01*
X139558757Y-80873600D01*
X139506194Y-80830463D01*
X139395880Y-80771498D01*
X139276182Y-80735188D01*
X139151700Y-80722928D01*
X137223500Y-80722928D01*
X137223500Y-79931382D01*
X137899410Y-79255472D01*
X138483800Y-79255472D01*
X138657054Y-79238408D01*
X138823650Y-79187872D01*
X138977186Y-79105805D01*
X139111762Y-78995362D01*
X139222205Y-78860786D01*
X139304272Y-78707250D01*
X139354808Y-78540654D01*
X139371872Y-78367400D01*
X139371872Y-78058400D01*
X142348328Y-78058400D01*
X142360588Y-78182882D01*
X142396898Y-78302580D01*
X142455863Y-78412894D01*
X142535215Y-78509585D01*
X142631906Y-78588937D01*
X142742220Y-78647902D01*
X142861918Y-78684212D01*
X142986400Y-78696472D01*
X143413150Y-78693400D01*
X143571900Y-78534650D01*
X143571900Y-76860400D01*
X142510150Y-76860400D01*
X142351400Y-77019150D01*
X142348328Y-78058400D01*
X139371872Y-78058400D01*
X139371872Y-77392400D01*
X139354808Y-77219146D01*
X139304272Y-77052550D01*
X139222205Y-76899014D01*
X139111762Y-76764438D01*
X138977186Y-76653995D01*
X138823650Y-76571928D01*
X138657054Y-76521392D01*
X138483800Y-76504328D01*
X137797110Y-76504328D01*
X137679598Y-76441517D01*
X137387535Y-76352920D01*
X137353743Y-76349592D01*
X135934622Y-74930472D01*
X136370489Y-74930472D01*
X136488003Y-74993284D01*
X136780066Y-75081881D01*
X137083800Y-75111796D01*
X137387535Y-75081881D01*
X137679598Y-74993284D01*
X137797112Y-74930472D01*
X138483800Y-74930472D01*
X138657054Y-74913408D01*
X138823650Y-74862872D01*
X138904044Y-74819900D01*
X142348328Y-74819900D01*
X142360588Y-74944382D01*
X142396898Y-75064080D01*
X142423661Y-75114150D01*
X142396898Y-75164220D01*
X142360588Y-75283918D01*
X142348328Y-75408400D01*
X142351400Y-76447650D01*
X142510150Y-76606400D01*
X143571900Y-76606400D01*
X143571900Y-73621900D01*
X143825900Y-73621900D01*
X143825900Y-76606400D01*
X144887650Y-76606400D01*
X145046400Y-76447650D01*
X145049472Y-75408400D01*
X145037212Y-75283918D01*
X145000902Y-75164220D01*
X144974139Y-75114150D01*
X145000902Y-75064080D01*
X145037212Y-74944382D01*
X145049472Y-74819900D01*
X145046400Y-73780650D01*
X144887650Y-73621900D01*
X143825900Y-73621900D01*
X143571900Y-73621900D01*
X142510150Y-73621900D01*
X142351400Y-73780650D01*
X142348328Y-74819900D01*
X138904044Y-74819900D01*
X138977186Y-74780805D01*
X139111762Y-74670362D01*
X139222205Y-74535786D01*
X139304272Y-74382250D01*
X139354808Y-74215654D01*
X139371872Y-74042400D01*
X139371872Y-73067400D01*
X139354808Y-72894146D01*
X139304272Y-72727550D01*
X139222205Y-72574014D01*
X139111762Y-72439438D01*
X138977186Y-72328995D01*
X138823650Y-72246928D01*
X138657054Y-72196392D01*
X138633200Y-72194043D01*
X138633200Y-72169900D01*
X142348328Y-72169900D01*
X142351400Y-73209150D01*
X142510150Y-73367900D01*
X143571900Y-73367900D01*
X143571900Y-71693650D01*
X143825900Y-71693650D01*
X143825900Y-73367900D01*
X144887650Y-73367900D01*
X145046400Y-73209150D01*
X145049472Y-72169900D01*
X145037212Y-72045418D01*
X145000902Y-71925720D01*
X144941937Y-71815406D01*
X144862585Y-71718715D01*
X144765894Y-71639363D01*
X144655580Y-71580398D01*
X144535882Y-71544088D01*
X144411400Y-71531828D01*
X143984650Y-71534900D01*
X143825900Y-71693650D01*
X143571900Y-71693650D01*
X143413150Y-71534900D01*
X142986400Y-71531828D01*
X142861918Y-71544088D01*
X142742220Y-71580398D01*
X142631906Y-71639363D01*
X142535215Y-71718715D01*
X142455863Y-71815406D01*
X142396898Y-71925720D01*
X142360588Y-72045418D01*
X142348328Y-72169900D01*
X138633200Y-72169900D01*
X138633200Y-71812582D01*
X143140811Y-67304972D01*
X143476500Y-67304972D01*
X143600982Y-67292712D01*
X143720680Y-67256402D01*
X143830994Y-67197437D01*
X143927685Y-67118085D01*
X144007037Y-67021394D01*
X144066002Y-66911080D01*
X144102312Y-66791382D01*
X144114572Y-66666900D01*
X144114572Y-64066900D01*
X144102312Y-63942418D01*
X144066002Y-63822720D01*
X144007037Y-63712406D01*
X143927685Y-63615715D01*
X143830994Y-63536363D01*
X143720680Y-63477398D01*
X143600982Y-63441088D01*
X143476500Y-63428828D01*
X140876500Y-63428828D01*
X140752018Y-63441088D01*
X140632320Y-63477398D01*
X140522006Y-63536363D01*
X140425315Y-63615715D01*
X140345963Y-63712406D01*
X140286998Y-63822720D01*
X140250688Y-63942418D01*
X140238428Y-64066900D01*
X140238428Y-65824989D01*
X136042030Y-70021388D01*
X135982908Y-70069908D01*
X135789288Y-70305836D01*
X135645416Y-70575003D01*
X135556819Y-70867066D01*
X135535205Y-71086518D01*
X135526904Y-71170800D01*
X135534400Y-71246907D01*
X135534400Y-72194043D01*
X135510546Y-72196392D01*
X135343950Y-72246928D01*
X135190414Y-72328995D01*
X135055838Y-72439438D01*
X135046872Y-72450363D01*
X135046872Y-72190800D01*
X135044464Y-72166350D01*
X135044464Y-72141791D01*
X135032204Y-72017310D01*
X135013082Y-71921177D01*
X134976773Y-71801481D01*
X134939264Y-71710925D01*
X134880298Y-71600608D01*
X134825842Y-71519109D01*
X134746490Y-71422418D01*
X134677182Y-71353110D01*
X134580491Y-71273758D01*
X134498992Y-71219302D01*
X134388675Y-71160336D01*
X134298119Y-71122827D01*
X134178423Y-71086518D01*
X134082290Y-71067396D01*
X133957809Y-71055136D01*
X133933250Y-71055136D01*
X133908800Y-71052728D01*
X133408800Y-71052728D01*
X133284318Y-71064988D01*
X133258800Y-71072729D01*
X133233282Y-71064988D01*
X133108800Y-71052728D01*
X132608800Y-71052728D01*
X132584350Y-71055136D01*
X132559791Y-71055136D01*
X132435310Y-71067396D01*
X132339177Y-71086518D01*
X132219481Y-71122827D01*
X132128925Y-71160336D01*
X132018608Y-71219302D01*
X131937109Y-71273758D01*
X131840418Y-71353110D01*
X131771110Y-71422418D01*
X131691758Y-71519109D01*
X131637302Y-71600608D01*
X131578336Y-71710925D01*
X131540827Y-71801481D01*
X131504518Y-71921177D01*
X131485396Y-72017310D01*
X131473136Y-72141791D01*
X131473136Y-72166350D01*
X131470728Y-72190800D01*
X131470728Y-72690800D01*
X131473136Y-72715250D01*
X131473136Y-72739809D01*
X131485396Y-72864290D01*
X131504518Y-72960423D01*
X131540827Y-73080119D01*
X131578336Y-73170675D01*
X131637302Y-73280992D01*
X131691758Y-73362491D01*
X131771110Y-73459182D01*
X131821401Y-73509473D01*
X131821401Y-74418127D01*
X131817592Y-74456800D01*
X131832795Y-74611157D01*
X131863630Y-74712810D01*
X131762684Y-74722752D01*
X131598433Y-74772577D01*
X131447058Y-74853488D01*
X131314377Y-74962377D01*
X131205488Y-75095058D01*
X131124577Y-75246433D01*
X131074752Y-75410684D01*
X131057928Y-75581500D01*
X131057928Y-76056500D01*
X131074752Y-76227316D01*
X131124577Y-76391567D01*
X131205488Y-76542942D01*
X131236722Y-76581000D01*
X131205488Y-76619058D01*
X131124577Y-76770433D01*
X131074752Y-76934684D01*
X131057928Y-77105500D01*
X131057928Y-77580500D01*
X131074752Y-77751316D01*
X131124577Y-77915567D01*
X131205488Y-78066942D01*
X131215876Y-78079600D01*
X130920248Y-78079600D01*
X130881390Y-77985789D01*
X130718875Y-77742568D01*
X130512032Y-77535725D01*
X130337640Y-77419200D01*
X130512032Y-77302675D01*
X130718875Y-77095832D01*
X130881390Y-76852611D01*
X130993332Y-76582358D01*
X131050400Y-76295460D01*
X131050400Y-76002940D01*
X130993332Y-75716042D01*
X130881390Y-75445789D01*
X130718875Y-75202568D01*
X130512032Y-74995725D01*
X130329866Y-74874005D01*
X130446755Y-74804378D01*
X130662988Y-74609469D01*
X130837041Y-74376120D01*
X130962225Y-74113299D01*
X131006876Y-73966090D01*
X130885555Y-73736200D01*
X129692400Y-73736200D01*
X129692400Y-73756200D01*
X129438400Y-73756200D01*
X129438400Y-73736200D01*
X129418400Y-73736200D01*
X129418400Y-73482200D01*
X129438400Y-73482200D01*
X129438400Y-73462200D01*
X129692400Y-73462200D01*
X129692400Y-73482200D01*
X130885555Y-73482200D01*
X131006876Y-73252310D01*
X130962225Y-73105101D01*
X130837041Y-72842280D01*
X130662988Y-72608931D01*
X130446755Y-72414022D01*
X130329866Y-72344395D01*
X130512032Y-72222675D01*
X130718875Y-72015832D01*
X130881390Y-71772611D01*
X130993332Y-71502358D01*
X131050400Y-71215460D01*
X131050400Y-70922940D01*
X130993332Y-70636042D01*
X130881390Y-70365789D01*
X130718875Y-70122568D01*
X130512032Y-69915725D01*
X130337640Y-69799200D01*
X130512032Y-69682675D01*
X130718875Y-69475832D01*
X130881390Y-69232611D01*
X130993332Y-68962358D01*
X131050400Y-68675460D01*
X131050400Y-68382940D01*
X130993332Y-68096042D01*
X130881390Y-67825789D01*
X130718875Y-67582568D01*
X130587020Y-67450713D01*
X130659580Y-67428702D01*
X130769894Y-67369737D01*
X130866585Y-67290385D01*
X130945937Y-67193694D01*
X131004902Y-67083380D01*
X131041212Y-66963682D01*
X131053472Y-66839200D01*
X131053472Y-66716124D01*
X136006881Y-66716124D01*
X136138817Y-67011212D01*
X136479545Y-67182059D01*
X136847057Y-67283150D01*
X137227229Y-67310601D01*
X137605451Y-67263357D01*
X137967190Y-67143233D01*
X138214183Y-67011212D01*
X138346119Y-66716124D01*
X137176500Y-65546505D01*
X136006881Y-66716124D01*
X131053472Y-66716124D01*
X131053472Y-65417629D01*
X135232799Y-65417629D01*
X135280043Y-65795851D01*
X135400167Y-66157590D01*
X135532188Y-66404583D01*
X135827276Y-66536519D01*
X136996895Y-65366900D01*
X137356105Y-65366900D01*
X138525724Y-66536519D01*
X138820812Y-66404583D01*
X138991659Y-66063855D01*
X139092750Y-65696343D01*
X139120201Y-65316171D01*
X139072957Y-64937949D01*
X138952833Y-64576210D01*
X138820812Y-64329217D01*
X138525724Y-64197281D01*
X137356105Y-65366900D01*
X136996895Y-65366900D01*
X135827276Y-64197281D01*
X135532188Y-64329217D01*
X135361341Y-64669945D01*
X135260250Y-65037457D01*
X135232799Y-65417629D01*
X131053472Y-65417629D01*
X131053472Y-65139200D01*
X131041212Y-65014718D01*
X131004902Y-64895020D01*
X130970734Y-64831097D01*
X131427831Y-64785590D01*
X132018592Y-64605703D01*
X132557373Y-64317718D01*
X132755623Y-64017676D01*
X136006881Y-64017676D01*
X137176500Y-65187295D01*
X138346119Y-64017676D01*
X138214183Y-63722588D01*
X137873455Y-63551741D01*
X137505943Y-63450650D01*
X137125771Y-63423199D01*
X136747549Y-63470443D01*
X136385810Y-63590567D01*
X136138817Y-63722588D01*
X136006881Y-64017676D01*
X132755623Y-64017676D01*
X132833543Y-63899748D01*
X130810000Y-61876205D01*
X130795858Y-61890348D01*
X130616253Y-61710743D01*
X130630395Y-61696600D01*
X130616253Y-61682458D01*
X130795858Y-61502853D01*
X130810000Y-61516995D01*
X130824143Y-61502853D01*
X131003748Y-61682458D01*
X130989605Y-61696600D01*
X133013148Y-63720143D01*
X133431118Y-63443973D01*
X133721649Y-62899043D01*
X133900287Y-62307904D01*
X133960168Y-61693272D01*
X133898990Y-61078769D01*
X133719103Y-60488008D01*
X133431118Y-59949227D01*
X133191952Y-59791200D01*
X146195007Y-59791200D01*
X145994282Y-59923827D01*
%TD*%
M02*
