%TF.GenerationSoftware,KiCad,Pcbnew,5.1.6-c6e7f7d~87~ubuntu18.04.1*%
%TF.CreationDate,2020-09-21T00:51:10-07:00*%
%TF.ProjectId,feather-power-supply-sw-smd,66656174-6865-4722-9d70-6f7765722d73,rev?*%
%TF.SameCoordinates,Original*%
%TF.FileFunction,Paste,Top*%
%TF.FilePolarity,Positive*%
%FSLAX46Y46*%
G04 Gerber Fmt 4.6, Leading zero omitted, Abs format (unit mm)*
G04 Created by KiCad (PCBNEW 5.1.6-c6e7f7d~87~ubuntu18.04.1) date 2020-09-21 00:51:10*
%MOMM*%
%LPD*%
G01*
G04 APERTURE LIST*
%ADD10R,0.650000X1.220000*%
%ADD11R,1.000000X4.400000*%
%ADD12R,1.100000X1.100000*%
%ADD13R,0.600000X2.000000*%
G04 APERTURE END LIST*
D10*
%TO.C,Q1*%
X136931400Y-71867400D03*
X137881400Y-74487400D03*
X135981400Y-74487400D03*
%TD*%
D11*
%TO.C,L1*%
X142827600Y-87680800D03*
X140077600Y-87680800D03*
%TD*%
%TO.C,J4*%
G36*
G01*
X150251401Y-97698200D02*
X148951399Y-97698200D01*
G75*
G02*
X148701400Y-97448201I0J249999D01*
G01*
X148701400Y-96748199D01*
G75*
G02*
X148951399Y-96498200I249999J0D01*
G01*
X150251401Y-96498200D01*
G75*
G02*
X150501400Y-96748199I0J-249999D01*
G01*
X150501400Y-97448201D01*
G75*
G02*
X150251401Y-97698200I-249999J0D01*
G01*
G37*
G36*
G01*
X150251401Y-103298200D02*
X148951399Y-103298200D01*
G75*
G02*
X148701400Y-103048201I0J249999D01*
G01*
X148701400Y-102348199D01*
G75*
G02*
X148951399Y-102098200I249999J0D01*
G01*
X150251401Y-102098200D01*
G75*
G02*
X150501400Y-102348199I0J-249999D01*
G01*
X150501400Y-103048201D01*
G75*
G02*
X150251401Y-103298200I-249999J0D01*
G01*
G37*
G36*
G01*
X146351400Y-98698200D02*
X145101400Y-98698200D01*
G75*
G02*
X144951400Y-98548200I0J150000D01*
G01*
X144951400Y-98248200D01*
G75*
G02*
X145101400Y-98098200I150000J0D01*
G01*
X146351400Y-98098200D01*
G75*
G02*
X146501400Y-98248200I0J-150000D01*
G01*
X146501400Y-98548200D01*
G75*
G02*
X146351400Y-98698200I-150000J0D01*
G01*
G37*
G36*
G01*
X146351400Y-99698200D02*
X145101400Y-99698200D01*
G75*
G02*
X144951400Y-99548200I0J150000D01*
G01*
X144951400Y-99248200D01*
G75*
G02*
X145101400Y-99098200I150000J0D01*
G01*
X146351400Y-99098200D01*
G75*
G02*
X146501400Y-99248200I0J-150000D01*
G01*
X146501400Y-99548200D01*
G75*
G02*
X146351400Y-99698200I-150000J0D01*
G01*
G37*
G36*
G01*
X146351400Y-100698200D02*
X145101400Y-100698200D01*
G75*
G02*
X144951400Y-100548200I0J150000D01*
G01*
X144951400Y-100248200D01*
G75*
G02*
X145101400Y-100098200I150000J0D01*
G01*
X146351400Y-100098200D01*
G75*
G02*
X146501400Y-100248200I0J-150000D01*
G01*
X146501400Y-100548200D01*
G75*
G02*
X146351400Y-100698200I-150000J0D01*
G01*
G37*
G36*
G01*
X146351400Y-101698200D02*
X145101400Y-101698200D01*
G75*
G02*
X144951400Y-101548200I0J150000D01*
G01*
X144951400Y-101248200D01*
G75*
G02*
X145101400Y-101098200I150000J0D01*
G01*
X146351400Y-101098200D01*
G75*
G02*
X146501400Y-101248200I0J-150000D01*
G01*
X146501400Y-101548200D01*
G75*
G02*
X146351400Y-101698200I-150000J0D01*
G01*
G37*
%TD*%
%TO.C,R5*%
G36*
G01*
X146400000Y-87359500D02*
X146400000Y-86884500D01*
G75*
G02*
X146637500Y-86647000I237500J0D01*
G01*
X147212500Y-86647000D01*
G75*
G02*
X147450000Y-86884500I0J-237500D01*
G01*
X147450000Y-87359500D01*
G75*
G02*
X147212500Y-87597000I-237500J0D01*
G01*
X146637500Y-87597000D01*
G75*
G02*
X146400000Y-87359500I0J237500D01*
G01*
G37*
G36*
G01*
X144650000Y-87359500D02*
X144650000Y-86884500D01*
G75*
G02*
X144887500Y-86647000I237500J0D01*
G01*
X145462500Y-86647000D01*
G75*
G02*
X145700000Y-86884500I0J-237500D01*
G01*
X145700000Y-87359500D01*
G75*
G02*
X145462500Y-87597000I-237500J0D01*
G01*
X144887500Y-87597000D01*
G75*
G02*
X144650000Y-87359500I0J237500D01*
G01*
G37*
%TD*%
%TO.C,D2*%
G36*
G01*
X146350000Y-89554000D02*
X146350000Y-88754000D01*
G75*
G02*
X146600000Y-88504000I250000J0D01*
G01*
X147425000Y-88504000D01*
G75*
G02*
X147675000Y-88754000I0J-250000D01*
G01*
X147675000Y-89554000D01*
G75*
G02*
X147425000Y-89804000I-250000J0D01*
G01*
X146600000Y-89804000D01*
G75*
G02*
X146350000Y-89554000I0J250000D01*
G01*
G37*
G36*
G01*
X144425000Y-89554000D02*
X144425000Y-88754000D01*
G75*
G02*
X144675000Y-88504000I250000J0D01*
G01*
X145500000Y-88504000D01*
G75*
G02*
X145750000Y-88754000I0J-250000D01*
G01*
X145750000Y-89554000D01*
G75*
G02*
X145500000Y-89804000I-250000J0D01*
G01*
X144675000Y-89804000D01*
G75*
G02*
X144425000Y-89554000I0J250000D01*
G01*
G37*
%TD*%
%TO.C,F1*%
G36*
G01*
X141069000Y-71523400D02*
X141069000Y-74323400D01*
G75*
G02*
X140819000Y-74573400I-250000J0D01*
G01*
X139844000Y-74573400D01*
G75*
G02*
X139594000Y-74323400I0J250000D01*
G01*
X139594000Y-71523400D01*
G75*
G02*
X139844000Y-71273400I250000J0D01*
G01*
X140819000Y-71273400D01*
G75*
G02*
X141069000Y-71523400I0J-250000D01*
G01*
G37*
G36*
G01*
X145394000Y-71523400D02*
X145394000Y-74323400D01*
G75*
G02*
X145144000Y-74573400I-250000J0D01*
G01*
X144169000Y-74573400D01*
G75*
G02*
X143919000Y-74323400I0J250000D01*
G01*
X143919000Y-71523400D01*
G75*
G02*
X144169000Y-71273400I250000J0D01*
G01*
X145144000Y-71273400D01*
G75*
G02*
X145394000Y-71523400I0J-250000D01*
G01*
G37*
%TD*%
%TO.C,C5*%
G36*
G01*
X144026200Y-82029000D02*
X141876200Y-82029000D01*
G75*
G02*
X141626200Y-81779000I0J250000D01*
G01*
X141626200Y-80854000D01*
G75*
G02*
X141876200Y-80604000I250000J0D01*
G01*
X144026200Y-80604000D01*
G75*
G02*
X144276200Y-80854000I0J-250000D01*
G01*
X144276200Y-81779000D01*
G75*
G02*
X144026200Y-82029000I-250000J0D01*
G01*
G37*
G36*
G01*
X144026200Y-85004000D02*
X141876200Y-85004000D01*
G75*
G02*
X141626200Y-84754000I0J250000D01*
G01*
X141626200Y-83829000D01*
G75*
G02*
X141876200Y-83579000I250000J0D01*
G01*
X144026200Y-83579000D01*
G75*
G02*
X144276200Y-83829000I0J-250000D01*
G01*
X144276200Y-84754000D01*
G75*
G02*
X144026200Y-85004000I-250000J0D01*
G01*
G37*
%TD*%
%TO.C,C9*%
G36*
G01*
X133700000Y-77301100D02*
X133700000Y-76826100D01*
G75*
G02*
X133937500Y-76588600I237500J0D01*
G01*
X134512500Y-76588600D01*
G75*
G02*
X134750000Y-76826100I0J-237500D01*
G01*
X134750000Y-77301100D01*
G75*
G02*
X134512500Y-77538600I-237500J0D01*
G01*
X133937500Y-77538600D01*
G75*
G02*
X133700000Y-77301100I0J237500D01*
G01*
G37*
G36*
G01*
X131950000Y-77301100D02*
X131950000Y-76826100D01*
G75*
G02*
X132187500Y-76588600I237500J0D01*
G01*
X132762500Y-76588600D01*
G75*
G02*
X133000000Y-76826100I0J-237500D01*
G01*
X133000000Y-77301100D01*
G75*
G02*
X132762500Y-77538600I-237500J0D01*
G01*
X132187500Y-77538600D01*
G75*
G02*
X131950000Y-77301100I0J237500D01*
G01*
G37*
%TD*%
%TO.C,C6*%
G36*
G01*
X147328200Y-82029000D02*
X145178200Y-82029000D01*
G75*
G02*
X144928200Y-81779000I0J250000D01*
G01*
X144928200Y-80854000D01*
G75*
G02*
X145178200Y-80604000I250000J0D01*
G01*
X147328200Y-80604000D01*
G75*
G02*
X147578200Y-80854000I0J-250000D01*
G01*
X147578200Y-81779000D01*
G75*
G02*
X147328200Y-82029000I-250000J0D01*
G01*
G37*
G36*
G01*
X147328200Y-85004000D02*
X145178200Y-85004000D01*
G75*
G02*
X144928200Y-84754000I0J250000D01*
G01*
X144928200Y-83829000D01*
G75*
G02*
X145178200Y-83579000I250000J0D01*
G01*
X147328200Y-83579000D01*
G75*
G02*
X147578200Y-83829000I0J-250000D01*
G01*
X147578200Y-84754000D01*
G75*
G02*
X147328200Y-85004000I-250000J0D01*
G01*
G37*
%TD*%
%TO.C,R4*%
G36*
G01*
X133700000Y-75777100D02*
X133700000Y-75302100D01*
G75*
G02*
X133937500Y-75064600I237500J0D01*
G01*
X134512500Y-75064600D01*
G75*
G02*
X134750000Y-75302100I0J-237500D01*
G01*
X134750000Y-75777100D01*
G75*
G02*
X134512500Y-76014600I-237500J0D01*
G01*
X133937500Y-76014600D01*
G75*
G02*
X133700000Y-75777100I0J237500D01*
G01*
G37*
G36*
G01*
X131950000Y-75777100D02*
X131950000Y-75302100D01*
G75*
G02*
X132187500Y-75064600I237500J0D01*
G01*
X132762500Y-75064600D01*
G75*
G02*
X133000000Y-75302100I0J-237500D01*
G01*
X133000000Y-75777100D01*
G75*
G02*
X132762500Y-76014600I-237500J0D01*
G01*
X132187500Y-76014600D01*
G75*
G02*
X131950000Y-75777100I0J237500D01*
G01*
G37*
%TD*%
%TO.C,C2*%
G36*
G01*
X139713000Y-77282200D02*
X139713000Y-76032200D01*
G75*
G02*
X139963000Y-75782200I250000J0D01*
G01*
X140888000Y-75782200D01*
G75*
G02*
X141138000Y-76032200I0J-250000D01*
G01*
X141138000Y-77282200D01*
G75*
G02*
X140888000Y-77532200I-250000J0D01*
G01*
X139963000Y-77532200D01*
G75*
G02*
X139713000Y-77282200I0J250000D01*
G01*
G37*
G36*
G01*
X136738000Y-77282826D02*
X136738000Y-76031574D01*
G75*
G02*
X136987374Y-75782200I249374J0D01*
G01*
X137913626Y-75782200D01*
G75*
G02*
X138163000Y-76031574I0J-249374D01*
G01*
X138163000Y-77282826D01*
G75*
G02*
X137913626Y-77532200I-249374J0D01*
G01*
X136987374Y-77532200D01*
G75*
G02*
X136738000Y-77282826I0J249374D01*
G01*
G37*
%TD*%
%TO.C,R2*%
G36*
G01*
X132198100Y-83789000D02*
X132673100Y-83789000D01*
G75*
G02*
X132910600Y-84026500I0J-237500D01*
G01*
X132910600Y-84601500D01*
G75*
G02*
X132673100Y-84839000I-237500J0D01*
G01*
X132198100Y-84839000D01*
G75*
G02*
X131960600Y-84601500I0J237500D01*
G01*
X131960600Y-84026500D01*
G75*
G02*
X132198100Y-83789000I237500J0D01*
G01*
G37*
G36*
G01*
X132198100Y-82039000D02*
X132673100Y-82039000D01*
G75*
G02*
X132910600Y-82276500I0J-237500D01*
G01*
X132910600Y-82851500D01*
G75*
G02*
X132673100Y-83089000I-237500J0D01*
G01*
X132198100Y-83089000D01*
G75*
G02*
X131960600Y-82851500I0J237500D01*
G01*
X131960600Y-82276500D01*
G75*
G02*
X132198100Y-82039000I237500J0D01*
G01*
G37*
%TD*%
D12*
%TO.C,D1*%
X140106400Y-81658000D03*
X140106400Y-84458000D03*
%TD*%
D13*
%TO.C,U1*%
X135509000Y-79134800D03*
X138049000Y-84034800D03*
X136779000Y-84034800D03*
X135509000Y-84034800D03*
X134239000Y-84034800D03*
X134239000Y-79134800D03*
X136779000Y-79134800D03*
X138049000Y-79134800D03*
%TD*%
%TO.C,R1*%
G36*
G01*
X134270000Y-85868500D02*
X134270000Y-86343500D01*
G75*
G02*
X134032500Y-86581000I-237500J0D01*
G01*
X133457500Y-86581000D01*
G75*
G02*
X133220000Y-86343500I0J237500D01*
G01*
X133220000Y-85868500D01*
G75*
G02*
X133457500Y-85631000I237500J0D01*
G01*
X134032500Y-85631000D01*
G75*
G02*
X134270000Y-85868500I0J-237500D01*
G01*
G37*
G36*
G01*
X136020000Y-85868500D02*
X136020000Y-86343500D01*
G75*
G02*
X135782500Y-86581000I-237500J0D01*
G01*
X135207500Y-86581000D01*
G75*
G02*
X134970000Y-86343500I0J237500D01*
G01*
X134970000Y-85868500D01*
G75*
G02*
X135207500Y-85631000I237500J0D01*
G01*
X135782500Y-85631000D01*
G75*
G02*
X136020000Y-85868500I0J-237500D01*
G01*
G37*
%TD*%
%TO.C,C8*%
G36*
G01*
X132172700Y-80283800D02*
X132647700Y-80283800D01*
G75*
G02*
X132885200Y-80521300I0J-237500D01*
G01*
X132885200Y-81096300D01*
G75*
G02*
X132647700Y-81333800I-237500J0D01*
G01*
X132172700Y-81333800D01*
G75*
G02*
X131935200Y-81096300I0J237500D01*
G01*
X131935200Y-80521300D01*
G75*
G02*
X132172700Y-80283800I237500J0D01*
G01*
G37*
G36*
G01*
X132172700Y-78533800D02*
X132647700Y-78533800D01*
G75*
G02*
X132885200Y-78771300I0J-237500D01*
G01*
X132885200Y-79346300D01*
G75*
G02*
X132647700Y-79583800I-237500J0D01*
G01*
X132172700Y-79583800D01*
G75*
G02*
X131935200Y-79346300I0J237500D01*
G01*
X131935200Y-78771300D01*
G75*
G02*
X132172700Y-78533800I237500J0D01*
G01*
G37*
%TD*%
%TO.C,C7*%
G36*
G01*
X134970000Y-87867500D02*
X134970000Y-87392500D01*
G75*
G02*
X135207500Y-87155000I237500J0D01*
G01*
X135782500Y-87155000D01*
G75*
G02*
X136020000Y-87392500I0J-237500D01*
G01*
X136020000Y-87867500D01*
G75*
G02*
X135782500Y-88105000I-237500J0D01*
G01*
X135207500Y-88105000D01*
G75*
G02*
X134970000Y-87867500I0J237500D01*
G01*
G37*
G36*
G01*
X133220000Y-87867500D02*
X133220000Y-87392500D01*
G75*
G02*
X133457500Y-87155000I237500J0D01*
G01*
X134032500Y-87155000D01*
G75*
G02*
X134270000Y-87392500I0J-237500D01*
G01*
X134270000Y-87867500D01*
G75*
G02*
X134032500Y-88105000I-237500J0D01*
G01*
X133457500Y-88105000D01*
G75*
G02*
X133220000Y-87867500I0J237500D01*
G01*
G37*
%TD*%
%TO.C,C1*%
G36*
G01*
X138388100Y-86670400D02*
X137913100Y-86670400D01*
G75*
G02*
X137675600Y-86432900I0J237500D01*
G01*
X137675600Y-85857900D01*
G75*
G02*
X137913100Y-85620400I237500J0D01*
G01*
X138388100Y-85620400D01*
G75*
G02*
X138625600Y-85857900I0J-237500D01*
G01*
X138625600Y-86432900D01*
G75*
G02*
X138388100Y-86670400I-237500J0D01*
G01*
G37*
G36*
G01*
X138388100Y-88420400D02*
X137913100Y-88420400D01*
G75*
G02*
X137675600Y-88182900I0J237500D01*
G01*
X137675600Y-87607900D01*
G75*
G02*
X137913100Y-87370400I237500J0D01*
G01*
X138388100Y-87370400D01*
G75*
G02*
X138625600Y-87607900I0J-237500D01*
G01*
X138625600Y-88182900D01*
G75*
G02*
X138388100Y-88420400I-237500J0D01*
G01*
G37*
%TD*%
%TO.C,R3*%
G36*
G01*
X133700000Y-74253100D02*
X133700000Y-73778100D01*
G75*
G02*
X133937500Y-73540600I237500J0D01*
G01*
X134512500Y-73540600D01*
G75*
G02*
X134750000Y-73778100I0J-237500D01*
G01*
X134750000Y-74253100D01*
G75*
G02*
X134512500Y-74490600I-237500J0D01*
G01*
X133937500Y-74490600D01*
G75*
G02*
X133700000Y-74253100I0J237500D01*
G01*
G37*
G36*
G01*
X131950000Y-74253100D02*
X131950000Y-73778100D01*
G75*
G02*
X132187500Y-73540600I237500J0D01*
G01*
X132762500Y-73540600D01*
G75*
G02*
X133000000Y-73778100I0J-237500D01*
G01*
X133000000Y-74253100D01*
G75*
G02*
X132762500Y-74490600I-237500J0D01*
G01*
X132187500Y-74490600D01*
G75*
G02*
X131950000Y-74253100I0J237500D01*
G01*
G37*
%TD*%
M02*
