%TF.GenerationSoftware,KiCad,Pcbnew,5.1.6-c6e7f7d~87~ubuntu18.04.1*%
%TF.CreationDate,2020-10-05T22:19:12-07:00*%
%TF.ProjectId,feather-power-supply-sw-smd,66656174-6865-4722-9d70-6f7765722d73,rev?*%
%TF.SameCoordinates,Original*%
%TF.FileFunction,Copper,L1,Top*%
%TF.FilePolarity,Positive*%
%FSLAX46Y46*%
G04 Gerber Fmt 4.6, Leading zero omitted, Abs format (unit mm)*
G04 Created by KiCad (PCBNEW 5.1.6-c6e7f7d~87~ubuntu18.04.1) date 2020-10-05 22:19:12*
%MOMM*%
%LPD*%
G01*
G04 APERTURE LIST*
%TA.AperFunction,EtchedComponent*%
%ADD10C,0.100000*%
%TD*%
%TA.AperFunction,SMDPad,CuDef*%
%ADD11R,0.800000X0.900000*%
%TD*%
%TA.AperFunction,SMDPad,CuDef*%
%ADD12R,1.000000X4.400000*%
%TD*%
%TA.AperFunction,ComponentPad*%
%ADD13O,1.700000X1.700000*%
%TD*%
%TA.AperFunction,ComponentPad*%
%ADD14R,1.700000X1.700000*%
%TD*%
%TA.AperFunction,ComponentPad*%
%ADD15R,2.600000X2.600000*%
%TD*%
%TA.AperFunction,ComponentPad*%
%ADD16C,2.600000*%
%TD*%
%TA.AperFunction,ComponentPad*%
%ADD17C,5.000000*%
%TD*%
%TA.AperFunction,SMDPad,CuDef*%
%ADD18C,0.100000*%
%TD*%
%TA.AperFunction,SMDPad,CuDef*%
%ADD19R,1.100000X1.100000*%
%TD*%
%TA.AperFunction,SMDPad,CuDef*%
%ADD20R,0.600000X2.000000*%
%TD*%
%TA.AperFunction,ViaPad*%
%ADD21C,0.685800*%
%TD*%
%TA.AperFunction,Conductor*%
%ADD22C,0.304800*%
%TD*%
%TA.AperFunction,Conductor*%
%ADD23C,1.219200*%
%TD*%
%TA.AperFunction,Conductor*%
%ADD24C,0.609600*%
%TD*%
%TA.AperFunction,Conductor*%
%ADD25C,1.524000*%
%TD*%
%TA.AperFunction,Conductor*%
%ADD26C,0.254000*%
%TD*%
G04 APERTURE END LIST*
D10*
%TO.C,JP1*%
G36*
X133100000Y-72232800D02*
G01*
X133600000Y-72232800D01*
X133600000Y-71632800D01*
X133100000Y-71632800D01*
X133100000Y-72232800D01*
G37*
%TD*%
%TO.P,J4,MP*%
%TO.N,N/C*%
%TA.AperFunction,SMDPad,CuDef*%
G36*
G01*
X141900000Y-109205001D02*
X141900000Y-107904999D01*
G75*
G02*
X142149999Y-107655000I249999J0D01*
G01*
X142850001Y-107655000D01*
G75*
G02*
X143100000Y-107904999I0J-249999D01*
G01*
X143100000Y-109205001D01*
G75*
G02*
X142850001Y-109455000I-249999J0D01*
G01*
X142149999Y-109455000D01*
G75*
G02*
X141900000Y-109205001I0J249999D01*
G01*
G37*
%TD.AperFunction*%
%TA.AperFunction,SMDPad,CuDef*%
G36*
G01*
X136300000Y-109205001D02*
X136300000Y-107904999D01*
G75*
G02*
X136549999Y-107655000I249999J0D01*
G01*
X137250001Y-107655000D01*
G75*
G02*
X137500000Y-107904999I0J-249999D01*
G01*
X137500000Y-109205001D01*
G75*
G02*
X137250001Y-109455000I-249999J0D01*
G01*
X136549999Y-109455000D01*
G75*
G02*
X136300000Y-109205001I0J249999D01*
G01*
G37*
%TD.AperFunction*%
%TO.P,J4,4*%
%TO.N,SDA*%
%TA.AperFunction,SMDPad,CuDef*%
G36*
G01*
X140900000Y-105305000D02*
X140900000Y-104055000D01*
G75*
G02*
X141050000Y-103905000I150000J0D01*
G01*
X141350000Y-103905000D01*
G75*
G02*
X141500000Y-104055000I0J-150000D01*
G01*
X141500000Y-105305000D01*
G75*
G02*
X141350000Y-105455000I-150000J0D01*
G01*
X141050000Y-105455000D01*
G75*
G02*
X140900000Y-105305000I0J150000D01*
G01*
G37*
%TD.AperFunction*%
%TO.P,J4,3*%
%TO.N,SCL*%
%TA.AperFunction,SMDPad,CuDef*%
G36*
G01*
X139900000Y-105305000D02*
X139900000Y-104055000D01*
G75*
G02*
X140050000Y-103905000I150000J0D01*
G01*
X140350000Y-103905000D01*
G75*
G02*
X140500000Y-104055000I0J-150000D01*
G01*
X140500000Y-105305000D01*
G75*
G02*
X140350000Y-105455000I-150000J0D01*
G01*
X140050000Y-105455000D01*
G75*
G02*
X139900000Y-105305000I0J150000D01*
G01*
G37*
%TD.AperFunction*%
%TO.P,J4,2*%
%TO.N,+5V*%
%TA.AperFunction,SMDPad,CuDef*%
G36*
G01*
X138900000Y-105305000D02*
X138900000Y-104055000D01*
G75*
G02*
X139050000Y-103905000I150000J0D01*
G01*
X139350000Y-103905000D01*
G75*
G02*
X139500000Y-104055000I0J-150000D01*
G01*
X139500000Y-105305000D01*
G75*
G02*
X139350000Y-105455000I-150000J0D01*
G01*
X139050000Y-105455000D01*
G75*
G02*
X138900000Y-105305000I0J150000D01*
G01*
G37*
%TD.AperFunction*%
%TO.P,J4,1*%
%TO.N,GND*%
%TA.AperFunction,SMDPad,CuDef*%
G36*
G01*
X137900000Y-105305000D02*
X137900000Y-104055000D01*
G75*
G02*
X138050000Y-103905000I150000J0D01*
G01*
X138350000Y-103905000D01*
G75*
G02*
X138500000Y-104055000I0J-150000D01*
G01*
X138500000Y-105305000D01*
G75*
G02*
X138350000Y-105455000I-150000J0D01*
G01*
X138050000Y-105455000D01*
G75*
G02*
X137900000Y-105305000I0J150000D01*
G01*
G37*
%TD.AperFunction*%
%TD*%
D11*
%TO.P,Q1,3*%
%TO.N,Net-(F1-Pad2)*%
X136804400Y-72304400D03*
%TO.P,Q1,2*%
%TO.N,VIN_SW*%
X137754400Y-74304400D03*
%TO.P,Q1,1*%
%TO.N,GND*%
X135854400Y-74304400D03*
%TD*%
D12*
%TO.P,L1,2*%
%TO.N,+5V*%
X142827600Y-87680800D03*
%TO.P,L1,1*%
%TO.N,Net-(C1-Pad2)*%
X140077600Y-87680800D03*
%TD*%
%TO.P,R5,2*%
%TO.N,Net-(D2-Pad2)*%
%TA.AperFunction,SMDPad,CuDef*%
G36*
G01*
X146400000Y-87359500D02*
X146400000Y-86884500D01*
G75*
G02*
X146637500Y-86647000I237500J0D01*
G01*
X147212500Y-86647000D01*
G75*
G02*
X147450000Y-86884500I0J-237500D01*
G01*
X147450000Y-87359500D01*
G75*
G02*
X147212500Y-87597000I-237500J0D01*
G01*
X146637500Y-87597000D01*
G75*
G02*
X146400000Y-87359500I0J237500D01*
G01*
G37*
%TD.AperFunction*%
%TO.P,R5,1*%
%TO.N,+5V*%
%TA.AperFunction,SMDPad,CuDef*%
G36*
G01*
X144650000Y-87359500D02*
X144650000Y-86884500D01*
G75*
G02*
X144887500Y-86647000I237500J0D01*
G01*
X145462500Y-86647000D01*
G75*
G02*
X145700000Y-86884500I0J-237500D01*
G01*
X145700000Y-87359500D01*
G75*
G02*
X145462500Y-87597000I-237500J0D01*
G01*
X144887500Y-87597000D01*
G75*
G02*
X144650000Y-87359500I0J237500D01*
G01*
G37*
%TD.AperFunction*%
%TD*%
%TO.P,D2,2*%
%TO.N,Net-(D2-Pad2)*%
%TA.AperFunction,SMDPad,CuDef*%
G36*
G01*
X146350000Y-89554000D02*
X146350000Y-88754000D01*
G75*
G02*
X146600000Y-88504000I250000J0D01*
G01*
X147425000Y-88504000D01*
G75*
G02*
X147675000Y-88754000I0J-250000D01*
G01*
X147675000Y-89554000D01*
G75*
G02*
X147425000Y-89804000I-250000J0D01*
G01*
X146600000Y-89804000D01*
G75*
G02*
X146350000Y-89554000I0J250000D01*
G01*
G37*
%TD.AperFunction*%
%TO.P,D2,1*%
%TO.N,GND*%
%TA.AperFunction,SMDPad,CuDef*%
G36*
G01*
X144425000Y-89554000D02*
X144425000Y-88754000D01*
G75*
G02*
X144675000Y-88504000I250000J0D01*
G01*
X145500000Y-88504000D01*
G75*
G02*
X145750000Y-88754000I0J-250000D01*
G01*
X145750000Y-89554000D01*
G75*
G02*
X145500000Y-89804000I-250000J0D01*
G01*
X144675000Y-89804000D01*
G75*
G02*
X144425000Y-89554000I0J250000D01*
G01*
G37*
%TD.AperFunction*%
%TD*%
D13*
%TO.P,J5,4*%
%TO.N,SDA*%
X143510000Y-98933000D03*
%TO.P,J5,3*%
%TO.N,SCL*%
X140970000Y-98933000D03*
%TO.P,J5,2*%
%TO.N,+5V*%
X138430000Y-98933000D03*
D14*
%TO.P,J5,1*%
%TO.N,GND*%
X135890000Y-98933000D03*
%TD*%
D15*
%TO.P,J1,1*%
%TO.N,GND*%
X142176500Y-64643000D03*
D16*
%TO.P,J1,2*%
%TO.N,VCC*%
X137176500Y-64643000D03*
%TD*%
%TO.P,F1,2*%
%TO.N,Net-(F1-Pad2)*%
%TA.AperFunction,SMDPad,CuDef*%
G36*
G01*
X140688000Y-71523400D02*
X140688000Y-74323400D01*
G75*
G02*
X140438000Y-74573400I-250000J0D01*
G01*
X139463000Y-74573400D01*
G75*
G02*
X139213000Y-74323400I0J250000D01*
G01*
X139213000Y-71523400D01*
G75*
G02*
X139463000Y-71273400I250000J0D01*
G01*
X140438000Y-71273400D01*
G75*
G02*
X140688000Y-71523400I0J-250000D01*
G01*
G37*
%TD.AperFunction*%
%TO.P,F1,1*%
%TO.N,VCC*%
%TA.AperFunction,SMDPad,CuDef*%
G36*
G01*
X145013000Y-71523400D02*
X145013000Y-74323400D01*
G75*
G02*
X144763000Y-74573400I-250000J0D01*
G01*
X143788000Y-74573400D01*
G75*
G02*
X143538000Y-74323400I0J250000D01*
G01*
X143538000Y-71523400D01*
G75*
G02*
X143788000Y-71273400I250000J0D01*
G01*
X144763000Y-71273400D01*
G75*
G02*
X145013000Y-71523400I0J-250000D01*
G01*
G37*
%TD.AperFunction*%
%TD*%
D17*
%TO.P,H2,1*%
%TO.N,GND*%
X148615400Y-61671200D03*
%TD*%
%TO.P,H1,1*%
%TO.N,GND*%
X130810000Y-61696600D03*
%TD*%
%TO.P,C5,2*%
%TO.N,GND*%
%TA.AperFunction,SMDPad,CuDef*%
G36*
G01*
X144026200Y-82029000D02*
X141876200Y-82029000D01*
G75*
G02*
X141626200Y-81779000I0J250000D01*
G01*
X141626200Y-80854000D01*
G75*
G02*
X141876200Y-80604000I250000J0D01*
G01*
X144026200Y-80604000D01*
G75*
G02*
X144276200Y-80854000I0J-250000D01*
G01*
X144276200Y-81779000D01*
G75*
G02*
X144026200Y-82029000I-250000J0D01*
G01*
G37*
%TD.AperFunction*%
%TO.P,C5,1*%
%TO.N,+5V*%
%TA.AperFunction,SMDPad,CuDef*%
G36*
G01*
X144026200Y-85004000D02*
X141876200Y-85004000D01*
G75*
G02*
X141626200Y-84754000I0J250000D01*
G01*
X141626200Y-83829000D01*
G75*
G02*
X141876200Y-83579000I250000J0D01*
G01*
X144026200Y-83579000D01*
G75*
G02*
X144276200Y-83829000I0J-250000D01*
G01*
X144276200Y-84754000D01*
G75*
G02*
X144026200Y-85004000I-250000J0D01*
G01*
G37*
%TD.AperFunction*%
%TD*%
%TO.P,C9,2*%
%TO.N,GND*%
%TA.AperFunction,SMDPad,CuDef*%
G36*
G01*
X133700000Y-77301100D02*
X133700000Y-76826100D01*
G75*
G02*
X133937500Y-76588600I237500J0D01*
G01*
X134512500Y-76588600D01*
G75*
G02*
X134750000Y-76826100I0J-237500D01*
G01*
X134750000Y-77301100D01*
G75*
G02*
X134512500Y-77538600I-237500J0D01*
G01*
X133937500Y-77538600D01*
G75*
G02*
X133700000Y-77301100I0J237500D01*
G01*
G37*
%TD.AperFunction*%
%TO.P,C9,1*%
%TO.N,A1*%
%TA.AperFunction,SMDPad,CuDef*%
G36*
G01*
X131950000Y-77301100D02*
X131950000Y-76826100D01*
G75*
G02*
X132187500Y-76588600I237500J0D01*
G01*
X132762500Y-76588600D01*
G75*
G02*
X133000000Y-76826100I0J-237500D01*
G01*
X133000000Y-77301100D01*
G75*
G02*
X132762500Y-77538600I-237500J0D01*
G01*
X132187500Y-77538600D01*
G75*
G02*
X131950000Y-77301100I0J237500D01*
G01*
G37*
%TD.AperFunction*%
%TD*%
%TO.P,C6,2*%
%TO.N,GND*%
%TA.AperFunction,SMDPad,CuDef*%
G36*
G01*
X147328200Y-82029000D02*
X145178200Y-82029000D01*
G75*
G02*
X144928200Y-81779000I0J250000D01*
G01*
X144928200Y-80854000D01*
G75*
G02*
X145178200Y-80604000I250000J0D01*
G01*
X147328200Y-80604000D01*
G75*
G02*
X147578200Y-80854000I0J-250000D01*
G01*
X147578200Y-81779000D01*
G75*
G02*
X147328200Y-82029000I-250000J0D01*
G01*
G37*
%TD.AperFunction*%
%TO.P,C6,1*%
%TO.N,+5V*%
%TA.AperFunction,SMDPad,CuDef*%
G36*
G01*
X147328200Y-85004000D02*
X145178200Y-85004000D01*
G75*
G02*
X144928200Y-84754000I0J250000D01*
G01*
X144928200Y-83829000D01*
G75*
G02*
X145178200Y-83579000I250000J0D01*
G01*
X147328200Y-83579000D01*
G75*
G02*
X147578200Y-83829000I0J-250000D01*
G01*
X147578200Y-84754000D01*
G75*
G02*
X147328200Y-85004000I-250000J0D01*
G01*
G37*
%TD.AperFunction*%
%TD*%
%TA.AperFunction,SMDPad,CuDef*%
D18*
%TO.P,JP1,1*%
%TO.N,VIN_SW*%
G36*
X133500000Y-71182800D02*
G01*
X134000000Y-71182800D01*
X134000000Y-71183402D01*
X134024534Y-71183402D01*
X134073365Y-71188212D01*
X134121490Y-71197784D01*
X134168445Y-71212028D01*
X134213778Y-71230805D01*
X134257051Y-71253936D01*
X134297850Y-71281196D01*
X134335779Y-71312324D01*
X134370476Y-71347021D01*
X134401604Y-71384950D01*
X134428864Y-71425749D01*
X134451995Y-71469022D01*
X134470772Y-71514355D01*
X134485016Y-71561310D01*
X134494588Y-71609435D01*
X134499398Y-71658266D01*
X134499398Y-71682800D01*
X134500000Y-71682800D01*
X134500000Y-72182800D01*
X134499398Y-72182800D01*
X134499398Y-72207334D01*
X134494588Y-72256165D01*
X134485016Y-72304290D01*
X134470772Y-72351245D01*
X134451995Y-72396578D01*
X134428864Y-72439851D01*
X134401604Y-72480650D01*
X134370476Y-72518579D01*
X134335779Y-72553276D01*
X134297850Y-72584404D01*
X134257051Y-72611664D01*
X134213778Y-72634795D01*
X134168445Y-72653572D01*
X134121490Y-72667816D01*
X134073365Y-72677388D01*
X134024534Y-72682198D01*
X134000000Y-72682198D01*
X134000000Y-72682800D01*
X133500000Y-72682800D01*
X133500000Y-71182800D01*
G37*
%TD.AperFunction*%
%TA.AperFunction,SMDPad,CuDef*%
%TO.P,JP1,2*%
%TO.N,Net-(JP1-Pad2)*%
G36*
X132700000Y-72682198D02*
G01*
X132675466Y-72682198D01*
X132626635Y-72677388D01*
X132578510Y-72667816D01*
X132531555Y-72653572D01*
X132486222Y-72634795D01*
X132442949Y-72611664D01*
X132402150Y-72584404D01*
X132364221Y-72553276D01*
X132329524Y-72518579D01*
X132298396Y-72480650D01*
X132271136Y-72439851D01*
X132248005Y-72396578D01*
X132229228Y-72351245D01*
X132214984Y-72304290D01*
X132205412Y-72256165D01*
X132200602Y-72207334D01*
X132200602Y-72182800D01*
X132200000Y-72182800D01*
X132200000Y-71682800D01*
X132200602Y-71682800D01*
X132200602Y-71658266D01*
X132205412Y-71609435D01*
X132214984Y-71561310D01*
X132229228Y-71514355D01*
X132248005Y-71469022D01*
X132271136Y-71425749D01*
X132298396Y-71384950D01*
X132329524Y-71347021D01*
X132364221Y-71312324D01*
X132402150Y-71281196D01*
X132442949Y-71253936D01*
X132486222Y-71230805D01*
X132531555Y-71212028D01*
X132578510Y-71197784D01*
X132626635Y-71188212D01*
X132675466Y-71183402D01*
X132700000Y-71183402D01*
X132700000Y-71182800D01*
X133200000Y-71182800D01*
X133200000Y-72682800D01*
X132700000Y-72682800D01*
X132700000Y-72682198D01*
G37*
%TD.AperFunction*%
%TD*%
%TO.P,R4,2*%
%TO.N,GND*%
%TA.AperFunction,SMDPad,CuDef*%
G36*
G01*
X133700000Y-75777100D02*
X133700000Y-75302100D01*
G75*
G02*
X133937500Y-75064600I237500J0D01*
G01*
X134512500Y-75064600D01*
G75*
G02*
X134750000Y-75302100I0J-237500D01*
G01*
X134750000Y-75777100D01*
G75*
G02*
X134512500Y-76014600I-237500J0D01*
G01*
X133937500Y-76014600D01*
G75*
G02*
X133700000Y-75777100I0J237500D01*
G01*
G37*
%TD.AperFunction*%
%TO.P,R4,1*%
%TO.N,A1*%
%TA.AperFunction,SMDPad,CuDef*%
G36*
G01*
X131950000Y-75777100D02*
X131950000Y-75302100D01*
G75*
G02*
X132187500Y-75064600I237500J0D01*
G01*
X132762500Y-75064600D01*
G75*
G02*
X133000000Y-75302100I0J-237500D01*
G01*
X133000000Y-75777100D01*
G75*
G02*
X132762500Y-76014600I-237500J0D01*
G01*
X132187500Y-76014600D01*
G75*
G02*
X131950000Y-75777100I0J237500D01*
G01*
G37*
%TD.AperFunction*%
%TD*%
%TO.P,C2,2*%
%TO.N,GND*%
%TA.AperFunction,SMDPad,CuDef*%
G36*
G01*
X139713000Y-77282200D02*
X139713000Y-76032200D01*
G75*
G02*
X139963000Y-75782200I250000J0D01*
G01*
X140888000Y-75782200D01*
G75*
G02*
X141138000Y-76032200I0J-250000D01*
G01*
X141138000Y-77282200D01*
G75*
G02*
X140888000Y-77532200I-250000J0D01*
G01*
X139963000Y-77532200D01*
G75*
G02*
X139713000Y-77282200I0J250000D01*
G01*
G37*
%TD.AperFunction*%
%TO.P,C2,1*%
%TO.N,VIN_SW*%
%TA.AperFunction,SMDPad,CuDef*%
G36*
G01*
X136738000Y-77282826D02*
X136738000Y-76031574D01*
G75*
G02*
X136987374Y-75782200I249374J0D01*
G01*
X137913626Y-75782200D01*
G75*
G02*
X138163000Y-76031574I0J-249374D01*
G01*
X138163000Y-77282826D01*
G75*
G02*
X137913626Y-77532200I-249374J0D01*
G01*
X136987374Y-77532200D01*
G75*
G02*
X136738000Y-77282826I0J249374D01*
G01*
G37*
%TD.AperFunction*%
%TD*%
%TO.P,R2,2*%
%TO.N,GND*%
%TA.AperFunction,SMDPad,CuDef*%
G36*
G01*
X132198100Y-83789000D02*
X132673100Y-83789000D01*
G75*
G02*
X132910600Y-84026500I0J-237500D01*
G01*
X132910600Y-84601500D01*
G75*
G02*
X132673100Y-84839000I-237500J0D01*
G01*
X132198100Y-84839000D01*
G75*
G02*
X131960600Y-84601500I0J237500D01*
G01*
X131960600Y-84026500D01*
G75*
G02*
X132198100Y-83789000I237500J0D01*
G01*
G37*
%TD.AperFunction*%
%TO.P,R2,1*%
%TO.N,/ROSC*%
%TA.AperFunction,SMDPad,CuDef*%
G36*
G01*
X132198100Y-82039000D02*
X132673100Y-82039000D01*
G75*
G02*
X132910600Y-82276500I0J-237500D01*
G01*
X132910600Y-82851500D01*
G75*
G02*
X132673100Y-83089000I-237500J0D01*
G01*
X132198100Y-83089000D01*
G75*
G02*
X131960600Y-82851500I0J237500D01*
G01*
X131960600Y-82276500D01*
G75*
G02*
X132198100Y-82039000I237500J0D01*
G01*
G37*
%TD.AperFunction*%
%TD*%
D19*
%TO.P,D1,2*%
%TO.N,GND*%
X140106400Y-81658000D03*
%TO.P,D1,1*%
%TO.N,Net-(C1-Pad2)*%
X140106400Y-84458000D03*
%TD*%
D20*
%TO.P,U1,3*%
%TO.N,/ROSC*%
X135509000Y-79134800D03*
%TO.P,U1,8*%
%TO.N,Net-(C1-Pad2)*%
X138049000Y-84034800D03*
%TO.P,U1,7*%
%TO.N,GND*%
X136779000Y-84034800D03*
%TO.P,U1,6*%
%TO.N,Net-(R1-Pad1)*%
X135509000Y-84034800D03*
%TO.P,U1,5*%
%TO.N,Net-(C1-Pad2)*%
X134239000Y-84034800D03*
%TO.P,U1,4*%
%TO.N,Net-(C8-Pad1)*%
X134239000Y-79134800D03*
%TO.P,U1,2*%
%TO.N,VIN_SW*%
X136779000Y-79134800D03*
%TO.P,U1,1*%
%TO.N,Net-(C1-Pad1)*%
X138049000Y-79134800D03*
%TD*%
%TO.P,R1,2*%
%TO.N,Net-(C7-Pad1)*%
%TA.AperFunction,SMDPad,CuDef*%
G36*
G01*
X134270000Y-85868500D02*
X134270000Y-86343500D01*
G75*
G02*
X134032500Y-86581000I-237500J0D01*
G01*
X133457500Y-86581000D01*
G75*
G02*
X133220000Y-86343500I0J237500D01*
G01*
X133220000Y-85868500D01*
G75*
G02*
X133457500Y-85631000I237500J0D01*
G01*
X134032500Y-85631000D01*
G75*
G02*
X134270000Y-85868500I0J-237500D01*
G01*
G37*
%TD.AperFunction*%
%TO.P,R1,1*%
%TO.N,Net-(R1-Pad1)*%
%TA.AperFunction,SMDPad,CuDef*%
G36*
G01*
X136020000Y-85868500D02*
X136020000Y-86343500D01*
G75*
G02*
X135782500Y-86581000I-237500J0D01*
G01*
X135207500Y-86581000D01*
G75*
G02*
X134970000Y-86343500I0J237500D01*
G01*
X134970000Y-85868500D01*
G75*
G02*
X135207500Y-85631000I237500J0D01*
G01*
X135782500Y-85631000D01*
G75*
G02*
X136020000Y-85868500I0J-237500D01*
G01*
G37*
%TD.AperFunction*%
%TD*%
%TO.P,C8,2*%
%TO.N,GND*%
%TA.AperFunction,SMDPad,CuDef*%
G36*
G01*
X132172700Y-80283800D02*
X132647700Y-80283800D01*
G75*
G02*
X132885200Y-80521300I0J-237500D01*
G01*
X132885200Y-81096300D01*
G75*
G02*
X132647700Y-81333800I-237500J0D01*
G01*
X132172700Y-81333800D01*
G75*
G02*
X131935200Y-81096300I0J237500D01*
G01*
X131935200Y-80521300D01*
G75*
G02*
X132172700Y-80283800I237500J0D01*
G01*
G37*
%TD.AperFunction*%
%TO.P,C8,1*%
%TO.N,Net-(C8-Pad1)*%
%TA.AperFunction,SMDPad,CuDef*%
G36*
G01*
X132172700Y-78533800D02*
X132647700Y-78533800D01*
G75*
G02*
X132885200Y-78771300I0J-237500D01*
G01*
X132885200Y-79346300D01*
G75*
G02*
X132647700Y-79583800I-237500J0D01*
G01*
X132172700Y-79583800D01*
G75*
G02*
X131935200Y-79346300I0J237500D01*
G01*
X131935200Y-78771300D01*
G75*
G02*
X132172700Y-78533800I237500J0D01*
G01*
G37*
%TD.AperFunction*%
%TD*%
%TO.P,C7,2*%
%TO.N,GND*%
%TA.AperFunction,SMDPad,CuDef*%
G36*
G01*
X134970000Y-87867500D02*
X134970000Y-87392500D01*
G75*
G02*
X135207500Y-87155000I237500J0D01*
G01*
X135782500Y-87155000D01*
G75*
G02*
X136020000Y-87392500I0J-237500D01*
G01*
X136020000Y-87867500D01*
G75*
G02*
X135782500Y-88105000I-237500J0D01*
G01*
X135207500Y-88105000D01*
G75*
G02*
X134970000Y-87867500I0J237500D01*
G01*
G37*
%TD.AperFunction*%
%TO.P,C7,1*%
%TO.N,Net-(C7-Pad1)*%
%TA.AperFunction,SMDPad,CuDef*%
G36*
G01*
X133220000Y-87867500D02*
X133220000Y-87392500D01*
G75*
G02*
X133457500Y-87155000I237500J0D01*
G01*
X134032500Y-87155000D01*
G75*
G02*
X134270000Y-87392500I0J-237500D01*
G01*
X134270000Y-87867500D01*
G75*
G02*
X134032500Y-88105000I-237500J0D01*
G01*
X133457500Y-88105000D01*
G75*
G02*
X133220000Y-87867500I0J237500D01*
G01*
G37*
%TD.AperFunction*%
%TD*%
%TO.P,C1,2*%
%TO.N,Net-(C1-Pad2)*%
%TA.AperFunction,SMDPad,CuDef*%
G36*
G01*
X138388100Y-86670400D02*
X137913100Y-86670400D01*
G75*
G02*
X137675600Y-86432900I0J237500D01*
G01*
X137675600Y-85857900D01*
G75*
G02*
X137913100Y-85620400I237500J0D01*
G01*
X138388100Y-85620400D01*
G75*
G02*
X138625600Y-85857900I0J-237500D01*
G01*
X138625600Y-86432900D01*
G75*
G02*
X138388100Y-86670400I-237500J0D01*
G01*
G37*
%TD.AperFunction*%
%TO.P,C1,1*%
%TO.N,Net-(C1-Pad1)*%
%TA.AperFunction,SMDPad,CuDef*%
G36*
G01*
X138388100Y-88420400D02*
X137913100Y-88420400D01*
G75*
G02*
X137675600Y-88182900I0J237500D01*
G01*
X137675600Y-87607900D01*
G75*
G02*
X137913100Y-87370400I237500J0D01*
G01*
X138388100Y-87370400D01*
G75*
G02*
X138625600Y-87607900I0J-237500D01*
G01*
X138625600Y-88182900D01*
G75*
G02*
X138388100Y-88420400I-237500J0D01*
G01*
G37*
%TD.AperFunction*%
%TD*%
D13*
%TO.P,J3,16*%
%TO.N,Net-(J3-Pad16)*%
X129565400Y-104089200D03*
%TO.P,J3,15*%
%TO.N,Net-(J3-Pad15)*%
X129565400Y-101549200D03*
%TO.P,J3,14*%
%TO.N,Net-(J3-Pad14)*%
X129565400Y-99009200D03*
%TO.P,J3,13*%
%TO.N,Net-(J3-Pad13)*%
X129565400Y-96469200D03*
%TO.P,J3,12*%
%TO.N,Net-(J3-Pad12)*%
X129565400Y-93929200D03*
%TO.P,J3,11*%
%TO.N,Net-(J3-Pad11)*%
X129565400Y-91389200D03*
%TO.P,J3,10*%
%TO.N,Net-(J3-Pad10)*%
X129565400Y-88849200D03*
%TO.P,J3,9*%
%TO.N,Net-(J3-Pad9)*%
X129565400Y-86309200D03*
%TO.P,J3,8*%
%TO.N,Net-(J3-Pad8)*%
X129565400Y-83769200D03*
%TO.P,J3,7*%
%TO.N,Net-(J3-Pad7)*%
X129565400Y-81229200D03*
%TO.P,J3,6*%
%TO.N,A1*%
X129565400Y-78689200D03*
%TO.P,J3,5*%
%TO.N,Net-(J3-Pad5)*%
X129565400Y-76149200D03*
%TO.P,J3,4*%
%TO.N,GND*%
X129565400Y-73609200D03*
%TO.P,J3,3*%
%TO.N,Net-(J3-Pad3)*%
X129565400Y-71069200D03*
%TO.P,J3,2*%
%TO.N,Net-(J3-Pad2)*%
X129565400Y-68529200D03*
D14*
%TO.P,J3,1*%
%TO.N,Net-(J3-Pad1)*%
X129565400Y-65989200D03*
%TD*%
%TO.P,R3,2*%
%TO.N,Net-(JP1-Pad2)*%
%TA.AperFunction,SMDPad,CuDef*%
G36*
G01*
X133700000Y-74253100D02*
X133700000Y-73778100D01*
G75*
G02*
X133937500Y-73540600I237500J0D01*
G01*
X134512500Y-73540600D01*
G75*
G02*
X134750000Y-73778100I0J-237500D01*
G01*
X134750000Y-74253100D01*
G75*
G02*
X134512500Y-74490600I-237500J0D01*
G01*
X133937500Y-74490600D01*
G75*
G02*
X133700000Y-74253100I0J237500D01*
G01*
G37*
%TD.AperFunction*%
%TO.P,R3,1*%
%TO.N,A1*%
%TA.AperFunction,SMDPad,CuDef*%
G36*
G01*
X131950000Y-74253100D02*
X131950000Y-73778100D01*
G75*
G02*
X132187500Y-73540600I237500J0D01*
G01*
X132762500Y-73540600D01*
G75*
G02*
X133000000Y-73778100I0J-237500D01*
G01*
X133000000Y-74253100D01*
G75*
G02*
X132762500Y-74490600I-237500J0D01*
G01*
X132187500Y-74490600D01*
G75*
G02*
X131950000Y-74253100I0J237500D01*
G01*
G37*
%TD.AperFunction*%
%TD*%
%TO.P,J2,1*%
%TO.N,Net-(J2-Pad1)*%
X149860000Y-76200000D03*
D13*
%TO.P,J2,2*%
%TO.N,+3V3*%
X149860000Y-78740000D03*
%TO.P,J2,3*%
%TO.N,Net-(J2-Pad3)*%
X149860000Y-81280000D03*
%TO.P,J2,4*%
%TO.N,+5V*%
X149860000Y-83820000D03*
%TO.P,J2,5*%
%TO.N,Net-(J2-Pad5)*%
X149860000Y-86360000D03*
%TO.P,J2,6*%
%TO.N,Net-(J2-Pad6)*%
X149860000Y-88900000D03*
%TO.P,J2,7*%
%TO.N,Net-(J2-Pad7)*%
X149860000Y-91440000D03*
%TO.P,J2,8*%
%TO.N,Net-(J2-Pad8)*%
X149860000Y-93980000D03*
%TO.P,J2,9*%
%TO.N,Net-(J2-Pad9)*%
X149860000Y-96520000D03*
%TO.P,J2,10*%
%TO.N,Net-(J2-Pad10)*%
X149860000Y-99060000D03*
%TO.P,J2,11*%
%TO.N,SCL*%
X149860000Y-101600000D03*
%TO.P,J2,12*%
%TO.N,SDA*%
X149860000Y-104140000D03*
%TD*%
D21*
%TO.N,GND*%
X134620000Y-59994800D03*
X135921750Y-59994800D03*
X138525250Y-59994800D03*
X137223500Y-59994800D03*
X142430500Y-59994800D03*
X143732250Y-59994800D03*
X141128750Y-59994800D03*
X145034000Y-59994800D03*
X139827000Y-59994800D03*
X136906000Y-87630000D03*
X133858000Y-80772000D03*
X136652000Y-81280000D03*
X139192000Y-78232000D03*
X143510000Y-77724000D03*
X143510000Y-76200000D03*
X145542000Y-79502000D03*
X135636000Y-76708000D03*
X135636000Y-77470000D03*
X142240000Y-77724000D03*
X142240000Y-76200000D03*
X146812000Y-79502000D03*
X149860000Y-65532000D03*
X134112000Y-102616000D03*
X134112000Y-89408000D03*
X132588000Y-98044000D03*
X135636000Y-89408000D03*
X142240000Y-79502000D03*
X143510000Y-79502000D03*
X140078525Y-80306009D03*
X140970000Y-79502000D03*
X145288000Y-95504000D03*
X130873500Y-72390000D03*
X130810000Y-74930000D03*
X135890029Y-100837971D03*
X132588000Y-99568000D03*
X132588000Y-89408000D03*
X135636000Y-90932000D03*
X134112000Y-90932000D03*
X132588000Y-90932000D03*
X137160000Y-90932000D03*
X138684000Y-90932000D03*
X140208000Y-90932000D03*
X141732000Y-90932000D03*
X143256000Y-90932000D03*
X137160000Y-89408000D03*
X134112000Y-94996000D03*
X132588000Y-94996000D03*
X140208000Y-94996000D03*
X137160000Y-94996000D03*
X135636000Y-94996000D03*
X138684000Y-94996000D03*
X141732000Y-94996000D03*
X143256000Y-92456000D03*
X143256000Y-93980000D03*
X146812000Y-95504000D03*
X132588000Y-96520000D03*
X132588000Y-101092000D03*
X132588000Y-102616000D03*
X135636000Y-102616000D03*
X149860000Y-67564000D03*
X149860000Y-69596000D03*
X149860000Y-71628000D03*
X149860000Y-73660000D03*
X146812000Y-99568000D03*
X146812000Y-77724000D03*
X146812000Y-76200000D03*
X145288000Y-76200000D03*
X145288000Y-77724000D03*
X146812000Y-74676000D03*
X146812000Y-102616000D03*
X143764000Y-102616000D03*
X145288000Y-102616000D03*
X146812000Y-104140000D03*
X145288000Y-104140000D03*
X143764000Y-104140000D03*
X135636000Y-104140000D03*
X132588000Y-104140000D03*
X134112000Y-104140000D03*
X145288000Y-108712000D03*
X146812000Y-108712000D03*
X143764000Y-108712000D03*
X139088090Y-108712000D03*
X140716000Y-108712000D03*
X134112000Y-108712000D03*
X132588000Y-108712000D03*
X135636000Y-108712000D03*
X146050000Y-86106000D03*
X146812000Y-93980000D03*
%TO.N,Net-(C1-Pad1)*%
X138150600Y-89128600D03*
X139191994Y-79248000D03*
%TD*%
D22*
%TO.N,GND*%
X135280400Y-77063600D02*
X135636000Y-76708000D01*
X134225000Y-77063600D02*
X135280400Y-77063600D01*
X136779000Y-87503000D02*
X136906000Y-87630000D01*
X136779000Y-84034800D02*
X136779000Y-87503000D01*
X135495000Y-87630000D02*
X136906000Y-87630000D01*
X133821200Y-80808800D02*
X133858000Y-80772000D01*
X132410200Y-80808800D02*
X133821200Y-80808800D01*
X135636000Y-76708000D02*
X135636000Y-77470000D01*
D23*
X143510000Y-80757700D02*
X142951200Y-81316500D01*
X143510000Y-79502000D02*
X143510000Y-80757700D01*
X142240000Y-80605300D02*
X142951200Y-81316500D01*
X142240000Y-79502000D02*
X142240000Y-80605300D01*
X145542000Y-80605300D02*
X146253200Y-81316500D01*
X145542000Y-79502000D02*
X145542000Y-80605300D01*
X146812000Y-80757700D02*
X146253200Y-81316500D01*
X146812000Y-79502000D02*
X146812000Y-80757700D01*
X140882700Y-76200000D02*
X140425500Y-76657200D01*
X142240000Y-76200000D02*
X140882700Y-76200000D01*
X140425500Y-76657200D02*
X141173200Y-76657200D01*
X141173200Y-76657200D02*
X142240000Y-77724000D01*
D24*
X140106400Y-80333884D02*
X140078525Y-80306009D01*
X140106400Y-81658000D02*
X140106400Y-80333884D01*
D22*
X135854400Y-76489600D02*
X135636000Y-76708000D01*
X135854400Y-74304400D02*
X135854400Y-76489600D01*
X134467600Y-75539600D02*
X135636000Y-76708000D01*
X134225000Y-75539600D02*
X134467600Y-75539600D01*
D23*
X142240000Y-76200000D02*
X142240000Y-77724000D01*
X143510000Y-79502000D02*
X142240000Y-79502000D01*
X142406700Y-80605300D02*
X142240000Y-80605300D01*
X143510000Y-79502000D02*
X142406700Y-80605300D01*
X145542000Y-79502000D02*
X146812000Y-79502000D01*
X146177000Y-80137000D02*
X145542000Y-79502000D01*
X143510000Y-76200000D02*
X142240000Y-76200000D01*
X143510000Y-77724000D02*
X143510000Y-76200000D01*
X143510000Y-77724000D02*
X142240000Y-77724000D01*
X142240000Y-77470000D02*
X143510000Y-76200000D01*
X142240000Y-77724000D02*
X142240000Y-77470000D01*
D24*
X135890000Y-98933000D02*
X135890000Y-100837942D01*
X135890000Y-100837942D02*
X135890029Y-100837971D01*
D22*
X145087500Y-89154000D02*
X145087500Y-90116500D01*
X144272000Y-90932000D02*
X143256000Y-90932000D01*
X145087500Y-90116500D02*
X144272000Y-90932000D01*
%TO.N,Net-(C1-Pad2)*%
X134239000Y-82730000D02*
X134673000Y-82296000D01*
X134239000Y-84034800D02*
X134239000Y-82730000D01*
X138049000Y-82730000D02*
X138049000Y-84034800D01*
X137615000Y-82296000D02*
X138049000Y-82730000D01*
X134673000Y-82296000D02*
X137615000Y-82296000D01*
%TO.N,Net-(C1-Pad1)*%
X138150600Y-87895400D02*
X138150600Y-89128600D01*
X138049000Y-79134800D02*
X139078794Y-79134800D01*
X139078794Y-79134800D02*
X139191994Y-79248000D01*
%TO.N,/ROSC*%
X133384600Y-82564000D02*
X132435600Y-82564000D01*
X135509000Y-80439600D02*
X133384600Y-82564000D01*
X135509000Y-79134800D02*
X135509000Y-80439600D01*
%TO.N,Net-(JP1-Pad2)*%
X132700000Y-72490600D02*
X134225000Y-74015600D01*
X132700000Y-71932800D02*
X132700000Y-72490600D01*
%TO.N,A1*%
X132475000Y-74015600D02*
X132475000Y-75539600D01*
X132475000Y-77063600D02*
X132475000Y-75539600D01*
X131191000Y-77063600D02*
X129565400Y-78689200D01*
X132475000Y-77063600D02*
X131191000Y-77063600D01*
%TO.N,SCL*%
X140970000Y-101219000D02*
X140970000Y-98933000D01*
X140200000Y-104680000D02*
X140200000Y-101989000D01*
X140200000Y-101989000D02*
X140970000Y-101219000D01*
X142277201Y-97625799D02*
X140970000Y-98933000D01*
X149860000Y-101600000D02*
X149860000Y-101092000D01*
X146393799Y-97625799D02*
X142277201Y-97625799D01*
X149860000Y-101092000D02*
X146393799Y-97625799D01*
%TO.N,SDA*%
X141200000Y-104680000D02*
X141200000Y-102005000D01*
X143510000Y-99695000D02*
X143510000Y-98933000D01*
X141200000Y-102005000D02*
X143510000Y-99695000D01*
X144145000Y-98933000D02*
X143510000Y-98933000D01*
X149860000Y-104140000D02*
X149352000Y-104140000D01*
X149352000Y-104140000D02*
X144145000Y-98933000D01*
%TO.N,Net-(C7-Pad1)*%
X133745000Y-86106000D02*
X133745000Y-87630000D01*
%TO.N,Net-(C8-Pad1)*%
X134163000Y-79058800D02*
X134239000Y-79134800D01*
X132410200Y-79058800D02*
X134163000Y-79058800D01*
%TO.N,Net-(R1-Pad1)*%
X135509000Y-86092000D02*
X135495000Y-86106000D01*
X135509000Y-84034800D02*
X135509000Y-86092000D01*
%TO.N,Net-(D2-Pad2)*%
X146925000Y-89066500D02*
X147012500Y-89154000D01*
X146925000Y-87122000D02*
X146925000Y-89066500D01*
D25*
%TO.N,VCC*%
X137176500Y-64643000D02*
X137176500Y-67039500D01*
X137176500Y-67039500D02*
X138717000Y-68580000D01*
X138717000Y-68580000D02*
X142240000Y-68580000D01*
X144275500Y-70615500D02*
X144275500Y-72923400D01*
X142240000Y-68580000D02*
X144275500Y-70615500D01*
D22*
%TO.N,+5V*%
X144616200Y-87680800D02*
X145175000Y-87122000D01*
X142827600Y-87680800D02*
X144616200Y-87680800D01*
D24*
X138430000Y-101219000D02*
X138430000Y-98933000D01*
X139200000Y-104680000D02*
X139200000Y-101989000D01*
X139200000Y-101989000D02*
X138430000Y-101219000D01*
X138430000Y-96774000D02*
X138430000Y-98933000D01*
X139192000Y-96012000D02*
X138430000Y-96774000D01*
X148336000Y-90541574D02*
X142865574Y-96012000D01*
X149860000Y-83820000D02*
X148336000Y-85344000D01*
X142865574Y-96012000D02*
X139192000Y-96012000D01*
X148336000Y-85344000D02*
X148336000Y-90541574D01*
%TD*%
D26*
%TO.N,GND*%
G36*
X131671704Y-77645744D02*
G01*
X131748851Y-77739749D01*
X131842856Y-77816896D01*
X131950105Y-77874222D01*
X132066477Y-77909523D01*
X132187500Y-77921443D01*
X132762500Y-77921443D01*
X132883523Y-77909523D01*
X132999895Y-77874222D01*
X133107144Y-77816896D01*
X133122151Y-77804580D01*
X133169463Y-77893094D01*
X133248815Y-77989785D01*
X133345506Y-78069137D01*
X133455820Y-78128102D01*
X133556157Y-78158539D01*
X133556157Y-78525400D01*
X133216276Y-78525400D01*
X133163496Y-78426656D01*
X133086349Y-78332651D01*
X132992344Y-78255504D01*
X132885095Y-78198178D01*
X132768723Y-78162877D01*
X132647700Y-78150957D01*
X132172700Y-78150957D01*
X132051677Y-78162877D01*
X131935305Y-78198178D01*
X131828056Y-78255504D01*
X131734051Y-78332651D01*
X131656904Y-78426656D01*
X131599578Y-78533905D01*
X131564277Y-78650277D01*
X131552357Y-78771300D01*
X131552357Y-79346300D01*
X131564277Y-79467323D01*
X131599578Y-79583695D01*
X131656904Y-79690944D01*
X131669220Y-79705951D01*
X131580706Y-79753263D01*
X131484015Y-79832615D01*
X131404663Y-79929306D01*
X131345698Y-80039620D01*
X131309388Y-80159318D01*
X131297128Y-80283800D01*
X131300200Y-80523050D01*
X131458950Y-80681800D01*
X132283200Y-80681800D01*
X132283200Y-80661800D01*
X132537200Y-80661800D01*
X132537200Y-80681800D01*
X133361450Y-80681800D01*
X133520200Y-80523050D01*
X133523272Y-80283800D01*
X133511012Y-80159318D01*
X133474702Y-80039620D01*
X133415737Y-79929306D01*
X133336385Y-79832615D01*
X133239694Y-79753263D01*
X133151180Y-79705951D01*
X133163496Y-79690944D01*
X133216276Y-79592200D01*
X133556157Y-79592200D01*
X133556157Y-80134800D01*
X133563513Y-80209489D01*
X133585299Y-80281308D01*
X133620678Y-80347496D01*
X133668289Y-80405511D01*
X133726304Y-80453122D01*
X133792492Y-80488501D01*
X133864311Y-80510287D01*
X133939000Y-80517643D01*
X134539000Y-80517643D01*
X134613689Y-80510287D01*
X134685508Y-80488501D01*
X134729010Y-80465248D01*
X133214500Y-81979758D01*
X133188896Y-81931856D01*
X133165869Y-81903798D01*
X133239694Y-81864337D01*
X133336385Y-81784985D01*
X133415737Y-81688294D01*
X133474702Y-81577980D01*
X133511012Y-81458282D01*
X133523272Y-81333800D01*
X133520200Y-81094550D01*
X133361450Y-80935800D01*
X132537200Y-80935800D01*
X132537200Y-80955800D01*
X132283200Y-80955800D01*
X132283200Y-80935800D01*
X131458950Y-80935800D01*
X131300200Y-81094550D01*
X131297128Y-81333800D01*
X131309388Y-81458282D01*
X131345698Y-81577980D01*
X131404663Y-81688294D01*
X131484015Y-81784985D01*
X131580706Y-81864337D01*
X131689841Y-81922672D01*
X131682304Y-81931856D01*
X131624978Y-82039105D01*
X131589677Y-82155477D01*
X131577757Y-82276500D01*
X131577757Y-82851500D01*
X131589677Y-82972523D01*
X131624978Y-83088895D01*
X131682304Y-83196144D01*
X131694620Y-83211151D01*
X131606106Y-83258463D01*
X131509415Y-83337815D01*
X131430063Y-83434506D01*
X131371098Y-83544820D01*
X131334788Y-83664518D01*
X131322528Y-83789000D01*
X131325600Y-84028250D01*
X131484350Y-84187000D01*
X132308600Y-84187000D01*
X132308600Y-84167000D01*
X132562600Y-84167000D01*
X132562600Y-84187000D01*
X133386850Y-84187000D01*
X133545600Y-84028250D01*
X133548672Y-83789000D01*
X133536412Y-83664518D01*
X133500102Y-83544820D01*
X133441137Y-83434506D01*
X133361785Y-83337815D01*
X133265094Y-83258463D01*
X133176580Y-83211151D01*
X133188896Y-83196144D01*
X133241676Y-83097400D01*
X133358413Y-83097400D01*
X133384600Y-83099979D01*
X133410787Y-83097400D01*
X133410795Y-83097400D01*
X133489165Y-83089681D01*
X133556157Y-83069359D01*
X133556157Y-85034800D01*
X133563513Y-85109489D01*
X133585299Y-85181308D01*
X133620678Y-85247496D01*
X133621220Y-85248157D01*
X133457500Y-85248157D01*
X133390892Y-85254717D01*
X133441137Y-85193494D01*
X133500102Y-85083180D01*
X133536412Y-84963482D01*
X133548672Y-84839000D01*
X133545600Y-84599750D01*
X133386850Y-84441000D01*
X132562600Y-84441000D01*
X132562600Y-85315250D01*
X132721350Y-85474000D01*
X132910600Y-85477072D01*
X132986209Y-85469625D01*
X132941704Y-85523856D01*
X132884378Y-85631105D01*
X132849077Y-85747477D01*
X132837157Y-85868500D01*
X132837157Y-86343500D01*
X132849077Y-86464523D01*
X132884378Y-86580895D01*
X132941704Y-86688144D01*
X133018851Y-86782149D01*
X133112856Y-86859296D01*
X133129140Y-86868000D01*
X133112856Y-86876704D01*
X133018851Y-86953851D01*
X132941704Y-87047856D01*
X132884378Y-87155105D01*
X132849077Y-87271477D01*
X132837157Y-87392500D01*
X132837157Y-87867500D01*
X132849077Y-87988523D01*
X132884378Y-88104895D01*
X132941704Y-88212144D01*
X133018851Y-88306149D01*
X133112856Y-88383296D01*
X133220105Y-88440622D01*
X133336477Y-88475923D01*
X133457500Y-88487843D01*
X134032500Y-88487843D01*
X134153523Y-88475923D01*
X134269895Y-88440622D01*
X134377144Y-88383296D01*
X134392151Y-88370980D01*
X134439463Y-88459494D01*
X134518815Y-88556185D01*
X134615506Y-88635537D01*
X134725820Y-88694502D01*
X134845518Y-88730812D01*
X134970000Y-88743072D01*
X135209250Y-88740000D01*
X135368000Y-88581250D01*
X135368000Y-87757000D01*
X135622000Y-87757000D01*
X135622000Y-88581250D01*
X135780750Y-88740000D01*
X136020000Y-88743072D01*
X136144482Y-88730812D01*
X136264180Y-88694502D01*
X136374494Y-88635537D01*
X136471185Y-88556185D01*
X136550537Y-88459494D01*
X136609502Y-88349180D01*
X136645812Y-88229482D01*
X136658072Y-88105000D01*
X136655000Y-87915750D01*
X136496250Y-87757000D01*
X135622000Y-87757000D01*
X135368000Y-87757000D01*
X135348000Y-87757000D01*
X135348000Y-87503000D01*
X135368000Y-87503000D01*
X135368000Y-87483000D01*
X135622000Y-87483000D01*
X135622000Y-87503000D01*
X136496250Y-87503000D01*
X136655000Y-87344250D01*
X136658072Y-87155000D01*
X136645812Y-87030518D01*
X136609502Y-86910820D01*
X136550537Y-86800506D01*
X136471185Y-86703815D01*
X136374494Y-86624463D01*
X136341703Y-86606936D01*
X136355622Y-86580895D01*
X136390923Y-86464523D01*
X136402843Y-86343500D01*
X136402843Y-85868500D01*
X136390923Y-85747477D01*
X136364882Y-85661633D01*
X136479000Y-85672872D01*
X136493250Y-85669800D01*
X136652000Y-85511050D01*
X136652000Y-84161800D01*
X136632000Y-84161800D01*
X136632000Y-83907800D01*
X136652000Y-83907800D01*
X136652000Y-83887800D01*
X136906000Y-83887800D01*
X136906000Y-83907800D01*
X136926000Y-83907800D01*
X136926000Y-84161800D01*
X136906000Y-84161800D01*
X136906000Y-85511050D01*
X137033000Y-85638050D01*
X137033000Y-86169500D01*
X137035396Y-86212158D01*
X137057685Y-86409979D01*
X137076670Y-86493158D01*
X137142420Y-86681060D01*
X137179437Y-86757928D01*
X137285350Y-86926487D01*
X137338544Y-86993190D01*
X137479310Y-87133956D01*
X137498658Y-87149385D01*
X137474451Y-87169251D01*
X137397304Y-87263256D01*
X137339978Y-87370505D01*
X137304677Y-87486877D01*
X137292757Y-87607900D01*
X137292757Y-88182900D01*
X137304677Y-88303923D01*
X137339978Y-88420295D01*
X137397304Y-88527544D01*
X137474451Y-88621549D01*
X137567661Y-88698044D01*
X137509088Y-88785705D01*
X137454519Y-88917446D01*
X137426700Y-89057302D01*
X137426700Y-89199898D01*
X137454519Y-89339754D01*
X137509088Y-89471495D01*
X137588310Y-89590060D01*
X137689140Y-89690890D01*
X137807705Y-89770112D01*
X137939446Y-89824681D01*
X138079302Y-89852500D01*
X138221898Y-89852500D01*
X138361754Y-89824681D01*
X138493495Y-89770112D01*
X138612060Y-89690890D01*
X138712890Y-89590060D01*
X138792112Y-89471495D01*
X138811000Y-89425895D01*
X138811000Y-89433400D01*
X138813396Y-89476058D01*
X138835048Y-89668227D01*
X138854032Y-89751405D01*
X138917903Y-89933938D01*
X138954921Y-90010806D01*
X139057808Y-90174550D01*
X139111002Y-90241254D01*
X139247746Y-90377998D01*
X139314450Y-90431192D01*
X139478194Y-90534079D01*
X139555062Y-90571097D01*
X139737595Y-90634968D01*
X139820773Y-90653952D01*
X140012942Y-90675604D01*
X140098258Y-90675604D01*
X140290427Y-90653952D01*
X140373605Y-90634968D01*
X140556138Y-90571097D01*
X140633006Y-90534079D01*
X140796750Y-90431192D01*
X140863454Y-90377998D01*
X141000198Y-90241254D01*
X141053392Y-90174550D01*
X141156279Y-90010806D01*
X141193297Y-89933938D01*
X141257168Y-89751405D01*
X141276152Y-89668227D01*
X141297804Y-89476058D01*
X141300200Y-89433400D01*
X141300200Y-85911644D01*
X141314293Y-85918825D01*
X141355396Y-85936804D01*
X141427665Y-85955662D01*
X141600901Y-85983099D01*
X141605000Y-86008982D01*
X141605000Y-89408000D01*
X141607396Y-89450658D01*
X141629685Y-89648479D01*
X141648670Y-89731658D01*
X141714420Y-89919560D01*
X141751437Y-89996428D01*
X141857350Y-90164987D01*
X141910544Y-90231690D01*
X142051310Y-90372456D01*
X142118013Y-90425650D01*
X142286572Y-90531563D01*
X142363440Y-90568580D01*
X142551342Y-90634330D01*
X142634521Y-90653315D01*
X142832342Y-90675604D01*
X142917658Y-90675604D01*
X143115479Y-90653315D01*
X143198658Y-90634330D01*
X143386560Y-90568580D01*
X143463428Y-90531563D01*
X143631987Y-90425650D01*
X143698690Y-90372456D01*
X143839456Y-90231690D01*
X143892650Y-90164987D01*
X143895747Y-90160058D01*
X143973815Y-90255185D01*
X144070506Y-90334537D01*
X144180820Y-90393502D01*
X144300518Y-90429812D01*
X144425000Y-90442072D01*
X144801750Y-90439000D01*
X144960500Y-90280250D01*
X144960500Y-89281000D01*
X144940500Y-89281000D01*
X144940500Y-89027000D01*
X144960500Y-89027000D01*
X144960500Y-89007000D01*
X145214500Y-89007000D01*
X145214500Y-89027000D01*
X145234500Y-89027000D01*
X145234500Y-89281000D01*
X145214500Y-89281000D01*
X145214500Y-90280250D01*
X145373250Y-90439000D01*
X145750000Y-90442072D01*
X145874482Y-90429812D01*
X145994180Y-90393502D01*
X146104494Y-90334537D01*
X146201185Y-90255185D01*
X146280537Y-90158494D01*
X146305952Y-90110946D01*
X146357821Y-90138671D01*
X146476538Y-90174683D01*
X146600000Y-90186843D01*
X147425000Y-90186843D01*
X147548462Y-90174683D01*
X147650201Y-90143821D01*
X147650201Y-90257506D01*
X142581507Y-95326200D01*
X139225686Y-95326200D01*
X139192000Y-95322882D01*
X139158314Y-95326200D01*
X139158311Y-95326200D01*
X139057560Y-95336123D01*
X138928286Y-95375338D01*
X138809147Y-95439019D01*
X138704720Y-95524720D01*
X138683242Y-95550891D01*
X137968887Y-96265246D01*
X137942720Y-96286721D01*
X137857019Y-96391148D01*
X137793338Y-96510287D01*
X137754123Y-96639561D01*
X137744200Y-96740312D01*
X137744200Y-96740321D01*
X137740883Y-96774000D01*
X137744200Y-96807679D01*
X137744201Y-97910726D01*
X137645283Y-97976820D01*
X137473820Y-98148283D01*
X137376927Y-98293294D01*
X137378072Y-98083000D01*
X137365812Y-97958518D01*
X137329502Y-97838820D01*
X137270537Y-97728506D01*
X137191185Y-97631815D01*
X137094494Y-97552463D01*
X136984180Y-97493498D01*
X136864482Y-97457188D01*
X136740000Y-97444928D01*
X136175750Y-97448000D01*
X136017000Y-97606750D01*
X136017000Y-98806000D01*
X136037000Y-98806000D01*
X136037000Y-99060000D01*
X136017000Y-99060000D01*
X136017000Y-100259250D01*
X136175750Y-100418000D01*
X136740000Y-100421072D01*
X136864482Y-100408812D01*
X136984180Y-100372502D01*
X137094494Y-100313537D01*
X137191185Y-100234185D01*
X137270537Y-100137494D01*
X137329502Y-100027180D01*
X137365812Y-99907482D01*
X137378072Y-99783000D01*
X137376927Y-99572706D01*
X137473820Y-99717717D01*
X137645283Y-99889180D01*
X137744201Y-99955275D01*
X137744200Y-101185321D01*
X137740883Y-101219000D01*
X137744200Y-101252679D01*
X137744200Y-101252688D01*
X137754123Y-101353439D01*
X137793338Y-101482713D01*
X137857019Y-101601852D01*
X137942720Y-101706279D01*
X137968886Y-101727753D01*
X138514201Y-102273069D01*
X138514201Y-103268327D01*
X138500000Y-103266928D01*
X138485750Y-103270000D01*
X138327000Y-103428750D01*
X138327000Y-104553000D01*
X138347000Y-104553000D01*
X138347000Y-104807000D01*
X138327000Y-104807000D01*
X138327000Y-105931250D01*
X138485750Y-106090000D01*
X138500000Y-106093072D01*
X138624482Y-106080812D01*
X138744180Y-106044502D01*
X138854494Y-105985537D01*
X138951185Y-105906185D01*
X139010467Y-105833950D01*
X139050000Y-105837843D01*
X139350000Y-105837843D01*
X139453953Y-105827605D01*
X139553910Y-105797283D01*
X139646032Y-105748043D01*
X139700000Y-105703752D01*
X139753968Y-105748043D01*
X139846090Y-105797283D01*
X139946047Y-105827605D01*
X140050000Y-105837843D01*
X140350000Y-105837843D01*
X140453953Y-105827605D01*
X140553910Y-105797283D01*
X140646032Y-105748043D01*
X140700000Y-105703752D01*
X140753968Y-105748043D01*
X140846090Y-105797283D01*
X140946047Y-105827605D01*
X141050000Y-105837843D01*
X141350000Y-105837843D01*
X141453953Y-105827605D01*
X141553910Y-105797283D01*
X141646032Y-105748043D01*
X141726777Y-105681777D01*
X141793043Y-105601032D01*
X141842283Y-105508910D01*
X141872605Y-105408953D01*
X141882843Y-105305000D01*
X141882843Y-104055000D01*
X141872605Y-103951047D01*
X141842283Y-103851090D01*
X141793043Y-103758968D01*
X141733400Y-103686293D01*
X141733400Y-102225941D01*
X143836089Y-100123253D01*
X143869069Y-100116693D01*
X144093097Y-100023898D01*
X144294717Y-99889180D01*
X144320778Y-99863119D01*
X148629000Y-104171342D01*
X148629000Y-104261243D01*
X148676307Y-104499069D01*
X148769102Y-104723097D01*
X148903820Y-104924717D01*
X149075283Y-105096180D01*
X149276903Y-105230898D01*
X149500931Y-105323693D01*
X149738757Y-105371000D01*
X149981243Y-105371000D01*
X150219069Y-105323693D01*
X150443097Y-105230898D01*
X150644717Y-105096180D01*
X150749401Y-104991496D01*
X150749401Y-106863336D01*
X150697174Y-107395986D01*
X150548250Y-107889248D01*
X150306354Y-108344185D01*
X149980702Y-108743475D01*
X149583699Y-109071904D01*
X149130464Y-109316967D01*
X148638258Y-109469330D01*
X148106700Y-109525200D01*
X143392968Y-109525200D01*
X143434671Y-109447179D01*
X143470683Y-109328462D01*
X143482843Y-109205001D01*
X143482843Y-107904999D01*
X143470683Y-107781538D01*
X143434671Y-107662821D01*
X143376190Y-107553411D01*
X143297488Y-107457512D01*
X143201589Y-107378810D01*
X143092179Y-107320329D01*
X142973462Y-107284317D01*
X142850001Y-107272157D01*
X142149999Y-107272157D01*
X142026538Y-107284317D01*
X141907821Y-107320329D01*
X141798411Y-107378810D01*
X141702512Y-107457512D01*
X141623810Y-107553411D01*
X141565329Y-107662821D01*
X141529317Y-107781538D01*
X141517157Y-107904999D01*
X141517157Y-109205001D01*
X141529317Y-109328462D01*
X141565329Y-109447179D01*
X141607032Y-109525200D01*
X137792968Y-109525200D01*
X137834671Y-109447179D01*
X137870683Y-109328462D01*
X137882843Y-109205001D01*
X137882843Y-107904999D01*
X137870683Y-107781538D01*
X137834671Y-107662821D01*
X137776190Y-107553411D01*
X137697488Y-107457512D01*
X137601589Y-107378810D01*
X137492179Y-107320329D01*
X137373462Y-107284317D01*
X137250001Y-107272157D01*
X136549999Y-107272157D01*
X136426538Y-107284317D01*
X136307821Y-107320329D01*
X136198411Y-107378810D01*
X136102512Y-107457512D01*
X136023810Y-107553411D01*
X135965329Y-107662821D01*
X135929317Y-107781538D01*
X135917157Y-107904999D01*
X135917157Y-109205001D01*
X135929317Y-109328462D01*
X135965329Y-109447179D01*
X136007032Y-109525200D01*
X131109253Y-109525200D01*
X130625948Y-109477812D01*
X130180147Y-109343216D01*
X129768979Y-109124594D01*
X129408105Y-108830273D01*
X129111273Y-108471465D01*
X128889785Y-108061833D01*
X128752082Y-107616985D01*
X128701400Y-107134780D01*
X128701400Y-106839711D01*
X129079000Y-106839711D01*
X129079000Y-107180689D01*
X129145521Y-107515114D01*
X129276007Y-107830136D01*
X129465444Y-108113648D01*
X129706552Y-108354756D01*
X129990064Y-108544193D01*
X130305086Y-108674679D01*
X130639511Y-108741200D01*
X130980489Y-108741200D01*
X131314914Y-108674679D01*
X131629936Y-108544193D01*
X131913448Y-108354756D01*
X132154556Y-108113648D01*
X132343993Y-107830136D01*
X132474479Y-107515114D01*
X132541000Y-107180689D01*
X132541000Y-106839711D01*
X146884400Y-106839711D01*
X146884400Y-107180689D01*
X146950921Y-107515114D01*
X147081407Y-107830136D01*
X147270844Y-108113648D01*
X147511952Y-108354756D01*
X147795464Y-108544193D01*
X148110486Y-108674679D01*
X148444911Y-108741200D01*
X148785889Y-108741200D01*
X149120314Y-108674679D01*
X149435336Y-108544193D01*
X149718848Y-108354756D01*
X149959956Y-108113648D01*
X150149393Y-107830136D01*
X150279879Y-107515114D01*
X150346400Y-107180689D01*
X150346400Y-106839711D01*
X150279879Y-106505286D01*
X150149393Y-106190264D01*
X149959956Y-105906752D01*
X149718848Y-105665644D01*
X149435336Y-105476207D01*
X149120314Y-105345721D01*
X148785889Y-105279200D01*
X148444911Y-105279200D01*
X148110486Y-105345721D01*
X147795464Y-105476207D01*
X147511952Y-105665644D01*
X147270844Y-105906752D01*
X147081407Y-106190264D01*
X146950921Y-106505286D01*
X146884400Y-106839711D01*
X132541000Y-106839711D01*
X132474479Y-106505286D01*
X132343993Y-106190264D01*
X132154556Y-105906752D01*
X131913448Y-105665644D01*
X131629936Y-105476207D01*
X131578738Y-105455000D01*
X137261928Y-105455000D01*
X137274188Y-105579482D01*
X137310498Y-105699180D01*
X137369463Y-105809494D01*
X137448815Y-105906185D01*
X137545506Y-105985537D01*
X137655820Y-106044502D01*
X137775518Y-106080812D01*
X137900000Y-106093072D01*
X137914250Y-106090000D01*
X138073000Y-105931250D01*
X138073000Y-104807000D01*
X137423750Y-104807000D01*
X137265000Y-104965750D01*
X137261928Y-105455000D01*
X131578738Y-105455000D01*
X131314914Y-105345721D01*
X130980489Y-105279200D01*
X130639511Y-105279200D01*
X130305086Y-105345721D01*
X129990064Y-105476207D01*
X129706552Y-105665644D01*
X129465444Y-105906752D01*
X129276007Y-106190264D01*
X129145521Y-106505286D01*
X129079000Y-106839711D01*
X128701400Y-106839711D01*
X128701400Y-104966097D01*
X128780683Y-105045380D01*
X128982303Y-105180098D01*
X129206331Y-105272893D01*
X129444157Y-105320200D01*
X129686643Y-105320200D01*
X129924469Y-105272893D01*
X130148497Y-105180098D01*
X130350117Y-105045380D01*
X130521580Y-104873917D01*
X130656298Y-104672297D01*
X130749093Y-104448269D01*
X130796400Y-104210443D01*
X130796400Y-103967957D01*
X130783877Y-103905000D01*
X137261928Y-103905000D01*
X137265000Y-104394250D01*
X137423750Y-104553000D01*
X138073000Y-104553000D01*
X138073000Y-103428750D01*
X137914250Y-103270000D01*
X137900000Y-103266928D01*
X137775518Y-103279188D01*
X137655820Y-103315498D01*
X137545506Y-103374463D01*
X137448815Y-103453815D01*
X137369463Y-103550506D01*
X137310498Y-103660820D01*
X137274188Y-103780518D01*
X137261928Y-103905000D01*
X130783877Y-103905000D01*
X130749093Y-103730131D01*
X130656298Y-103506103D01*
X130521580Y-103304483D01*
X130350117Y-103133020D01*
X130148497Y-102998302D01*
X129924469Y-102905507D01*
X129686643Y-102858200D01*
X129444157Y-102858200D01*
X129206331Y-102905507D01*
X128982303Y-102998302D01*
X128780683Y-103133020D01*
X128701400Y-103212303D01*
X128701400Y-102426097D01*
X128780683Y-102505380D01*
X128982303Y-102640098D01*
X129206331Y-102732893D01*
X129444157Y-102780200D01*
X129686643Y-102780200D01*
X129924469Y-102732893D01*
X130148497Y-102640098D01*
X130350117Y-102505380D01*
X130521580Y-102333917D01*
X130656298Y-102132297D01*
X130749093Y-101908269D01*
X130796400Y-101670443D01*
X130796400Y-101427957D01*
X130749093Y-101190131D01*
X130656298Y-100966103D01*
X130521580Y-100764483D01*
X130350117Y-100593020D01*
X130148497Y-100458302D01*
X129924469Y-100365507D01*
X129686643Y-100318200D01*
X129444157Y-100318200D01*
X129206331Y-100365507D01*
X128982303Y-100458302D01*
X128780683Y-100593020D01*
X128701400Y-100672303D01*
X128701400Y-99886097D01*
X128780683Y-99965380D01*
X128982303Y-100100098D01*
X129206331Y-100192893D01*
X129444157Y-100240200D01*
X129686643Y-100240200D01*
X129924469Y-100192893D01*
X130148497Y-100100098D01*
X130350117Y-99965380D01*
X130521580Y-99793917D01*
X130528874Y-99783000D01*
X134401928Y-99783000D01*
X134414188Y-99907482D01*
X134450498Y-100027180D01*
X134509463Y-100137494D01*
X134588815Y-100234185D01*
X134685506Y-100313537D01*
X134795820Y-100372502D01*
X134915518Y-100408812D01*
X135040000Y-100421072D01*
X135604250Y-100418000D01*
X135763000Y-100259250D01*
X135763000Y-99060000D01*
X134563750Y-99060000D01*
X134405000Y-99218750D01*
X134401928Y-99783000D01*
X130528874Y-99783000D01*
X130656298Y-99592297D01*
X130749093Y-99368269D01*
X130796400Y-99130443D01*
X130796400Y-98887957D01*
X130749093Y-98650131D01*
X130656298Y-98426103D01*
X130521580Y-98224483D01*
X130380097Y-98083000D01*
X134401928Y-98083000D01*
X134405000Y-98647250D01*
X134563750Y-98806000D01*
X135763000Y-98806000D01*
X135763000Y-97606750D01*
X135604250Y-97448000D01*
X135040000Y-97444928D01*
X134915518Y-97457188D01*
X134795820Y-97493498D01*
X134685506Y-97552463D01*
X134588815Y-97631815D01*
X134509463Y-97728506D01*
X134450498Y-97838820D01*
X134414188Y-97958518D01*
X134401928Y-98083000D01*
X130380097Y-98083000D01*
X130350117Y-98053020D01*
X130148497Y-97918302D01*
X129924469Y-97825507D01*
X129686643Y-97778200D01*
X129444157Y-97778200D01*
X129206331Y-97825507D01*
X128982303Y-97918302D01*
X128780683Y-98053020D01*
X128701400Y-98132303D01*
X128701400Y-97346097D01*
X128780683Y-97425380D01*
X128982303Y-97560098D01*
X129206331Y-97652893D01*
X129444157Y-97700200D01*
X129686643Y-97700200D01*
X129924469Y-97652893D01*
X130148497Y-97560098D01*
X130350117Y-97425380D01*
X130521580Y-97253917D01*
X130656298Y-97052297D01*
X130749093Y-96828269D01*
X130796400Y-96590443D01*
X130796400Y-96347957D01*
X130749093Y-96110131D01*
X130656298Y-95886103D01*
X130521580Y-95684483D01*
X130350117Y-95513020D01*
X130148497Y-95378302D01*
X129924469Y-95285507D01*
X129686643Y-95238200D01*
X129444157Y-95238200D01*
X129206331Y-95285507D01*
X128982303Y-95378302D01*
X128780683Y-95513020D01*
X128701400Y-95592303D01*
X128701400Y-94806097D01*
X128780683Y-94885380D01*
X128982303Y-95020098D01*
X129206331Y-95112893D01*
X129444157Y-95160200D01*
X129686643Y-95160200D01*
X129924469Y-95112893D01*
X130148497Y-95020098D01*
X130350117Y-94885380D01*
X130521580Y-94713917D01*
X130656298Y-94512297D01*
X130749093Y-94288269D01*
X130796400Y-94050443D01*
X130796400Y-93807957D01*
X130749093Y-93570131D01*
X130656298Y-93346103D01*
X130521580Y-93144483D01*
X130350117Y-92973020D01*
X130148497Y-92838302D01*
X129924469Y-92745507D01*
X129686643Y-92698200D01*
X129444157Y-92698200D01*
X129206331Y-92745507D01*
X128982303Y-92838302D01*
X128780683Y-92973020D01*
X128701400Y-93052303D01*
X128701400Y-92266097D01*
X128780683Y-92345380D01*
X128982303Y-92480098D01*
X129206331Y-92572893D01*
X129444157Y-92620200D01*
X129686643Y-92620200D01*
X129924469Y-92572893D01*
X130148497Y-92480098D01*
X130350117Y-92345380D01*
X130521580Y-92173917D01*
X130656298Y-91972297D01*
X130749093Y-91748269D01*
X130796400Y-91510443D01*
X130796400Y-91267957D01*
X130749093Y-91030131D01*
X130656298Y-90806103D01*
X130521580Y-90604483D01*
X130350117Y-90433020D01*
X130148497Y-90298302D01*
X129924469Y-90205507D01*
X129686643Y-90158200D01*
X129444157Y-90158200D01*
X129206331Y-90205507D01*
X128982303Y-90298302D01*
X128780683Y-90433020D01*
X128701400Y-90512303D01*
X128701400Y-89726097D01*
X128780683Y-89805380D01*
X128982303Y-89940098D01*
X129206331Y-90032893D01*
X129444157Y-90080200D01*
X129686643Y-90080200D01*
X129924469Y-90032893D01*
X130148497Y-89940098D01*
X130350117Y-89805380D01*
X130521580Y-89633917D01*
X130656298Y-89432297D01*
X130749093Y-89208269D01*
X130796400Y-88970443D01*
X130796400Y-88727957D01*
X130749093Y-88490131D01*
X130656298Y-88266103D01*
X130521580Y-88064483D01*
X130350117Y-87893020D01*
X130148497Y-87758302D01*
X129924469Y-87665507D01*
X129686643Y-87618200D01*
X129444157Y-87618200D01*
X129206331Y-87665507D01*
X128982303Y-87758302D01*
X128780683Y-87893020D01*
X128701400Y-87972303D01*
X128701400Y-87186097D01*
X128780683Y-87265380D01*
X128982303Y-87400098D01*
X129206331Y-87492893D01*
X129444157Y-87540200D01*
X129686643Y-87540200D01*
X129924469Y-87492893D01*
X130148497Y-87400098D01*
X130350117Y-87265380D01*
X130521580Y-87093917D01*
X130656298Y-86892297D01*
X130749093Y-86668269D01*
X130796400Y-86430443D01*
X130796400Y-86187957D01*
X130749093Y-85950131D01*
X130656298Y-85726103D01*
X130521580Y-85524483D01*
X130350117Y-85353020D01*
X130148497Y-85218302D01*
X129924469Y-85125507D01*
X129686643Y-85078200D01*
X129444157Y-85078200D01*
X129206331Y-85125507D01*
X128982303Y-85218302D01*
X128780683Y-85353020D01*
X128701400Y-85432303D01*
X128701400Y-84646097D01*
X128780683Y-84725380D01*
X128982303Y-84860098D01*
X129206331Y-84952893D01*
X129444157Y-85000200D01*
X129686643Y-85000200D01*
X129924469Y-84952893D01*
X130148497Y-84860098D01*
X130180072Y-84839000D01*
X131322528Y-84839000D01*
X131334788Y-84963482D01*
X131371098Y-85083180D01*
X131430063Y-85193494D01*
X131509415Y-85290185D01*
X131606106Y-85369537D01*
X131716420Y-85428502D01*
X131836118Y-85464812D01*
X131960600Y-85477072D01*
X132149850Y-85474000D01*
X132308600Y-85315250D01*
X132308600Y-84441000D01*
X131484350Y-84441000D01*
X131325600Y-84599750D01*
X131322528Y-84839000D01*
X130180072Y-84839000D01*
X130350117Y-84725380D01*
X130521580Y-84553917D01*
X130656298Y-84352297D01*
X130749093Y-84128269D01*
X130796400Y-83890443D01*
X130796400Y-83647957D01*
X130749093Y-83410131D01*
X130656298Y-83186103D01*
X130521580Y-82984483D01*
X130350117Y-82813020D01*
X130148497Y-82678302D01*
X129924469Y-82585507D01*
X129686643Y-82538200D01*
X129444157Y-82538200D01*
X129206331Y-82585507D01*
X128982303Y-82678302D01*
X128780683Y-82813020D01*
X128701400Y-82892303D01*
X128701400Y-82106097D01*
X128780683Y-82185380D01*
X128982303Y-82320098D01*
X129206331Y-82412893D01*
X129444157Y-82460200D01*
X129686643Y-82460200D01*
X129924469Y-82412893D01*
X130148497Y-82320098D01*
X130350117Y-82185380D01*
X130521580Y-82013917D01*
X130656298Y-81812297D01*
X130749093Y-81588269D01*
X130796400Y-81350443D01*
X130796400Y-81107957D01*
X130749093Y-80870131D01*
X130656298Y-80646103D01*
X130521580Y-80444483D01*
X130350117Y-80273020D01*
X130148497Y-80138302D01*
X129924469Y-80045507D01*
X129686643Y-79998200D01*
X129444157Y-79998200D01*
X129206331Y-80045507D01*
X128982303Y-80138302D01*
X128780683Y-80273020D01*
X128701400Y-80352303D01*
X128701400Y-79566097D01*
X128780683Y-79645380D01*
X128982303Y-79780098D01*
X129206331Y-79872893D01*
X129444157Y-79920200D01*
X129686643Y-79920200D01*
X129924469Y-79872893D01*
X130148497Y-79780098D01*
X130350117Y-79645380D01*
X130521580Y-79473917D01*
X130656298Y-79272297D01*
X130749093Y-79048269D01*
X130796400Y-78810443D01*
X130796400Y-78567957D01*
X130749093Y-78330131D01*
X130728508Y-78280433D01*
X131411941Y-77597000D01*
X131645650Y-77597000D01*
X131671704Y-77645744D01*
G37*
X131671704Y-77645744D02*
X131748851Y-77739749D01*
X131842856Y-77816896D01*
X131950105Y-77874222D01*
X132066477Y-77909523D01*
X132187500Y-77921443D01*
X132762500Y-77921443D01*
X132883523Y-77909523D01*
X132999895Y-77874222D01*
X133107144Y-77816896D01*
X133122151Y-77804580D01*
X133169463Y-77893094D01*
X133248815Y-77989785D01*
X133345506Y-78069137D01*
X133455820Y-78128102D01*
X133556157Y-78158539D01*
X133556157Y-78525400D01*
X133216276Y-78525400D01*
X133163496Y-78426656D01*
X133086349Y-78332651D01*
X132992344Y-78255504D01*
X132885095Y-78198178D01*
X132768723Y-78162877D01*
X132647700Y-78150957D01*
X132172700Y-78150957D01*
X132051677Y-78162877D01*
X131935305Y-78198178D01*
X131828056Y-78255504D01*
X131734051Y-78332651D01*
X131656904Y-78426656D01*
X131599578Y-78533905D01*
X131564277Y-78650277D01*
X131552357Y-78771300D01*
X131552357Y-79346300D01*
X131564277Y-79467323D01*
X131599578Y-79583695D01*
X131656904Y-79690944D01*
X131669220Y-79705951D01*
X131580706Y-79753263D01*
X131484015Y-79832615D01*
X131404663Y-79929306D01*
X131345698Y-80039620D01*
X131309388Y-80159318D01*
X131297128Y-80283800D01*
X131300200Y-80523050D01*
X131458950Y-80681800D01*
X132283200Y-80681800D01*
X132283200Y-80661800D01*
X132537200Y-80661800D01*
X132537200Y-80681800D01*
X133361450Y-80681800D01*
X133520200Y-80523050D01*
X133523272Y-80283800D01*
X133511012Y-80159318D01*
X133474702Y-80039620D01*
X133415737Y-79929306D01*
X133336385Y-79832615D01*
X133239694Y-79753263D01*
X133151180Y-79705951D01*
X133163496Y-79690944D01*
X133216276Y-79592200D01*
X133556157Y-79592200D01*
X133556157Y-80134800D01*
X133563513Y-80209489D01*
X133585299Y-80281308D01*
X133620678Y-80347496D01*
X133668289Y-80405511D01*
X133726304Y-80453122D01*
X133792492Y-80488501D01*
X133864311Y-80510287D01*
X133939000Y-80517643D01*
X134539000Y-80517643D01*
X134613689Y-80510287D01*
X134685508Y-80488501D01*
X134729010Y-80465248D01*
X133214500Y-81979758D01*
X133188896Y-81931856D01*
X133165869Y-81903798D01*
X133239694Y-81864337D01*
X133336385Y-81784985D01*
X133415737Y-81688294D01*
X133474702Y-81577980D01*
X133511012Y-81458282D01*
X133523272Y-81333800D01*
X133520200Y-81094550D01*
X133361450Y-80935800D01*
X132537200Y-80935800D01*
X132537200Y-80955800D01*
X132283200Y-80955800D01*
X132283200Y-80935800D01*
X131458950Y-80935800D01*
X131300200Y-81094550D01*
X131297128Y-81333800D01*
X131309388Y-81458282D01*
X131345698Y-81577980D01*
X131404663Y-81688294D01*
X131484015Y-81784985D01*
X131580706Y-81864337D01*
X131689841Y-81922672D01*
X131682304Y-81931856D01*
X131624978Y-82039105D01*
X131589677Y-82155477D01*
X131577757Y-82276500D01*
X131577757Y-82851500D01*
X131589677Y-82972523D01*
X131624978Y-83088895D01*
X131682304Y-83196144D01*
X131694620Y-83211151D01*
X131606106Y-83258463D01*
X131509415Y-83337815D01*
X131430063Y-83434506D01*
X131371098Y-83544820D01*
X131334788Y-83664518D01*
X131322528Y-83789000D01*
X131325600Y-84028250D01*
X131484350Y-84187000D01*
X132308600Y-84187000D01*
X132308600Y-84167000D01*
X132562600Y-84167000D01*
X132562600Y-84187000D01*
X133386850Y-84187000D01*
X133545600Y-84028250D01*
X133548672Y-83789000D01*
X133536412Y-83664518D01*
X133500102Y-83544820D01*
X133441137Y-83434506D01*
X133361785Y-83337815D01*
X133265094Y-83258463D01*
X133176580Y-83211151D01*
X133188896Y-83196144D01*
X133241676Y-83097400D01*
X133358413Y-83097400D01*
X133384600Y-83099979D01*
X133410787Y-83097400D01*
X133410795Y-83097400D01*
X133489165Y-83089681D01*
X133556157Y-83069359D01*
X133556157Y-85034800D01*
X133563513Y-85109489D01*
X133585299Y-85181308D01*
X133620678Y-85247496D01*
X133621220Y-85248157D01*
X133457500Y-85248157D01*
X133390892Y-85254717D01*
X133441137Y-85193494D01*
X133500102Y-85083180D01*
X133536412Y-84963482D01*
X133548672Y-84839000D01*
X133545600Y-84599750D01*
X133386850Y-84441000D01*
X132562600Y-84441000D01*
X132562600Y-85315250D01*
X132721350Y-85474000D01*
X132910600Y-85477072D01*
X132986209Y-85469625D01*
X132941704Y-85523856D01*
X132884378Y-85631105D01*
X132849077Y-85747477D01*
X132837157Y-85868500D01*
X132837157Y-86343500D01*
X132849077Y-86464523D01*
X132884378Y-86580895D01*
X132941704Y-86688144D01*
X133018851Y-86782149D01*
X133112856Y-86859296D01*
X133129140Y-86868000D01*
X133112856Y-86876704D01*
X133018851Y-86953851D01*
X132941704Y-87047856D01*
X132884378Y-87155105D01*
X132849077Y-87271477D01*
X132837157Y-87392500D01*
X132837157Y-87867500D01*
X132849077Y-87988523D01*
X132884378Y-88104895D01*
X132941704Y-88212144D01*
X133018851Y-88306149D01*
X133112856Y-88383296D01*
X133220105Y-88440622D01*
X133336477Y-88475923D01*
X133457500Y-88487843D01*
X134032500Y-88487843D01*
X134153523Y-88475923D01*
X134269895Y-88440622D01*
X134377144Y-88383296D01*
X134392151Y-88370980D01*
X134439463Y-88459494D01*
X134518815Y-88556185D01*
X134615506Y-88635537D01*
X134725820Y-88694502D01*
X134845518Y-88730812D01*
X134970000Y-88743072D01*
X135209250Y-88740000D01*
X135368000Y-88581250D01*
X135368000Y-87757000D01*
X135622000Y-87757000D01*
X135622000Y-88581250D01*
X135780750Y-88740000D01*
X136020000Y-88743072D01*
X136144482Y-88730812D01*
X136264180Y-88694502D01*
X136374494Y-88635537D01*
X136471185Y-88556185D01*
X136550537Y-88459494D01*
X136609502Y-88349180D01*
X136645812Y-88229482D01*
X136658072Y-88105000D01*
X136655000Y-87915750D01*
X136496250Y-87757000D01*
X135622000Y-87757000D01*
X135368000Y-87757000D01*
X135348000Y-87757000D01*
X135348000Y-87503000D01*
X135368000Y-87503000D01*
X135368000Y-87483000D01*
X135622000Y-87483000D01*
X135622000Y-87503000D01*
X136496250Y-87503000D01*
X136655000Y-87344250D01*
X136658072Y-87155000D01*
X136645812Y-87030518D01*
X136609502Y-86910820D01*
X136550537Y-86800506D01*
X136471185Y-86703815D01*
X136374494Y-86624463D01*
X136341703Y-86606936D01*
X136355622Y-86580895D01*
X136390923Y-86464523D01*
X136402843Y-86343500D01*
X136402843Y-85868500D01*
X136390923Y-85747477D01*
X136364882Y-85661633D01*
X136479000Y-85672872D01*
X136493250Y-85669800D01*
X136652000Y-85511050D01*
X136652000Y-84161800D01*
X136632000Y-84161800D01*
X136632000Y-83907800D01*
X136652000Y-83907800D01*
X136652000Y-83887800D01*
X136906000Y-83887800D01*
X136906000Y-83907800D01*
X136926000Y-83907800D01*
X136926000Y-84161800D01*
X136906000Y-84161800D01*
X136906000Y-85511050D01*
X137033000Y-85638050D01*
X137033000Y-86169500D01*
X137035396Y-86212158D01*
X137057685Y-86409979D01*
X137076670Y-86493158D01*
X137142420Y-86681060D01*
X137179437Y-86757928D01*
X137285350Y-86926487D01*
X137338544Y-86993190D01*
X137479310Y-87133956D01*
X137498658Y-87149385D01*
X137474451Y-87169251D01*
X137397304Y-87263256D01*
X137339978Y-87370505D01*
X137304677Y-87486877D01*
X137292757Y-87607900D01*
X137292757Y-88182900D01*
X137304677Y-88303923D01*
X137339978Y-88420295D01*
X137397304Y-88527544D01*
X137474451Y-88621549D01*
X137567661Y-88698044D01*
X137509088Y-88785705D01*
X137454519Y-88917446D01*
X137426700Y-89057302D01*
X137426700Y-89199898D01*
X137454519Y-89339754D01*
X137509088Y-89471495D01*
X137588310Y-89590060D01*
X137689140Y-89690890D01*
X137807705Y-89770112D01*
X137939446Y-89824681D01*
X138079302Y-89852500D01*
X138221898Y-89852500D01*
X138361754Y-89824681D01*
X138493495Y-89770112D01*
X138612060Y-89690890D01*
X138712890Y-89590060D01*
X138792112Y-89471495D01*
X138811000Y-89425895D01*
X138811000Y-89433400D01*
X138813396Y-89476058D01*
X138835048Y-89668227D01*
X138854032Y-89751405D01*
X138917903Y-89933938D01*
X138954921Y-90010806D01*
X139057808Y-90174550D01*
X139111002Y-90241254D01*
X139247746Y-90377998D01*
X139314450Y-90431192D01*
X139478194Y-90534079D01*
X139555062Y-90571097D01*
X139737595Y-90634968D01*
X139820773Y-90653952D01*
X140012942Y-90675604D01*
X140098258Y-90675604D01*
X140290427Y-90653952D01*
X140373605Y-90634968D01*
X140556138Y-90571097D01*
X140633006Y-90534079D01*
X140796750Y-90431192D01*
X140863454Y-90377998D01*
X141000198Y-90241254D01*
X141053392Y-90174550D01*
X141156279Y-90010806D01*
X141193297Y-89933938D01*
X141257168Y-89751405D01*
X141276152Y-89668227D01*
X141297804Y-89476058D01*
X141300200Y-89433400D01*
X141300200Y-85911644D01*
X141314293Y-85918825D01*
X141355396Y-85936804D01*
X141427665Y-85955662D01*
X141600901Y-85983099D01*
X141605000Y-86008982D01*
X141605000Y-89408000D01*
X141607396Y-89450658D01*
X141629685Y-89648479D01*
X141648670Y-89731658D01*
X141714420Y-89919560D01*
X141751437Y-89996428D01*
X141857350Y-90164987D01*
X141910544Y-90231690D01*
X142051310Y-90372456D01*
X142118013Y-90425650D01*
X142286572Y-90531563D01*
X142363440Y-90568580D01*
X142551342Y-90634330D01*
X142634521Y-90653315D01*
X142832342Y-90675604D01*
X142917658Y-90675604D01*
X143115479Y-90653315D01*
X143198658Y-90634330D01*
X143386560Y-90568580D01*
X143463428Y-90531563D01*
X143631987Y-90425650D01*
X143698690Y-90372456D01*
X143839456Y-90231690D01*
X143892650Y-90164987D01*
X143895747Y-90160058D01*
X143973815Y-90255185D01*
X144070506Y-90334537D01*
X144180820Y-90393502D01*
X144300518Y-90429812D01*
X144425000Y-90442072D01*
X144801750Y-90439000D01*
X144960500Y-90280250D01*
X144960500Y-89281000D01*
X144940500Y-89281000D01*
X144940500Y-89027000D01*
X144960500Y-89027000D01*
X144960500Y-89007000D01*
X145214500Y-89007000D01*
X145214500Y-89027000D01*
X145234500Y-89027000D01*
X145234500Y-89281000D01*
X145214500Y-89281000D01*
X145214500Y-90280250D01*
X145373250Y-90439000D01*
X145750000Y-90442072D01*
X145874482Y-90429812D01*
X145994180Y-90393502D01*
X146104494Y-90334537D01*
X146201185Y-90255185D01*
X146280537Y-90158494D01*
X146305952Y-90110946D01*
X146357821Y-90138671D01*
X146476538Y-90174683D01*
X146600000Y-90186843D01*
X147425000Y-90186843D01*
X147548462Y-90174683D01*
X147650201Y-90143821D01*
X147650201Y-90257506D01*
X142581507Y-95326200D01*
X139225686Y-95326200D01*
X139192000Y-95322882D01*
X139158314Y-95326200D01*
X139158311Y-95326200D01*
X139057560Y-95336123D01*
X138928286Y-95375338D01*
X138809147Y-95439019D01*
X138704720Y-95524720D01*
X138683242Y-95550891D01*
X137968887Y-96265246D01*
X137942720Y-96286721D01*
X137857019Y-96391148D01*
X137793338Y-96510287D01*
X137754123Y-96639561D01*
X137744200Y-96740312D01*
X137744200Y-96740321D01*
X137740883Y-96774000D01*
X137744200Y-96807679D01*
X137744201Y-97910726D01*
X137645283Y-97976820D01*
X137473820Y-98148283D01*
X137376927Y-98293294D01*
X137378072Y-98083000D01*
X137365812Y-97958518D01*
X137329502Y-97838820D01*
X137270537Y-97728506D01*
X137191185Y-97631815D01*
X137094494Y-97552463D01*
X136984180Y-97493498D01*
X136864482Y-97457188D01*
X136740000Y-97444928D01*
X136175750Y-97448000D01*
X136017000Y-97606750D01*
X136017000Y-98806000D01*
X136037000Y-98806000D01*
X136037000Y-99060000D01*
X136017000Y-99060000D01*
X136017000Y-100259250D01*
X136175750Y-100418000D01*
X136740000Y-100421072D01*
X136864482Y-100408812D01*
X136984180Y-100372502D01*
X137094494Y-100313537D01*
X137191185Y-100234185D01*
X137270537Y-100137494D01*
X137329502Y-100027180D01*
X137365812Y-99907482D01*
X137378072Y-99783000D01*
X137376927Y-99572706D01*
X137473820Y-99717717D01*
X137645283Y-99889180D01*
X137744201Y-99955275D01*
X137744200Y-101185321D01*
X137740883Y-101219000D01*
X137744200Y-101252679D01*
X137744200Y-101252688D01*
X137754123Y-101353439D01*
X137793338Y-101482713D01*
X137857019Y-101601852D01*
X137942720Y-101706279D01*
X137968886Y-101727753D01*
X138514201Y-102273069D01*
X138514201Y-103268327D01*
X138500000Y-103266928D01*
X138485750Y-103270000D01*
X138327000Y-103428750D01*
X138327000Y-104553000D01*
X138347000Y-104553000D01*
X138347000Y-104807000D01*
X138327000Y-104807000D01*
X138327000Y-105931250D01*
X138485750Y-106090000D01*
X138500000Y-106093072D01*
X138624482Y-106080812D01*
X138744180Y-106044502D01*
X138854494Y-105985537D01*
X138951185Y-105906185D01*
X139010467Y-105833950D01*
X139050000Y-105837843D01*
X139350000Y-105837843D01*
X139453953Y-105827605D01*
X139553910Y-105797283D01*
X139646032Y-105748043D01*
X139700000Y-105703752D01*
X139753968Y-105748043D01*
X139846090Y-105797283D01*
X139946047Y-105827605D01*
X140050000Y-105837843D01*
X140350000Y-105837843D01*
X140453953Y-105827605D01*
X140553910Y-105797283D01*
X140646032Y-105748043D01*
X140700000Y-105703752D01*
X140753968Y-105748043D01*
X140846090Y-105797283D01*
X140946047Y-105827605D01*
X141050000Y-105837843D01*
X141350000Y-105837843D01*
X141453953Y-105827605D01*
X141553910Y-105797283D01*
X141646032Y-105748043D01*
X141726777Y-105681777D01*
X141793043Y-105601032D01*
X141842283Y-105508910D01*
X141872605Y-105408953D01*
X141882843Y-105305000D01*
X141882843Y-104055000D01*
X141872605Y-103951047D01*
X141842283Y-103851090D01*
X141793043Y-103758968D01*
X141733400Y-103686293D01*
X141733400Y-102225941D01*
X143836089Y-100123253D01*
X143869069Y-100116693D01*
X144093097Y-100023898D01*
X144294717Y-99889180D01*
X144320778Y-99863119D01*
X148629000Y-104171342D01*
X148629000Y-104261243D01*
X148676307Y-104499069D01*
X148769102Y-104723097D01*
X148903820Y-104924717D01*
X149075283Y-105096180D01*
X149276903Y-105230898D01*
X149500931Y-105323693D01*
X149738757Y-105371000D01*
X149981243Y-105371000D01*
X150219069Y-105323693D01*
X150443097Y-105230898D01*
X150644717Y-105096180D01*
X150749401Y-104991496D01*
X150749401Y-106863336D01*
X150697174Y-107395986D01*
X150548250Y-107889248D01*
X150306354Y-108344185D01*
X149980702Y-108743475D01*
X149583699Y-109071904D01*
X149130464Y-109316967D01*
X148638258Y-109469330D01*
X148106700Y-109525200D01*
X143392968Y-109525200D01*
X143434671Y-109447179D01*
X143470683Y-109328462D01*
X143482843Y-109205001D01*
X143482843Y-107904999D01*
X143470683Y-107781538D01*
X143434671Y-107662821D01*
X143376190Y-107553411D01*
X143297488Y-107457512D01*
X143201589Y-107378810D01*
X143092179Y-107320329D01*
X142973462Y-107284317D01*
X142850001Y-107272157D01*
X142149999Y-107272157D01*
X142026538Y-107284317D01*
X141907821Y-107320329D01*
X141798411Y-107378810D01*
X141702512Y-107457512D01*
X141623810Y-107553411D01*
X141565329Y-107662821D01*
X141529317Y-107781538D01*
X141517157Y-107904999D01*
X141517157Y-109205001D01*
X141529317Y-109328462D01*
X141565329Y-109447179D01*
X141607032Y-109525200D01*
X137792968Y-109525200D01*
X137834671Y-109447179D01*
X137870683Y-109328462D01*
X137882843Y-109205001D01*
X137882843Y-107904999D01*
X137870683Y-107781538D01*
X137834671Y-107662821D01*
X137776190Y-107553411D01*
X137697488Y-107457512D01*
X137601589Y-107378810D01*
X137492179Y-107320329D01*
X137373462Y-107284317D01*
X137250001Y-107272157D01*
X136549999Y-107272157D01*
X136426538Y-107284317D01*
X136307821Y-107320329D01*
X136198411Y-107378810D01*
X136102512Y-107457512D01*
X136023810Y-107553411D01*
X135965329Y-107662821D01*
X135929317Y-107781538D01*
X135917157Y-107904999D01*
X135917157Y-109205001D01*
X135929317Y-109328462D01*
X135965329Y-109447179D01*
X136007032Y-109525200D01*
X131109253Y-109525200D01*
X130625948Y-109477812D01*
X130180147Y-109343216D01*
X129768979Y-109124594D01*
X129408105Y-108830273D01*
X129111273Y-108471465D01*
X128889785Y-108061833D01*
X128752082Y-107616985D01*
X128701400Y-107134780D01*
X128701400Y-106839711D01*
X129079000Y-106839711D01*
X129079000Y-107180689D01*
X129145521Y-107515114D01*
X129276007Y-107830136D01*
X129465444Y-108113648D01*
X129706552Y-108354756D01*
X129990064Y-108544193D01*
X130305086Y-108674679D01*
X130639511Y-108741200D01*
X130980489Y-108741200D01*
X131314914Y-108674679D01*
X131629936Y-108544193D01*
X131913448Y-108354756D01*
X132154556Y-108113648D01*
X132343993Y-107830136D01*
X132474479Y-107515114D01*
X132541000Y-107180689D01*
X132541000Y-106839711D01*
X146884400Y-106839711D01*
X146884400Y-107180689D01*
X146950921Y-107515114D01*
X147081407Y-107830136D01*
X147270844Y-108113648D01*
X147511952Y-108354756D01*
X147795464Y-108544193D01*
X148110486Y-108674679D01*
X148444911Y-108741200D01*
X148785889Y-108741200D01*
X149120314Y-108674679D01*
X149435336Y-108544193D01*
X149718848Y-108354756D01*
X149959956Y-108113648D01*
X150149393Y-107830136D01*
X150279879Y-107515114D01*
X150346400Y-107180689D01*
X150346400Y-106839711D01*
X150279879Y-106505286D01*
X150149393Y-106190264D01*
X149959956Y-105906752D01*
X149718848Y-105665644D01*
X149435336Y-105476207D01*
X149120314Y-105345721D01*
X148785889Y-105279200D01*
X148444911Y-105279200D01*
X148110486Y-105345721D01*
X147795464Y-105476207D01*
X147511952Y-105665644D01*
X147270844Y-105906752D01*
X147081407Y-106190264D01*
X146950921Y-106505286D01*
X146884400Y-106839711D01*
X132541000Y-106839711D01*
X132474479Y-106505286D01*
X132343993Y-106190264D01*
X132154556Y-105906752D01*
X131913448Y-105665644D01*
X131629936Y-105476207D01*
X131578738Y-105455000D01*
X137261928Y-105455000D01*
X137274188Y-105579482D01*
X137310498Y-105699180D01*
X137369463Y-105809494D01*
X137448815Y-105906185D01*
X137545506Y-105985537D01*
X137655820Y-106044502D01*
X137775518Y-106080812D01*
X137900000Y-106093072D01*
X137914250Y-106090000D01*
X138073000Y-105931250D01*
X138073000Y-104807000D01*
X137423750Y-104807000D01*
X137265000Y-104965750D01*
X137261928Y-105455000D01*
X131578738Y-105455000D01*
X131314914Y-105345721D01*
X130980489Y-105279200D01*
X130639511Y-105279200D01*
X130305086Y-105345721D01*
X129990064Y-105476207D01*
X129706552Y-105665644D01*
X129465444Y-105906752D01*
X129276007Y-106190264D01*
X129145521Y-106505286D01*
X129079000Y-106839711D01*
X128701400Y-106839711D01*
X128701400Y-104966097D01*
X128780683Y-105045380D01*
X128982303Y-105180098D01*
X129206331Y-105272893D01*
X129444157Y-105320200D01*
X129686643Y-105320200D01*
X129924469Y-105272893D01*
X130148497Y-105180098D01*
X130350117Y-105045380D01*
X130521580Y-104873917D01*
X130656298Y-104672297D01*
X130749093Y-104448269D01*
X130796400Y-104210443D01*
X130796400Y-103967957D01*
X130783877Y-103905000D01*
X137261928Y-103905000D01*
X137265000Y-104394250D01*
X137423750Y-104553000D01*
X138073000Y-104553000D01*
X138073000Y-103428750D01*
X137914250Y-103270000D01*
X137900000Y-103266928D01*
X137775518Y-103279188D01*
X137655820Y-103315498D01*
X137545506Y-103374463D01*
X137448815Y-103453815D01*
X137369463Y-103550506D01*
X137310498Y-103660820D01*
X137274188Y-103780518D01*
X137261928Y-103905000D01*
X130783877Y-103905000D01*
X130749093Y-103730131D01*
X130656298Y-103506103D01*
X130521580Y-103304483D01*
X130350117Y-103133020D01*
X130148497Y-102998302D01*
X129924469Y-102905507D01*
X129686643Y-102858200D01*
X129444157Y-102858200D01*
X129206331Y-102905507D01*
X128982303Y-102998302D01*
X128780683Y-103133020D01*
X128701400Y-103212303D01*
X128701400Y-102426097D01*
X128780683Y-102505380D01*
X128982303Y-102640098D01*
X129206331Y-102732893D01*
X129444157Y-102780200D01*
X129686643Y-102780200D01*
X129924469Y-102732893D01*
X130148497Y-102640098D01*
X130350117Y-102505380D01*
X130521580Y-102333917D01*
X130656298Y-102132297D01*
X130749093Y-101908269D01*
X130796400Y-101670443D01*
X130796400Y-101427957D01*
X130749093Y-101190131D01*
X130656298Y-100966103D01*
X130521580Y-100764483D01*
X130350117Y-100593020D01*
X130148497Y-100458302D01*
X129924469Y-100365507D01*
X129686643Y-100318200D01*
X129444157Y-100318200D01*
X129206331Y-100365507D01*
X128982303Y-100458302D01*
X128780683Y-100593020D01*
X128701400Y-100672303D01*
X128701400Y-99886097D01*
X128780683Y-99965380D01*
X128982303Y-100100098D01*
X129206331Y-100192893D01*
X129444157Y-100240200D01*
X129686643Y-100240200D01*
X129924469Y-100192893D01*
X130148497Y-100100098D01*
X130350117Y-99965380D01*
X130521580Y-99793917D01*
X130528874Y-99783000D01*
X134401928Y-99783000D01*
X134414188Y-99907482D01*
X134450498Y-100027180D01*
X134509463Y-100137494D01*
X134588815Y-100234185D01*
X134685506Y-100313537D01*
X134795820Y-100372502D01*
X134915518Y-100408812D01*
X135040000Y-100421072D01*
X135604250Y-100418000D01*
X135763000Y-100259250D01*
X135763000Y-99060000D01*
X134563750Y-99060000D01*
X134405000Y-99218750D01*
X134401928Y-99783000D01*
X130528874Y-99783000D01*
X130656298Y-99592297D01*
X130749093Y-99368269D01*
X130796400Y-99130443D01*
X130796400Y-98887957D01*
X130749093Y-98650131D01*
X130656298Y-98426103D01*
X130521580Y-98224483D01*
X130380097Y-98083000D01*
X134401928Y-98083000D01*
X134405000Y-98647250D01*
X134563750Y-98806000D01*
X135763000Y-98806000D01*
X135763000Y-97606750D01*
X135604250Y-97448000D01*
X135040000Y-97444928D01*
X134915518Y-97457188D01*
X134795820Y-97493498D01*
X134685506Y-97552463D01*
X134588815Y-97631815D01*
X134509463Y-97728506D01*
X134450498Y-97838820D01*
X134414188Y-97958518D01*
X134401928Y-98083000D01*
X130380097Y-98083000D01*
X130350117Y-98053020D01*
X130148497Y-97918302D01*
X129924469Y-97825507D01*
X129686643Y-97778200D01*
X129444157Y-97778200D01*
X129206331Y-97825507D01*
X128982303Y-97918302D01*
X128780683Y-98053020D01*
X128701400Y-98132303D01*
X128701400Y-97346097D01*
X128780683Y-97425380D01*
X128982303Y-97560098D01*
X129206331Y-97652893D01*
X129444157Y-97700200D01*
X129686643Y-97700200D01*
X129924469Y-97652893D01*
X130148497Y-97560098D01*
X130350117Y-97425380D01*
X130521580Y-97253917D01*
X130656298Y-97052297D01*
X130749093Y-96828269D01*
X130796400Y-96590443D01*
X130796400Y-96347957D01*
X130749093Y-96110131D01*
X130656298Y-95886103D01*
X130521580Y-95684483D01*
X130350117Y-95513020D01*
X130148497Y-95378302D01*
X129924469Y-95285507D01*
X129686643Y-95238200D01*
X129444157Y-95238200D01*
X129206331Y-95285507D01*
X128982303Y-95378302D01*
X128780683Y-95513020D01*
X128701400Y-95592303D01*
X128701400Y-94806097D01*
X128780683Y-94885380D01*
X128982303Y-95020098D01*
X129206331Y-95112893D01*
X129444157Y-95160200D01*
X129686643Y-95160200D01*
X129924469Y-95112893D01*
X130148497Y-95020098D01*
X130350117Y-94885380D01*
X130521580Y-94713917D01*
X130656298Y-94512297D01*
X130749093Y-94288269D01*
X130796400Y-94050443D01*
X130796400Y-93807957D01*
X130749093Y-93570131D01*
X130656298Y-93346103D01*
X130521580Y-93144483D01*
X130350117Y-92973020D01*
X130148497Y-92838302D01*
X129924469Y-92745507D01*
X129686643Y-92698200D01*
X129444157Y-92698200D01*
X129206331Y-92745507D01*
X128982303Y-92838302D01*
X128780683Y-92973020D01*
X128701400Y-93052303D01*
X128701400Y-92266097D01*
X128780683Y-92345380D01*
X128982303Y-92480098D01*
X129206331Y-92572893D01*
X129444157Y-92620200D01*
X129686643Y-92620200D01*
X129924469Y-92572893D01*
X130148497Y-92480098D01*
X130350117Y-92345380D01*
X130521580Y-92173917D01*
X130656298Y-91972297D01*
X130749093Y-91748269D01*
X130796400Y-91510443D01*
X130796400Y-91267957D01*
X130749093Y-91030131D01*
X130656298Y-90806103D01*
X130521580Y-90604483D01*
X130350117Y-90433020D01*
X130148497Y-90298302D01*
X129924469Y-90205507D01*
X129686643Y-90158200D01*
X129444157Y-90158200D01*
X129206331Y-90205507D01*
X128982303Y-90298302D01*
X128780683Y-90433020D01*
X128701400Y-90512303D01*
X128701400Y-89726097D01*
X128780683Y-89805380D01*
X128982303Y-89940098D01*
X129206331Y-90032893D01*
X129444157Y-90080200D01*
X129686643Y-90080200D01*
X129924469Y-90032893D01*
X130148497Y-89940098D01*
X130350117Y-89805380D01*
X130521580Y-89633917D01*
X130656298Y-89432297D01*
X130749093Y-89208269D01*
X130796400Y-88970443D01*
X130796400Y-88727957D01*
X130749093Y-88490131D01*
X130656298Y-88266103D01*
X130521580Y-88064483D01*
X130350117Y-87893020D01*
X130148497Y-87758302D01*
X129924469Y-87665507D01*
X129686643Y-87618200D01*
X129444157Y-87618200D01*
X129206331Y-87665507D01*
X128982303Y-87758302D01*
X128780683Y-87893020D01*
X128701400Y-87972303D01*
X128701400Y-87186097D01*
X128780683Y-87265380D01*
X128982303Y-87400098D01*
X129206331Y-87492893D01*
X129444157Y-87540200D01*
X129686643Y-87540200D01*
X129924469Y-87492893D01*
X130148497Y-87400098D01*
X130350117Y-87265380D01*
X130521580Y-87093917D01*
X130656298Y-86892297D01*
X130749093Y-86668269D01*
X130796400Y-86430443D01*
X130796400Y-86187957D01*
X130749093Y-85950131D01*
X130656298Y-85726103D01*
X130521580Y-85524483D01*
X130350117Y-85353020D01*
X130148497Y-85218302D01*
X129924469Y-85125507D01*
X129686643Y-85078200D01*
X129444157Y-85078200D01*
X129206331Y-85125507D01*
X128982303Y-85218302D01*
X128780683Y-85353020D01*
X128701400Y-85432303D01*
X128701400Y-84646097D01*
X128780683Y-84725380D01*
X128982303Y-84860098D01*
X129206331Y-84952893D01*
X129444157Y-85000200D01*
X129686643Y-85000200D01*
X129924469Y-84952893D01*
X130148497Y-84860098D01*
X130180072Y-84839000D01*
X131322528Y-84839000D01*
X131334788Y-84963482D01*
X131371098Y-85083180D01*
X131430063Y-85193494D01*
X131509415Y-85290185D01*
X131606106Y-85369537D01*
X131716420Y-85428502D01*
X131836118Y-85464812D01*
X131960600Y-85477072D01*
X132149850Y-85474000D01*
X132308600Y-85315250D01*
X132308600Y-84441000D01*
X131484350Y-84441000D01*
X131325600Y-84599750D01*
X131322528Y-84839000D01*
X130180072Y-84839000D01*
X130350117Y-84725380D01*
X130521580Y-84553917D01*
X130656298Y-84352297D01*
X130749093Y-84128269D01*
X130796400Y-83890443D01*
X130796400Y-83647957D01*
X130749093Y-83410131D01*
X130656298Y-83186103D01*
X130521580Y-82984483D01*
X130350117Y-82813020D01*
X130148497Y-82678302D01*
X129924469Y-82585507D01*
X129686643Y-82538200D01*
X129444157Y-82538200D01*
X129206331Y-82585507D01*
X128982303Y-82678302D01*
X128780683Y-82813020D01*
X128701400Y-82892303D01*
X128701400Y-82106097D01*
X128780683Y-82185380D01*
X128982303Y-82320098D01*
X129206331Y-82412893D01*
X129444157Y-82460200D01*
X129686643Y-82460200D01*
X129924469Y-82412893D01*
X130148497Y-82320098D01*
X130350117Y-82185380D01*
X130521580Y-82013917D01*
X130656298Y-81812297D01*
X130749093Y-81588269D01*
X130796400Y-81350443D01*
X130796400Y-81107957D01*
X130749093Y-80870131D01*
X130656298Y-80646103D01*
X130521580Y-80444483D01*
X130350117Y-80273020D01*
X130148497Y-80138302D01*
X129924469Y-80045507D01*
X129686643Y-79998200D01*
X129444157Y-79998200D01*
X129206331Y-80045507D01*
X128982303Y-80138302D01*
X128780683Y-80273020D01*
X128701400Y-80352303D01*
X128701400Y-79566097D01*
X128780683Y-79645380D01*
X128982303Y-79780098D01*
X129206331Y-79872893D01*
X129444157Y-79920200D01*
X129686643Y-79920200D01*
X129924469Y-79872893D01*
X130148497Y-79780098D01*
X130350117Y-79645380D01*
X130521580Y-79473917D01*
X130656298Y-79272297D01*
X130749093Y-79048269D01*
X130796400Y-78810443D01*
X130796400Y-78567957D01*
X130749093Y-78330131D01*
X130728508Y-78280433D01*
X131411941Y-77597000D01*
X131645650Y-77597000D01*
X131671704Y-77645744D01*
G36*
X148873828Y-100860170D02*
G01*
X148769102Y-101016903D01*
X148676307Y-101240931D01*
X148629000Y-101478757D01*
X148629000Y-101721243D01*
X148676307Y-101959069D01*
X148769102Y-102183097D01*
X148903820Y-102384717D01*
X149075283Y-102556180D01*
X149276903Y-102690898D01*
X149500931Y-102783693D01*
X149738757Y-102831000D01*
X149981243Y-102831000D01*
X150219069Y-102783693D01*
X150443097Y-102690898D01*
X150644717Y-102556180D01*
X150749401Y-102451496D01*
X150749401Y-103288504D01*
X150644717Y-103183820D01*
X150443097Y-103049102D01*
X150219069Y-102956307D01*
X149981243Y-102909000D01*
X149738757Y-102909000D01*
X149500931Y-102956307D01*
X149276903Y-103049102D01*
X149120170Y-103153828D01*
X144731788Y-98765447D01*
X144693693Y-98573931D01*
X144600898Y-98349903D01*
X144473474Y-98159199D01*
X146172858Y-98159199D01*
X148873828Y-100860170D01*
G37*
X148873828Y-100860170D02*
X148769102Y-101016903D01*
X148676307Y-101240931D01*
X148629000Y-101478757D01*
X148629000Y-101721243D01*
X148676307Y-101959069D01*
X148769102Y-102183097D01*
X148903820Y-102384717D01*
X149075283Y-102556180D01*
X149276903Y-102690898D01*
X149500931Y-102783693D01*
X149738757Y-102831000D01*
X149981243Y-102831000D01*
X150219069Y-102783693D01*
X150443097Y-102690898D01*
X150644717Y-102556180D01*
X150749401Y-102451496D01*
X150749401Y-103288504D01*
X150644717Y-103183820D01*
X150443097Y-103049102D01*
X150219069Y-102956307D01*
X149981243Y-102909000D01*
X149738757Y-102909000D01*
X149500931Y-102956307D01*
X149276903Y-103049102D01*
X149120170Y-103153828D01*
X144731788Y-98765447D01*
X144693693Y-98573931D01*
X144600898Y-98349903D01*
X144473474Y-98159199D01*
X146172858Y-98159199D01*
X148873828Y-100860170D01*
G36*
X148629000Y-91318757D02*
G01*
X148629000Y-91561243D01*
X148676307Y-91799069D01*
X148769102Y-92023097D01*
X148903820Y-92224717D01*
X149075283Y-92396180D01*
X149276903Y-92530898D01*
X149500931Y-92623693D01*
X149738757Y-92671000D01*
X149981243Y-92671000D01*
X150219069Y-92623693D01*
X150443097Y-92530898D01*
X150644717Y-92396180D01*
X150749401Y-92291496D01*
X150749401Y-93128504D01*
X150644717Y-93023820D01*
X150443097Y-92889102D01*
X150219069Y-92796307D01*
X149981243Y-92749000D01*
X149738757Y-92749000D01*
X149500931Y-92796307D01*
X149276903Y-92889102D01*
X149075283Y-93023820D01*
X148903820Y-93195283D01*
X148769102Y-93396903D01*
X148676307Y-93620931D01*
X148629000Y-93858757D01*
X148629000Y-94101243D01*
X148676307Y-94339069D01*
X148769102Y-94563097D01*
X148903820Y-94764717D01*
X149075283Y-94936180D01*
X149276903Y-95070898D01*
X149500931Y-95163693D01*
X149738757Y-95211000D01*
X149981243Y-95211000D01*
X150219069Y-95163693D01*
X150443097Y-95070898D01*
X150644717Y-94936180D01*
X150749401Y-94831496D01*
X150749401Y-95668504D01*
X150644717Y-95563820D01*
X150443097Y-95429102D01*
X150219069Y-95336307D01*
X149981243Y-95289000D01*
X149738757Y-95289000D01*
X149500931Y-95336307D01*
X149276903Y-95429102D01*
X149075283Y-95563820D01*
X148903820Y-95735283D01*
X148769102Y-95936903D01*
X148676307Y-96160931D01*
X148629000Y-96398757D01*
X148629000Y-96641243D01*
X148676307Y-96879069D01*
X148769102Y-97103097D01*
X148903820Y-97304717D01*
X149075283Y-97476180D01*
X149276903Y-97610898D01*
X149500931Y-97703693D01*
X149738757Y-97751000D01*
X149981243Y-97751000D01*
X150219069Y-97703693D01*
X150443097Y-97610898D01*
X150644717Y-97476180D01*
X150749401Y-97371496D01*
X150749401Y-98208504D01*
X150644717Y-98103820D01*
X150443097Y-97969102D01*
X150219069Y-97876307D01*
X149981243Y-97829000D01*
X149738757Y-97829000D01*
X149500931Y-97876307D01*
X149276903Y-97969102D01*
X149075283Y-98103820D01*
X148903820Y-98275283D01*
X148769102Y-98476903D01*
X148676307Y-98700931D01*
X148629000Y-98938757D01*
X148629000Y-99106658D01*
X146789495Y-97267154D01*
X146772794Y-97246804D01*
X146691574Y-97180148D01*
X146598910Y-97130618D01*
X146498364Y-97100118D01*
X146419994Y-97092399D01*
X146419986Y-97092399D01*
X146393799Y-97089820D01*
X146367612Y-97092399D01*
X142303387Y-97092399D01*
X142277200Y-97089820D01*
X142251013Y-97092399D01*
X142251006Y-97092399D01*
X142172636Y-97100118D01*
X142072090Y-97130618D01*
X141979426Y-97180148D01*
X141898206Y-97246804D01*
X141881510Y-97267148D01*
X141378766Y-97769892D01*
X141329069Y-97749307D01*
X141091243Y-97702000D01*
X140848757Y-97702000D01*
X140610931Y-97749307D01*
X140386903Y-97842102D01*
X140185283Y-97976820D01*
X140013820Y-98148283D01*
X139879102Y-98349903D01*
X139786307Y-98573931D01*
X139739000Y-98811757D01*
X139739000Y-99054243D01*
X139786307Y-99292069D01*
X139879102Y-99516097D01*
X140013820Y-99717717D01*
X140185283Y-99889180D01*
X140386903Y-100023898D01*
X140436601Y-100044483D01*
X140436600Y-100998058D01*
X139841350Y-101593309D01*
X139821006Y-101610005D01*
X139804310Y-101630349D01*
X139804307Y-101630352D01*
X139793172Y-101643921D01*
X139772981Y-101606147D01*
X139772980Y-101606145D01*
X139708755Y-101527887D01*
X139708753Y-101527885D01*
X139687280Y-101501720D01*
X139661114Y-101480246D01*
X139115800Y-100934933D01*
X139115800Y-99955274D01*
X139214717Y-99889180D01*
X139386180Y-99717717D01*
X139520898Y-99516097D01*
X139613693Y-99292069D01*
X139661000Y-99054243D01*
X139661000Y-98811757D01*
X139613693Y-98573931D01*
X139520898Y-98349903D01*
X139386180Y-98148283D01*
X139214717Y-97976820D01*
X139115800Y-97910726D01*
X139115800Y-97058067D01*
X139476067Y-96697800D01*
X142831895Y-96697800D01*
X142865574Y-96701117D01*
X142899253Y-96697800D01*
X142899263Y-96697800D01*
X143000014Y-96687877D01*
X143129288Y-96648662D01*
X143248427Y-96584981D01*
X143352854Y-96499280D01*
X143374332Y-96473109D01*
X148653909Y-91193532D01*
X148629000Y-91318757D01*
G37*
X148629000Y-91318757D02*
X148629000Y-91561243D01*
X148676307Y-91799069D01*
X148769102Y-92023097D01*
X148903820Y-92224717D01*
X149075283Y-92396180D01*
X149276903Y-92530898D01*
X149500931Y-92623693D01*
X149738757Y-92671000D01*
X149981243Y-92671000D01*
X150219069Y-92623693D01*
X150443097Y-92530898D01*
X150644717Y-92396180D01*
X150749401Y-92291496D01*
X150749401Y-93128504D01*
X150644717Y-93023820D01*
X150443097Y-92889102D01*
X150219069Y-92796307D01*
X149981243Y-92749000D01*
X149738757Y-92749000D01*
X149500931Y-92796307D01*
X149276903Y-92889102D01*
X149075283Y-93023820D01*
X148903820Y-93195283D01*
X148769102Y-93396903D01*
X148676307Y-93620931D01*
X148629000Y-93858757D01*
X148629000Y-94101243D01*
X148676307Y-94339069D01*
X148769102Y-94563097D01*
X148903820Y-94764717D01*
X149075283Y-94936180D01*
X149276903Y-95070898D01*
X149500931Y-95163693D01*
X149738757Y-95211000D01*
X149981243Y-95211000D01*
X150219069Y-95163693D01*
X150443097Y-95070898D01*
X150644717Y-94936180D01*
X150749401Y-94831496D01*
X150749401Y-95668504D01*
X150644717Y-95563820D01*
X150443097Y-95429102D01*
X150219069Y-95336307D01*
X149981243Y-95289000D01*
X149738757Y-95289000D01*
X149500931Y-95336307D01*
X149276903Y-95429102D01*
X149075283Y-95563820D01*
X148903820Y-95735283D01*
X148769102Y-95936903D01*
X148676307Y-96160931D01*
X148629000Y-96398757D01*
X148629000Y-96641243D01*
X148676307Y-96879069D01*
X148769102Y-97103097D01*
X148903820Y-97304717D01*
X149075283Y-97476180D01*
X149276903Y-97610898D01*
X149500931Y-97703693D01*
X149738757Y-97751000D01*
X149981243Y-97751000D01*
X150219069Y-97703693D01*
X150443097Y-97610898D01*
X150644717Y-97476180D01*
X150749401Y-97371496D01*
X150749401Y-98208504D01*
X150644717Y-98103820D01*
X150443097Y-97969102D01*
X150219069Y-97876307D01*
X149981243Y-97829000D01*
X149738757Y-97829000D01*
X149500931Y-97876307D01*
X149276903Y-97969102D01*
X149075283Y-98103820D01*
X148903820Y-98275283D01*
X148769102Y-98476903D01*
X148676307Y-98700931D01*
X148629000Y-98938757D01*
X148629000Y-99106658D01*
X146789495Y-97267154D01*
X146772794Y-97246804D01*
X146691574Y-97180148D01*
X146598910Y-97130618D01*
X146498364Y-97100118D01*
X146419994Y-97092399D01*
X146419986Y-97092399D01*
X146393799Y-97089820D01*
X146367612Y-97092399D01*
X142303387Y-97092399D01*
X142277200Y-97089820D01*
X142251013Y-97092399D01*
X142251006Y-97092399D01*
X142172636Y-97100118D01*
X142072090Y-97130618D01*
X141979426Y-97180148D01*
X141898206Y-97246804D01*
X141881510Y-97267148D01*
X141378766Y-97769892D01*
X141329069Y-97749307D01*
X141091243Y-97702000D01*
X140848757Y-97702000D01*
X140610931Y-97749307D01*
X140386903Y-97842102D01*
X140185283Y-97976820D01*
X140013820Y-98148283D01*
X139879102Y-98349903D01*
X139786307Y-98573931D01*
X139739000Y-98811757D01*
X139739000Y-99054243D01*
X139786307Y-99292069D01*
X139879102Y-99516097D01*
X140013820Y-99717717D01*
X140185283Y-99889180D01*
X140386903Y-100023898D01*
X140436601Y-100044483D01*
X140436600Y-100998058D01*
X139841350Y-101593309D01*
X139821006Y-101610005D01*
X139804310Y-101630349D01*
X139804307Y-101630352D01*
X139793172Y-101643921D01*
X139772981Y-101606147D01*
X139772980Y-101606145D01*
X139708755Y-101527887D01*
X139708753Y-101527885D01*
X139687280Y-101501720D01*
X139661114Y-101480246D01*
X139115800Y-100934933D01*
X139115800Y-99955274D01*
X139214717Y-99889180D01*
X139386180Y-99717717D01*
X139520898Y-99516097D01*
X139613693Y-99292069D01*
X139661000Y-99054243D01*
X139661000Y-98811757D01*
X139613693Y-98573931D01*
X139520898Y-98349903D01*
X139386180Y-98148283D01*
X139214717Y-97976820D01*
X139115800Y-97910726D01*
X139115800Y-97058067D01*
X139476067Y-96697800D01*
X142831895Y-96697800D01*
X142865574Y-96701117D01*
X142899253Y-96697800D01*
X142899263Y-96697800D01*
X143000014Y-96687877D01*
X143129288Y-96648662D01*
X143248427Y-96584981D01*
X143352854Y-96499280D01*
X143374332Y-96473109D01*
X148653909Y-91193532D01*
X148629000Y-91318757D01*
G36*
X147650200Y-86445072D02*
G01*
X147557144Y-86368704D01*
X147449895Y-86311378D01*
X147333523Y-86276077D01*
X147212500Y-86264157D01*
X146637500Y-86264157D01*
X146516477Y-86276077D01*
X146400105Y-86311378D01*
X146292856Y-86368704D01*
X146198851Y-86445851D01*
X146121704Y-86539856D01*
X146064378Y-86647105D01*
X146050000Y-86694503D01*
X146035622Y-86647105D01*
X145978296Y-86539856D01*
X145901149Y-86445851D01*
X145807144Y-86368704D01*
X145699895Y-86311378D01*
X145583523Y-86276077D01*
X145462500Y-86264157D01*
X144887500Y-86264157D01*
X144766477Y-86276077D01*
X144650105Y-86311378D01*
X144542856Y-86368704D01*
X144448851Y-86445851D01*
X144371704Y-86539856D01*
X144314378Y-86647105D01*
X144279077Y-86763477D01*
X144267157Y-86884500D01*
X144267157Y-87147400D01*
X144145000Y-87147400D01*
X144145000Y-86632713D01*
X144159009Y-86490477D01*
X144195038Y-86371706D01*
X144253550Y-86262237D01*
X144332291Y-86166291D01*
X144428237Y-86087550D01*
X144537706Y-86029038D01*
X144656477Y-85993009D01*
X144798713Y-85979000D01*
X147650200Y-85979000D01*
X147650200Y-86445072D01*
G37*
X147650200Y-86445072D02*
X147557144Y-86368704D01*
X147449895Y-86311378D01*
X147333523Y-86276077D01*
X147212500Y-86264157D01*
X146637500Y-86264157D01*
X146516477Y-86276077D01*
X146400105Y-86311378D01*
X146292856Y-86368704D01*
X146198851Y-86445851D01*
X146121704Y-86539856D01*
X146064378Y-86647105D01*
X146050000Y-86694503D01*
X146035622Y-86647105D01*
X145978296Y-86539856D01*
X145901149Y-86445851D01*
X145807144Y-86368704D01*
X145699895Y-86311378D01*
X145583523Y-86276077D01*
X145462500Y-86264157D01*
X144887500Y-86264157D01*
X144766477Y-86276077D01*
X144650105Y-86311378D01*
X144542856Y-86368704D01*
X144448851Y-86445851D01*
X144371704Y-86539856D01*
X144314378Y-86647105D01*
X144279077Y-86763477D01*
X144267157Y-86884500D01*
X144267157Y-87147400D01*
X144145000Y-87147400D01*
X144145000Y-86632713D01*
X144159009Y-86490477D01*
X144195038Y-86371706D01*
X144253550Y-86262237D01*
X144332291Y-86166291D01*
X144428237Y-86087550D01*
X144537706Y-86029038D01*
X144656477Y-85993009D01*
X144798713Y-85979000D01*
X147650200Y-85979000D01*
X147650200Y-86445072D01*
G36*
X146412250Y-59647658D02*
G01*
X145994282Y-59923827D01*
X145703751Y-60468757D01*
X145525113Y-61059896D01*
X145465232Y-61674528D01*
X145526410Y-62289031D01*
X145706297Y-62879792D01*
X145994282Y-63418573D01*
X146412252Y-63694743D01*
X148435795Y-61671200D01*
X148421653Y-61657058D01*
X148601258Y-61477453D01*
X148615400Y-61491595D01*
X150024590Y-60082405D01*
X150117717Y-60158357D01*
X150203796Y-60262409D01*
X148795005Y-61671200D01*
X148809148Y-61685343D01*
X148629543Y-61864948D01*
X148615400Y-61850805D01*
X146591857Y-63874348D01*
X146868027Y-64292318D01*
X147412957Y-64582849D01*
X148004096Y-64761487D01*
X148618728Y-64821368D01*
X149233231Y-64760190D01*
X149823992Y-64580303D01*
X150362773Y-64292318D01*
X150638942Y-63874350D01*
X150749400Y-63984808D01*
X150749400Y-74971037D01*
X150710000Y-74967157D01*
X149010000Y-74967157D01*
X148935311Y-74974513D01*
X148863492Y-74996299D01*
X148797304Y-75031678D01*
X148739289Y-75079289D01*
X148691678Y-75137304D01*
X148656299Y-75203492D01*
X148634513Y-75275311D01*
X148627157Y-75350000D01*
X148627157Y-77050000D01*
X148634513Y-77124689D01*
X148656299Y-77196508D01*
X148691678Y-77262696D01*
X148739289Y-77320711D01*
X148797304Y-77368322D01*
X148863492Y-77403701D01*
X148935311Y-77425487D01*
X149010000Y-77432843D01*
X150710000Y-77432843D01*
X150749400Y-77428963D01*
X150749400Y-77888503D01*
X150644717Y-77783820D01*
X150443097Y-77649102D01*
X150219069Y-77556307D01*
X149981243Y-77509000D01*
X149738757Y-77509000D01*
X149500931Y-77556307D01*
X149276903Y-77649102D01*
X149075283Y-77783820D01*
X148903820Y-77955283D01*
X148769102Y-78156903D01*
X148676307Y-78380931D01*
X148629000Y-78618757D01*
X148629000Y-78861243D01*
X148676307Y-79099069D01*
X148769102Y-79323097D01*
X148903820Y-79524717D01*
X149075283Y-79696180D01*
X149276903Y-79830898D01*
X149500931Y-79923693D01*
X149738757Y-79971000D01*
X149981243Y-79971000D01*
X150219069Y-79923693D01*
X150443097Y-79830898D01*
X150644717Y-79696180D01*
X150749400Y-79591497D01*
X150749400Y-80428503D01*
X150644717Y-80323820D01*
X150443097Y-80189102D01*
X150219069Y-80096307D01*
X149981243Y-80049000D01*
X149738757Y-80049000D01*
X149500931Y-80096307D01*
X149276903Y-80189102D01*
X149075283Y-80323820D01*
X148903820Y-80495283D01*
X148769102Y-80696903D01*
X148676307Y-80920931D01*
X148629000Y-81158757D01*
X148629000Y-81401243D01*
X148676307Y-81639069D01*
X148769102Y-81863097D01*
X148903820Y-82064717D01*
X149008103Y-82169000D01*
X148971000Y-82169000D01*
X148911400Y-82173691D01*
X148793665Y-82192338D01*
X148749844Y-82201952D01*
X148680293Y-82229175D01*
X148574082Y-82283293D01*
X148535382Y-82305975D01*
X148477646Y-82353357D01*
X148393357Y-82437646D01*
X148363561Y-82471177D01*
X148323293Y-82534082D01*
X148269175Y-82640293D01*
X148251196Y-82681396D01*
X148232338Y-82753665D01*
X148204901Y-82926901D01*
X148179018Y-82931000D01*
X142240000Y-82931000D01*
X142202656Y-82932835D01*
X142004444Y-82952357D01*
X141931190Y-82966928D01*
X141740596Y-83024744D01*
X141671591Y-83053326D01*
X141495938Y-83147215D01*
X141433837Y-83188710D01*
X141279876Y-83315063D01*
X141249137Y-83345802D01*
X141207675Y-83209120D01*
X141179092Y-83140115D01*
X141086682Y-82967228D01*
X141045187Y-82905126D01*
X140939701Y-82776591D01*
X141010894Y-82738537D01*
X141107585Y-82659185D01*
X141186937Y-82562494D01*
X141213883Y-82512083D01*
X141271706Y-82559537D01*
X141382020Y-82618502D01*
X141501718Y-82654812D01*
X141626200Y-82667072D01*
X142665450Y-82664000D01*
X142824200Y-82505250D01*
X142824200Y-81443500D01*
X143078200Y-81443500D01*
X143078200Y-82505250D01*
X143236950Y-82664000D01*
X144276200Y-82667072D01*
X144400682Y-82654812D01*
X144520380Y-82618502D01*
X144602200Y-82574768D01*
X144684020Y-82618502D01*
X144803718Y-82654812D01*
X144928200Y-82667072D01*
X145967450Y-82664000D01*
X146126200Y-82505250D01*
X146126200Y-81443500D01*
X146380200Y-81443500D01*
X146380200Y-82505250D01*
X146538950Y-82664000D01*
X147578200Y-82667072D01*
X147702682Y-82654812D01*
X147822380Y-82618502D01*
X147932694Y-82559537D01*
X148029385Y-82480185D01*
X148108737Y-82383494D01*
X148167702Y-82273180D01*
X148204012Y-82153482D01*
X148216272Y-82029000D01*
X148213200Y-81602250D01*
X148054450Y-81443500D01*
X146380200Y-81443500D01*
X146126200Y-81443500D01*
X143078200Y-81443500D01*
X142824200Y-81443500D01*
X142804200Y-81443500D01*
X142804200Y-81189500D01*
X142824200Y-81189500D01*
X142824200Y-80127750D01*
X143078200Y-80127750D01*
X143078200Y-81189500D01*
X146126200Y-81189500D01*
X146126200Y-80127750D01*
X146380200Y-80127750D01*
X146380200Y-81189500D01*
X148054450Y-81189500D01*
X148213200Y-81030750D01*
X148216272Y-80604000D01*
X148204012Y-80479518D01*
X148167702Y-80359820D01*
X148108737Y-80249506D01*
X148029385Y-80152815D01*
X147932694Y-80073463D01*
X147822380Y-80014498D01*
X147702682Y-79978188D01*
X147578200Y-79965928D01*
X146538950Y-79969000D01*
X146380200Y-80127750D01*
X146126200Y-80127750D01*
X145967450Y-79969000D01*
X144928200Y-79965928D01*
X144803718Y-79978188D01*
X144684020Y-80014498D01*
X144602200Y-80058232D01*
X144520380Y-80014498D01*
X144400682Y-79978188D01*
X144276200Y-79965928D01*
X143236950Y-79969000D01*
X143078200Y-80127750D01*
X142824200Y-80127750D01*
X142665450Y-79969000D01*
X141626200Y-79965928D01*
X141501718Y-79978188D01*
X141382020Y-80014498D01*
X141271706Y-80073463D01*
X141175015Y-80152815D01*
X141095663Y-80249506D01*
X141036698Y-80359820D01*
X141000388Y-80479518D01*
X140991749Y-80567230D01*
X140900580Y-80518498D01*
X140780882Y-80482188D01*
X140656400Y-80469928D01*
X140392150Y-80473000D01*
X140233400Y-80631750D01*
X140233400Y-81531000D01*
X140253400Y-81531000D01*
X140253400Y-81785000D01*
X140233400Y-81785000D01*
X140233400Y-81805000D01*
X139979400Y-81805000D01*
X139979400Y-81785000D01*
X139080150Y-81785000D01*
X138921400Y-81943750D01*
X138918328Y-82208000D01*
X138929497Y-82321400D01*
X138414000Y-82321400D01*
X138395643Y-82322302D01*
X138010696Y-81937355D01*
X137993995Y-81917005D01*
X137912775Y-81850349D01*
X137820111Y-81800819D01*
X137719565Y-81770319D01*
X137641195Y-81762600D01*
X137641187Y-81762600D01*
X137615000Y-81760021D01*
X137588813Y-81762600D01*
X134940342Y-81762600D01*
X135594942Y-81108000D01*
X138918328Y-81108000D01*
X138921400Y-81372250D01*
X139080150Y-81531000D01*
X139979400Y-81531000D01*
X139979400Y-80631750D01*
X139820650Y-80473000D01*
X139556400Y-80469928D01*
X139431918Y-80482188D01*
X139312220Y-80518498D01*
X139201906Y-80577463D01*
X139105215Y-80656815D01*
X139025863Y-80753506D01*
X138966898Y-80863820D01*
X138930588Y-80983518D01*
X138918328Y-81108000D01*
X135594942Y-81108000D01*
X135867651Y-80835291D01*
X135887995Y-80818595D01*
X135954651Y-80737375D01*
X135998079Y-80656127D01*
X136001592Y-80660408D01*
X136059328Y-80707790D01*
X136125198Y-80742998D01*
X136196671Y-80764679D01*
X136271000Y-80772000D01*
X137287000Y-80772000D01*
X137361329Y-80764679D01*
X137432802Y-80742998D01*
X137498672Y-80707790D01*
X137556408Y-80660408D01*
X137603790Y-80602672D01*
X137638998Y-80536802D01*
X137649339Y-80502712D01*
X137674311Y-80510287D01*
X137749000Y-80517643D01*
X138349000Y-80517643D01*
X138423689Y-80510287D01*
X138495508Y-80488501D01*
X138561696Y-80453122D01*
X138619711Y-80405511D01*
X138667322Y-80347496D01*
X138702701Y-80281308D01*
X138724487Y-80209489D01*
X138731843Y-80134800D01*
X138731843Y-79811165D01*
X138849099Y-79889512D01*
X138980840Y-79944081D01*
X139120696Y-79971900D01*
X139263292Y-79971900D01*
X139403148Y-79944081D01*
X139534889Y-79889512D01*
X139653454Y-79810290D01*
X139754284Y-79709460D01*
X139833506Y-79590895D01*
X139888075Y-79459154D01*
X139915894Y-79319298D01*
X139915894Y-79176702D01*
X139888075Y-79036846D01*
X139833506Y-78905105D01*
X139754284Y-78786540D01*
X139653454Y-78685710D01*
X139534889Y-78606488D01*
X139403148Y-78551919D01*
X139263292Y-78524100D01*
X139120696Y-78524100D01*
X138980840Y-78551919D01*
X138861382Y-78601400D01*
X138731843Y-78601400D01*
X138731843Y-78134800D01*
X138724487Y-78060111D01*
X138702701Y-77988292D01*
X138695903Y-77975574D01*
X138718498Y-77933302D01*
X138740179Y-77861829D01*
X138747500Y-77787500D01*
X138747500Y-77532200D01*
X139074928Y-77532200D01*
X139087188Y-77656682D01*
X139123498Y-77776380D01*
X139182463Y-77886694D01*
X139261815Y-77983385D01*
X139358506Y-78062737D01*
X139468820Y-78121702D01*
X139588518Y-78158012D01*
X139713000Y-78170272D01*
X140139750Y-78167200D01*
X140298500Y-78008450D01*
X140298500Y-76784200D01*
X140552500Y-76784200D01*
X140552500Y-78008450D01*
X140711250Y-78167200D01*
X141138000Y-78170272D01*
X141262482Y-78158012D01*
X141382180Y-78121702D01*
X141492494Y-78062737D01*
X141589185Y-77983385D01*
X141668537Y-77886694D01*
X141727502Y-77776380D01*
X141763812Y-77656682D01*
X141776072Y-77532200D01*
X141773000Y-76942950D01*
X141614250Y-76784200D01*
X140552500Y-76784200D01*
X140298500Y-76784200D01*
X139236750Y-76784200D01*
X139078000Y-76942950D01*
X139074928Y-77532200D01*
X138747500Y-77532200D01*
X138747500Y-74902046D01*
X138850910Y-75005456D01*
X138917613Y-75058650D01*
X139086172Y-75164563D01*
X139163040Y-75201580D01*
X139342861Y-75264502D01*
X139261815Y-75331015D01*
X139182463Y-75427706D01*
X139123498Y-75538020D01*
X139087188Y-75657718D01*
X139074928Y-75782200D01*
X139078000Y-76371450D01*
X139236750Y-76530200D01*
X140298500Y-76530200D01*
X140298500Y-76510200D01*
X140552500Y-76510200D01*
X140552500Y-76530200D01*
X141614250Y-76530200D01*
X141773000Y-76371450D01*
X141776072Y-75782200D01*
X141763812Y-75657718D01*
X141727502Y-75538020D01*
X141668537Y-75427706D01*
X141589185Y-75331015D01*
X141492494Y-75251663D01*
X141382180Y-75192698D01*
X141262482Y-75156388D01*
X141138000Y-75144128D01*
X140711250Y-75147200D01*
X140552502Y-75305948D01*
X140552502Y-75202560D01*
X140583085Y-75189892D01*
X140755972Y-75097482D01*
X140818074Y-75055987D01*
X140969611Y-74931624D01*
X141022424Y-74878811D01*
X141146787Y-74727274D01*
X141188282Y-74665172D01*
X141280692Y-74492285D01*
X141309275Y-74423280D01*
X141366180Y-74235687D01*
X141380750Y-74162435D01*
X141399965Y-73967345D01*
X141401800Y-73930000D01*
X141401800Y-71866000D01*
X141399965Y-71828655D01*
X141380750Y-71633565D01*
X141366180Y-71560313D01*
X141309275Y-71372720D01*
X141280692Y-71303715D01*
X141188282Y-71130828D01*
X141146787Y-71068726D01*
X141022424Y-70917189D01*
X140969611Y-70864376D01*
X140818074Y-70740013D01*
X140755972Y-70698518D01*
X140583085Y-70606108D01*
X140514080Y-70577525D01*
X140326487Y-70520620D01*
X140253235Y-70506050D01*
X140058145Y-70486835D01*
X140020800Y-70485000D01*
X136949168Y-70485000D01*
X136911627Y-70486854D01*
X136715515Y-70506272D01*
X136641886Y-70520997D01*
X136453391Y-70578499D01*
X136384085Y-70607377D01*
X136210526Y-70700728D01*
X136148226Y-70742637D01*
X135996345Y-70868212D01*
X135943474Y-70921525D01*
X135819169Y-71074447D01*
X135777780Y-71137094D01*
X135685879Y-71311424D01*
X135657581Y-71380970D01*
X135601652Y-71569938D01*
X135587540Y-71643686D01*
X135569757Y-71839953D01*
X135568216Y-71877507D01*
X135570599Y-72163507D01*
X135572724Y-72200639D01*
X135593353Y-72394542D01*
X135608378Y-72467300D01*
X135666245Y-72653514D01*
X135695105Y-72721974D01*
X135788010Y-72893417D01*
X135829606Y-72954974D01*
X135954016Y-73105128D01*
X136006768Y-73157443D01*
X136114417Y-73245133D01*
X135981400Y-73378150D01*
X135981400Y-74177400D01*
X136001400Y-74177400D01*
X136001400Y-74431400D01*
X135981400Y-74431400D01*
X135981400Y-75230650D01*
X136045291Y-75294541D01*
X136024321Y-75363671D01*
X136017000Y-75438000D01*
X136017000Y-76298947D01*
X136001592Y-76311592D01*
X135954210Y-76369328D01*
X135919002Y-76435198D01*
X135897321Y-76506671D01*
X135890000Y-76581000D01*
X135890000Y-77761227D01*
X135883689Y-77759313D01*
X135809000Y-77751957D01*
X135348852Y-77751957D01*
X135375812Y-77663082D01*
X135388072Y-77538600D01*
X135385000Y-77349350D01*
X135226250Y-77190600D01*
X134352000Y-77190600D01*
X134352000Y-77210600D01*
X134098000Y-77210600D01*
X134098000Y-77190600D01*
X134078000Y-77190600D01*
X134078000Y-76936600D01*
X134098000Y-76936600D01*
X134098000Y-75666600D01*
X134352000Y-75666600D01*
X134352000Y-76936600D01*
X135226250Y-76936600D01*
X135385000Y-76777850D01*
X135388072Y-76588600D01*
X135375812Y-76464118D01*
X135339502Y-76344420D01*
X135316614Y-76301600D01*
X135339502Y-76258780D01*
X135375812Y-76139082D01*
X135388072Y-76014600D01*
X135385000Y-75825350D01*
X135226250Y-75666600D01*
X134352000Y-75666600D01*
X134098000Y-75666600D01*
X134078000Y-75666600D01*
X134078000Y-75412600D01*
X134098000Y-75412600D01*
X134098000Y-75392600D01*
X134352000Y-75392600D01*
X134352000Y-75412600D01*
X135226250Y-75412600D01*
X135275228Y-75363622D01*
X135329918Y-75380212D01*
X135454400Y-75392472D01*
X135568650Y-75389400D01*
X135727400Y-75230650D01*
X135727400Y-74431400D01*
X135707400Y-74431400D01*
X135707400Y-74177400D01*
X135727400Y-74177400D01*
X135727400Y-73378150D01*
X135568650Y-73219400D01*
X135454400Y-73216328D01*
X135329918Y-73228588D01*
X135210220Y-73264898D01*
X135099906Y-73323863D01*
X135003372Y-73403086D01*
X134951149Y-73339451D01*
X134857144Y-73262304D01*
X134749895Y-73204978D01*
X134633523Y-73169677D01*
X134512500Y-73157757D01*
X134121498Y-73157757D01*
X134026976Y-73063235D01*
X134049009Y-73063235D01*
X134123698Y-73055879D01*
X134219831Y-73036757D01*
X134291648Y-73014972D01*
X134382204Y-72977463D01*
X134448394Y-72942083D01*
X134529893Y-72887627D01*
X134587908Y-72840016D01*
X134657216Y-72770708D01*
X134704827Y-72712693D01*
X134759283Y-72631194D01*
X134794663Y-72565004D01*
X134832172Y-72474448D01*
X134853957Y-72402631D01*
X134873079Y-72306498D01*
X134880435Y-72231809D01*
X134880435Y-72207250D01*
X134882843Y-72182800D01*
X134882843Y-71682800D01*
X134880435Y-71658350D01*
X134880435Y-71633791D01*
X134873079Y-71559102D01*
X134853957Y-71462969D01*
X134832172Y-71391152D01*
X134794663Y-71300596D01*
X134759283Y-71234406D01*
X134704827Y-71152907D01*
X134657216Y-71094892D01*
X134587908Y-71025584D01*
X134529893Y-70977973D01*
X134448394Y-70923517D01*
X134382204Y-70888137D01*
X134291648Y-70850628D01*
X134219831Y-70828843D01*
X134123698Y-70809721D01*
X134049009Y-70802365D01*
X134024450Y-70802365D01*
X134000000Y-70799957D01*
X133500000Y-70799957D01*
X133425311Y-70807313D01*
X133353492Y-70829099D01*
X133350000Y-70830966D01*
X133346508Y-70829099D01*
X133274689Y-70807313D01*
X133200000Y-70799957D01*
X132700000Y-70799957D01*
X132675550Y-70802365D01*
X132650991Y-70802365D01*
X132576302Y-70809721D01*
X132480169Y-70828843D01*
X132408352Y-70850628D01*
X132317796Y-70888137D01*
X132251606Y-70923517D01*
X132170107Y-70977973D01*
X132112092Y-71025584D01*
X132042784Y-71094892D01*
X131995173Y-71152907D01*
X131940717Y-71234406D01*
X131905337Y-71300596D01*
X131867828Y-71391152D01*
X131846043Y-71462969D01*
X131826921Y-71559102D01*
X131819565Y-71633791D01*
X131819565Y-71658350D01*
X131817157Y-71682800D01*
X131817157Y-72182800D01*
X131819565Y-72207250D01*
X131819565Y-72231809D01*
X131826921Y-72306498D01*
X131846043Y-72402631D01*
X131867828Y-72474448D01*
X131905337Y-72565004D01*
X131940717Y-72631194D01*
X131995173Y-72712693D01*
X132042784Y-72770708D01*
X132112092Y-72840016D01*
X132170107Y-72887627D01*
X132251606Y-72942083D01*
X132317796Y-72977463D01*
X132408352Y-73014972D01*
X132480169Y-73036757D01*
X132494708Y-73039649D01*
X132612816Y-73157757D01*
X132187500Y-73157757D01*
X132066477Y-73169677D01*
X131950105Y-73204978D01*
X131842856Y-73262304D01*
X131748851Y-73339451D01*
X131671704Y-73433456D01*
X131614378Y-73540705D01*
X131579077Y-73657077D01*
X131567157Y-73778100D01*
X131567157Y-74253100D01*
X131579077Y-74374123D01*
X131614378Y-74490495D01*
X131671704Y-74597744D01*
X131748851Y-74691749D01*
X131842856Y-74768896D01*
X131859140Y-74777600D01*
X131842856Y-74786304D01*
X131748851Y-74863451D01*
X131671704Y-74957456D01*
X131614378Y-75064705D01*
X131579077Y-75181077D01*
X131567157Y-75302100D01*
X131567157Y-75777100D01*
X131579077Y-75898123D01*
X131614378Y-76014495D01*
X131671704Y-76121744D01*
X131748851Y-76215749D01*
X131842856Y-76292896D01*
X131859140Y-76301600D01*
X131842856Y-76310304D01*
X131748851Y-76387451D01*
X131671704Y-76481456D01*
X131645650Y-76530200D01*
X131217194Y-76530200D01*
X131191000Y-76527620D01*
X131164806Y-76530200D01*
X131164805Y-76530200D01*
X131086435Y-76537919D01*
X130985889Y-76568419D01*
X130893225Y-76617949D01*
X130812005Y-76684605D01*
X130795304Y-76704955D01*
X129974167Y-77526092D01*
X129924469Y-77505507D01*
X129686643Y-77458200D01*
X129444157Y-77458200D01*
X129206331Y-77505507D01*
X128982303Y-77598302D01*
X128780683Y-77733020D01*
X128701400Y-77812303D01*
X128701400Y-77026097D01*
X128780683Y-77105380D01*
X128982303Y-77240098D01*
X129206331Y-77332893D01*
X129444157Y-77380200D01*
X129686643Y-77380200D01*
X129924469Y-77332893D01*
X130148497Y-77240098D01*
X130350117Y-77105380D01*
X130521580Y-76933917D01*
X130656298Y-76732297D01*
X130749093Y-76508269D01*
X130796400Y-76270443D01*
X130796400Y-76027957D01*
X130749093Y-75790131D01*
X130656298Y-75566103D01*
X130521580Y-75364483D01*
X130350117Y-75193020D01*
X130148497Y-75058302D01*
X130034232Y-75010972D01*
X130196652Y-74953357D01*
X130446755Y-74804378D01*
X130662988Y-74609469D01*
X130837041Y-74376120D01*
X130962225Y-74113299D01*
X131006876Y-73966090D01*
X130885555Y-73736200D01*
X129692400Y-73736200D01*
X129692400Y-73756200D01*
X129438400Y-73756200D01*
X129438400Y-73736200D01*
X129418400Y-73736200D01*
X129418400Y-73482200D01*
X129438400Y-73482200D01*
X129438400Y-73462200D01*
X129692400Y-73462200D01*
X129692400Y-73482200D01*
X130885555Y-73482200D01*
X131006876Y-73252310D01*
X130962225Y-73105101D01*
X130837041Y-72842280D01*
X130662988Y-72608931D01*
X130446755Y-72414022D01*
X130196652Y-72265043D01*
X130034232Y-72207428D01*
X130148497Y-72160098D01*
X130350117Y-72025380D01*
X130521580Y-71853917D01*
X130656298Y-71652297D01*
X130749093Y-71428269D01*
X130796400Y-71190443D01*
X130796400Y-70947957D01*
X130749093Y-70710131D01*
X130656298Y-70486103D01*
X130521580Y-70284483D01*
X130350117Y-70113020D01*
X130148497Y-69978302D01*
X129924469Y-69885507D01*
X129686643Y-69838200D01*
X129444157Y-69838200D01*
X129206331Y-69885507D01*
X128982303Y-69978302D01*
X128780683Y-70113020D01*
X128701400Y-70192303D01*
X128701400Y-69406097D01*
X128780683Y-69485380D01*
X128982303Y-69620098D01*
X129206331Y-69712893D01*
X129444157Y-69760200D01*
X129686643Y-69760200D01*
X129924469Y-69712893D01*
X130148497Y-69620098D01*
X130350117Y-69485380D01*
X130521580Y-69313917D01*
X130656298Y-69112297D01*
X130749093Y-68888269D01*
X130796400Y-68650443D01*
X130796400Y-68407957D01*
X130749093Y-68170131D01*
X130656298Y-67946103D01*
X130521580Y-67744483D01*
X130350117Y-67573020D01*
X130148497Y-67438302D01*
X129924469Y-67345507D01*
X129686643Y-67298200D01*
X129444157Y-67298200D01*
X129206331Y-67345507D01*
X128982303Y-67438302D01*
X128780683Y-67573020D01*
X128701400Y-67652303D01*
X128701400Y-67220664D01*
X128715400Y-67222043D01*
X130415400Y-67222043D01*
X130490089Y-67214687D01*
X130561908Y-67192901D01*
X130628096Y-67157522D01*
X130686111Y-67109911D01*
X130733722Y-67051896D01*
X130769101Y-66985708D01*
X130790887Y-66913889D01*
X130798243Y-66839200D01*
X130798243Y-65139200D01*
X130790887Y-65064511D01*
X130769101Y-64992692D01*
X130733722Y-64926504D01*
X130686111Y-64868489D01*
X130638941Y-64829778D01*
X130813328Y-64846768D01*
X131427831Y-64785590D01*
X132018592Y-64605703D01*
X132258562Y-64477436D01*
X135495500Y-64477436D01*
X135495500Y-64808564D01*
X135560100Y-65133330D01*
X135686817Y-65439252D01*
X135870782Y-65714575D01*
X136033501Y-65877294D01*
X136033501Y-66983352D01*
X136027971Y-67039500D01*
X136050039Y-67263567D01*
X136074896Y-67345507D01*
X136115398Y-67479023D01*
X136221533Y-67677589D01*
X136364368Y-67851633D01*
X136407978Y-67887423D01*
X137869075Y-69348521D01*
X137904867Y-69392133D01*
X138078911Y-69534968D01*
X138277477Y-69641103D01*
X138427574Y-69686635D01*
X138492932Y-69706461D01*
X138513517Y-69708488D01*
X138660854Y-69723000D01*
X138660861Y-69723000D01*
X138717000Y-69728529D01*
X138773139Y-69723000D01*
X141766555Y-69723000D01*
X143132500Y-71088946D01*
X143132501Y-72979546D01*
X143149040Y-73147467D01*
X143155157Y-73167632D01*
X143155157Y-74323400D01*
X143167317Y-74446862D01*
X143203329Y-74565579D01*
X143261810Y-74674989D01*
X143340512Y-74770888D01*
X143436411Y-74849590D01*
X143545821Y-74908071D01*
X143664538Y-74944083D01*
X143788000Y-74956243D01*
X144763000Y-74956243D01*
X144886462Y-74944083D01*
X145005179Y-74908071D01*
X145114589Y-74849590D01*
X145210488Y-74770888D01*
X145289190Y-74674989D01*
X145347671Y-74565579D01*
X145383683Y-74446862D01*
X145395843Y-74323400D01*
X145395843Y-73167635D01*
X145401961Y-73147467D01*
X145418500Y-72979546D01*
X145418500Y-70671639D01*
X145424029Y-70615500D01*
X145418500Y-70559361D01*
X145418500Y-70559354D01*
X145401961Y-70391433D01*
X145369518Y-70284483D01*
X145336603Y-70175976D01*
X145299633Y-70106811D01*
X145230468Y-69977411D01*
X145087633Y-69803367D01*
X145044024Y-69767578D01*
X143087927Y-67811482D01*
X143052133Y-67767867D01*
X142878089Y-67625032D01*
X142679523Y-67518897D01*
X142464067Y-67453539D01*
X142296146Y-67437000D01*
X142296139Y-67437000D01*
X142240000Y-67431471D01*
X142183861Y-67437000D01*
X139190446Y-67437000D01*
X138319500Y-66566055D01*
X138319500Y-65943000D01*
X140238428Y-65943000D01*
X140250688Y-66067482D01*
X140286998Y-66187180D01*
X140345963Y-66297494D01*
X140425315Y-66394185D01*
X140522006Y-66473537D01*
X140632320Y-66532502D01*
X140752018Y-66568812D01*
X140876500Y-66581072D01*
X141890750Y-66578000D01*
X142049500Y-66419250D01*
X142049500Y-64770000D01*
X142303500Y-64770000D01*
X142303500Y-66419250D01*
X142462250Y-66578000D01*
X143476500Y-66581072D01*
X143600982Y-66568812D01*
X143720680Y-66532502D01*
X143830994Y-66473537D01*
X143927685Y-66394185D01*
X144007037Y-66297494D01*
X144066002Y-66187180D01*
X144102312Y-66067482D01*
X144114572Y-65943000D01*
X144111500Y-64928750D01*
X143952750Y-64770000D01*
X142303500Y-64770000D01*
X142049500Y-64770000D01*
X140400250Y-64770000D01*
X140241500Y-64928750D01*
X140238428Y-65943000D01*
X138319500Y-65943000D01*
X138319500Y-65877293D01*
X138482218Y-65714575D01*
X138666183Y-65439252D01*
X138792900Y-65133330D01*
X138857500Y-64808564D01*
X138857500Y-64477436D01*
X138792900Y-64152670D01*
X138666183Y-63846748D01*
X138482218Y-63571425D01*
X138253793Y-63343000D01*
X140238428Y-63343000D01*
X140241500Y-64357250D01*
X140400250Y-64516000D01*
X142049500Y-64516000D01*
X142049500Y-62866750D01*
X142303500Y-62866750D01*
X142303500Y-64516000D01*
X143952750Y-64516000D01*
X144111500Y-64357250D01*
X144114572Y-63343000D01*
X144102312Y-63218518D01*
X144066002Y-63098820D01*
X144007037Y-62988506D01*
X143927685Y-62891815D01*
X143830994Y-62812463D01*
X143720680Y-62753498D01*
X143600982Y-62717188D01*
X143476500Y-62704928D01*
X142462250Y-62708000D01*
X142303500Y-62866750D01*
X142049500Y-62866750D01*
X141890750Y-62708000D01*
X140876500Y-62704928D01*
X140752018Y-62717188D01*
X140632320Y-62753498D01*
X140522006Y-62812463D01*
X140425315Y-62891815D01*
X140345963Y-62988506D01*
X140286998Y-63098820D01*
X140250688Y-63218518D01*
X140238428Y-63343000D01*
X138253793Y-63343000D01*
X138248075Y-63337282D01*
X137972752Y-63153317D01*
X137666830Y-63026600D01*
X137342064Y-62962000D01*
X137010936Y-62962000D01*
X136686170Y-63026600D01*
X136380248Y-63153317D01*
X136104925Y-63337282D01*
X135870782Y-63571425D01*
X135686817Y-63846748D01*
X135560100Y-64152670D01*
X135495500Y-64477436D01*
X132258562Y-64477436D01*
X132557373Y-64317718D01*
X132833543Y-63899748D01*
X130810000Y-61876205D01*
X130795858Y-61890348D01*
X130616253Y-61710743D01*
X130630395Y-61696600D01*
X129223785Y-60289990D01*
X129322557Y-60168883D01*
X129398808Y-60105803D01*
X130810000Y-61516995D01*
X130824143Y-61502853D01*
X131003748Y-61682458D01*
X130989605Y-61696600D01*
X133013148Y-63720143D01*
X133431118Y-63443973D01*
X133721649Y-62899043D01*
X133900287Y-62307904D01*
X133960168Y-61693272D01*
X133898990Y-61078769D01*
X133719103Y-60488008D01*
X133431118Y-59949227D01*
X133013150Y-59673058D01*
X133126875Y-59559333D01*
X133104742Y-59537200D01*
X146301792Y-59537200D01*
X146412250Y-59647658D01*
G37*
X146412250Y-59647658D02*
X145994282Y-59923827D01*
X145703751Y-60468757D01*
X145525113Y-61059896D01*
X145465232Y-61674528D01*
X145526410Y-62289031D01*
X145706297Y-62879792D01*
X145994282Y-63418573D01*
X146412252Y-63694743D01*
X148435795Y-61671200D01*
X148421653Y-61657058D01*
X148601258Y-61477453D01*
X148615400Y-61491595D01*
X150024590Y-60082405D01*
X150117717Y-60158357D01*
X150203796Y-60262409D01*
X148795005Y-61671200D01*
X148809148Y-61685343D01*
X148629543Y-61864948D01*
X148615400Y-61850805D01*
X146591857Y-63874348D01*
X146868027Y-64292318D01*
X147412957Y-64582849D01*
X148004096Y-64761487D01*
X148618728Y-64821368D01*
X149233231Y-64760190D01*
X149823992Y-64580303D01*
X150362773Y-64292318D01*
X150638942Y-63874350D01*
X150749400Y-63984808D01*
X150749400Y-74971037D01*
X150710000Y-74967157D01*
X149010000Y-74967157D01*
X148935311Y-74974513D01*
X148863492Y-74996299D01*
X148797304Y-75031678D01*
X148739289Y-75079289D01*
X148691678Y-75137304D01*
X148656299Y-75203492D01*
X148634513Y-75275311D01*
X148627157Y-75350000D01*
X148627157Y-77050000D01*
X148634513Y-77124689D01*
X148656299Y-77196508D01*
X148691678Y-77262696D01*
X148739289Y-77320711D01*
X148797304Y-77368322D01*
X148863492Y-77403701D01*
X148935311Y-77425487D01*
X149010000Y-77432843D01*
X150710000Y-77432843D01*
X150749400Y-77428963D01*
X150749400Y-77888503D01*
X150644717Y-77783820D01*
X150443097Y-77649102D01*
X150219069Y-77556307D01*
X149981243Y-77509000D01*
X149738757Y-77509000D01*
X149500931Y-77556307D01*
X149276903Y-77649102D01*
X149075283Y-77783820D01*
X148903820Y-77955283D01*
X148769102Y-78156903D01*
X148676307Y-78380931D01*
X148629000Y-78618757D01*
X148629000Y-78861243D01*
X148676307Y-79099069D01*
X148769102Y-79323097D01*
X148903820Y-79524717D01*
X149075283Y-79696180D01*
X149276903Y-79830898D01*
X149500931Y-79923693D01*
X149738757Y-79971000D01*
X149981243Y-79971000D01*
X150219069Y-79923693D01*
X150443097Y-79830898D01*
X150644717Y-79696180D01*
X150749400Y-79591497D01*
X150749400Y-80428503D01*
X150644717Y-80323820D01*
X150443097Y-80189102D01*
X150219069Y-80096307D01*
X149981243Y-80049000D01*
X149738757Y-80049000D01*
X149500931Y-80096307D01*
X149276903Y-80189102D01*
X149075283Y-80323820D01*
X148903820Y-80495283D01*
X148769102Y-80696903D01*
X148676307Y-80920931D01*
X148629000Y-81158757D01*
X148629000Y-81401243D01*
X148676307Y-81639069D01*
X148769102Y-81863097D01*
X148903820Y-82064717D01*
X149008103Y-82169000D01*
X148971000Y-82169000D01*
X148911400Y-82173691D01*
X148793665Y-82192338D01*
X148749844Y-82201952D01*
X148680293Y-82229175D01*
X148574082Y-82283293D01*
X148535382Y-82305975D01*
X148477646Y-82353357D01*
X148393357Y-82437646D01*
X148363561Y-82471177D01*
X148323293Y-82534082D01*
X148269175Y-82640293D01*
X148251196Y-82681396D01*
X148232338Y-82753665D01*
X148204901Y-82926901D01*
X148179018Y-82931000D01*
X142240000Y-82931000D01*
X142202656Y-82932835D01*
X142004444Y-82952357D01*
X141931190Y-82966928D01*
X141740596Y-83024744D01*
X141671591Y-83053326D01*
X141495938Y-83147215D01*
X141433837Y-83188710D01*
X141279876Y-83315063D01*
X141249137Y-83345802D01*
X141207675Y-83209120D01*
X141179092Y-83140115D01*
X141086682Y-82967228D01*
X141045187Y-82905126D01*
X140939701Y-82776591D01*
X141010894Y-82738537D01*
X141107585Y-82659185D01*
X141186937Y-82562494D01*
X141213883Y-82512083D01*
X141271706Y-82559537D01*
X141382020Y-82618502D01*
X141501718Y-82654812D01*
X141626200Y-82667072D01*
X142665450Y-82664000D01*
X142824200Y-82505250D01*
X142824200Y-81443500D01*
X143078200Y-81443500D01*
X143078200Y-82505250D01*
X143236950Y-82664000D01*
X144276200Y-82667072D01*
X144400682Y-82654812D01*
X144520380Y-82618502D01*
X144602200Y-82574768D01*
X144684020Y-82618502D01*
X144803718Y-82654812D01*
X144928200Y-82667072D01*
X145967450Y-82664000D01*
X146126200Y-82505250D01*
X146126200Y-81443500D01*
X146380200Y-81443500D01*
X146380200Y-82505250D01*
X146538950Y-82664000D01*
X147578200Y-82667072D01*
X147702682Y-82654812D01*
X147822380Y-82618502D01*
X147932694Y-82559537D01*
X148029385Y-82480185D01*
X148108737Y-82383494D01*
X148167702Y-82273180D01*
X148204012Y-82153482D01*
X148216272Y-82029000D01*
X148213200Y-81602250D01*
X148054450Y-81443500D01*
X146380200Y-81443500D01*
X146126200Y-81443500D01*
X143078200Y-81443500D01*
X142824200Y-81443500D01*
X142804200Y-81443500D01*
X142804200Y-81189500D01*
X142824200Y-81189500D01*
X142824200Y-80127750D01*
X143078200Y-80127750D01*
X143078200Y-81189500D01*
X146126200Y-81189500D01*
X146126200Y-80127750D01*
X146380200Y-80127750D01*
X146380200Y-81189500D01*
X148054450Y-81189500D01*
X148213200Y-81030750D01*
X148216272Y-80604000D01*
X148204012Y-80479518D01*
X148167702Y-80359820D01*
X148108737Y-80249506D01*
X148029385Y-80152815D01*
X147932694Y-80073463D01*
X147822380Y-80014498D01*
X147702682Y-79978188D01*
X147578200Y-79965928D01*
X146538950Y-79969000D01*
X146380200Y-80127750D01*
X146126200Y-80127750D01*
X145967450Y-79969000D01*
X144928200Y-79965928D01*
X144803718Y-79978188D01*
X144684020Y-80014498D01*
X144602200Y-80058232D01*
X144520380Y-80014498D01*
X144400682Y-79978188D01*
X144276200Y-79965928D01*
X143236950Y-79969000D01*
X143078200Y-80127750D01*
X142824200Y-80127750D01*
X142665450Y-79969000D01*
X141626200Y-79965928D01*
X141501718Y-79978188D01*
X141382020Y-80014498D01*
X141271706Y-80073463D01*
X141175015Y-80152815D01*
X141095663Y-80249506D01*
X141036698Y-80359820D01*
X141000388Y-80479518D01*
X140991749Y-80567230D01*
X140900580Y-80518498D01*
X140780882Y-80482188D01*
X140656400Y-80469928D01*
X140392150Y-80473000D01*
X140233400Y-80631750D01*
X140233400Y-81531000D01*
X140253400Y-81531000D01*
X140253400Y-81785000D01*
X140233400Y-81785000D01*
X140233400Y-81805000D01*
X139979400Y-81805000D01*
X139979400Y-81785000D01*
X139080150Y-81785000D01*
X138921400Y-81943750D01*
X138918328Y-82208000D01*
X138929497Y-82321400D01*
X138414000Y-82321400D01*
X138395643Y-82322302D01*
X138010696Y-81937355D01*
X137993995Y-81917005D01*
X137912775Y-81850349D01*
X137820111Y-81800819D01*
X137719565Y-81770319D01*
X137641195Y-81762600D01*
X137641187Y-81762600D01*
X137615000Y-81760021D01*
X137588813Y-81762600D01*
X134940342Y-81762600D01*
X135594942Y-81108000D01*
X138918328Y-81108000D01*
X138921400Y-81372250D01*
X139080150Y-81531000D01*
X139979400Y-81531000D01*
X139979400Y-80631750D01*
X139820650Y-80473000D01*
X139556400Y-80469928D01*
X139431918Y-80482188D01*
X139312220Y-80518498D01*
X139201906Y-80577463D01*
X139105215Y-80656815D01*
X139025863Y-80753506D01*
X138966898Y-80863820D01*
X138930588Y-80983518D01*
X138918328Y-81108000D01*
X135594942Y-81108000D01*
X135867651Y-80835291D01*
X135887995Y-80818595D01*
X135954651Y-80737375D01*
X135998079Y-80656127D01*
X136001592Y-80660408D01*
X136059328Y-80707790D01*
X136125198Y-80742998D01*
X136196671Y-80764679D01*
X136271000Y-80772000D01*
X137287000Y-80772000D01*
X137361329Y-80764679D01*
X137432802Y-80742998D01*
X137498672Y-80707790D01*
X137556408Y-80660408D01*
X137603790Y-80602672D01*
X137638998Y-80536802D01*
X137649339Y-80502712D01*
X137674311Y-80510287D01*
X137749000Y-80517643D01*
X138349000Y-80517643D01*
X138423689Y-80510287D01*
X138495508Y-80488501D01*
X138561696Y-80453122D01*
X138619711Y-80405511D01*
X138667322Y-80347496D01*
X138702701Y-80281308D01*
X138724487Y-80209489D01*
X138731843Y-80134800D01*
X138731843Y-79811165D01*
X138849099Y-79889512D01*
X138980840Y-79944081D01*
X139120696Y-79971900D01*
X139263292Y-79971900D01*
X139403148Y-79944081D01*
X139534889Y-79889512D01*
X139653454Y-79810290D01*
X139754284Y-79709460D01*
X139833506Y-79590895D01*
X139888075Y-79459154D01*
X139915894Y-79319298D01*
X139915894Y-79176702D01*
X139888075Y-79036846D01*
X139833506Y-78905105D01*
X139754284Y-78786540D01*
X139653454Y-78685710D01*
X139534889Y-78606488D01*
X139403148Y-78551919D01*
X139263292Y-78524100D01*
X139120696Y-78524100D01*
X138980840Y-78551919D01*
X138861382Y-78601400D01*
X138731843Y-78601400D01*
X138731843Y-78134800D01*
X138724487Y-78060111D01*
X138702701Y-77988292D01*
X138695903Y-77975574D01*
X138718498Y-77933302D01*
X138740179Y-77861829D01*
X138747500Y-77787500D01*
X138747500Y-77532200D01*
X139074928Y-77532200D01*
X139087188Y-77656682D01*
X139123498Y-77776380D01*
X139182463Y-77886694D01*
X139261815Y-77983385D01*
X139358506Y-78062737D01*
X139468820Y-78121702D01*
X139588518Y-78158012D01*
X139713000Y-78170272D01*
X140139750Y-78167200D01*
X140298500Y-78008450D01*
X140298500Y-76784200D01*
X140552500Y-76784200D01*
X140552500Y-78008450D01*
X140711250Y-78167200D01*
X141138000Y-78170272D01*
X141262482Y-78158012D01*
X141382180Y-78121702D01*
X141492494Y-78062737D01*
X141589185Y-77983385D01*
X141668537Y-77886694D01*
X141727502Y-77776380D01*
X141763812Y-77656682D01*
X141776072Y-77532200D01*
X141773000Y-76942950D01*
X141614250Y-76784200D01*
X140552500Y-76784200D01*
X140298500Y-76784200D01*
X139236750Y-76784200D01*
X139078000Y-76942950D01*
X139074928Y-77532200D01*
X138747500Y-77532200D01*
X138747500Y-74902046D01*
X138850910Y-75005456D01*
X138917613Y-75058650D01*
X139086172Y-75164563D01*
X139163040Y-75201580D01*
X139342861Y-75264502D01*
X139261815Y-75331015D01*
X139182463Y-75427706D01*
X139123498Y-75538020D01*
X139087188Y-75657718D01*
X139074928Y-75782200D01*
X139078000Y-76371450D01*
X139236750Y-76530200D01*
X140298500Y-76530200D01*
X140298500Y-76510200D01*
X140552500Y-76510200D01*
X140552500Y-76530200D01*
X141614250Y-76530200D01*
X141773000Y-76371450D01*
X141776072Y-75782200D01*
X141763812Y-75657718D01*
X141727502Y-75538020D01*
X141668537Y-75427706D01*
X141589185Y-75331015D01*
X141492494Y-75251663D01*
X141382180Y-75192698D01*
X141262482Y-75156388D01*
X141138000Y-75144128D01*
X140711250Y-75147200D01*
X140552502Y-75305948D01*
X140552502Y-75202560D01*
X140583085Y-75189892D01*
X140755972Y-75097482D01*
X140818074Y-75055987D01*
X140969611Y-74931624D01*
X141022424Y-74878811D01*
X141146787Y-74727274D01*
X141188282Y-74665172D01*
X141280692Y-74492285D01*
X141309275Y-74423280D01*
X141366180Y-74235687D01*
X141380750Y-74162435D01*
X141399965Y-73967345D01*
X141401800Y-73930000D01*
X141401800Y-71866000D01*
X141399965Y-71828655D01*
X141380750Y-71633565D01*
X141366180Y-71560313D01*
X141309275Y-71372720D01*
X141280692Y-71303715D01*
X141188282Y-71130828D01*
X141146787Y-71068726D01*
X141022424Y-70917189D01*
X140969611Y-70864376D01*
X140818074Y-70740013D01*
X140755972Y-70698518D01*
X140583085Y-70606108D01*
X140514080Y-70577525D01*
X140326487Y-70520620D01*
X140253235Y-70506050D01*
X140058145Y-70486835D01*
X140020800Y-70485000D01*
X136949168Y-70485000D01*
X136911627Y-70486854D01*
X136715515Y-70506272D01*
X136641886Y-70520997D01*
X136453391Y-70578499D01*
X136384085Y-70607377D01*
X136210526Y-70700728D01*
X136148226Y-70742637D01*
X135996345Y-70868212D01*
X135943474Y-70921525D01*
X135819169Y-71074447D01*
X135777780Y-71137094D01*
X135685879Y-71311424D01*
X135657581Y-71380970D01*
X135601652Y-71569938D01*
X135587540Y-71643686D01*
X135569757Y-71839953D01*
X135568216Y-71877507D01*
X135570599Y-72163507D01*
X135572724Y-72200639D01*
X135593353Y-72394542D01*
X135608378Y-72467300D01*
X135666245Y-72653514D01*
X135695105Y-72721974D01*
X135788010Y-72893417D01*
X135829606Y-72954974D01*
X135954016Y-73105128D01*
X136006768Y-73157443D01*
X136114417Y-73245133D01*
X135981400Y-73378150D01*
X135981400Y-74177400D01*
X136001400Y-74177400D01*
X136001400Y-74431400D01*
X135981400Y-74431400D01*
X135981400Y-75230650D01*
X136045291Y-75294541D01*
X136024321Y-75363671D01*
X136017000Y-75438000D01*
X136017000Y-76298947D01*
X136001592Y-76311592D01*
X135954210Y-76369328D01*
X135919002Y-76435198D01*
X135897321Y-76506671D01*
X135890000Y-76581000D01*
X135890000Y-77761227D01*
X135883689Y-77759313D01*
X135809000Y-77751957D01*
X135348852Y-77751957D01*
X135375812Y-77663082D01*
X135388072Y-77538600D01*
X135385000Y-77349350D01*
X135226250Y-77190600D01*
X134352000Y-77190600D01*
X134352000Y-77210600D01*
X134098000Y-77210600D01*
X134098000Y-77190600D01*
X134078000Y-77190600D01*
X134078000Y-76936600D01*
X134098000Y-76936600D01*
X134098000Y-75666600D01*
X134352000Y-75666600D01*
X134352000Y-76936600D01*
X135226250Y-76936600D01*
X135385000Y-76777850D01*
X135388072Y-76588600D01*
X135375812Y-76464118D01*
X135339502Y-76344420D01*
X135316614Y-76301600D01*
X135339502Y-76258780D01*
X135375812Y-76139082D01*
X135388072Y-76014600D01*
X135385000Y-75825350D01*
X135226250Y-75666600D01*
X134352000Y-75666600D01*
X134098000Y-75666600D01*
X134078000Y-75666600D01*
X134078000Y-75412600D01*
X134098000Y-75412600D01*
X134098000Y-75392600D01*
X134352000Y-75392600D01*
X134352000Y-75412600D01*
X135226250Y-75412600D01*
X135275228Y-75363622D01*
X135329918Y-75380212D01*
X135454400Y-75392472D01*
X135568650Y-75389400D01*
X135727400Y-75230650D01*
X135727400Y-74431400D01*
X135707400Y-74431400D01*
X135707400Y-74177400D01*
X135727400Y-74177400D01*
X135727400Y-73378150D01*
X135568650Y-73219400D01*
X135454400Y-73216328D01*
X135329918Y-73228588D01*
X135210220Y-73264898D01*
X135099906Y-73323863D01*
X135003372Y-73403086D01*
X134951149Y-73339451D01*
X134857144Y-73262304D01*
X134749895Y-73204978D01*
X134633523Y-73169677D01*
X134512500Y-73157757D01*
X134121498Y-73157757D01*
X134026976Y-73063235D01*
X134049009Y-73063235D01*
X134123698Y-73055879D01*
X134219831Y-73036757D01*
X134291648Y-73014972D01*
X134382204Y-72977463D01*
X134448394Y-72942083D01*
X134529893Y-72887627D01*
X134587908Y-72840016D01*
X134657216Y-72770708D01*
X134704827Y-72712693D01*
X134759283Y-72631194D01*
X134794663Y-72565004D01*
X134832172Y-72474448D01*
X134853957Y-72402631D01*
X134873079Y-72306498D01*
X134880435Y-72231809D01*
X134880435Y-72207250D01*
X134882843Y-72182800D01*
X134882843Y-71682800D01*
X134880435Y-71658350D01*
X134880435Y-71633791D01*
X134873079Y-71559102D01*
X134853957Y-71462969D01*
X134832172Y-71391152D01*
X134794663Y-71300596D01*
X134759283Y-71234406D01*
X134704827Y-71152907D01*
X134657216Y-71094892D01*
X134587908Y-71025584D01*
X134529893Y-70977973D01*
X134448394Y-70923517D01*
X134382204Y-70888137D01*
X134291648Y-70850628D01*
X134219831Y-70828843D01*
X134123698Y-70809721D01*
X134049009Y-70802365D01*
X134024450Y-70802365D01*
X134000000Y-70799957D01*
X133500000Y-70799957D01*
X133425311Y-70807313D01*
X133353492Y-70829099D01*
X133350000Y-70830966D01*
X133346508Y-70829099D01*
X133274689Y-70807313D01*
X133200000Y-70799957D01*
X132700000Y-70799957D01*
X132675550Y-70802365D01*
X132650991Y-70802365D01*
X132576302Y-70809721D01*
X132480169Y-70828843D01*
X132408352Y-70850628D01*
X132317796Y-70888137D01*
X132251606Y-70923517D01*
X132170107Y-70977973D01*
X132112092Y-71025584D01*
X132042784Y-71094892D01*
X131995173Y-71152907D01*
X131940717Y-71234406D01*
X131905337Y-71300596D01*
X131867828Y-71391152D01*
X131846043Y-71462969D01*
X131826921Y-71559102D01*
X131819565Y-71633791D01*
X131819565Y-71658350D01*
X131817157Y-71682800D01*
X131817157Y-72182800D01*
X131819565Y-72207250D01*
X131819565Y-72231809D01*
X131826921Y-72306498D01*
X131846043Y-72402631D01*
X131867828Y-72474448D01*
X131905337Y-72565004D01*
X131940717Y-72631194D01*
X131995173Y-72712693D01*
X132042784Y-72770708D01*
X132112092Y-72840016D01*
X132170107Y-72887627D01*
X132251606Y-72942083D01*
X132317796Y-72977463D01*
X132408352Y-73014972D01*
X132480169Y-73036757D01*
X132494708Y-73039649D01*
X132612816Y-73157757D01*
X132187500Y-73157757D01*
X132066477Y-73169677D01*
X131950105Y-73204978D01*
X131842856Y-73262304D01*
X131748851Y-73339451D01*
X131671704Y-73433456D01*
X131614378Y-73540705D01*
X131579077Y-73657077D01*
X131567157Y-73778100D01*
X131567157Y-74253100D01*
X131579077Y-74374123D01*
X131614378Y-74490495D01*
X131671704Y-74597744D01*
X131748851Y-74691749D01*
X131842856Y-74768896D01*
X131859140Y-74777600D01*
X131842856Y-74786304D01*
X131748851Y-74863451D01*
X131671704Y-74957456D01*
X131614378Y-75064705D01*
X131579077Y-75181077D01*
X131567157Y-75302100D01*
X131567157Y-75777100D01*
X131579077Y-75898123D01*
X131614378Y-76014495D01*
X131671704Y-76121744D01*
X131748851Y-76215749D01*
X131842856Y-76292896D01*
X131859140Y-76301600D01*
X131842856Y-76310304D01*
X131748851Y-76387451D01*
X131671704Y-76481456D01*
X131645650Y-76530200D01*
X131217194Y-76530200D01*
X131191000Y-76527620D01*
X131164806Y-76530200D01*
X131164805Y-76530200D01*
X131086435Y-76537919D01*
X130985889Y-76568419D01*
X130893225Y-76617949D01*
X130812005Y-76684605D01*
X130795304Y-76704955D01*
X129974167Y-77526092D01*
X129924469Y-77505507D01*
X129686643Y-77458200D01*
X129444157Y-77458200D01*
X129206331Y-77505507D01*
X128982303Y-77598302D01*
X128780683Y-77733020D01*
X128701400Y-77812303D01*
X128701400Y-77026097D01*
X128780683Y-77105380D01*
X128982303Y-77240098D01*
X129206331Y-77332893D01*
X129444157Y-77380200D01*
X129686643Y-77380200D01*
X129924469Y-77332893D01*
X130148497Y-77240098D01*
X130350117Y-77105380D01*
X130521580Y-76933917D01*
X130656298Y-76732297D01*
X130749093Y-76508269D01*
X130796400Y-76270443D01*
X130796400Y-76027957D01*
X130749093Y-75790131D01*
X130656298Y-75566103D01*
X130521580Y-75364483D01*
X130350117Y-75193020D01*
X130148497Y-75058302D01*
X130034232Y-75010972D01*
X130196652Y-74953357D01*
X130446755Y-74804378D01*
X130662988Y-74609469D01*
X130837041Y-74376120D01*
X130962225Y-74113299D01*
X131006876Y-73966090D01*
X130885555Y-73736200D01*
X129692400Y-73736200D01*
X129692400Y-73756200D01*
X129438400Y-73756200D01*
X129438400Y-73736200D01*
X129418400Y-73736200D01*
X129418400Y-73482200D01*
X129438400Y-73482200D01*
X129438400Y-73462200D01*
X129692400Y-73462200D01*
X129692400Y-73482200D01*
X130885555Y-73482200D01*
X131006876Y-73252310D01*
X130962225Y-73105101D01*
X130837041Y-72842280D01*
X130662988Y-72608931D01*
X130446755Y-72414022D01*
X130196652Y-72265043D01*
X130034232Y-72207428D01*
X130148497Y-72160098D01*
X130350117Y-72025380D01*
X130521580Y-71853917D01*
X130656298Y-71652297D01*
X130749093Y-71428269D01*
X130796400Y-71190443D01*
X130796400Y-70947957D01*
X130749093Y-70710131D01*
X130656298Y-70486103D01*
X130521580Y-70284483D01*
X130350117Y-70113020D01*
X130148497Y-69978302D01*
X129924469Y-69885507D01*
X129686643Y-69838200D01*
X129444157Y-69838200D01*
X129206331Y-69885507D01*
X128982303Y-69978302D01*
X128780683Y-70113020D01*
X128701400Y-70192303D01*
X128701400Y-69406097D01*
X128780683Y-69485380D01*
X128982303Y-69620098D01*
X129206331Y-69712893D01*
X129444157Y-69760200D01*
X129686643Y-69760200D01*
X129924469Y-69712893D01*
X130148497Y-69620098D01*
X130350117Y-69485380D01*
X130521580Y-69313917D01*
X130656298Y-69112297D01*
X130749093Y-68888269D01*
X130796400Y-68650443D01*
X130796400Y-68407957D01*
X130749093Y-68170131D01*
X130656298Y-67946103D01*
X130521580Y-67744483D01*
X130350117Y-67573020D01*
X130148497Y-67438302D01*
X129924469Y-67345507D01*
X129686643Y-67298200D01*
X129444157Y-67298200D01*
X129206331Y-67345507D01*
X128982303Y-67438302D01*
X128780683Y-67573020D01*
X128701400Y-67652303D01*
X128701400Y-67220664D01*
X128715400Y-67222043D01*
X130415400Y-67222043D01*
X130490089Y-67214687D01*
X130561908Y-67192901D01*
X130628096Y-67157522D01*
X130686111Y-67109911D01*
X130733722Y-67051896D01*
X130769101Y-66985708D01*
X130790887Y-66913889D01*
X130798243Y-66839200D01*
X130798243Y-65139200D01*
X130790887Y-65064511D01*
X130769101Y-64992692D01*
X130733722Y-64926504D01*
X130686111Y-64868489D01*
X130638941Y-64829778D01*
X130813328Y-64846768D01*
X131427831Y-64785590D01*
X132018592Y-64605703D01*
X132258562Y-64477436D01*
X135495500Y-64477436D01*
X135495500Y-64808564D01*
X135560100Y-65133330D01*
X135686817Y-65439252D01*
X135870782Y-65714575D01*
X136033501Y-65877294D01*
X136033501Y-66983352D01*
X136027971Y-67039500D01*
X136050039Y-67263567D01*
X136074896Y-67345507D01*
X136115398Y-67479023D01*
X136221533Y-67677589D01*
X136364368Y-67851633D01*
X136407978Y-67887423D01*
X137869075Y-69348521D01*
X137904867Y-69392133D01*
X138078911Y-69534968D01*
X138277477Y-69641103D01*
X138427574Y-69686635D01*
X138492932Y-69706461D01*
X138513517Y-69708488D01*
X138660854Y-69723000D01*
X138660861Y-69723000D01*
X138717000Y-69728529D01*
X138773139Y-69723000D01*
X141766555Y-69723000D01*
X143132500Y-71088946D01*
X143132501Y-72979546D01*
X143149040Y-73147467D01*
X143155157Y-73167632D01*
X143155157Y-74323400D01*
X143167317Y-74446862D01*
X143203329Y-74565579D01*
X143261810Y-74674989D01*
X143340512Y-74770888D01*
X143436411Y-74849590D01*
X143545821Y-74908071D01*
X143664538Y-74944083D01*
X143788000Y-74956243D01*
X144763000Y-74956243D01*
X144886462Y-74944083D01*
X145005179Y-74908071D01*
X145114589Y-74849590D01*
X145210488Y-74770888D01*
X145289190Y-74674989D01*
X145347671Y-74565579D01*
X145383683Y-74446862D01*
X145395843Y-74323400D01*
X145395843Y-73167635D01*
X145401961Y-73147467D01*
X145418500Y-72979546D01*
X145418500Y-70671639D01*
X145424029Y-70615500D01*
X145418500Y-70559361D01*
X145418500Y-70559354D01*
X145401961Y-70391433D01*
X145369518Y-70284483D01*
X145336603Y-70175976D01*
X145299633Y-70106811D01*
X145230468Y-69977411D01*
X145087633Y-69803367D01*
X145044024Y-69767578D01*
X143087927Y-67811482D01*
X143052133Y-67767867D01*
X142878089Y-67625032D01*
X142679523Y-67518897D01*
X142464067Y-67453539D01*
X142296146Y-67437000D01*
X142296139Y-67437000D01*
X142240000Y-67431471D01*
X142183861Y-67437000D01*
X139190446Y-67437000D01*
X138319500Y-66566055D01*
X138319500Y-65943000D01*
X140238428Y-65943000D01*
X140250688Y-66067482D01*
X140286998Y-66187180D01*
X140345963Y-66297494D01*
X140425315Y-66394185D01*
X140522006Y-66473537D01*
X140632320Y-66532502D01*
X140752018Y-66568812D01*
X140876500Y-66581072D01*
X141890750Y-66578000D01*
X142049500Y-66419250D01*
X142049500Y-64770000D01*
X142303500Y-64770000D01*
X142303500Y-66419250D01*
X142462250Y-66578000D01*
X143476500Y-66581072D01*
X143600982Y-66568812D01*
X143720680Y-66532502D01*
X143830994Y-66473537D01*
X143927685Y-66394185D01*
X144007037Y-66297494D01*
X144066002Y-66187180D01*
X144102312Y-66067482D01*
X144114572Y-65943000D01*
X144111500Y-64928750D01*
X143952750Y-64770000D01*
X142303500Y-64770000D01*
X142049500Y-64770000D01*
X140400250Y-64770000D01*
X140241500Y-64928750D01*
X140238428Y-65943000D01*
X138319500Y-65943000D01*
X138319500Y-65877293D01*
X138482218Y-65714575D01*
X138666183Y-65439252D01*
X138792900Y-65133330D01*
X138857500Y-64808564D01*
X138857500Y-64477436D01*
X138792900Y-64152670D01*
X138666183Y-63846748D01*
X138482218Y-63571425D01*
X138253793Y-63343000D01*
X140238428Y-63343000D01*
X140241500Y-64357250D01*
X140400250Y-64516000D01*
X142049500Y-64516000D01*
X142049500Y-62866750D01*
X142303500Y-62866750D01*
X142303500Y-64516000D01*
X143952750Y-64516000D01*
X144111500Y-64357250D01*
X144114572Y-63343000D01*
X144102312Y-63218518D01*
X144066002Y-63098820D01*
X144007037Y-62988506D01*
X143927685Y-62891815D01*
X143830994Y-62812463D01*
X143720680Y-62753498D01*
X143600982Y-62717188D01*
X143476500Y-62704928D01*
X142462250Y-62708000D01*
X142303500Y-62866750D01*
X142049500Y-62866750D01*
X141890750Y-62708000D01*
X140876500Y-62704928D01*
X140752018Y-62717188D01*
X140632320Y-62753498D01*
X140522006Y-62812463D01*
X140425315Y-62891815D01*
X140345963Y-62988506D01*
X140286998Y-63098820D01*
X140250688Y-63218518D01*
X140238428Y-63343000D01*
X138253793Y-63343000D01*
X138248075Y-63337282D01*
X137972752Y-63153317D01*
X137666830Y-63026600D01*
X137342064Y-62962000D01*
X137010936Y-62962000D01*
X136686170Y-63026600D01*
X136380248Y-63153317D01*
X136104925Y-63337282D01*
X135870782Y-63571425D01*
X135686817Y-63846748D01*
X135560100Y-64152670D01*
X135495500Y-64477436D01*
X132258562Y-64477436D01*
X132557373Y-64317718D01*
X132833543Y-63899748D01*
X130810000Y-61876205D01*
X130795858Y-61890348D01*
X130616253Y-61710743D01*
X130630395Y-61696600D01*
X129223785Y-60289990D01*
X129322557Y-60168883D01*
X129398808Y-60105803D01*
X130810000Y-61516995D01*
X130824143Y-61502853D01*
X131003748Y-61682458D01*
X130989605Y-61696600D01*
X133013148Y-63720143D01*
X133431118Y-63443973D01*
X133721649Y-62899043D01*
X133900287Y-62307904D01*
X133960168Y-61693272D01*
X133898990Y-61078769D01*
X133719103Y-60488008D01*
X133431118Y-59949227D01*
X133013150Y-59673058D01*
X133126875Y-59559333D01*
X133104742Y-59537200D01*
X146301792Y-59537200D01*
X146412250Y-59647658D01*
%TO.N,Net-(F1-Pad2)*%
G36*
X140190989Y-71010376D02*
G01*
X140354650Y-71060022D01*
X140505472Y-71140638D01*
X140637670Y-71249130D01*
X140746162Y-71381328D01*
X140826778Y-71532150D01*
X140876424Y-71695811D01*
X140893800Y-71872234D01*
X140893800Y-73923766D01*
X140876424Y-74100189D01*
X140826778Y-74263850D01*
X140746162Y-74414672D01*
X140637670Y-74546870D01*
X140505472Y-74655362D01*
X140354650Y-74735978D01*
X140190989Y-74785624D01*
X140014566Y-74803000D01*
X139681728Y-74803000D01*
X139505220Y-74783112D01*
X139344329Y-74726814D01*
X139200005Y-74636129D01*
X139079471Y-74515595D01*
X138988786Y-74371271D01*
X138932488Y-74210380D01*
X138889512Y-73828960D01*
X138883184Y-73801233D01*
X138817434Y-73613331D01*
X138805095Y-73587709D01*
X138699182Y-73419150D01*
X138681451Y-73396915D01*
X138540685Y-73256149D01*
X138518450Y-73238418D01*
X138349891Y-73132505D01*
X138324269Y-73120166D01*
X138136367Y-73054416D01*
X138108640Y-73048088D01*
X137910819Y-73025799D01*
X137896600Y-73025000D01*
X136957757Y-73025000D01*
X136782248Y-73007806D01*
X136619379Y-72958679D01*
X136469146Y-72878880D01*
X136337254Y-72771440D01*
X136228717Y-72640445D01*
X136147669Y-72490881D01*
X136097186Y-72328427D01*
X136078530Y-72153077D01*
X136076251Y-71879544D01*
X136092333Y-71702049D01*
X136141124Y-71537199D01*
X136221297Y-71385118D01*
X136329739Y-71251710D01*
X136462234Y-71142163D01*
X136613644Y-71060725D01*
X136778087Y-71010561D01*
X136955441Y-70993000D01*
X140014566Y-70993000D01*
X140190989Y-71010376D01*
G37*
X140190989Y-71010376D02*
X140354650Y-71060022D01*
X140505472Y-71140638D01*
X140637670Y-71249130D01*
X140746162Y-71381328D01*
X140826778Y-71532150D01*
X140876424Y-71695811D01*
X140893800Y-71872234D01*
X140893800Y-73923766D01*
X140876424Y-74100189D01*
X140826778Y-74263850D01*
X140746162Y-74414672D01*
X140637670Y-74546870D01*
X140505472Y-74655362D01*
X140354650Y-74735978D01*
X140190989Y-74785624D01*
X140014566Y-74803000D01*
X139681728Y-74803000D01*
X139505220Y-74783112D01*
X139344329Y-74726814D01*
X139200005Y-74636129D01*
X139079471Y-74515595D01*
X138988786Y-74371271D01*
X138932488Y-74210380D01*
X138889512Y-73828960D01*
X138883184Y-73801233D01*
X138817434Y-73613331D01*
X138805095Y-73587709D01*
X138699182Y-73419150D01*
X138681451Y-73396915D01*
X138540685Y-73256149D01*
X138518450Y-73238418D01*
X138349891Y-73132505D01*
X138324269Y-73120166D01*
X138136367Y-73054416D01*
X138108640Y-73048088D01*
X137910819Y-73025799D01*
X137896600Y-73025000D01*
X136957757Y-73025000D01*
X136782248Y-73007806D01*
X136619379Y-72958679D01*
X136469146Y-72878880D01*
X136337254Y-72771440D01*
X136228717Y-72640445D01*
X136147669Y-72490881D01*
X136097186Y-72328427D01*
X136078530Y-72153077D01*
X136076251Y-71879544D01*
X136092333Y-71702049D01*
X136141124Y-71537199D01*
X136221297Y-71385118D01*
X136329739Y-71251710D01*
X136462234Y-71142163D01*
X136613644Y-71060725D01*
X136778087Y-71010561D01*
X136955441Y-70993000D01*
X140014566Y-70993000D01*
X140190989Y-71010376D01*
%TO.N,Net-(C1-Pad2)*%
G36*
X140089389Y-82846776D02*
G01*
X140253050Y-82896422D01*
X140403872Y-82977038D01*
X140536070Y-83085530D01*
X140644562Y-83217728D01*
X140725178Y-83368550D01*
X140774824Y-83532211D01*
X140792200Y-83708634D01*
X140792200Y-89426272D01*
X140772949Y-89597129D01*
X140718531Y-89752649D01*
X140630871Y-89892159D01*
X140514359Y-90008671D01*
X140374849Y-90096331D01*
X140219329Y-90150749D01*
X140055600Y-90169197D01*
X139891871Y-90150749D01*
X139736351Y-90096331D01*
X139596841Y-90008671D01*
X139480329Y-89892159D01*
X139392669Y-89752649D01*
X139338251Y-89597129D01*
X139319000Y-89426272D01*
X139319000Y-87947500D01*
X139318201Y-87933281D01*
X139295912Y-87735460D01*
X139289584Y-87707733D01*
X139223834Y-87519831D01*
X139211495Y-87494209D01*
X139105582Y-87325650D01*
X139087851Y-87303415D01*
X138947085Y-87162649D01*
X138924850Y-87144918D01*
X138756291Y-87039005D01*
X138730669Y-87026666D01*
X138542767Y-86960916D01*
X138515040Y-86954588D01*
X138133620Y-86911612D01*
X137972729Y-86855314D01*
X137828405Y-86764629D01*
X137707871Y-86644095D01*
X137617186Y-86499771D01*
X137560888Y-86338880D01*
X137541000Y-86162372D01*
X137541000Y-83708634D01*
X137558376Y-83532211D01*
X137608022Y-83368550D01*
X137688638Y-83217728D01*
X137797130Y-83085530D01*
X137929328Y-82977038D01*
X138080150Y-82896422D01*
X138243811Y-82846776D01*
X138420234Y-82829400D01*
X139912966Y-82829400D01*
X140089389Y-82846776D01*
G37*
X140089389Y-82846776D02*
X140253050Y-82896422D01*
X140403872Y-82977038D01*
X140536070Y-83085530D01*
X140644562Y-83217728D01*
X140725178Y-83368550D01*
X140774824Y-83532211D01*
X140792200Y-83708634D01*
X140792200Y-89426272D01*
X140772949Y-89597129D01*
X140718531Y-89752649D01*
X140630871Y-89892159D01*
X140514359Y-90008671D01*
X140374849Y-90096331D01*
X140219329Y-90150749D01*
X140055600Y-90169197D01*
X139891871Y-90150749D01*
X139736351Y-90096331D01*
X139596841Y-90008671D01*
X139480329Y-89892159D01*
X139392669Y-89752649D01*
X139338251Y-89597129D01*
X139319000Y-89426272D01*
X139319000Y-87947500D01*
X139318201Y-87933281D01*
X139295912Y-87735460D01*
X139289584Y-87707733D01*
X139223834Y-87519831D01*
X139211495Y-87494209D01*
X139105582Y-87325650D01*
X139087851Y-87303415D01*
X138947085Y-87162649D01*
X138924850Y-87144918D01*
X138756291Y-87039005D01*
X138730669Y-87026666D01*
X138542767Y-86960916D01*
X138515040Y-86954588D01*
X138133620Y-86911612D01*
X137972729Y-86855314D01*
X137828405Y-86764629D01*
X137707871Y-86644095D01*
X137617186Y-86499771D01*
X137560888Y-86338880D01*
X137541000Y-86162372D01*
X137541000Y-83708634D01*
X137558376Y-83532211D01*
X137608022Y-83368550D01*
X137688638Y-83217728D01*
X137797130Y-83085530D01*
X137929328Y-82977038D01*
X138080150Y-82896422D01*
X138243811Y-82846776D01*
X138420234Y-82829400D01*
X139912966Y-82829400D01*
X140089389Y-82846776D01*
%TO.N,VIN_SW*%
G36*
X138239500Y-77660500D02*
G01*
X137287000Y-77660500D01*
X137262224Y-77662940D01*
X137238399Y-77670167D01*
X137216443Y-77681903D01*
X137197197Y-77697697D01*
X137181403Y-77716943D01*
X137169667Y-77738899D01*
X137162440Y-77762724D01*
X137160000Y-77787500D01*
X137160000Y-80264000D01*
X136398000Y-80264000D01*
X136398000Y-76708000D01*
X136422776Y-76705560D01*
X136446601Y-76698333D01*
X136468557Y-76686597D01*
X136487803Y-76670803D01*
X136503597Y-76651557D01*
X136515333Y-76629601D01*
X136522560Y-76605776D01*
X136525000Y-76581000D01*
X136525000Y-75565000D01*
X136652000Y-75565000D01*
X136676776Y-75562560D01*
X136700601Y-75555333D01*
X136722557Y-75543597D01*
X136741803Y-75527803D01*
X136757597Y-75508557D01*
X136769333Y-75486601D01*
X136776560Y-75462776D01*
X136779000Y-75438000D01*
X136779000Y-73787000D01*
X138239500Y-73787000D01*
X138239500Y-77660500D01*
G37*
X138239500Y-77660500D02*
X137287000Y-77660500D01*
X137262224Y-77662940D01*
X137238399Y-77670167D01*
X137216443Y-77681903D01*
X137197197Y-77697697D01*
X137181403Y-77716943D01*
X137169667Y-77738899D01*
X137162440Y-77762724D01*
X137160000Y-77787500D01*
X137160000Y-80264000D01*
X136398000Y-80264000D01*
X136398000Y-76708000D01*
X136422776Y-76705560D01*
X136446601Y-76698333D01*
X136468557Y-76686597D01*
X136487803Y-76670803D01*
X136503597Y-76651557D01*
X136515333Y-76629601D01*
X136522560Y-76605776D01*
X136525000Y-76581000D01*
X136525000Y-75565000D01*
X136652000Y-75565000D01*
X136676776Y-75562560D01*
X136700601Y-75555333D01*
X136722557Y-75543597D01*
X136741803Y-75527803D01*
X136757597Y-75508557D01*
X136769333Y-75486601D01*
X136776560Y-75462776D01*
X136779000Y-75438000D01*
X136779000Y-73787000D01*
X138239500Y-73787000D01*
X138239500Y-77660500D01*
%TO.N,+5V*%
G36*
X150033316Y-82694684D02*
G01*
X150199966Y-82745237D01*
X150353562Y-82827336D01*
X150488183Y-82937817D01*
X150598664Y-83072438D01*
X150680763Y-83226034D01*
X150731316Y-83392684D01*
X150749000Y-83572234D01*
X150749000Y-84067766D01*
X150731316Y-84247316D01*
X150680763Y-84413966D01*
X150598664Y-84567562D01*
X150488183Y-84702183D01*
X150353562Y-84812664D01*
X150199966Y-84894763D01*
X150033316Y-84945316D01*
X149853766Y-84963000D01*
X148844000Y-84963000D01*
X148819223Y-84965440D01*
X148722021Y-84984775D01*
X148698197Y-84992002D01*
X148676241Y-85003738D01*
X148593838Y-85058798D01*
X148574592Y-85074592D01*
X148558798Y-85093838D01*
X148503738Y-85176241D01*
X148492002Y-85198197D01*
X148484775Y-85222021D01*
X148451033Y-85391649D01*
X148424043Y-85432043D01*
X148383649Y-85459033D01*
X148323490Y-85471000D01*
X146402641Y-85471000D01*
X146392895Y-85464488D01*
X146261154Y-85409919D01*
X146121298Y-85382100D01*
X145978702Y-85382100D01*
X145838846Y-85409919D01*
X145707105Y-85464488D01*
X145697359Y-85471000D01*
X144780000Y-85471000D01*
X144767552Y-85471612D01*
X144569340Y-85491134D01*
X144544922Y-85495991D01*
X144354328Y-85553807D01*
X144331326Y-85563334D01*
X144155673Y-85657223D01*
X144134973Y-85671055D01*
X143981012Y-85797408D01*
X143963408Y-85815012D01*
X143837055Y-85968973D01*
X143823223Y-85989673D01*
X143729334Y-86165326D01*
X143719807Y-86188328D01*
X143661991Y-86378922D01*
X143657134Y-86403340D01*
X143637612Y-86601552D01*
X143637000Y-86614000D01*
X143637000Y-89400872D01*
X143617112Y-89577380D01*
X143560814Y-89738271D01*
X143470129Y-89882595D01*
X143349595Y-90003129D01*
X143205271Y-90093814D01*
X143044380Y-90150112D01*
X142875000Y-90169197D01*
X142705620Y-90150112D01*
X142544729Y-90093814D01*
X142400405Y-90003129D01*
X142279871Y-89882595D01*
X142189186Y-89738271D01*
X142132888Y-89577380D01*
X142113000Y-89400872D01*
X142113000Y-85979000D01*
X142111436Y-85959133D01*
X142092789Y-85841398D01*
X142086503Y-85817309D01*
X142080510Y-85803608D01*
X142026392Y-85697397D01*
X142012970Y-85676428D01*
X142003038Y-85665251D01*
X141918749Y-85580962D01*
X141899503Y-85565168D01*
X141886603Y-85557608D01*
X141780392Y-85503490D01*
X141757209Y-85494415D01*
X141742602Y-85491211D01*
X141526999Y-85457064D01*
X141456637Y-85421212D01*
X141400788Y-85365363D01*
X141364936Y-85295001D01*
X141351000Y-85207008D01*
X141351000Y-84334234D01*
X141368684Y-84154684D01*
X141419237Y-83988034D01*
X141501336Y-83834438D01*
X141611817Y-83699817D01*
X141746438Y-83589336D01*
X141900034Y-83507237D01*
X142066684Y-83456684D01*
X142246234Y-83439000D01*
X148209000Y-83439000D01*
X148228867Y-83437436D01*
X148346602Y-83418789D01*
X148370691Y-83412503D01*
X148384392Y-83406510D01*
X148490603Y-83352392D01*
X148511572Y-83338970D01*
X148522749Y-83329038D01*
X148607038Y-83244749D01*
X148622832Y-83225503D01*
X148630392Y-83212603D01*
X148684510Y-83106392D01*
X148693585Y-83083209D01*
X148696789Y-83068602D01*
X148730936Y-82852999D01*
X148766788Y-82782637D01*
X148822637Y-82726788D01*
X148892999Y-82690936D01*
X148980992Y-82677000D01*
X149853766Y-82677000D01*
X150033316Y-82694684D01*
G37*
X150033316Y-82694684D02*
X150199966Y-82745237D01*
X150353562Y-82827336D01*
X150488183Y-82937817D01*
X150598664Y-83072438D01*
X150680763Y-83226034D01*
X150731316Y-83392684D01*
X150749000Y-83572234D01*
X150749000Y-84067766D01*
X150731316Y-84247316D01*
X150680763Y-84413966D01*
X150598664Y-84567562D01*
X150488183Y-84702183D01*
X150353562Y-84812664D01*
X150199966Y-84894763D01*
X150033316Y-84945316D01*
X149853766Y-84963000D01*
X148844000Y-84963000D01*
X148819223Y-84965440D01*
X148722021Y-84984775D01*
X148698197Y-84992002D01*
X148676241Y-85003738D01*
X148593838Y-85058798D01*
X148574592Y-85074592D01*
X148558798Y-85093838D01*
X148503738Y-85176241D01*
X148492002Y-85198197D01*
X148484775Y-85222021D01*
X148451033Y-85391649D01*
X148424043Y-85432043D01*
X148383649Y-85459033D01*
X148323490Y-85471000D01*
X146402641Y-85471000D01*
X146392895Y-85464488D01*
X146261154Y-85409919D01*
X146121298Y-85382100D01*
X145978702Y-85382100D01*
X145838846Y-85409919D01*
X145707105Y-85464488D01*
X145697359Y-85471000D01*
X144780000Y-85471000D01*
X144767552Y-85471612D01*
X144569340Y-85491134D01*
X144544922Y-85495991D01*
X144354328Y-85553807D01*
X144331326Y-85563334D01*
X144155673Y-85657223D01*
X144134973Y-85671055D01*
X143981012Y-85797408D01*
X143963408Y-85815012D01*
X143837055Y-85968973D01*
X143823223Y-85989673D01*
X143729334Y-86165326D01*
X143719807Y-86188328D01*
X143661991Y-86378922D01*
X143657134Y-86403340D01*
X143637612Y-86601552D01*
X143637000Y-86614000D01*
X143637000Y-89400872D01*
X143617112Y-89577380D01*
X143560814Y-89738271D01*
X143470129Y-89882595D01*
X143349595Y-90003129D01*
X143205271Y-90093814D01*
X143044380Y-90150112D01*
X142875000Y-90169197D01*
X142705620Y-90150112D01*
X142544729Y-90093814D01*
X142400405Y-90003129D01*
X142279871Y-89882595D01*
X142189186Y-89738271D01*
X142132888Y-89577380D01*
X142113000Y-89400872D01*
X142113000Y-85979000D01*
X142111436Y-85959133D01*
X142092789Y-85841398D01*
X142086503Y-85817309D01*
X142080510Y-85803608D01*
X142026392Y-85697397D01*
X142012970Y-85676428D01*
X142003038Y-85665251D01*
X141918749Y-85580962D01*
X141899503Y-85565168D01*
X141886603Y-85557608D01*
X141780392Y-85503490D01*
X141757209Y-85494415D01*
X141742602Y-85491211D01*
X141526999Y-85457064D01*
X141456637Y-85421212D01*
X141400788Y-85365363D01*
X141364936Y-85295001D01*
X141351000Y-85207008D01*
X141351000Y-84334234D01*
X141368684Y-84154684D01*
X141419237Y-83988034D01*
X141501336Y-83834438D01*
X141611817Y-83699817D01*
X141746438Y-83589336D01*
X141900034Y-83507237D01*
X142066684Y-83456684D01*
X142246234Y-83439000D01*
X148209000Y-83439000D01*
X148228867Y-83437436D01*
X148346602Y-83418789D01*
X148370691Y-83412503D01*
X148384392Y-83406510D01*
X148490603Y-83352392D01*
X148511572Y-83338970D01*
X148522749Y-83329038D01*
X148607038Y-83244749D01*
X148622832Y-83225503D01*
X148630392Y-83212603D01*
X148684510Y-83106392D01*
X148693585Y-83083209D01*
X148696789Y-83068602D01*
X148730936Y-82852999D01*
X148766788Y-82782637D01*
X148822637Y-82726788D01*
X148892999Y-82690936D01*
X148980992Y-82677000D01*
X149853766Y-82677000D01*
X150033316Y-82694684D01*
%TD*%
M02*
