%TF.GenerationSoftware,KiCad,Pcbnew,5.1.6-c6e7f7d~87~ubuntu18.04.1*%
%TF.CreationDate,2020-09-22T20:11:50-07:00*%
%TF.ProjectId,feather-power-supply-sw-smd,66656174-6865-4722-9d70-6f7765722d73,rev?*%
%TF.SameCoordinates,Original*%
%TF.FileFunction,Legend,Top*%
%TF.FilePolarity,Positive*%
%FSLAX46Y46*%
G04 Gerber Fmt 4.6, Leading zero omitted, Abs format (unit mm)*
G04 Created by KiCad (PCBNEW 5.1.6-c6e7f7d~87~ubuntu18.04.1) date 2020-09-22 20:11:50*
%MOMM*%
%LPD*%
G01*
G04 APERTURE LIST*
%ADD10C,0.300000*%
%ADD11C,0.127000*%
%ADD12C,0.125000*%
%ADD13C,0.150000*%
%ADD14C,0.120000*%
%ADD15C,0.100000*%
G04 APERTURE END LIST*
D10*
X146969942Y-69978257D02*
X146969942Y-68835400D01*
X147541371Y-69406828D02*
X146398514Y-69406828D01*
X147541371Y-67335400D02*
X147541371Y-68192542D01*
X147541371Y-67763971D02*
X146041371Y-67763971D01*
X146255657Y-67906828D01*
X146398514Y-68049685D01*
X146469942Y-68192542D01*
X146184228Y-66763971D02*
X146112800Y-66692542D01*
X146041371Y-66549685D01*
X146041371Y-66192542D01*
X146112800Y-66049685D01*
X146184228Y-65978257D01*
X146327085Y-65906828D01*
X146469942Y-65906828D01*
X146684228Y-65978257D01*
X147541371Y-66835400D01*
X147541371Y-65906828D01*
X146041371Y-65478257D02*
X147541371Y-64978257D01*
X146041371Y-64478257D01*
D11*
X142005352Y-101854000D02*
X141956971Y-101829809D01*
X141884400Y-101829809D01*
X141811828Y-101854000D01*
X141763447Y-101902380D01*
X141739257Y-101950761D01*
X141715066Y-102047523D01*
X141715066Y-102120095D01*
X141739257Y-102216857D01*
X141763447Y-102265238D01*
X141811828Y-102313619D01*
X141884400Y-102337809D01*
X141932780Y-102337809D01*
X142005352Y-102313619D01*
X142029542Y-102289428D01*
X142029542Y-102120095D01*
X141932780Y-102120095D01*
X142247257Y-102337809D02*
X142247257Y-101829809D01*
X142537542Y-102337809D01*
X142537542Y-101829809D01*
X142779447Y-102337809D02*
X142779447Y-101829809D01*
X142900400Y-101829809D01*
X142972971Y-101854000D01*
X143021352Y-101902380D01*
X143045542Y-101950761D01*
X143069733Y-102047523D01*
X143069733Y-102120095D01*
X143045542Y-102216857D01*
X143021352Y-102265238D01*
X142972971Y-102313619D01*
X142900400Y-102337809D01*
X142779447Y-102337809D01*
X139199257Y-102144285D02*
X139586304Y-102144285D01*
X139392780Y-102337809D02*
X139392780Y-101950761D01*
X140070114Y-101829809D02*
X139828209Y-101829809D01*
X139804019Y-102071714D01*
X139828209Y-102047523D01*
X139876590Y-102023333D01*
X139997542Y-102023333D01*
X140045923Y-102047523D01*
X140070114Y-102071714D01*
X140094304Y-102120095D01*
X140094304Y-102241047D01*
X140070114Y-102289428D01*
X140045923Y-102313619D01*
X139997542Y-102337809D01*
X139876590Y-102337809D01*
X139828209Y-102313619D01*
X139804019Y-102289428D01*
X140239447Y-101829809D02*
X140408780Y-102337809D01*
X140578114Y-101829809D01*
X136707638Y-102313619D02*
X136780209Y-102337809D01*
X136901161Y-102337809D01*
X136949542Y-102313619D01*
X136973733Y-102289428D01*
X136997923Y-102241047D01*
X136997923Y-102192666D01*
X136973733Y-102144285D01*
X136949542Y-102120095D01*
X136901161Y-102095904D01*
X136804400Y-102071714D01*
X136756019Y-102047523D01*
X136731828Y-102023333D01*
X136707638Y-101974952D01*
X136707638Y-101926571D01*
X136731828Y-101878190D01*
X136756019Y-101854000D01*
X136804400Y-101829809D01*
X136925352Y-101829809D01*
X136997923Y-101854000D01*
X137505923Y-102289428D02*
X137481733Y-102313619D01*
X137409161Y-102337809D01*
X137360780Y-102337809D01*
X137288209Y-102313619D01*
X137239828Y-102265238D01*
X137215638Y-102216857D01*
X137191447Y-102120095D01*
X137191447Y-102047523D01*
X137215638Y-101950761D01*
X137239828Y-101902380D01*
X137288209Y-101854000D01*
X137360780Y-101829809D01*
X137409161Y-101829809D01*
X137481733Y-101854000D01*
X137505923Y-101878190D01*
X137965542Y-102337809D02*
X137723638Y-102337809D01*
X137723638Y-101829809D01*
X134155542Y-102313619D02*
X134228114Y-102337809D01*
X134349066Y-102337809D01*
X134397447Y-102313619D01*
X134421638Y-102289428D01*
X134445828Y-102241047D01*
X134445828Y-102192666D01*
X134421638Y-102144285D01*
X134397447Y-102120095D01*
X134349066Y-102095904D01*
X134252304Y-102071714D01*
X134203923Y-102047523D01*
X134179733Y-102023333D01*
X134155542Y-101974952D01*
X134155542Y-101926571D01*
X134179733Y-101878190D01*
X134203923Y-101854000D01*
X134252304Y-101829809D01*
X134373257Y-101829809D01*
X134445828Y-101854000D01*
X134663542Y-102337809D02*
X134663542Y-101829809D01*
X134784495Y-101829809D01*
X134857066Y-101854000D01*
X134905447Y-101902380D01*
X134929638Y-101950761D01*
X134953828Y-102047523D01*
X134953828Y-102120095D01*
X134929638Y-102216857D01*
X134905447Y-102265238D01*
X134857066Y-102313619D01*
X134784495Y-102337809D01*
X134663542Y-102337809D01*
X135147352Y-102192666D02*
X135389257Y-102192666D01*
X135098971Y-102337809D02*
X135268304Y-101829809D01*
X135437638Y-102337809D01*
D12*
X144448571Y-101280142D02*
X144484285Y-101173000D01*
X144484285Y-100994428D01*
X144448571Y-100923000D01*
X144412857Y-100887285D01*
X144341428Y-100851571D01*
X144270000Y-100851571D01*
X144198571Y-100887285D01*
X144162857Y-100923000D01*
X144127142Y-100994428D01*
X144091428Y-101137285D01*
X144055714Y-101208714D01*
X144020000Y-101244428D01*
X143948571Y-101280142D01*
X143877142Y-101280142D01*
X143805714Y-101244428D01*
X143770000Y-101208714D01*
X143734285Y-101137285D01*
X143734285Y-100958714D01*
X143770000Y-100851571D01*
X143734285Y-100637285D02*
X143734285Y-100208714D01*
X144484285Y-100423000D02*
X143734285Y-100423000D01*
X144091428Y-99958714D02*
X144091428Y-99708714D01*
X144484285Y-99601571D02*
X144484285Y-99958714D01*
X143734285Y-99958714D01*
X143734285Y-99601571D01*
X144484285Y-99280142D02*
X143734285Y-99280142D01*
X144270000Y-99030142D01*
X143734285Y-98780142D01*
X144484285Y-98780142D01*
X144484285Y-98423000D02*
X143734285Y-98423000D01*
X144270000Y-98173000D01*
X143734285Y-97923000D01*
X144484285Y-97923000D01*
X144270000Y-97601571D02*
X144270000Y-97244428D01*
X144484285Y-97673000D02*
X143734285Y-97423000D01*
X144484285Y-97173000D01*
X144555714Y-95851571D02*
X144520000Y-95923000D01*
X144448571Y-95994428D01*
X144341428Y-96101571D01*
X144305714Y-96173000D01*
X144305714Y-96244428D01*
X144484285Y-96208714D02*
X144448571Y-96280142D01*
X144377142Y-96351571D01*
X144234285Y-96387285D01*
X143984285Y-96387285D01*
X143841428Y-96351571D01*
X143770000Y-96280142D01*
X143734285Y-96208714D01*
X143734285Y-96065857D01*
X143770000Y-95994428D01*
X143841428Y-95923000D01*
X143984285Y-95887285D01*
X144234285Y-95887285D01*
X144377142Y-95923000D01*
X144448571Y-95994428D01*
X144484285Y-96065857D01*
X144484285Y-96208714D01*
X143734285Y-95673000D02*
X143734285Y-95244428D01*
X144484285Y-95458714D02*
X143734285Y-95458714D01*
D13*
X135720628Y-106139171D02*
X135387295Y-106139171D01*
X135387295Y-106662980D02*
X135387295Y-105662980D01*
X135863485Y-105662980D01*
X136625390Y-106615361D02*
X136530152Y-106662980D01*
X136339676Y-106662980D01*
X136244438Y-106615361D01*
X136196819Y-106520123D01*
X136196819Y-106139171D01*
X136244438Y-106043933D01*
X136339676Y-105996314D01*
X136530152Y-105996314D01*
X136625390Y-106043933D01*
X136673009Y-106139171D01*
X136673009Y-106234409D01*
X136196819Y-106329647D01*
X137530152Y-106662980D02*
X137530152Y-106139171D01*
X137482533Y-106043933D01*
X137387295Y-105996314D01*
X137196819Y-105996314D01*
X137101580Y-106043933D01*
X137530152Y-106615361D02*
X137434914Y-106662980D01*
X137196819Y-106662980D01*
X137101580Y-106615361D01*
X137053961Y-106520123D01*
X137053961Y-106424885D01*
X137101580Y-106329647D01*
X137196819Y-106282028D01*
X137434914Y-106282028D01*
X137530152Y-106234409D01*
X137863485Y-105996314D02*
X138244438Y-105996314D01*
X138006342Y-105662980D02*
X138006342Y-106520123D01*
X138053961Y-106615361D01*
X138149200Y-106662980D01*
X138244438Y-106662980D01*
X138577771Y-106662980D02*
X138577771Y-105662980D01*
X139006342Y-106662980D02*
X139006342Y-106139171D01*
X138958723Y-106043933D01*
X138863485Y-105996314D01*
X138720628Y-105996314D01*
X138625390Y-106043933D01*
X138577771Y-106091552D01*
X139863485Y-106615361D02*
X139768247Y-106662980D01*
X139577771Y-106662980D01*
X139482533Y-106615361D01*
X139434914Y-106520123D01*
X139434914Y-106139171D01*
X139482533Y-106043933D01*
X139577771Y-105996314D01*
X139768247Y-105996314D01*
X139863485Y-106043933D01*
X139911104Y-106139171D01*
X139911104Y-106234409D01*
X139434914Y-106329647D01*
X140339676Y-106662980D02*
X140339676Y-105996314D01*
X140339676Y-106186790D02*
X140387295Y-106091552D01*
X140434914Y-106043933D01*
X140530152Y-105996314D01*
X140625390Y-105996314D01*
X140863485Y-105662980D02*
X141101580Y-106662980D01*
X141292057Y-105948695D01*
X141482533Y-106662980D01*
X141720628Y-105662980D01*
X142101580Y-106662980D02*
X142101580Y-105996314D01*
X142101580Y-105662980D02*
X142053961Y-105710600D01*
X142101580Y-105758219D01*
X142149200Y-105710600D01*
X142101580Y-105662980D01*
X142101580Y-105758219D01*
X142577771Y-105996314D02*
X142577771Y-106662980D01*
X142577771Y-106091552D02*
X142625390Y-106043933D01*
X142720628Y-105996314D01*
X142863485Y-105996314D01*
X142958723Y-106043933D01*
X143006342Y-106139171D01*
X143006342Y-106662980D01*
X143911104Y-105996314D02*
X143911104Y-106805838D01*
X143863485Y-106901076D01*
X143815866Y-106948695D01*
X143720628Y-106996314D01*
X143577771Y-106996314D01*
X143482533Y-106948695D01*
X143911104Y-106615361D02*
X143815866Y-106662980D01*
X143625390Y-106662980D01*
X143530152Y-106615361D01*
X143482533Y-106567742D01*
X143434914Y-106472504D01*
X143434914Y-106186790D01*
X143482533Y-106091552D01*
X143530152Y-106043933D01*
X143625390Y-105996314D01*
X143815866Y-105996314D01*
X143911104Y-106043933D01*
X134744438Y-108265361D02*
X134887295Y-108312980D01*
X135125390Y-108312980D01*
X135220628Y-108265361D01*
X135268247Y-108217742D01*
X135315866Y-108122504D01*
X135315866Y-108027266D01*
X135268247Y-107932028D01*
X135220628Y-107884409D01*
X135125390Y-107836790D01*
X134934914Y-107789171D01*
X134839676Y-107741552D01*
X134792057Y-107693933D01*
X134744438Y-107598695D01*
X134744438Y-107503457D01*
X134792057Y-107408219D01*
X134839676Y-107360600D01*
X134934914Y-107312980D01*
X135173009Y-107312980D01*
X135315866Y-107360600D01*
X135649200Y-107646314D02*
X135839676Y-108312980D01*
X136030152Y-107836790D01*
X136220628Y-108312980D01*
X136411104Y-107646314D01*
X136792057Y-108312980D02*
X136792057Y-107646314D01*
X136792057Y-107312980D02*
X136744438Y-107360600D01*
X136792057Y-107408219D01*
X136839676Y-107360600D01*
X136792057Y-107312980D01*
X136792057Y-107408219D01*
X137125390Y-107646314D02*
X137506342Y-107646314D01*
X137268247Y-107312980D02*
X137268247Y-108170123D01*
X137315866Y-108265361D01*
X137411104Y-108312980D01*
X137506342Y-108312980D01*
X138268247Y-108265361D02*
X138173009Y-108312980D01*
X137982533Y-108312980D01*
X137887295Y-108265361D01*
X137839676Y-108217742D01*
X137792057Y-108122504D01*
X137792057Y-107836790D01*
X137839676Y-107741552D01*
X137887295Y-107693933D01*
X137982533Y-107646314D01*
X138173009Y-107646314D01*
X138268247Y-107693933D01*
X138696819Y-108312980D02*
X138696819Y-107312980D01*
X139125390Y-108312980D02*
X139125390Y-107789171D01*
X139077771Y-107693933D01*
X138982533Y-107646314D01*
X138839676Y-107646314D01*
X138744438Y-107693933D01*
X138696819Y-107741552D01*
X139982533Y-108265361D02*
X139887295Y-108312980D01*
X139696819Y-108312980D01*
X139601580Y-108265361D01*
X139553961Y-108170123D01*
X139553961Y-107789171D01*
X139601580Y-107693933D01*
X139696819Y-107646314D01*
X139887295Y-107646314D01*
X139982533Y-107693933D01*
X140030152Y-107789171D01*
X140030152Y-107884409D01*
X139553961Y-107979647D01*
X140458723Y-108312980D02*
X140458723Y-107646314D01*
X140458723Y-107836790D02*
X140506342Y-107741552D01*
X140553961Y-107693933D01*
X140649200Y-107646314D01*
X140744438Y-107646314D01*
X141744438Y-107646314D02*
X141982533Y-108312980D01*
X142220628Y-107646314D01*
X143125390Y-108312980D02*
X142553961Y-108312980D01*
X142839676Y-108312980D02*
X142839676Y-107312980D01*
X142744438Y-107455838D01*
X142649200Y-107551076D01*
X142553961Y-107598695D01*
X143553961Y-108217742D02*
X143601580Y-108265361D01*
X143553961Y-108312980D01*
X143506342Y-108265361D01*
X143553961Y-108217742D01*
X143553961Y-108312980D01*
X144553961Y-108312980D02*
X143982533Y-108312980D01*
X144268247Y-108312980D02*
X144268247Y-107312980D01*
X144173009Y-107455838D01*
X144077771Y-107551076D01*
X143982533Y-107598695D01*
D14*
X137693400Y-80746600D02*
G75*
G03*
X137693400Y-80746600I-254000J0D01*
G01*
D10*
X132092000Y-67944857D02*
X132020571Y-68087714D01*
X132020571Y-68302000D01*
X132092000Y-68516285D01*
X132234857Y-68659142D01*
X132377714Y-68730571D01*
X132663428Y-68802000D01*
X132877714Y-68802000D01*
X133163428Y-68730571D01*
X133306285Y-68659142D01*
X133449142Y-68516285D01*
X133520571Y-68302000D01*
X133520571Y-68159142D01*
X133449142Y-67944857D01*
X133377714Y-67873428D01*
X132877714Y-67873428D01*
X132877714Y-68159142D01*
X133520571Y-67230571D02*
X132020571Y-67230571D01*
X133520571Y-66373428D01*
X132020571Y-66373428D01*
X133520571Y-65659142D02*
X132020571Y-65659142D01*
X132020571Y-65302000D01*
X132092000Y-65087714D01*
X132234857Y-64944857D01*
X132377714Y-64873428D01*
X132663428Y-64802000D01*
X132877714Y-64802000D01*
X133163428Y-64873428D01*
X133306285Y-64944857D01*
X133449142Y-65087714D01*
X133520571Y-65302000D01*
X133520571Y-65659142D01*
D14*
%TO.C,Q1*%
X138384400Y-72544400D02*
X137454400Y-72544400D01*
X135224400Y-72544400D02*
X136154400Y-72544400D01*
X135224400Y-72544400D02*
X135224400Y-74704400D01*
X138384400Y-72544400D02*
X138384400Y-74004400D01*
%TO.C,TP1*%
X147254000Y-77216000D02*
G75*
G03*
X147254000Y-77216000I-950000J0D01*
G01*
%TO.C,L1*%
X139452600Y-89980800D02*
X140352600Y-89980800D01*
X139452600Y-89980800D02*
X139452600Y-89080800D01*
X143452600Y-85380800D02*
X142552600Y-85380800D01*
X143452600Y-85380800D02*
X143452600Y-86280800D01*
X143452600Y-89980800D02*
X142552600Y-89980800D01*
X143452600Y-89980800D02*
X143452600Y-89080800D01*
X139452600Y-85380800D02*
X140352600Y-85380800D01*
X139452600Y-85380800D02*
X139452600Y-86280800D01*
%TO.C,J4*%
X150411400Y-101838200D02*
X150411400Y-97958200D01*
X145941400Y-96788200D02*
X145941400Y-97838200D01*
X148441400Y-96788200D02*
X145941400Y-96788200D01*
X145941400Y-101958200D02*
X144951400Y-101958200D01*
X145941400Y-103008200D02*
X145941400Y-101958200D01*
X148441400Y-103008200D02*
X145941400Y-103008200D01*
%TO.C,R5*%
X145878733Y-87632000D02*
X146221267Y-87632000D01*
X145878733Y-86612000D02*
X146221267Y-86612000D01*
%TO.C,D2*%
X144165000Y-90064000D02*
X147050000Y-90064000D01*
X144165000Y-88244000D02*
X144165000Y-90064000D01*
X147050000Y-88244000D02*
X144165000Y-88244000D01*
%TO.C,J5*%
X143824000Y-102733800D02*
X143824000Y-104063800D01*
X142494000Y-102733800D02*
X143824000Y-102733800D01*
X141224000Y-102733800D02*
X141224000Y-105393800D01*
X141224000Y-105393800D02*
X133544000Y-105393800D01*
X141224000Y-102733800D02*
X133544000Y-102733800D01*
X133544000Y-102733800D02*
X133544000Y-105393800D01*
%TO.C,J1*%
X144976500Y-59743000D02*
X144476500Y-59743000D01*
X144976500Y-60483000D02*
X144976500Y-59743000D01*
X138403500Y-63620000D02*
X138450500Y-63574000D01*
X136106500Y-65918000D02*
X136141500Y-65882000D01*
X138210500Y-63404000D02*
X138245500Y-63369000D01*
X135901500Y-65712000D02*
X135948500Y-65666000D01*
X134616500Y-69904000D02*
X134616500Y-59983000D01*
X144736500Y-69904000D02*
X144736500Y-59983000D01*
X144736500Y-59983000D02*
X134616500Y-59983000D01*
X144736500Y-69904000D02*
X134616500Y-69904000D01*
X144736500Y-66944000D02*
X134616500Y-66944000D01*
X144736500Y-62043000D02*
X134616500Y-62043000D01*
X144736500Y-60543000D02*
X134616500Y-60543000D01*
X138856500Y-64643000D02*
G75*
G03*
X138856500Y-64643000I-1680000J0D01*
G01*
X141493182Y-63108244D02*
G75*
G02*
X142176500Y-62963000I683318J-1534756D01*
G01*
X140641074Y-65326042D02*
G75*
G02*
X140641500Y-63959000I1535426J683042D01*
G01*
X142859542Y-66178426D02*
G75*
G02*
X141492500Y-66178000I-683042J1535426D01*
G01*
X143711926Y-63959958D02*
G75*
G02*
X143711500Y-65327000I-1535426J-683042D01*
G01*
X142147695Y-62962747D02*
G75*
G02*
X142860500Y-63108000I28805J-1680253D01*
G01*
%TO.C,F1*%
X143383031Y-71213400D02*
X140842969Y-71213400D01*
X143383031Y-74633400D02*
X140842969Y-74633400D01*
%TO.C,C5*%
X144311200Y-83406064D02*
X144311200Y-82201936D01*
X141591200Y-83406064D02*
X141591200Y-82201936D01*
%TO.C,C9*%
X133178733Y-77573600D02*
X133521267Y-77573600D01*
X133178733Y-76553600D02*
X133521267Y-76553600D01*
%TO.C,C6*%
X144893200Y-83406064D02*
X144893200Y-82201936D01*
X147613200Y-83406064D02*
X147613200Y-82201936D01*
%TO.C,JP1*%
X134750000Y-71632800D02*
X134750000Y-72232800D01*
X132650000Y-70932800D02*
X134050000Y-70932800D01*
X131950000Y-72232800D02*
X131950000Y-71632800D01*
X134050000Y-72932800D02*
X132650000Y-72932800D01*
X134750000Y-72232800D02*
G75*
G02*
X134050000Y-72932800I-700000J0D01*
G01*
X134050000Y-70932800D02*
G75*
G02*
X134750000Y-71632800I0J-700000D01*
G01*
X131950000Y-71632800D02*
G75*
G02*
X132650000Y-70932800I700000J0D01*
G01*
X132650000Y-72932800D02*
G75*
G02*
X131950000Y-72232800I0J700000D01*
G01*
%TO.C,R4*%
X133178733Y-76049600D02*
X133521267Y-76049600D01*
X133178733Y-75029600D02*
X133521267Y-75029600D01*
%TO.C,C2*%
X138335936Y-77567200D02*
X139540064Y-77567200D01*
X138335936Y-75747200D02*
X139540064Y-75747200D01*
%TO.C,R2*%
X131925600Y-83267733D02*
X131925600Y-83610267D01*
X132945600Y-83267733D02*
X132945600Y-83610267D01*
%TO.C,D1*%
X139106400Y-85258000D02*
X139106400Y-81408000D01*
X141106400Y-85258000D02*
X141106400Y-81408000D01*
X139106400Y-85258000D02*
X141106400Y-85258000D01*
D15*
%TO.C,U1*%
X133544000Y-83684800D02*
X133544000Y-83384800D01*
X133844000Y-83684800D02*
X133544000Y-83684800D01*
X138744000Y-83684800D02*
X138744000Y-83384800D01*
X138444000Y-83684800D02*
X138744000Y-83684800D01*
X133544000Y-79484800D02*
X133544000Y-79784800D01*
X133844000Y-79484800D02*
X133544000Y-79484800D01*
X138444000Y-79684800D02*
X138444000Y-78884800D01*
X138744000Y-79984800D02*
X138444000Y-79684800D01*
X138744000Y-80384800D02*
X138744000Y-79984800D01*
D14*
%TO.C,R1*%
X134791267Y-85596000D02*
X134448733Y-85596000D01*
X134791267Y-86616000D02*
X134448733Y-86616000D01*
%TO.C,C8*%
X131900200Y-79762533D02*
X131900200Y-80105067D01*
X132920200Y-79762533D02*
X132920200Y-80105067D01*
%TO.C,C7*%
X134448733Y-88140000D02*
X134791267Y-88140000D01*
X134448733Y-87120000D02*
X134791267Y-87120000D01*
%TO.C,C1*%
X138660600Y-87191667D02*
X138660600Y-86849133D01*
X137640600Y-87191667D02*
X137640600Y-86849133D01*
%TO.C,J3*%
X128235400Y-105419200D02*
X130895400Y-105419200D01*
X128235400Y-67259200D02*
X128235400Y-105419200D01*
X130895400Y-67259200D02*
X130895400Y-105419200D01*
X128235400Y-67259200D02*
X130895400Y-67259200D01*
X128235400Y-65989200D02*
X128235400Y-64659200D01*
X128235400Y-64659200D02*
X129565400Y-64659200D01*
%TO.C,R3*%
X133178733Y-74525600D02*
X133521267Y-74525600D01*
X133178733Y-73505600D02*
X133521267Y-73505600D01*
%TO.C,J2*%
X148555400Y-64659200D02*
X149885400Y-64659200D01*
X148555400Y-65989200D02*
X148555400Y-64659200D01*
X148555400Y-67259200D02*
X151215400Y-67259200D01*
X151215400Y-67259200D02*
X151215400Y-95259200D01*
X148555400Y-67259200D02*
X148555400Y-95259200D01*
X148555400Y-95259200D02*
X151215400Y-95259200D01*
%TO.C,TP1*%
D13*
X145346895Y-74737980D02*
X145918323Y-74737980D01*
X145632609Y-75737980D02*
X145632609Y-74737980D01*
X146251657Y-75737980D02*
X146251657Y-74737980D01*
X146632609Y-74737980D01*
X146727847Y-74785600D01*
X146775466Y-74833219D01*
X146823085Y-74928457D01*
X146823085Y-75071314D01*
X146775466Y-75166552D01*
X146727847Y-75214171D01*
X146632609Y-75261790D01*
X146251657Y-75261790D01*
X147775466Y-75737980D02*
X147204038Y-75737980D01*
X147489752Y-75737980D02*
X147489752Y-74737980D01*
X147394514Y-74880838D01*
X147299276Y-74976076D01*
X147204038Y-75023695D01*
%TO.C,J4*%
X145970666Y-103516180D02*
X145970666Y-104230466D01*
X145923047Y-104373323D01*
X145827809Y-104468561D01*
X145684952Y-104516180D01*
X145589714Y-104516180D01*
X146875428Y-103849514D02*
X146875428Y-104516180D01*
X146637333Y-103468561D02*
X146399238Y-104182847D01*
X147018285Y-104182847D01*
%TO.C,D2*%
D11*
X145747619Y-90399809D02*
X145505714Y-90399809D01*
X145481523Y-90641714D01*
X145505714Y-90617523D01*
X145554095Y-90593333D01*
X145675047Y-90593333D01*
X145723428Y-90617523D01*
X145747619Y-90641714D01*
X145771809Y-90690095D01*
X145771809Y-90811047D01*
X145747619Y-90859428D01*
X145723428Y-90883619D01*
X145675047Y-90907809D01*
X145554095Y-90907809D01*
X145505714Y-90883619D01*
X145481523Y-90859428D01*
X145916952Y-90399809D02*
X146086285Y-90907809D01*
X146255619Y-90399809D01*
X146304000Y-90956190D02*
X146691047Y-90956190D01*
X146908761Y-90399809D02*
X147005523Y-90399809D01*
X147053904Y-90424000D01*
X147102285Y-90472380D01*
X147126476Y-90569142D01*
X147126476Y-90738476D01*
X147102285Y-90835238D01*
X147053904Y-90883619D01*
X147005523Y-90907809D01*
X146908761Y-90907809D01*
X146860380Y-90883619D01*
X146812000Y-90835238D01*
X146787809Y-90738476D01*
X146787809Y-90569142D01*
X146812000Y-90472380D01*
X146860380Y-90424000D01*
X146908761Y-90399809D01*
X147344190Y-90907809D02*
X147344190Y-90399809D01*
X147634476Y-90907809D02*
X147416761Y-90617523D01*
X147634476Y-90399809D02*
X147344190Y-90690095D01*
%TO.C,J1*%
D13*
X145767466Y-70470780D02*
X145767466Y-71185066D01*
X145719847Y-71327923D01*
X145624609Y-71423161D01*
X145481752Y-71470780D01*
X145386514Y-71470780D01*
X146767466Y-71470780D02*
X146196038Y-71470780D01*
X146481752Y-71470780D02*
X146481752Y-70470780D01*
X146386514Y-70613638D01*
X146291276Y-70708876D01*
X146196038Y-70756495D01*
%TO.C,JP1*%
X131907066Y-69302380D02*
X131907066Y-70016666D01*
X131859447Y-70159523D01*
X131764209Y-70254761D01*
X131621352Y-70302380D01*
X131526114Y-70302380D01*
X132383257Y-70302380D02*
X132383257Y-69302380D01*
X132764209Y-69302380D01*
X132859447Y-69350000D01*
X132907066Y-69397619D01*
X132954685Y-69492857D01*
X132954685Y-69635714D01*
X132907066Y-69730952D01*
X132859447Y-69778571D01*
X132764209Y-69826190D01*
X132383257Y-69826190D01*
X133907066Y-70302380D02*
X133335638Y-70302380D01*
X133621352Y-70302380D02*
X133621352Y-69302380D01*
X133526114Y-69445238D01*
X133430876Y-69540476D01*
X133335638Y-69588095D01*
%TD*%
M02*
