%TF.GenerationSoftware,KiCad,Pcbnew,5.1.6-c6e7f7d~87~ubuntu18.04.1*%
%TF.CreationDate,2020-09-01T21:17:15-07:00*%
%TF.ProjectId,feather-power-supply-sw-smd,66656174-6865-4722-9d70-6f7765722d73,rev?*%
%TF.SameCoordinates,Original*%
%TF.FileFunction,Legend,Top*%
%TF.FilePolarity,Positive*%
%FSLAX46Y46*%
G04 Gerber Fmt 4.6, Leading zero omitted, Abs format (unit mm)*
G04 Created by KiCad (PCBNEW 5.1.6-c6e7f7d~87~ubuntu18.04.1) date 2020-09-01 21:17:15*
%MOMM*%
%LPD*%
G01*
G04 APERTURE LIST*
%ADD10C,0.120000*%
%ADD11C,0.300000*%
%ADD12C,0.100000*%
%ADD13C,0.150000*%
G04 APERTURE END LIST*
D10*
X125653800Y-85255100D02*
G75*
G03*
X125653800Y-85255100I-254000J0D01*
G01*
X128435100Y-86283800D02*
G75*
G03*
X128435100Y-86283800I-254000J0D01*
G01*
D11*
X120458800Y-72262857D02*
X120387371Y-72405714D01*
X120387371Y-72620000D01*
X120458800Y-72834285D01*
X120601657Y-72977142D01*
X120744514Y-73048571D01*
X121030228Y-73120000D01*
X121244514Y-73120000D01*
X121530228Y-73048571D01*
X121673085Y-72977142D01*
X121815942Y-72834285D01*
X121887371Y-72620000D01*
X121887371Y-72477142D01*
X121815942Y-72262857D01*
X121744514Y-72191428D01*
X121244514Y-72191428D01*
X121244514Y-72477142D01*
X121887371Y-71548571D02*
X120387371Y-71548571D01*
X121887371Y-70691428D01*
X120387371Y-70691428D01*
X121887371Y-69977142D02*
X120387371Y-69977142D01*
X120387371Y-69620000D01*
X120458800Y-69405714D01*
X120601657Y-69262857D01*
X120744514Y-69191428D01*
X121030228Y-69120000D01*
X121244514Y-69120000D01*
X121530228Y-69191428D01*
X121673085Y-69262857D01*
X121815942Y-69405714D01*
X121887371Y-69620000D01*
X121887371Y-69977142D01*
X135209742Y-74397857D02*
X135209742Y-73255000D01*
X135781171Y-73826428D02*
X134638314Y-73826428D01*
X135781171Y-71755000D02*
X135781171Y-72612142D01*
X135781171Y-72183571D02*
X134281171Y-72183571D01*
X134495457Y-72326428D01*
X134638314Y-72469285D01*
X134709742Y-72612142D01*
X134424028Y-71183571D02*
X134352600Y-71112142D01*
X134281171Y-70969285D01*
X134281171Y-70612142D01*
X134352600Y-70469285D01*
X134424028Y-70397857D01*
X134566885Y-70326428D01*
X134709742Y-70326428D01*
X134924028Y-70397857D01*
X135781171Y-71255000D01*
X135781171Y-70326428D01*
X134281171Y-69897857D02*
X135781171Y-69397857D01*
X134281171Y-68897857D01*
D10*
%TO.C,L1*%
X132670800Y-87796400D02*
X133570800Y-87796400D01*
X132670800Y-87796400D02*
X132670800Y-86896400D01*
X136670800Y-83196400D02*
X135770800Y-83196400D01*
X136670800Y-83196400D02*
X136670800Y-84096400D01*
X136670800Y-87796400D02*
X135770800Y-87796400D01*
X136670800Y-87796400D02*
X136670800Y-86896400D01*
X132670800Y-83196400D02*
X133570800Y-83196400D01*
X132670800Y-83196400D02*
X132670800Y-84096400D01*
%TO.C,C4*%
X134079064Y-80123200D02*
X132874936Y-80123200D01*
X134079064Y-82843200D02*
X132874936Y-82843200D01*
%TO.C,C9*%
X121215333Y-81840800D02*
X121557867Y-81840800D01*
X121215333Y-80820800D02*
X121557867Y-80820800D01*
%TO.C,C6*%
X134079064Y-79604700D02*
X132874936Y-79604700D01*
X134079064Y-76884700D02*
X132874936Y-76884700D01*
%TO.C,JP1*%
X126164800Y-78503500D02*
X126164800Y-79103500D01*
X124064800Y-77803500D02*
X125464800Y-77803500D01*
X123364800Y-79103500D02*
X123364800Y-78503500D01*
X125464800Y-79803500D02*
X124064800Y-79803500D01*
X126164800Y-79103500D02*
G75*
G02*
X125464800Y-79803500I-700000J0D01*
G01*
X125464800Y-77803500D02*
G75*
G02*
X126164800Y-78503500I0J-700000D01*
G01*
X123364800Y-78503500D02*
G75*
G02*
X124064800Y-77803500I700000J0D01*
G01*
X124064800Y-79803500D02*
G75*
G02*
X123364800Y-79103500I0J700000D01*
G01*
%TO.C,R2*%
X121215333Y-80316800D02*
X121557867Y-80316800D01*
X121215333Y-79296800D02*
X121557867Y-79296800D01*
%TO.C,C7*%
X120969500Y-87306333D02*
X120969500Y-87648867D01*
X119949500Y-87306333D02*
X119949500Y-87648867D01*
%TO.C,C8*%
X122518900Y-87306333D02*
X122518900Y-87648867D01*
X121498900Y-87306333D02*
X121498900Y-87648867D01*
%TO.C,C2*%
X123054700Y-87485136D02*
X123054700Y-88689264D01*
X124874700Y-87485136D02*
X124874700Y-88689264D01*
%TO.C,R4*%
X126959900Y-92614933D02*
X126959900Y-92957467D01*
X127979900Y-92614933D02*
X127979900Y-92957467D01*
%TO.C,D1*%
X135658100Y-88033500D02*
X135658100Y-91883500D01*
X133658100Y-88033500D02*
X133658100Y-91883500D01*
X135658100Y-88033500D02*
X133658100Y-88033500D01*
D12*
%TO.C,U1*%
X130992300Y-90915800D02*
X130692300Y-90915800D01*
X130992300Y-90615800D02*
X130992300Y-90915800D01*
X130992300Y-85715800D02*
X130692300Y-85715800D01*
X130992300Y-86015800D02*
X130992300Y-85715800D01*
X126792300Y-90915800D02*
X127092300Y-90915800D01*
X126792300Y-90615800D02*
X126792300Y-90915800D01*
X126992300Y-86015800D02*
X126192300Y-86015800D01*
X127292300Y-85715800D02*
X126992300Y-86015800D01*
X127692300Y-85715800D02*
X127292300Y-85715800D01*
D10*
%TO.C,R3*%
X129804700Y-92614933D02*
X129804700Y-92957467D01*
X130824700Y-92614933D02*
X130824700Y-92957467D01*
%TO.C,C5*%
X125410500Y-92614933D02*
X125410500Y-92957467D01*
X126430500Y-92614933D02*
X126430500Y-92957467D01*
%TO.C,C3*%
X132374100Y-92957467D02*
X132374100Y-92614933D01*
X131354100Y-92957467D02*
X131354100Y-92614933D01*
%TO.C,C1*%
X130651433Y-85219000D02*
X130993967Y-85219000D01*
X130651433Y-84199000D02*
X130993967Y-84199000D01*
%TO.C,J1*%
X133267100Y-65216700D02*
X132767100Y-65216700D01*
X133267100Y-65956700D02*
X133267100Y-65216700D01*
X126694100Y-69093700D02*
X126741100Y-69047700D01*
X124397100Y-71391700D02*
X124432100Y-71355700D01*
X126501100Y-68877700D02*
X126536100Y-68842700D01*
X124192100Y-71185700D02*
X124239100Y-71139700D01*
X122907100Y-75377700D02*
X122907100Y-65456700D01*
X133027100Y-75377700D02*
X133027100Y-65456700D01*
X133027100Y-65456700D02*
X122907100Y-65456700D01*
X133027100Y-75377700D02*
X122907100Y-75377700D01*
X133027100Y-72417700D02*
X122907100Y-72417700D01*
X133027100Y-67516700D02*
X122907100Y-67516700D01*
X133027100Y-66016700D02*
X122907100Y-66016700D01*
X127147100Y-70116700D02*
G75*
G03*
X127147100Y-70116700I-1680000J0D01*
G01*
X129783782Y-68581944D02*
G75*
G02*
X130467100Y-68436700I683318J-1534756D01*
G01*
X128931674Y-70799742D02*
G75*
G02*
X128932100Y-69432700I1535426J683042D01*
G01*
X131150142Y-71652126D02*
G75*
G02*
X129783100Y-71651700I-683042J1535426D01*
G01*
X132002526Y-69433658D02*
G75*
G02*
X132002100Y-70800700I-1535426J-683042D01*
G01*
X130438295Y-68436447D02*
G75*
G02*
X131151100Y-68581700I28805J-1680253D01*
G01*
%TO.C,J3*%
X116526000Y-110169000D02*
X119186000Y-110169000D01*
X116526000Y-72009000D02*
X116526000Y-110169000D01*
X119186000Y-72009000D02*
X119186000Y-110169000D01*
X116526000Y-72009000D02*
X119186000Y-72009000D01*
X116526000Y-70739000D02*
X116526000Y-69409000D01*
X116526000Y-69409000D02*
X117856000Y-69409000D01*
%TO.C,R1*%
X121215333Y-78792800D02*
X121557867Y-78792800D01*
X121215333Y-77772800D02*
X121557867Y-77772800D01*
%TO.C,J2*%
X136846000Y-69409000D02*
X138176000Y-69409000D01*
X136846000Y-70739000D02*
X136846000Y-69409000D01*
X136846000Y-72009000D02*
X139506000Y-72009000D01*
X139506000Y-72009000D02*
X139506000Y-100009000D01*
X136846000Y-72009000D02*
X136846000Y-100009000D01*
X136846000Y-100009000D02*
X139506000Y-100009000D01*
%TO.C,L1*%
D13*
X135110480Y-85955166D02*
X135110480Y-86431357D01*
X134110480Y-86431357D01*
X135110480Y-85098023D02*
X135110480Y-85669452D01*
X135110480Y-85383738D02*
X134110480Y-85383738D01*
X134253338Y-85478976D01*
X134348576Y-85574214D01*
X134396195Y-85669452D01*
%TO.C,C4*%
X128763733Y-81878442D02*
X128716114Y-81926061D01*
X128573257Y-81973680D01*
X128478019Y-81973680D01*
X128335161Y-81926061D01*
X128239923Y-81830823D01*
X128192304Y-81735585D01*
X128144685Y-81545109D01*
X128144685Y-81402252D01*
X128192304Y-81211776D01*
X128239923Y-81116538D01*
X128335161Y-81021300D01*
X128478019Y-80973680D01*
X128573257Y-80973680D01*
X128716114Y-81021300D01*
X128763733Y-81068919D01*
X129620876Y-81307014D02*
X129620876Y-81973680D01*
X129382780Y-80926061D02*
X129144685Y-81640347D01*
X129763733Y-81640347D01*
%TO.C,C9*%
X121232633Y-83326242D02*
X121185014Y-83373861D01*
X121042157Y-83421480D01*
X120946919Y-83421480D01*
X120804061Y-83373861D01*
X120708823Y-83278623D01*
X120661204Y-83183385D01*
X120613585Y-82992909D01*
X120613585Y-82850052D01*
X120661204Y-82659576D01*
X120708823Y-82564338D01*
X120804061Y-82469100D01*
X120946919Y-82421480D01*
X121042157Y-82421480D01*
X121185014Y-82469100D01*
X121232633Y-82516719D01*
X121708823Y-83421480D02*
X121899300Y-83421480D01*
X121994538Y-83373861D01*
X122042157Y-83326242D01*
X122137395Y-83183385D01*
X122185014Y-82992909D01*
X122185014Y-82611957D01*
X122137395Y-82516719D01*
X122089776Y-82469100D01*
X121994538Y-82421480D01*
X121804061Y-82421480D01*
X121708823Y-82469100D01*
X121661204Y-82516719D01*
X121613585Y-82611957D01*
X121613585Y-82850052D01*
X121661204Y-82945290D01*
X121708823Y-82992909D01*
X121804061Y-83040528D01*
X121994538Y-83040528D01*
X122089776Y-82992909D01*
X122137395Y-82945290D01*
X122185014Y-82850052D01*
%TO.C,C6*%
X134770833Y-76277742D02*
X134723214Y-76325361D01*
X134580357Y-76372980D01*
X134485119Y-76372980D01*
X134342261Y-76325361D01*
X134247023Y-76230123D01*
X134199404Y-76134885D01*
X134151785Y-75944409D01*
X134151785Y-75801552D01*
X134199404Y-75611076D01*
X134247023Y-75515838D01*
X134342261Y-75420600D01*
X134485119Y-75372980D01*
X134580357Y-75372980D01*
X134723214Y-75420600D01*
X134770833Y-75468219D01*
X135627976Y-75372980D02*
X135437500Y-75372980D01*
X135342261Y-75420600D01*
X135294642Y-75468219D01*
X135199404Y-75611076D01*
X135151785Y-75801552D01*
X135151785Y-76182504D01*
X135199404Y-76277742D01*
X135247023Y-76325361D01*
X135342261Y-76372980D01*
X135532738Y-76372980D01*
X135627976Y-76325361D01*
X135675595Y-76277742D01*
X135723214Y-76182504D01*
X135723214Y-75944409D01*
X135675595Y-75849171D01*
X135627976Y-75801552D01*
X135532738Y-75753933D01*
X135342261Y-75753933D01*
X135247023Y-75801552D01*
X135199404Y-75849171D01*
X135151785Y-75944409D01*
%TO.C,JP1*%
X127055666Y-78713080D02*
X127055666Y-79427366D01*
X127008047Y-79570223D01*
X126912809Y-79665461D01*
X126769952Y-79713080D01*
X126674714Y-79713080D01*
X127531857Y-79713080D02*
X127531857Y-78713080D01*
X127912809Y-78713080D01*
X128008047Y-78760700D01*
X128055666Y-78808319D01*
X128103285Y-78903557D01*
X128103285Y-79046414D01*
X128055666Y-79141652D01*
X128008047Y-79189271D01*
X127912809Y-79236890D01*
X127531857Y-79236890D01*
X129055666Y-79713080D02*
X128484238Y-79713080D01*
X128769952Y-79713080D02*
X128769952Y-78713080D01*
X128674714Y-78855938D01*
X128579476Y-78951176D01*
X128484238Y-78998795D01*
%TO.C,R2*%
X124102833Y-81275180D02*
X123769500Y-80798990D01*
X123531404Y-81275180D02*
X123531404Y-80275180D01*
X123912357Y-80275180D01*
X124007595Y-80322800D01*
X124055214Y-80370419D01*
X124102833Y-80465657D01*
X124102833Y-80608514D01*
X124055214Y-80703752D01*
X124007595Y-80751371D01*
X123912357Y-80798990D01*
X123531404Y-80798990D01*
X124483785Y-80370419D02*
X124531404Y-80322800D01*
X124626642Y-80275180D01*
X124864738Y-80275180D01*
X124959976Y-80322800D01*
X125007595Y-80370419D01*
X125055214Y-80465657D01*
X125055214Y-80560895D01*
X125007595Y-80703752D01*
X124436166Y-81275180D01*
X125055214Y-81275180D01*
%TO.C,C7*%
X120816642Y-91428866D02*
X120864261Y-91476485D01*
X120911880Y-91619342D01*
X120911880Y-91714580D01*
X120864261Y-91857438D01*
X120769023Y-91952676D01*
X120673785Y-92000295D01*
X120483309Y-92047914D01*
X120340452Y-92047914D01*
X120149976Y-92000295D01*
X120054738Y-91952676D01*
X119959500Y-91857438D01*
X119911880Y-91714580D01*
X119911880Y-91619342D01*
X119959500Y-91476485D01*
X120007119Y-91428866D01*
X119911880Y-91095533D02*
X119911880Y-90428866D01*
X120911880Y-90857438D01*
%TO.C,C8*%
X122416842Y-91454266D02*
X122464461Y-91501885D01*
X122512080Y-91644742D01*
X122512080Y-91739980D01*
X122464461Y-91882838D01*
X122369223Y-91978076D01*
X122273985Y-92025695D01*
X122083509Y-92073314D01*
X121940652Y-92073314D01*
X121750176Y-92025695D01*
X121654938Y-91978076D01*
X121559700Y-91882838D01*
X121512080Y-91739980D01*
X121512080Y-91644742D01*
X121559700Y-91501885D01*
X121607319Y-91454266D01*
X121940652Y-90882838D02*
X121893033Y-90978076D01*
X121845414Y-91025695D01*
X121750176Y-91073314D01*
X121702557Y-91073314D01*
X121607319Y-91025695D01*
X121559700Y-90978076D01*
X121512080Y-90882838D01*
X121512080Y-90692361D01*
X121559700Y-90597123D01*
X121607319Y-90549504D01*
X121702557Y-90501885D01*
X121750176Y-90501885D01*
X121845414Y-90549504D01*
X121893033Y-90597123D01*
X121940652Y-90692361D01*
X121940652Y-90882838D01*
X121988271Y-90978076D01*
X122035890Y-91025695D01*
X122131128Y-91073314D01*
X122321604Y-91073314D01*
X122416842Y-91025695D01*
X122464461Y-90978076D01*
X122512080Y-90882838D01*
X122512080Y-90692361D01*
X122464461Y-90597123D01*
X122416842Y-90549504D01*
X122321604Y-90501885D01*
X122131128Y-90501885D01*
X122035890Y-90549504D01*
X121988271Y-90597123D01*
X121940652Y-90692361D01*
%TO.C,C2*%
X123772633Y-92559142D02*
X123725014Y-92606761D01*
X123582157Y-92654380D01*
X123486919Y-92654380D01*
X123344061Y-92606761D01*
X123248823Y-92511523D01*
X123201204Y-92416285D01*
X123153585Y-92225809D01*
X123153585Y-92082952D01*
X123201204Y-91892476D01*
X123248823Y-91797238D01*
X123344061Y-91702000D01*
X123486919Y-91654380D01*
X123582157Y-91654380D01*
X123725014Y-91702000D01*
X123772633Y-91749619D01*
X124153585Y-91749619D02*
X124201204Y-91702000D01*
X124296442Y-91654380D01*
X124534538Y-91654380D01*
X124629776Y-91702000D01*
X124677395Y-91749619D01*
X124725014Y-91844857D01*
X124725014Y-91940095D01*
X124677395Y-92082952D01*
X124105966Y-92654380D01*
X124725014Y-92654380D01*
%TO.C,R4*%
X127922280Y-95670666D02*
X127446090Y-96004000D01*
X127922280Y-96242095D02*
X126922280Y-96242095D01*
X126922280Y-95861142D01*
X126969900Y-95765904D01*
X127017519Y-95718285D01*
X127112757Y-95670666D01*
X127255614Y-95670666D01*
X127350852Y-95718285D01*
X127398471Y-95765904D01*
X127446090Y-95861142D01*
X127446090Y-96242095D01*
X127255614Y-94813523D02*
X127922280Y-94813523D01*
X126874661Y-95051619D02*
X127588947Y-95289714D01*
X127588947Y-94670666D01*
%TO.C,D1*%
X133920004Y-90711280D02*
X133920004Y-89711280D01*
X134158100Y-89711280D01*
X134300957Y-89758900D01*
X134396195Y-89854138D01*
X134443814Y-89949376D01*
X134491433Y-90139852D01*
X134491433Y-90282709D01*
X134443814Y-90473185D01*
X134396195Y-90568423D01*
X134300957Y-90663661D01*
X134158100Y-90711280D01*
X133920004Y-90711280D01*
X135443814Y-90711280D02*
X134872385Y-90711280D01*
X135158100Y-90711280D02*
X135158100Y-89711280D01*
X135062861Y-89854138D01*
X134967623Y-89949376D01*
X134872385Y-89996995D01*
%TO.C,U1*%
X126009495Y-84466180D02*
X126009495Y-85275704D01*
X126057114Y-85370942D01*
X126104733Y-85418561D01*
X126199971Y-85466180D01*
X126390447Y-85466180D01*
X126485685Y-85418561D01*
X126533304Y-85370942D01*
X126580923Y-85275704D01*
X126580923Y-84466180D01*
X127580923Y-85466180D02*
X127009495Y-85466180D01*
X127295209Y-85466180D02*
X127295209Y-84466180D01*
X127199971Y-84609038D01*
X127104733Y-84704276D01*
X127009495Y-84751895D01*
%TO.C,R3*%
X130767080Y-95645266D02*
X130290890Y-95978600D01*
X130767080Y-96216695D02*
X129767080Y-96216695D01*
X129767080Y-95835742D01*
X129814700Y-95740504D01*
X129862319Y-95692885D01*
X129957557Y-95645266D01*
X130100414Y-95645266D01*
X130195652Y-95692885D01*
X130243271Y-95740504D01*
X130290890Y-95835742D01*
X130290890Y-96216695D01*
X129767080Y-95311933D02*
X129767080Y-94692885D01*
X130148033Y-95026219D01*
X130148033Y-94883361D01*
X130195652Y-94788123D01*
X130243271Y-94740504D01*
X130338509Y-94692885D01*
X130576604Y-94692885D01*
X130671842Y-94740504D01*
X130719461Y-94788123D01*
X130767080Y-94883361D01*
X130767080Y-95169076D01*
X130719461Y-95264314D01*
X130671842Y-95311933D01*
%TO.C,C5*%
X126303042Y-95721466D02*
X126350661Y-95769085D01*
X126398280Y-95911942D01*
X126398280Y-96007180D01*
X126350661Y-96150038D01*
X126255423Y-96245276D01*
X126160185Y-96292895D01*
X125969709Y-96340514D01*
X125826852Y-96340514D01*
X125636376Y-96292895D01*
X125541138Y-96245276D01*
X125445900Y-96150038D01*
X125398280Y-96007180D01*
X125398280Y-95911942D01*
X125445900Y-95769085D01*
X125493519Y-95721466D01*
X125398280Y-94816704D02*
X125398280Y-95292895D01*
X125874471Y-95340514D01*
X125826852Y-95292895D01*
X125779233Y-95197657D01*
X125779233Y-94959561D01*
X125826852Y-94864323D01*
X125874471Y-94816704D01*
X125969709Y-94769085D01*
X126207804Y-94769085D01*
X126303042Y-94816704D01*
X126350661Y-94864323D01*
X126398280Y-94959561D01*
X126398280Y-95197657D01*
X126350661Y-95292895D01*
X126303042Y-95340514D01*
%TO.C,C3*%
X132322842Y-95696066D02*
X132370461Y-95743685D01*
X132418080Y-95886542D01*
X132418080Y-95981780D01*
X132370461Y-96124638D01*
X132275223Y-96219876D01*
X132179985Y-96267495D01*
X131989509Y-96315114D01*
X131846652Y-96315114D01*
X131656176Y-96267495D01*
X131560938Y-96219876D01*
X131465700Y-96124638D01*
X131418080Y-95981780D01*
X131418080Y-95886542D01*
X131465700Y-95743685D01*
X131513319Y-95696066D01*
X131418080Y-95362733D02*
X131418080Y-94743685D01*
X131799033Y-95077019D01*
X131799033Y-94934161D01*
X131846652Y-94838923D01*
X131894271Y-94791304D01*
X131989509Y-94743685D01*
X132227604Y-94743685D01*
X132322842Y-94791304D01*
X132370461Y-94838923D01*
X132418080Y-94934161D01*
X132418080Y-95219876D01*
X132370461Y-95315114D01*
X132322842Y-95362733D01*
%TO.C,C1*%
X128154133Y-83694542D02*
X128106514Y-83742161D01*
X127963657Y-83789780D01*
X127868419Y-83789780D01*
X127725561Y-83742161D01*
X127630323Y-83646923D01*
X127582704Y-83551685D01*
X127535085Y-83361209D01*
X127535085Y-83218352D01*
X127582704Y-83027876D01*
X127630323Y-82932638D01*
X127725561Y-82837400D01*
X127868419Y-82789780D01*
X127963657Y-82789780D01*
X128106514Y-82837400D01*
X128154133Y-82885019D01*
X129106514Y-83789780D02*
X128535085Y-83789780D01*
X128820800Y-83789780D02*
X128820800Y-82789780D01*
X128725561Y-82932638D01*
X128630323Y-83027876D01*
X128535085Y-83075495D01*
%TO.C,J1*%
X121243766Y-74509380D02*
X121243766Y-75223666D01*
X121196147Y-75366523D01*
X121100909Y-75461761D01*
X120958052Y-75509380D01*
X120862814Y-75509380D01*
X122243766Y-75509380D02*
X121672338Y-75509380D01*
X121958052Y-75509380D02*
X121958052Y-74509380D01*
X121862814Y-74652238D01*
X121767576Y-74747476D01*
X121672338Y-74795095D01*
%TO.C,J3*%
X120316666Y-105878380D02*
X120316666Y-106592666D01*
X120269047Y-106735523D01*
X120173809Y-106830761D01*
X120030952Y-106878380D01*
X119935714Y-106878380D01*
X120697619Y-105878380D02*
X121316666Y-105878380D01*
X120983333Y-106259333D01*
X121126190Y-106259333D01*
X121221428Y-106306952D01*
X121269047Y-106354571D01*
X121316666Y-106449809D01*
X121316666Y-106687904D01*
X121269047Y-106783142D01*
X121221428Y-106830761D01*
X121126190Y-106878380D01*
X120840476Y-106878380D01*
X120745238Y-106830761D01*
X120697619Y-106783142D01*
%TO.C,R1*%
X121219933Y-77338180D02*
X120886600Y-76861990D01*
X120648504Y-77338180D02*
X120648504Y-76338180D01*
X121029457Y-76338180D01*
X121124695Y-76385800D01*
X121172314Y-76433419D01*
X121219933Y-76528657D01*
X121219933Y-76671514D01*
X121172314Y-76766752D01*
X121124695Y-76814371D01*
X121029457Y-76861990D01*
X120648504Y-76861990D01*
X122172314Y-77338180D02*
X121600885Y-77338180D01*
X121886600Y-77338180D02*
X121886600Y-76338180D01*
X121791361Y-76481038D01*
X121696123Y-76576276D01*
X121600885Y-76623895D01*
%TO.C,J2*%
X135048666Y-98258380D02*
X135048666Y-98972666D01*
X135001047Y-99115523D01*
X134905809Y-99210761D01*
X134762952Y-99258380D01*
X134667714Y-99258380D01*
X135477238Y-98353619D02*
X135524857Y-98306000D01*
X135620095Y-98258380D01*
X135858190Y-98258380D01*
X135953428Y-98306000D01*
X136001047Y-98353619D01*
X136048666Y-98448857D01*
X136048666Y-98544095D01*
X136001047Y-98686952D01*
X135429619Y-99258380D01*
X136048666Y-99258380D01*
%TD*%
M02*
