%TF.GenerationSoftware,KiCad,Pcbnew,5.1.6-c6e7f7d~87~ubuntu18.04.1*%
%TF.CreationDate,2020-09-21T15:30:31-07:00*%
%TF.ProjectId,feather-power-supply-sw-smd,66656174-6865-4722-9d70-6f7765722d73,rev?*%
%TF.SameCoordinates,Original*%
%TF.FileFunction,Soldermask,Bot*%
%TF.FilePolarity,Negative*%
%FSLAX46Y46*%
G04 Gerber Fmt 4.6, Leading zero omitted, Abs format (unit mm)*
G04 Created by KiCad (PCBNEW 5.1.6-c6e7f7d~87~ubuntu18.04.1) date 2020-09-21 15:30:31*
%MOMM*%
%LPD*%
G01*
G04 APERTURE LIST*
%ADD10C,0.150000*%
%ADD11C,2.801600*%
%ADD12O,1.801600X1.801600*%
%ADD13R,1.801600X1.801600*%
%ADD14R,2.701600X2.701600*%
%ADD15C,2.701600*%
%ADD16C,5.101600*%
G04 APERTURE END LIST*
D10*
X145273766Y-106326466D02*
X144797575Y-106326466D01*
X145404718Y-106612180D02*
X144946385Y-105612180D01*
X144738051Y-106612180D01*
X144321385Y-105945514D02*
X144404718Y-106612180D01*
X144333289Y-106040752D02*
X144279718Y-105993133D01*
X144178527Y-105945514D01*
X144035670Y-105945514D01*
X143946385Y-105993133D01*
X143910670Y-106088371D01*
X143976147Y-106612180D01*
X143071385Y-106612180D02*
X143005908Y-106088371D01*
X143041623Y-105993133D01*
X143130908Y-105945514D01*
X143321385Y-105945514D01*
X143422575Y-105993133D01*
X143065432Y-106564561D02*
X143166623Y-106612180D01*
X143404718Y-106612180D01*
X143494004Y-106564561D01*
X143529718Y-106469323D01*
X143517813Y-106374085D01*
X143458289Y-106278847D01*
X143357099Y-106231228D01*
X143119004Y-106231228D01*
X143017813Y-106183609D01*
X142511861Y-105945514D02*
X142636861Y-106945514D01*
X142517813Y-105993133D02*
X142416623Y-105945514D01*
X142226147Y-105945514D01*
X142136861Y-105993133D01*
X142095194Y-106040752D01*
X142059480Y-106135990D01*
X142095194Y-106421704D01*
X142154718Y-106516942D01*
X142208289Y-106564561D01*
X142309480Y-106612180D01*
X142499956Y-106612180D01*
X142589242Y-106564561D01*
X141547575Y-106612180D02*
X141636861Y-106564561D01*
X141678527Y-106516942D01*
X141714242Y-106421704D01*
X141678527Y-106135990D01*
X141619004Y-106040752D01*
X141565432Y-105993133D01*
X141464242Y-105945514D01*
X141321385Y-105945514D01*
X141232099Y-105993133D01*
X141190432Y-106040752D01*
X141154718Y-106135990D01*
X141190432Y-106421704D01*
X141249956Y-106516942D01*
X141303527Y-106564561D01*
X141404718Y-106612180D01*
X141547575Y-106612180D01*
X140827337Y-106564561D02*
X140738051Y-106612180D01*
X140547575Y-106612180D01*
X140446385Y-106564561D01*
X140386861Y-106469323D01*
X140380908Y-106421704D01*
X140416623Y-106326466D01*
X140505908Y-106278847D01*
X140648766Y-106278847D01*
X140738051Y-106231228D01*
X140773766Y-106135990D01*
X140767813Y-106088371D01*
X140708289Y-105993133D01*
X140607099Y-105945514D01*
X140464242Y-105945514D01*
X140374956Y-105993133D01*
X139255908Y-106564561D02*
X139119004Y-106612180D01*
X138880908Y-106612180D01*
X138779718Y-106564561D01*
X138726147Y-106516942D01*
X138666623Y-106421704D01*
X138654718Y-106326466D01*
X138690432Y-106231228D01*
X138732099Y-106183609D01*
X138821385Y-106135990D01*
X139005908Y-106088371D01*
X139095194Y-106040752D01*
X139136861Y-105993133D01*
X139172575Y-105897895D01*
X139160670Y-105802657D01*
X139101147Y-105707419D01*
X139047575Y-105659800D01*
X138946385Y-105612180D01*
X138708289Y-105612180D01*
X138571385Y-105659800D01*
X137874956Y-106564561D02*
X137976147Y-106612180D01*
X138166623Y-106612180D01*
X138255908Y-106564561D01*
X138291623Y-106469323D01*
X138244004Y-106088371D01*
X138184480Y-105993133D01*
X138083289Y-105945514D01*
X137892813Y-105945514D01*
X137803527Y-105993133D01*
X137767813Y-106088371D01*
X137779718Y-106183609D01*
X138267813Y-106278847D01*
X137321385Y-105945514D02*
X137404718Y-106612180D01*
X137333289Y-106040752D02*
X137279718Y-105993133D01*
X137178527Y-105945514D01*
X137035670Y-105945514D01*
X136946385Y-105993133D01*
X136910670Y-106088371D01*
X136976147Y-106612180D01*
X136541623Y-106564561D02*
X136452337Y-106612180D01*
X136261861Y-106612180D01*
X136160670Y-106564561D01*
X136101147Y-106469323D01*
X136095194Y-106421704D01*
X136130908Y-106326466D01*
X136220194Y-106278847D01*
X136363051Y-106278847D01*
X136452337Y-106231228D01*
X136488051Y-106135990D01*
X136482099Y-106088371D01*
X136422575Y-105993133D01*
X136321385Y-105945514D01*
X136178527Y-105945514D01*
X136089242Y-105993133D01*
X135690432Y-106612180D02*
X135607099Y-105945514D01*
X135565432Y-105612180D02*
X135619004Y-105659800D01*
X135577337Y-105707419D01*
X135523766Y-105659800D01*
X135565432Y-105612180D01*
X135577337Y-105707419D01*
X135130908Y-105945514D02*
X135214242Y-106612180D01*
X135142813Y-106040752D02*
X135089242Y-105993133D01*
X134988051Y-105945514D01*
X134845194Y-105945514D01*
X134755908Y-105993133D01*
X134720194Y-106088371D01*
X134785670Y-106612180D01*
X133797575Y-105945514D02*
X133898766Y-106755038D01*
X133958289Y-106850276D01*
X134011861Y-106897895D01*
X134113051Y-106945514D01*
X134255908Y-106945514D01*
X134345194Y-106897895D01*
X133874956Y-106564561D02*
X133976147Y-106612180D01*
X134166623Y-106612180D01*
X134255908Y-106564561D01*
X134297575Y-106516942D01*
X134333289Y-106421704D01*
X134297575Y-106135990D01*
X134238051Y-106040752D01*
X134184480Y-105993133D01*
X134083289Y-105945514D01*
X133892813Y-105945514D01*
X133803527Y-105993133D01*
X145095194Y-108262180D02*
X145029718Y-107738371D01*
X145065432Y-107643133D01*
X145154718Y-107595514D01*
X145345194Y-107595514D01*
X145446385Y-107643133D01*
X145089242Y-108214561D02*
X145190432Y-108262180D01*
X145428527Y-108262180D01*
X145517813Y-108214561D01*
X145553527Y-108119323D01*
X145541623Y-108024085D01*
X145482099Y-107928847D01*
X145380908Y-107881228D01*
X145142813Y-107881228D01*
X145041623Y-107833609D01*
X144535670Y-107595514D02*
X144619004Y-108262180D01*
X144547575Y-107690752D02*
X144494004Y-107643133D01*
X144392813Y-107595514D01*
X144249956Y-107595514D01*
X144160670Y-107643133D01*
X144124956Y-107738371D01*
X144190432Y-108262180D01*
X143285670Y-108262180D02*
X143160670Y-107262180D01*
X143279718Y-108214561D02*
X143380908Y-108262180D01*
X143571385Y-108262180D01*
X143660670Y-108214561D01*
X143702337Y-108166942D01*
X143738051Y-108071704D01*
X143702337Y-107785990D01*
X143642813Y-107690752D01*
X143589242Y-107643133D01*
X143488051Y-107595514D01*
X143297575Y-107595514D01*
X143208289Y-107643133D01*
X142047575Y-108262180D02*
X141922575Y-107262180D01*
X141684480Y-107262180D01*
X141547575Y-107309800D01*
X141464242Y-107405038D01*
X141428527Y-107500276D01*
X141404718Y-107690752D01*
X141422575Y-107833609D01*
X141494004Y-108024085D01*
X141553527Y-108119323D01*
X141660670Y-108214561D01*
X141809480Y-108262180D01*
X142047575Y-108262180D01*
X140660670Y-108214561D02*
X140761861Y-108262180D01*
X140952337Y-108262180D01*
X141041623Y-108214561D01*
X141077337Y-108119323D01*
X141029718Y-107738371D01*
X140970194Y-107643133D01*
X140869004Y-107595514D01*
X140678527Y-107595514D01*
X140589242Y-107643133D01*
X140553527Y-107738371D01*
X140565432Y-107833609D01*
X141053527Y-107928847D01*
X140232099Y-108214561D02*
X140142813Y-108262180D01*
X139952337Y-108262180D01*
X139851147Y-108214561D01*
X139791623Y-108119323D01*
X139785670Y-108071704D01*
X139821385Y-107976466D01*
X139910670Y-107928847D01*
X140053527Y-107928847D01*
X140142813Y-107881228D01*
X140178527Y-107785990D01*
X140172575Y-107738371D01*
X140113051Y-107643133D01*
X140011861Y-107595514D01*
X139869004Y-107595514D01*
X139779718Y-107643133D01*
X139380908Y-108262180D02*
X139297575Y-107595514D01*
X139255908Y-107262180D02*
X139309480Y-107309800D01*
X139267813Y-107357419D01*
X139214242Y-107309800D01*
X139255908Y-107262180D01*
X139267813Y-107357419D01*
X138392813Y-107595514D02*
X138494004Y-108405038D01*
X138553527Y-108500276D01*
X138607099Y-108547895D01*
X138708289Y-108595514D01*
X138851147Y-108595514D01*
X138940432Y-108547895D01*
X138470194Y-108214561D02*
X138571385Y-108262180D01*
X138761861Y-108262180D01*
X138851147Y-108214561D01*
X138892813Y-108166942D01*
X138928527Y-108071704D01*
X138892813Y-107785990D01*
X138833289Y-107690752D01*
X138779718Y-107643133D01*
X138678527Y-107595514D01*
X138488051Y-107595514D01*
X138398766Y-107643133D01*
X137916623Y-107595514D02*
X137999956Y-108262180D01*
X137928527Y-107690752D02*
X137874956Y-107643133D01*
X137773766Y-107595514D01*
X137630908Y-107595514D01*
X137541623Y-107643133D01*
X137505908Y-107738371D01*
X137571385Y-108262180D01*
X137041623Y-108214561D02*
X137047575Y-108262180D01*
X137107099Y-108357419D01*
X137160670Y-108405038D01*
X135857099Y-108262180D02*
X135732099Y-107262180D01*
X135297575Y-107595514D02*
X135380908Y-108262180D01*
X135309480Y-107690752D02*
X135255908Y-107643133D01*
X135154718Y-107595514D01*
X135011861Y-107595514D01*
X134922575Y-107643133D01*
X134886861Y-107738371D01*
X134952337Y-108262180D01*
X134041623Y-108214561D02*
X134142813Y-108262180D01*
X134333289Y-108262180D01*
X134422575Y-108214561D01*
X134464242Y-108166942D01*
X134499956Y-108071704D01*
X134464242Y-107785990D01*
X134404718Y-107690752D01*
X134351147Y-107643133D01*
X134249956Y-107595514D01*
X134059480Y-107595514D01*
X133970194Y-107643133D01*
X133607099Y-108166942D02*
X133565432Y-108214561D01*
X133619004Y-108262180D01*
X133660670Y-108214561D01*
X133607099Y-108166942D01*
X133619004Y-108262180D01*
D11*
%TO.C,H3*%
X148615400Y-107010200D03*
%TD*%
D12*
%TO.C,J5*%
X134874000Y-104063800D03*
X137414000Y-104063800D03*
X139954000Y-104063800D03*
D13*
X142494000Y-104063800D03*
%TD*%
D14*
%TO.C,J1*%
X142176500Y-64643000D03*
D15*
X137176500Y-64643000D03*
%TD*%
D16*
%TO.C,H2*%
X148615400Y-61671200D03*
%TD*%
%TO.C,H1*%
X130810000Y-61696600D03*
%TD*%
D11*
%TO.C,H4*%
X130810000Y-107010200D03*
%TD*%
D12*
%TO.C,J3*%
X129565400Y-104089200D03*
X129565400Y-101549200D03*
X129565400Y-99009200D03*
X129565400Y-96469200D03*
X129565400Y-93929200D03*
X129565400Y-91389200D03*
X129565400Y-88849200D03*
X129565400Y-86309200D03*
X129565400Y-83769200D03*
X129565400Y-81229200D03*
X129565400Y-78689200D03*
X129565400Y-76149200D03*
X129565400Y-73609200D03*
X129565400Y-71069200D03*
X129565400Y-68529200D03*
D13*
X129565400Y-65989200D03*
%TD*%
%TO.C,J2*%
X149885400Y-65989200D03*
D12*
X149885400Y-68529200D03*
X149885400Y-71069200D03*
X149885400Y-73609200D03*
X149885400Y-76149200D03*
X149885400Y-78689200D03*
X149885400Y-81229200D03*
X149885400Y-83769200D03*
X149885400Y-86309200D03*
X149885400Y-88849200D03*
X149885400Y-91389200D03*
X149885400Y-93929200D03*
%TD*%
M02*
