%TF.GenerationSoftware,KiCad,Pcbnew,5.1.6-c6e7f7d~87~ubuntu18.04.1*%
%TF.CreationDate,2020-09-16T17:40:28-07:00*%
%TF.ProjectId,feather-power-supply-sw-smd,66656174-6865-4722-9d70-6f7765722d73,rev?*%
%TF.SameCoordinates,Original*%
%TF.FileFunction,Soldermask,Top*%
%TF.FilePolarity,Negative*%
%FSLAX46Y46*%
G04 Gerber Fmt 4.6, Leading zero omitted, Abs format (unit mm)*
G04 Created by KiCad (PCBNEW 5.1.6-c6e7f7d~87~ubuntu18.04.1) date 2020-09-16 17:40:28*
%MOMM*%
%LPD*%
G01*
G04 APERTURE LIST*
%ADD10C,2.801600*%
%ADD11C,1.701600*%
%ADD12O,1.801600X1.801600*%
%ADD13R,1.801600X1.801600*%
%ADD14R,2.701600X2.701600*%
%ADD15C,2.701600*%
%ADD16C,5.101600*%
%ADD17R,1.101600X4.501600*%
%ADD18C,0.100000*%
%ADD19R,1.201600X1.201600*%
%ADD20R,2.101600X0.701600*%
G04 APERTURE END LIST*
%TO.C,J4*%
G36*
G01*
X150281034Y-97749000D02*
X148921766Y-97749000D01*
G75*
G02*
X148650600Y-97477834I0J271166D01*
G01*
X148650600Y-96718566D01*
G75*
G02*
X148921766Y-96447400I271166J0D01*
G01*
X150281034Y-96447400D01*
G75*
G02*
X150552200Y-96718566I0J-271166D01*
G01*
X150552200Y-97477834D01*
G75*
G02*
X150281034Y-97749000I-271166J0D01*
G01*
G37*
G36*
G01*
X150281034Y-103349000D02*
X148921766Y-103349000D01*
G75*
G02*
X148650600Y-103077834I0J271166D01*
G01*
X148650600Y-102318566D01*
G75*
G02*
X148921766Y-102047400I271166J0D01*
G01*
X150281034Y-102047400D01*
G75*
G02*
X150552200Y-102318566I0J-271166D01*
G01*
X150552200Y-103077834D01*
G75*
G02*
X150281034Y-103349000I-271166J0D01*
G01*
G37*
G36*
G01*
X146376800Y-98749000D02*
X145076000Y-98749000D01*
G75*
G02*
X144900600Y-98573600I0J175400D01*
G01*
X144900600Y-98222800D01*
G75*
G02*
X145076000Y-98047400I175400J0D01*
G01*
X146376800Y-98047400D01*
G75*
G02*
X146552200Y-98222800I0J-175400D01*
G01*
X146552200Y-98573600D01*
G75*
G02*
X146376800Y-98749000I-175400J0D01*
G01*
G37*
G36*
G01*
X146376800Y-99749000D02*
X145076000Y-99749000D01*
G75*
G02*
X144900600Y-99573600I0J175400D01*
G01*
X144900600Y-99222800D01*
G75*
G02*
X145076000Y-99047400I175400J0D01*
G01*
X146376800Y-99047400D01*
G75*
G02*
X146552200Y-99222800I0J-175400D01*
G01*
X146552200Y-99573600D01*
G75*
G02*
X146376800Y-99749000I-175400J0D01*
G01*
G37*
G36*
G01*
X146376800Y-100749000D02*
X145076000Y-100749000D01*
G75*
G02*
X144900600Y-100573600I0J175400D01*
G01*
X144900600Y-100222800D01*
G75*
G02*
X145076000Y-100047400I175400J0D01*
G01*
X146376800Y-100047400D01*
G75*
G02*
X146552200Y-100222800I0J-175400D01*
G01*
X146552200Y-100573600D01*
G75*
G02*
X146376800Y-100749000I-175400J0D01*
G01*
G37*
G36*
G01*
X146376800Y-101749000D02*
X145076000Y-101749000D01*
G75*
G02*
X144900600Y-101573600I0J175400D01*
G01*
X144900600Y-101222800D01*
G75*
G02*
X145076000Y-101047400I175400J0D01*
G01*
X146376800Y-101047400D01*
G75*
G02*
X146552200Y-101222800I0J-175400D01*
G01*
X146552200Y-101573600D01*
G75*
G02*
X146376800Y-101749000I-175400J0D01*
G01*
G37*
%TD*%
D10*
%TO.C,H3*%
X148615400Y-107010200D03*
%TD*%
%TO.C,R5*%
G36*
G01*
X146947900Y-91775800D02*
X146422100Y-91775800D01*
G75*
G02*
X146159200Y-91512900I0J262900D01*
G01*
X146159200Y-90887100D01*
G75*
G02*
X146422100Y-90624200I262900J0D01*
G01*
X146947900Y-90624200D01*
G75*
G02*
X147210800Y-90887100I0J-262900D01*
G01*
X147210800Y-91512900D01*
G75*
G02*
X146947900Y-91775800I-262900J0D01*
G01*
G37*
G36*
G01*
X146947900Y-93525800D02*
X146422100Y-93525800D01*
G75*
G02*
X146159200Y-93262900I0J262900D01*
G01*
X146159200Y-92637100D01*
G75*
G02*
X146422100Y-92374200I262900J0D01*
G01*
X146947900Y-92374200D01*
G75*
G02*
X147210800Y-92637100I0J-262900D01*
G01*
X147210800Y-93262900D01*
G75*
G02*
X146947900Y-93525800I-262900J0D01*
G01*
G37*
%TD*%
%TO.C,D2*%
G36*
G01*
X145211262Y-92206800D02*
X144348738Y-92206800D01*
G75*
G02*
X144079200Y-91937262I0J269538D01*
G01*
X144079200Y-91049738D01*
G75*
G02*
X144348738Y-90780200I269538J0D01*
G01*
X145211262Y-90780200D01*
G75*
G02*
X145480800Y-91049738I0J-269538D01*
G01*
X145480800Y-91937262D01*
G75*
G02*
X145211262Y-92206800I-269538J0D01*
G01*
G37*
G36*
G01*
X145211262Y-94131800D02*
X144348738Y-94131800D01*
G75*
G02*
X144079200Y-93862262I0J269538D01*
G01*
X144079200Y-92974738D01*
G75*
G02*
X144348738Y-92705200I269538J0D01*
G01*
X145211262Y-92705200D01*
G75*
G02*
X145480800Y-92974738I0J-269538D01*
G01*
X145480800Y-93862262D01*
G75*
G02*
X145211262Y-94131800I-269538J0D01*
G01*
G37*
%TD*%
D11*
%TO.C,REF\u002A\u002A*%
X137414000Y-91440000D03*
X139954000Y-91440000D03*
X132334000Y-91414600D03*
X134874000Y-91440000D03*
X142494000Y-91440000D03*
X139954000Y-93980000D03*
X132334000Y-93980000D03*
X142494000Y-93980000D03*
X134874000Y-93980000D03*
X137414000Y-93980000D03*
X134874000Y-96520000D03*
X132334000Y-96520000D03*
X139954000Y-96520000D03*
X137414000Y-96520000D03*
X142494000Y-96520000D03*
X142494000Y-99060000D03*
X137414000Y-99060000D03*
X134874000Y-99060000D03*
X132334000Y-99060000D03*
X139954000Y-99060000D03*
%TD*%
D12*
%TO.C,J5*%
X134874000Y-104063800D03*
X137414000Y-104063800D03*
X139954000Y-104063800D03*
D13*
X142494000Y-104063800D03*
%TD*%
D14*
%TO.C,J1*%
X142176500Y-65366900D03*
D15*
X137176500Y-65366900D03*
%TD*%
%TO.C,F1*%
G36*
G01*
X135650221Y-77091600D02*
X138517379Y-77091600D01*
G75*
G02*
X138784600Y-77358821I0J-267221D01*
G01*
X138784600Y-78400979D01*
G75*
G02*
X138517379Y-78668200I-267221J0D01*
G01*
X135650221Y-78668200D01*
G75*
G02*
X135383000Y-78400979I0J267221D01*
G01*
X135383000Y-77358821D01*
G75*
G02*
X135650221Y-77091600I267221J0D01*
G01*
G37*
G36*
G01*
X135650221Y-72766600D02*
X138517379Y-72766600D01*
G75*
G02*
X138784600Y-73033821I0J-267221D01*
G01*
X138784600Y-74075979D01*
G75*
G02*
X138517379Y-74343200I-267221J0D01*
G01*
X135650221Y-74343200D01*
G75*
G02*
X135383000Y-74075979I0J267221D01*
G01*
X135383000Y-73033821D01*
G75*
G02*
X135650221Y-72766600I267221J0D01*
G01*
G37*
%TD*%
D16*
%TO.C,H2*%
X148615400Y-61671200D03*
%TD*%
%TO.C,H1*%
X130810000Y-61696600D03*
%TD*%
D17*
%TO.C,L1*%
X147755200Y-80746600D03*
X145005200Y-80746600D03*
%TD*%
%TO.C,C5*%
G36*
G01*
X144462200Y-75625425D02*
X144462200Y-77841375D01*
G75*
G02*
X144194375Y-78109200I-267825J0D01*
G01*
X143203425Y-78109200D01*
G75*
G02*
X142935600Y-77841375I0J267825D01*
G01*
X142935600Y-75625425D01*
G75*
G02*
X143203425Y-75357600I267825J0D01*
G01*
X144194375Y-75357600D01*
G75*
G02*
X144462200Y-75625425I0J-267825D01*
G01*
G37*
G36*
G01*
X147437200Y-75625425D02*
X147437200Y-77841375D01*
G75*
G02*
X147169375Y-78109200I-267825J0D01*
G01*
X146178425Y-78109200D01*
G75*
G02*
X145910600Y-77841375I0J267825D01*
G01*
X145910600Y-75625425D01*
G75*
G02*
X146178425Y-75357600I267825J0D01*
G01*
X147169375Y-75357600D01*
G75*
G02*
X147437200Y-75625425I0J-267825D01*
G01*
G37*
%TD*%
%TO.C,C9*%
G36*
G01*
X133395200Y-79129900D02*
X133395200Y-78604100D01*
G75*
G02*
X133658100Y-78341200I262900J0D01*
G01*
X134283900Y-78341200D01*
G75*
G02*
X134546800Y-78604100I0J-262900D01*
G01*
X134546800Y-79129900D01*
G75*
G02*
X134283900Y-79392800I-262900J0D01*
G01*
X133658100Y-79392800D01*
G75*
G02*
X133395200Y-79129900I0J262900D01*
G01*
G37*
G36*
G01*
X131645200Y-79129900D02*
X131645200Y-78604100D01*
G75*
G02*
X131908100Y-78341200I262900J0D01*
G01*
X132533900Y-78341200D01*
G75*
G02*
X132796800Y-78604100I0J-262900D01*
G01*
X132796800Y-79129900D01*
G75*
G02*
X132533900Y-79392800I-262900J0D01*
G01*
X131908100Y-79392800D01*
G75*
G02*
X131645200Y-79129900I0J262900D01*
G01*
G37*
%TD*%
%TO.C,C6*%
G36*
G01*
X144462200Y-72386925D02*
X144462200Y-74602875D01*
G75*
G02*
X144194375Y-74870700I-267825J0D01*
G01*
X143203425Y-74870700D01*
G75*
G02*
X142935600Y-74602875I0J267825D01*
G01*
X142935600Y-72386925D01*
G75*
G02*
X143203425Y-72119100I267825J0D01*
G01*
X144194375Y-72119100D01*
G75*
G02*
X144462200Y-72386925I0J-267825D01*
G01*
G37*
G36*
G01*
X147437200Y-72386925D02*
X147437200Y-74602875D01*
G75*
G02*
X147169375Y-74870700I-267825J0D01*
G01*
X146178425Y-74870700D01*
G75*
G02*
X145910600Y-74602875I0J267825D01*
G01*
X145910600Y-72386925D01*
G75*
G02*
X146178425Y-72119100I267825J0D01*
G01*
X147169375Y-72119100D01*
G75*
G02*
X147437200Y-72386925I0J-267825D01*
G01*
G37*
%TD*%
D18*
%TO.C,JP1*%
G36*
X133398889Y-73240624D02*
G01*
X133389360Y-73237733D01*
X133380577Y-73233039D01*
X133372879Y-73226721D01*
X133366561Y-73219023D01*
X133361867Y-73210240D01*
X133358976Y-73200711D01*
X133358000Y-73190800D01*
X133358000Y-71690800D01*
X133358976Y-71680889D01*
X133361867Y-71671360D01*
X133366561Y-71662577D01*
X133372879Y-71654879D01*
X133380577Y-71648561D01*
X133389360Y-71643867D01*
X133398889Y-71640976D01*
X133408800Y-71640000D01*
X133908800Y-71640000D01*
X133914913Y-71640602D01*
X133933334Y-71640602D01*
X133938314Y-71640847D01*
X133987145Y-71645657D01*
X133992075Y-71646388D01*
X134040200Y-71655960D01*
X134045037Y-71657172D01*
X134091992Y-71671416D01*
X134096685Y-71673095D01*
X134142018Y-71691872D01*
X134146526Y-71694004D01*
X134189799Y-71717135D01*
X134194073Y-71719697D01*
X134234872Y-71746957D01*
X134238877Y-71749927D01*
X134276806Y-71781055D01*
X134280500Y-71784403D01*
X134315197Y-71819100D01*
X134318545Y-71822794D01*
X134349673Y-71860723D01*
X134352643Y-71864728D01*
X134379903Y-71905527D01*
X134382465Y-71909801D01*
X134405596Y-71953074D01*
X134407728Y-71957582D01*
X134426505Y-72002915D01*
X134428184Y-72007608D01*
X134442428Y-72054563D01*
X134443640Y-72059400D01*
X134453212Y-72107525D01*
X134453943Y-72112455D01*
X134458753Y-72161286D01*
X134458998Y-72166266D01*
X134458998Y-72184687D01*
X134459600Y-72190800D01*
X134459600Y-72690800D01*
X134458998Y-72696913D01*
X134458998Y-72715334D01*
X134458753Y-72720314D01*
X134453943Y-72769145D01*
X134453212Y-72774075D01*
X134443640Y-72822200D01*
X134442428Y-72827037D01*
X134428184Y-72873992D01*
X134426505Y-72878685D01*
X134407728Y-72924018D01*
X134405596Y-72928526D01*
X134382465Y-72971799D01*
X134379903Y-72976073D01*
X134352643Y-73016872D01*
X134349673Y-73020877D01*
X134318545Y-73058806D01*
X134315197Y-73062500D01*
X134280500Y-73097197D01*
X134276806Y-73100545D01*
X134238877Y-73131673D01*
X134234872Y-73134643D01*
X134194073Y-73161903D01*
X134189799Y-73164465D01*
X134146526Y-73187596D01*
X134142018Y-73189728D01*
X134096685Y-73208505D01*
X134091992Y-73210184D01*
X134045037Y-73224428D01*
X134040200Y-73225640D01*
X133992075Y-73235212D01*
X133987145Y-73235943D01*
X133938314Y-73240753D01*
X133933334Y-73240998D01*
X133914913Y-73240998D01*
X133908800Y-73241600D01*
X133408800Y-73241600D01*
X133398889Y-73240624D01*
G37*
G36*
X132602687Y-73240998D02*
G01*
X132584266Y-73240998D01*
X132579286Y-73240753D01*
X132530455Y-73235943D01*
X132525525Y-73235212D01*
X132477400Y-73225640D01*
X132472563Y-73224428D01*
X132425608Y-73210184D01*
X132420915Y-73208505D01*
X132375582Y-73189728D01*
X132371074Y-73187596D01*
X132327801Y-73164465D01*
X132323527Y-73161903D01*
X132282728Y-73134643D01*
X132278723Y-73131673D01*
X132240794Y-73100545D01*
X132237100Y-73097197D01*
X132202403Y-73062500D01*
X132199055Y-73058806D01*
X132167927Y-73020877D01*
X132164957Y-73016872D01*
X132137697Y-72976073D01*
X132135135Y-72971799D01*
X132112004Y-72928526D01*
X132109872Y-72924018D01*
X132091095Y-72878685D01*
X132089416Y-72873992D01*
X132075172Y-72827037D01*
X132073960Y-72822200D01*
X132064388Y-72774075D01*
X132063657Y-72769145D01*
X132058847Y-72720314D01*
X132058602Y-72715334D01*
X132058602Y-72696913D01*
X132058000Y-72690800D01*
X132058000Y-72190800D01*
X132058602Y-72184687D01*
X132058602Y-72166266D01*
X132058847Y-72161286D01*
X132063657Y-72112455D01*
X132064388Y-72107525D01*
X132073960Y-72059400D01*
X132075172Y-72054563D01*
X132089416Y-72007608D01*
X132091095Y-72002915D01*
X132109872Y-71957582D01*
X132112004Y-71953074D01*
X132135135Y-71909801D01*
X132137697Y-71905527D01*
X132164957Y-71864728D01*
X132167927Y-71860723D01*
X132199055Y-71822794D01*
X132202403Y-71819100D01*
X132237100Y-71784403D01*
X132240794Y-71781055D01*
X132278723Y-71749927D01*
X132282728Y-71746957D01*
X132323527Y-71719697D01*
X132327801Y-71717135D01*
X132371074Y-71694004D01*
X132375582Y-71691872D01*
X132420915Y-71673095D01*
X132425608Y-71671416D01*
X132472563Y-71657172D01*
X132477400Y-71655960D01*
X132525525Y-71646388D01*
X132530455Y-71645657D01*
X132579286Y-71640847D01*
X132584266Y-71640602D01*
X132602687Y-71640602D01*
X132608800Y-71640000D01*
X133108800Y-71640000D01*
X133118711Y-71640976D01*
X133128240Y-71643867D01*
X133137023Y-71648561D01*
X133144721Y-71654879D01*
X133151039Y-71662577D01*
X133155733Y-71671360D01*
X133158624Y-71680889D01*
X133159600Y-71690800D01*
X133159600Y-73190800D01*
X133158624Y-73200711D01*
X133155733Y-73210240D01*
X133151039Y-73219023D01*
X133144721Y-73226721D01*
X133137023Y-73233039D01*
X133128240Y-73237733D01*
X133118711Y-73240624D01*
X133108800Y-73241600D01*
X132608800Y-73241600D01*
X132602687Y-73240998D01*
G37*
%TD*%
%TO.C,R4*%
G36*
G01*
X133395200Y-77605900D02*
X133395200Y-77080100D01*
G75*
G02*
X133658100Y-76817200I262900J0D01*
G01*
X134283900Y-76817200D01*
G75*
G02*
X134546800Y-77080100I0J-262900D01*
G01*
X134546800Y-77605900D01*
G75*
G02*
X134283900Y-77868800I-262900J0D01*
G01*
X133658100Y-77868800D01*
G75*
G02*
X133395200Y-77605900I0J262900D01*
G01*
G37*
G36*
G01*
X131645200Y-77605900D02*
X131645200Y-77080100D01*
G75*
G02*
X131908100Y-76817200I262900J0D01*
G01*
X132533900Y-76817200D01*
G75*
G02*
X132796800Y-77080100I0J-262900D01*
G01*
X132796800Y-77605900D01*
G75*
G02*
X132533900Y-77868800I-262900J0D01*
G01*
X131908100Y-77868800D01*
G75*
G02*
X131645200Y-77605900I0J262900D01*
G01*
G37*
%TD*%
D10*
%TO.C,H4*%
X130810000Y-107010200D03*
%TD*%
%TO.C,C3*%
G36*
G01*
X133468100Y-83027000D02*
X133993900Y-83027000D01*
G75*
G02*
X134256800Y-83289900I0J-262900D01*
G01*
X134256800Y-83915700D01*
G75*
G02*
X133993900Y-84178600I-262900J0D01*
G01*
X133468100Y-84178600D01*
G75*
G02*
X133205200Y-83915700I0J262900D01*
G01*
X133205200Y-83289900D01*
G75*
G02*
X133468100Y-83027000I262900J0D01*
G01*
G37*
G36*
G01*
X133468100Y-81277000D02*
X133993900Y-81277000D01*
G75*
G02*
X134256800Y-81539900I0J-262900D01*
G01*
X134256800Y-82165700D01*
G75*
G02*
X133993900Y-82428600I-262900J0D01*
G01*
X133468100Y-82428600D01*
G75*
G02*
X133205200Y-82165700I0J262900D01*
G01*
X133205200Y-81539900D01*
G75*
G02*
X133468100Y-81277000I262900J0D01*
G01*
G37*
%TD*%
%TO.C,C4*%
G36*
G01*
X131918700Y-83027000D02*
X132444500Y-83027000D01*
G75*
G02*
X132707400Y-83289900I0J-262900D01*
G01*
X132707400Y-83915700D01*
G75*
G02*
X132444500Y-84178600I-262900J0D01*
G01*
X131918700Y-84178600D01*
G75*
G02*
X131655800Y-83915700I0J262900D01*
G01*
X131655800Y-83289900D01*
G75*
G02*
X131918700Y-83027000I262900J0D01*
G01*
G37*
G36*
G01*
X131918700Y-81277000D02*
X132444500Y-81277000D01*
G75*
G02*
X132707400Y-81539900I0J-262900D01*
G01*
X132707400Y-82165700D01*
G75*
G02*
X132444500Y-82428600I-262900J0D01*
G01*
X131918700Y-82428600D01*
G75*
G02*
X131655800Y-82165700I0J262900D01*
G01*
X131655800Y-81539900D01*
G75*
G02*
X131918700Y-81277000I262900J0D01*
G01*
G37*
%TD*%
%TO.C,C2*%
G36*
G01*
X135016125Y-84061600D02*
X136332075Y-84061600D01*
G75*
G02*
X136599900Y-84329425I0J-267825D01*
G01*
X136599900Y-85320375D01*
G75*
G02*
X136332075Y-85588200I-267825J0D01*
G01*
X135016125Y-85588200D01*
G75*
G02*
X134748300Y-85320375I0J267825D01*
G01*
X134748300Y-84329425D01*
G75*
G02*
X135016125Y-84061600I267825J0D01*
G01*
G37*
G36*
G01*
X135016125Y-81086600D02*
X136332075Y-81086600D01*
G75*
G02*
X136599900Y-81354425I0J-267825D01*
G01*
X136599900Y-82345375D01*
G75*
G02*
X136332075Y-82613200I-267825J0D01*
G01*
X135016125Y-82613200D01*
G75*
G02*
X134748300Y-82345375I0J267825D01*
G01*
X134748300Y-81354425D01*
G75*
G02*
X135016125Y-81086600I267825J0D01*
G01*
G37*
%TD*%
%TO.C,R2*%
G36*
G01*
X138916400Y-88335600D02*
X139442200Y-88335600D01*
G75*
G02*
X139705100Y-88598500I0J-262900D01*
G01*
X139705100Y-89224300D01*
G75*
G02*
X139442200Y-89487200I-262900J0D01*
G01*
X138916400Y-89487200D01*
G75*
G02*
X138653500Y-89224300I0J262900D01*
G01*
X138653500Y-88598500D01*
G75*
G02*
X138916400Y-88335600I262900J0D01*
G01*
G37*
G36*
G01*
X138916400Y-86585600D02*
X139442200Y-86585600D01*
G75*
G02*
X139705100Y-86848500I0J-262900D01*
G01*
X139705100Y-87474300D01*
G75*
G02*
X139442200Y-87737200I-262900J0D01*
G01*
X138916400Y-87737200D01*
G75*
G02*
X138653500Y-87474300I0J262900D01*
G01*
X138653500Y-86848500D01*
G75*
G02*
X138916400Y-86585600I262900J0D01*
G01*
G37*
%TD*%
D19*
%TO.C,D1*%
X146367500Y-86883700D03*
X146367500Y-84083700D03*
%TD*%
D20*
%TO.C,U1*%
X138151700Y-84201000D03*
X143051700Y-81661000D03*
X143051700Y-82931000D03*
X143051700Y-84201000D03*
X143051700Y-85471000D03*
X138151700Y-85471000D03*
X138151700Y-82931000D03*
X138151700Y-81661000D03*
%TD*%
%TO.C,R1*%
G36*
G01*
X141761200Y-88335600D02*
X142287000Y-88335600D01*
G75*
G02*
X142549900Y-88598500I0J-262900D01*
G01*
X142549900Y-89224300D01*
G75*
G02*
X142287000Y-89487200I-262900J0D01*
G01*
X141761200Y-89487200D01*
G75*
G02*
X141498300Y-89224300I0J262900D01*
G01*
X141498300Y-88598500D01*
G75*
G02*
X141761200Y-88335600I262900J0D01*
G01*
G37*
G36*
G01*
X141761200Y-86585600D02*
X142287000Y-86585600D01*
G75*
G02*
X142549900Y-86848500I0J-262900D01*
G01*
X142549900Y-87474300D01*
G75*
G02*
X142287000Y-87737200I-262900J0D01*
G01*
X141761200Y-87737200D01*
G75*
G02*
X141498300Y-87474300I0J262900D01*
G01*
X141498300Y-86848500D01*
G75*
G02*
X141761200Y-86585600I262900J0D01*
G01*
G37*
%TD*%
%TO.C,C8*%
G36*
G01*
X137367000Y-88335600D02*
X137892800Y-88335600D01*
G75*
G02*
X138155700Y-88598500I0J-262900D01*
G01*
X138155700Y-89224300D01*
G75*
G02*
X137892800Y-89487200I-262900J0D01*
G01*
X137367000Y-89487200D01*
G75*
G02*
X137104100Y-89224300I0J262900D01*
G01*
X137104100Y-88598500D01*
G75*
G02*
X137367000Y-88335600I262900J0D01*
G01*
G37*
G36*
G01*
X137367000Y-86585600D02*
X137892800Y-86585600D01*
G75*
G02*
X138155700Y-86848500I0J-262900D01*
G01*
X138155700Y-87474300D01*
G75*
G02*
X137892800Y-87737200I-262900J0D01*
G01*
X137367000Y-87737200D01*
G75*
G02*
X137104100Y-87474300I0J262900D01*
G01*
X137104100Y-86848500D01*
G75*
G02*
X137367000Y-86585600I262900J0D01*
G01*
G37*
%TD*%
%TO.C,C7*%
G36*
G01*
X143836400Y-87737200D02*
X143310600Y-87737200D01*
G75*
G02*
X143047700Y-87474300I0J262900D01*
G01*
X143047700Y-86848500D01*
G75*
G02*
X143310600Y-86585600I262900J0D01*
G01*
X143836400Y-86585600D01*
G75*
G02*
X144099300Y-86848500I0J-262900D01*
G01*
X144099300Y-87474300D01*
G75*
G02*
X143836400Y-87737200I-262900J0D01*
G01*
G37*
G36*
G01*
X143836400Y-89487200D02*
X143310600Y-89487200D01*
G75*
G02*
X143047700Y-89224300I0J262900D01*
G01*
X143047700Y-88598500D01*
G75*
G02*
X143310600Y-88335600I262900J0D01*
G01*
X143836400Y-88335600D01*
G75*
G02*
X144099300Y-88598500I0J-262900D01*
G01*
X144099300Y-89224300D01*
G75*
G02*
X143836400Y-89487200I-262900J0D01*
G01*
G37*
%TD*%
%TO.C,C1*%
G36*
G01*
X142831300Y-80222100D02*
X142831300Y-79696300D01*
G75*
G02*
X143094200Y-79433400I262900J0D01*
G01*
X143720000Y-79433400D01*
G75*
G02*
X143982900Y-79696300I0J-262900D01*
G01*
X143982900Y-80222100D01*
G75*
G02*
X143720000Y-80485000I-262900J0D01*
G01*
X143094200Y-80485000D01*
G75*
G02*
X142831300Y-80222100I0J262900D01*
G01*
G37*
G36*
G01*
X141081300Y-80222100D02*
X141081300Y-79696300D01*
G75*
G02*
X141344200Y-79433400I262900J0D01*
G01*
X141970000Y-79433400D01*
G75*
G02*
X142232900Y-79696300I0J-262900D01*
G01*
X142232900Y-80222100D01*
G75*
G02*
X141970000Y-80485000I-262900J0D01*
G01*
X141344200Y-80485000D01*
G75*
G02*
X141081300Y-80222100I0J262900D01*
G01*
G37*
%TD*%
D12*
%TO.C,J3*%
X129565400Y-104089200D03*
X129565400Y-101549200D03*
X129565400Y-99009200D03*
X129565400Y-96469200D03*
X129565400Y-93929200D03*
X129565400Y-91389200D03*
X129565400Y-88849200D03*
X129565400Y-86309200D03*
X129565400Y-83769200D03*
X129565400Y-81229200D03*
X129565400Y-78689200D03*
X129565400Y-76149200D03*
X129565400Y-73609200D03*
X129565400Y-71069200D03*
X129565400Y-68529200D03*
D13*
X129565400Y-65989200D03*
%TD*%
%TO.C,R3*%
G36*
G01*
X133395200Y-76081900D02*
X133395200Y-75556100D01*
G75*
G02*
X133658100Y-75293200I262900J0D01*
G01*
X134283900Y-75293200D01*
G75*
G02*
X134546800Y-75556100I0J-262900D01*
G01*
X134546800Y-76081900D01*
G75*
G02*
X134283900Y-76344800I-262900J0D01*
G01*
X133658100Y-76344800D01*
G75*
G02*
X133395200Y-76081900I0J262900D01*
G01*
G37*
G36*
G01*
X131645200Y-76081900D02*
X131645200Y-75556100D01*
G75*
G02*
X131908100Y-75293200I262900J0D01*
G01*
X132533900Y-75293200D01*
G75*
G02*
X132796800Y-75556100I0J-262900D01*
G01*
X132796800Y-76081900D01*
G75*
G02*
X132533900Y-76344800I-262900J0D01*
G01*
X131908100Y-76344800D01*
G75*
G02*
X131645200Y-76081900I0J262900D01*
G01*
G37*
%TD*%
%TO.C,J2*%
X149885400Y-65989200D03*
D12*
X149885400Y-68529200D03*
X149885400Y-71069200D03*
X149885400Y-73609200D03*
X149885400Y-76149200D03*
X149885400Y-78689200D03*
X149885400Y-81229200D03*
X149885400Y-83769200D03*
X149885400Y-86309200D03*
X149885400Y-88849200D03*
X149885400Y-91389200D03*
X149885400Y-93929200D03*
%TD*%
M02*
