%TF.GenerationSoftware,KiCad,Pcbnew,5.1.6-c6e7f7d~87~ubuntu18.04.1*%
%TF.CreationDate,2020-09-21T12:52:16-07:00*%
%TF.ProjectId,feather-power-supply-sw-smd,66656174-6865-4722-9d70-6f7765722d73,rev?*%
%TF.SameCoordinates,Original*%
%TF.FileFunction,Copper,L1,Top*%
%TF.FilePolarity,Positive*%
%FSLAX46Y46*%
G04 Gerber Fmt 4.6, Leading zero omitted, Abs format (unit mm)*
G04 Created by KiCad (PCBNEW 5.1.6-c6e7f7d~87~ubuntu18.04.1) date 2020-09-21 12:52:16*
%MOMM*%
%LPD*%
G01*
G04 APERTURE LIST*
%TA.AperFunction,EtchedComponent*%
%ADD10C,0.100000*%
%TD*%
%TA.AperFunction,SMDPad,CuDef*%
%ADD11C,1.500000*%
%TD*%
%TA.AperFunction,SMDPad,CuDef*%
%ADD12R,0.650000X1.220000*%
%TD*%
%TA.AperFunction,SMDPad,CuDef*%
%ADD13R,1.000000X4.400000*%
%TD*%
%TA.AperFunction,ComponentPad*%
%ADD14O,1.700000X1.700000*%
%TD*%
%TA.AperFunction,ComponentPad*%
%ADD15R,1.700000X1.700000*%
%TD*%
%TA.AperFunction,ComponentPad*%
%ADD16R,2.600000X2.600000*%
%TD*%
%TA.AperFunction,ComponentPad*%
%ADD17C,2.600000*%
%TD*%
%TA.AperFunction,ComponentPad*%
%ADD18C,5.000000*%
%TD*%
%TA.AperFunction,SMDPad,CuDef*%
%ADD19C,0.100000*%
%TD*%
%TA.AperFunction,SMDPad,CuDef*%
%ADD20R,1.100000X1.100000*%
%TD*%
%TA.AperFunction,SMDPad,CuDef*%
%ADD21R,0.600000X2.000000*%
%TD*%
%TA.AperFunction,ViaPad*%
%ADD22C,0.685800*%
%TD*%
%TA.AperFunction,Conductor*%
%ADD23C,0.762000*%
%TD*%
%TA.AperFunction,Conductor*%
%ADD24C,0.609600*%
%TD*%
%TA.AperFunction,Conductor*%
%ADD25C,0.304800*%
%TD*%
%TA.AperFunction,Conductor*%
%ADD26C,1.219200*%
%TD*%
%TA.AperFunction,Conductor*%
%ADD27C,0.254000*%
%TD*%
G04 APERTURE END LIST*
D10*
%TO.C,JP1*%
G36*
X133100000Y-72232800D02*
G01*
X133600000Y-72232800D01*
X133600000Y-71632800D01*
X133100000Y-71632800D01*
X133100000Y-72232800D01*
G37*
%TD*%
D11*
%TO.P,TP1,1*%
%TO.N,+5V*%
X146304000Y-77216000D03*
%TD*%
D12*
%TO.P,Q1,3*%
%TO.N,Net-(F1-Pad2)*%
X136931400Y-71867400D03*
%TO.P,Q1,2*%
%TO.N,VIN_SW*%
X137881400Y-74487400D03*
%TO.P,Q1,1*%
%TO.N,GND*%
X135981400Y-74487400D03*
%TD*%
D13*
%TO.P,L1,2*%
%TO.N,+5V*%
X142827600Y-87680800D03*
%TO.P,L1,1*%
%TO.N,Net-(C1-Pad2)*%
X140077600Y-87680800D03*
%TD*%
%TO.P,J4,MP*%
%TO.N,N/C*%
%TA.AperFunction,SMDPad,CuDef*%
G36*
G01*
X150251401Y-97698200D02*
X148951399Y-97698200D01*
G75*
G02*
X148701400Y-97448201I0J249999D01*
G01*
X148701400Y-96748199D01*
G75*
G02*
X148951399Y-96498200I249999J0D01*
G01*
X150251401Y-96498200D01*
G75*
G02*
X150501400Y-96748199I0J-249999D01*
G01*
X150501400Y-97448201D01*
G75*
G02*
X150251401Y-97698200I-249999J0D01*
G01*
G37*
%TD.AperFunction*%
%TA.AperFunction,SMDPad,CuDef*%
G36*
G01*
X150251401Y-103298200D02*
X148951399Y-103298200D01*
G75*
G02*
X148701400Y-103048201I0J249999D01*
G01*
X148701400Y-102348199D01*
G75*
G02*
X148951399Y-102098200I249999J0D01*
G01*
X150251401Y-102098200D01*
G75*
G02*
X150501400Y-102348199I0J-249999D01*
G01*
X150501400Y-103048201D01*
G75*
G02*
X150251401Y-103298200I-249999J0D01*
G01*
G37*
%TD.AperFunction*%
%TO.P,J4,4*%
%TO.N,/SDA*%
%TA.AperFunction,SMDPad,CuDef*%
G36*
G01*
X146351400Y-98698200D02*
X145101400Y-98698200D01*
G75*
G02*
X144951400Y-98548200I0J150000D01*
G01*
X144951400Y-98248200D01*
G75*
G02*
X145101400Y-98098200I150000J0D01*
G01*
X146351400Y-98098200D01*
G75*
G02*
X146501400Y-98248200I0J-150000D01*
G01*
X146501400Y-98548200D01*
G75*
G02*
X146351400Y-98698200I-150000J0D01*
G01*
G37*
%TD.AperFunction*%
%TO.P,J4,3*%
%TO.N,/SCL*%
%TA.AperFunction,SMDPad,CuDef*%
G36*
G01*
X146351400Y-99698200D02*
X145101400Y-99698200D01*
G75*
G02*
X144951400Y-99548200I0J150000D01*
G01*
X144951400Y-99248200D01*
G75*
G02*
X145101400Y-99098200I150000J0D01*
G01*
X146351400Y-99098200D01*
G75*
G02*
X146501400Y-99248200I0J-150000D01*
G01*
X146501400Y-99548200D01*
G75*
G02*
X146351400Y-99698200I-150000J0D01*
G01*
G37*
%TD.AperFunction*%
%TO.P,J4,2*%
%TO.N,+5V*%
%TA.AperFunction,SMDPad,CuDef*%
G36*
G01*
X146351400Y-100698200D02*
X145101400Y-100698200D01*
G75*
G02*
X144951400Y-100548200I0J150000D01*
G01*
X144951400Y-100248200D01*
G75*
G02*
X145101400Y-100098200I150000J0D01*
G01*
X146351400Y-100098200D01*
G75*
G02*
X146501400Y-100248200I0J-150000D01*
G01*
X146501400Y-100548200D01*
G75*
G02*
X146351400Y-100698200I-150000J0D01*
G01*
G37*
%TD.AperFunction*%
%TO.P,J4,1*%
%TO.N,GND*%
%TA.AperFunction,SMDPad,CuDef*%
G36*
G01*
X146351400Y-101698200D02*
X145101400Y-101698200D01*
G75*
G02*
X144951400Y-101548200I0J150000D01*
G01*
X144951400Y-101248200D01*
G75*
G02*
X145101400Y-101098200I150000J0D01*
G01*
X146351400Y-101098200D01*
G75*
G02*
X146501400Y-101248200I0J-150000D01*
G01*
X146501400Y-101548200D01*
G75*
G02*
X146351400Y-101698200I-150000J0D01*
G01*
G37*
%TD.AperFunction*%
%TD*%
%TO.P,R5,2*%
%TO.N,Net-(D2-Pad2)*%
%TA.AperFunction,SMDPad,CuDef*%
G36*
G01*
X146400000Y-87359500D02*
X146400000Y-86884500D01*
G75*
G02*
X146637500Y-86647000I237500J0D01*
G01*
X147212500Y-86647000D01*
G75*
G02*
X147450000Y-86884500I0J-237500D01*
G01*
X147450000Y-87359500D01*
G75*
G02*
X147212500Y-87597000I-237500J0D01*
G01*
X146637500Y-87597000D01*
G75*
G02*
X146400000Y-87359500I0J237500D01*
G01*
G37*
%TD.AperFunction*%
%TO.P,R5,1*%
%TO.N,+5V*%
%TA.AperFunction,SMDPad,CuDef*%
G36*
G01*
X144650000Y-87359500D02*
X144650000Y-86884500D01*
G75*
G02*
X144887500Y-86647000I237500J0D01*
G01*
X145462500Y-86647000D01*
G75*
G02*
X145700000Y-86884500I0J-237500D01*
G01*
X145700000Y-87359500D01*
G75*
G02*
X145462500Y-87597000I-237500J0D01*
G01*
X144887500Y-87597000D01*
G75*
G02*
X144650000Y-87359500I0J237500D01*
G01*
G37*
%TD.AperFunction*%
%TD*%
%TO.P,D2,2*%
%TO.N,Net-(D2-Pad2)*%
%TA.AperFunction,SMDPad,CuDef*%
G36*
G01*
X146350000Y-89554000D02*
X146350000Y-88754000D01*
G75*
G02*
X146600000Y-88504000I250000J0D01*
G01*
X147425000Y-88504000D01*
G75*
G02*
X147675000Y-88754000I0J-250000D01*
G01*
X147675000Y-89554000D01*
G75*
G02*
X147425000Y-89804000I-250000J0D01*
G01*
X146600000Y-89804000D01*
G75*
G02*
X146350000Y-89554000I0J250000D01*
G01*
G37*
%TD.AperFunction*%
%TO.P,D2,1*%
%TO.N,GND*%
%TA.AperFunction,SMDPad,CuDef*%
G36*
G01*
X144425000Y-89554000D02*
X144425000Y-88754000D01*
G75*
G02*
X144675000Y-88504000I250000J0D01*
G01*
X145500000Y-88504000D01*
G75*
G02*
X145750000Y-88754000I0J-250000D01*
G01*
X145750000Y-89554000D01*
G75*
G02*
X145500000Y-89804000I-250000J0D01*
G01*
X144675000Y-89804000D01*
G75*
G02*
X144425000Y-89554000I0J250000D01*
G01*
G37*
%TD.AperFunction*%
%TD*%
D14*
%TO.P,J5,4*%
%TO.N,/SDA*%
X134874000Y-104063800D03*
%TO.P,J5,3*%
%TO.N,/SCL*%
X137414000Y-104063800D03*
%TO.P,J5,2*%
%TO.N,+5V*%
X139954000Y-104063800D03*
D15*
%TO.P,J5,1*%
%TO.N,GND*%
X142494000Y-104063800D03*
%TD*%
D16*
%TO.P,J1,1*%
%TO.N,VCC*%
X142176500Y-64643000D03*
D17*
%TO.P,J1,2*%
%TO.N,GND*%
X137176500Y-64643000D03*
%TD*%
%TO.P,F1,2*%
%TO.N,Net-(F1-Pad2)*%
%TA.AperFunction,SMDPad,CuDef*%
G36*
G01*
X141069000Y-71523400D02*
X141069000Y-74323400D01*
G75*
G02*
X140819000Y-74573400I-250000J0D01*
G01*
X139844000Y-74573400D01*
G75*
G02*
X139594000Y-74323400I0J250000D01*
G01*
X139594000Y-71523400D01*
G75*
G02*
X139844000Y-71273400I250000J0D01*
G01*
X140819000Y-71273400D01*
G75*
G02*
X141069000Y-71523400I0J-250000D01*
G01*
G37*
%TD.AperFunction*%
%TO.P,F1,1*%
%TO.N,VCC*%
%TA.AperFunction,SMDPad,CuDef*%
G36*
G01*
X145394000Y-71523400D02*
X145394000Y-74323400D01*
G75*
G02*
X145144000Y-74573400I-250000J0D01*
G01*
X144169000Y-74573400D01*
G75*
G02*
X143919000Y-74323400I0J250000D01*
G01*
X143919000Y-71523400D01*
G75*
G02*
X144169000Y-71273400I250000J0D01*
G01*
X145144000Y-71273400D01*
G75*
G02*
X145394000Y-71523400I0J-250000D01*
G01*
G37*
%TD.AperFunction*%
%TD*%
D18*
%TO.P,H2,1*%
%TO.N,GND*%
X148615400Y-61671200D03*
%TD*%
%TO.P,H1,1*%
%TO.N,GND*%
X130810000Y-61696600D03*
%TD*%
%TO.P,C5,2*%
%TO.N,GND*%
%TA.AperFunction,SMDPad,CuDef*%
G36*
G01*
X144026200Y-82029000D02*
X141876200Y-82029000D01*
G75*
G02*
X141626200Y-81779000I0J250000D01*
G01*
X141626200Y-80854000D01*
G75*
G02*
X141876200Y-80604000I250000J0D01*
G01*
X144026200Y-80604000D01*
G75*
G02*
X144276200Y-80854000I0J-250000D01*
G01*
X144276200Y-81779000D01*
G75*
G02*
X144026200Y-82029000I-250000J0D01*
G01*
G37*
%TD.AperFunction*%
%TO.P,C5,1*%
%TO.N,+5V*%
%TA.AperFunction,SMDPad,CuDef*%
G36*
G01*
X144026200Y-85004000D02*
X141876200Y-85004000D01*
G75*
G02*
X141626200Y-84754000I0J250000D01*
G01*
X141626200Y-83829000D01*
G75*
G02*
X141876200Y-83579000I250000J0D01*
G01*
X144026200Y-83579000D01*
G75*
G02*
X144276200Y-83829000I0J-250000D01*
G01*
X144276200Y-84754000D01*
G75*
G02*
X144026200Y-85004000I-250000J0D01*
G01*
G37*
%TD.AperFunction*%
%TD*%
%TO.P,C9,2*%
%TO.N,GND*%
%TA.AperFunction,SMDPad,CuDef*%
G36*
G01*
X133700000Y-77301100D02*
X133700000Y-76826100D01*
G75*
G02*
X133937500Y-76588600I237500J0D01*
G01*
X134512500Y-76588600D01*
G75*
G02*
X134750000Y-76826100I0J-237500D01*
G01*
X134750000Y-77301100D01*
G75*
G02*
X134512500Y-77538600I-237500J0D01*
G01*
X133937500Y-77538600D01*
G75*
G02*
X133700000Y-77301100I0J237500D01*
G01*
G37*
%TD.AperFunction*%
%TO.P,C9,1*%
%TO.N,/A1*%
%TA.AperFunction,SMDPad,CuDef*%
G36*
G01*
X131950000Y-77301100D02*
X131950000Y-76826100D01*
G75*
G02*
X132187500Y-76588600I237500J0D01*
G01*
X132762500Y-76588600D01*
G75*
G02*
X133000000Y-76826100I0J-237500D01*
G01*
X133000000Y-77301100D01*
G75*
G02*
X132762500Y-77538600I-237500J0D01*
G01*
X132187500Y-77538600D01*
G75*
G02*
X131950000Y-77301100I0J237500D01*
G01*
G37*
%TD.AperFunction*%
%TD*%
%TO.P,C6,2*%
%TO.N,GND*%
%TA.AperFunction,SMDPad,CuDef*%
G36*
G01*
X147328200Y-82029000D02*
X145178200Y-82029000D01*
G75*
G02*
X144928200Y-81779000I0J250000D01*
G01*
X144928200Y-80854000D01*
G75*
G02*
X145178200Y-80604000I250000J0D01*
G01*
X147328200Y-80604000D01*
G75*
G02*
X147578200Y-80854000I0J-250000D01*
G01*
X147578200Y-81779000D01*
G75*
G02*
X147328200Y-82029000I-250000J0D01*
G01*
G37*
%TD.AperFunction*%
%TO.P,C6,1*%
%TO.N,+5V*%
%TA.AperFunction,SMDPad,CuDef*%
G36*
G01*
X147328200Y-85004000D02*
X145178200Y-85004000D01*
G75*
G02*
X144928200Y-84754000I0J250000D01*
G01*
X144928200Y-83829000D01*
G75*
G02*
X145178200Y-83579000I250000J0D01*
G01*
X147328200Y-83579000D01*
G75*
G02*
X147578200Y-83829000I0J-250000D01*
G01*
X147578200Y-84754000D01*
G75*
G02*
X147328200Y-85004000I-250000J0D01*
G01*
G37*
%TD.AperFunction*%
%TD*%
%TA.AperFunction,SMDPad,CuDef*%
D19*
%TO.P,JP1,1*%
%TO.N,VIN_SW*%
G36*
X133500000Y-71182800D02*
G01*
X134000000Y-71182800D01*
X134000000Y-71183402D01*
X134024534Y-71183402D01*
X134073365Y-71188212D01*
X134121490Y-71197784D01*
X134168445Y-71212028D01*
X134213778Y-71230805D01*
X134257051Y-71253936D01*
X134297850Y-71281196D01*
X134335779Y-71312324D01*
X134370476Y-71347021D01*
X134401604Y-71384950D01*
X134428864Y-71425749D01*
X134451995Y-71469022D01*
X134470772Y-71514355D01*
X134485016Y-71561310D01*
X134494588Y-71609435D01*
X134499398Y-71658266D01*
X134499398Y-71682800D01*
X134500000Y-71682800D01*
X134500000Y-72182800D01*
X134499398Y-72182800D01*
X134499398Y-72207334D01*
X134494588Y-72256165D01*
X134485016Y-72304290D01*
X134470772Y-72351245D01*
X134451995Y-72396578D01*
X134428864Y-72439851D01*
X134401604Y-72480650D01*
X134370476Y-72518579D01*
X134335779Y-72553276D01*
X134297850Y-72584404D01*
X134257051Y-72611664D01*
X134213778Y-72634795D01*
X134168445Y-72653572D01*
X134121490Y-72667816D01*
X134073365Y-72677388D01*
X134024534Y-72682198D01*
X134000000Y-72682198D01*
X134000000Y-72682800D01*
X133500000Y-72682800D01*
X133500000Y-71182800D01*
G37*
%TD.AperFunction*%
%TA.AperFunction,SMDPad,CuDef*%
%TO.P,JP1,2*%
%TO.N,Net-(JP1-Pad2)*%
G36*
X132700000Y-72682198D02*
G01*
X132675466Y-72682198D01*
X132626635Y-72677388D01*
X132578510Y-72667816D01*
X132531555Y-72653572D01*
X132486222Y-72634795D01*
X132442949Y-72611664D01*
X132402150Y-72584404D01*
X132364221Y-72553276D01*
X132329524Y-72518579D01*
X132298396Y-72480650D01*
X132271136Y-72439851D01*
X132248005Y-72396578D01*
X132229228Y-72351245D01*
X132214984Y-72304290D01*
X132205412Y-72256165D01*
X132200602Y-72207334D01*
X132200602Y-72182800D01*
X132200000Y-72182800D01*
X132200000Y-71682800D01*
X132200602Y-71682800D01*
X132200602Y-71658266D01*
X132205412Y-71609435D01*
X132214984Y-71561310D01*
X132229228Y-71514355D01*
X132248005Y-71469022D01*
X132271136Y-71425749D01*
X132298396Y-71384950D01*
X132329524Y-71347021D01*
X132364221Y-71312324D01*
X132402150Y-71281196D01*
X132442949Y-71253936D01*
X132486222Y-71230805D01*
X132531555Y-71212028D01*
X132578510Y-71197784D01*
X132626635Y-71188212D01*
X132675466Y-71183402D01*
X132700000Y-71183402D01*
X132700000Y-71182800D01*
X133200000Y-71182800D01*
X133200000Y-72682800D01*
X132700000Y-72682800D01*
X132700000Y-72682198D01*
G37*
%TD.AperFunction*%
%TD*%
%TO.P,R4,2*%
%TO.N,GND*%
%TA.AperFunction,SMDPad,CuDef*%
G36*
G01*
X133700000Y-75777100D02*
X133700000Y-75302100D01*
G75*
G02*
X133937500Y-75064600I237500J0D01*
G01*
X134512500Y-75064600D01*
G75*
G02*
X134750000Y-75302100I0J-237500D01*
G01*
X134750000Y-75777100D01*
G75*
G02*
X134512500Y-76014600I-237500J0D01*
G01*
X133937500Y-76014600D01*
G75*
G02*
X133700000Y-75777100I0J237500D01*
G01*
G37*
%TD.AperFunction*%
%TO.P,R4,1*%
%TO.N,/A1*%
%TA.AperFunction,SMDPad,CuDef*%
G36*
G01*
X131950000Y-75777100D02*
X131950000Y-75302100D01*
G75*
G02*
X132187500Y-75064600I237500J0D01*
G01*
X132762500Y-75064600D01*
G75*
G02*
X133000000Y-75302100I0J-237500D01*
G01*
X133000000Y-75777100D01*
G75*
G02*
X132762500Y-76014600I-237500J0D01*
G01*
X132187500Y-76014600D01*
G75*
G02*
X131950000Y-75777100I0J237500D01*
G01*
G37*
%TD.AperFunction*%
%TD*%
%TO.P,C2,2*%
%TO.N,GND*%
%TA.AperFunction,SMDPad,CuDef*%
G36*
G01*
X139713000Y-77282200D02*
X139713000Y-76032200D01*
G75*
G02*
X139963000Y-75782200I250000J0D01*
G01*
X140888000Y-75782200D01*
G75*
G02*
X141138000Y-76032200I0J-250000D01*
G01*
X141138000Y-77282200D01*
G75*
G02*
X140888000Y-77532200I-250000J0D01*
G01*
X139963000Y-77532200D01*
G75*
G02*
X139713000Y-77282200I0J250000D01*
G01*
G37*
%TD.AperFunction*%
%TO.P,C2,1*%
%TO.N,VIN_SW*%
%TA.AperFunction,SMDPad,CuDef*%
G36*
G01*
X136738000Y-77282826D02*
X136738000Y-76031574D01*
G75*
G02*
X136987374Y-75782200I249374J0D01*
G01*
X137913626Y-75782200D01*
G75*
G02*
X138163000Y-76031574I0J-249374D01*
G01*
X138163000Y-77282826D01*
G75*
G02*
X137913626Y-77532200I-249374J0D01*
G01*
X136987374Y-77532200D01*
G75*
G02*
X136738000Y-77282826I0J249374D01*
G01*
G37*
%TD.AperFunction*%
%TD*%
%TO.P,R2,2*%
%TO.N,GND*%
%TA.AperFunction,SMDPad,CuDef*%
G36*
G01*
X132198100Y-83789000D02*
X132673100Y-83789000D01*
G75*
G02*
X132910600Y-84026500I0J-237500D01*
G01*
X132910600Y-84601500D01*
G75*
G02*
X132673100Y-84839000I-237500J0D01*
G01*
X132198100Y-84839000D01*
G75*
G02*
X131960600Y-84601500I0J237500D01*
G01*
X131960600Y-84026500D01*
G75*
G02*
X132198100Y-83789000I237500J0D01*
G01*
G37*
%TD.AperFunction*%
%TO.P,R2,1*%
%TO.N,/ROSC*%
%TA.AperFunction,SMDPad,CuDef*%
G36*
G01*
X132198100Y-82039000D02*
X132673100Y-82039000D01*
G75*
G02*
X132910600Y-82276500I0J-237500D01*
G01*
X132910600Y-82851500D01*
G75*
G02*
X132673100Y-83089000I-237500J0D01*
G01*
X132198100Y-83089000D01*
G75*
G02*
X131960600Y-82851500I0J237500D01*
G01*
X131960600Y-82276500D01*
G75*
G02*
X132198100Y-82039000I237500J0D01*
G01*
G37*
%TD.AperFunction*%
%TD*%
D20*
%TO.P,D1,2*%
%TO.N,GND*%
X140106400Y-81658000D03*
%TO.P,D1,1*%
%TO.N,Net-(C1-Pad2)*%
X140106400Y-84458000D03*
%TD*%
D21*
%TO.P,U1,3*%
%TO.N,/ROSC*%
X135509000Y-79134800D03*
%TO.P,U1,8*%
%TO.N,Net-(C1-Pad2)*%
X138049000Y-84034800D03*
%TO.P,U1,7*%
%TO.N,GND*%
X136779000Y-84034800D03*
%TO.P,U1,6*%
%TO.N,Net-(R1-Pad1)*%
X135509000Y-84034800D03*
%TO.P,U1,5*%
%TO.N,Net-(C1-Pad2)*%
X134239000Y-84034800D03*
%TO.P,U1,4*%
%TO.N,Net-(C8-Pad1)*%
X134239000Y-79134800D03*
%TO.P,U1,2*%
%TO.N,VIN_SW*%
X136779000Y-79134800D03*
%TO.P,U1,1*%
%TO.N,Net-(C1-Pad1)*%
X138049000Y-79134800D03*
%TD*%
%TO.P,R1,2*%
%TO.N,Net-(C7-Pad1)*%
%TA.AperFunction,SMDPad,CuDef*%
G36*
G01*
X134270000Y-85868500D02*
X134270000Y-86343500D01*
G75*
G02*
X134032500Y-86581000I-237500J0D01*
G01*
X133457500Y-86581000D01*
G75*
G02*
X133220000Y-86343500I0J237500D01*
G01*
X133220000Y-85868500D01*
G75*
G02*
X133457500Y-85631000I237500J0D01*
G01*
X134032500Y-85631000D01*
G75*
G02*
X134270000Y-85868500I0J-237500D01*
G01*
G37*
%TD.AperFunction*%
%TO.P,R1,1*%
%TO.N,Net-(R1-Pad1)*%
%TA.AperFunction,SMDPad,CuDef*%
G36*
G01*
X136020000Y-85868500D02*
X136020000Y-86343500D01*
G75*
G02*
X135782500Y-86581000I-237500J0D01*
G01*
X135207500Y-86581000D01*
G75*
G02*
X134970000Y-86343500I0J237500D01*
G01*
X134970000Y-85868500D01*
G75*
G02*
X135207500Y-85631000I237500J0D01*
G01*
X135782500Y-85631000D01*
G75*
G02*
X136020000Y-85868500I0J-237500D01*
G01*
G37*
%TD.AperFunction*%
%TD*%
%TO.P,C8,2*%
%TO.N,GND*%
%TA.AperFunction,SMDPad,CuDef*%
G36*
G01*
X132172700Y-80283800D02*
X132647700Y-80283800D01*
G75*
G02*
X132885200Y-80521300I0J-237500D01*
G01*
X132885200Y-81096300D01*
G75*
G02*
X132647700Y-81333800I-237500J0D01*
G01*
X132172700Y-81333800D01*
G75*
G02*
X131935200Y-81096300I0J237500D01*
G01*
X131935200Y-80521300D01*
G75*
G02*
X132172700Y-80283800I237500J0D01*
G01*
G37*
%TD.AperFunction*%
%TO.P,C8,1*%
%TO.N,Net-(C8-Pad1)*%
%TA.AperFunction,SMDPad,CuDef*%
G36*
G01*
X132172700Y-78533800D02*
X132647700Y-78533800D01*
G75*
G02*
X132885200Y-78771300I0J-237500D01*
G01*
X132885200Y-79346300D01*
G75*
G02*
X132647700Y-79583800I-237500J0D01*
G01*
X132172700Y-79583800D01*
G75*
G02*
X131935200Y-79346300I0J237500D01*
G01*
X131935200Y-78771300D01*
G75*
G02*
X132172700Y-78533800I237500J0D01*
G01*
G37*
%TD.AperFunction*%
%TD*%
%TO.P,C7,2*%
%TO.N,GND*%
%TA.AperFunction,SMDPad,CuDef*%
G36*
G01*
X134970000Y-87867500D02*
X134970000Y-87392500D01*
G75*
G02*
X135207500Y-87155000I237500J0D01*
G01*
X135782500Y-87155000D01*
G75*
G02*
X136020000Y-87392500I0J-237500D01*
G01*
X136020000Y-87867500D01*
G75*
G02*
X135782500Y-88105000I-237500J0D01*
G01*
X135207500Y-88105000D01*
G75*
G02*
X134970000Y-87867500I0J237500D01*
G01*
G37*
%TD.AperFunction*%
%TO.P,C7,1*%
%TO.N,Net-(C7-Pad1)*%
%TA.AperFunction,SMDPad,CuDef*%
G36*
G01*
X133220000Y-87867500D02*
X133220000Y-87392500D01*
G75*
G02*
X133457500Y-87155000I237500J0D01*
G01*
X134032500Y-87155000D01*
G75*
G02*
X134270000Y-87392500I0J-237500D01*
G01*
X134270000Y-87867500D01*
G75*
G02*
X134032500Y-88105000I-237500J0D01*
G01*
X133457500Y-88105000D01*
G75*
G02*
X133220000Y-87867500I0J237500D01*
G01*
G37*
%TD.AperFunction*%
%TD*%
%TO.P,C1,2*%
%TO.N,Net-(C1-Pad2)*%
%TA.AperFunction,SMDPad,CuDef*%
G36*
G01*
X138388100Y-86670400D02*
X137913100Y-86670400D01*
G75*
G02*
X137675600Y-86432900I0J237500D01*
G01*
X137675600Y-85857900D01*
G75*
G02*
X137913100Y-85620400I237500J0D01*
G01*
X138388100Y-85620400D01*
G75*
G02*
X138625600Y-85857900I0J-237500D01*
G01*
X138625600Y-86432900D01*
G75*
G02*
X138388100Y-86670400I-237500J0D01*
G01*
G37*
%TD.AperFunction*%
%TO.P,C1,1*%
%TO.N,Net-(C1-Pad1)*%
%TA.AperFunction,SMDPad,CuDef*%
G36*
G01*
X138388100Y-88420400D02*
X137913100Y-88420400D01*
G75*
G02*
X137675600Y-88182900I0J237500D01*
G01*
X137675600Y-87607900D01*
G75*
G02*
X137913100Y-87370400I237500J0D01*
G01*
X138388100Y-87370400D01*
G75*
G02*
X138625600Y-87607900I0J-237500D01*
G01*
X138625600Y-88182900D01*
G75*
G02*
X138388100Y-88420400I-237500J0D01*
G01*
G37*
%TD.AperFunction*%
%TD*%
D14*
%TO.P,J3,16*%
%TO.N,Net-(J3-Pad16)*%
X129565400Y-104089200D03*
%TO.P,J3,15*%
%TO.N,Net-(J3-Pad15)*%
X129565400Y-101549200D03*
%TO.P,J3,14*%
%TO.N,Net-(J3-Pad14)*%
X129565400Y-99009200D03*
%TO.P,J3,13*%
%TO.N,Net-(J3-Pad13)*%
X129565400Y-96469200D03*
%TO.P,J3,12*%
%TO.N,Net-(J3-Pad12)*%
X129565400Y-93929200D03*
%TO.P,J3,11*%
%TO.N,Net-(J3-Pad11)*%
X129565400Y-91389200D03*
%TO.P,J3,10*%
%TO.N,Net-(J3-Pad10)*%
X129565400Y-88849200D03*
%TO.P,J3,9*%
%TO.N,Net-(J3-Pad9)*%
X129565400Y-86309200D03*
%TO.P,J3,8*%
%TO.N,Net-(J3-Pad8)*%
X129565400Y-83769200D03*
%TO.P,J3,7*%
%TO.N,Net-(J3-Pad7)*%
X129565400Y-81229200D03*
%TO.P,J3,6*%
%TO.N,/A1*%
X129565400Y-78689200D03*
%TO.P,J3,5*%
%TO.N,Net-(J3-Pad5)*%
X129565400Y-76149200D03*
%TO.P,J3,4*%
%TO.N,GND*%
X129565400Y-73609200D03*
%TO.P,J3,3*%
%TO.N,Net-(J3-Pad3)*%
X129565400Y-71069200D03*
%TO.P,J3,2*%
%TO.N,Net-(J3-Pad2)*%
X129565400Y-68529200D03*
D15*
%TO.P,J3,1*%
%TO.N,Net-(J3-Pad1)*%
X129565400Y-65989200D03*
%TD*%
%TO.P,R3,2*%
%TO.N,Net-(JP1-Pad2)*%
%TA.AperFunction,SMDPad,CuDef*%
G36*
G01*
X133700000Y-74253100D02*
X133700000Y-73778100D01*
G75*
G02*
X133937500Y-73540600I237500J0D01*
G01*
X134512500Y-73540600D01*
G75*
G02*
X134750000Y-73778100I0J-237500D01*
G01*
X134750000Y-74253100D01*
G75*
G02*
X134512500Y-74490600I-237500J0D01*
G01*
X133937500Y-74490600D01*
G75*
G02*
X133700000Y-74253100I0J237500D01*
G01*
G37*
%TD.AperFunction*%
%TO.P,R3,1*%
%TO.N,/A1*%
%TA.AperFunction,SMDPad,CuDef*%
G36*
G01*
X131950000Y-74253100D02*
X131950000Y-73778100D01*
G75*
G02*
X132187500Y-73540600I237500J0D01*
G01*
X132762500Y-73540600D01*
G75*
G02*
X133000000Y-73778100I0J-237500D01*
G01*
X133000000Y-74253100D01*
G75*
G02*
X132762500Y-74490600I-237500J0D01*
G01*
X132187500Y-74490600D01*
G75*
G02*
X131950000Y-74253100I0J237500D01*
G01*
G37*
%TD.AperFunction*%
%TD*%
%TO.P,J2,1*%
%TO.N,Net-(J2-Pad1)*%
X149885400Y-65989200D03*
D14*
%TO.P,J2,2*%
%TO.N,+3V3*%
X149885400Y-68529200D03*
%TO.P,J2,3*%
%TO.N,Net-(J2-Pad3)*%
X149885400Y-71069200D03*
%TO.P,J2,4*%
%TO.N,+5V*%
X149885400Y-73609200D03*
%TO.P,J2,5*%
%TO.N,Net-(J2-Pad5)*%
X149885400Y-76149200D03*
%TO.P,J2,6*%
%TO.N,Net-(J2-Pad6)*%
X149885400Y-78689200D03*
%TO.P,J2,7*%
%TO.N,Net-(J2-Pad7)*%
X149885400Y-81229200D03*
%TO.P,J2,8*%
%TO.N,Net-(J2-Pad8)*%
X149885400Y-83769200D03*
%TO.P,J2,9*%
%TO.N,Net-(J2-Pad9)*%
X149885400Y-86309200D03*
%TO.P,J2,10*%
%TO.N,Net-(J2-Pad10)*%
X149885400Y-88849200D03*
%TO.P,J2,11*%
%TO.N,/SCL*%
X149885400Y-91389200D03*
%TO.P,J2,12*%
%TO.N,/SDA*%
X149885400Y-93929200D03*
%TD*%
D22*
%TO.N,+5V*%
X147828012Y-100330000D03*
X148336000Y-90424000D03*
%TO.N,GND*%
X132715000Y-69596000D03*
X134620000Y-59994800D03*
X135921750Y-59994800D03*
X138525250Y-59994800D03*
X137223500Y-59994800D03*
X142430500Y-59994800D03*
X143732250Y-59994800D03*
X141128750Y-59994800D03*
X145034000Y-59994800D03*
X139827000Y-59994800D03*
X139088090Y-109016800D03*
X144084962Y-109016800D03*
X135340436Y-109016800D03*
X142835744Y-109016800D03*
X134091218Y-109016800D03*
X137838872Y-109016800D03*
X136589654Y-109016800D03*
X141586526Y-109016800D03*
X140337308Y-109016800D03*
X145334180Y-109016800D03*
X132842000Y-109016800D03*
X146583400Y-109004100D03*
X145034000Y-90424000D03*
X144272000Y-101854000D03*
X136906000Y-87630000D03*
X133858000Y-80772000D03*
X136652000Y-81280000D03*
X139192000Y-78232000D03*
X143510000Y-77724000D03*
X143510000Y-76200000D03*
X145542000Y-79502000D03*
X135636000Y-75946000D03*
X135636000Y-76708000D03*
X135636000Y-77470000D03*
X142240000Y-77724000D03*
X142240000Y-76200000D03*
X146812000Y-79502000D03*
X136652000Y-69342000D03*
X136652000Y-67818000D03*
X135382000Y-67818000D03*
X135382000Y-69342000D03*
X139192000Y-69342000D03*
X137922000Y-69342000D03*
X137922000Y-67818000D03*
X139192000Y-67818000D03*
X141732000Y-67818000D03*
X140462000Y-69342000D03*
X140462000Y-67818000D03*
X141732000Y-69342000D03*
X147066000Y-70866000D03*
X147066000Y-72136000D03*
X136398000Y-91694000D03*
X138938000Y-91694000D03*
X133858000Y-91694000D03*
X136398000Y-93218000D03*
X138938000Y-93218000D03*
X133858000Y-93218000D03*
X136398000Y-94742000D03*
X138938000Y-94742000D03*
X133858000Y-94742000D03*
X136398000Y-96266000D03*
X133858000Y-96266000D03*
X138938000Y-96266000D03*
X136398000Y-99314000D03*
X138938000Y-97790000D03*
X136398000Y-97790000D03*
X133858000Y-99314000D03*
X133858000Y-97790000D03*
X138938000Y-99314000D03*
X141478000Y-91694000D03*
X141478000Y-99314000D03*
X141478000Y-94742000D03*
X141478000Y-97790000D03*
X141478000Y-96266000D03*
X141478000Y-93218000D03*
X142240000Y-79502000D03*
X143510000Y-79502000D03*
X140078525Y-80306009D03*
X140970000Y-79502000D03*
X147828000Y-75438000D03*
X146304000Y-94742000D03*
X146304000Y-93218000D03*
X143764000Y-93218000D03*
X143764000Y-94742000D03*
X146304000Y-91694000D03*
X143764000Y-91694000D03*
X136398000Y-89916000D03*
X133858000Y-89916000D03*
X131572000Y-97790000D03*
X131572000Y-99314000D03*
X131572000Y-96266000D03*
X131572000Y-91694000D03*
X131572000Y-93218000D03*
X131572000Y-94742000D03*
X131572000Y-89916000D03*
X133858000Y-101092000D03*
X136398000Y-101092000D03*
X131572000Y-101092000D03*
X143764000Y-96266000D03*
X143764000Y-97790000D03*
%TO.N,Net-(C1-Pad1)*%
X138150600Y-89128600D03*
X139191994Y-79248000D03*
%TD*%
D23*
%TO.N,+5V*%
X139954000Y-102616000D02*
X139954000Y-104063800D01*
X140970000Y-101600000D02*
X139954000Y-102616000D01*
X143002000Y-101600000D02*
X140970000Y-101600000D01*
X145726400Y-100398200D02*
X144203800Y-100398200D01*
X144203800Y-100398200D02*
X143002000Y-101600000D01*
D24*
X147759812Y-100398200D02*
X147828012Y-100330000D01*
X145726400Y-100398200D02*
X147759812Y-100398200D01*
D25*
X144616200Y-87680800D02*
X145175000Y-87122000D01*
X142827600Y-87680800D02*
X144616200Y-87680800D01*
D24*
X146304000Y-77216000D02*
X146304000Y-75438000D01*
X148132800Y-73609200D02*
X149885400Y-73609200D01*
X146304000Y-75438000D02*
X148132800Y-73609200D01*
X146304000Y-77216000D02*
X148336000Y-79248000D01*
X148336000Y-90424000D02*
X148336000Y-90424000D01*
X148336000Y-83058000D02*
X147486700Y-83058000D01*
X147486700Y-83058000D02*
X146253200Y-84291500D01*
X148336000Y-83058000D02*
X148336000Y-90424000D01*
X148336000Y-79248000D02*
X148336000Y-83058000D01*
D25*
%TO.N,GND*%
X144727800Y-101398200D02*
X144272000Y-101854000D01*
X145726400Y-101398200D02*
X144727800Y-101398200D01*
X142494000Y-103632000D02*
X144272000Y-101854000D01*
X142494000Y-104063800D02*
X142494000Y-103632000D01*
X135229600Y-75539600D02*
X135636000Y-75946000D01*
X134225000Y-75539600D02*
X135229600Y-75539600D01*
X135981400Y-75600600D02*
X135636000Y-75946000D01*
X135981400Y-74487400D02*
X135981400Y-75600600D01*
X135280400Y-77063600D02*
X135636000Y-76708000D01*
X134225000Y-77063600D02*
X135280400Y-77063600D01*
X136779000Y-87503000D02*
X136906000Y-87630000D01*
X136779000Y-84034800D02*
X136779000Y-87503000D01*
X135495000Y-87630000D02*
X136906000Y-87630000D01*
X133821200Y-80808800D02*
X133858000Y-80772000D01*
X132410200Y-80808800D02*
X133821200Y-80808800D01*
X145087500Y-90370500D02*
X145034000Y-90424000D01*
X145087500Y-89154000D02*
X145087500Y-90370500D01*
X135636000Y-76708000D02*
X135636000Y-77470000D01*
D26*
X143510000Y-80757700D02*
X142951200Y-81316500D01*
X143510000Y-79502000D02*
X143510000Y-80757700D01*
X142240000Y-80605300D02*
X142951200Y-81316500D01*
X142240000Y-79502000D02*
X142240000Y-80605300D01*
X145542000Y-80605300D02*
X146253200Y-81316500D01*
X145542000Y-79502000D02*
X145542000Y-80605300D01*
X146812000Y-80757700D02*
X146253200Y-81316500D01*
X146812000Y-79502000D02*
X146812000Y-80757700D01*
X140882700Y-76200000D02*
X140425500Y-76657200D01*
X142240000Y-76200000D02*
X140882700Y-76200000D01*
X140425500Y-76657200D02*
X141173200Y-76657200D01*
X141173200Y-76657200D02*
X142240000Y-77724000D01*
D24*
X140106400Y-80333884D02*
X140078525Y-80306009D01*
X140106400Y-81658000D02*
X140106400Y-80333884D01*
D25*
%TO.N,Net-(C1-Pad2)*%
X134239000Y-82730000D02*
X134673000Y-82296000D01*
X134239000Y-84034800D02*
X134239000Y-82730000D01*
X138049000Y-82730000D02*
X138049000Y-84034800D01*
X137615000Y-82296000D02*
X138049000Y-82730000D01*
X134673000Y-82296000D02*
X137615000Y-82296000D01*
%TO.N,Net-(C1-Pad1)*%
X138150600Y-87895400D02*
X138150600Y-89128600D01*
X138049000Y-79134800D02*
X139078794Y-79134800D01*
X139078794Y-79134800D02*
X139191994Y-79248000D01*
%TO.N,/ROSC*%
X133384600Y-82564000D02*
X132435600Y-82564000D01*
X135509000Y-80439600D02*
X133384600Y-82564000D01*
X135509000Y-79134800D02*
X135509000Y-80439600D01*
%TO.N,Net-(JP1-Pad2)*%
X132700000Y-72490600D02*
X134225000Y-74015600D01*
X132700000Y-71932800D02*
X132700000Y-72490600D01*
%TO.N,/A1*%
X132475000Y-74015600D02*
X132475000Y-75539600D01*
X132475000Y-77063600D02*
X132475000Y-75539600D01*
X131191000Y-77063600D02*
X129565400Y-78689200D01*
X132475000Y-77063600D02*
X131191000Y-77063600D01*
%TO.N,/SCL*%
X137414000Y-103251000D02*
X137414000Y-104063800D01*
X142859106Y-100330000D02*
X140335000Y-100330000D01*
X140335000Y-100330000D02*
X137414000Y-103251000D01*
X145726400Y-99398200D02*
X143790906Y-99398200D01*
X143790906Y-99398200D02*
X142859106Y-100330000D01*
X143790906Y-98915494D02*
X143790906Y-99398200D01*
X147269200Y-95437200D02*
X143790906Y-98915494D01*
X149885400Y-91389200D02*
X147269200Y-94005400D01*
X147269200Y-94005400D02*
X147269200Y-95437200D01*
%TO.N,/SDA*%
X147878800Y-97485200D02*
X146965800Y-98398200D01*
X149885400Y-93929200D02*
X147878800Y-95935800D01*
X146965800Y-98398200D02*
X145726400Y-98398200D01*
X147878800Y-95935800D02*
X147878800Y-97485200D01*
X136028801Y-105218601D02*
X134874000Y-104063800D01*
X143898009Y-105218601D02*
X136028801Y-105218601D01*
X148475713Y-100640897D02*
X143898009Y-105218601D01*
X148475713Y-100019103D02*
X148475713Y-100640897D01*
X146854810Y-98398200D02*
X148475713Y-100019103D01*
X145726400Y-98398200D02*
X146854810Y-98398200D01*
%TO.N,Net-(C7-Pad1)*%
X133745000Y-86106000D02*
X133745000Y-87630000D01*
%TO.N,Net-(C8-Pad1)*%
X134163000Y-79058800D02*
X134239000Y-79134800D01*
X132410200Y-79058800D02*
X134163000Y-79058800D01*
%TO.N,Net-(R1-Pad1)*%
X135509000Y-86092000D02*
X135495000Y-86106000D01*
X135509000Y-84034800D02*
X135509000Y-86092000D01*
%TO.N,Net-(D2-Pad2)*%
X146925000Y-89066500D02*
X147012500Y-89154000D01*
X146925000Y-87122000D02*
X146925000Y-89066500D01*
%TO.N,VIN_SW*%
X135473200Y-73406000D02*
X134323296Y-72256096D01*
X137881400Y-74487400D02*
X136800000Y-73406000D01*
X136800000Y-73406000D02*
X135473200Y-73406000D01*
%TD*%
D27*
%TO.N,GND*%
G36*
X131568377Y-77920223D02*
G01*
X131701058Y-78029112D01*
X131706919Y-78032245D01*
X131686258Y-78043288D01*
X131553577Y-78152177D01*
X131444688Y-78284858D01*
X131363777Y-78436233D01*
X131313952Y-78600484D01*
X131297128Y-78771300D01*
X131297128Y-79346300D01*
X131313952Y-79517116D01*
X131363777Y-79681367D01*
X131444688Y-79832742D01*
X131464299Y-79856639D01*
X131404663Y-79929306D01*
X131345698Y-80039620D01*
X131309388Y-80159318D01*
X131297128Y-80283800D01*
X131300200Y-80523050D01*
X131458950Y-80681800D01*
X132283200Y-80681800D01*
X132283200Y-80661800D01*
X132537200Y-80661800D01*
X132537200Y-80681800D01*
X133361450Y-80681800D01*
X133474044Y-80569206D01*
X133487815Y-80585985D01*
X133584506Y-80665337D01*
X133694820Y-80724302D01*
X133814518Y-80760612D01*
X133939000Y-80772872D01*
X134062177Y-80772872D01*
X133522993Y-81312057D01*
X133520200Y-81094550D01*
X133361450Y-80935800D01*
X132537200Y-80935800D01*
X132537200Y-80955800D01*
X132283200Y-80955800D01*
X132283200Y-80935800D01*
X131458950Y-80935800D01*
X131300200Y-81094550D01*
X131297128Y-81333800D01*
X131309388Y-81458282D01*
X131345698Y-81577980D01*
X131404663Y-81688294D01*
X131479133Y-81779036D01*
X131470088Y-81790058D01*
X131389177Y-81941433D01*
X131339352Y-82105684D01*
X131322528Y-82276500D01*
X131322528Y-82851500D01*
X131339352Y-83022316D01*
X131389177Y-83186567D01*
X131470088Y-83337942D01*
X131489699Y-83361839D01*
X131430063Y-83434506D01*
X131371098Y-83544820D01*
X131334788Y-83664518D01*
X131322528Y-83789000D01*
X131325600Y-84028250D01*
X131484350Y-84187000D01*
X132308600Y-84187000D01*
X132308600Y-84167000D01*
X132562600Y-84167000D01*
X132562600Y-84187000D01*
X132582600Y-84187000D01*
X132582600Y-84441000D01*
X132562600Y-84441000D01*
X132562600Y-85315250D01*
X132694628Y-85447278D01*
X132648577Y-85533433D01*
X132598752Y-85697684D01*
X132581928Y-85868500D01*
X132581928Y-86343500D01*
X132598752Y-86514316D01*
X132648577Y-86678567D01*
X132729488Y-86829942D01*
X132760722Y-86868000D01*
X132729488Y-86906058D01*
X132648577Y-87057433D01*
X132598752Y-87221684D01*
X132581928Y-87392500D01*
X132581928Y-87867500D01*
X132598752Y-88038316D01*
X132648577Y-88202567D01*
X132729488Y-88353942D01*
X132838377Y-88486623D01*
X132971058Y-88595512D01*
X133122433Y-88676423D01*
X133286684Y-88726248D01*
X133457500Y-88743072D01*
X134032500Y-88743072D01*
X134203316Y-88726248D01*
X134367567Y-88676423D01*
X134518942Y-88595512D01*
X134542839Y-88575901D01*
X134615506Y-88635537D01*
X134725820Y-88694502D01*
X134845518Y-88730812D01*
X134970000Y-88743072D01*
X135209250Y-88740000D01*
X135368000Y-88581250D01*
X135368000Y-87757000D01*
X135622000Y-87757000D01*
X135622000Y-88581250D01*
X135780750Y-88740000D01*
X136020000Y-88743072D01*
X136144482Y-88730812D01*
X136264180Y-88694502D01*
X136374494Y-88635537D01*
X136471185Y-88556185D01*
X136550537Y-88459494D01*
X136609502Y-88349180D01*
X136645812Y-88229482D01*
X136658072Y-88105000D01*
X136655000Y-87915750D01*
X136496250Y-87757000D01*
X135622000Y-87757000D01*
X135368000Y-87757000D01*
X135348000Y-87757000D01*
X135348000Y-87503000D01*
X135368000Y-87503000D01*
X135368000Y-87483000D01*
X135622000Y-87483000D01*
X135622000Y-87503000D01*
X136496250Y-87503000D01*
X136655000Y-87344250D01*
X136658072Y-87155000D01*
X136645812Y-87030518D01*
X136609502Y-86910820D01*
X136550537Y-86800506D01*
X136535827Y-86782581D01*
X136591423Y-86678567D01*
X136641248Y-86514316D01*
X136658072Y-86343500D01*
X136658072Y-85868500D01*
X136641248Y-85697684D01*
X136600312Y-85562738D01*
X136651998Y-85511052D01*
X136651998Y-85669800D01*
X136779000Y-85669800D01*
X136779000Y-86233000D01*
X136782993Y-86304097D01*
X136805282Y-86501918D01*
X136836923Y-86640549D01*
X136902673Y-86828451D01*
X136964370Y-86956564D01*
X137070283Y-87125123D01*
X137137845Y-87209844D01*
X137104177Y-87272833D01*
X137054352Y-87437084D01*
X137037528Y-87607900D01*
X137037528Y-88182900D01*
X137054352Y-88353716D01*
X137104177Y-88517967D01*
X137185088Y-88669342D01*
X137249732Y-88748111D01*
X137210280Y-88843357D01*
X137172700Y-89032285D01*
X137172700Y-89224915D01*
X137210280Y-89413843D01*
X137283996Y-89591810D01*
X137391015Y-89751975D01*
X137527225Y-89888185D01*
X137687390Y-89995204D01*
X137865357Y-90068920D01*
X138054285Y-90106500D01*
X138246915Y-90106500D01*
X138435843Y-90068920D01*
X138613810Y-89995204D01*
X138629645Y-89984623D01*
X138680673Y-90130451D01*
X138742370Y-90258564D01*
X138848283Y-90427123D01*
X138936939Y-90538295D01*
X139077705Y-90679061D01*
X139188877Y-90767717D01*
X139357436Y-90873630D01*
X139485549Y-90935327D01*
X139673451Y-91001077D01*
X139812082Y-91032718D01*
X140009903Y-91055007D01*
X140152097Y-91055007D01*
X140349918Y-91032718D01*
X140488549Y-91001077D01*
X140676451Y-90935327D01*
X140804564Y-90873630D01*
X140973123Y-90767717D01*
X141084295Y-90679061D01*
X141225061Y-90538295D01*
X141253911Y-90502118D01*
X141280031Y-90533946D01*
X141368054Y-90621969D01*
X141519591Y-90746332D01*
X141623093Y-90815490D01*
X141795980Y-90907900D01*
X141910988Y-90955538D01*
X142098581Y-91012443D01*
X142220668Y-91036727D01*
X142415758Y-91055942D01*
X142478000Y-91059000D01*
X142764000Y-91059000D01*
X142826242Y-91055942D01*
X143021332Y-91036727D01*
X143143419Y-91012443D01*
X143331012Y-90955538D01*
X143446020Y-90907900D01*
X143618907Y-90815490D01*
X143722409Y-90746332D01*
X143873946Y-90621969D01*
X143961969Y-90533946D01*
X144086332Y-90382409D01*
X144105736Y-90353368D01*
X144180820Y-90393502D01*
X144300518Y-90429812D01*
X144425000Y-90442072D01*
X144801750Y-90439000D01*
X144960500Y-90280250D01*
X144960500Y-89281000D01*
X144940500Y-89281000D01*
X144940500Y-89027000D01*
X144960500Y-89027000D01*
X144960500Y-89007000D01*
X145214500Y-89007000D01*
X145214500Y-89027000D01*
X145234500Y-89027000D01*
X145234500Y-89281000D01*
X145214500Y-89281000D01*
X145214500Y-90280250D01*
X145373250Y-90439000D01*
X145750000Y-90442072D01*
X145874482Y-90429812D01*
X145994180Y-90393502D01*
X146104494Y-90334537D01*
X146136420Y-90308336D01*
X146260150Y-90374472D01*
X146426746Y-90425008D01*
X146600000Y-90442072D01*
X147358100Y-90442072D01*
X147358100Y-90520315D01*
X147395680Y-90709243D01*
X147469396Y-90887210D01*
X147576415Y-91047375D01*
X147712625Y-91183585D01*
X147872790Y-91290604D01*
X148050757Y-91364320D01*
X148239685Y-91401900D01*
X148400400Y-91401900D01*
X148400400Y-91535460D01*
X148437761Y-91723287D01*
X146739778Y-93421272D01*
X146709731Y-93445931D01*
X146611334Y-93565829D01*
X146538218Y-93702618D01*
X146493194Y-93851044D01*
X146481800Y-93966728D01*
X146481800Y-93966737D01*
X146477992Y-94005400D01*
X146481800Y-94044063D01*
X146481801Y-95111047D01*
X143261484Y-98331366D01*
X143231437Y-98356025D01*
X143133040Y-98475923D01*
X143059924Y-98612712D01*
X143014900Y-98761138D01*
X143003506Y-98876822D01*
X143003506Y-98876831D01*
X142999698Y-98915494D01*
X143003506Y-98954157D01*
X143003506Y-99072049D01*
X142532955Y-99542600D01*
X140373663Y-99542600D01*
X140335000Y-99538792D01*
X140296337Y-99542600D01*
X140296327Y-99542600D01*
X140180643Y-99553994D01*
X140052247Y-99592942D01*
X140032217Y-99599018D01*
X139895427Y-99672134D01*
X139841587Y-99716320D01*
X139775531Y-99770531D01*
X139750878Y-99800571D01*
X136884578Y-102666872D01*
X136862757Y-102684780D01*
X136710589Y-102747810D01*
X136467368Y-102910325D01*
X136260525Y-103117168D01*
X136144000Y-103291560D01*
X136027475Y-103117168D01*
X135820632Y-102910325D01*
X135577411Y-102747810D01*
X135307158Y-102635868D01*
X135020260Y-102578800D01*
X134727740Y-102578800D01*
X134440842Y-102635868D01*
X134170589Y-102747810D01*
X133927368Y-102910325D01*
X133720525Y-103117168D01*
X133558010Y-103360389D01*
X133446068Y-103630642D01*
X133389000Y-103917540D01*
X133389000Y-104210060D01*
X133446068Y-104496958D01*
X133558010Y-104767211D01*
X133720525Y-105010432D01*
X133927368Y-105217275D01*
X134170589Y-105379790D01*
X134440842Y-105491732D01*
X134727740Y-105548800D01*
X135020260Y-105548800D01*
X135208087Y-105511439D01*
X135444682Y-105748034D01*
X135469332Y-105778070D01*
X135499368Y-105802720D01*
X135499370Y-105802722D01*
X135562856Y-105854823D01*
X135589229Y-105876467D01*
X135726018Y-105949583D01*
X135874444Y-105994607D01*
X135990128Y-106006001D01*
X135990137Y-106006001D01*
X136028800Y-106009809D01*
X136067463Y-106006001D01*
X143859346Y-106006001D01*
X143898009Y-106009809D01*
X143936672Y-106006001D01*
X143936682Y-106006001D01*
X144052366Y-105994607D01*
X144200792Y-105949583D01*
X144337581Y-105876467D01*
X144457478Y-105778070D01*
X144482137Y-105748023D01*
X148091354Y-102138806D01*
X148080392Y-102174945D01*
X148063328Y-102348199D01*
X148063328Y-103048201D01*
X148080392Y-103221455D01*
X148130928Y-103388051D01*
X148212995Y-103541587D01*
X148323438Y-103676162D01*
X148458013Y-103786605D01*
X148611549Y-103868672D01*
X148778145Y-103919208D01*
X148951399Y-103936272D01*
X150251401Y-103936272D01*
X150424655Y-103919208D01*
X150495401Y-103897748D01*
X150495401Y-106361868D01*
X150374485Y-106069950D01*
X150157251Y-105744836D01*
X149880764Y-105468349D01*
X149555650Y-105251115D01*
X149194403Y-105101482D01*
X148810905Y-105025200D01*
X148419895Y-105025200D01*
X148036397Y-105101482D01*
X147675150Y-105251115D01*
X147350036Y-105468349D01*
X147073549Y-105744836D01*
X146856315Y-106069950D01*
X146706682Y-106431197D01*
X146630400Y-106814695D01*
X146630400Y-107205705D01*
X146706682Y-107589203D01*
X146856315Y-107950450D01*
X147073549Y-108275564D01*
X147350036Y-108552051D01*
X147675150Y-108769285D01*
X148036397Y-108918918D01*
X148419895Y-108995200D01*
X148810905Y-108995200D01*
X149194403Y-108918918D01*
X149546382Y-108773124D01*
X149440981Y-108860319D01*
X149031562Y-109081691D01*
X148586935Y-109219326D01*
X148093390Y-109271200D01*
X131121678Y-109271200D01*
X130675518Y-109227454D01*
X130277401Y-109107255D01*
X129910215Y-108912019D01*
X129587939Y-108649177D01*
X129330163Y-108337578D01*
X129544636Y-108552051D01*
X129869750Y-108769285D01*
X130230997Y-108918918D01*
X130614495Y-108995200D01*
X131005505Y-108995200D01*
X131389003Y-108918918D01*
X131750250Y-108769285D01*
X132075364Y-108552051D01*
X132351851Y-108275564D01*
X132569085Y-107950450D01*
X132718718Y-107589203D01*
X132795000Y-107205705D01*
X132795000Y-106814695D01*
X132718718Y-106431197D01*
X132569085Y-106069950D01*
X132351851Y-105744836D01*
X132075364Y-105468349D01*
X131750250Y-105251115D01*
X131389003Y-105101482D01*
X131005505Y-105025200D01*
X130725979Y-105025200D01*
X130881390Y-104792611D01*
X130993332Y-104522358D01*
X131050400Y-104235460D01*
X131050400Y-103942940D01*
X130993332Y-103656042D01*
X130881390Y-103385789D01*
X130718875Y-103142568D01*
X130512032Y-102935725D01*
X130337640Y-102819200D01*
X130512032Y-102702675D01*
X130718875Y-102495832D01*
X130881390Y-102252611D01*
X130993332Y-101982358D01*
X131050400Y-101695460D01*
X131050400Y-101402940D01*
X130993332Y-101116042D01*
X130881390Y-100845789D01*
X130718875Y-100602568D01*
X130512032Y-100395725D01*
X130337640Y-100279200D01*
X130512032Y-100162675D01*
X130718875Y-99955832D01*
X130881390Y-99712611D01*
X130993332Y-99442358D01*
X131050400Y-99155460D01*
X131050400Y-98862940D01*
X130993332Y-98576042D01*
X130881390Y-98305789D01*
X130718875Y-98062568D01*
X130512032Y-97855725D01*
X130337640Y-97739200D01*
X130512032Y-97622675D01*
X130718875Y-97415832D01*
X130881390Y-97172611D01*
X130993332Y-96902358D01*
X131050400Y-96615460D01*
X131050400Y-96322940D01*
X130993332Y-96036042D01*
X130881390Y-95765789D01*
X130718875Y-95522568D01*
X130512032Y-95315725D01*
X130337640Y-95199200D01*
X130512032Y-95082675D01*
X130718875Y-94875832D01*
X130881390Y-94632611D01*
X130993332Y-94362358D01*
X131050400Y-94075460D01*
X131050400Y-93782940D01*
X130993332Y-93496042D01*
X130881390Y-93225789D01*
X130718875Y-92982568D01*
X130512032Y-92775725D01*
X130337640Y-92659200D01*
X130512032Y-92542675D01*
X130718875Y-92335832D01*
X130881390Y-92092611D01*
X130993332Y-91822358D01*
X131050400Y-91535460D01*
X131050400Y-91242940D01*
X130993332Y-90956042D01*
X130881390Y-90685789D01*
X130718875Y-90442568D01*
X130512032Y-90235725D01*
X130337640Y-90119200D01*
X130512032Y-90002675D01*
X130718875Y-89795832D01*
X130881390Y-89552611D01*
X130993332Y-89282358D01*
X131050400Y-88995460D01*
X131050400Y-88702940D01*
X130993332Y-88416042D01*
X130881390Y-88145789D01*
X130718875Y-87902568D01*
X130512032Y-87695725D01*
X130337640Y-87579200D01*
X130512032Y-87462675D01*
X130718875Y-87255832D01*
X130881390Y-87012611D01*
X130993332Y-86742358D01*
X131050400Y-86455460D01*
X131050400Y-86162940D01*
X130993332Y-85876042D01*
X130881390Y-85605789D01*
X130718875Y-85362568D01*
X130512032Y-85155725D01*
X130337640Y-85039200D01*
X130512032Y-84922675D01*
X130595707Y-84839000D01*
X131322528Y-84839000D01*
X131334788Y-84963482D01*
X131371098Y-85083180D01*
X131430063Y-85193494D01*
X131509415Y-85290185D01*
X131606106Y-85369537D01*
X131716420Y-85428502D01*
X131836118Y-85464812D01*
X131960600Y-85477072D01*
X132149850Y-85474000D01*
X132308600Y-85315250D01*
X132308600Y-84441000D01*
X131484350Y-84441000D01*
X131325600Y-84599750D01*
X131322528Y-84839000D01*
X130595707Y-84839000D01*
X130718875Y-84715832D01*
X130881390Y-84472611D01*
X130993332Y-84202358D01*
X131050400Y-83915460D01*
X131050400Y-83622940D01*
X130993332Y-83336042D01*
X130881390Y-83065789D01*
X130718875Y-82822568D01*
X130512032Y-82615725D01*
X130337640Y-82499200D01*
X130512032Y-82382675D01*
X130718875Y-82175832D01*
X130881390Y-81932611D01*
X130993332Y-81662358D01*
X131050400Y-81375460D01*
X131050400Y-81082940D01*
X130993332Y-80796042D01*
X130881390Y-80525789D01*
X130718875Y-80282568D01*
X130512032Y-80075725D01*
X130337640Y-79959200D01*
X130512032Y-79842675D01*
X130718875Y-79635832D01*
X130881390Y-79392611D01*
X130993332Y-79122358D01*
X131050400Y-78835460D01*
X131050400Y-78542940D01*
X131013039Y-78355113D01*
X131514084Y-77854067D01*
X131568377Y-77920223D01*
G37*
X131568377Y-77920223D02*
X131701058Y-78029112D01*
X131706919Y-78032245D01*
X131686258Y-78043288D01*
X131553577Y-78152177D01*
X131444688Y-78284858D01*
X131363777Y-78436233D01*
X131313952Y-78600484D01*
X131297128Y-78771300D01*
X131297128Y-79346300D01*
X131313952Y-79517116D01*
X131363777Y-79681367D01*
X131444688Y-79832742D01*
X131464299Y-79856639D01*
X131404663Y-79929306D01*
X131345698Y-80039620D01*
X131309388Y-80159318D01*
X131297128Y-80283800D01*
X131300200Y-80523050D01*
X131458950Y-80681800D01*
X132283200Y-80681800D01*
X132283200Y-80661800D01*
X132537200Y-80661800D01*
X132537200Y-80681800D01*
X133361450Y-80681800D01*
X133474044Y-80569206D01*
X133487815Y-80585985D01*
X133584506Y-80665337D01*
X133694820Y-80724302D01*
X133814518Y-80760612D01*
X133939000Y-80772872D01*
X134062177Y-80772872D01*
X133522993Y-81312057D01*
X133520200Y-81094550D01*
X133361450Y-80935800D01*
X132537200Y-80935800D01*
X132537200Y-80955800D01*
X132283200Y-80955800D01*
X132283200Y-80935800D01*
X131458950Y-80935800D01*
X131300200Y-81094550D01*
X131297128Y-81333800D01*
X131309388Y-81458282D01*
X131345698Y-81577980D01*
X131404663Y-81688294D01*
X131479133Y-81779036D01*
X131470088Y-81790058D01*
X131389177Y-81941433D01*
X131339352Y-82105684D01*
X131322528Y-82276500D01*
X131322528Y-82851500D01*
X131339352Y-83022316D01*
X131389177Y-83186567D01*
X131470088Y-83337942D01*
X131489699Y-83361839D01*
X131430063Y-83434506D01*
X131371098Y-83544820D01*
X131334788Y-83664518D01*
X131322528Y-83789000D01*
X131325600Y-84028250D01*
X131484350Y-84187000D01*
X132308600Y-84187000D01*
X132308600Y-84167000D01*
X132562600Y-84167000D01*
X132562600Y-84187000D01*
X132582600Y-84187000D01*
X132582600Y-84441000D01*
X132562600Y-84441000D01*
X132562600Y-85315250D01*
X132694628Y-85447278D01*
X132648577Y-85533433D01*
X132598752Y-85697684D01*
X132581928Y-85868500D01*
X132581928Y-86343500D01*
X132598752Y-86514316D01*
X132648577Y-86678567D01*
X132729488Y-86829942D01*
X132760722Y-86868000D01*
X132729488Y-86906058D01*
X132648577Y-87057433D01*
X132598752Y-87221684D01*
X132581928Y-87392500D01*
X132581928Y-87867500D01*
X132598752Y-88038316D01*
X132648577Y-88202567D01*
X132729488Y-88353942D01*
X132838377Y-88486623D01*
X132971058Y-88595512D01*
X133122433Y-88676423D01*
X133286684Y-88726248D01*
X133457500Y-88743072D01*
X134032500Y-88743072D01*
X134203316Y-88726248D01*
X134367567Y-88676423D01*
X134518942Y-88595512D01*
X134542839Y-88575901D01*
X134615506Y-88635537D01*
X134725820Y-88694502D01*
X134845518Y-88730812D01*
X134970000Y-88743072D01*
X135209250Y-88740000D01*
X135368000Y-88581250D01*
X135368000Y-87757000D01*
X135622000Y-87757000D01*
X135622000Y-88581250D01*
X135780750Y-88740000D01*
X136020000Y-88743072D01*
X136144482Y-88730812D01*
X136264180Y-88694502D01*
X136374494Y-88635537D01*
X136471185Y-88556185D01*
X136550537Y-88459494D01*
X136609502Y-88349180D01*
X136645812Y-88229482D01*
X136658072Y-88105000D01*
X136655000Y-87915750D01*
X136496250Y-87757000D01*
X135622000Y-87757000D01*
X135368000Y-87757000D01*
X135348000Y-87757000D01*
X135348000Y-87503000D01*
X135368000Y-87503000D01*
X135368000Y-87483000D01*
X135622000Y-87483000D01*
X135622000Y-87503000D01*
X136496250Y-87503000D01*
X136655000Y-87344250D01*
X136658072Y-87155000D01*
X136645812Y-87030518D01*
X136609502Y-86910820D01*
X136550537Y-86800506D01*
X136535827Y-86782581D01*
X136591423Y-86678567D01*
X136641248Y-86514316D01*
X136658072Y-86343500D01*
X136658072Y-85868500D01*
X136641248Y-85697684D01*
X136600312Y-85562738D01*
X136651998Y-85511052D01*
X136651998Y-85669800D01*
X136779000Y-85669800D01*
X136779000Y-86233000D01*
X136782993Y-86304097D01*
X136805282Y-86501918D01*
X136836923Y-86640549D01*
X136902673Y-86828451D01*
X136964370Y-86956564D01*
X137070283Y-87125123D01*
X137137845Y-87209844D01*
X137104177Y-87272833D01*
X137054352Y-87437084D01*
X137037528Y-87607900D01*
X137037528Y-88182900D01*
X137054352Y-88353716D01*
X137104177Y-88517967D01*
X137185088Y-88669342D01*
X137249732Y-88748111D01*
X137210280Y-88843357D01*
X137172700Y-89032285D01*
X137172700Y-89224915D01*
X137210280Y-89413843D01*
X137283996Y-89591810D01*
X137391015Y-89751975D01*
X137527225Y-89888185D01*
X137687390Y-89995204D01*
X137865357Y-90068920D01*
X138054285Y-90106500D01*
X138246915Y-90106500D01*
X138435843Y-90068920D01*
X138613810Y-89995204D01*
X138629645Y-89984623D01*
X138680673Y-90130451D01*
X138742370Y-90258564D01*
X138848283Y-90427123D01*
X138936939Y-90538295D01*
X139077705Y-90679061D01*
X139188877Y-90767717D01*
X139357436Y-90873630D01*
X139485549Y-90935327D01*
X139673451Y-91001077D01*
X139812082Y-91032718D01*
X140009903Y-91055007D01*
X140152097Y-91055007D01*
X140349918Y-91032718D01*
X140488549Y-91001077D01*
X140676451Y-90935327D01*
X140804564Y-90873630D01*
X140973123Y-90767717D01*
X141084295Y-90679061D01*
X141225061Y-90538295D01*
X141253911Y-90502118D01*
X141280031Y-90533946D01*
X141368054Y-90621969D01*
X141519591Y-90746332D01*
X141623093Y-90815490D01*
X141795980Y-90907900D01*
X141910988Y-90955538D01*
X142098581Y-91012443D01*
X142220668Y-91036727D01*
X142415758Y-91055942D01*
X142478000Y-91059000D01*
X142764000Y-91059000D01*
X142826242Y-91055942D01*
X143021332Y-91036727D01*
X143143419Y-91012443D01*
X143331012Y-90955538D01*
X143446020Y-90907900D01*
X143618907Y-90815490D01*
X143722409Y-90746332D01*
X143873946Y-90621969D01*
X143961969Y-90533946D01*
X144086332Y-90382409D01*
X144105736Y-90353368D01*
X144180820Y-90393502D01*
X144300518Y-90429812D01*
X144425000Y-90442072D01*
X144801750Y-90439000D01*
X144960500Y-90280250D01*
X144960500Y-89281000D01*
X144940500Y-89281000D01*
X144940500Y-89027000D01*
X144960500Y-89027000D01*
X144960500Y-89007000D01*
X145214500Y-89007000D01*
X145214500Y-89027000D01*
X145234500Y-89027000D01*
X145234500Y-89281000D01*
X145214500Y-89281000D01*
X145214500Y-90280250D01*
X145373250Y-90439000D01*
X145750000Y-90442072D01*
X145874482Y-90429812D01*
X145994180Y-90393502D01*
X146104494Y-90334537D01*
X146136420Y-90308336D01*
X146260150Y-90374472D01*
X146426746Y-90425008D01*
X146600000Y-90442072D01*
X147358100Y-90442072D01*
X147358100Y-90520315D01*
X147395680Y-90709243D01*
X147469396Y-90887210D01*
X147576415Y-91047375D01*
X147712625Y-91183585D01*
X147872790Y-91290604D01*
X148050757Y-91364320D01*
X148239685Y-91401900D01*
X148400400Y-91401900D01*
X148400400Y-91535460D01*
X148437761Y-91723287D01*
X146739778Y-93421272D01*
X146709731Y-93445931D01*
X146611334Y-93565829D01*
X146538218Y-93702618D01*
X146493194Y-93851044D01*
X146481800Y-93966728D01*
X146481800Y-93966737D01*
X146477992Y-94005400D01*
X146481800Y-94044063D01*
X146481801Y-95111047D01*
X143261484Y-98331366D01*
X143231437Y-98356025D01*
X143133040Y-98475923D01*
X143059924Y-98612712D01*
X143014900Y-98761138D01*
X143003506Y-98876822D01*
X143003506Y-98876831D01*
X142999698Y-98915494D01*
X143003506Y-98954157D01*
X143003506Y-99072049D01*
X142532955Y-99542600D01*
X140373663Y-99542600D01*
X140335000Y-99538792D01*
X140296337Y-99542600D01*
X140296327Y-99542600D01*
X140180643Y-99553994D01*
X140052247Y-99592942D01*
X140032217Y-99599018D01*
X139895427Y-99672134D01*
X139841587Y-99716320D01*
X139775531Y-99770531D01*
X139750878Y-99800571D01*
X136884578Y-102666872D01*
X136862757Y-102684780D01*
X136710589Y-102747810D01*
X136467368Y-102910325D01*
X136260525Y-103117168D01*
X136144000Y-103291560D01*
X136027475Y-103117168D01*
X135820632Y-102910325D01*
X135577411Y-102747810D01*
X135307158Y-102635868D01*
X135020260Y-102578800D01*
X134727740Y-102578800D01*
X134440842Y-102635868D01*
X134170589Y-102747810D01*
X133927368Y-102910325D01*
X133720525Y-103117168D01*
X133558010Y-103360389D01*
X133446068Y-103630642D01*
X133389000Y-103917540D01*
X133389000Y-104210060D01*
X133446068Y-104496958D01*
X133558010Y-104767211D01*
X133720525Y-105010432D01*
X133927368Y-105217275D01*
X134170589Y-105379790D01*
X134440842Y-105491732D01*
X134727740Y-105548800D01*
X135020260Y-105548800D01*
X135208087Y-105511439D01*
X135444682Y-105748034D01*
X135469332Y-105778070D01*
X135499368Y-105802720D01*
X135499370Y-105802722D01*
X135562856Y-105854823D01*
X135589229Y-105876467D01*
X135726018Y-105949583D01*
X135874444Y-105994607D01*
X135990128Y-106006001D01*
X135990137Y-106006001D01*
X136028800Y-106009809D01*
X136067463Y-106006001D01*
X143859346Y-106006001D01*
X143898009Y-106009809D01*
X143936672Y-106006001D01*
X143936682Y-106006001D01*
X144052366Y-105994607D01*
X144200792Y-105949583D01*
X144337581Y-105876467D01*
X144457478Y-105778070D01*
X144482137Y-105748023D01*
X148091354Y-102138806D01*
X148080392Y-102174945D01*
X148063328Y-102348199D01*
X148063328Y-103048201D01*
X148080392Y-103221455D01*
X148130928Y-103388051D01*
X148212995Y-103541587D01*
X148323438Y-103676162D01*
X148458013Y-103786605D01*
X148611549Y-103868672D01*
X148778145Y-103919208D01*
X148951399Y-103936272D01*
X150251401Y-103936272D01*
X150424655Y-103919208D01*
X150495401Y-103897748D01*
X150495401Y-106361868D01*
X150374485Y-106069950D01*
X150157251Y-105744836D01*
X149880764Y-105468349D01*
X149555650Y-105251115D01*
X149194403Y-105101482D01*
X148810905Y-105025200D01*
X148419895Y-105025200D01*
X148036397Y-105101482D01*
X147675150Y-105251115D01*
X147350036Y-105468349D01*
X147073549Y-105744836D01*
X146856315Y-106069950D01*
X146706682Y-106431197D01*
X146630400Y-106814695D01*
X146630400Y-107205705D01*
X146706682Y-107589203D01*
X146856315Y-107950450D01*
X147073549Y-108275564D01*
X147350036Y-108552051D01*
X147675150Y-108769285D01*
X148036397Y-108918918D01*
X148419895Y-108995200D01*
X148810905Y-108995200D01*
X149194403Y-108918918D01*
X149546382Y-108773124D01*
X149440981Y-108860319D01*
X149031562Y-109081691D01*
X148586935Y-109219326D01*
X148093390Y-109271200D01*
X131121678Y-109271200D01*
X130675518Y-109227454D01*
X130277401Y-109107255D01*
X129910215Y-108912019D01*
X129587939Y-108649177D01*
X129330163Y-108337578D01*
X129544636Y-108552051D01*
X129869750Y-108769285D01*
X130230997Y-108918918D01*
X130614495Y-108995200D01*
X131005505Y-108995200D01*
X131389003Y-108918918D01*
X131750250Y-108769285D01*
X132075364Y-108552051D01*
X132351851Y-108275564D01*
X132569085Y-107950450D01*
X132718718Y-107589203D01*
X132795000Y-107205705D01*
X132795000Y-106814695D01*
X132718718Y-106431197D01*
X132569085Y-106069950D01*
X132351851Y-105744836D01*
X132075364Y-105468349D01*
X131750250Y-105251115D01*
X131389003Y-105101482D01*
X131005505Y-105025200D01*
X130725979Y-105025200D01*
X130881390Y-104792611D01*
X130993332Y-104522358D01*
X131050400Y-104235460D01*
X131050400Y-103942940D01*
X130993332Y-103656042D01*
X130881390Y-103385789D01*
X130718875Y-103142568D01*
X130512032Y-102935725D01*
X130337640Y-102819200D01*
X130512032Y-102702675D01*
X130718875Y-102495832D01*
X130881390Y-102252611D01*
X130993332Y-101982358D01*
X131050400Y-101695460D01*
X131050400Y-101402940D01*
X130993332Y-101116042D01*
X130881390Y-100845789D01*
X130718875Y-100602568D01*
X130512032Y-100395725D01*
X130337640Y-100279200D01*
X130512032Y-100162675D01*
X130718875Y-99955832D01*
X130881390Y-99712611D01*
X130993332Y-99442358D01*
X131050400Y-99155460D01*
X131050400Y-98862940D01*
X130993332Y-98576042D01*
X130881390Y-98305789D01*
X130718875Y-98062568D01*
X130512032Y-97855725D01*
X130337640Y-97739200D01*
X130512032Y-97622675D01*
X130718875Y-97415832D01*
X130881390Y-97172611D01*
X130993332Y-96902358D01*
X131050400Y-96615460D01*
X131050400Y-96322940D01*
X130993332Y-96036042D01*
X130881390Y-95765789D01*
X130718875Y-95522568D01*
X130512032Y-95315725D01*
X130337640Y-95199200D01*
X130512032Y-95082675D01*
X130718875Y-94875832D01*
X130881390Y-94632611D01*
X130993332Y-94362358D01*
X131050400Y-94075460D01*
X131050400Y-93782940D01*
X130993332Y-93496042D01*
X130881390Y-93225789D01*
X130718875Y-92982568D01*
X130512032Y-92775725D01*
X130337640Y-92659200D01*
X130512032Y-92542675D01*
X130718875Y-92335832D01*
X130881390Y-92092611D01*
X130993332Y-91822358D01*
X131050400Y-91535460D01*
X131050400Y-91242940D01*
X130993332Y-90956042D01*
X130881390Y-90685789D01*
X130718875Y-90442568D01*
X130512032Y-90235725D01*
X130337640Y-90119200D01*
X130512032Y-90002675D01*
X130718875Y-89795832D01*
X130881390Y-89552611D01*
X130993332Y-89282358D01*
X131050400Y-88995460D01*
X131050400Y-88702940D01*
X130993332Y-88416042D01*
X130881390Y-88145789D01*
X130718875Y-87902568D01*
X130512032Y-87695725D01*
X130337640Y-87579200D01*
X130512032Y-87462675D01*
X130718875Y-87255832D01*
X130881390Y-87012611D01*
X130993332Y-86742358D01*
X131050400Y-86455460D01*
X131050400Y-86162940D01*
X130993332Y-85876042D01*
X130881390Y-85605789D01*
X130718875Y-85362568D01*
X130512032Y-85155725D01*
X130337640Y-85039200D01*
X130512032Y-84922675D01*
X130595707Y-84839000D01*
X131322528Y-84839000D01*
X131334788Y-84963482D01*
X131371098Y-85083180D01*
X131430063Y-85193494D01*
X131509415Y-85290185D01*
X131606106Y-85369537D01*
X131716420Y-85428502D01*
X131836118Y-85464812D01*
X131960600Y-85477072D01*
X132149850Y-85474000D01*
X132308600Y-85315250D01*
X132308600Y-84441000D01*
X131484350Y-84441000D01*
X131325600Y-84599750D01*
X131322528Y-84839000D01*
X130595707Y-84839000D01*
X130718875Y-84715832D01*
X130881390Y-84472611D01*
X130993332Y-84202358D01*
X131050400Y-83915460D01*
X131050400Y-83622940D01*
X130993332Y-83336042D01*
X130881390Y-83065789D01*
X130718875Y-82822568D01*
X130512032Y-82615725D01*
X130337640Y-82499200D01*
X130512032Y-82382675D01*
X130718875Y-82175832D01*
X130881390Y-81932611D01*
X130993332Y-81662358D01*
X131050400Y-81375460D01*
X131050400Y-81082940D01*
X130993332Y-80796042D01*
X130881390Y-80525789D01*
X130718875Y-80282568D01*
X130512032Y-80075725D01*
X130337640Y-79959200D01*
X130512032Y-79842675D01*
X130718875Y-79635832D01*
X130881390Y-79392611D01*
X130993332Y-79122358D01*
X131050400Y-78835460D01*
X131050400Y-78542940D01*
X131013039Y-78355113D01*
X131514084Y-77854067D01*
X131568377Y-77920223D01*
G36*
X142621000Y-103936800D02*
G01*
X142641000Y-103936800D01*
X142641000Y-104190800D01*
X142621000Y-104190800D01*
X142621000Y-104210800D01*
X142367000Y-104210800D01*
X142367000Y-104190800D01*
X142347000Y-104190800D01*
X142347000Y-103936800D01*
X142367000Y-103936800D01*
X142367000Y-103916800D01*
X142621000Y-103916800D01*
X142621000Y-103936800D01*
G37*
X142621000Y-103936800D02*
X142641000Y-103936800D01*
X142641000Y-104190800D01*
X142621000Y-104190800D01*
X142621000Y-104210800D01*
X142367000Y-104210800D01*
X142367000Y-104190800D01*
X142347000Y-104190800D01*
X142347000Y-103936800D01*
X142367000Y-103936800D01*
X142367000Y-103916800D01*
X142621000Y-103916800D01*
X142621000Y-103936800D01*
G36*
X144325588Y-101822682D02*
G01*
X144361898Y-101942380D01*
X144420863Y-102052694D01*
X144500215Y-102149385D01*
X144596906Y-102228737D01*
X144707220Y-102287702D01*
X144826918Y-102324012D01*
X144951400Y-102336272D01*
X145440650Y-102333200D01*
X145599398Y-102174452D01*
X145599398Y-102333200D01*
X145669859Y-102333200D01*
X143979000Y-104024060D01*
X143979000Y-103936798D01*
X143820252Y-103936798D01*
X143979000Y-103778050D01*
X143982072Y-103213800D01*
X143969812Y-103089318D01*
X143933502Y-102969620D01*
X143874537Y-102859306D01*
X143795185Y-102762615D01*
X143698494Y-102683263D01*
X143588180Y-102624298D01*
X143468482Y-102587988D01*
X143344000Y-102575728D01*
X143284394Y-102576053D01*
X143392687Y-102543202D01*
X143569190Y-102448860D01*
X143723896Y-102321896D01*
X143755712Y-102283128D01*
X144315777Y-101723064D01*
X144325588Y-101822682D01*
G37*
X144325588Y-101822682D02*
X144361898Y-101942380D01*
X144420863Y-102052694D01*
X144500215Y-102149385D01*
X144596906Y-102228737D01*
X144707220Y-102287702D01*
X144826918Y-102324012D01*
X144951400Y-102336272D01*
X145440650Y-102333200D01*
X145599398Y-102174452D01*
X145599398Y-102333200D01*
X145669859Y-102333200D01*
X143979000Y-104024060D01*
X143979000Y-103936798D01*
X143820252Y-103936798D01*
X143979000Y-103778050D01*
X143982072Y-103213800D01*
X143969812Y-103089318D01*
X143933502Y-102969620D01*
X143874537Y-102859306D01*
X143795185Y-102762615D01*
X143698494Y-102683263D01*
X143588180Y-102624298D01*
X143468482Y-102587988D01*
X143344000Y-102575728D01*
X143284394Y-102576053D01*
X143392687Y-102543202D01*
X143569190Y-102448860D01*
X143723896Y-102321896D01*
X143755712Y-102283128D01*
X144315777Y-101723064D01*
X144325588Y-101822682D01*
G36*
X145873400Y-101525200D02*
G01*
X145853400Y-101525200D01*
X145853400Y-101545200D01*
X145599400Y-101545200D01*
X145599400Y-101525200D01*
X145579400Y-101525200D01*
X145579400Y-101414200D01*
X145776302Y-101414200D01*
X145873400Y-101404636D01*
X145873400Y-101525200D01*
G37*
X145873400Y-101525200D02*
X145853400Y-101525200D01*
X145853400Y-101545200D01*
X145599400Y-101545200D01*
X145599400Y-101525200D01*
X145579400Y-101525200D01*
X145579400Y-101414200D01*
X145776302Y-101414200D01*
X145873400Y-101404636D01*
X145873400Y-101525200D01*
G36*
X136779000Y-84181800D02*
G01*
X136652000Y-84181800D01*
X136652000Y-84161800D01*
X136632000Y-84161800D01*
X136632000Y-83907800D01*
X136652000Y-83907800D01*
X136652000Y-83887800D01*
X136779000Y-83887800D01*
X136779000Y-84181800D01*
G37*
X136779000Y-84181800D02*
X136652000Y-84181800D01*
X136652000Y-84161800D01*
X136632000Y-84161800D01*
X136632000Y-83907800D01*
X136652000Y-83907800D01*
X136652000Y-83887800D01*
X136779000Y-83887800D01*
X136779000Y-84181800D01*
G36*
X142010100Y-74866020D02*
G01*
X142102510Y-75038907D01*
X142171668Y-75142409D01*
X142296031Y-75293946D01*
X142384054Y-75381969D01*
X142535591Y-75506332D01*
X142639093Y-75575490D01*
X142811980Y-75667900D01*
X142926988Y-75715538D01*
X143114581Y-75772443D01*
X143236668Y-75796727D01*
X143431758Y-75815942D01*
X143494000Y-75819000D01*
X144796000Y-75819000D01*
X144858242Y-75815942D01*
X145053332Y-75796727D01*
X145175419Y-75772443D01*
X145363012Y-75715538D01*
X145364201Y-75715046D01*
X145364201Y-76197114D01*
X145228201Y-76333114D01*
X145076629Y-76559957D01*
X144972225Y-76812011D01*
X144919000Y-77079589D01*
X144919000Y-77352411D01*
X144972225Y-77619989D01*
X145076629Y-77872043D01*
X145228201Y-78098886D01*
X145421114Y-78291799D01*
X145647957Y-78443371D01*
X145900011Y-78547775D01*
X146167589Y-78601000D01*
X146359924Y-78601000D01*
X147396200Y-79637277D01*
X147396200Y-79966466D01*
X146538950Y-79969000D01*
X146380200Y-80127750D01*
X146380200Y-81189500D01*
X146400200Y-81189500D01*
X146400200Y-81443500D01*
X146380200Y-81443500D01*
X146380200Y-81463500D01*
X146126200Y-81463500D01*
X146126200Y-81443500D01*
X143078200Y-81443500D01*
X143078200Y-81463500D01*
X142824200Y-81463500D01*
X142824200Y-81443500D01*
X142804200Y-81443500D01*
X142804200Y-81189500D01*
X142824200Y-81189500D01*
X142824200Y-80127750D01*
X143078200Y-80127750D01*
X143078200Y-81189500D01*
X146126200Y-81189500D01*
X146126200Y-80127750D01*
X145967450Y-79969000D01*
X144928200Y-79965928D01*
X144803718Y-79978188D01*
X144684020Y-80014498D01*
X144602200Y-80058232D01*
X144520380Y-80014498D01*
X144400682Y-79978188D01*
X144276200Y-79965928D01*
X143236950Y-79969000D01*
X143078200Y-80127750D01*
X142824200Y-80127750D01*
X142665450Y-79969000D01*
X141626200Y-79965928D01*
X141501718Y-79978188D01*
X141382020Y-80014498D01*
X141271706Y-80073463D01*
X141175015Y-80152815D01*
X141095663Y-80249506D01*
X141036698Y-80359820D01*
X141000388Y-80479518D01*
X140991749Y-80567230D01*
X140900580Y-80518498D01*
X140780882Y-80482188D01*
X140656400Y-80469928D01*
X140392150Y-80473000D01*
X140233400Y-80631750D01*
X140233400Y-81531000D01*
X140253400Y-81531000D01*
X140253400Y-81785000D01*
X140233400Y-81785000D01*
X140233400Y-81805000D01*
X139979400Y-81805000D01*
X139979400Y-81785000D01*
X139080150Y-81785000D01*
X138950150Y-81915000D01*
X138414000Y-81915000D01*
X138351758Y-81918058D01*
X138350711Y-81918161D01*
X138199127Y-81766577D01*
X138174469Y-81736531D01*
X138054572Y-81638134D01*
X137917783Y-81565018D01*
X137769357Y-81519994D01*
X137653673Y-81508600D01*
X137653663Y-81508600D01*
X137615000Y-81504792D01*
X137576337Y-81508600D01*
X135553552Y-81508600D01*
X135944340Y-81117812D01*
X136020118Y-81140799D01*
X136144000Y-81153000D01*
X137414000Y-81153000D01*
X137537882Y-81140799D01*
X137646006Y-81108000D01*
X138918328Y-81108000D01*
X138921400Y-81372250D01*
X139080150Y-81531000D01*
X139979400Y-81531000D01*
X139979400Y-80631750D01*
X139820650Y-80473000D01*
X139556400Y-80469928D01*
X139431918Y-80482188D01*
X139312220Y-80518498D01*
X139201906Y-80577463D01*
X139105215Y-80656815D01*
X139025863Y-80753506D01*
X138966898Y-80863820D01*
X138930588Y-80983518D01*
X138918328Y-81108000D01*
X137646006Y-81108000D01*
X137657004Y-81104664D01*
X137766787Y-81045983D01*
X137863013Y-80967013D01*
X137941983Y-80870787D01*
X137994320Y-80772872D01*
X138349000Y-80772872D01*
X138473482Y-80760612D01*
X138593180Y-80724302D01*
X138703494Y-80665337D01*
X138800185Y-80585985D01*
X138879537Y-80489294D01*
X138938502Y-80378980D01*
X138974812Y-80259282D01*
X138980359Y-80202961D01*
X139095679Y-80225900D01*
X139288309Y-80225900D01*
X139477237Y-80188320D01*
X139655204Y-80114604D01*
X139815369Y-80007585D01*
X139951579Y-79871375D01*
X140058598Y-79711210D01*
X140132314Y-79533243D01*
X140169894Y-79344315D01*
X140169894Y-79151685D01*
X140132314Y-78962757D01*
X140058598Y-78784790D01*
X139951579Y-78624625D01*
X139815369Y-78488415D01*
X139655204Y-78381396D01*
X139477237Y-78307680D01*
X139288309Y-78270100D01*
X139095679Y-78270100D01*
X138987072Y-78291703D01*
X138987072Y-78134800D01*
X138977721Y-78039859D01*
X139016664Y-77967004D01*
X139052799Y-77847882D01*
X139065000Y-77724000D01*
X139065000Y-77532200D01*
X139074928Y-77532200D01*
X139087188Y-77656682D01*
X139123498Y-77776380D01*
X139182463Y-77886694D01*
X139261815Y-77983385D01*
X139358506Y-78062737D01*
X139468820Y-78121702D01*
X139588518Y-78158012D01*
X139713000Y-78170272D01*
X140139750Y-78167200D01*
X140298500Y-78008450D01*
X140298500Y-76784200D01*
X140552500Y-76784200D01*
X140552500Y-78008450D01*
X140711250Y-78167200D01*
X141138000Y-78170272D01*
X141262482Y-78158012D01*
X141382180Y-78121702D01*
X141492494Y-78062737D01*
X141589185Y-77983385D01*
X141668537Y-77886694D01*
X141727502Y-77776380D01*
X141763812Y-77656682D01*
X141776072Y-77532200D01*
X141773000Y-76942950D01*
X141614250Y-76784200D01*
X140552500Y-76784200D01*
X140298500Y-76784200D01*
X139236750Y-76784200D01*
X139078000Y-76942950D01*
X139074928Y-77532200D01*
X139065000Y-77532200D01*
X139065000Y-75472199D01*
X139106591Y-75506332D01*
X139131529Y-75522995D01*
X139123498Y-75538020D01*
X139087188Y-75657718D01*
X139074928Y-75782200D01*
X139078000Y-76371450D01*
X139236750Y-76530200D01*
X140298500Y-76530200D01*
X140298500Y-76510200D01*
X140552500Y-76510200D01*
X140552500Y-76530200D01*
X141614250Y-76530200D01*
X141773000Y-76371450D01*
X141776072Y-75782200D01*
X141763812Y-75657718D01*
X141727502Y-75538020D01*
X141668537Y-75427706D01*
X141611594Y-75358321D01*
X141675969Y-75293946D01*
X141800332Y-75142409D01*
X141869490Y-75038907D01*
X141961900Y-74866020D01*
X141986000Y-74807838D01*
X142010100Y-74866020D01*
G37*
X142010100Y-74866020D02*
X142102510Y-75038907D01*
X142171668Y-75142409D01*
X142296031Y-75293946D01*
X142384054Y-75381969D01*
X142535591Y-75506332D01*
X142639093Y-75575490D01*
X142811980Y-75667900D01*
X142926988Y-75715538D01*
X143114581Y-75772443D01*
X143236668Y-75796727D01*
X143431758Y-75815942D01*
X143494000Y-75819000D01*
X144796000Y-75819000D01*
X144858242Y-75815942D01*
X145053332Y-75796727D01*
X145175419Y-75772443D01*
X145363012Y-75715538D01*
X145364201Y-75715046D01*
X145364201Y-76197114D01*
X145228201Y-76333114D01*
X145076629Y-76559957D01*
X144972225Y-76812011D01*
X144919000Y-77079589D01*
X144919000Y-77352411D01*
X144972225Y-77619989D01*
X145076629Y-77872043D01*
X145228201Y-78098886D01*
X145421114Y-78291799D01*
X145647957Y-78443371D01*
X145900011Y-78547775D01*
X146167589Y-78601000D01*
X146359924Y-78601000D01*
X147396200Y-79637277D01*
X147396200Y-79966466D01*
X146538950Y-79969000D01*
X146380200Y-80127750D01*
X146380200Y-81189500D01*
X146400200Y-81189500D01*
X146400200Y-81443500D01*
X146380200Y-81443500D01*
X146380200Y-81463500D01*
X146126200Y-81463500D01*
X146126200Y-81443500D01*
X143078200Y-81443500D01*
X143078200Y-81463500D01*
X142824200Y-81463500D01*
X142824200Y-81443500D01*
X142804200Y-81443500D01*
X142804200Y-81189500D01*
X142824200Y-81189500D01*
X142824200Y-80127750D01*
X143078200Y-80127750D01*
X143078200Y-81189500D01*
X146126200Y-81189500D01*
X146126200Y-80127750D01*
X145967450Y-79969000D01*
X144928200Y-79965928D01*
X144803718Y-79978188D01*
X144684020Y-80014498D01*
X144602200Y-80058232D01*
X144520380Y-80014498D01*
X144400682Y-79978188D01*
X144276200Y-79965928D01*
X143236950Y-79969000D01*
X143078200Y-80127750D01*
X142824200Y-80127750D01*
X142665450Y-79969000D01*
X141626200Y-79965928D01*
X141501718Y-79978188D01*
X141382020Y-80014498D01*
X141271706Y-80073463D01*
X141175015Y-80152815D01*
X141095663Y-80249506D01*
X141036698Y-80359820D01*
X141000388Y-80479518D01*
X140991749Y-80567230D01*
X140900580Y-80518498D01*
X140780882Y-80482188D01*
X140656400Y-80469928D01*
X140392150Y-80473000D01*
X140233400Y-80631750D01*
X140233400Y-81531000D01*
X140253400Y-81531000D01*
X140253400Y-81785000D01*
X140233400Y-81785000D01*
X140233400Y-81805000D01*
X139979400Y-81805000D01*
X139979400Y-81785000D01*
X139080150Y-81785000D01*
X138950150Y-81915000D01*
X138414000Y-81915000D01*
X138351758Y-81918058D01*
X138350711Y-81918161D01*
X138199127Y-81766577D01*
X138174469Y-81736531D01*
X138054572Y-81638134D01*
X137917783Y-81565018D01*
X137769357Y-81519994D01*
X137653673Y-81508600D01*
X137653663Y-81508600D01*
X137615000Y-81504792D01*
X137576337Y-81508600D01*
X135553552Y-81508600D01*
X135944340Y-81117812D01*
X136020118Y-81140799D01*
X136144000Y-81153000D01*
X137414000Y-81153000D01*
X137537882Y-81140799D01*
X137646006Y-81108000D01*
X138918328Y-81108000D01*
X138921400Y-81372250D01*
X139080150Y-81531000D01*
X139979400Y-81531000D01*
X139979400Y-80631750D01*
X139820650Y-80473000D01*
X139556400Y-80469928D01*
X139431918Y-80482188D01*
X139312220Y-80518498D01*
X139201906Y-80577463D01*
X139105215Y-80656815D01*
X139025863Y-80753506D01*
X138966898Y-80863820D01*
X138930588Y-80983518D01*
X138918328Y-81108000D01*
X137646006Y-81108000D01*
X137657004Y-81104664D01*
X137766787Y-81045983D01*
X137863013Y-80967013D01*
X137941983Y-80870787D01*
X137994320Y-80772872D01*
X138349000Y-80772872D01*
X138473482Y-80760612D01*
X138593180Y-80724302D01*
X138703494Y-80665337D01*
X138800185Y-80585985D01*
X138879537Y-80489294D01*
X138938502Y-80378980D01*
X138974812Y-80259282D01*
X138980359Y-80202961D01*
X139095679Y-80225900D01*
X139288309Y-80225900D01*
X139477237Y-80188320D01*
X139655204Y-80114604D01*
X139815369Y-80007585D01*
X139951579Y-79871375D01*
X140058598Y-79711210D01*
X140132314Y-79533243D01*
X140169894Y-79344315D01*
X140169894Y-79151685D01*
X140132314Y-78962757D01*
X140058598Y-78784790D01*
X139951579Y-78624625D01*
X139815369Y-78488415D01*
X139655204Y-78381396D01*
X139477237Y-78307680D01*
X139288309Y-78270100D01*
X139095679Y-78270100D01*
X138987072Y-78291703D01*
X138987072Y-78134800D01*
X138977721Y-78039859D01*
X139016664Y-77967004D01*
X139052799Y-77847882D01*
X139065000Y-77724000D01*
X139065000Y-77532200D01*
X139074928Y-77532200D01*
X139087188Y-77656682D01*
X139123498Y-77776380D01*
X139182463Y-77886694D01*
X139261815Y-77983385D01*
X139358506Y-78062737D01*
X139468820Y-78121702D01*
X139588518Y-78158012D01*
X139713000Y-78170272D01*
X140139750Y-78167200D01*
X140298500Y-78008450D01*
X140298500Y-76784200D01*
X140552500Y-76784200D01*
X140552500Y-78008450D01*
X140711250Y-78167200D01*
X141138000Y-78170272D01*
X141262482Y-78158012D01*
X141382180Y-78121702D01*
X141492494Y-78062737D01*
X141589185Y-77983385D01*
X141668537Y-77886694D01*
X141727502Y-77776380D01*
X141763812Y-77656682D01*
X141776072Y-77532200D01*
X141773000Y-76942950D01*
X141614250Y-76784200D01*
X140552500Y-76784200D01*
X140298500Y-76784200D01*
X139236750Y-76784200D01*
X139078000Y-76942950D01*
X139074928Y-77532200D01*
X139065000Y-77532200D01*
X139065000Y-75472199D01*
X139106591Y-75506332D01*
X139131529Y-75522995D01*
X139123498Y-75538020D01*
X139087188Y-75657718D01*
X139074928Y-75782200D01*
X139078000Y-76371450D01*
X139236750Y-76530200D01*
X140298500Y-76530200D01*
X140298500Y-76510200D01*
X140552500Y-76510200D01*
X140552500Y-76530200D01*
X141614250Y-76530200D01*
X141773000Y-76371450D01*
X141776072Y-75782200D01*
X141763812Y-75657718D01*
X141727502Y-75538020D01*
X141668537Y-75427706D01*
X141611594Y-75358321D01*
X141675969Y-75293946D01*
X141800332Y-75142409D01*
X141869490Y-75038907D01*
X141961900Y-74866020D01*
X141986000Y-74807838D01*
X142010100Y-74866020D01*
G36*
X148731925Y-74555832D02*
G01*
X148938768Y-74762675D01*
X149113160Y-74879200D01*
X148938768Y-74995725D01*
X148731925Y-75202568D01*
X148569410Y-75445789D01*
X148457468Y-75716042D01*
X148400400Y-76002940D01*
X148400400Y-76295460D01*
X148457468Y-76582358D01*
X148569410Y-76852611D01*
X148731925Y-77095832D01*
X148938768Y-77302675D01*
X149113160Y-77419200D01*
X148938768Y-77535725D01*
X148731925Y-77742568D01*
X148569410Y-77985789D01*
X148520630Y-78103554D01*
X147689000Y-77271924D01*
X147689000Y-77079589D01*
X147635775Y-76812011D01*
X147531371Y-76559957D01*
X147379799Y-76333114D01*
X147243800Y-76197115D01*
X147243800Y-75827276D01*
X148522078Y-74549000D01*
X148727360Y-74549000D01*
X148731925Y-74555832D01*
G37*
X148731925Y-74555832D02*
X148938768Y-74762675D01*
X149113160Y-74879200D01*
X148938768Y-74995725D01*
X148731925Y-75202568D01*
X148569410Y-75445789D01*
X148457468Y-75716042D01*
X148400400Y-76002940D01*
X148400400Y-76295460D01*
X148457468Y-76582358D01*
X148569410Y-76852611D01*
X148731925Y-77095832D01*
X148938768Y-77302675D01*
X149113160Y-77419200D01*
X148938768Y-77535725D01*
X148731925Y-77742568D01*
X148569410Y-77985789D01*
X148520630Y-78103554D01*
X147689000Y-77271924D01*
X147689000Y-77079589D01*
X147635775Y-76812011D01*
X147531371Y-76559957D01*
X147379799Y-76333114D01*
X147243800Y-76197115D01*
X147243800Y-75827276D01*
X148522078Y-74549000D01*
X148727360Y-74549000D01*
X148731925Y-74555832D01*
G36*
X134352000Y-75412600D02*
G01*
X134372000Y-75412600D01*
X134372000Y-75666600D01*
X134352000Y-75666600D01*
X134352000Y-76936600D01*
X135226250Y-76936600D01*
X135385000Y-76777850D01*
X135388072Y-76588600D01*
X135375812Y-76464118D01*
X135339502Y-76344420D01*
X135316614Y-76301600D01*
X135339502Y-76258780D01*
X135375812Y-76139082D01*
X135388072Y-76014600D01*
X135385000Y-75825350D01*
X135226252Y-75666602D01*
X135374242Y-75666602D01*
X135412220Y-75686902D01*
X135531918Y-75723212D01*
X135656400Y-75735472D01*
X135695650Y-75732400D01*
X135763000Y-75665050D01*
X135763000Y-75949171D01*
X135694987Y-76004987D01*
X135616017Y-76101213D01*
X135557336Y-76210996D01*
X135521201Y-76330118D01*
X135509000Y-76454000D01*
X135509000Y-77496728D01*
X135387392Y-77496728D01*
X135385000Y-77349350D01*
X135226250Y-77190600D01*
X134352000Y-77190600D01*
X134352000Y-77210600D01*
X134098000Y-77210600D01*
X134098000Y-77190600D01*
X134078000Y-77190600D01*
X134078000Y-76936600D01*
X134098000Y-76936600D01*
X134098000Y-75666600D01*
X134078000Y-75666600D01*
X134078000Y-75412600D01*
X134098000Y-75412600D01*
X134098000Y-75392600D01*
X134352000Y-75392600D01*
X134352000Y-75412600D01*
G37*
X134352000Y-75412600D02*
X134372000Y-75412600D01*
X134372000Y-75666600D01*
X134352000Y-75666600D01*
X134352000Y-76936600D01*
X135226250Y-76936600D01*
X135385000Y-76777850D01*
X135388072Y-76588600D01*
X135375812Y-76464118D01*
X135339502Y-76344420D01*
X135316614Y-76301600D01*
X135339502Y-76258780D01*
X135375812Y-76139082D01*
X135388072Y-76014600D01*
X135385000Y-75825350D01*
X135226252Y-75666602D01*
X135374242Y-75666602D01*
X135412220Y-75686902D01*
X135531918Y-75723212D01*
X135656400Y-75735472D01*
X135695650Y-75732400D01*
X135763000Y-75665050D01*
X135763000Y-75949171D01*
X135694987Y-76004987D01*
X135616017Y-76101213D01*
X135557336Y-76210996D01*
X135521201Y-76330118D01*
X135509000Y-76454000D01*
X135509000Y-77496728D01*
X135387392Y-77496728D01*
X135385000Y-77349350D01*
X135226250Y-77190600D01*
X134352000Y-77190600D01*
X134352000Y-77210600D01*
X134098000Y-77210600D01*
X134098000Y-77190600D01*
X134078000Y-77190600D01*
X134078000Y-76936600D01*
X134098000Y-76936600D01*
X134098000Y-75666600D01*
X134078000Y-75666600D01*
X134078000Y-75412600D01*
X134098000Y-75412600D01*
X134098000Y-75392600D01*
X134352000Y-75392600D01*
X134352000Y-75412600D01*
G36*
X145994282Y-59923827D02*
G01*
X145703751Y-60468757D01*
X145525113Y-61059896D01*
X145465232Y-61674528D01*
X145526410Y-62289031D01*
X145598910Y-62527126D01*
X145502451Y-62480673D01*
X145314549Y-62414923D01*
X145175918Y-62383282D01*
X144978097Y-62360993D01*
X144907000Y-62357000D01*
X141462000Y-62357000D01*
X141399758Y-62360058D01*
X141204668Y-62379273D01*
X141082581Y-62403557D01*
X140894988Y-62460462D01*
X140779980Y-62508100D01*
X140607093Y-62600510D01*
X140503591Y-62669668D01*
X140352054Y-62794031D01*
X140264031Y-62882054D01*
X140139668Y-63033591D01*
X140070510Y-63137093D01*
X139978100Y-63309980D01*
X139930462Y-63424988D01*
X139873557Y-63612581D01*
X139849273Y-63734668D01*
X139830058Y-63929758D01*
X139827000Y-63992000D01*
X139827000Y-66056000D01*
X139830058Y-66118242D01*
X139849273Y-66313332D01*
X139873557Y-66435419D01*
X139930462Y-66623012D01*
X139978100Y-66738020D01*
X140070510Y-66910907D01*
X140139668Y-67014409D01*
X140264031Y-67165946D01*
X140352054Y-67253969D01*
X140503591Y-67378332D01*
X140607093Y-67447490D01*
X140779980Y-67539900D01*
X140894988Y-67587538D01*
X141082581Y-67644443D01*
X141204668Y-67668727D01*
X141399758Y-67687942D01*
X141462000Y-67691000D01*
X141462806Y-67691000D01*
X141564606Y-67701027D01*
X141632506Y-67721623D01*
X141695077Y-67755069D01*
X141749922Y-67800078D01*
X141794931Y-67854923D01*
X141828377Y-67917494D01*
X141848973Y-67985394D01*
X141859000Y-68087194D01*
X141859000Y-70995394D01*
X141800332Y-70907591D01*
X141675969Y-70756054D01*
X141587946Y-70668031D01*
X141436409Y-70543668D01*
X141332907Y-70474510D01*
X141160020Y-70382100D01*
X141045012Y-70334462D01*
X140857419Y-70277557D01*
X140735332Y-70253273D01*
X140540242Y-70234058D01*
X140478000Y-70231000D01*
X137096500Y-70231000D01*
X137034259Y-70234058D01*
X136848435Y-70252360D01*
X136726344Y-70276645D01*
X136547662Y-70330848D01*
X136432659Y-70378484D01*
X136267984Y-70466504D01*
X136164478Y-70535665D01*
X136020140Y-70654121D01*
X135932121Y-70742140D01*
X135813665Y-70886478D01*
X135744504Y-70989984D01*
X135656484Y-71154659D01*
X135608848Y-71269662D01*
X135554645Y-71448344D01*
X135530360Y-71570435D01*
X135512058Y-71756259D01*
X135512058Y-71880741D01*
X135530360Y-72066565D01*
X135554645Y-72188656D01*
X135608848Y-72367338D01*
X135651812Y-72471061D01*
X135138072Y-71957322D01*
X135138072Y-71682800D01*
X135135664Y-71658350D01*
X135135664Y-71633791D01*
X135123404Y-71509310D01*
X135104282Y-71413177D01*
X135067973Y-71293481D01*
X135030464Y-71202925D01*
X134971498Y-71092608D01*
X134917042Y-71011109D01*
X134837690Y-70914418D01*
X134768382Y-70845110D01*
X134671691Y-70765758D01*
X134590192Y-70711302D01*
X134479875Y-70652336D01*
X134389319Y-70614827D01*
X134269623Y-70578518D01*
X134173490Y-70559396D01*
X134049009Y-70547136D01*
X134024450Y-70547136D01*
X134000000Y-70544728D01*
X133500000Y-70544728D01*
X133375518Y-70556988D01*
X133350000Y-70564729D01*
X133324482Y-70556988D01*
X133200000Y-70544728D01*
X132700000Y-70544728D01*
X132675550Y-70547136D01*
X132650991Y-70547136D01*
X132526510Y-70559396D01*
X132430377Y-70578518D01*
X132310681Y-70614827D01*
X132220125Y-70652336D01*
X132109808Y-70711302D01*
X132028309Y-70765758D01*
X131931618Y-70845110D01*
X131862310Y-70914418D01*
X131782958Y-71011109D01*
X131728502Y-71092608D01*
X131669536Y-71202925D01*
X131632027Y-71293481D01*
X131595718Y-71413177D01*
X131576596Y-71509310D01*
X131564336Y-71633791D01*
X131564336Y-71658350D01*
X131561928Y-71682800D01*
X131561928Y-72182800D01*
X131564336Y-72207250D01*
X131564336Y-72231809D01*
X131576596Y-72356290D01*
X131595718Y-72452423D01*
X131632027Y-72572119D01*
X131669536Y-72662675D01*
X131728502Y-72772992D01*
X131782958Y-72854491D01*
X131862310Y-72951182D01*
X131873818Y-72962690D01*
X131852433Y-72969177D01*
X131701058Y-73050088D01*
X131568377Y-73158977D01*
X131459488Y-73291658D01*
X131378577Y-73443033D01*
X131328752Y-73607284D01*
X131311928Y-73778100D01*
X131311928Y-74253100D01*
X131328752Y-74423916D01*
X131378577Y-74588167D01*
X131459488Y-74739542D01*
X131490722Y-74777600D01*
X131459488Y-74815658D01*
X131378577Y-74967033D01*
X131328752Y-75131284D01*
X131311928Y-75302100D01*
X131311928Y-75777100D01*
X131328752Y-75947916D01*
X131378577Y-76112167D01*
X131459488Y-76263542D01*
X131469876Y-76276200D01*
X131229665Y-76276200D01*
X131191000Y-76272392D01*
X131152335Y-76276200D01*
X131152327Y-76276200D01*
X131050400Y-76286239D01*
X131050400Y-76002940D01*
X130993332Y-75716042D01*
X130881390Y-75445789D01*
X130718875Y-75202568D01*
X130512032Y-74995725D01*
X130329866Y-74874005D01*
X130446755Y-74804378D01*
X130662988Y-74609469D01*
X130837041Y-74376120D01*
X130962225Y-74113299D01*
X131006876Y-73966090D01*
X130885555Y-73736200D01*
X129692400Y-73736200D01*
X129692400Y-73756200D01*
X129438400Y-73756200D01*
X129438400Y-73736200D01*
X129418400Y-73736200D01*
X129418400Y-73482200D01*
X129438400Y-73482200D01*
X129438400Y-73462200D01*
X129692400Y-73462200D01*
X129692400Y-73482200D01*
X130885555Y-73482200D01*
X131006876Y-73252310D01*
X130962225Y-73105101D01*
X130837041Y-72842280D01*
X130662988Y-72608931D01*
X130446755Y-72414022D01*
X130329866Y-72344395D01*
X130512032Y-72222675D01*
X130718875Y-72015832D01*
X130881390Y-71772611D01*
X130993332Y-71502358D01*
X131050400Y-71215460D01*
X131050400Y-70922940D01*
X130993332Y-70636042D01*
X130881390Y-70365789D01*
X130718875Y-70122568D01*
X130512032Y-69915725D01*
X130337640Y-69799200D01*
X130512032Y-69682675D01*
X130718875Y-69475832D01*
X130881390Y-69232611D01*
X130993332Y-68962358D01*
X131050400Y-68675460D01*
X131050400Y-68382940D01*
X130993332Y-68096042D01*
X130881390Y-67825789D01*
X130718875Y-67582568D01*
X130587020Y-67450713D01*
X130659580Y-67428702D01*
X130769894Y-67369737D01*
X130866585Y-67290385D01*
X130945937Y-67193694D01*
X131004902Y-67083380D01*
X131041212Y-66963682D01*
X131053472Y-66839200D01*
X131053472Y-65992224D01*
X136006881Y-65992224D01*
X136138817Y-66287312D01*
X136479545Y-66458159D01*
X136847057Y-66559250D01*
X137227229Y-66586701D01*
X137605451Y-66539457D01*
X137967190Y-66419333D01*
X138214183Y-66287312D01*
X138346119Y-65992224D01*
X137176500Y-64822605D01*
X136006881Y-65992224D01*
X131053472Y-65992224D01*
X131053472Y-65139200D01*
X131041212Y-65014718D01*
X131004902Y-64895020D01*
X130970734Y-64831097D01*
X131427831Y-64785590D01*
X131729508Y-64693729D01*
X135232799Y-64693729D01*
X135280043Y-65071951D01*
X135400167Y-65433690D01*
X135532188Y-65680683D01*
X135827276Y-65812619D01*
X136996895Y-64643000D01*
X137356105Y-64643000D01*
X138525724Y-65812619D01*
X138820812Y-65680683D01*
X138991659Y-65339955D01*
X139092750Y-64972443D01*
X139120201Y-64592271D01*
X139072957Y-64214049D01*
X138952833Y-63852310D01*
X138820812Y-63605317D01*
X138525724Y-63473381D01*
X137356105Y-64643000D01*
X136996895Y-64643000D01*
X135827276Y-63473381D01*
X135532188Y-63605317D01*
X135361341Y-63946045D01*
X135260250Y-64313557D01*
X135232799Y-64693729D01*
X131729508Y-64693729D01*
X132018592Y-64605703D01*
X132557373Y-64317718D01*
X132833543Y-63899748D01*
X130810000Y-61876205D01*
X130795858Y-61890348D01*
X130616253Y-61710743D01*
X130630395Y-61696600D01*
X130616253Y-61682458D01*
X130795858Y-61502853D01*
X130810000Y-61516995D01*
X130824143Y-61502853D01*
X131003748Y-61682458D01*
X130989605Y-61696600D01*
X133013148Y-63720143D01*
X133431118Y-63443973D01*
X133511195Y-63293776D01*
X136006881Y-63293776D01*
X137176500Y-64463395D01*
X138346119Y-63293776D01*
X138214183Y-62998688D01*
X137873455Y-62827841D01*
X137505943Y-62726750D01*
X137125771Y-62699299D01*
X136747549Y-62746543D01*
X136385810Y-62866667D01*
X136138817Y-62998688D01*
X136006881Y-63293776D01*
X133511195Y-63293776D01*
X133721649Y-62899043D01*
X133900287Y-62307904D01*
X133960168Y-61693272D01*
X133898990Y-61078769D01*
X133719103Y-60488008D01*
X133431118Y-59949227D01*
X133191952Y-59791200D01*
X146195007Y-59791200D01*
X145994282Y-59923827D01*
G37*
X145994282Y-59923827D02*
X145703751Y-60468757D01*
X145525113Y-61059896D01*
X145465232Y-61674528D01*
X145526410Y-62289031D01*
X145598910Y-62527126D01*
X145502451Y-62480673D01*
X145314549Y-62414923D01*
X145175918Y-62383282D01*
X144978097Y-62360993D01*
X144907000Y-62357000D01*
X141462000Y-62357000D01*
X141399758Y-62360058D01*
X141204668Y-62379273D01*
X141082581Y-62403557D01*
X140894988Y-62460462D01*
X140779980Y-62508100D01*
X140607093Y-62600510D01*
X140503591Y-62669668D01*
X140352054Y-62794031D01*
X140264031Y-62882054D01*
X140139668Y-63033591D01*
X140070510Y-63137093D01*
X139978100Y-63309980D01*
X139930462Y-63424988D01*
X139873557Y-63612581D01*
X139849273Y-63734668D01*
X139830058Y-63929758D01*
X139827000Y-63992000D01*
X139827000Y-66056000D01*
X139830058Y-66118242D01*
X139849273Y-66313332D01*
X139873557Y-66435419D01*
X139930462Y-66623012D01*
X139978100Y-66738020D01*
X140070510Y-66910907D01*
X140139668Y-67014409D01*
X140264031Y-67165946D01*
X140352054Y-67253969D01*
X140503591Y-67378332D01*
X140607093Y-67447490D01*
X140779980Y-67539900D01*
X140894988Y-67587538D01*
X141082581Y-67644443D01*
X141204668Y-67668727D01*
X141399758Y-67687942D01*
X141462000Y-67691000D01*
X141462806Y-67691000D01*
X141564606Y-67701027D01*
X141632506Y-67721623D01*
X141695077Y-67755069D01*
X141749922Y-67800078D01*
X141794931Y-67854923D01*
X141828377Y-67917494D01*
X141848973Y-67985394D01*
X141859000Y-68087194D01*
X141859000Y-70995394D01*
X141800332Y-70907591D01*
X141675969Y-70756054D01*
X141587946Y-70668031D01*
X141436409Y-70543668D01*
X141332907Y-70474510D01*
X141160020Y-70382100D01*
X141045012Y-70334462D01*
X140857419Y-70277557D01*
X140735332Y-70253273D01*
X140540242Y-70234058D01*
X140478000Y-70231000D01*
X137096500Y-70231000D01*
X137034259Y-70234058D01*
X136848435Y-70252360D01*
X136726344Y-70276645D01*
X136547662Y-70330848D01*
X136432659Y-70378484D01*
X136267984Y-70466504D01*
X136164478Y-70535665D01*
X136020140Y-70654121D01*
X135932121Y-70742140D01*
X135813665Y-70886478D01*
X135744504Y-70989984D01*
X135656484Y-71154659D01*
X135608848Y-71269662D01*
X135554645Y-71448344D01*
X135530360Y-71570435D01*
X135512058Y-71756259D01*
X135512058Y-71880741D01*
X135530360Y-72066565D01*
X135554645Y-72188656D01*
X135608848Y-72367338D01*
X135651812Y-72471061D01*
X135138072Y-71957322D01*
X135138072Y-71682800D01*
X135135664Y-71658350D01*
X135135664Y-71633791D01*
X135123404Y-71509310D01*
X135104282Y-71413177D01*
X135067973Y-71293481D01*
X135030464Y-71202925D01*
X134971498Y-71092608D01*
X134917042Y-71011109D01*
X134837690Y-70914418D01*
X134768382Y-70845110D01*
X134671691Y-70765758D01*
X134590192Y-70711302D01*
X134479875Y-70652336D01*
X134389319Y-70614827D01*
X134269623Y-70578518D01*
X134173490Y-70559396D01*
X134049009Y-70547136D01*
X134024450Y-70547136D01*
X134000000Y-70544728D01*
X133500000Y-70544728D01*
X133375518Y-70556988D01*
X133350000Y-70564729D01*
X133324482Y-70556988D01*
X133200000Y-70544728D01*
X132700000Y-70544728D01*
X132675550Y-70547136D01*
X132650991Y-70547136D01*
X132526510Y-70559396D01*
X132430377Y-70578518D01*
X132310681Y-70614827D01*
X132220125Y-70652336D01*
X132109808Y-70711302D01*
X132028309Y-70765758D01*
X131931618Y-70845110D01*
X131862310Y-70914418D01*
X131782958Y-71011109D01*
X131728502Y-71092608D01*
X131669536Y-71202925D01*
X131632027Y-71293481D01*
X131595718Y-71413177D01*
X131576596Y-71509310D01*
X131564336Y-71633791D01*
X131564336Y-71658350D01*
X131561928Y-71682800D01*
X131561928Y-72182800D01*
X131564336Y-72207250D01*
X131564336Y-72231809D01*
X131576596Y-72356290D01*
X131595718Y-72452423D01*
X131632027Y-72572119D01*
X131669536Y-72662675D01*
X131728502Y-72772992D01*
X131782958Y-72854491D01*
X131862310Y-72951182D01*
X131873818Y-72962690D01*
X131852433Y-72969177D01*
X131701058Y-73050088D01*
X131568377Y-73158977D01*
X131459488Y-73291658D01*
X131378577Y-73443033D01*
X131328752Y-73607284D01*
X131311928Y-73778100D01*
X131311928Y-74253100D01*
X131328752Y-74423916D01*
X131378577Y-74588167D01*
X131459488Y-74739542D01*
X131490722Y-74777600D01*
X131459488Y-74815658D01*
X131378577Y-74967033D01*
X131328752Y-75131284D01*
X131311928Y-75302100D01*
X131311928Y-75777100D01*
X131328752Y-75947916D01*
X131378577Y-76112167D01*
X131459488Y-76263542D01*
X131469876Y-76276200D01*
X131229665Y-76276200D01*
X131191000Y-76272392D01*
X131152335Y-76276200D01*
X131152327Y-76276200D01*
X131050400Y-76286239D01*
X131050400Y-76002940D01*
X130993332Y-75716042D01*
X130881390Y-75445789D01*
X130718875Y-75202568D01*
X130512032Y-74995725D01*
X130329866Y-74874005D01*
X130446755Y-74804378D01*
X130662988Y-74609469D01*
X130837041Y-74376120D01*
X130962225Y-74113299D01*
X131006876Y-73966090D01*
X130885555Y-73736200D01*
X129692400Y-73736200D01*
X129692400Y-73756200D01*
X129438400Y-73756200D01*
X129438400Y-73736200D01*
X129418400Y-73736200D01*
X129418400Y-73482200D01*
X129438400Y-73482200D01*
X129438400Y-73462200D01*
X129692400Y-73462200D01*
X129692400Y-73482200D01*
X130885555Y-73482200D01*
X131006876Y-73252310D01*
X130962225Y-73105101D01*
X130837041Y-72842280D01*
X130662988Y-72608931D01*
X130446755Y-72414022D01*
X130329866Y-72344395D01*
X130512032Y-72222675D01*
X130718875Y-72015832D01*
X130881390Y-71772611D01*
X130993332Y-71502358D01*
X131050400Y-71215460D01*
X131050400Y-70922940D01*
X130993332Y-70636042D01*
X130881390Y-70365789D01*
X130718875Y-70122568D01*
X130512032Y-69915725D01*
X130337640Y-69799200D01*
X130512032Y-69682675D01*
X130718875Y-69475832D01*
X130881390Y-69232611D01*
X130993332Y-68962358D01*
X131050400Y-68675460D01*
X131050400Y-68382940D01*
X130993332Y-68096042D01*
X130881390Y-67825789D01*
X130718875Y-67582568D01*
X130587020Y-67450713D01*
X130659580Y-67428702D01*
X130769894Y-67369737D01*
X130866585Y-67290385D01*
X130945937Y-67193694D01*
X131004902Y-67083380D01*
X131041212Y-66963682D01*
X131053472Y-66839200D01*
X131053472Y-65992224D01*
X136006881Y-65992224D01*
X136138817Y-66287312D01*
X136479545Y-66458159D01*
X136847057Y-66559250D01*
X137227229Y-66586701D01*
X137605451Y-66539457D01*
X137967190Y-66419333D01*
X138214183Y-66287312D01*
X138346119Y-65992224D01*
X137176500Y-64822605D01*
X136006881Y-65992224D01*
X131053472Y-65992224D01*
X131053472Y-65139200D01*
X131041212Y-65014718D01*
X131004902Y-64895020D01*
X130970734Y-64831097D01*
X131427831Y-64785590D01*
X131729508Y-64693729D01*
X135232799Y-64693729D01*
X135280043Y-65071951D01*
X135400167Y-65433690D01*
X135532188Y-65680683D01*
X135827276Y-65812619D01*
X136996895Y-64643000D01*
X137356105Y-64643000D01*
X138525724Y-65812619D01*
X138820812Y-65680683D01*
X138991659Y-65339955D01*
X139092750Y-64972443D01*
X139120201Y-64592271D01*
X139072957Y-64214049D01*
X138952833Y-63852310D01*
X138820812Y-63605317D01*
X138525724Y-63473381D01*
X137356105Y-64643000D01*
X136996895Y-64643000D01*
X135827276Y-63473381D01*
X135532188Y-63605317D01*
X135361341Y-63946045D01*
X135260250Y-64313557D01*
X135232799Y-64693729D01*
X131729508Y-64693729D01*
X132018592Y-64605703D01*
X132557373Y-64317718D01*
X132833543Y-63899748D01*
X130810000Y-61876205D01*
X130795858Y-61890348D01*
X130616253Y-61710743D01*
X130630395Y-61696600D01*
X130616253Y-61682458D01*
X130795858Y-61502853D01*
X130810000Y-61516995D01*
X130824143Y-61502853D01*
X131003748Y-61682458D01*
X130989605Y-61696600D01*
X133013148Y-63720143D01*
X133431118Y-63443973D01*
X133511195Y-63293776D01*
X136006881Y-63293776D01*
X137176500Y-64463395D01*
X138346119Y-63293776D01*
X138214183Y-62998688D01*
X137873455Y-62827841D01*
X137505943Y-62726750D01*
X137125771Y-62699299D01*
X136747549Y-62746543D01*
X136385810Y-62866667D01*
X136138817Y-62998688D01*
X136006881Y-63293776D01*
X133511195Y-63293776D01*
X133721649Y-62899043D01*
X133900287Y-62307904D01*
X133960168Y-61693272D01*
X133898990Y-61078769D01*
X133719103Y-60488008D01*
X133431118Y-59949227D01*
X133191952Y-59791200D01*
X146195007Y-59791200D01*
X145994282Y-59923827D01*
G36*
X136017000Y-74634400D02*
G01*
X135854400Y-74634400D01*
X135854400Y-74614400D01*
X135834400Y-74614400D01*
X135834400Y-74360400D01*
X135854400Y-74360400D01*
X135854400Y-74340400D01*
X136017000Y-74340400D01*
X136017000Y-74634400D01*
G37*
X136017000Y-74634400D02*
X135854400Y-74634400D01*
X135854400Y-74614400D01*
X135834400Y-74614400D01*
X135834400Y-74360400D01*
X135854400Y-74360400D01*
X135854400Y-74340400D01*
X136017000Y-74340400D01*
X136017000Y-74634400D01*
G36*
X146868027Y-64292318D02*
G01*
X147412957Y-64582849D01*
X148004096Y-64761487D01*
X148491873Y-64809009D01*
X148445898Y-64895020D01*
X148409588Y-65014718D01*
X148397328Y-65139200D01*
X148397328Y-66839200D01*
X148409588Y-66963682D01*
X148445898Y-67083380D01*
X148504863Y-67193694D01*
X148584215Y-67290385D01*
X148680906Y-67369737D01*
X148791220Y-67428702D01*
X148863780Y-67450713D01*
X148731925Y-67582568D01*
X148569410Y-67825789D01*
X148457468Y-68096042D01*
X148400400Y-68382940D01*
X148400400Y-68675460D01*
X148457468Y-68962358D01*
X148569410Y-69232611D01*
X148731925Y-69475832D01*
X148938768Y-69682675D01*
X149113160Y-69799200D01*
X148938768Y-69915725D01*
X148731925Y-70122568D01*
X148569410Y-70365789D01*
X148457468Y-70636042D01*
X148400400Y-70922940D01*
X148400400Y-71215460D01*
X148457468Y-71502358D01*
X148569410Y-71772611D01*
X148731925Y-72015832D01*
X148938768Y-72222675D01*
X149113160Y-72339200D01*
X148938768Y-72455725D01*
X148731925Y-72662568D01*
X148727360Y-72669400D01*
X148178957Y-72669400D01*
X148132800Y-72664854D01*
X148086643Y-72669400D01*
X148086633Y-72669400D01*
X147948567Y-72682998D01*
X147771414Y-72736737D01*
X147608148Y-72824004D01*
X147508494Y-72905789D01*
X147465046Y-72941446D01*
X147435618Y-72977304D01*
X146431000Y-73981923D01*
X146431000Y-63940942D01*
X146478133Y-63988075D01*
X146591858Y-63874350D01*
X146868027Y-64292318D01*
G37*
X146868027Y-64292318D02*
X147412957Y-64582849D01*
X148004096Y-64761487D01*
X148491873Y-64809009D01*
X148445898Y-64895020D01*
X148409588Y-65014718D01*
X148397328Y-65139200D01*
X148397328Y-66839200D01*
X148409588Y-66963682D01*
X148445898Y-67083380D01*
X148504863Y-67193694D01*
X148584215Y-67290385D01*
X148680906Y-67369737D01*
X148791220Y-67428702D01*
X148863780Y-67450713D01*
X148731925Y-67582568D01*
X148569410Y-67825789D01*
X148457468Y-68096042D01*
X148400400Y-68382940D01*
X148400400Y-68675460D01*
X148457468Y-68962358D01*
X148569410Y-69232611D01*
X148731925Y-69475832D01*
X148938768Y-69682675D01*
X149113160Y-69799200D01*
X148938768Y-69915725D01*
X148731925Y-70122568D01*
X148569410Y-70365789D01*
X148457468Y-70636042D01*
X148400400Y-70922940D01*
X148400400Y-71215460D01*
X148457468Y-71502358D01*
X148569410Y-71772611D01*
X148731925Y-72015832D01*
X148938768Y-72222675D01*
X149113160Y-72339200D01*
X148938768Y-72455725D01*
X148731925Y-72662568D01*
X148727360Y-72669400D01*
X148178957Y-72669400D01*
X148132800Y-72664854D01*
X148086643Y-72669400D01*
X148086633Y-72669400D01*
X147948567Y-72682998D01*
X147771414Y-72736737D01*
X147608148Y-72824004D01*
X147508494Y-72905789D01*
X147465046Y-72941446D01*
X147435618Y-72977304D01*
X146431000Y-73981923D01*
X146431000Y-63940942D01*
X146478133Y-63988075D01*
X146591858Y-63874350D01*
X146868027Y-64292318D01*
G36*
X148809148Y-61657058D02*
G01*
X148795005Y-61671200D01*
X148809148Y-61685343D01*
X148629543Y-61864948D01*
X148615400Y-61850805D01*
X148601258Y-61864948D01*
X148421653Y-61685343D01*
X148435795Y-61671200D01*
X148421653Y-61657058D01*
X148601258Y-61477453D01*
X148615400Y-61491595D01*
X148629543Y-61477453D01*
X148809148Y-61657058D01*
G37*
X148809148Y-61657058D02*
X148795005Y-61671200D01*
X148809148Y-61685343D01*
X148629543Y-61864948D01*
X148615400Y-61850805D01*
X148601258Y-61864948D01*
X148421653Y-61685343D01*
X148435795Y-61671200D01*
X148421653Y-61657058D01*
X148601258Y-61477453D01*
X148615400Y-61491595D01*
X148629543Y-61477453D01*
X148809148Y-61657058D01*
%TO.N,VCC*%
G36*
X145076380Y-63138888D02*
G01*
X145237271Y-63195186D01*
X145381595Y-63285871D01*
X145502129Y-63406405D01*
X145592814Y-63550729D01*
X145649112Y-63711620D01*
X145669000Y-63888128D01*
X145669000Y-74177766D01*
X145651624Y-74354189D01*
X145601978Y-74517850D01*
X145521362Y-74668672D01*
X145412870Y-74800870D01*
X145280672Y-74909362D01*
X145129850Y-74989978D01*
X144966189Y-75039624D01*
X144789766Y-75057000D01*
X143500234Y-75057000D01*
X143323811Y-75039624D01*
X143160150Y-74989978D01*
X143009328Y-74909362D01*
X142877130Y-74800870D01*
X142768638Y-74668672D01*
X142688022Y-74517850D01*
X142638376Y-74354189D01*
X142621000Y-74177766D01*
X142621000Y-69751141D01*
X142672320Y-69627243D01*
X142709900Y-69438315D01*
X142709900Y-69245685D01*
X142672320Y-69056757D01*
X142621000Y-68932859D01*
X142621000Y-68227141D01*
X142672320Y-68103243D01*
X142709900Y-67914315D01*
X142709900Y-67721685D01*
X142672320Y-67532757D01*
X142598604Y-67354790D01*
X142491585Y-67194625D01*
X142355375Y-67058415D01*
X142195210Y-66951396D01*
X142017243Y-66877680D01*
X141828315Y-66840100D01*
X141635685Y-66840100D01*
X141446757Y-66877680D01*
X141350786Y-66917432D01*
X141291811Y-66911624D01*
X141128150Y-66861978D01*
X140977328Y-66781362D01*
X140845130Y-66672870D01*
X140736638Y-66540672D01*
X140656022Y-66389850D01*
X140606376Y-66226189D01*
X140589000Y-66049766D01*
X140589000Y-63998234D01*
X140606376Y-63821811D01*
X140656022Y-63658150D01*
X140736638Y-63507328D01*
X140845130Y-63375130D01*
X140977328Y-63266638D01*
X141128150Y-63186022D01*
X141291811Y-63136376D01*
X141468234Y-63119000D01*
X144899872Y-63119000D01*
X145076380Y-63138888D01*
G37*
X145076380Y-63138888D02*
X145237271Y-63195186D01*
X145381595Y-63285871D01*
X145502129Y-63406405D01*
X145592814Y-63550729D01*
X145649112Y-63711620D01*
X145669000Y-63888128D01*
X145669000Y-74177766D01*
X145651624Y-74354189D01*
X145601978Y-74517850D01*
X145521362Y-74668672D01*
X145412870Y-74800870D01*
X145280672Y-74909362D01*
X145129850Y-74989978D01*
X144966189Y-75039624D01*
X144789766Y-75057000D01*
X143500234Y-75057000D01*
X143323811Y-75039624D01*
X143160150Y-74989978D01*
X143009328Y-74909362D01*
X142877130Y-74800870D01*
X142768638Y-74668672D01*
X142688022Y-74517850D01*
X142638376Y-74354189D01*
X142621000Y-74177766D01*
X142621000Y-69751141D01*
X142672320Y-69627243D01*
X142709900Y-69438315D01*
X142709900Y-69245685D01*
X142672320Y-69056757D01*
X142621000Y-68932859D01*
X142621000Y-68227141D01*
X142672320Y-68103243D01*
X142709900Y-67914315D01*
X142709900Y-67721685D01*
X142672320Y-67532757D01*
X142598604Y-67354790D01*
X142491585Y-67194625D01*
X142355375Y-67058415D01*
X142195210Y-66951396D01*
X142017243Y-66877680D01*
X141828315Y-66840100D01*
X141635685Y-66840100D01*
X141446757Y-66877680D01*
X141350786Y-66917432D01*
X141291811Y-66911624D01*
X141128150Y-66861978D01*
X140977328Y-66781362D01*
X140845130Y-66672870D01*
X140736638Y-66540672D01*
X140656022Y-66389850D01*
X140606376Y-66226189D01*
X140589000Y-66049766D01*
X140589000Y-63998234D01*
X140606376Y-63821811D01*
X140656022Y-63658150D01*
X140736638Y-63507328D01*
X140845130Y-63375130D01*
X140977328Y-63266638D01*
X141128150Y-63186022D01*
X141291811Y-63136376D01*
X141468234Y-63119000D01*
X144899872Y-63119000D01*
X145076380Y-63138888D01*
%TO.N,Net-(F1-Pad2)*%
G36*
X140648189Y-71010376D02*
G01*
X140811850Y-71060022D01*
X140962672Y-71140638D01*
X141094870Y-71249130D01*
X141203362Y-71381328D01*
X141283978Y-71532150D01*
X141333624Y-71695811D01*
X141351000Y-71872234D01*
X141351000Y-74177766D01*
X141333624Y-74354189D01*
X141283978Y-74517850D01*
X141203362Y-74668672D01*
X141094870Y-74800870D01*
X140962672Y-74909362D01*
X140887011Y-74949804D01*
X140882699Y-74949379D01*
X140821568Y-74955400D01*
X140821557Y-74955400D01*
X140638716Y-74973408D01*
X140404108Y-75044576D01*
X140380864Y-75057000D01*
X140071234Y-75057000D01*
X139894811Y-75039624D01*
X139731150Y-74989978D01*
X139580328Y-74909362D01*
X139448130Y-74800870D01*
X139339638Y-74668672D01*
X139259022Y-74517850D01*
X139209376Y-74354189D01*
X139192000Y-74177766D01*
X139192000Y-73771000D01*
X139191388Y-73758552D01*
X139172173Y-73563462D01*
X139167317Y-73539044D01*
X139110412Y-73351451D01*
X139100884Y-73328450D01*
X139008474Y-73155563D01*
X138994642Y-73134862D01*
X138870279Y-72983325D01*
X138852675Y-72965721D01*
X138701138Y-72841358D01*
X138680437Y-72827526D01*
X138507550Y-72735116D01*
X138484549Y-72725588D01*
X138296956Y-72668683D01*
X138272538Y-72663827D01*
X138077448Y-72644612D01*
X138065000Y-72644000D01*
X137102734Y-72644000D01*
X136935573Y-72627536D01*
X136780831Y-72580595D01*
X136638218Y-72504367D01*
X136513218Y-72401782D01*
X136410633Y-72276782D01*
X136334405Y-72134169D01*
X136287464Y-71979427D01*
X136271614Y-71818500D01*
X136287464Y-71657573D01*
X136334405Y-71502831D01*
X136410633Y-71360218D01*
X136513218Y-71235218D01*
X136638218Y-71132633D01*
X136780831Y-71056405D01*
X136935573Y-71009464D01*
X137102734Y-70993000D01*
X140471766Y-70993000D01*
X140648189Y-71010376D01*
G37*
X140648189Y-71010376D02*
X140811850Y-71060022D01*
X140962672Y-71140638D01*
X141094870Y-71249130D01*
X141203362Y-71381328D01*
X141283978Y-71532150D01*
X141333624Y-71695811D01*
X141351000Y-71872234D01*
X141351000Y-74177766D01*
X141333624Y-74354189D01*
X141283978Y-74517850D01*
X141203362Y-74668672D01*
X141094870Y-74800870D01*
X140962672Y-74909362D01*
X140887011Y-74949804D01*
X140882699Y-74949379D01*
X140821568Y-74955400D01*
X140821557Y-74955400D01*
X140638716Y-74973408D01*
X140404108Y-75044576D01*
X140380864Y-75057000D01*
X140071234Y-75057000D01*
X139894811Y-75039624D01*
X139731150Y-74989978D01*
X139580328Y-74909362D01*
X139448130Y-74800870D01*
X139339638Y-74668672D01*
X139259022Y-74517850D01*
X139209376Y-74354189D01*
X139192000Y-74177766D01*
X139192000Y-73771000D01*
X139191388Y-73758552D01*
X139172173Y-73563462D01*
X139167317Y-73539044D01*
X139110412Y-73351451D01*
X139100884Y-73328450D01*
X139008474Y-73155563D01*
X138994642Y-73134862D01*
X138870279Y-72983325D01*
X138852675Y-72965721D01*
X138701138Y-72841358D01*
X138680437Y-72827526D01*
X138507550Y-72735116D01*
X138484549Y-72725588D01*
X138296956Y-72668683D01*
X138272538Y-72663827D01*
X138077448Y-72644612D01*
X138065000Y-72644000D01*
X137102734Y-72644000D01*
X136935573Y-72627536D01*
X136780831Y-72580595D01*
X136638218Y-72504367D01*
X136513218Y-72401782D01*
X136410633Y-72276782D01*
X136334405Y-72134169D01*
X136287464Y-71979427D01*
X136271614Y-71818500D01*
X136287464Y-71657573D01*
X136334405Y-71502831D01*
X136410633Y-71360218D01*
X136513218Y-71235218D01*
X136638218Y-71132633D01*
X136780831Y-71056405D01*
X136935573Y-71009464D01*
X137102734Y-70993000D01*
X140471766Y-70993000D01*
X140648189Y-71010376D01*
%TO.N,Net-(C1-Pad2)*%
G36*
X139201906Y-82738537D02*
G01*
X139312220Y-82797502D01*
X139431918Y-82833812D01*
X139556400Y-82846072D01*
X140480789Y-82846072D01*
X140586870Y-82933130D01*
X140695362Y-83065328D01*
X140775978Y-83216150D01*
X140825624Y-83379811D01*
X140843000Y-83556234D01*
X140843000Y-89527872D01*
X140823112Y-89704380D01*
X140766814Y-89865271D01*
X140676129Y-90009595D01*
X140555595Y-90130129D01*
X140411271Y-90220814D01*
X140250380Y-90277112D01*
X140081000Y-90296197D01*
X139911620Y-90277112D01*
X139750729Y-90220814D01*
X139606405Y-90130129D01*
X139485871Y-90009595D01*
X139395186Y-89865271D01*
X139338888Y-89704380D01*
X139319000Y-89527872D01*
X139319000Y-88011000D01*
X139318201Y-87996781D01*
X139295912Y-87798960D01*
X139289584Y-87771233D01*
X139263672Y-87697181D01*
X139263672Y-87607900D01*
X139246848Y-87437084D01*
X139197023Y-87272833D01*
X139116112Y-87121458D01*
X139007223Y-86988777D01*
X138874542Y-86879888D01*
X138723167Y-86798977D01*
X138558916Y-86749152D01*
X138388100Y-86732328D01*
X137913100Y-86732328D01*
X137748787Y-86748511D01*
X137707871Y-86707595D01*
X137617186Y-86563271D01*
X137566400Y-86418132D01*
X137566400Y-85441857D01*
X137609537Y-85389294D01*
X137668502Y-85278980D01*
X137704812Y-85159282D01*
X137717072Y-85034800D01*
X137717072Y-83034800D01*
X137716710Y-83031122D01*
X137797130Y-82933130D01*
X137929328Y-82824638D01*
X138080150Y-82744022D01*
X138243811Y-82694376D01*
X138420234Y-82677000D01*
X139126923Y-82677000D01*
X139201906Y-82738537D01*
G37*
X139201906Y-82738537D02*
X139312220Y-82797502D01*
X139431918Y-82833812D01*
X139556400Y-82846072D01*
X140480789Y-82846072D01*
X140586870Y-82933130D01*
X140695362Y-83065328D01*
X140775978Y-83216150D01*
X140825624Y-83379811D01*
X140843000Y-83556234D01*
X140843000Y-89527872D01*
X140823112Y-89704380D01*
X140766814Y-89865271D01*
X140676129Y-90009595D01*
X140555595Y-90130129D01*
X140411271Y-90220814D01*
X140250380Y-90277112D01*
X140081000Y-90296197D01*
X139911620Y-90277112D01*
X139750729Y-90220814D01*
X139606405Y-90130129D01*
X139485871Y-90009595D01*
X139395186Y-89865271D01*
X139338888Y-89704380D01*
X139319000Y-89527872D01*
X139319000Y-88011000D01*
X139318201Y-87996781D01*
X139295912Y-87798960D01*
X139289584Y-87771233D01*
X139263672Y-87697181D01*
X139263672Y-87607900D01*
X139246848Y-87437084D01*
X139197023Y-87272833D01*
X139116112Y-87121458D01*
X139007223Y-86988777D01*
X138874542Y-86879888D01*
X138723167Y-86798977D01*
X138558916Y-86749152D01*
X138388100Y-86732328D01*
X137913100Y-86732328D01*
X137748787Y-86748511D01*
X137707871Y-86707595D01*
X137617186Y-86563271D01*
X137566400Y-86418132D01*
X137566400Y-85441857D01*
X137609537Y-85389294D01*
X137668502Y-85278980D01*
X137704812Y-85159282D01*
X137717072Y-85034800D01*
X137717072Y-83034800D01*
X137716710Y-83031122D01*
X137797130Y-82933130D01*
X137929328Y-82824638D01*
X138080150Y-82744022D01*
X138243811Y-82694376D01*
X138420234Y-82677000D01*
X139126923Y-82677000D01*
X139201906Y-82738537D01*
%TO.N,+5V*%
G36*
X147760189Y-82694376D02*
G01*
X147923850Y-82744022D01*
X148074672Y-82824638D01*
X148206870Y-82933130D01*
X148315362Y-83065328D01*
X148395978Y-83216150D01*
X148445624Y-83379811D01*
X148446663Y-83390361D01*
X148400400Y-83622940D01*
X148400400Y-83915460D01*
X148457468Y-84202358D01*
X148463000Y-84215713D01*
X148463000Y-84845766D01*
X148445624Y-85022189D01*
X148395978Y-85185850D01*
X148315362Y-85336672D01*
X148206870Y-85468870D01*
X148074672Y-85577362D01*
X147923850Y-85657978D01*
X147760189Y-85707624D01*
X147583766Y-85725000D01*
X144764000Y-85725000D01*
X144751552Y-85725612D01*
X144556462Y-85744827D01*
X144532044Y-85749683D01*
X144344451Y-85806588D01*
X144321450Y-85816116D01*
X144148563Y-85908526D01*
X144127862Y-85922358D01*
X143976325Y-86046721D01*
X143958721Y-86064325D01*
X143834358Y-86215862D01*
X143820526Y-86236563D01*
X143728116Y-86409450D01*
X143718588Y-86432451D01*
X143661683Y-86620044D01*
X143656827Y-86644462D01*
X143637612Y-86839552D01*
X143637000Y-86852000D01*
X143637000Y-89417766D01*
X143619624Y-89594189D01*
X143569978Y-89757850D01*
X143489362Y-89908672D01*
X143380870Y-90040870D01*
X143248672Y-90149362D01*
X143097850Y-90229978D01*
X142934189Y-90279624D01*
X142757766Y-90297000D01*
X142484234Y-90297000D01*
X142307811Y-90279624D01*
X142144150Y-90229978D01*
X141993328Y-90149362D01*
X141861130Y-90040870D01*
X141752638Y-89908672D01*
X141672022Y-89757850D01*
X141622376Y-89594189D01*
X141605000Y-89417766D01*
X141605000Y-83556234D01*
X141622376Y-83379811D01*
X141672022Y-83216150D01*
X141752638Y-83065328D01*
X141861130Y-82933130D01*
X141993328Y-82824638D01*
X142144150Y-82744022D01*
X142307811Y-82694376D01*
X142484234Y-82677000D01*
X147583766Y-82677000D01*
X147760189Y-82694376D01*
G37*
X147760189Y-82694376D02*
X147923850Y-82744022D01*
X148074672Y-82824638D01*
X148206870Y-82933130D01*
X148315362Y-83065328D01*
X148395978Y-83216150D01*
X148445624Y-83379811D01*
X148446663Y-83390361D01*
X148400400Y-83622940D01*
X148400400Y-83915460D01*
X148457468Y-84202358D01*
X148463000Y-84215713D01*
X148463000Y-84845766D01*
X148445624Y-85022189D01*
X148395978Y-85185850D01*
X148315362Y-85336672D01*
X148206870Y-85468870D01*
X148074672Y-85577362D01*
X147923850Y-85657978D01*
X147760189Y-85707624D01*
X147583766Y-85725000D01*
X144764000Y-85725000D01*
X144751552Y-85725612D01*
X144556462Y-85744827D01*
X144532044Y-85749683D01*
X144344451Y-85806588D01*
X144321450Y-85816116D01*
X144148563Y-85908526D01*
X144127862Y-85922358D01*
X143976325Y-86046721D01*
X143958721Y-86064325D01*
X143834358Y-86215862D01*
X143820526Y-86236563D01*
X143728116Y-86409450D01*
X143718588Y-86432451D01*
X143661683Y-86620044D01*
X143656827Y-86644462D01*
X143637612Y-86839552D01*
X143637000Y-86852000D01*
X143637000Y-89417766D01*
X143619624Y-89594189D01*
X143569978Y-89757850D01*
X143489362Y-89908672D01*
X143380870Y-90040870D01*
X143248672Y-90149362D01*
X143097850Y-90229978D01*
X142934189Y-90279624D01*
X142757766Y-90297000D01*
X142484234Y-90297000D01*
X142307811Y-90279624D01*
X142144150Y-90229978D01*
X141993328Y-90149362D01*
X141861130Y-90040870D01*
X141752638Y-89908672D01*
X141672022Y-89757850D01*
X141622376Y-89594189D01*
X141605000Y-89417766D01*
X141605000Y-83556234D01*
X141622376Y-83379811D01*
X141672022Y-83216150D01*
X141752638Y-83065328D01*
X141861130Y-82933130D01*
X141993328Y-82824638D01*
X142144150Y-82744022D01*
X142307811Y-82694376D01*
X142484234Y-82677000D01*
X147583766Y-82677000D01*
X147760189Y-82694376D01*
%TO.N,VIN_SW*%
G36*
X138303000Y-77597000D02*
G01*
X137414000Y-77597000D01*
X137389224Y-77599440D01*
X137365399Y-77606667D01*
X137343443Y-77618403D01*
X137324197Y-77634197D01*
X137308403Y-77653443D01*
X137296667Y-77675399D01*
X137289440Y-77699224D01*
X137287000Y-77724000D01*
X137287000Y-80391000D01*
X136271000Y-80391000D01*
X136271000Y-77822641D01*
X136277512Y-77812895D01*
X136332081Y-77681154D01*
X136359900Y-77541298D01*
X136359900Y-77398702D01*
X136332081Y-77258846D01*
X136277512Y-77127105D01*
X136271000Y-77117359D01*
X136271000Y-77060641D01*
X136277512Y-77050895D01*
X136332081Y-76919154D01*
X136359900Y-76779298D01*
X136359900Y-76636702D01*
X136348820Y-76581000D01*
X136398000Y-76581000D01*
X136422776Y-76578560D01*
X136446601Y-76571333D01*
X136468557Y-76559597D01*
X136487803Y-76543803D01*
X136503597Y-76524557D01*
X136515333Y-76502601D01*
X136522560Y-76478776D01*
X136525000Y-76454000D01*
X136525000Y-75565000D01*
X136652000Y-75565000D01*
X136676776Y-75562560D01*
X136700601Y-75555333D01*
X136722557Y-75543597D01*
X136741803Y-75527803D01*
X136757597Y-75508557D01*
X136769333Y-75486601D01*
X136776560Y-75462776D01*
X136779000Y-75438000D01*
X136779000Y-73660000D01*
X138303000Y-73660000D01*
X138303000Y-77597000D01*
G37*
X138303000Y-77597000D02*
X137414000Y-77597000D01*
X137389224Y-77599440D01*
X137365399Y-77606667D01*
X137343443Y-77618403D01*
X137324197Y-77634197D01*
X137308403Y-77653443D01*
X137296667Y-77675399D01*
X137289440Y-77699224D01*
X137287000Y-77724000D01*
X137287000Y-80391000D01*
X136271000Y-80391000D01*
X136271000Y-77822641D01*
X136277512Y-77812895D01*
X136332081Y-77681154D01*
X136359900Y-77541298D01*
X136359900Y-77398702D01*
X136332081Y-77258846D01*
X136277512Y-77127105D01*
X136271000Y-77117359D01*
X136271000Y-77060641D01*
X136277512Y-77050895D01*
X136332081Y-76919154D01*
X136359900Y-76779298D01*
X136359900Y-76636702D01*
X136348820Y-76581000D01*
X136398000Y-76581000D01*
X136422776Y-76578560D01*
X136446601Y-76571333D01*
X136468557Y-76559597D01*
X136487803Y-76543803D01*
X136503597Y-76524557D01*
X136515333Y-76502601D01*
X136522560Y-76478776D01*
X136525000Y-76454000D01*
X136525000Y-75565000D01*
X136652000Y-75565000D01*
X136676776Y-75562560D01*
X136700601Y-75555333D01*
X136722557Y-75543597D01*
X136741803Y-75527803D01*
X136757597Y-75508557D01*
X136769333Y-75486601D01*
X136776560Y-75462776D01*
X136779000Y-75438000D01*
X136779000Y-73660000D01*
X138303000Y-73660000D01*
X138303000Y-77597000D01*
%TD*%
M02*
