%TF.GenerationSoftware,KiCad,Pcbnew,5.1.6-c6e7f7d~87~ubuntu18.04.1*%
%TF.CreationDate,2020-09-06T00:00:26-07:00*%
%TF.ProjectId,feather-power-supply-sw-smd,66656174-6865-4722-9d70-6f7765722d73,rev?*%
%TF.SameCoordinates,Original*%
%TF.FileFunction,Legend,Top*%
%TF.FilePolarity,Positive*%
%FSLAX46Y46*%
G04 Gerber Fmt 4.6, Leading zero omitted, Abs format (unit mm)*
G04 Created by KiCad (PCBNEW 5.1.6-c6e7f7d~87~ubuntu18.04.1) date 2020-09-06 00:00:26*
%MOMM*%
%LPD*%
G01*
G04 APERTURE LIST*
%ADD10C,0.150000*%
%ADD11C,0.120000*%
%ADD12C,0.300000*%
%ADD13C,0.100000*%
G04 APERTURE END LIST*
D10*
X124011228Y-110888971D02*
X123677895Y-110888971D01*
X123677895Y-111412780D02*
X123677895Y-110412780D01*
X124154085Y-110412780D01*
X124915990Y-111365161D02*
X124820752Y-111412780D01*
X124630276Y-111412780D01*
X124535038Y-111365161D01*
X124487419Y-111269923D01*
X124487419Y-110888971D01*
X124535038Y-110793733D01*
X124630276Y-110746114D01*
X124820752Y-110746114D01*
X124915990Y-110793733D01*
X124963609Y-110888971D01*
X124963609Y-110984209D01*
X124487419Y-111079447D01*
X125820752Y-111412780D02*
X125820752Y-110888971D01*
X125773133Y-110793733D01*
X125677895Y-110746114D01*
X125487419Y-110746114D01*
X125392180Y-110793733D01*
X125820752Y-111365161D02*
X125725514Y-111412780D01*
X125487419Y-111412780D01*
X125392180Y-111365161D01*
X125344561Y-111269923D01*
X125344561Y-111174685D01*
X125392180Y-111079447D01*
X125487419Y-111031828D01*
X125725514Y-111031828D01*
X125820752Y-110984209D01*
X126154085Y-110746114D02*
X126535038Y-110746114D01*
X126296942Y-110412780D02*
X126296942Y-111269923D01*
X126344561Y-111365161D01*
X126439800Y-111412780D01*
X126535038Y-111412780D01*
X126868371Y-111412780D02*
X126868371Y-110412780D01*
X127296942Y-111412780D02*
X127296942Y-110888971D01*
X127249323Y-110793733D01*
X127154085Y-110746114D01*
X127011228Y-110746114D01*
X126915990Y-110793733D01*
X126868371Y-110841352D01*
X128154085Y-111365161D02*
X128058847Y-111412780D01*
X127868371Y-111412780D01*
X127773133Y-111365161D01*
X127725514Y-111269923D01*
X127725514Y-110888971D01*
X127773133Y-110793733D01*
X127868371Y-110746114D01*
X128058847Y-110746114D01*
X128154085Y-110793733D01*
X128201704Y-110888971D01*
X128201704Y-110984209D01*
X127725514Y-111079447D01*
X128630276Y-111412780D02*
X128630276Y-110746114D01*
X128630276Y-110936590D02*
X128677895Y-110841352D01*
X128725514Y-110793733D01*
X128820752Y-110746114D01*
X128915990Y-110746114D01*
X129154085Y-110412780D02*
X129392180Y-111412780D01*
X129582657Y-110698495D01*
X129773133Y-111412780D01*
X130011228Y-110412780D01*
X130392180Y-111412780D02*
X130392180Y-110746114D01*
X130392180Y-110412780D02*
X130344561Y-110460400D01*
X130392180Y-110508019D01*
X130439800Y-110460400D01*
X130392180Y-110412780D01*
X130392180Y-110508019D01*
X130868371Y-110746114D02*
X130868371Y-111412780D01*
X130868371Y-110841352D02*
X130915990Y-110793733D01*
X131011228Y-110746114D01*
X131154085Y-110746114D01*
X131249323Y-110793733D01*
X131296942Y-110888971D01*
X131296942Y-111412780D01*
X132201704Y-110746114D02*
X132201704Y-111555638D01*
X132154085Y-111650876D01*
X132106466Y-111698495D01*
X132011228Y-111746114D01*
X131868371Y-111746114D01*
X131773133Y-111698495D01*
X132201704Y-111365161D02*
X132106466Y-111412780D01*
X131915990Y-111412780D01*
X131820752Y-111365161D01*
X131773133Y-111317542D01*
X131725514Y-111222304D01*
X131725514Y-110936590D01*
X131773133Y-110841352D01*
X131820752Y-110793733D01*
X131915990Y-110746114D01*
X132106466Y-110746114D01*
X132201704Y-110793733D01*
X123035038Y-113015161D02*
X123177895Y-113062780D01*
X123415990Y-113062780D01*
X123511228Y-113015161D01*
X123558847Y-112967542D01*
X123606466Y-112872304D01*
X123606466Y-112777066D01*
X123558847Y-112681828D01*
X123511228Y-112634209D01*
X123415990Y-112586590D01*
X123225514Y-112538971D01*
X123130276Y-112491352D01*
X123082657Y-112443733D01*
X123035038Y-112348495D01*
X123035038Y-112253257D01*
X123082657Y-112158019D01*
X123130276Y-112110400D01*
X123225514Y-112062780D01*
X123463609Y-112062780D01*
X123606466Y-112110400D01*
X123939800Y-112396114D02*
X124130276Y-113062780D01*
X124320752Y-112586590D01*
X124511228Y-113062780D01*
X124701704Y-112396114D01*
X125082657Y-113062780D02*
X125082657Y-112396114D01*
X125082657Y-112062780D02*
X125035038Y-112110400D01*
X125082657Y-112158019D01*
X125130276Y-112110400D01*
X125082657Y-112062780D01*
X125082657Y-112158019D01*
X125415990Y-112396114D02*
X125796942Y-112396114D01*
X125558847Y-112062780D02*
X125558847Y-112919923D01*
X125606466Y-113015161D01*
X125701704Y-113062780D01*
X125796942Y-113062780D01*
X126558847Y-113015161D02*
X126463609Y-113062780D01*
X126273133Y-113062780D01*
X126177895Y-113015161D01*
X126130276Y-112967542D01*
X126082657Y-112872304D01*
X126082657Y-112586590D01*
X126130276Y-112491352D01*
X126177895Y-112443733D01*
X126273133Y-112396114D01*
X126463609Y-112396114D01*
X126558847Y-112443733D01*
X126987419Y-113062780D02*
X126987419Y-112062780D01*
X127415990Y-113062780D02*
X127415990Y-112538971D01*
X127368371Y-112443733D01*
X127273133Y-112396114D01*
X127130276Y-112396114D01*
X127035038Y-112443733D01*
X126987419Y-112491352D01*
X128273133Y-113015161D02*
X128177895Y-113062780D01*
X127987419Y-113062780D01*
X127892180Y-113015161D01*
X127844561Y-112919923D01*
X127844561Y-112538971D01*
X127892180Y-112443733D01*
X127987419Y-112396114D01*
X128177895Y-112396114D01*
X128273133Y-112443733D01*
X128320752Y-112538971D01*
X128320752Y-112634209D01*
X127844561Y-112729447D01*
X128749323Y-113062780D02*
X128749323Y-112396114D01*
X128749323Y-112586590D02*
X128796942Y-112491352D01*
X128844561Y-112443733D01*
X128939800Y-112396114D01*
X129035038Y-112396114D01*
X130035038Y-112396114D02*
X130273133Y-113062780D01*
X130511228Y-112396114D01*
X131415990Y-113062780D02*
X130844561Y-113062780D01*
X131130276Y-113062780D02*
X131130276Y-112062780D01*
X131035038Y-112205638D01*
X130939800Y-112300876D01*
X130844561Y-112348495D01*
X131844561Y-112967542D02*
X131892180Y-113015161D01*
X131844561Y-113062780D01*
X131796942Y-113015161D01*
X131844561Y-112967542D01*
X131844561Y-113062780D01*
X132511228Y-112062780D02*
X132606466Y-112062780D01*
X132701704Y-112110400D01*
X132749323Y-112158019D01*
X132796942Y-112253257D01*
X132844561Y-112443733D01*
X132844561Y-112681828D01*
X132796942Y-112872304D01*
X132749323Y-112967542D01*
X132701704Y-113015161D01*
X132606466Y-113062780D01*
X132511228Y-113062780D01*
X132415990Y-113015161D01*
X132368371Y-112967542D01*
X132320752Y-112872304D01*
X132273133Y-112681828D01*
X132273133Y-112443733D01*
X132320752Y-112253257D01*
X132368371Y-112158019D01*
X132415990Y-112110400D01*
X132511228Y-112062780D01*
D11*
X125653800Y-85255100D02*
G75*
G03*
X125653800Y-85255100I-254000J0D01*
G01*
X128435100Y-86283800D02*
G75*
G03*
X128435100Y-86283800I-254000J0D01*
G01*
D12*
X120458800Y-72262857D02*
X120387371Y-72405714D01*
X120387371Y-72620000D01*
X120458800Y-72834285D01*
X120601657Y-72977142D01*
X120744514Y-73048571D01*
X121030228Y-73120000D01*
X121244514Y-73120000D01*
X121530228Y-73048571D01*
X121673085Y-72977142D01*
X121815942Y-72834285D01*
X121887371Y-72620000D01*
X121887371Y-72477142D01*
X121815942Y-72262857D01*
X121744514Y-72191428D01*
X121244514Y-72191428D01*
X121244514Y-72477142D01*
X121887371Y-71548571D02*
X120387371Y-71548571D01*
X121887371Y-70691428D01*
X120387371Y-70691428D01*
X121887371Y-69977142D02*
X120387371Y-69977142D01*
X120387371Y-69620000D01*
X120458800Y-69405714D01*
X120601657Y-69262857D01*
X120744514Y-69191428D01*
X121030228Y-69120000D01*
X121244514Y-69120000D01*
X121530228Y-69191428D01*
X121673085Y-69262857D01*
X121815942Y-69405714D01*
X121887371Y-69620000D01*
X121887371Y-69977142D01*
X135209742Y-74397857D02*
X135209742Y-73255000D01*
X135781171Y-73826428D02*
X134638314Y-73826428D01*
X135781171Y-71755000D02*
X135781171Y-72612142D01*
X135781171Y-72183571D02*
X134281171Y-72183571D01*
X134495457Y-72326428D01*
X134638314Y-72469285D01*
X134709742Y-72612142D01*
X134424028Y-71183571D02*
X134352600Y-71112142D01*
X134281171Y-70969285D01*
X134281171Y-70612142D01*
X134352600Y-70469285D01*
X134424028Y-70397857D01*
X134566885Y-70326428D01*
X134709742Y-70326428D01*
X134924028Y-70397857D01*
X135781171Y-71255000D01*
X135781171Y-70326428D01*
X134281171Y-69897857D02*
X135781171Y-69397857D01*
X134281171Y-68897857D01*
D11*
%TO.C,J4*%
X136732000Y-107758000D02*
X134232000Y-107758000D01*
X134232000Y-107758000D02*
X134232000Y-106708000D01*
X134232000Y-106708000D02*
X133242000Y-106708000D01*
X136732000Y-101538000D02*
X134232000Y-101538000D01*
X134232000Y-101538000D02*
X134232000Y-102588000D01*
X138702000Y-106588000D02*
X138702000Y-102708000D01*
%TO.C,L1*%
X132670800Y-83196400D02*
X132670800Y-84096400D01*
X132670800Y-83196400D02*
X133570800Y-83196400D01*
X136670800Y-87796400D02*
X136670800Y-86896400D01*
X136670800Y-87796400D02*
X135770800Y-87796400D01*
X136670800Y-83196400D02*
X136670800Y-84096400D01*
X136670800Y-83196400D02*
X135770800Y-83196400D01*
X132670800Y-87796400D02*
X132670800Y-86896400D01*
X132670800Y-87796400D02*
X133570800Y-87796400D01*
%TO.C,C4*%
X134079064Y-82843200D02*
X132874936Y-82843200D01*
X134079064Y-80123200D02*
X132874936Y-80123200D01*
%TO.C,C9*%
X121215333Y-80820800D02*
X121557867Y-80820800D01*
X121215333Y-81840800D02*
X121557867Y-81840800D01*
%TO.C,C6*%
X134079064Y-76884700D02*
X132874936Y-76884700D01*
X134079064Y-79604700D02*
X132874936Y-79604700D01*
%TO.C,JP1*%
X125464800Y-79803500D02*
X124064800Y-79803500D01*
X123364800Y-79103500D02*
X123364800Y-78503500D01*
X124064800Y-77803500D02*
X125464800Y-77803500D01*
X126164800Y-78503500D02*
X126164800Y-79103500D01*
X126164800Y-79103500D02*
G75*
G02*
X125464800Y-79803500I-700000J0D01*
G01*
X125464800Y-77803500D02*
G75*
G02*
X126164800Y-78503500I0J-700000D01*
G01*
X123364800Y-78503500D02*
G75*
G02*
X124064800Y-77803500I700000J0D01*
G01*
X124064800Y-79803500D02*
G75*
G02*
X123364800Y-79103500I0J700000D01*
G01*
%TO.C,R2*%
X121215333Y-79296800D02*
X121557867Y-79296800D01*
X121215333Y-80316800D02*
X121557867Y-80316800D01*
%TO.C,C7*%
X119949500Y-87306333D02*
X119949500Y-87648867D01*
X120969500Y-87306333D02*
X120969500Y-87648867D01*
%TO.C,C8*%
X121498900Y-87306333D02*
X121498900Y-87648867D01*
X122518900Y-87306333D02*
X122518900Y-87648867D01*
%TO.C,C2*%
X124874700Y-87485136D02*
X124874700Y-88689264D01*
X123054700Y-87485136D02*
X123054700Y-88689264D01*
%TO.C,R4*%
X127979900Y-92614933D02*
X127979900Y-92957467D01*
X126959900Y-92614933D02*
X126959900Y-92957467D01*
%TO.C,D1*%
X135658100Y-88033500D02*
X133658100Y-88033500D01*
X133658100Y-88033500D02*
X133658100Y-91883500D01*
X135658100Y-88033500D02*
X135658100Y-91883500D01*
D13*
%TO.C,U1*%
X127692300Y-85715800D02*
X127292300Y-85715800D01*
X127292300Y-85715800D02*
X126992300Y-86015800D01*
X126992300Y-86015800D02*
X126192300Y-86015800D01*
X126792300Y-90615800D02*
X126792300Y-90915800D01*
X126792300Y-90915800D02*
X127092300Y-90915800D01*
X130992300Y-86015800D02*
X130992300Y-85715800D01*
X130992300Y-85715800D02*
X130692300Y-85715800D01*
X130992300Y-90615800D02*
X130992300Y-90915800D01*
X130992300Y-90915800D02*
X130692300Y-90915800D01*
D11*
%TO.C,R3*%
X130824700Y-92614933D02*
X130824700Y-92957467D01*
X129804700Y-92614933D02*
X129804700Y-92957467D01*
%TO.C,C5*%
X126430500Y-92614933D02*
X126430500Y-92957467D01*
X125410500Y-92614933D02*
X125410500Y-92957467D01*
%TO.C,C3*%
X131354100Y-92957467D02*
X131354100Y-92614933D01*
X132374100Y-92957467D02*
X132374100Y-92614933D01*
%TO.C,C1*%
X130651433Y-84199000D02*
X130993967Y-84199000D01*
X130651433Y-85219000D02*
X130993967Y-85219000D01*
%TO.C,J1*%
X127147100Y-70116700D02*
G75*
G03*
X127147100Y-70116700I-1680000J0D01*
G01*
X133027100Y-66016700D02*
X122907100Y-66016700D01*
X133027100Y-67516700D02*
X122907100Y-67516700D01*
X133027100Y-72417700D02*
X122907100Y-72417700D01*
X133027100Y-75377700D02*
X122907100Y-75377700D01*
X133027100Y-65456700D02*
X122907100Y-65456700D01*
X133027100Y-75377700D02*
X133027100Y-65456700D01*
X122907100Y-75377700D02*
X122907100Y-65456700D01*
X124192100Y-71185700D02*
X124239100Y-71139700D01*
X126501100Y-68877700D02*
X126536100Y-68842700D01*
X124397100Y-71391700D02*
X124432100Y-71355700D01*
X126694100Y-69093700D02*
X126741100Y-69047700D01*
X133267100Y-65956700D02*
X133267100Y-65216700D01*
X133267100Y-65216700D02*
X132767100Y-65216700D01*
X129783782Y-68581944D02*
G75*
G02*
X130467100Y-68436700I683318J-1534756D01*
G01*
X128931674Y-70799742D02*
G75*
G02*
X128932100Y-69432700I1535426J683042D01*
G01*
X131150142Y-71652126D02*
G75*
G02*
X129783100Y-71651700I-683042J1535426D01*
G01*
X132002526Y-69433658D02*
G75*
G02*
X132002100Y-70800700I-1535426J-683042D01*
G01*
X130438295Y-68436447D02*
G75*
G02*
X131151100Y-68581700I28805J-1680253D01*
G01*
%TO.C,J3*%
X116526000Y-69409000D02*
X117856000Y-69409000D01*
X116526000Y-70739000D02*
X116526000Y-69409000D01*
X116526000Y-72009000D02*
X119186000Y-72009000D01*
X119186000Y-72009000D02*
X119186000Y-110169000D01*
X116526000Y-72009000D02*
X116526000Y-110169000D01*
X116526000Y-110169000D02*
X119186000Y-110169000D01*
%TO.C,R1*%
X121215333Y-77772800D02*
X121557867Y-77772800D01*
X121215333Y-78792800D02*
X121557867Y-78792800D01*
%TO.C,J2*%
X136846000Y-100009000D02*
X139506000Y-100009000D01*
X136846000Y-72009000D02*
X136846000Y-100009000D01*
X139506000Y-72009000D02*
X139506000Y-100009000D01*
X136846000Y-72009000D02*
X139506000Y-72009000D01*
X136846000Y-70739000D02*
X136846000Y-69409000D01*
X136846000Y-69409000D02*
X138176000Y-69409000D01*
%TO.C,J4*%
D10*
X131340266Y-104125780D02*
X131340266Y-104840066D01*
X131292647Y-104982923D01*
X131197409Y-105078161D01*
X131054552Y-105125780D01*
X130959314Y-105125780D01*
X132245028Y-104459114D02*
X132245028Y-105125780D01*
X132006933Y-104078161D02*
X131768838Y-104792447D01*
X132387885Y-104792447D01*
%TO.C,L1*%
X135110480Y-85955166D02*
X135110480Y-86431357D01*
X134110480Y-86431357D01*
X135110480Y-85098023D02*
X135110480Y-85669452D01*
X135110480Y-85383738D02*
X134110480Y-85383738D01*
X134253338Y-85478976D01*
X134348576Y-85574214D01*
X134396195Y-85669452D01*
%TO.C,C4*%
X128738333Y-81840342D02*
X128690714Y-81887961D01*
X128547857Y-81935580D01*
X128452619Y-81935580D01*
X128309761Y-81887961D01*
X128214523Y-81792723D01*
X128166904Y-81697485D01*
X128119285Y-81507009D01*
X128119285Y-81364152D01*
X128166904Y-81173676D01*
X128214523Y-81078438D01*
X128309761Y-80983200D01*
X128452619Y-80935580D01*
X128547857Y-80935580D01*
X128690714Y-80983200D01*
X128738333Y-81030819D01*
X129595476Y-81268914D02*
X129595476Y-81935580D01*
X129357380Y-80887961D02*
X129119285Y-81602247D01*
X129738333Y-81602247D01*
%TO.C,C9*%
X121232633Y-83326242D02*
X121185014Y-83373861D01*
X121042157Y-83421480D01*
X120946919Y-83421480D01*
X120804061Y-83373861D01*
X120708823Y-83278623D01*
X120661204Y-83183385D01*
X120613585Y-82992909D01*
X120613585Y-82850052D01*
X120661204Y-82659576D01*
X120708823Y-82564338D01*
X120804061Y-82469100D01*
X120946919Y-82421480D01*
X121042157Y-82421480D01*
X121185014Y-82469100D01*
X121232633Y-82516719D01*
X121708823Y-83421480D02*
X121899300Y-83421480D01*
X121994538Y-83373861D01*
X122042157Y-83326242D01*
X122137395Y-83183385D01*
X122185014Y-82992909D01*
X122185014Y-82611957D01*
X122137395Y-82516719D01*
X122089776Y-82469100D01*
X121994538Y-82421480D01*
X121804061Y-82421480D01*
X121708823Y-82469100D01*
X121661204Y-82516719D01*
X121613585Y-82611957D01*
X121613585Y-82850052D01*
X121661204Y-82945290D01*
X121708823Y-82992909D01*
X121804061Y-83040528D01*
X121994538Y-83040528D01*
X122089776Y-82992909D01*
X122137395Y-82945290D01*
X122185014Y-82850052D01*
%TO.C,C6*%
X128712933Y-78411342D02*
X128665314Y-78458961D01*
X128522457Y-78506580D01*
X128427219Y-78506580D01*
X128284361Y-78458961D01*
X128189123Y-78363723D01*
X128141504Y-78268485D01*
X128093885Y-78078009D01*
X128093885Y-77935152D01*
X128141504Y-77744676D01*
X128189123Y-77649438D01*
X128284361Y-77554200D01*
X128427219Y-77506580D01*
X128522457Y-77506580D01*
X128665314Y-77554200D01*
X128712933Y-77601819D01*
X129570076Y-77506580D02*
X129379600Y-77506580D01*
X129284361Y-77554200D01*
X129236742Y-77601819D01*
X129141504Y-77744676D01*
X129093885Y-77935152D01*
X129093885Y-78316104D01*
X129141504Y-78411342D01*
X129189123Y-78458961D01*
X129284361Y-78506580D01*
X129474838Y-78506580D01*
X129570076Y-78458961D01*
X129617695Y-78411342D01*
X129665314Y-78316104D01*
X129665314Y-78078009D01*
X129617695Y-77982771D01*
X129570076Y-77935152D01*
X129474838Y-77887533D01*
X129284361Y-77887533D01*
X129189123Y-77935152D01*
X129141504Y-77982771D01*
X129093885Y-78078009D01*
%TO.C,JP1*%
X123906066Y-76388980D02*
X123906066Y-77103266D01*
X123858447Y-77246123D01*
X123763209Y-77341361D01*
X123620352Y-77388980D01*
X123525114Y-77388980D01*
X124382257Y-77388980D02*
X124382257Y-76388980D01*
X124763209Y-76388980D01*
X124858447Y-76436600D01*
X124906066Y-76484219D01*
X124953685Y-76579457D01*
X124953685Y-76722314D01*
X124906066Y-76817552D01*
X124858447Y-76865171D01*
X124763209Y-76912790D01*
X124382257Y-76912790D01*
X125906066Y-77388980D02*
X125334638Y-77388980D01*
X125620352Y-77388980D02*
X125620352Y-76388980D01*
X125525114Y-76531838D01*
X125429876Y-76627076D01*
X125334638Y-76674695D01*
%TO.C,R2*%
X124102833Y-81275180D02*
X123769500Y-80798990D01*
X123531404Y-81275180D02*
X123531404Y-80275180D01*
X123912357Y-80275180D01*
X124007595Y-80322800D01*
X124055214Y-80370419D01*
X124102833Y-80465657D01*
X124102833Y-80608514D01*
X124055214Y-80703752D01*
X124007595Y-80751371D01*
X123912357Y-80798990D01*
X123531404Y-80798990D01*
X124483785Y-80370419D02*
X124531404Y-80322800D01*
X124626642Y-80275180D01*
X124864738Y-80275180D01*
X124959976Y-80322800D01*
X125007595Y-80370419D01*
X125055214Y-80465657D01*
X125055214Y-80560895D01*
X125007595Y-80703752D01*
X124436166Y-81275180D01*
X125055214Y-81275180D01*
%TO.C,C7*%
X120816642Y-91428866D02*
X120864261Y-91476485D01*
X120911880Y-91619342D01*
X120911880Y-91714580D01*
X120864261Y-91857438D01*
X120769023Y-91952676D01*
X120673785Y-92000295D01*
X120483309Y-92047914D01*
X120340452Y-92047914D01*
X120149976Y-92000295D01*
X120054738Y-91952676D01*
X119959500Y-91857438D01*
X119911880Y-91714580D01*
X119911880Y-91619342D01*
X119959500Y-91476485D01*
X120007119Y-91428866D01*
X119911880Y-91095533D02*
X119911880Y-90428866D01*
X120911880Y-90857438D01*
%TO.C,C8*%
X122416842Y-91454266D02*
X122464461Y-91501885D01*
X122512080Y-91644742D01*
X122512080Y-91739980D01*
X122464461Y-91882838D01*
X122369223Y-91978076D01*
X122273985Y-92025695D01*
X122083509Y-92073314D01*
X121940652Y-92073314D01*
X121750176Y-92025695D01*
X121654938Y-91978076D01*
X121559700Y-91882838D01*
X121512080Y-91739980D01*
X121512080Y-91644742D01*
X121559700Y-91501885D01*
X121607319Y-91454266D01*
X121940652Y-90882838D02*
X121893033Y-90978076D01*
X121845414Y-91025695D01*
X121750176Y-91073314D01*
X121702557Y-91073314D01*
X121607319Y-91025695D01*
X121559700Y-90978076D01*
X121512080Y-90882838D01*
X121512080Y-90692361D01*
X121559700Y-90597123D01*
X121607319Y-90549504D01*
X121702557Y-90501885D01*
X121750176Y-90501885D01*
X121845414Y-90549504D01*
X121893033Y-90597123D01*
X121940652Y-90692361D01*
X121940652Y-90882838D01*
X121988271Y-90978076D01*
X122035890Y-91025695D01*
X122131128Y-91073314D01*
X122321604Y-91073314D01*
X122416842Y-91025695D01*
X122464461Y-90978076D01*
X122512080Y-90882838D01*
X122512080Y-90692361D01*
X122464461Y-90597123D01*
X122416842Y-90549504D01*
X122321604Y-90501885D01*
X122131128Y-90501885D01*
X122035890Y-90549504D01*
X121988271Y-90597123D01*
X121940652Y-90692361D01*
%TO.C,C2*%
X123772633Y-92559142D02*
X123725014Y-92606761D01*
X123582157Y-92654380D01*
X123486919Y-92654380D01*
X123344061Y-92606761D01*
X123248823Y-92511523D01*
X123201204Y-92416285D01*
X123153585Y-92225809D01*
X123153585Y-92082952D01*
X123201204Y-91892476D01*
X123248823Y-91797238D01*
X123344061Y-91702000D01*
X123486919Y-91654380D01*
X123582157Y-91654380D01*
X123725014Y-91702000D01*
X123772633Y-91749619D01*
X124153585Y-91749619D02*
X124201204Y-91702000D01*
X124296442Y-91654380D01*
X124534538Y-91654380D01*
X124629776Y-91702000D01*
X124677395Y-91749619D01*
X124725014Y-91844857D01*
X124725014Y-91940095D01*
X124677395Y-92082952D01*
X124105966Y-92654380D01*
X124725014Y-92654380D01*
%TO.C,R4*%
X127922280Y-95670666D02*
X127446090Y-96004000D01*
X127922280Y-96242095D02*
X126922280Y-96242095D01*
X126922280Y-95861142D01*
X126969900Y-95765904D01*
X127017519Y-95718285D01*
X127112757Y-95670666D01*
X127255614Y-95670666D01*
X127350852Y-95718285D01*
X127398471Y-95765904D01*
X127446090Y-95861142D01*
X127446090Y-96242095D01*
X127255614Y-94813523D02*
X127922280Y-94813523D01*
X126874661Y-95051619D02*
X127588947Y-95289714D01*
X127588947Y-94670666D01*
%TO.C,D1*%
X133958104Y-95067380D02*
X133958104Y-94067380D01*
X134196200Y-94067380D01*
X134339057Y-94115000D01*
X134434295Y-94210238D01*
X134481914Y-94305476D01*
X134529533Y-94495952D01*
X134529533Y-94638809D01*
X134481914Y-94829285D01*
X134434295Y-94924523D01*
X134339057Y-95019761D01*
X134196200Y-95067380D01*
X133958104Y-95067380D01*
X135481914Y-95067380D02*
X134910485Y-95067380D01*
X135196200Y-95067380D02*
X135196200Y-94067380D01*
X135100961Y-94210238D01*
X135005723Y-94305476D01*
X134910485Y-94353095D01*
%TO.C,U1*%
X126492095Y-84110580D02*
X126492095Y-84920104D01*
X126539714Y-85015342D01*
X126587333Y-85062961D01*
X126682571Y-85110580D01*
X126873047Y-85110580D01*
X126968285Y-85062961D01*
X127015904Y-85015342D01*
X127063523Y-84920104D01*
X127063523Y-84110580D01*
X128063523Y-85110580D02*
X127492095Y-85110580D01*
X127777809Y-85110580D02*
X127777809Y-84110580D01*
X127682571Y-84253438D01*
X127587333Y-84348676D01*
X127492095Y-84396295D01*
%TO.C,R3*%
X130767080Y-95645266D02*
X130290890Y-95978600D01*
X130767080Y-96216695D02*
X129767080Y-96216695D01*
X129767080Y-95835742D01*
X129814700Y-95740504D01*
X129862319Y-95692885D01*
X129957557Y-95645266D01*
X130100414Y-95645266D01*
X130195652Y-95692885D01*
X130243271Y-95740504D01*
X130290890Y-95835742D01*
X130290890Y-96216695D01*
X129767080Y-95311933D02*
X129767080Y-94692885D01*
X130148033Y-95026219D01*
X130148033Y-94883361D01*
X130195652Y-94788123D01*
X130243271Y-94740504D01*
X130338509Y-94692885D01*
X130576604Y-94692885D01*
X130671842Y-94740504D01*
X130719461Y-94788123D01*
X130767080Y-94883361D01*
X130767080Y-95169076D01*
X130719461Y-95264314D01*
X130671842Y-95311933D01*
%TO.C,C5*%
X126303042Y-95721466D02*
X126350661Y-95769085D01*
X126398280Y-95911942D01*
X126398280Y-96007180D01*
X126350661Y-96150038D01*
X126255423Y-96245276D01*
X126160185Y-96292895D01*
X125969709Y-96340514D01*
X125826852Y-96340514D01*
X125636376Y-96292895D01*
X125541138Y-96245276D01*
X125445900Y-96150038D01*
X125398280Y-96007180D01*
X125398280Y-95911942D01*
X125445900Y-95769085D01*
X125493519Y-95721466D01*
X125398280Y-94816704D02*
X125398280Y-95292895D01*
X125874471Y-95340514D01*
X125826852Y-95292895D01*
X125779233Y-95197657D01*
X125779233Y-94959561D01*
X125826852Y-94864323D01*
X125874471Y-94816704D01*
X125969709Y-94769085D01*
X126207804Y-94769085D01*
X126303042Y-94816704D01*
X126350661Y-94864323D01*
X126398280Y-94959561D01*
X126398280Y-95197657D01*
X126350661Y-95292895D01*
X126303042Y-95340514D01*
%TO.C,C3*%
X132322842Y-95696066D02*
X132370461Y-95743685D01*
X132418080Y-95886542D01*
X132418080Y-95981780D01*
X132370461Y-96124638D01*
X132275223Y-96219876D01*
X132179985Y-96267495D01*
X131989509Y-96315114D01*
X131846652Y-96315114D01*
X131656176Y-96267495D01*
X131560938Y-96219876D01*
X131465700Y-96124638D01*
X131418080Y-95981780D01*
X131418080Y-95886542D01*
X131465700Y-95743685D01*
X131513319Y-95696066D01*
X131418080Y-95362733D02*
X131418080Y-94743685D01*
X131799033Y-95077019D01*
X131799033Y-94934161D01*
X131846652Y-94838923D01*
X131894271Y-94791304D01*
X131989509Y-94743685D01*
X132227604Y-94743685D01*
X132322842Y-94791304D01*
X132370461Y-94838923D01*
X132418080Y-94934161D01*
X132418080Y-95219876D01*
X132370461Y-95315114D01*
X132322842Y-95362733D01*
%TO.C,C1*%
X129805133Y-83618342D02*
X129757514Y-83665961D01*
X129614657Y-83713580D01*
X129519419Y-83713580D01*
X129376561Y-83665961D01*
X129281323Y-83570723D01*
X129233704Y-83475485D01*
X129186085Y-83285009D01*
X129186085Y-83142152D01*
X129233704Y-82951676D01*
X129281323Y-82856438D01*
X129376561Y-82761200D01*
X129519419Y-82713580D01*
X129614657Y-82713580D01*
X129757514Y-82761200D01*
X129805133Y-82808819D01*
X130757514Y-83713580D02*
X130186085Y-83713580D01*
X130471800Y-83713580D02*
X130471800Y-82713580D01*
X130376561Y-82856438D01*
X130281323Y-82951676D01*
X130186085Y-82999295D01*
%TO.C,J1*%
X121243766Y-74509380D02*
X121243766Y-75223666D01*
X121196147Y-75366523D01*
X121100909Y-75461761D01*
X120958052Y-75509380D01*
X120862814Y-75509380D01*
X122243766Y-75509380D02*
X121672338Y-75509380D01*
X121958052Y-75509380D02*
X121958052Y-74509380D01*
X121862814Y-74652238D01*
X121767576Y-74747476D01*
X121672338Y-74795095D01*
%TO.C,J3*%
X120240466Y-84110580D02*
X120240466Y-84824866D01*
X120192847Y-84967723D01*
X120097609Y-85062961D01*
X119954752Y-85110580D01*
X119859514Y-85110580D01*
X120621419Y-84110580D02*
X121240466Y-84110580D01*
X120907133Y-84491533D01*
X121049990Y-84491533D01*
X121145228Y-84539152D01*
X121192847Y-84586771D01*
X121240466Y-84682009D01*
X121240466Y-84920104D01*
X121192847Y-85015342D01*
X121145228Y-85062961D01*
X121049990Y-85110580D01*
X120764276Y-85110580D01*
X120669038Y-85062961D01*
X120621419Y-85015342D01*
%TO.C,R1*%
X121219933Y-77338180D02*
X120886600Y-76861990D01*
X120648504Y-77338180D02*
X120648504Y-76338180D01*
X121029457Y-76338180D01*
X121124695Y-76385800D01*
X121172314Y-76433419D01*
X121219933Y-76528657D01*
X121219933Y-76671514D01*
X121172314Y-76766752D01*
X121124695Y-76814371D01*
X121029457Y-76861990D01*
X120648504Y-76861990D01*
X122172314Y-77338180D02*
X121600885Y-77338180D01*
X121886600Y-77338180D02*
X121886600Y-76338180D01*
X121791361Y-76481038D01*
X121696123Y-76576276D01*
X121600885Y-76623895D01*
%TO.C,J2*%
X135048666Y-98258380D02*
X135048666Y-98972666D01*
X135001047Y-99115523D01*
X134905809Y-99210761D01*
X134762952Y-99258380D01*
X134667714Y-99258380D01*
X135477238Y-98353619D02*
X135524857Y-98306000D01*
X135620095Y-98258380D01*
X135858190Y-98258380D01*
X135953428Y-98306000D01*
X136001047Y-98353619D01*
X136048666Y-98448857D01*
X136048666Y-98544095D01*
X136001047Y-98686952D01*
X135429619Y-99258380D01*
X136048666Y-99258380D01*
%TD*%
M02*
