%TF.GenerationSoftware,KiCad,Pcbnew,5.1.6-c6e7f7d~87~ubuntu18.04.1*%
%TF.CreationDate,2020-09-06T00:00:26-07:00*%
%TF.ProjectId,feather-power-supply-sw-smd,66656174-6865-4722-9d70-6f7765722d73,rev?*%
%TF.SameCoordinates,Original*%
%TF.FileFunction,Paste,Top*%
%TF.FilePolarity,Positive*%
%FSLAX46Y46*%
G04 Gerber Fmt 4.6, Leading zero omitted, Abs format (unit mm)*
G04 Created by KiCad (PCBNEW 5.1.6-c6e7f7d~87~ubuntu18.04.1) date 2020-09-06 00:00:26*
%MOMM*%
%LPD*%
G01*
G04 APERTURE LIST*
%ADD10R,1.000000X4.400000*%
%ADD11R,1.100000X1.100000*%
%ADD12R,2.000000X0.600000*%
G04 APERTURE END LIST*
%TO.C,J4*%
G36*
G01*
X138542001Y-102448000D02*
X137241999Y-102448000D01*
G75*
G02*
X136992000Y-102198001I0J249999D01*
G01*
X136992000Y-101497999D01*
G75*
G02*
X137241999Y-101248000I249999J0D01*
G01*
X138542001Y-101248000D01*
G75*
G02*
X138792000Y-101497999I0J-249999D01*
G01*
X138792000Y-102198001D01*
G75*
G02*
X138542001Y-102448000I-249999J0D01*
G01*
G37*
G36*
G01*
X138542001Y-108048000D02*
X137241999Y-108048000D01*
G75*
G02*
X136992000Y-107798001I0J249999D01*
G01*
X136992000Y-107097999D01*
G75*
G02*
X137241999Y-106848000I249999J0D01*
G01*
X138542001Y-106848000D01*
G75*
G02*
X138792000Y-107097999I0J-249999D01*
G01*
X138792000Y-107798001D01*
G75*
G02*
X138542001Y-108048000I-249999J0D01*
G01*
G37*
G36*
G01*
X134642000Y-103448000D02*
X133392000Y-103448000D01*
G75*
G02*
X133242000Y-103298000I0J150000D01*
G01*
X133242000Y-102998000D01*
G75*
G02*
X133392000Y-102848000I150000J0D01*
G01*
X134642000Y-102848000D01*
G75*
G02*
X134792000Y-102998000I0J-150000D01*
G01*
X134792000Y-103298000D01*
G75*
G02*
X134642000Y-103448000I-150000J0D01*
G01*
G37*
G36*
G01*
X134642000Y-104448000D02*
X133392000Y-104448000D01*
G75*
G02*
X133242000Y-104298000I0J150000D01*
G01*
X133242000Y-103998000D01*
G75*
G02*
X133392000Y-103848000I150000J0D01*
G01*
X134642000Y-103848000D01*
G75*
G02*
X134792000Y-103998000I0J-150000D01*
G01*
X134792000Y-104298000D01*
G75*
G02*
X134642000Y-104448000I-150000J0D01*
G01*
G37*
G36*
G01*
X134642000Y-105448000D02*
X133392000Y-105448000D01*
G75*
G02*
X133242000Y-105298000I0J150000D01*
G01*
X133242000Y-104998000D01*
G75*
G02*
X133392000Y-104848000I150000J0D01*
G01*
X134642000Y-104848000D01*
G75*
G02*
X134792000Y-104998000I0J-150000D01*
G01*
X134792000Y-105298000D01*
G75*
G02*
X134642000Y-105448000I-150000J0D01*
G01*
G37*
G36*
G01*
X134642000Y-106448000D02*
X133392000Y-106448000D01*
G75*
G02*
X133242000Y-106298000I0J150000D01*
G01*
X133242000Y-105998000D01*
G75*
G02*
X133392000Y-105848000I150000J0D01*
G01*
X134642000Y-105848000D01*
G75*
G02*
X134792000Y-105998000I0J-150000D01*
G01*
X134792000Y-106298000D01*
G75*
G02*
X134642000Y-106448000I-150000J0D01*
G01*
G37*
%TD*%
D10*
%TO.C,L1*%
X136045800Y-85496400D03*
X133295800Y-85496400D03*
%TD*%
%TO.C,C4*%
G36*
G01*
X132702000Y-80408200D02*
X132702000Y-82558200D01*
G75*
G02*
X132452000Y-82808200I-250000J0D01*
G01*
X131527000Y-82808200D01*
G75*
G02*
X131277000Y-82558200I0J250000D01*
G01*
X131277000Y-80408200D01*
G75*
G02*
X131527000Y-80158200I250000J0D01*
G01*
X132452000Y-80158200D01*
G75*
G02*
X132702000Y-80408200I0J-250000D01*
G01*
G37*
G36*
G01*
X135677000Y-80408200D02*
X135677000Y-82558200D01*
G75*
G02*
X135427000Y-82808200I-250000J0D01*
G01*
X134502000Y-82808200D01*
G75*
G02*
X134252000Y-82558200I0J250000D01*
G01*
X134252000Y-80408200D01*
G75*
G02*
X134502000Y-80158200I250000J0D01*
G01*
X135427000Y-80158200D01*
G75*
G02*
X135677000Y-80408200I0J-250000D01*
G01*
G37*
%TD*%
%TO.C,C9*%
G36*
G01*
X121736600Y-81568300D02*
X121736600Y-81093300D01*
G75*
G02*
X121974100Y-80855800I237500J0D01*
G01*
X122549100Y-80855800D01*
G75*
G02*
X122786600Y-81093300I0J-237500D01*
G01*
X122786600Y-81568300D01*
G75*
G02*
X122549100Y-81805800I-237500J0D01*
G01*
X121974100Y-81805800D01*
G75*
G02*
X121736600Y-81568300I0J237500D01*
G01*
G37*
G36*
G01*
X119986600Y-81568300D02*
X119986600Y-81093300D01*
G75*
G02*
X120224100Y-80855800I237500J0D01*
G01*
X120799100Y-80855800D01*
G75*
G02*
X121036600Y-81093300I0J-237500D01*
G01*
X121036600Y-81568300D01*
G75*
G02*
X120799100Y-81805800I-237500J0D01*
G01*
X120224100Y-81805800D01*
G75*
G02*
X119986600Y-81568300I0J237500D01*
G01*
G37*
%TD*%
%TO.C,C6*%
G36*
G01*
X132702000Y-77169700D02*
X132702000Y-79319700D01*
G75*
G02*
X132452000Y-79569700I-250000J0D01*
G01*
X131527000Y-79569700D01*
G75*
G02*
X131277000Y-79319700I0J250000D01*
G01*
X131277000Y-77169700D01*
G75*
G02*
X131527000Y-76919700I250000J0D01*
G01*
X132452000Y-76919700D01*
G75*
G02*
X132702000Y-77169700I0J-250000D01*
G01*
G37*
G36*
G01*
X135677000Y-77169700D02*
X135677000Y-79319700D01*
G75*
G02*
X135427000Y-79569700I-250000J0D01*
G01*
X134502000Y-79569700D01*
G75*
G02*
X134252000Y-79319700I0J250000D01*
G01*
X134252000Y-77169700D01*
G75*
G02*
X134502000Y-76919700I250000J0D01*
G01*
X135427000Y-76919700D01*
G75*
G02*
X135677000Y-77169700I0J-250000D01*
G01*
G37*
%TD*%
%TO.C,R2*%
G36*
G01*
X121736600Y-80044300D02*
X121736600Y-79569300D01*
G75*
G02*
X121974100Y-79331800I237500J0D01*
G01*
X122549100Y-79331800D01*
G75*
G02*
X122786600Y-79569300I0J-237500D01*
G01*
X122786600Y-80044300D01*
G75*
G02*
X122549100Y-80281800I-237500J0D01*
G01*
X121974100Y-80281800D01*
G75*
G02*
X121736600Y-80044300I0J237500D01*
G01*
G37*
G36*
G01*
X119986600Y-80044300D02*
X119986600Y-79569300D01*
G75*
G02*
X120224100Y-79331800I237500J0D01*
G01*
X120799100Y-79331800D01*
G75*
G02*
X121036600Y-79569300I0J-237500D01*
G01*
X121036600Y-80044300D01*
G75*
G02*
X120799100Y-80281800I-237500J0D01*
G01*
X120224100Y-80281800D01*
G75*
G02*
X119986600Y-80044300I0J237500D01*
G01*
G37*
%TD*%
%TO.C,C7*%
G36*
G01*
X120222000Y-87827600D02*
X120697000Y-87827600D01*
G75*
G02*
X120934500Y-88065100I0J-237500D01*
G01*
X120934500Y-88640100D01*
G75*
G02*
X120697000Y-88877600I-237500J0D01*
G01*
X120222000Y-88877600D01*
G75*
G02*
X119984500Y-88640100I0J237500D01*
G01*
X119984500Y-88065100D01*
G75*
G02*
X120222000Y-87827600I237500J0D01*
G01*
G37*
G36*
G01*
X120222000Y-86077600D02*
X120697000Y-86077600D01*
G75*
G02*
X120934500Y-86315100I0J-237500D01*
G01*
X120934500Y-86890100D01*
G75*
G02*
X120697000Y-87127600I-237500J0D01*
G01*
X120222000Y-87127600D01*
G75*
G02*
X119984500Y-86890100I0J237500D01*
G01*
X119984500Y-86315100D01*
G75*
G02*
X120222000Y-86077600I237500J0D01*
G01*
G37*
%TD*%
%TO.C,C8*%
G36*
G01*
X121771400Y-87827600D02*
X122246400Y-87827600D01*
G75*
G02*
X122483900Y-88065100I0J-237500D01*
G01*
X122483900Y-88640100D01*
G75*
G02*
X122246400Y-88877600I-237500J0D01*
G01*
X121771400Y-88877600D01*
G75*
G02*
X121533900Y-88640100I0J237500D01*
G01*
X121533900Y-88065100D01*
G75*
G02*
X121771400Y-87827600I237500J0D01*
G01*
G37*
G36*
G01*
X121771400Y-86077600D02*
X122246400Y-86077600D01*
G75*
G02*
X122483900Y-86315100I0J-237500D01*
G01*
X122483900Y-86890100D01*
G75*
G02*
X122246400Y-87127600I-237500J0D01*
G01*
X121771400Y-87127600D01*
G75*
G02*
X121533900Y-86890100I0J237500D01*
G01*
X121533900Y-86315100D01*
G75*
G02*
X121771400Y-86077600I237500J0D01*
G01*
G37*
%TD*%
%TO.C,C2*%
G36*
G01*
X123339700Y-88862200D02*
X124589700Y-88862200D01*
G75*
G02*
X124839700Y-89112200I0J-250000D01*
G01*
X124839700Y-90037200D01*
G75*
G02*
X124589700Y-90287200I-250000J0D01*
G01*
X123339700Y-90287200D01*
G75*
G02*
X123089700Y-90037200I0J250000D01*
G01*
X123089700Y-89112200D01*
G75*
G02*
X123339700Y-88862200I250000J0D01*
G01*
G37*
G36*
G01*
X123339700Y-85887200D02*
X124589700Y-85887200D01*
G75*
G02*
X124839700Y-86137200I0J-250000D01*
G01*
X124839700Y-87062200D01*
G75*
G02*
X124589700Y-87312200I-250000J0D01*
G01*
X123339700Y-87312200D01*
G75*
G02*
X123089700Y-87062200I0J250000D01*
G01*
X123089700Y-86137200D01*
G75*
G02*
X123339700Y-85887200I250000J0D01*
G01*
G37*
%TD*%
%TO.C,R4*%
G36*
G01*
X127232400Y-93136200D02*
X127707400Y-93136200D01*
G75*
G02*
X127944900Y-93373700I0J-237500D01*
G01*
X127944900Y-93948700D01*
G75*
G02*
X127707400Y-94186200I-237500J0D01*
G01*
X127232400Y-94186200D01*
G75*
G02*
X126994900Y-93948700I0J237500D01*
G01*
X126994900Y-93373700D01*
G75*
G02*
X127232400Y-93136200I237500J0D01*
G01*
G37*
G36*
G01*
X127232400Y-91386200D02*
X127707400Y-91386200D01*
G75*
G02*
X127944900Y-91623700I0J-237500D01*
G01*
X127944900Y-92198700D01*
G75*
G02*
X127707400Y-92436200I-237500J0D01*
G01*
X127232400Y-92436200D01*
G75*
G02*
X126994900Y-92198700I0J237500D01*
G01*
X126994900Y-91623700D01*
G75*
G02*
X127232400Y-91386200I237500J0D01*
G01*
G37*
%TD*%
D11*
%TO.C,D1*%
X134658100Y-91633500D03*
X134658100Y-88833500D03*
%TD*%
D12*
%TO.C,U1*%
X126442300Y-88950800D03*
X131342300Y-86410800D03*
X131342300Y-87680800D03*
X131342300Y-88950800D03*
X131342300Y-90220800D03*
X126442300Y-90220800D03*
X126442300Y-87680800D03*
X126442300Y-86410800D03*
%TD*%
%TO.C,R3*%
G36*
G01*
X130077200Y-93136200D02*
X130552200Y-93136200D01*
G75*
G02*
X130789700Y-93373700I0J-237500D01*
G01*
X130789700Y-93948700D01*
G75*
G02*
X130552200Y-94186200I-237500J0D01*
G01*
X130077200Y-94186200D01*
G75*
G02*
X129839700Y-93948700I0J237500D01*
G01*
X129839700Y-93373700D01*
G75*
G02*
X130077200Y-93136200I237500J0D01*
G01*
G37*
G36*
G01*
X130077200Y-91386200D02*
X130552200Y-91386200D01*
G75*
G02*
X130789700Y-91623700I0J-237500D01*
G01*
X130789700Y-92198700D01*
G75*
G02*
X130552200Y-92436200I-237500J0D01*
G01*
X130077200Y-92436200D01*
G75*
G02*
X129839700Y-92198700I0J237500D01*
G01*
X129839700Y-91623700D01*
G75*
G02*
X130077200Y-91386200I237500J0D01*
G01*
G37*
%TD*%
%TO.C,C5*%
G36*
G01*
X125683000Y-93136200D02*
X126158000Y-93136200D01*
G75*
G02*
X126395500Y-93373700I0J-237500D01*
G01*
X126395500Y-93948700D01*
G75*
G02*
X126158000Y-94186200I-237500J0D01*
G01*
X125683000Y-94186200D01*
G75*
G02*
X125445500Y-93948700I0J237500D01*
G01*
X125445500Y-93373700D01*
G75*
G02*
X125683000Y-93136200I237500J0D01*
G01*
G37*
G36*
G01*
X125683000Y-91386200D02*
X126158000Y-91386200D01*
G75*
G02*
X126395500Y-91623700I0J-237500D01*
G01*
X126395500Y-92198700D01*
G75*
G02*
X126158000Y-92436200I-237500J0D01*
G01*
X125683000Y-92436200D01*
G75*
G02*
X125445500Y-92198700I0J237500D01*
G01*
X125445500Y-91623700D01*
G75*
G02*
X125683000Y-91386200I237500J0D01*
G01*
G37*
%TD*%
%TO.C,C3*%
G36*
G01*
X132101600Y-92436200D02*
X131626600Y-92436200D01*
G75*
G02*
X131389100Y-92198700I0J237500D01*
G01*
X131389100Y-91623700D01*
G75*
G02*
X131626600Y-91386200I237500J0D01*
G01*
X132101600Y-91386200D01*
G75*
G02*
X132339100Y-91623700I0J-237500D01*
G01*
X132339100Y-92198700D01*
G75*
G02*
X132101600Y-92436200I-237500J0D01*
G01*
G37*
G36*
G01*
X132101600Y-94186200D02*
X131626600Y-94186200D01*
G75*
G02*
X131389100Y-93948700I0J237500D01*
G01*
X131389100Y-93373700D01*
G75*
G02*
X131626600Y-93136200I237500J0D01*
G01*
X132101600Y-93136200D01*
G75*
G02*
X132339100Y-93373700I0J-237500D01*
G01*
X132339100Y-93948700D01*
G75*
G02*
X132101600Y-94186200I-237500J0D01*
G01*
G37*
%TD*%
%TO.C,C1*%
G36*
G01*
X131172700Y-84946500D02*
X131172700Y-84471500D01*
G75*
G02*
X131410200Y-84234000I237500J0D01*
G01*
X131985200Y-84234000D01*
G75*
G02*
X132222700Y-84471500I0J-237500D01*
G01*
X132222700Y-84946500D01*
G75*
G02*
X131985200Y-85184000I-237500J0D01*
G01*
X131410200Y-85184000D01*
G75*
G02*
X131172700Y-84946500I0J237500D01*
G01*
G37*
G36*
G01*
X129422700Y-84946500D02*
X129422700Y-84471500D01*
G75*
G02*
X129660200Y-84234000I237500J0D01*
G01*
X130235200Y-84234000D01*
G75*
G02*
X130472700Y-84471500I0J-237500D01*
G01*
X130472700Y-84946500D01*
G75*
G02*
X130235200Y-85184000I-237500J0D01*
G01*
X129660200Y-85184000D01*
G75*
G02*
X129422700Y-84946500I0J237500D01*
G01*
G37*
%TD*%
%TO.C,R1*%
G36*
G01*
X121736600Y-78520300D02*
X121736600Y-78045300D01*
G75*
G02*
X121974100Y-77807800I237500J0D01*
G01*
X122549100Y-77807800D01*
G75*
G02*
X122786600Y-78045300I0J-237500D01*
G01*
X122786600Y-78520300D01*
G75*
G02*
X122549100Y-78757800I-237500J0D01*
G01*
X121974100Y-78757800D01*
G75*
G02*
X121736600Y-78520300I0J237500D01*
G01*
G37*
G36*
G01*
X119986600Y-78520300D02*
X119986600Y-78045300D01*
G75*
G02*
X120224100Y-77807800I237500J0D01*
G01*
X120799100Y-77807800D01*
G75*
G02*
X121036600Y-78045300I0J-237500D01*
G01*
X121036600Y-78520300D01*
G75*
G02*
X120799100Y-78757800I-237500J0D01*
G01*
X120224100Y-78757800D01*
G75*
G02*
X119986600Y-78520300I0J237500D01*
G01*
G37*
%TD*%
M02*
