M48
; DRILL file {KiCad 5.1.6-c6e7f7d~87~ubuntu18.04.1} date Sat Sep  5 23:52:29 2020
; FORMAT={-:-/ absolute / inch / decimal}
; #@! TF.CreationDate,2020-09-05T23:52:29-07:00
; #@! TF.GenerationSoftware,Kicad,Pcbnew,5.1.6-c6e7f7d~87~ubuntu18.04.1
FMAT,2
INCH
T1C0.0130
T2C0.0394
T3C0.0512
T4C0.0984
T5C0.1063
%
G90
G05
T1
X4.728Y-3.528
X4.757Y-3.528
X4.789Y-3.527
X4.7985Y-2.91
X4.841Y-2.549
X4.863Y-3.581
X4.865Y-3.224
X4.891Y-2.549
X4.896Y-3.581
X4.941Y-2.549
X4.991Y-2.549
X5.05Y-2.549
X5.064Y-3.6875
X5.0985Y-3.429
X5.0985Y-3.463
X5.0985Y-3.496
X5.101Y-2.549
X5.13Y-3.055
X5.13Y-3.09
X5.135Y-3.19
X5.135Y-3.225
X5.151Y-2.549
X5.201Y-2.549
X5.2375Y-3.618
X5.251Y-2.549
X5.2865Y-3.6765
X5.314Y-3.975
X5.3215Y-3.6765
X5.34Y-4.14
T2
X4.64Y-2.785
X4.64Y-2.885
X4.64Y-2.985
X4.64Y-3.085
X4.64Y-3.185
X4.64Y-3.285
X4.64Y-3.385
X4.64Y-3.485
X4.64Y-3.585
X4.64Y-3.685
X4.64Y-3.785
X4.64Y-3.885
X4.64Y-3.985
X4.64Y-4.085
X4.64Y-4.185
X4.64Y-4.285
X5.44Y-2.785
X5.44Y-2.885
X5.44Y-2.985
X5.44Y-3.085
X5.44Y-3.185
X5.44Y-3.285
X5.44Y-3.385
X5.44Y-3.485
X5.44Y-3.585
X5.44Y-3.685
X5.44Y-3.785
X5.44Y-3.885
T3
X4.9396Y-2.7605
X5.1365Y-2.7605
T4
X4.689Y-2.616
X5.39Y-2.615
T5
X4.689Y-4.4
X5.39Y-4.4
T0
M30
