%TF.GenerationSoftware,KiCad,Pcbnew,5.1.6-c6e7f7d~87~ubuntu18.04.1*%
%TF.CreationDate,2020-09-21T10:39:31-07:00*%
%TF.ProjectId,feather-power-supply-sw-smd,66656174-6865-4722-9d70-6f7765722d73,rev?*%
%TF.SameCoordinates,Original*%
%TF.FileFunction,Copper,L2,Bot*%
%TF.FilePolarity,Positive*%
%FSLAX46Y46*%
G04 Gerber Fmt 4.6, Leading zero omitted, Abs format (unit mm)*
G04 Created by KiCad (PCBNEW 5.1.6-c6e7f7d~87~ubuntu18.04.1) date 2020-09-21 10:39:31*
%MOMM*%
%LPD*%
G01*
G04 APERTURE LIST*
%TA.AperFunction,ComponentPad*%
%ADD10O,1.700000X1.700000*%
%TD*%
%TA.AperFunction,ComponentPad*%
%ADD11R,1.700000X1.700000*%
%TD*%
%TA.AperFunction,ComponentPad*%
%ADD12R,2.600000X2.600000*%
%TD*%
%TA.AperFunction,ComponentPad*%
%ADD13C,2.600000*%
%TD*%
%TA.AperFunction,ComponentPad*%
%ADD14C,5.000000*%
%TD*%
%TA.AperFunction,ViaPad*%
%ADD15C,0.685800*%
%TD*%
%TA.AperFunction,Conductor*%
%ADD16C,0.609600*%
%TD*%
%TA.AperFunction,Conductor*%
%ADD17C,0.304800*%
%TD*%
%TA.AperFunction,Conductor*%
%ADD18C,0.254000*%
%TD*%
G04 APERTURE END LIST*
D10*
%TO.P,J5,4*%
%TO.N,/SDA*%
X134874000Y-104063800D03*
%TO.P,J5,3*%
%TO.N,/SCL*%
X137414000Y-104063800D03*
%TO.P,J5,2*%
%TO.N,VUSB*%
X139954000Y-104063800D03*
D11*
%TO.P,J5,1*%
%TO.N,GND*%
X142494000Y-104063800D03*
%TD*%
D12*
%TO.P,J1,1*%
%TO.N,VCC*%
X142176500Y-64643000D03*
D13*
%TO.P,J1,2*%
%TO.N,GND*%
X137176500Y-64643000D03*
%TD*%
D14*
%TO.P,H2,1*%
%TO.N,GND*%
X148615400Y-61671200D03*
%TD*%
%TO.P,H1,1*%
%TO.N,GND*%
X130810000Y-61696600D03*
%TD*%
D10*
%TO.P,J3,16*%
%TO.N,Net-(J3-Pad16)*%
X129565400Y-104089200D03*
%TO.P,J3,15*%
%TO.N,Net-(J3-Pad15)*%
X129565400Y-101549200D03*
%TO.P,J3,14*%
%TO.N,Net-(J3-Pad14)*%
X129565400Y-99009200D03*
%TO.P,J3,13*%
%TO.N,Net-(J3-Pad13)*%
X129565400Y-96469200D03*
%TO.P,J3,12*%
%TO.N,Net-(J3-Pad12)*%
X129565400Y-93929200D03*
%TO.P,J3,11*%
%TO.N,Net-(J3-Pad11)*%
X129565400Y-91389200D03*
%TO.P,J3,10*%
%TO.N,Net-(J3-Pad10)*%
X129565400Y-88849200D03*
%TO.P,J3,9*%
%TO.N,Net-(J3-Pad9)*%
X129565400Y-86309200D03*
%TO.P,J3,8*%
%TO.N,Net-(J3-Pad8)*%
X129565400Y-83769200D03*
%TO.P,J3,7*%
%TO.N,Net-(J3-Pad7)*%
X129565400Y-81229200D03*
%TO.P,J3,6*%
%TO.N,/A1*%
X129565400Y-78689200D03*
%TO.P,J3,5*%
%TO.N,Net-(J3-Pad5)*%
X129565400Y-76149200D03*
%TO.P,J3,4*%
%TO.N,GND*%
X129565400Y-73609200D03*
%TO.P,J3,3*%
%TO.N,Net-(J3-Pad3)*%
X129565400Y-71069200D03*
%TO.P,J3,2*%
%TO.N,Net-(J3-Pad2)*%
X129565400Y-68529200D03*
D11*
%TO.P,J3,1*%
%TO.N,Net-(J3-Pad1)*%
X129565400Y-65989200D03*
%TD*%
%TO.P,J2,1*%
%TO.N,Net-(J2-Pad1)*%
X149885400Y-65989200D03*
D10*
%TO.P,J2,2*%
%TO.N,+3V3*%
X149885400Y-68529200D03*
%TO.P,J2,3*%
%TO.N,Net-(J2-Pad3)*%
X149885400Y-71069200D03*
%TO.P,J2,4*%
%TO.N,VUSB*%
X149885400Y-73609200D03*
%TO.P,J2,5*%
%TO.N,Net-(J2-Pad5)*%
X149885400Y-76149200D03*
%TO.P,J2,6*%
%TO.N,Net-(J2-Pad6)*%
X149885400Y-78689200D03*
%TO.P,J2,7*%
%TO.N,Net-(J2-Pad7)*%
X149885400Y-81229200D03*
%TO.P,J2,8*%
%TO.N,Net-(J2-Pad8)*%
X149885400Y-83769200D03*
%TO.P,J2,9*%
%TO.N,Net-(J2-Pad9)*%
X149885400Y-86309200D03*
%TO.P,J2,10*%
%TO.N,Net-(J2-Pad10)*%
X149885400Y-88849200D03*
%TO.P,J2,11*%
%TO.N,/SCL*%
X149885400Y-91389200D03*
%TO.P,J2,12*%
%TO.N,/SDA*%
X149885400Y-93929200D03*
%TD*%
D15*
%TO.N,VUSB*%
X147828012Y-100330000D03*
X148336000Y-90424000D03*
%TO.N,GND*%
X132715000Y-69596000D03*
X134620000Y-59994800D03*
X135921750Y-59994800D03*
X138525250Y-59994800D03*
X137223500Y-59994800D03*
X142430500Y-59994800D03*
X143732250Y-59994800D03*
X141128750Y-59994800D03*
X145034000Y-59994800D03*
X139827000Y-59994800D03*
X139088090Y-109016800D03*
X144084962Y-109016800D03*
X135340436Y-109016800D03*
X142835744Y-109016800D03*
X134091218Y-109016800D03*
X137838872Y-109016800D03*
X136589654Y-109016800D03*
X141586526Y-109016800D03*
X140337308Y-109016800D03*
X145334180Y-109016800D03*
X132842000Y-109016800D03*
X146583400Y-109004100D03*
X145034000Y-90424000D03*
X144272000Y-101854000D03*
X136906000Y-87630000D03*
X133858000Y-80772000D03*
X136652000Y-81280000D03*
X138938000Y-78232000D03*
X143510000Y-77724000D03*
X143510000Y-76200000D03*
X145542000Y-79502000D03*
X135636000Y-75946000D03*
X135636000Y-76708000D03*
X135636000Y-77470000D03*
X142240000Y-77724000D03*
X142240000Y-76200000D03*
X139954000Y-80264000D03*
X146812000Y-79502000D03*
X136652000Y-69342000D03*
X136652000Y-67818000D03*
X135382000Y-67818000D03*
X135382000Y-69342000D03*
X139192000Y-69342000D03*
X137922000Y-69342000D03*
X137922000Y-67818000D03*
X139192000Y-67818000D03*
X141732000Y-67818000D03*
X140462000Y-69342000D03*
X140462000Y-67818000D03*
X141732000Y-69342000D03*
X147066000Y-70866000D03*
X147066000Y-72136000D03*
X136398000Y-91694000D03*
X138938000Y-91694000D03*
X133858000Y-91694000D03*
X136398000Y-93218000D03*
X138938000Y-93218000D03*
X133858000Y-93218000D03*
X136398000Y-94742000D03*
X138938000Y-94742000D03*
X133858000Y-94742000D03*
X136398000Y-96266000D03*
X133858000Y-96266000D03*
X138938000Y-96266000D03*
X136398000Y-99314000D03*
X138938000Y-97790000D03*
X136398000Y-97790000D03*
X133858000Y-99314000D03*
X133858000Y-97790000D03*
X138938000Y-99314000D03*
X141478000Y-91694000D03*
X141478000Y-99314000D03*
X141478000Y-94742000D03*
X141478000Y-97790000D03*
X141478000Y-96266000D03*
X141478000Y-93218000D03*
X142240000Y-79502000D03*
X143510000Y-79502000D03*
%TO.N,Net-(C1-Pad1)*%
X138176000Y-80772000D03*
X138150600Y-89128600D03*
%TD*%
D16*
%TO.N,VUSB*%
X148336000Y-99822012D02*
X147828012Y-100330000D01*
X148336000Y-90424000D02*
X148336000Y-99822012D01*
D17*
%TO.N,Net-(C1-Pad1)*%
X138176000Y-80772000D02*
X138150600Y-89128600D01*
%TD*%
D18*
%TO.N,GND*%
G36*
X145994282Y-59923827D02*
G01*
X145703751Y-60468757D01*
X145525113Y-61059896D01*
X145465232Y-61674528D01*
X145526410Y-62289031D01*
X145706297Y-62879792D01*
X145994282Y-63418573D01*
X146412252Y-63694743D01*
X148435795Y-61671200D01*
X148421653Y-61657058D01*
X148601258Y-61477453D01*
X148615400Y-61491595D01*
X148629543Y-61477453D01*
X148809148Y-61657058D01*
X148795005Y-61671200D01*
X148809148Y-61685343D01*
X148629543Y-61864948D01*
X148615400Y-61850805D01*
X146591857Y-63874348D01*
X146868027Y-64292318D01*
X147412957Y-64582849D01*
X148004096Y-64761487D01*
X148491873Y-64809009D01*
X148445898Y-64895020D01*
X148409588Y-65014718D01*
X148397328Y-65139200D01*
X148397328Y-66839200D01*
X148409588Y-66963682D01*
X148445898Y-67083380D01*
X148504863Y-67193694D01*
X148584215Y-67290385D01*
X148680906Y-67369737D01*
X148791220Y-67428702D01*
X148863780Y-67450713D01*
X148731925Y-67582568D01*
X148569410Y-67825789D01*
X148457468Y-68096042D01*
X148400400Y-68382940D01*
X148400400Y-68675460D01*
X148457468Y-68962358D01*
X148569410Y-69232611D01*
X148731925Y-69475832D01*
X148938768Y-69682675D01*
X149113160Y-69799200D01*
X148938768Y-69915725D01*
X148731925Y-70122568D01*
X148569410Y-70365789D01*
X148457468Y-70636042D01*
X148400400Y-70922940D01*
X148400400Y-71215460D01*
X148457468Y-71502358D01*
X148569410Y-71772611D01*
X148731925Y-72015832D01*
X148938768Y-72222675D01*
X149113160Y-72339200D01*
X148938768Y-72455725D01*
X148731925Y-72662568D01*
X148569410Y-72905789D01*
X148457468Y-73176042D01*
X148400400Y-73462940D01*
X148400400Y-73755460D01*
X148457468Y-74042358D01*
X148569410Y-74312611D01*
X148731925Y-74555832D01*
X148938768Y-74762675D01*
X149113160Y-74879200D01*
X148938768Y-74995725D01*
X148731925Y-75202568D01*
X148569410Y-75445789D01*
X148457468Y-75716042D01*
X148400400Y-76002940D01*
X148400400Y-76295460D01*
X148457468Y-76582358D01*
X148569410Y-76852611D01*
X148731925Y-77095832D01*
X148938768Y-77302675D01*
X149113160Y-77419200D01*
X148938768Y-77535725D01*
X148731925Y-77742568D01*
X148569410Y-77985789D01*
X148457468Y-78256042D01*
X148400400Y-78542940D01*
X148400400Y-78835460D01*
X148457468Y-79122358D01*
X148569410Y-79392611D01*
X148731925Y-79635832D01*
X148938768Y-79842675D01*
X149113160Y-79959200D01*
X148938768Y-80075725D01*
X148731925Y-80282568D01*
X148569410Y-80525789D01*
X148457468Y-80796042D01*
X148400400Y-81082940D01*
X148400400Y-81375460D01*
X148457468Y-81662358D01*
X148569410Y-81932611D01*
X148731925Y-82175832D01*
X148938768Y-82382675D01*
X149113160Y-82499200D01*
X148938768Y-82615725D01*
X148731925Y-82822568D01*
X148569410Y-83065789D01*
X148457468Y-83336042D01*
X148400400Y-83622940D01*
X148400400Y-83915460D01*
X148457468Y-84202358D01*
X148569410Y-84472611D01*
X148731925Y-84715832D01*
X148938768Y-84922675D01*
X149113160Y-85039200D01*
X148938768Y-85155725D01*
X148731925Y-85362568D01*
X148569410Y-85605789D01*
X148457468Y-85876042D01*
X148400400Y-86162940D01*
X148400400Y-86455460D01*
X148457468Y-86742358D01*
X148569410Y-87012611D01*
X148731925Y-87255832D01*
X148938768Y-87462675D01*
X149113160Y-87579200D01*
X148938768Y-87695725D01*
X148731925Y-87902568D01*
X148569410Y-88145789D01*
X148457468Y-88416042D01*
X148400400Y-88702940D01*
X148400400Y-88995460D01*
X148457468Y-89282358D01*
X148533640Y-89466255D01*
X148432315Y-89446100D01*
X148239685Y-89446100D01*
X148050757Y-89483680D01*
X147872790Y-89557396D01*
X147712625Y-89664415D01*
X147576415Y-89800625D01*
X147469396Y-89960790D01*
X147395680Y-90138757D01*
X147358100Y-90327685D01*
X147358100Y-90520315D01*
X147395680Y-90709243D01*
X147396200Y-90710498D01*
X147396201Y-99432735D01*
X147366061Y-99462874D01*
X147364802Y-99463396D01*
X147204637Y-99570415D01*
X147068427Y-99706625D01*
X146961408Y-99866790D01*
X146887692Y-100044757D01*
X146850112Y-100233685D01*
X146850112Y-100426315D01*
X146887692Y-100615243D01*
X146961408Y-100793210D01*
X147068427Y-100953375D01*
X147204637Y-101089585D01*
X147364802Y-101196604D01*
X147542769Y-101270320D01*
X147731697Y-101307900D01*
X147924327Y-101307900D01*
X148113255Y-101270320D01*
X148291222Y-101196604D01*
X148451387Y-101089585D01*
X148587597Y-100953375D01*
X148694616Y-100793210D01*
X148695138Y-100791951D01*
X148967890Y-100519199D01*
X149003754Y-100489766D01*
X149121196Y-100346663D01*
X149208463Y-100183398D01*
X149262202Y-100006245D01*
X149275800Y-99868179D01*
X149280347Y-99822012D01*
X149275800Y-99775845D01*
X149275800Y-95284048D01*
X149452242Y-95357132D01*
X149739140Y-95414200D01*
X150031660Y-95414200D01*
X150318558Y-95357132D01*
X150495401Y-95283882D01*
X150495401Y-106361868D01*
X150374485Y-106069950D01*
X150157251Y-105744836D01*
X149880764Y-105468349D01*
X149555650Y-105251115D01*
X149194403Y-105101482D01*
X148810905Y-105025200D01*
X148419895Y-105025200D01*
X148036397Y-105101482D01*
X147675150Y-105251115D01*
X147350036Y-105468349D01*
X147073549Y-105744836D01*
X146856315Y-106069950D01*
X146706682Y-106431197D01*
X146630400Y-106814695D01*
X146630400Y-107205705D01*
X146706682Y-107589203D01*
X146856315Y-107950450D01*
X147073549Y-108275564D01*
X147350036Y-108552051D01*
X147675150Y-108769285D01*
X148036397Y-108918918D01*
X148419895Y-108995200D01*
X148810905Y-108995200D01*
X149194403Y-108918918D01*
X149546382Y-108773124D01*
X149440981Y-108860319D01*
X149031562Y-109081691D01*
X148586935Y-109219326D01*
X148093390Y-109271200D01*
X131121678Y-109271200D01*
X130675518Y-109227454D01*
X130277401Y-109107255D01*
X129910215Y-108912019D01*
X129587939Y-108649177D01*
X129330163Y-108337578D01*
X129544636Y-108552051D01*
X129869750Y-108769285D01*
X130230997Y-108918918D01*
X130614495Y-108995200D01*
X131005505Y-108995200D01*
X131389003Y-108918918D01*
X131750250Y-108769285D01*
X132075364Y-108552051D01*
X132351851Y-108275564D01*
X132569085Y-107950450D01*
X132718718Y-107589203D01*
X132795000Y-107205705D01*
X132795000Y-106814695D01*
X132718718Y-106431197D01*
X132569085Y-106069950D01*
X132351851Y-105744836D01*
X132075364Y-105468349D01*
X131750250Y-105251115D01*
X131389003Y-105101482D01*
X131005505Y-105025200D01*
X130725979Y-105025200D01*
X130881390Y-104792611D01*
X130993332Y-104522358D01*
X131050400Y-104235460D01*
X131050400Y-103942940D01*
X131045348Y-103917540D01*
X133389000Y-103917540D01*
X133389000Y-104210060D01*
X133446068Y-104496958D01*
X133558010Y-104767211D01*
X133720525Y-105010432D01*
X133927368Y-105217275D01*
X134170589Y-105379790D01*
X134440842Y-105491732D01*
X134727740Y-105548800D01*
X135020260Y-105548800D01*
X135307158Y-105491732D01*
X135577411Y-105379790D01*
X135820632Y-105217275D01*
X136027475Y-105010432D01*
X136144000Y-104836040D01*
X136260525Y-105010432D01*
X136467368Y-105217275D01*
X136710589Y-105379790D01*
X136980842Y-105491732D01*
X137267740Y-105548800D01*
X137560260Y-105548800D01*
X137847158Y-105491732D01*
X138117411Y-105379790D01*
X138360632Y-105217275D01*
X138567475Y-105010432D01*
X138684000Y-104836040D01*
X138800525Y-105010432D01*
X139007368Y-105217275D01*
X139250589Y-105379790D01*
X139520842Y-105491732D01*
X139807740Y-105548800D01*
X140100260Y-105548800D01*
X140387158Y-105491732D01*
X140657411Y-105379790D01*
X140900632Y-105217275D01*
X141032487Y-105085420D01*
X141054498Y-105157980D01*
X141113463Y-105268294D01*
X141192815Y-105364985D01*
X141289506Y-105444337D01*
X141399820Y-105503302D01*
X141519518Y-105539612D01*
X141644000Y-105551872D01*
X142208250Y-105548800D01*
X142367000Y-105390050D01*
X142367000Y-104190800D01*
X142621000Y-104190800D01*
X142621000Y-105390050D01*
X142779750Y-105548800D01*
X143344000Y-105551872D01*
X143468482Y-105539612D01*
X143588180Y-105503302D01*
X143698494Y-105444337D01*
X143795185Y-105364985D01*
X143874537Y-105268294D01*
X143933502Y-105157980D01*
X143969812Y-105038282D01*
X143982072Y-104913800D01*
X143979000Y-104349550D01*
X143820250Y-104190800D01*
X142621000Y-104190800D01*
X142367000Y-104190800D01*
X142347000Y-104190800D01*
X142347000Y-103936800D01*
X142367000Y-103936800D01*
X142367000Y-102737550D01*
X142621000Y-102737550D01*
X142621000Y-103936800D01*
X143820250Y-103936800D01*
X143979000Y-103778050D01*
X143982072Y-103213800D01*
X143969812Y-103089318D01*
X143933502Y-102969620D01*
X143874537Y-102859306D01*
X143795185Y-102762615D01*
X143698494Y-102683263D01*
X143588180Y-102624298D01*
X143468482Y-102587988D01*
X143344000Y-102575728D01*
X142779750Y-102578800D01*
X142621000Y-102737550D01*
X142367000Y-102737550D01*
X142208250Y-102578800D01*
X141644000Y-102575728D01*
X141519518Y-102587988D01*
X141399820Y-102624298D01*
X141289506Y-102683263D01*
X141192815Y-102762615D01*
X141113463Y-102859306D01*
X141054498Y-102969620D01*
X141032487Y-103042180D01*
X140900632Y-102910325D01*
X140657411Y-102747810D01*
X140387158Y-102635868D01*
X140100260Y-102578800D01*
X139807740Y-102578800D01*
X139520842Y-102635868D01*
X139250589Y-102747810D01*
X139007368Y-102910325D01*
X138800525Y-103117168D01*
X138684000Y-103291560D01*
X138567475Y-103117168D01*
X138360632Y-102910325D01*
X138117411Y-102747810D01*
X137847158Y-102635868D01*
X137560260Y-102578800D01*
X137267740Y-102578800D01*
X136980842Y-102635868D01*
X136710589Y-102747810D01*
X136467368Y-102910325D01*
X136260525Y-103117168D01*
X136144000Y-103291560D01*
X136027475Y-103117168D01*
X135820632Y-102910325D01*
X135577411Y-102747810D01*
X135307158Y-102635868D01*
X135020260Y-102578800D01*
X134727740Y-102578800D01*
X134440842Y-102635868D01*
X134170589Y-102747810D01*
X133927368Y-102910325D01*
X133720525Y-103117168D01*
X133558010Y-103360389D01*
X133446068Y-103630642D01*
X133389000Y-103917540D01*
X131045348Y-103917540D01*
X130993332Y-103656042D01*
X130881390Y-103385789D01*
X130718875Y-103142568D01*
X130512032Y-102935725D01*
X130337640Y-102819200D01*
X130512032Y-102702675D01*
X130718875Y-102495832D01*
X130881390Y-102252611D01*
X130993332Y-101982358D01*
X131050400Y-101695460D01*
X131050400Y-101402940D01*
X130993332Y-101116042D01*
X130881390Y-100845789D01*
X130718875Y-100602568D01*
X130512032Y-100395725D01*
X130337640Y-100279200D01*
X130512032Y-100162675D01*
X130718875Y-99955832D01*
X130881390Y-99712611D01*
X130993332Y-99442358D01*
X131050400Y-99155460D01*
X131050400Y-98862940D01*
X130993332Y-98576042D01*
X130881390Y-98305789D01*
X130718875Y-98062568D01*
X130512032Y-97855725D01*
X130337640Y-97739200D01*
X130512032Y-97622675D01*
X130718875Y-97415832D01*
X130881390Y-97172611D01*
X130993332Y-96902358D01*
X131050400Y-96615460D01*
X131050400Y-96322940D01*
X130993332Y-96036042D01*
X130881390Y-95765789D01*
X130718875Y-95522568D01*
X130512032Y-95315725D01*
X130337640Y-95199200D01*
X130512032Y-95082675D01*
X130718875Y-94875832D01*
X130881390Y-94632611D01*
X130993332Y-94362358D01*
X131050400Y-94075460D01*
X131050400Y-93782940D01*
X130993332Y-93496042D01*
X130881390Y-93225789D01*
X130718875Y-92982568D01*
X130512032Y-92775725D01*
X130337640Y-92659200D01*
X130512032Y-92542675D01*
X130718875Y-92335832D01*
X130881390Y-92092611D01*
X130993332Y-91822358D01*
X131050400Y-91535460D01*
X131050400Y-91242940D01*
X130993332Y-90956042D01*
X130881390Y-90685789D01*
X130718875Y-90442568D01*
X130512032Y-90235725D01*
X130337640Y-90119200D01*
X130512032Y-90002675D01*
X130718875Y-89795832D01*
X130881390Y-89552611D01*
X130993332Y-89282358D01*
X131043074Y-89032285D01*
X137172700Y-89032285D01*
X137172700Y-89224915D01*
X137210280Y-89413843D01*
X137283996Y-89591810D01*
X137391015Y-89751975D01*
X137527225Y-89888185D01*
X137687390Y-89995204D01*
X137865357Y-90068920D01*
X138054285Y-90106500D01*
X138246915Y-90106500D01*
X138435843Y-90068920D01*
X138613810Y-89995204D01*
X138773975Y-89888185D01*
X138910185Y-89751975D01*
X139017204Y-89591810D01*
X139090920Y-89413843D01*
X139128500Y-89224915D01*
X139128500Y-89032285D01*
X139090920Y-88843357D01*
X139017204Y-88665390D01*
X138939763Y-88549492D01*
X138961626Y-81356401D01*
X139042604Y-81235210D01*
X139116320Y-81057243D01*
X139153900Y-80868315D01*
X139153900Y-80675685D01*
X139116320Y-80486757D01*
X139042604Y-80308790D01*
X138935585Y-80148625D01*
X138799375Y-80012415D01*
X138639210Y-79905396D01*
X138461243Y-79831680D01*
X138272315Y-79794100D01*
X138079685Y-79794100D01*
X137890757Y-79831680D01*
X137712790Y-79905396D01*
X137552625Y-80012415D01*
X137416415Y-80148625D01*
X137309396Y-80308790D01*
X137235680Y-80486757D01*
X137198100Y-80675685D01*
X137198100Y-80868315D01*
X137235680Y-81057243D01*
X137309396Y-81235210D01*
X137386837Y-81351108D01*
X137364974Y-88544199D01*
X137283996Y-88665390D01*
X137210280Y-88843357D01*
X137172700Y-89032285D01*
X131043074Y-89032285D01*
X131050400Y-88995460D01*
X131050400Y-88702940D01*
X130993332Y-88416042D01*
X130881390Y-88145789D01*
X130718875Y-87902568D01*
X130512032Y-87695725D01*
X130337640Y-87579200D01*
X130512032Y-87462675D01*
X130718875Y-87255832D01*
X130881390Y-87012611D01*
X130993332Y-86742358D01*
X131050400Y-86455460D01*
X131050400Y-86162940D01*
X130993332Y-85876042D01*
X130881390Y-85605789D01*
X130718875Y-85362568D01*
X130512032Y-85155725D01*
X130337640Y-85039200D01*
X130512032Y-84922675D01*
X130718875Y-84715832D01*
X130881390Y-84472611D01*
X130993332Y-84202358D01*
X131050400Y-83915460D01*
X131050400Y-83622940D01*
X130993332Y-83336042D01*
X130881390Y-83065789D01*
X130718875Y-82822568D01*
X130512032Y-82615725D01*
X130337640Y-82499200D01*
X130512032Y-82382675D01*
X130718875Y-82175832D01*
X130881390Y-81932611D01*
X130993332Y-81662358D01*
X131050400Y-81375460D01*
X131050400Y-81082940D01*
X130993332Y-80796042D01*
X130881390Y-80525789D01*
X130718875Y-80282568D01*
X130512032Y-80075725D01*
X130337640Y-79959200D01*
X130512032Y-79842675D01*
X130718875Y-79635832D01*
X130881390Y-79392611D01*
X130993332Y-79122358D01*
X131050400Y-78835460D01*
X131050400Y-78542940D01*
X130993332Y-78256042D01*
X130881390Y-77985789D01*
X130718875Y-77742568D01*
X130512032Y-77535725D01*
X130337640Y-77419200D01*
X130512032Y-77302675D01*
X130718875Y-77095832D01*
X130881390Y-76852611D01*
X130993332Y-76582358D01*
X131050400Y-76295460D01*
X131050400Y-76002940D01*
X130993332Y-75716042D01*
X130881390Y-75445789D01*
X130718875Y-75202568D01*
X130512032Y-74995725D01*
X130329866Y-74874005D01*
X130446755Y-74804378D01*
X130662988Y-74609469D01*
X130837041Y-74376120D01*
X130962225Y-74113299D01*
X131006876Y-73966090D01*
X130885555Y-73736200D01*
X129692400Y-73736200D01*
X129692400Y-73756200D01*
X129438400Y-73756200D01*
X129438400Y-73736200D01*
X129418400Y-73736200D01*
X129418400Y-73482200D01*
X129438400Y-73482200D01*
X129438400Y-73462200D01*
X129692400Y-73462200D01*
X129692400Y-73482200D01*
X130885555Y-73482200D01*
X131006876Y-73252310D01*
X130962225Y-73105101D01*
X130837041Y-72842280D01*
X130662988Y-72608931D01*
X130446755Y-72414022D01*
X130329866Y-72344395D01*
X130512032Y-72222675D01*
X130718875Y-72015832D01*
X130881390Y-71772611D01*
X130993332Y-71502358D01*
X131050400Y-71215460D01*
X131050400Y-70922940D01*
X130993332Y-70636042D01*
X130881390Y-70365789D01*
X130718875Y-70122568D01*
X130512032Y-69915725D01*
X130337640Y-69799200D01*
X130512032Y-69682675D01*
X130718875Y-69475832D01*
X130881390Y-69232611D01*
X130993332Y-68962358D01*
X131050400Y-68675460D01*
X131050400Y-68382940D01*
X130993332Y-68096042D01*
X130881390Y-67825789D01*
X130718875Y-67582568D01*
X130587020Y-67450713D01*
X130659580Y-67428702D01*
X130769894Y-67369737D01*
X130866585Y-67290385D01*
X130945937Y-67193694D01*
X131004902Y-67083380D01*
X131041212Y-66963682D01*
X131053472Y-66839200D01*
X131053472Y-65992224D01*
X136006881Y-65992224D01*
X136138817Y-66287312D01*
X136479545Y-66458159D01*
X136847057Y-66559250D01*
X137227229Y-66586701D01*
X137605451Y-66539457D01*
X137967190Y-66419333D01*
X138214183Y-66287312D01*
X138346119Y-65992224D01*
X137176500Y-64822605D01*
X136006881Y-65992224D01*
X131053472Y-65992224D01*
X131053472Y-65139200D01*
X131041212Y-65014718D01*
X131004902Y-64895020D01*
X130970734Y-64831097D01*
X131427831Y-64785590D01*
X131729508Y-64693729D01*
X135232799Y-64693729D01*
X135280043Y-65071951D01*
X135400167Y-65433690D01*
X135532188Y-65680683D01*
X135827276Y-65812619D01*
X136996895Y-64643000D01*
X137356105Y-64643000D01*
X138525724Y-65812619D01*
X138820812Y-65680683D01*
X138991659Y-65339955D01*
X139092750Y-64972443D01*
X139120201Y-64592271D01*
X139072957Y-64214049D01*
X138952833Y-63852310D01*
X138820812Y-63605317D01*
X138525724Y-63473381D01*
X137356105Y-64643000D01*
X136996895Y-64643000D01*
X135827276Y-63473381D01*
X135532188Y-63605317D01*
X135361341Y-63946045D01*
X135260250Y-64313557D01*
X135232799Y-64693729D01*
X131729508Y-64693729D01*
X132018592Y-64605703D01*
X132557373Y-64317718D01*
X132833543Y-63899748D01*
X130810000Y-61876205D01*
X130795858Y-61890348D01*
X130616253Y-61710743D01*
X130630395Y-61696600D01*
X130616253Y-61682458D01*
X130795858Y-61502853D01*
X130810000Y-61516995D01*
X130824143Y-61502853D01*
X131003748Y-61682458D01*
X130989605Y-61696600D01*
X133013148Y-63720143D01*
X133431118Y-63443973D01*
X133511195Y-63293776D01*
X136006881Y-63293776D01*
X137176500Y-64463395D01*
X138296895Y-63343000D01*
X140238428Y-63343000D01*
X140238428Y-65943000D01*
X140250688Y-66067482D01*
X140286998Y-66187180D01*
X140345963Y-66297494D01*
X140425315Y-66394185D01*
X140522006Y-66473537D01*
X140632320Y-66532502D01*
X140752018Y-66568812D01*
X140876500Y-66581072D01*
X143476500Y-66581072D01*
X143600982Y-66568812D01*
X143720680Y-66532502D01*
X143830994Y-66473537D01*
X143927685Y-66394185D01*
X144007037Y-66297494D01*
X144066002Y-66187180D01*
X144102312Y-66067482D01*
X144114572Y-65943000D01*
X144114572Y-63343000D01*
X144102312Y-63218518D01*
X144066002Y-63098820D01*
X144007037Y-62988506D01*
X143927685Y-62891815D01*
X143830994Y-62812463D01*
X143720680Y-62753498D01*
X143600982Y-62717188D01*
X143476500Y-62704928D01*
X140876500Y-62704928D01*
X140752018Y-62717188D01*
X140632320Y-62753498D01*
X140522006Y-62812463D01*
X140425315Y-62891815D01*
X140345963Y-62988506D01*
X140286998Y-63098820D01*
X140250688Y-63218518D01*
X140238428Y-63343000D01*
X138296895Y-63343000D01*
X138346119Y-63293776D01*
X138214183Y-62998688D01*
X137873455Y-62827841D01*
X137505943Y-62726750D01*
X137125771Y-62699299D01*
X136747549Y-62746543D01*
X136385810Y-62866667D01*
X136138817Y-62998688D01*
X136006881Y-63293776D01*
X133511195Y-63293776D01*
X133721649Y-62899043D01*
X133900287Y-62307904D01*
X133960168Y-61693272D01*
X133898990Y-61078769D01*
X133719103Y-60488008D01*
X133431118Y-59949227D01*
X133191952Y-59791200D01*
X146195007Y-59791200D01*
X145994282Y-59923827D01*
G37*
X145994282Y-59923827D02*
X145703751Y-60468757D01*
X145525113Y-61059896D01*
X145465232Y-61674528D01*
X145526410Y-62289031D01*
X145706297Y-62879792D01*
X145994282Y-63418573D01*
X146412252Y-63694743D01*
X148435795Y-61671200D01*
X148421653Y-61657058D01*
X148601258Y-61477453D01*
X148615400Y-61491595D01*
X148629543Y-61477453D01*
X148809148Y-61657058D01*
X148795005Y-61671200D01*
X148809148Y-61685343D01*
X148629543Y-61864948D01*
X148615400Y-61850805D01*
X146591857Y-63874348D01*
X146868027Y-64292318D01*
X147412957Y-64582849D01*
X148004096Y-64761487D01*
X148491873Y-64809009D01*
X148445898Y-64895020D01*
X148409588Y-65014718D01*
X148397328Y-65139200D01*
X148397328Y-66839200D01*
X148409588Y-66963682D01*
X148445898Y-67083380D01*
X148504863Y-67193694D01*
X148584215Y-67290385D01*
X148680906Y-67369737D01*
X148791220Y-67428702D01*
X148863780Y-67450713D01*
X148731925Y-67582568D01*
X148569410Y-67825789D01*
X148457468Y-68096042D01*
X148400400Y-68382940D01*
X148400400Y-68675460D01*
X148457468Y-68962358D01*
X148569410Y-69232611D01*
X148731925Y-69475832D01*
X148938768Y-69682675D01*
X149113160Y-69799200D01*
X148938768Y-69915725D01*
X148731925Y-70122568D01*
X148569410Y-70365789D01*
X148457468Y-70636042D01*
X148400400Y-70922940D01*
X148400400Y-71215460D01*
X148457468Y-71502358D01*
X148569410Y-71772611D01*
X148731925Y-72015832D01*
X148938768Y-72222675D01*
X149113160Y-72339200D01*
X148938768Y-72455725D01*
X148731925Y-72662568D01*
X148569410Y-72905789D01*
X148457468Y-73176042D01*
X148400400Y-73462940D01*
X148400400Y-73755460D01*
X148457468Y-74042358D01*
X148569410Y-74312611D01*
X148731925Y-74555832D01*
X148938768Y-74762675D01*
X149113160Y-74879200D01*
X148938768Y-74995725D01*
X148731925Y-75202568D01*
X148569410Y-75445789D01*
X148457468Y-75716042D01*
X148400400Y-76002940D01*
X148400400Y-76295460D01*
X148457468Y-76582358D01*
X148569410Y-76852611D01*
X148731925Y-77095832D01*
X148938768Y-77302675D01*
X149113160Y-77419200D01*
X148938768Y-77535725D01*
X148731925Y-77742568D01*
X148569410Y-77985789D01*
X148457468Y-78256042D01*
X148400400Y-78542940D01*
X148400400Y-78835460D01*
X148457468Y-79122358D01*
X148569410Y-79392611D01*
X148731925Y-79635832D01*
X148938768Y-79842675D01*
X149113160Y-79959200D01*
X148938768Y-80075725D01*
X148731925Y-80282568D01*
X148569410Y-80525789D01*
X148457468Y-80796042D01*
X148400400Y-81082940D01*
X148400400Y-81375460D01*
X148457468Y-81662358D01*
X148569410Y-81932611D01*
X148731925Y-82175832D01*
X148938768Y-82382675D01*
X149113160Y-82499200D01*
X148938768Y-82615725D01*
X148731925Y-82822568D01*
X148569410Y-83065789D01*
X148457468Y-83336042D01*
X148400400Y-83622940D01*
X148400400Y-83915460D01*
X148457468Y-84202358D01*
X148569410Y-84472611D01*
X148731925Y-84715832D01*
X148938768Y-84922675D01*
X149113160Y-85039200D01*
X148938768Y-85155725D01*
X148731925Y-85362568D01*
X148569410Y-85605789D01*
X148457468Y-85876042D01*
X148400400Y-86162940D01*
X148400400Y-86455460D01*
X148457468Y-86742358D01*
X148569410Y-87012611D01*
X148731925Y-87255832D01*
X148938768Y-87462675D01*
X149113160Y-87579200D01*
X148938768Y-87695725D01*
X148731925Y-87902568D01*
X148569410Y-88145789D01*
X148457468Y-88416042D01*
X148400400Y-88702940D01*
X148400400Y-88995460D01*
X148457468Y-89282358D01*
X148533640Y-89466255D01*
X148432315Y-89446100D01*
X148239685Y-89446100D01*
X148050757Y-89483680D01*
X147872790Y-89557396D01*
X147712625Y-89664415D01*
X147576415Y-89800625D01*
X147469396Y-89960790D01*
X147395680Y-90138757D01*
X147358100Y-90327685D01*
X147358100Y-90520315D01*
X147395680Y-90709243D01*
X147396200Y-90710498D01*
X147396201Y-99432735D01*
X147366061Y-99462874D01*
X147364802Y-99463396D01*
X147204637Y-99570415D01*
X147068427Y-99706625D01*
X146961408Y-99866790D01*
X146887692Y-100044757D01*
X146850112Y-100233685D01*
X146850112Y-100426315D01*
X146887692Y-100615243D01*
X146961408Y-100793210D01*
X147068427Y-100953375D01*
X147204637Y-101089585D01*
X147364802Y-101196604D01*
X147542769Y-101270320D01*
X147731697Y-101307900D01*
X147924327Y-101307900D01*
X148113255Y-101270320D01*
X148291222Y-101196604D01*
X148451387Y-101089585D01*
X148587597Y-100953375D01*
X148694616Y-100793210D01*
X148695138Y-100791951D01*
X148967890Y-100519199D01*
X149003754Y-100489766D01*
X149121196Y-100346663D01*
X149208463Y-100183398D01*
X149262202Y-100006245D01*
X149275800Y-99868179D01*
X149280347Y-99822012D01*
X149275800Y-99775845D01*
X149275800Y-95284048D01*
X149452242Y-95357132D01*
X149739140Y-95414200D01*
X150031660Y-95414200D01*
X150318558Y-95357132D01*
X150495401Y-95283882D01*
X150495401Y-106361868D01*
X150374485Y-106069950D01*
X150157251Y-105744836D01*
X149880764Y-105468349D01*
X149555650Y-105251115D01*
X149194403Y-105101482D01*
X148810905Y-105025200D01*
X148419895Y-105025200D01*
X148036397Y-105101482D01*
X147675150Y-105251115D01*
X147350036Y-105468349D01*
X147073549Y-105744836D01*
X146856315Y-106069950D01*
X146706682Y-106431197D01*
X146630400Y-106814695D01*
X146630400Y-107205705D01*
X146706682Y-107589203D01*
X146856315Y-107950450D01*
X147073549Y-108275564D01*
X147350036Y-108552051D01*
X147675150Y-108769285D01*
X148036397Y-108918918D01*
X148419895Y-108995200D01*
X148810905Y-108995200D01*
X149194403Y-108918918D01*
X149546382Y-108773124D01*
X149440981Y-108860319D01*
X149031562Y-109081691D01*
X148586935Y-109219326D01*
X148093390Y-109271200D01*
X131121678Y-109271200D01*
X130675518Y-109227454D01*
X130277401Y-109107255D01*
X129910215Y-108912019D01*
X129587939Y-108649177D01*
X129330163Y-108337578D01*
X129544636Y-108552051D01*
X129869750Y-108769285D01*
X130230997Y-108918918D01*
X130614495Y-108995200D01*
X131005505Y-108995200D01*
X131389003Y-108918918D01*
X131750250Y-108769285D01*
X132075364Y-108552051D01*
X132351851Y-108275564D01*
X132569085Y-107950450D01*
X132718718Y-107589203D01*
X132795000Y-107205705D01*
X132795000Y-106814695D01*
X132718718Y-106431197D01*
X132569085Y-106069950D01*
X132351851Y-105744836D01*
X132075364Y-105468349D01*
X131750250Y-105251115D01*
X131389003Y-105101482D01*
X131005505Y-105025200D01*
X130725979Y-105025200D01*
X130881390Y-104792611D01*
X130993332Y-104522358D01*
X131050400Y-104235460D01*
X131050400Y-103942940D01*
X131045348Y-103917540D01*
X133389000Y-103917540D01*
X133389000Y-104210060D01*
X133446068Y-104496958D01*
X133558010Y-104767211D01*
X133720525Y-105010432D01*
X133927368Y-105217275D01*
X134170589Y-105379790D01*
X134440842Y-105491732D01*
X134727740Y-105548800D01*
X135020260Y-105548800D01*
X135307158Y-105491732D01*
X135577411Y-105379790D01*
X135820632Y-105217275D01*
X136027475Y-105010432D01*
X136144000Y-104836040D01*
X136260525Y-105010432D01*
X136467368Y-105217275D01*
X136710589Y-105379790D01*
X136980842Y-105491732D01*
X137267740Y-105548800D01*
X137560260Y-105548800D01*
X137847158Y-105491732D01*
X138117411Y-105379790D01*
X138360632Y-105217275D01*
X138567475Y-105010432D01*
X138684000Y-104836040D01*
X138800525Y-105010432D01*
X139007368Y-105217275D01*
X139250589Y-105379790D01*
X139520842Y-105491732D01*
X139807740Y-105548800D01*
X140100260Y-105548800D01*
X140387158Y-105491732D01*
X140657411Y-105379790D01*
X140900632Y-105217275D01*
X141032487Y-105085420D01*
X141054498Y-105157980D01*
X141113463Y-105268294D01*
X141192815Y-105364985D01*
X141289506Y-105444337D01*
X141399820Y-105503302D01*
X141519518Y-105539612D01*
X141644000Y-105551872D01*
X142208250Y-105548800D01*
X142367000Y-105390050D01*
X142367000Y-104190800D01*
X142621000Y-104190800D01*
X142621000Y-105390050D01*
X142779750Y-105548800D01*
X143344000Y-105551872D01*
X143468482Y-105539612D01*
X143588180Y-105503302D01*
X143698494Y-105444337D01*
X143795185Y-105364985D01*
X143874537Y-105268294D01*
X143933502Y-105157980D01*
X143969812Y-105038282D01*
X143982072Y-104913800D01*
X143979000Y-104349550D01*
X143820250Y-104190800D01*
X142621000Y-104190800D01*
X142367000Y-104190800D01*
X142347000Y-104190800D01*
X142347000Y-103936800D01*
X142367000Y-103936800D01*
X142367000Y-102737550D01*
X142621000Y-102737550D01*
X142621000Y-103936800D01*
X143820250Y-103936800D01*
X143979000Y-103778050D01*
X143982072Y-103213800D01*
X143969812Y-103089318D01*
X143933502Y-102969620D01*
X143874537Y-102859306D01*
X143795185Y-102762615D01*
X143698494Y-102683263D01*
X143588180Y-102624298D01*
X143468482Y-102587988D01*
X143344000Y-102575728D01*
X142779750Y-102578800D01*
X142621000Y-102737550D01*
X142367000Y-102737550D01*
X142208250Y-102578800D01*
X141644000Y-102575728D01*
X141519518Y-102587988D01*
X141399820Y-102624298D01*
X141289506Y-102683263D01*
X141192815Y-102762615D01*
X141113463Y-102859306D01*
X141054498Y-102969620D01*
X141032487Y-103042180D01*
X140900632Y-102910325D01*
X140657411Y-102747810D01*
X140387158Y-102635868D01*
X140100260Y-102578800D01*
X139807740Y-102578800D01*
X139520842Y-102635868D01*
X139250589Y-102747810D01*
X139007368Y-102910325D01*
X138800525Y-103117168D01*
X138684000Y-103291560D01*
X138567475Y-103117168D01*
X138360632Y-102910325D01*
X138117411Y-102747810D01*
X137847158Y-102635868D01*
X137560260Y-102578800D01*
X137267740Y-102578800D01*
X136980842Y-102635868D01*
X136710589Y-102747810D01*
X136467368Y-102910325D01*
X136260525Y-103117168D01*
X136144000Y-103291560D01*
X136027475Y-103117168D01*
X135820632Y-102910325D01*
X135577411Y-102747810D01*
X135307158Y-102635868D01*
X135020260Y-102578800D01*
X134727740Y-102578800D01*
X134440842Y-102635868D01*
X134170589Y-102747810D01*
X133927368Y-102910325D01*
X133720525Y-103117168D01*
X133558010Y-103360389D01*
X133446068Y-103630642D01*
X133389000Y-103917540D01*
X131045348Y-103917540D01*
X130993332Y-103656042D01*
X130881390Y-103385789D01*
X130718875Y-103142568D01*
X130512032Y-102935725D01*
X130337640Y-102819200D01*
X130512032Y-102702675D01*
X130718875Y-102495832D01*
X130881390Y-102252611D01*
X130993332Y-101982358D01*
X131050400Y-101695460D01*
X131050400Y-101402940D01*
X130993332Y-101116042D01*
X130881390Y-100845789D01*
X130718875Y-100602568D01*
X130512032Y-100395725D01*
X130337640Y-100279200D01*
X130512032Y-100162675D01*
X130718875Y-99955832D01*
X130881390Y-99712611D01*
X130993332Y-99442358D01*
X131050400Y-99155460D01*
X131050400Y-98862940D01*
X130993332Y-98576042D01*
X130881390Y-98305789D01*
X130718875Y-98062568D01*
X130512032Y-97855725D01*
X130337640Y-97739200D01*
X130512032Y-97622675D01*
X130718875Y-97415832D01*
X130881390Y-97172611D01*
X130993332Y-96902358D01*
X131050400Y-96615460D01*
X131050400Y-96322940D01*
X130993332Y-96036042D01*
X130881390Y-95765789D01*
X130718875Y-95522568D01*
X130512032Y-95315725D01*
X130337640Y-95199200D01*
X130512032Y-95082675D01*
X130718875Y-94875832D01*
X130881390Y-94632611D01*
X130993332Y-94362358D01*
X131050400Y-94075460D01*
X131050400Y-93782940D01*
X130993332Y-93496042D01*
X130881390Y-93225789D01*
X130718875Y-92982568D01*
X130512032Y-92775725D01*
X130337640Y-92659200D01*
X130512032Y-92542675D01*
X130718875Y-92335832D01*
X130881390Y-92092611D01*
X130993332Y-91822358D01*
X131050400Y-91535460D01*
X131050400Y-91242940D01*
X130993332Y-90956042D01*
X130881390Y-90685789D01*
X130718875Y-90442568D01*
X130512032Y-90235725D01*
X130337640Y-90119200D01*
X130512032Y-90002675D01*
X130718875Y-89795832D01*
X130881390Y-89552611D01*
X130993332Y-89282358D01*
X131043074Y-89032285D01*
X137172700Y-89032285D01*
X137172700Y-89224915D01*
X137210280Y-89413843D01*
X137283996Y-89591810D01*
X137391015Y-89751975D01*
X137527225Y-89888185D01*
X137687390Y-89995204D01*
X137865357Y-90068920D01*
X138054285Y-90106500D01*
X138246915Y-90106500D01*
X138435843Y-90068920D01*
X138613810Y-89995204D01*
X138773975Y-89888185D01*
X138910185Y-89751975D01*
X139017204Y-89591810D01*
X139090920Y-89413843D01*
X139128500Y-89224915D01*
X139128500Y-89032285D01*
X139090920Y-88843357D01*
X139017204Y-88665390D01*
X138939763Y-88549492D01*
X138961626Y-81356401D01*
X139042604Y-81235210D01*
X139116320Y-81057243D01*
X139153900Y-80868315D01*
X139153900Y-80675685D01*
X139116320Y-80486757D01*
X139042604Y-80308790D01*
X138935585Y-80148625D01*
X138799375Y-80012415D01*
X138639210Y-79905396D01*
X138461243Y-79831680D01*
X138272315Y-79794100D01*
X138079685Y-79794100D01*
X137890757Y-79831680D01*
X137712790Y-79905396D01*
X137552625Y-80012415D01*
X137416415Y-80148625D01*
X137309396Y-80308790D01*
X137235680Y-80486757D01*
X137198100Y-80675685D01*
X137198100Y-80868315D01*
X137235680Y-81057243D01*
X137309396Y-81235210D01*
X137386837Y-81351108D01*
X137364974Y-88544199D01*
X137283996Y-88665390D01*
X137210280Y-88843357D01*
X137172700Y-89032285D01*
X131043074Y-89032285D01*
X131050400Y-88995460D01*
X131050400Y-88702940D01*
X130993332Y-88416042D01*
X130881390Y-88145789D01*
X130718875Y-87902568D01*
X130512032Y-87695725D01*
X130337640Y-87579200D01*
X130512032Y-87462675D01*
X130718875Y-87255832D01*
X130881390Y-87012611D01*
X130993332Y-86742358D01*
X131050400Y-86455460D01*
X131050400Y-86162940D01*
X130993332Y-85876042D01*
X130881390Y-85605789D01*
X130718875Y-85362568D01*
X130512032Y-85155725D01*
X130337640Y-85039200D01*
X130512032Y-84922675D01*
X130718875Y-84715832D01*
X130881390Y-84472611D01*
X130993332Y-84202358D01*
X131050400Y-83915460D01*
X131050400Y-83622940D01*
X130993332Y-83336042D01*
X130881390Y-83065789D01*
X130718875Y-82822568D01*
X130512032Y-82615725D01*
X130337640Y-82499200D01*
X130512032Y-82382675D01*
X130718875Y-82175832D01*
X130881390Y-81932611D01*
X130993332Y-81662358D01*
X131050400Y-81375460D01*
X131050400Y-81082940D01*
X130993332Y-80796042D01*
X130881390Y-80525789D01*
X130718875Y-80282568D01*
X130512032Y-80075725D01*
X130337640Y-79959200D01*
X130512032Y-79842675D01*
X130718875Y-79635832D01*
X130881390Y-79392611D01*
X130993332Y-79122358D01*
X131050400Y-78835460D01*
X131050400Y-78542940D01*
X130993332Y-78256042D01*
X130881390Y-77985789D01*
X130718875Y-77742568D01*
X130512032Y-77535725D01*
X130337640Y-77419200D01*
X130512032Y-77302675D01*
X130718875Y-77095832D01*
X130881390Y-76852611D01*
X130993332Y-76582358D01*
X131050400Y-76295460D01*
X131050400Y-76002940D01*
X130993332Y-75716042D01*
X130881390Y-75445789D01*
X130718875Y-75202568D01*
X130512032Y-74995725D01*
X130329866Y-74874005D01*
X130446755Y-74804378D01*
X130662988Y-74609469D01*
X130837041Y-74376120D01*
X130962225Y-74113299D01*
X131006876Y-73966090D01*
X130885555Y-73736200D01*
X129692400Y-73736200D01*
X129692400Y-73756200D01*
X129438400Y-73756200D01*
X129438400Y-73736200D01*
X129418400Y-73736200D01*
X129418400Y-73482200D01*
X129438400Y-73482200D01*
X129438400Y-73462200D01*
X129692400Y-73462200D01*
X129692400Y-73482200D01*
X130885555Y-73482200D01*
X131006876Y-73252310D01*
X130962225Y-73105101D01*
X130837041Y-72842280D01*
X130662988Y-72608931D01*
X130446755Y-72414022D01*
X130329866Y-72344395D01*
X130512032Y-72222675D01*
X130718875Y-72015832D01*
X130881390Y-71772611D01*
X130993332Y-71502358D01*
X131050400Y-71215460D01*
X131050400Y-70922940D01*
X130993332Y-70636042D01*
X130881390Y-70365789D01*
X130718875Y-70122568D01*
X130512032Y-69915725D01*
X130337640Y-69799200D01*
X130512032Y-69682675D01*
X130718875Y-69475832D01*
X130881390Y-69232611D01*
X130993332Y-68962358D01*
X131050400Y-68675460D01*
X131050400Y-68382940D01*
X130993332Y-68096042D01*
X130881390Y-67825789D01*
X130718875Y-67582568D01*
X130587020Y-67450713D01*
X130659580Y-67428702D01*
X130769894Y-67369737D01*
X130866585Y-67290385D01*
X130945937Y-67193694D01*
X131004902Y-67083380D01*
X131041212Y-66963682D01*
X131053472Y-66839200D01*
X131053472Y-65992224D01*
X136006881Y-65992224D01*
X136138817Y-66287312D01*
X136479545Y-66458159D01*
X136847057Y-66559250D01*
X137227229Y-66586701D01*
X137605451Y-66539457D01*
X137967190Y-66419333D01*
X138214183Y-66287312D01*
X138346119Y-65992224D01*
X137176500Y-64822605D01*
X136006881Y-65992224D01*
X131053472Y-65992224D01*
X131053472Y-65139200D01*
X131041212Y-65014718D01*
X131004902Y-64895020D01*
X130970734Y-64831097D01*
X131427831Y-64785590D01*
X131729508Y-64693729D01*
X135232799Y-64693729D01*
X135280043Y-65071951D01*
X135400167Y-65433690D01*
X135532188Y-65680683D01*
X135827276Y-65812619D01*
X136996895Y-64643000D01*
X137356105Y-64643000D01*
X138525724Y-65812619D01*
X138820812Y-65680683D01*
X138991659Y-65339955D01*
X139092750Y-64972443D01*
X139120201Y-64592271D01*
X139072957Y-64214049D01*
X138952833Y-63852310D01*
X138820812Y-63605317D01*
X138525724Y-63473381D01*
X137356105Y-64643000D01*
X136996895Y-64643000D01*
X135827276Y-63473381D01*
X135532188Y-63605317D01*
X135361341Y-63946045D01*
X135260250Y-64313557D01*
X135232799Y-64693729D01*
X131729508Y-64693729D01*
X132018592Y-64605703D01*
X132557373Y-64317718D01*
X132833543Y-63899748D01*
X130810000Y-61876205D01*
X130795858Y-61890348D01*
X130616253Y-61710743D01*
X130630395Y-61696600D01*
X130616253Y-61682458D01*
X130795858Y-61502853D01*
X130810000Y-61516995D01*
X130824143Y-61502853D01*
X131003748Y-61682458D01*
X130989605Y-61696600D01*
X133013148Y-63720143D01*
X133431118Y-63443973D01*
X133511195Y-63293776D01*
X136006881Y-63293776D01*
X137176500Y-64463395D01*
X138296895Y-63343000D01*
X140238428Y-63343000D01*
X140238428Y-65943000D01*
X140250688Y-66067482D01*
X140286998Y-66187180D01*
X140345963Y-66297494D01*
X140425315Y-66394185D01*
X140522006Y-66473537D01*
X140632320Y-66532502D01*
X140752018Y-66568812D01*
X140876500Y-66581072D01*
X143476500Y-66581072D01*
X143600982Y-66568812D01*
X143720680Y-66532502D01*
X143830994Y-66473537D01*
X143927685Y-66394185D01*
X144007037Y-66297494D01*
X144066002Y-66187180D01*
X144102312Y-66067482D01*
X144114572Y-65943000D01*
X144114572Y-63343000D01*
X144102312Y-63218518D01*
X144066002Y-63098820D01*
X144007037Y-62988506D01*
X143927685Y-62891815D01*
X143830994Y-62812463D01*
X143720680Y-62753498D01*
X143600982Y-62717188D01*
X143476500Y-62704928D01*
X140876500Y-62704928D01*
X140752018Y-62717188D01*
X140632320Y-62753498D01*
X140522006Y-62812463D01*
X140425315Y-62891815D01*
X140345963Y-62988506D01*
X140286998Y-63098820D01*
X140250688Y-63218518D01*
X140238428Y-63343000D01*
X138296895Y-63343000D01*
X138346119Y-63293776D01*
X138214183Y-62998688D01*
X137873455Y-62827841D01*
X137505943Y-62726750D01*
X137125771Y-62699299D01*
X136747549Y-62746543D01*
X136385810Y-62866667D01*
X136138817Y-62998688D01*
X136006881Y-63293776D01*
X133511195Y-63293776D01*
X133721649Y-62899043D01*
X133900287Y-62307904D01*
X133960168Y-61693272D01*
X133898990Y-61078769D01*
X133719103Y-60488008D01*
X133431118Y-59949227D01*
X133191952Y-59791200D01*
X146195007Y-59791200D01*
X145994282Y-59923827D01*
%TD*%
M02*
